<?xml version="1.0" standalone="no"?>
<!DOCTYPE svg PUBLIC "-//W3C//DTD SVG 1.1//EN" "http://www.w3.org/Graphics/SVG/1.1/DTD/svg11.dtd" >
<svg xmlns="http://www.w3.org/2000/svg" xmlns:xlink="http://www.w3.org/1999/xlink" version="1.1">
<metadata>
Created by FontForge 20170731 at Tue Jan 31 13:40:27 2017
 By Aleksey,,,
Copyright 2012 The Encode Project Authors (impallari@gmail.com), with Reserved Font Name "Encode Sans".
</metadata>
<defs>
<font id="EncodeSansCondensed-Light" horiz-adv-x="1030" >
  <font-face 
    font-family="Encode Sans Condensed Light"
    font-weight="300"
    font-stretch="condensed"
    units-per-em="2000"
    panose-1="0 0 4 6 0 0 0 0 0 0"
    ascent="1600"
    descent="-400"
    x-height="1083"
    cap-height="1480"
    bbox="-721 -462 2222 2131"
    underline-thickness="50"
    underline-position="-150"
    unicode-range="U+000D-FB02"
  />
<missing-glyph horiz-adv-x="1028" 
d="M843 1616v-2056h-652v2056h652zM685 1478h-340v-68h134v-76h-136v-68h342v68h-136v76h136v68zM549 1213h-206v-214h342v70h-136v144zM479 1143v-74h-68v74h68zM685 944h-342v-68h136v-76h-136v-68h206v144h136v68zM685 820h-68v-135h-274v-70h342v205zM685 569h-206v-115
h70v48h68v-97h-206v164h-68v-232h342v232zM685 214h-342v-233h342v233zM617 146v-97h-206v97h206zM685 -66h-342v-68h144l-144 -96v-68h342v68h-210l144 96h66v68z" />
    <glyph glyph-name="fi" unicode="fi" horiz-adv-x="973" 
d="M277.5 1556.5q78.5 79.5 229.5 79.5q74 0 122 -11v-104q-58 12 -116 12q-99 0 -149 -49t-50 -157v-244h289v-100h-289v-983h-115v983h-191v100h191v241q0 153 78.5 232.5zM845.5 1483.5q23.5 -23.5 23.5 -62.5t-23.5 -61.5t-64.5 -22.5t-64.5 22.5t-23.5 61.5t23.5 62.5
t64.5 23.5t64.5 -23.5zM723 0v1083h116v-1083h-116z" />
    <glyph glyph-name="fl" unicode="fl" horiz-adv-x="973" 
d="M277.5 1556.5q78.5 79.5 229.5 79.5q74 0 122 -11v-104q-58 12 -116 12q-99 0 -149 -49t-50 -157v-244h289v-100h-289v-983h-115v983h-191v100h191v241q0 153 78.5 232.5zM723 1616h116v-1616h-116v1616z" />
    <glyph glyph-name="f_j" unicode="fj" horiz-adv-x="973" 
d="M314 983v-983h-115v983h-191v100h191v241q0 153 78.5 232.5t229.5 79.5q74 0 122 -11v-104q-58 12 -116 12q-99 0 -149 -49t-50 -157v-244h289v-100h-289zM845.5 1483.5q23.5 -23.5 23.5 -62.5t-23.5 -61.5t-64.5 -22.5t-64.5 22.5t-23.5 61.5t23.5 62.5t64.5 23.5
t64.5 -23.5zM723 1083h116v-904q0 -134 -20.5 -239.5t-63.5 -200t-116 -201.5l-81 54q90 141 127.5 269t37.5 307v915z" />
    <glyph glyph-name=".notdef" horiz-adv-x="1028" 
d="M843 1616v-2056h-652v2056h652zM685 1478h-340v-68h134v-76h-136v-68h342v68h-136v76h136v68zM549 1213h-206v-214h342v70h-136v144zM479 1143v-74h-68v74h68zM685 944h-342v-68h136v-76h-136v-68h206v144h136v68zM685 820h-68v-135h-274v-70h342v205zM685 569h-206v-115
h70v48h68v-97h-206v164h-68v-232h342v232zM685 214h-342v-233h342v233zM617 146v-97h-206v97h206zM685 -66h-342v-68h144l-144 -96v-68h342v68h-210l144 96h66v68z" />
    <glyph glyph-name=".null" horiz-adv-x="0" 
 />
    <glyph glyph-name="nonmarkingreturn" unicode="&#xd;" horiz-adv-x="418" 
 />
    <glyph glyph-name="NULL" horiz-adv-x="0" 
 />
    <glyph glyph-name="NULL" horiz-adv-x="0" 
 />
    <glyph glyph-name="space" unicode=" " horiz-adv-x="418" 
 />
    <glyph glyph-name="exclam" unicode="!" horiz-adv-x="428" 
d="M176 349l-24 557v574h124v-574l-24 -557h-76zM149.5 12.5q-25.5 24.5 -25.5 64.5t25 65t65 25t65 -25t25 -65t-25.5 -64.5t-64.5 -24.5t-64.5 24.5z" />
    <glyph glyph-name="quotedbl" unicode="&#x22;" horiz-adv-x="640" 
d="M145 934l-28 682h126l-28 -682h-70zM425 934l-28 682h126l-28 -682h-70z" />
    <glyph glyph-name="numbersign" unicode="#" 
d="M940 904h-198l-28 -328h226v-99h-234l-40 -477h-99l40 477h-227l-40 -477h-100l40 477h-190v99h198l28 328h-226v99h234l40 477h100l-40 -477h227l40 477h99l-40 -477h190v-99zM615 576l28 328h-227l-28 -328h227z" />
    <glyph glyph-name="dollar" unicode="$" horiz-adv-x="894" 
d="M747.5 122.5q-85.5 -101.5 -245.5 -130.5v-232h-108v222h-19q-70 0 -148 13t-147 38v107q153 -53 298 -53q166 0 250 73.5t84 218.5q0 83 -27 138.5t-85 95.5t-158 75l-62 21q-158 55 -238.5 150.5t-80.5 246.5q0 157 85 256t248 126v232h108v-222h18q65 0 134 -9
t121 -26v-107q-121 37 -253 37q-172 0 -256.5 -72t-84.5 -208q0 -79 25.5 -132.5t81.5 -92.5t152 -72l62 -22q165 -56 248 -153.5t83 -252.5q0 -164 -85.5 -265.5z" />
    <glyph glyph-name="percent" unicode="%" horiz-adv-x="1621" 
d="M89 1037q0 244 78 352.5t220 108.5t220 -108.5t78 -352.5q0 -461 -298 -461t-298 461zM490 0l538 1480h103l-537 -1480h-104zM532.5 750q50.5 84 50.5 286q0 204 -50.5 288.5t-145.5 84.5q-94 0 -144.5 -83.5t-50.5 -286.5q0 -205 50 -289t145 -84t145.5 84zM1014 90.5
q-78 108.5 -78 352.5q0 461 298 461t298 -461q0 -244 -78 -352.5t-220 -108.5t-220 108.5zM1379.5 155.5q50.5 84.5 50.5 286.5q0 204 -50.5 288.5t-145.5 84.5q-94 0 -144.5 -83.5t-50.5 -286.5q0 -205 50.5 -289.5t144.5 -84.5q95 0 145.5 84.5z" />
    <glyph glyph-name="ampersand" unicode="&#x26;" horiz-adv-x="1286" 
d="M1216 -20l-221 201q-62 -99 -166 -149t-243 -50q-141 0 -244.5 52t-158.5 147.5t-55 222.5q0 132 58.5 234t166.5 164q-48 70 -68.5 138t-20.5 147q0 200 115.5 305.5t340.5 105.5q97 0 191 -22v-107q-91 24 -188 24q-171 0 -254.5 -76.5t-83.5 -227.5q0 -73 20 -133
t68.5 -124.5t136.5 -147.5l349 -318q13 70 13 145q0 66 -9 137t-27 134h107q17 -63 25 -133.5t8 -135.5q0 -126 -32 -225l242 -220zM919 251l-379 345q-82 75 -130 132q-80 -52 -121 -130.5t-41 -180.5q0 -103 41 -178.5t119 -116t186 -40.5q236 0 325 169z" />
    <glyph glyph-name="quotesingle" unicode="'" horiz-adv-x="360" 
d="M145 934l-28 682h126l-28 -682h-70z" />
    <glyph glyph-name="parenleft" unicode="(" horiz-adv-x="565" 
d="M111 588q0 592 296 1028h117q-291 -451 -291 -1028t291 -1028h-117q-296 436 -296 1028z" />
    <glyph glyph-name="parenright" unicode=")" horiz-adv-x="565" 
d="M332 588q0 579 -291 1028h118q295 -437 295 -1028t-295 -1028h-118q291 449 291 1028z" />
    <glyph glyph-name="asterisk" unicode="*" horiz-adv-x="856" 
d="M471 1199l135 -152l98 -133l-77 -56l-97 133l-102 176l-102 -176l-97 -133l-77 56l98 133l135 152l-199 43l-156 51l29 89l155 -51l187 -82l-20 203v164h94v-164l-21 -203l188 82l154 51l30 -89l-157 -51z" />
    <glyph glyph-name="plus" unicode="+" horiz-adv-x="1019" 
d="M457 369v341h-323v100h323v341h105v-341h323v-100h-323v-341h-105z" />
    <glyph glyph-name="comma" unicode="," horiz-adv-x="388" 
d="M259.5 139.5q24.5 -29.5 24.5 -89.5q0 -94 -23 -185.5t-62 -173.5h-71q30 88 46 158.5t19 138.5q-39 0 -64 25t-25 66q0 40 24 65t63 25q44 0 68.5 -29.5z" />
    <glyph glyph-name="hyphen" unicode="-" horiz-adv-x="689" 
d="M134 511v101h421v-101h-421z" />
    <glyph glyph-name="period" unicode="." horiz-adv-x="388" 
d="M129 12.5q-25 24.5 -25 65.5t25 66t65 25t65 -25.5t25 -65.5q0 -41 -25 -65.5t-65 -24.5t-65 24.5z" />
    <glyph glyph-name="slash" unicode="/" horiz-adv-x="468" 
d="M0 -240l353 1856h115l-353 -1856h-115z" />
    <glyph glyph-name="zero" unicode="0" horiz-adv-x="1064" 
d="M211.5 159q-110.5 177 -110.5 581q0 274 51 441.5t146 242t234 74.5t233.5 -74.5t145.5 -242t51 -441.5q0 -404 -110 -581t-320 -177t-320.5 177zM700.5 147q68.5 60 105.5 203.5t37 386.5q0 246 -37 390.5t-105.5 205t-168.5 60.5t-168.5 -60t-105.5 -203.5t-37 -386.5
q0 -246 37 -390.5t105.5 -205t168.5 -60.5t168.5 60z" />
    <glyph glyph-name="one" unicode="1" horiz-adv-x="578" 
d="M347 1484h68v-1484h-116v1331l-281 -210v118z" />
    <glyph glyph-name="two" unicode="2" horiz-adv-x="831" 
d="M774 106v-106h-725v67l373 599q91 145 130 250t39 203q0 147 -73 210.5t-219 63.5q-141 0 -267 -55v107q52 24 128 38.5t148 14.5q192 0 296.5 -88t104.5 -276q0 -116 -41.5 -234t-145.5 -283l-322 -511h574z" />
    <glyph glyph-name="three" unicode="3" horiz-adv-x="877" 
d="M726.5 637.5q80.5 -98.5 80.5 -250.5q0 -129 -55 -220t-157.5 -138t-244.5 -47q-164 0 -305 52v104q72 -27 150 -40.5t152 -13.5q164 0 254 77.5t90 227.5q0 152 -92.5 235.5t-280.5 83.5h-117v104h56q126 0 213 38.5t131.5 109t44.5 167.5q0 135 -75.5 202t-226.5 67
q-148 0 -274 -55v104q53 24 129.5 38.5t151.5 14.5q200 0 305.5 -94t105.5 -271q0 -132 -70.5 -228t-200.5 -135q155 -34 235.5 -132.5z" />
    <glyph glyph-name="four" unicode="4" horiz-adv-x="1021" 
d="M982 469v-100h-193v-369h-110v369h-633v67l510 1044h119l-493 -1011h497l17 511h93v-511h193z" />
    <glyph glyph-name="five" unicode="5" horiz-adv-x="879" 
d="M704 716.5q127 -105.5 127 -309.5q0 -208 -117 -316.5t-337 -108.5q-172 0 -307 52v104q73 -26 151.5 -40t153.5 -14q169 0 254.5 80.5t85.5 238.5q0 109 -45 179.5t-141 108t-252 46.5l-159 10l46 733h607v-103h-499l-36 -534l84 -5q257 -16 384 -121.5z" />
    <glyph glyph-name="six" unicode="6" horiz-adv-x="984" 
d="M741.5 794q89.5 -47 142 -142.5t52.5 -235.5q0 -142 -50.5 -239.5t-137.5 -146t-196 -48.5q-204 0 -320 163t-116 547q0 288 62.5 466t181.5 259t295 81q130 0 219 -39v-105q-100 41 -221 41q-139 0 -231 -65.5t-140 -213t-48 -392.5q53 55 134 86t173 31
q111 0 200.5 -47zM691 116q60 34 96 108t36 187q0 169 -82 249.5t-216 80.5q-83 0 -160 -31t-130 -96q6 -202 48 -319.5t110.5 -165t161.5 -47.5q76 0 136 34z" />
    <glyph glyph-name="seven" unicode="7" horiz-adv-x="806" 
d="M8 1480h742v-67l-482 -1413h-121l475 1374h-614v106z" />
    <glyph glyph-name="eight" unicode="8" horiz-adv-x="1064" 
d="M860.5 649.5q62.5 -53.5 90.5 -122t28 -161.5q0 -115 -53 -201.5t-152 -134.5t-232 -48q-145 0 -247.5 46.5t-156 133t-53.5 206.5q0 133 72 238.5t198 158.5q-121 63 -174.5 149.5t-53.5 209.5q0 113 49 197.5t140.5 130.5t214.5 46t214.5 -45.5t141 -129.5t49.5 -197
q0 -124 -61.5 -220t-180.5 -158q104 -45 166.5 -98.5zM273 984.5q29 -58.5 99 -104t197 -86.5q21 -7 25 -8q125 62 180 139.5t55 196.5q0 134 -78.5 206t-218.5 72q-138 0 -213 -72.5t-75 -199.5q0 -85 29 -143.5zM778.5 153.5q84.5 73.5 84.5 204.5q0 90 -30 149t-101 102
t-200 84q-39 12 -83 29q-117 -44 -182.5 -135t-65.5 -214q0 -142 85.5 -217.5t255.5 -75.5q152 0 236.5 73.5z" />
    <glyph glyph-name="nine" unicode="9" horiz-adv-x="984" 
d="M752 1335q116 -163 116 -547q0 -288 -62.5 -466t-181.5 -259t-295 -81q-130 0 -219 39v105q100 -41 221 -41q139 0 231 65.5t140 213t48 392.5q-53 -55 -134 -86t-173 -31q-111 0 -200.5 47t-142 142.5t-52.5 235.5q0 142 50.5 239.5t137.5 146t196 48.5q204 0 320 -163z
M619 770q77 31 130 96q-6 202 -48 319.5t-110.5 165t-161.5 47.5q-76 0 -136 -34t-96 -108t-36 -187q0 -169 82 -249.5t216 -80.5q83 0 160 31z" />
    <glyph glyph-name="colon" unicode=":" horiz-adv-x="388" 
d="M129 12.5q-25 24.5 -25 65.5t25 66t65 25t65 -25.5t25 -65.5q0 -41 -25 -65.5t-65 -24.5t-65 24.5zM129 938.5q-25 24.5 -25 65.5t25 66t65 25t65 -25.5t25 -65.5q0 -41 -25 -65.5t-65 -24.5t-65 24.5z" />
    <glyph glyph-name="semicolon" unicode=";" horiz-adv-x="388" 
d="M259.5 139.5q24.5 -29.5 24.5 -89.5q0 -94 -23 -185.5t-62 -173.5h-71q30 88 46 158.5t19 138.5q-39 0 -64 25t-25 66q0 40 24 65t63 25q44 0 68.5 -29.5zM129 938.5q-25 24.5 -25 65.5t25 66t65 25t65 -25.5t25 -65.5q0 -41 -25 -65.5t-65 -24.5t-65 24.5z" />
    <glyph glyph-name="less" unicode="&#x3c;" horiz-adv-x="1019" 
d="M885 1140v-106l-636 -274l636 -274v-106l-751 329v102z" />
    <glyph glyph-name="equal" unicode="=" horiz-adv-x="1019" 
d="M134 899v100h751v-100h-751zM134 521v100h751v-100h-751z" />
    <glyph glyph-name="greater" unicode="&#x3e;" horiz-adv-x="1019" 
d="M134 1140l751 -329v-102l-751 -329v106l636 274l-636 274v106z" />
    <glyph glyph-name="question" unicode="?" horiz-adv-x="783" 
d="M281 756q124 46 196 99.5t103.5 119t31.5 152.5q0 135 -75.5 202t-228.5 67q-145 0 -273 -55v104q53 24 130 38.5t152 14.5q200 0 305 -94t105 -271q0 -103 -33 -180.5t-106 -140t-197 -118.5l-13 -359h-77zM275 12.5q-25 24.5 -25 64.5t24.5 65t64.5 25t65 -25t25 -65
q0 -39 -25 -64t-65 -25q-39 0 -64 24.5z" />
    <glyph glyph-name="at" unicode="@" horiz-adv-x="1612" 
d="M1340.5 1275.5q180.5 -222.5 180.5 -711.5q0 -201 -38.5 -331t-105 -190t-151.5 -60q-77 0 -125.5 37.5t-65.5 103.5h-9q-46 -70 -117.5 -105.5t-157.5 -35.5t-151.5 33.5t-101.5 98.5t-36 157q0 142 84.5 220.5t260.5 97.5l218 24v132q0 95 -27.5 149t-81.5 76.5
t-139 22.5q-56 0 -122 -11.5t-130 -34.5l1 103q55 21 127.5 33t136.5 12q117 0 193.5 -34t116 -112t39.5 -209v-514q0 -76 24 -112.5t78 -36.5q49 0 89 45.5t65.5 152.5t25.5 282q0 313 -70.5 499t-204.5 266t-334 80q-201 0 -335.5 -82t-206.5 -275.5t-72 -522.5
q0 -334 73.5 -529t215 -277t360.5 -82q86 0 165 14t163 43v-96q-156 -56 -328 -56q-248 0 -414.5 96.5t-254 313t-87.5 570.5q0 350 85 566.5t244.5 314t391.5 97.5q348 0 528.5 -222.5zM911 117q65 35 114 115v293l-213 -23q-118 -13 -174 -66t-56 -150q0 -103 50 -153.5
t145 -50.5q69 0 134 35z" />
    <glyph glyph-name="A" unicode="A" horiz-adv-x="1156" 
d="M1014 0l-159 500h-558l-158 -500h-118l476 1480h162l476 -1480h-121zM331 606h491l-246 773z" />
    <glyph glyph-name="B" unicode="B" horiz-adv-x="1113" 
d="M968 640q76 -97 76 -246q0 -204 -140.5 -305t-447.5 -101q-156 0 -303 18v1458q160 31 334 31q180 0 293.5 -41t167.5 -126t54 -219q0 -127 -61.5 -219.5t-197.5 -124.5q149 -28 225 -125zM268 1376v-564h236q144 0 228.5 33.5t120 97.5t35.5 162q0 104 -39 167
t-125 92.5t-230 29.5q-125 0 -226 -18zM739.5 122.5q99.5 32.5 145 99t45.5 172.5q0 158 -94 236t-294 78h-274v-609q87 -9 206 -9q166 0 265.5 32.5z" />
    <glyph glyph-name="C" unicode="C" horiz-adv-x="956" 
d="M349.5 54.5q-124.5 72.5 -191.5 239.5t-67 444q0 273 67.5 441t195 243.5t316.5 75.5q135 0 266 -38v-107q-69 22 -132.5 30.5t-135.5 8.5q-153 0 -252 -60.5t-150.5 -203.5t-51.5 -386q0 -248 52 -392t150 -203t246 -59q67 0 132 12t142 39v-108q-136 -49 -281 -49
q-181 0 -305.5 72.5z" />
    <glyph glyph-name="D" unicode="D" horiz-adv-x="1183" 
d="M153 4v1461q164 30 302 30q321 0 478.5 -184.5t157.5 -570.5q0 -264 -75 -430t-222.5 -244t-370.5 -78q-116 0 -270 16zM737 158.5q116 64.5 174 206.5t58 375q0 231 -55 374t-167 209.5t-288 66.5q-85 0 -190 -15v-1272q71 -9 172 -9q180 0 296 64.5z" />
    <glyph glyph-name="E" unicode="E" horiz-adv-x="973" 
d="M269 106h667v-106h-783v1480h773v-106h-657v-561h565v-106h-565v-601z" />
    <glyph glyph-name="F" unicode="F" horiz-adv-x="934" 
d="M917 1373h-648v-567h557v-107h-557v-699h-116v1480h764v-107z" />
    <glyph glyph-name="G" unicode="G" horiz-adv-x="1132" 
d="M1011 720v-707q-140 -25 -261 -25q-222 0 -366.5 74t-218.5 239t-74 437q0 274 73 442.5t209 243t336 74.5q150 0 281 -39v-107q-132 40 -279 40q-165 0 -274 -60.5t-166 -204.5t-57 -390q0 -241 58 -382t173.5 -201t297.5 -60q81 0 156 12v614h112z" />
    <glyph glyph-name="H" unicode="H" horiz-adv-x="1242" 
d="M153 0v1480h116v-665h704v665h117v-1480h-117v705h-704v-705h-116z" />
    <glyph glyph-name="I" unicode="I" horiz-adv-x="422" 
d="M153 0v1480h116v-1480h-116z" />
    <glyph glyph-name="J" unicode="J" horiz-adv-x="422" 
d="M-13 -287q91 141 128.5 269t37.5 307v1191h116v-1214q-5 -178 -50 -316t-151 -292z" />
    <glyph glyph-name="K" unicode="K" horiz-adv-x="1070" 
d="M980 0l-530 705h-181v-705h-116v1480h116v-667h183l490 667h130l-530 -718l571 -762h-133z" />
    <glyph glyph-name="L" unicode="L" horiz-adv-x="912" 
d="M153 0v1480h116v-1372h639v-108h-755z" />
    <glyph glyph-name="M" unicode="M" horiz-adv-x="1549" 
d="M1255 1480h138v-1480h-111v1281l-452 -1078h-111l-451 1067v-1270h-111v1480h137l483 -1153z" />
    <glyph glyph-name="N" unicode="N" horiz-adv-x="1268" 
d="M1004 1480h111v-1480h-123l-728 1283v-1283h-111v1480h123l728 -1283v1283z" />
    <glyph glyph-name="O" unicode="O" horiz-adv-x="1199" 
d="M223.5 161.5q-132.5 179.5 -132.5 578.5t132.5 578.5t376.5 179.5t376 -179.5t132 -578.5t-132 -578.5t-376 -179.5t-376.5 179.5zM808 147.5q85 60.5 131.5 203.5t46.5 384q0 246 -46.5 391t-131.5 206t-208 61q-124 0 -209 -60.5t-131.5 -203.5t-46.5 -384
q0 -246 46.5 -391t131.5 -206t209 -61q123 0 208 60.5z" />
    <glyph glyph-name="P" unicode="P" horiz-adv-x="1079" 
d="M153 1465q164 30 309 30q267 0 399.5 -122.5t132.5 -377.5q0 -496 -561 -496q-87 0 -164 7v-506h-116v1465zM768.5 697.5q106.5 94.5 106.5 293.5q0 209 -99 304.5t-308 95.5q-99 0 -199 -14v-765q72 -9 170 -9q223 0 329.5 94.5z" />
    <glyph glyph-name="Q" unicode="Q" horiz-adv-x="1199" 
d="M990.5 188.5q-117.5 -190.5 -349.5 -197.5q183 -66 444 -93l-21 -104q-379 52 -587.5 154.5t-297 288.5t-88.5 503q0 399 132.5 578.5t376.5 179.5t376 -179.5t132 -578.5q0 -361 -117.5 -551.5zM259.5 354q46.5 -145 131.5 -206t209 -61q123 0 208 60.5t131.5 203.5
t46.5 384q0 246 -46.5 391t-131.5 206t-208 61q-124 0 -209 -60.5t-131.5 -203.5t-46.5 -384q0 -246 46.5 -391z" />
    <glyph glyph-name="R" unicode="R" horiz-adv-x="1145" 
d="M979 0l-443 633q-43 -4 -103 -4q-95 0 -164 6v-635h-116v1465q169 30 325 30q258 0 385.5 -107t127.5 -320q2 -169 -84 -274t-256 -143l458 -651h-130zM770 811.5q108 81.5 108 254.5q0 168 -94 247.5t-302 79.5q-115 0 -213 -17v-640q94 -6 159 -6q234 0 342 81.5z" />
    <glyph glyph-name="S" unicode="S" horiz-adv-x="894" 
d="M228.5 -4.5q-78.5 13.5 -148.5 38.5v106q157 -53 300 -53q164 0 248 73.5t84 218.5q0 83 -27 138.5t-85 95.5t-158 75l-62 21q-158 55 -238.5 150.5t-80.5 246.5q0 122 52 210t154 135t250 47q67 0 137 -9.5t121 -26.5v-107q-120 38 -255 38q-171 0 -255 -72t-84 -208
q0 -79 25.5 -132.5t81.5 -92.5t152 -72l62 -22q165 -56 248 -153.5t83 -252.5q0 -194 -119 -300t-338 -106q-69 0 -147.5 13.5z" />
    <glyph glyph-name="T" unicode="T" horiz-adv-x="1011" 
d="M447 0v1372h-440v108h997v-108h-440v-1372h-117z" />
    <glyph glyph-name="U" unicode="U" horiz-adv-x="1219" 
d="M346 38.5q-103 56.5 -152 172.5t-49 298v971h117v-986q0 -210 82.5 -308.5t266.5 -98.5t266.5 98.5t82.5 308.5v986h114v-971q0 -182 -48.5 -298t-150.5 -172.5t-264 -56.5t-265 56.5z" />
    <glyph glyph-name="V" unicode="V" horiz-adv-x="1125" 
d="M1004 1480h116l-472 -1480h-170l-472 1480h123l437 -1383z" />
    <glyph glyph-name="W" unicode="W" horiz-adv-x="1811" 
d="M1650 1480h112l-366 -1480h-157l-332 1341l-336 -1341h-156l-367 1480h121l330 -1362l337 1362h144l335 -1366z" />
    <glyph glyph-name="X" unicode="X" horiz-adv-x="1108" 
d="M622 753l465 -753h-133l-400 651l-402 -651h-133l467 752l-451 728h132l387 -627l387 627h131z" />
    <glyph glyph-name="Y" unicode="Y" horiz-adv-x="1011" 
d="M1033 1480l-469 -812v-668h-117v667l-477 813h129l408 -700l405 700h121z" />
    <glyph glyph-name="Z" unicode="Z" horiz-adv-x="974" 
d="M203 107h719v-107h-870v67l709 1306h-699v107h850v-67z" />
    <glyph glyph-name="bracketleft" unicode="[" horiz-adv-x="565" 
d="M173 -440v2056h431v-100h-315v-1856h315v-100h-431z" />
    <glyph glyph-name="backslash" unicode="\" horiz-adv-x="468" 
d="M353 -240l-353 1856h115l353 -1856h-115z" />
    <glyph glyph-name="bracketright" unicode="]" horiz-adv-x="565" 
d="M-38 -440v100h315v1856h-315v100h431v-2056h-431z" />
    <glyph glyph-name="asciicircum" unicode="^" 
d="M925 740h-118l-292 642l-292 -642h-118l345 740h128z" />
    <glyph glyph-name="underscore" unicode="_" horiz-adv-x="947" 
d="M88 -100v100h771v-100h-771z" />
    <glyph glyph-name="grave" unicode="`" horiz-adv-x="860" 
d="M381 1257l-178 359h119l157 -359h-98z" />
    <glyph glyph-name="a" unicode="a" horiz-adv-x="876" 
d="M595 1064.5q77 -34.5 116.5 -113.5t39.5 -213v-738h-98l-10 120h-9q-47 -68 -116.5 -102.5t-154.5 -34.5q-86 0 -151.5 34t-101.5 99t-36 156q0 143 84.5 222t259.5 96l218 25v127q0 98 -27.5 154t-81.5 78.5t-141 22.5q-56 0 -122.5 -11t-130.5 -33v103q55 20 128 31.5
t138 11.5q119 0 196 -34.5zM523 117q65 35 113 114v293l-212 -22q-118 -12 -174.5 -65.5t-56.5 -151.5q0 -102 50.5 -152.5t145.5 -50.5q69 0 134 35z" />
    <glyph glyph-name="b" unicode="b" horiz-adv-x="943" 
d="M256.5 -7q-70.5 11 -122.5 29v1594h116v-636h8q39 52 103 85.5t145 33.5q159 0 257.5 -125.5t98.5 -412.5q0 -579 -471 -579q-64 0 -134.5 11zM654 191q87 109 87 358q0 174 -33.5 272t-91.5 135.5t-139 37.5q-69 0 -131 -35t-96 -99v-759q28 -8 68 -13.5t75 -5.5
q174 0 261 109z" />
    <glyph glyph-name="c" unicode="c" horiz-adv-x="723" 
d="M261.5 36.5q-88.5 55.5 -134.5 179.5t-46 325q0 203 51 326t149 177.5t246 54.5q94 0 177 -21v-105q-85 22 -162 22q-120 0 -193 -41t-109.5 -139t-36.5 -269q0 -174 33 -274.5t98.5 -143t168.5 -42.5q91 0 201 40v-105q-110 -40 -221 -40q-133 0 -221.5 55.5z" />
    <glyph glyph-name="d" unicode="d" horiz-adv-x="943" 
d="M181.5 107q-100.5 126 -100.5 413q0 296 120.5 437.5t357.5 141.5q67 0 134 -8v525h116v-1616h-101l-9 108h-9q-38 -56 -102 -91.5t-144 -35.5q-162 0 -262.5 126zM596 122q62 36 97 103v761q-27 6 -66.5 9.5t-73.5 3.5q-176 0 -264 -109.5t-88 -358.5q0 -173 34 -271
t92 -136t139 -38q68 0 130 36z" />
    <glyph glyph-name="e" unicode="e" horiz-adv-x="871" 
d="M802 499h-601q3 -156 39 -246.5t105.5 -129.5t179.5 -39q95 0 228 40v-103q-124 -40 -239 -40q-147 0 -242 55.5t-143 178.5t-48 327q0 290 98 423.5t272 133.5q170 0 260.5 -131.5t90.5 -426.5v-42zM270 912.5q-65 -93.5 -69 -323.5h485q-2 158 -31 250t-80 129.5
t-124 37.5q-116 0 -181 -93.5z" />
    <glyph glyph-name="f" unicode="f" horiz-adv-x="589" 
d="M365 1483q-51 -50 -51 -160v-240h289v-100h-289v-983h-115v983h-191v100h191v237q0 156 80 236t236 80q73 0 124 -10v-104q-64 11 -118 11q-105 0 -156 -50z" />
    <glyph glyph-name="g" unicode="g" horiz-adv-x="943" 
d="M266.5 -449q-69.5 11 -122.5 31v104q126 -44 250 -44q102 0 167.5 31.5t98.5 104t33 193.5v132h-8q-38 -52 -102.5 -86t-146.5 -34q-157 0 -256 125.5t-99 411.5q0 579 474 579q62 0 133 -11.5t121 -28.5v-1074q0 -236 -101.5 -340.5t-308.5 -104.5q-63 0 -132.5 11z
M596.5 122.5q62.5 35.5 96.5 99.5v760q-79 17 -144 17q-173 0 -260.5 -109.5t-87.5 -357.5q0 -173 34 -271.5t91.5 -136t139.5 -37.5q68 0 130.5 35.5z" />
    <glyph glyph-name="h" unicode="h" horiz-adv-x="955" 
d="M134 1616h116v-655h8q55 69 129 103.5t159 34.5q284 0 284 -338v-761h-116v759q0 125 -51 178t-145 53q-74 0 -148.5 -37.5t-119.5 -119.5v-833h-116v1616z" />
    <glyph glyph-name="i" unicode="i" horiz-adv-x="384" 
d="M134 0v1083h116v-1083h-116zM127.5 1359.5q-23.5 22.5 -23.5 61.5t23.5 62.5t64.5 23.5t64.5 -23.5t23.5 -62.5t-23.5 -61.5t-64.5 -22.5t-64.5 22.5z" />
    <glyph glyph-name="j" unicode="j" horiz-adv-x="384" 
d="M-31 -408q90 141 127.5 269t37.5 307v915h116v-904q0 -134 -20.5 -239.5t-63.5 -200t-116 -201.5zM127.5 1359.5q-23.5 22.5 -23.5 61.5t23.5 62.5t64.5 23.5t64.5 -23.5t23.5 -62.5t-23.5 -61.5t-64.5 -22.5t-64.5 22.5z" />
    <glyph glyph-name="k" unicode="k" horiz-adv-x="871" 
d="M764 0l-359 504h-155v-504h-116v1616h116v-1012h154l331 479h130l-363 -527l396 -556h-134z" />
    <glyph glyph-name="l" unicode="l" horiz-adv-x="384" 
d="M134 0v1616h116v-1616h-116z" />
    <glyph glyph-name="m" unicode="m" horiz-adv-x="1477" 
d="M1276 1020q76 -79 76 -260v-760h-116v757q0 235 -188 235q-66 0 -135 -37.5t-114 -122.5q3 -31 3 -68v-764h-115v757q0 127 -48.5 181t-135.5 54q-67 0 -138 -39.5t-115 -124.5v-828h-116v1083h99l10 -124h9q56 70 127.5 105t153.5 35q182 0 242 -156q61 82 139 119
t159 37q127 0 203 -79z" />
    <glyph glyph-name="n" unicode="n" horiz-adv-x="955" 
d="M134 1083h99l10 -122h9q54 66 129 102t162 36q287 0 287 -333v-766h-116v760q0 125 -51 178.5t-145 53.5q-73 0 -148 -38.5t-120 -120.5v-833h-116v1083z" />
    <glyph glyph-name="o" unicode="o" horiz-adv-x="936" 
d="M81 540q0 293 100 426t287 133q387 0 387 -558q0 -293 -100 -426.5t-287 -133.5q-387 0 -387 559zM612.5 121.5q58.5 41.5 90 142t31.5 273.5q0 176 -32 278t-90 143.5t-144 41.5t-144.5 -41.5t-90.5 -142t-32 -272.5q0 -176 32 -278t90.5 -144t144.5 -42t144.5 41.5z
" />
    <glyph glyph-name="p" unicode="p" horiz-adv-x="943" 
d="M134 1083h100l9 -110h9q38 56 102 91t145 35q162 0 262.5 -125.5t100.5 -412.5q0 -296 -121 -437.5t-358 -141.5q-66 0 -133 8v-430h-116v1523zM653.5 191q87.5 109 87.5 358q0 174 -33.5 272t-91.5 136t-139 38q-68 0 -130.5 -36.5t-96.5 -102.5v-762q27 -5 67 -8.5
t73 -3.5q176 0 263.5 109z" />
    <glyph glyph-name="q" unicode="q" horiz-adv-x="943" 
d="M693 102h-8q-38 -52 -102.5 -86t-146.5 -34q-158 0 -256.5 125.5t-98.5 412.5q0 579 473 579q63 0 134 -11.5t121 -28.5v-1499h-116v542zM597 122q62 35 96 99v761q-79 17 -144 17q-173 0 -260.5 -109.5t-87.5 -357.5q0 -174 34 -272t92 -135.5t139 -37.5q69 0 131 35z
" />
    <glyph glyph-name="r" unicode="r" horiz-adv-x="598" 
d="M134 1083h99l9 -147h10q48 78 121 117.5t157 39.5q23 0 58 -5v-112q-22 3 -64 3q-83 0 -158 -45.5t-116 -126.5v-807h-116v1083z" />
    <glyph glyph-name="s" unicode="s" horiz-adv-x="743" 
d="M89 21v103q129 -41 238 -41q120 0 183.5 52t63.5 149q0 84 -39 128.5t-122 68.5l-102 28q-130 37 -186.5 107t-56.5 182q0 88 42.5 156t124.5 106.5t196 38.5q108 0 203 -23v-103q-54 13 -100.5 19t-99.5 6q-126 0 -190 -55.5t-64 -141.5q0 -76 38 -120.5t119 -67.5
l102 -28q135 -37 191 -108.5t56 -187.5q0 -96 -42.5 -165.5t-123 -106t-192.5 -36.5q-125 0 -239 40z" />
    <glyph glyph-name="t" unicode="t" horiz-adv-x="622" 
d="M613 102v-105q-63 -15 -132 -15q-141 0 -215.5 76t-74.5 242v683h-191v100h191l18 397h98v-397h289v-100h-289v-666q0 -86 21 -136t63 -72t110 -22q47 0 112 15z" />
    <glyph glyph-name="u" unicode="u" horiz-adv-x="946" 
d="M125 320v763h116v-761q0 -125 50.5 -179t142.5 -54q70 0 143.5 38.5t118.5 119.5v836h116v-1083h-100l-9 119h-9q-56 -68 -129.5 -102.5t-154.5 -34.5q-285 0 -285 338z" />
    <glyph glyph-name="v" unicode="v" horiz-adv-x="887" 
d="M757 1083h122l-358 -1083h-155l-357 1083h124l312 -970z" />
    <glyph glyph-name="w" unicode="w" horiz-adv-x="1472" 
d="M1317 1083h110l-283 -1083h-142l-265 960l-267 -960h-142l-283 1083h114l245 -956l264 956h141l262 -954z" />
    <glyph glyph-name="x" unicode="x" horiz-adv-x="826" 
d="M481 548l339 -548h-131l-277 454l-276 -454h-128l337 546l-332 537h130l272 -441l271 441h127z" />
    <glyph glyph-name="y" unicode="y" horiz-adv-x="887" 
d="M757 1083h122l-503 -1523h-117l146 440h-39l-357 1083h124l309 -977z" />
    <glyph glyph-name="z" unicode="z" horiz-adv-x="762" 
d="M190 100h526v-100h-664v70l516 913h-506v100h644v-70z" />
    <glyph glyph-name="braceleft" unicode="{" horiz-adv-x="605" 
d="M294.5 699.5q-34.5 -54.5 -106.5 -75.5q72 -22 106.5 -76.5t34.5 -142.5v-572q0 -97 47.5 -144t145.5 -47h122v-91q-53 -11 -129 -11q-150 0 -226 76t-76 225v568q0 83 -42 124t-121 41h-13v99h13q79 0 121 41t42 124v497q0 149 76 225t226 76q76 0 129 -11v-91h-122
q-98 0 -145.5 -47t-47.5 -144v-501q0 -88 -34.5 -142.5z" />
    <glyph glyph-name="bar" unicode="|" horiz-adv-x="414" 
d="M153 -440v2056h109v-2056h-109z" />
    <glyph glyph-name="braceright" unicode="}" horiz-adv-x="605" 
d="M568 673v-99h-12q-163 0 -163 -165v-568q0 -149 -76.5 -225t-225.5 -76q-77 0 -129 11v91h122q98 0 145.5 47t47.5 144v572q0 88 34 142.5t106 76.5q-72 21 -106 75.5t-34 142.5v501q0 97 -47.5 144t-145.5 47h-122v91q52 11 129 11q149 0 225.5 -76t76.5 -225v-497
q0 -165 163 -165h12z" />
    <glyph glyph-name="asciitilde" unicode="~" horiz-adv-x="1019" 
d="M594.5 663.5q-43.5 16.5 -104.5 47.5q-54 27 -88 40t-67 13q-58 0 -107.5 -27t-93.5 -82v116q35 45 86.5 68t113.5 23q48 0 90.5 -16t105.5 -47q53 -27 87 -40t67 -13q114 0 201 108v-115q-35 -45 -86.5 -68.5t-113.5 -23.5q-47 0 -90.5 16.5z" />
    <glyph glyph-name="uni00A0" unicode="&#xa0;" horiz-adv-x="418" 
 />
    <glyph glyph-name="exclamdown" unicode="&#xa1;" horiz-adv-x="428" 
d="M279 1070.5q25 -24.5 25 -65.5q0 -40 -25 -65.5t-65 -25.5t-65 25t-25 66t25 65.5t65 24.5t65 -24.5zM176 733h76l24 -557v-556h-124v556z" />
    <glyph glyph-name="cent" unicode="&#xa2;" horiz-adv-x="719" 
d="M347.5 954q-72.5 -41 -108.5 -139t-36 -269q0 -174 33 -274.5t98.5 -143t168.5 -42.5q91 0 201 40v-105q-87 -32 -175 -38v-223h-102v224q-173 16 -259.5 148t-86.5 409q0 264 86.5 395t259.5 156v231h102v-224q92 0 175 -21v-105q-85 22 -167 22q-117 0 -189.5 -41z" />
    <glyph glyph-name="sterling" unicode="&#xa3;" horiz-adv-x="1072" 
d="M1024 105v-105h-949v105h201v595h-201v100h201v282q0 207 117.5 311.5t343.5 104.5q66 0 135.5 -9t121.5 -26v-107q-121 37 -253 37q-177 0 -263 -74.5t-86 -234.5v-284h459v-100h-459v-595h632z" />
    <glyph glyph-name="currency" unicode="&#xa4;" 
d="M865 464l99 -96l-77 -77l-96 99l-67 87q-41 -35 -94 -53.5t-115 -18.5q-123 0 -210 71l-66 -86l-96 -99l-77 77l99 96l90 68q-60 87 -60 208q0 120 60 207l-90 69l-101 96l78 77l96 -99l68 -88q85 71 209 71q62 0 115 -18.5t95 -53.5l68 89l96 99l77 -77l-101 -96
l-90 -69q60 -87 60 -207q0 -121 -60 -208zM636 521.5q52 29.5 81 85t29 133.5q0 73 -27 129t-78.5 87.5t-123.5 31.5q-69 0 -122 -29.5t-82 -85.5t-29 -133t29 -133t81 -85.5t121 -29.5t121 29.5z" />
    <glyph glyph-name="yen" unicode="&#xa5;" horiz-adv-x="1059" 
d="M1060 1480l-431 -742h257v-89h-298v-250h298v-89h-298v-310h-117v310h-298v89h298v250h-298v89h257l-432 742h128l406 -700l407 700h121z" />
    <glyph glyph-name="brokenbar" unicode="&#xa6;" horiz-adv-x="414" 
d="M153 836v780h109v-780h-109zM153 -440v780h109v-780h-109z" />
    <glyph glyph-name="section" unicode="&#xa7;" horiz-adv-x="841" 
d="M655 478q34 -37 49 -84t15 -107q0 -95 -42.5 -164t-123.5 -105.5t-194 -36.5q-120 0 -237 38v101q126 -40 236 -40q121 0 185 52t64 149q0 84 -39 128.5t-122 68.5l-108 30q-127 34 -183.5 104.5t-56.5 182.5q0 62 24.5 115.5t69.5 93.5q-71 70 -71 191q0 88 42.5 156
t124.5 106.5t197 38.5q105 0 202 -22v-100q-53 13 -99 18.5t-99 5.5q-127 0 -191.5 -55t-64.5 -142q0 -76 38 -120.5t119 -67.5l108 -29q133 -37 188.5 -108t55.5 -187q0 -129 -87 -211zM472 575q60 -16 106 -40q62 57 62 148q0 85 -41.5 132.5t-127.5 71.5l-107 29
q-56 16 -95 35q-68 -62 -68 -151q0 -78 40 -125.5t124 -70.5z" />
    <glyph glyph-name="dieresis" unicode="&#xa8;" horiz-adv-x="860" 
d="M197.5 1361q-23.5 22 -23.5 60t23.5 61.5t60.5 23.5t60 -23.5t23 -61.5t-23 -60t-60 -22t-60.5 22zM542 1361q-23 22 -23 60t23 61.5t61 23.5q37 0 60 -23.5t23 -61.5t-23 -60t-60 -22q-38 0 -61 22z" />
    <glyph glyph-name="copyright" unicode="&#xa9;" horiz-adv-x="1673" 
d="M446 73q-169 95 -262 267.5t-93 399.5t93 399.5t262 267.5t390 95t390 -95t262 -267.5t93 -399.5t-93 -399.5t-262 -267.5t-390 -95t-390 95zM1180 151q148 83 229 235.5t81 353.5t-81 353.5t-229 235.5t-344 83t-343.5 -83t-228.5 -235.5t-81 -353.5t81 -353.5
t228.5 -235.5t343.5 -83t344 83zM667.5 370.5q-88.5 46.5 -137 139t-48.5 224.5q0 196 109 303t309 107q102 0 192 -27v-94q-95 26 -186 26q-156 0 -236.5 -77.5t-80.5 -234.5q0 -159 77.5 -238.5t218.5 -79.5q100 0 207 39v-94q-94 -40 -216 -40q-120 0 -208.5 46.5z" />
    <glyph glyph-name="ordfeminine" unicode="&#xaa;" horiz-adv-x="734" 
d="M502 1465q66 -29 99.5 -94.5t33.5 -175.5v-585h-91l-9 96h-8q-39 -55 -98 -83t-131 -28q-71 0 -126 28.5t-85.5 82t-30.5 125.5q0 116 70.5 180t222.5 78l178 18v96q0 74 -23 117t-68.5 61t-118.5 18q-96 0 -210 -38v95q49 18 109.5 28t115.5 10q104 0 170 -29z
M436 713.5q53 27.5 91 86.5v227l-170 -16q-98 -9 -145 -50t-47 -116q0 -79 42.5 -119t121.5 -40q54 0 107 27.5z" />
    <glyph glyph-name="guillemotleft" unicode="&#xab;" horiz-adv-x="778" 
d="M292 138l-190 424l190 423h115l-189 -423l189 -424h-115zM600 138l-190 424l190 423h115l-189 -423l189 -424h-115z" />
    <glyph glyph-name="logicalnot" unicode="&#xac;" horiz-adv-x="1240" 
d="M1010 192v518h-876v100h981v-618h-105z" />
    <glyph glyph-name="uni00AD" unicode="&#xad;" horiz-adv-x="689" 
d="M134 511v101h421v-101h-421z" />
    <glyph glyph-name="registered" unicode="&#xae;" horiz-adv-x="1468" 
d="M1051.5 1420q138.5 -78 215.5 -218t77 -320t-77 -319.5t-215.5 -217t-317.5 -77.5t-317.5 77.5t-215.5 217t-77 319.5t77 320t215.5 218t317.5 78t317.5 -78zM1011.5 414q119.5 66 184.5 187t65 281q0 161 -65 282t-184.5 187.5t-277.5 66.5t-277.5 -66.5t-184.5 -187.5
t-65 -282q0 -160 65 -281t184.5 -187t277.5 -66t277.5 66zM934.5 896q-33.5 -43 -99.5 -62l158 -234h-92l-151 221q-9 -1 -29 -1h-115l-1 -220h-81v592h197q121 0 184 -48.5t63 -138.5q0 -66 -33.5 -109zM735 893q78 0 115 27t37 85t-37.5 86t-114.5 28h-129v-226h129z" />
    <glyph glyph-name="macron" unicode="&#xaf;" horiz-adv-x="860" 
d="M164 1379v87h532v-87h-532z" />
    <glyph glyph-name="degree" unicode="&#xb0;" horiz-adv-x="911" 
d="M285 878q-76 43 -118.5 118.5t-42.5 169.5t42.5 169.5t118.5 118.5t171 43t170.5 -43t118 -118.5t42.5 -169.5t-42.5 -169.5t-118 -118.5t-170.5 -43t-171 43zM578.5 954q53.5 30 84 84.5t30.5 127.5t-30.5 128t-84.5 84.5t-122 29.5q-69 0 -123 -29.5t-84.5 -84.5
t-30.5 -128t30.5 -127.5t84.5 -84.5t123 -30t122.5 30z" />
    <glyph glyph-name="plusminus" unicode="&#xb1;" horiz-adv-x="1019" 
d="M457 327v341h-323v99h323v342h105v-342h323v-99h-323v-341h-105zM134 0v100h751v-100h-751z" />
    <glyph glyph-name="uni00B2" unicode="&#xb2;" horiz-adv-x="701" 
d="M595 -45v-91h-504v59l255 394q63 96 91 163.5t28 130.5q0 93 -49.5 134.5t-149.5 41.5q-102 0 -188 -37v91q38 17 90.5 26t108.5 9q290 0 290 -257q0 -75 -30.5 -153t-103.5 -189l-211 -322h373z" />
    <glyph glyph-name="uni00B3" unicode="&#xb3;" horiz-adv-x="701" 
d="M563 296.5q55 -66.5 55 -169.5q0 -132 -87.5 -203.5t-240.5 -71.5q-118 0 -216 34v89q98 -36 212 -36q112 0 173 48.5t61 144.5q0 95 -62 147.5t-189 52.5h-90v90h52q124 0 191 53t67 144q0 86 -51.5 128t-155.5 42q-103 0 -192 -37v89q37 17 91.5 26t109.5 9
q144 0 219.5 -64t75.5 -186q0 -88 -48 -151.5t-136 -89.5q106 -22 161 -88.5z" />
    <glyph glyph-name="acute" unicode="&#xb4;" horiz-adv-x="860" 
d="M381 1257l157 359h120l-179 -359h-98z" />
    <glyph glyph-name="uni00B5" unicode="&#xb5;" horiz-adv-x="946" 
d="M812 1083v-1083h-100l-9 119h-9q-53 -68 -122.5 -102.5t-145.5 -34.5q-124 0 -185 78v-500h-116v1523h116v-761q0 -125 50.5 -179t142.5 -54q70 0 143.5 38.5t118.5 119.5v836h116z" />
    <glyph glyph-name="paragraph" unicode="&#xb6;" horiz-adv-x="1079" 
d="M603 504q-65 -5 -108 -5q-410 0 -410 496q0 256 98 378t298 122q110 0 220 -15v-1480h-98v504zM828 0v1480h98v-1480h-98z" />
    <glyph glyph-name="periodcentered" unicode="&#xb7;" horiz-adv-x="388" 
d="M129 493q-25 24 -25 65t25 66t65 25t65 -25t25 -66q0 -40 -25.5 -64.5t-64.5 -24.5q-40 0 -65 24z" />
    <glyph glyph-name="cedilla" unicode="&#xb8;" horiz-adv-x="860" 
d="M573 -157.5q35 -38.5 35 -101.5q0 -68 -47.5 -109t-135.5 -41q-39 0 -78.5 8.5t-69.5 24.5v70q69 -36 150 -36q104 0 104 86q0 90 -107 90h-28v186h76v-130q66 -9 101 -47.5z" />
    <glyph glyph-name="uni00B9" unicode="&#xb9;" horiz-adv-x="701" 
d="M439 -45h190v-91h-490v91h200v783l-206 -153v101l246 182h60v-913z" />
    <glyph glyph-name="ordmasculine" unicode="&#xba;" horiz-adv-x="782" 
d="M147.5 704.5q-86.5 109.5 -86.5 341.5t86 340t244 108q157 0 244 -108.5t87 -339.5q0 -232 -87 -341.5t-244 -109.5t-243.5 109.5zM509.5 718.5q47.5 32.5 74 112t26.5 215.5t-26 214.5t-74 110.5t-119 32q-70 0 -118 -32t-74 -110.5t-26 -214.5t26 -215.5t74 -112
t118 -32.5q71 0 118.5 32.5z" />
    <glyph glyph-name="guillemotright" unicode="&#xbb;" horiz-adv-x="778" 
d="M62 138l190 424l-190 423h116l189 -423l-189 -424h-116zM370 138l190 424l-190 423h116l189 -423l-189 -424h-116z" />
    <glyph glyph-name="onequarter" unicode="&#xbc;" horiz-adv-x="1610" 
d="M439 707h190v-91h-490v91h200v783l-206 -153v101l246 182h60v-913zM393 -136l720 1752h104l-720 -1752h-104zM1581 190v-84h-127v-242h-92v242h-421v59l334 699h100l-320 -674h307l20 336h72v-336h127z" />
    <glyph glyph-name="onehalf" unicode="&#xbd;" horiz-adv-x="1610" 
d="M439 707h190v-91h-490v91h200v783l-206 -153v101l246 182h60v-913zM393 -136l720 1752h104l-720 -1752h-104zM1504 -45v-91h-504v59l255 394q63 96 91 163.5t28 130.5q0 93 -49.5 134.5t-149.5 41.5q-102 0 -188 -37v91q38 17 90.5 26t108.5 9q290 0 290 -257
q0 -75 -30.5 -153t-103.5 -189l-211 -322h373z" />
    <glyph glyph-name="threequarters" unicode="&#xbe;" horiz-adv-x="1610" 
d="M563 1048.5q55 -66.5 55 -169.5q0 -132 -87.5 -203.5t-240.5 -71.5q-118 0 -216 34v89q98 -36 212 -36q112 0 173 48.5t61 144.5q0 95 -62 147.5t-189 52.5h-90v90h52q124 0 191 53t67 144q0 86 -51.5 128t-155.5 42q-103 0 -192 -37v89q37 17 91.5 26t109.5 9
q144 0 219.5 -64t75.5 -186q0 -88 -48 -151.5t-136 -89.5q106 -22 161 -88.5zM393 -136l720 1752h104l-720 -1752h-104zM1581 190v-84h-127v-242h-92v242h-421v59l334 699h100l-320 -674h307l20 336h72v-336h127z" />
    <glyph glyph-name="questiondown" unicode="&#xbf;" horiz-adv-x="783" 
d="M508 1070.5q25 -24.5 25 -64.5t-25 -65t-64 -25q-40 0 -65 25t-25 65q0 39 25 64t65 25q39 0 64 -24.5zM502 327q-123 -46 -195.5 -99t-104 -117.5t-31.5 -148.5q0 -260 304 -260q146 0 272 55v-104q-53 -24 -129.5 -38.5t-151.5 -14.5q-200 0 -305.5 93t-105.5 264
q0 99 33 175.5t107 139t197 117.5l13 359h77z" />
    <glyph glyph-name="Agrave" unicode="&#xc0;" horiz-adv-x="1156" 
d="M1014 0l-159 500h-558l-158 -500h-118l476 1480h162l476 -1480h-121zM331 606h491l-246 773zM529 1611l-155 279h122l133 -279h-100z" />
    <glyph glyph-name="Aacute" unicode="&#xc1;" horiz-adv-x="1156" 
d="M1014 0l-159 500h-558l-158 -500h-118l476 1480h162l476 -1480h-121zM331 606h491l-246 773zM529 1611l134 279h121l-155 -279h-100z" />
    <glyph glyph-name="Acircumflex" unicode="&#xc2;" horiz-adv-x="1156" 
d="M1014 0l-159 500h-558l-158 -500h-118l476 1480h162l476 -1480h-121zM331 606h491l-246 773zM831 1611h-98l-154 224l-154 -224h-98l195 279h114z" />
    <glyph glyph-name="Atilde" unicode="&#xc3;" horiz-adv-x="1156" 
d="M1014 0l-159 500h-558l-158 -500h-118l476 1480h162l476 -1480h-121zM331 606h491l-246 773zM646 1689q-31 10 -81 32q-40 19 -67 28t-54 9q-44 0 -77.5 -18t-66.5 -55v91q54 65 145 65q37 0 68.5 -10.5t79.5 -31.5q40 -19 67 -28t54 -9q44 0 78 18t66 55v-91
q-52 -65 -144 -65q-37 0 -68 10z" />
    <glyph glyph-name="Adieresis" unicode="&#xc4;" horiz-adv-x="1156" 
d="M1014 0l-159 500h-558l-158 -500h-118l476 1480h162l476 -1480h-121zM331 606h491l-246 773zM327.5 1693.5q-22.5 21.5 -22.5 58.5t23 59t61 22t61 -22t23 -59t-23 -58.5t-61 -21.5q-39 0 -61.5 21.5zM708.5 1693.5q-22.5 21.5 -22.5 58.5t23 59t61 22t61 -22t23 -59
t-23 -58.5t-61 -21.5q-39 0 -61.5 21.5z" />
    <glyph glyph-name="Aring" unicode="&#xc5;" horiz-adv-x="1156" 
d="M1014 0l-159 500h-558l-158 -500h-118l476 1480h162l476 -1480h-121zM331 606h491l-246 773zM481.5 1628.5q-43.5 24.5 -68 67.5t-24.5 97t24.5 97.5t68 68t97.5 24.5t97.5 -24.5t68.5 -68t25 -97.5t-25 -97t-68.5 -67.5t-97.5 -24.5t-97.5 24.5zM667.5 1702.5
q33.5 33.5 33.5 90.5q0 58 -33.5 91.5t-88.5 33.5q-54 0 -88 -33.5t-34 -91.5q0 -57 34 -90.5t88 -33.5q55 0 88.5 33.5z" />
    <glyph glyph-name="AE" unicode="&#xc6;" horiz-adv-x="1591" 
d="M938 106h615v-106h-724l-24 500h-502l-163 -500h-119l486 1480h1036v-106h-666l27 -561h547v-106h-542zM338 606h462l-37 768h-174z" />
    <glyph glyph-name="Ccedilla" unicode="&#xc7;" horiz-adv-x="956" 
d="M416 1331.5q-99 -60.5 -150.5 -203.5t-51.5 -386q0 -248 52 -392t150 -203t246 -59q67 0 132 12t142 39v-108q-136 -49 -281 -49h-9v-89q75 -6 119 -44.5t44 -105.5q0 -73 -52 -112.5t-142 -39.5q-94 0 -175 36v70q87 -39 171 -39q119 0 119 88q0 44 -32 66t-89 22h-39
v152q-234 24 -356.5 200.5t-122.5 551.5q0 273 67.5 441t195 243.5t316.5 75.5q135 0 266 -38v-107q-69 22 -132.5 30.5t-135.5 8.5q-153 0 -252 -60.5z" />
    <glyph glyph-name="Egrave" unicode="&#xc8;" horiz-adv-x="973" 
d="M269 106h667v-106h-783v1480h773v-106h-657v-561h565v-106h-565v-601zM512 1611l-155 279h122l133 -279h-100z" />
    <glyph glyph-name="Eacute" unicode="&#xc9;" horiz-adv-x="973" 
d="M269 106h667v-106h-783v1480h773v-106h-657v-561h565v-106h-565v-601zM512 1611l134 279h121l-155 -279h-100z" />
    <glyph glyph-name="Ecircumflex" unicode="&#xca;" horiz-adv-x="973" 
d="M269 106h667v-106h-783v1480h773v-106h-657v-561h565v-106h-565v-601zM814 1611h-98l-154 224l-154 -224h-98l195 279h114z" />
    <glyph glyph-name="Edieresis" unicode="&#xcb;" horiz-adv-x="973" 
d="M269 106h667v-106h-783v1480h773v-106h-657v-561h565v-106h-565v-601zM310.5 1693.5q-22.5 21.5 -22.5 58.5t23 59t61 22t61 -22t23 -59t-23 -58.5t-61 -21.5q-39 0 -61.5 21.5zM691.5 1693.5q-22.5 21.5 -22.5 58.5t23 59t61 22t61 -22t23 -59t-23 -58.5t-61 -21.5
q-39 0 -61.5 21.5z" />
    <glyph glyph-name="Igrave" unicode="&#xcc;" horiz-adv-x="422" 
d="M153 0v1480h116v-1480h-116zM161 1611l-155 279h122l133 -279h-100z" />
    <glyph glyph-name="Iacute" unicode="&#xcd;" horiz-adv-x="422" 
d="M153 0v1480h116v-1480h-116zM161 1611l134 279h121l-155 -279h-100z" />
    <glyph glyph-name="Icircumflex" unicode="&#xce;" horiz-adv-x="422" 
d="M153 0v1480h116v-1480h-116zM463 1611h-98l-154 224l-154 -224h-98l195 279h114z" />
    <glyph glyph-name="Idieresis" unicode="&#xcf;" horiz-adv-x="422" 
d="M153 0v1480h116v-1480h-116zM-40.5 1693.5q-22.5 21.5 -22.5 58.5t23 59t61 22t61 -22t23 -59t-23 -58.5t-61 -21.5q-39 0 -61.5 21.5zM340.5 1693.5q-22.5 21.5 -22.5 58.5t23 59t61 22t61 -22t23 -59t-23 -58.5t-61 -21.5q-39 0 -61.5 21.5z" />
    <glyph glyph-name="Eth" unicode="&#xd0;" horiz-adv-x="1183" 
d="M933.5 1310.5q157.5 -184.5 157.5 -570.5q0 -264 -75 -430t-222.5 -244t-370.5 -78q-116 0 -270 16v713h-156v90h156v658q164 30 302 30q321 0 478.5 -184.5zM737 158.5q116 64.5 174 206.5t58 375q0 231 -55 374t-167 209.5t-288 66.5q-85 0 -190 -15v-568h285v-90h-285
v-614q71 -9 172 -9q180 0 296 64.5z" />
    <glyph glyph-name="Ntilde" unicode="&#xd1;" horiz-adv-x="1268" 
d="M1004 1480h111v-1480h-123l-728 1283v-1283h-111v1480h123l728 -1283v1283zM701 1689q-31 10 -81 32q-40 19 -67 28t-54 9q-44 0 -77.5 -18t-66.5 -55v91q54 65 145 65q37 0 68.5 -10.5t79.5 -31.5q40 -19 67 -28t54 -9q44 0 78 18t66 55v-91q-52 -65 -144 -65
q-37 0 -68 10z" />
    <glyph glyph-name="Ograve" unicode="&#xd2;" horiz-adv-x="1199" 
d="M223.5 161.5q-132.5 179.5 -132.5 578.5t132.5 578.5t376.5 179.5t376 -179.5t132 -578.5t-132 -578.5t-376 -179.5t-376.5 179.5zM808 147.5q85 60.5 131.5 203.5t46.5 384q0 246 -46.5 391t-131.5 206t-208 61q-124 0 -209 -60.5t-131.5 -203.5t-46.5 -384
q0 -246 46.5 -391t131.5 -206t209 -61q123 0 208 60.5zM550 1611l-155 279h122l133 -279h-100z" />
    <glyph glyph-name="Oacute" unicode="&#xd3;" horiz-adv-x="1199" 
d="M223.5 161.5q-132.5 179.5 -132.5 578.5t132.5 578.5t376.5 179.5t376 -179.5t132 -578.5t-132 -578.5t-376 -179.5t-376.5 179.5zM808 147.5q85 60.5 131.5 203.5t46.5 384q0 246 -46.5 391t-131.5 206t-208 61q-124 0 -209 -60.5t-131.5 -203.5t-46.5 -384
q0 -246 46.5 -391t131.5 -206t209 -61q123 0 208 60.5zM550 1611l134 279h121l-155 -279h-100z" />
    <glyph glyph-name="Ocircumflex" unicode="&#xd4;" horiz-adv-x="1199" 
d="M223.5 161.5q-132.5 179.5 -132.5 578.5t132.5 578.5t376.5 179.5t376 -179.5t132 -578.5t-132 -578.5t-376 -179.5t-376.5 179.5zM808 147.5q85 60.5 131.5 203.5t46.5 384q0 246 -46.5 391t-131.5 206t-208 61q-124 0 -209 -60.5t-131.5 -203.5t-46.5 -384
q0 -246 46.5 -391t131.5 -206t209 -61q123 0 208 60.5zM852 1611h-98l-154 224l-154 -224h-98l195 279h114z" />
    <glyph glyph-name="Otilde" unicode="&#xd5;" horiz-adv-x="1199" 
d="M223.5 161.5q-132.5 179.5 -132.5 578.5t132.5 578.5t376.5 179.5t376 -179.5t132 -578.5t-132 -578.5t-376 -179.5t-376.5 179.5zM808 147.5q85 60.5 131.5 203.5t46.5 384q0 246 -46.5 391t-131.5 206t-208 61q-124 0 -209 -60.5t-131.5 -203.5t-46.5 -384
q0 -246 46.5 -391t131.5 -206t209 -61q123 0 208 60.5zM667 1689q-31 10 -81 32q-40 19 -67 28t-54 9q-44 0 -77.5 -18t-66.5 -55v91q54 65 145 65q37 0 68.5 -10.5t79.5 -31.5q40 -19 67 -28t54 -9q44 0 78 18t66 55v-91q-52 -65 -144 -65q-37 0 -68 10z" />
    <glyph glyph-name="Odieresis" unicode="&#xd6;" horiz-adv-x="1199" 
d="M223.5 161.5q-132.5 179.5 -132.5 578.5t132.5 578.5t376.5 179.5t376 -179.5t132 -578.5t-132 -578.5t-376 -179.5t-376.5 179.5zM808 147.5q85 60.5 131.5 203.5t46.5 384q0 246 -46.5 391t-131.5 206t-208 61q-124 0 -209 -60.5t-131.5 -203.5t-46.5 -384
q0 -246 46.5 -391t131.5 -206t209 -61q123 0 208 60.5zM348.5 1693.5q-22.5 21.5 -22.5 58.5t23 59t61 22t61 -22t23 -59t-23 -58.5t-61 -21.5q-39 0 -61.5 21.5zM729.5 1693.5q-22.5 21.5 -22.5 58.5t23 59t61 22t61 -22t23 -59t-23 -58.5t-61 -21.5q-39 0 -61.5 21.5z" />
    <glyph glyph-name="multiply" unicode="&#xd7;" horiz-adv-x="957" 
d="M182 394l-70 69l297 297l-297 297l70 69l297 -297l296 297l70 -69l-297 -297l297 -297l-70 -69l-296 297z" />
    <glyph glyph-name="Oslash" unicode="&#xd8;" horiz-adv-x="1199" 
d="M1108 740q0 -399 -132 -578.5t-376 -179.5q-213 0 -336 129l-82 -134l-72 44l99 162q-118 188 -118 557q0 399 132.5 578.5t376.5 179.5q214 0 335 -130l83 135l72 -44l-100 -163q118 -186 118 -556zM280 298l593 968q-49 67 -117 97t-156 30q-124 0 -209 -60.5
t-131.5 -203.5t-46.5 -384q0 -288 67 -447zM808 147.5q85 60.5 131.5 203.5t46.5 384q0 286 -66 446l-593 -967q49 -67 117 -97t156 -30q123 0 208 60.5z" />
    <glyph glyph-name="Ugrave" unicode="&#xd9;" horiz-adv-x="1219" 
d="M346 38.5q-103 56.5 -152 172.5t-49 298v971h117v-986q0 -210 82.5 -308.5t266.5 -98.5t266.5 98.5t82.5 308.5v986h114v-971q0 -182 -48.5 -298t-150.5 -172.5t-264 -56.5t-265 56.5zM561 1611l-155 279h122l133 -279h-100z" />
    <glyph glyph-name="Uacute" unicode="&#xda;" horiz-adv-x="1219" 
d="M346 38.5q-103 56.5 -152 172.5t-49 298v971h117v-986q0 -210 82.5 -308.5t266.5 -98.5t266.5 98.5t82.5 308.5v986h114v-971q0 -182 -48.5 -298t-150.5 -172.5t-264 -56.5t-265 56.5zM561 1611l134 279h121l-155 -279h-100z" />
    <glyph glyph-name="Ucircumflex" unicode="&#xdb;" horiz-adv-x="1219" 
d="M346 38.5q-103 56.5 -152 172.5t-49 298v971h117v-986q0 -210 82.5 -308.5t266.5 -98.5t266.5 98.5t82.5 308.5v986h114v-971q0 -182 -48.5 -298t-150.5 -172.5t-264 -56.5t-265 56.5zM863 1611h-98l-154 224l-154 -224h-98l195 279h114z" />
    <glyph glyph-name="Udieresis" unicode="&#xdc;" horiz-adv-x="1219" 
d="M346 38.5q-103 56.5 -152 172.5t-49 298v971h117v-986q0 -210 82.5 -308.5t266.5 -98.5t266.5 98.5t82.5 308.5v986h114v-971q0 -182 -48.5 -298t-150.5 -172.5t-264 -56.5t-265 56.5zM359.5 1693.5q-22.5 21.5 -22.5 58.5t23 59t61 22t61 -22t23 -59t-23 -58.5
t-61 -21.5q-39 0 -61.5 21.5zM740.5 1693.5q-22.5 21.5 -22.5 58.5t23 59t61 22t61 -22t23 -59t-23 -58.5t-61 -21.5q-39 0 -61.5 21.5z" />
    <glyph glyph-name="Yacute" unicode="&#xdd;" horiz-adv-x="1011" 
d="M1033 1480l-469 -812v-668h-117v667l-477 813h129l408 -700l405 700h121zM456 1611l134 279h121l-155 -279h-100z" />
    <glyph glyph-name="Thorn" unicode="&#xde;" horiz-adv-x="1089" 
d="M153 1480h116v-236q94 14 194 14q267 0 399 -122t132 -378q0 -496 -560 -496q-88 0 -165 7v-269h-116v1480zM768.5 460.5q106.5 94.5 106.5 293.5q0 209 -99 305t-308 96q-92 0 -199 -15v-765q72 -9 170 -9q223 0 329.5 94.5z" />
    <glyph glyph-name="germandbls" unicode="&#xdf;" horiz-adv-x="1174" 
d="M1061 476.5q56 -71.5 56 -187.5q0 -96 -42.5 -165.5t-123 -106t-191.5 -36.5q-130 0 -240 37v103q124 -38 236 -38q121 0 185 52t64 149q0 84 -39.5 128.5t-122.5 68.5l-102 28q-129 35 -185.5 105.5t-56.5 183.5q0 87 42 154.5t124 105.5t196 38q25 0 58 -3q7 45 7 101
q0 183 -80 263.5t-215 80.5q-154 0 -235 -92t-81 -301v-1145h-116v982h-191v101h191v68q0 242 112 363.5t314 121.5q182 0 289.5 -107t107.5 -334q0 -56 -8 -113.5t-18 -98.5q-36 8 -63.5 11.5t-65.5 3.5q-127 0 -191.5 -55t-64.5 -142q0 -76 38 -120.5t119 -67.5l102 -28
q135 -37 191 -108.5z" />
    <glyph glyph-name="agrave" unicode="&#xe0;" horiz-adv-x="876" 
d="M595 1064.5q77 -34.5 116.5 -113.5t39.5 -213v-738h-98l-10 120h-9q-47 -68 -116.5 -102.5t-154.5 -34.5q-86 0 -151.5 34t-101.5 99t-36 156q0 143 84.5 222t259.5 96l218 25v127q0 98 -27.5 154t-81.5 78.5t-141 22.5q-56 0 -122.5 -11t-130.5 -33v103q55 20 128 31.5
t138 11.5q119 0 196 -34.5zM523 117q65 35 113 114v293l-212 -22q-118 -12 -174.5 -65.5t-56.5 -151.5q0 -102 50.5 -152.5t145.5 -50.5q69 0 134 35zM383 1257l-178 359h119l157 -359h-98z" />
    <glyph glyph-name="aacute" unicode="&#xe1;" horiz-adv-x="876" 
d="M595 1064.5q77 -34.5 116.5 -113.5t39.5 -213v-738h-98l-10 120h-9q-47 -68 -116.5 -102.5t-154.5 -34.5q-86 0 -151.5 34t-101.5 99t-36 156q0 143 84.5 222t259.5 96l218 25v127q0 98 -27.5 154t-81.5 78.5t-141 22.5q-56 0 -122.5 -11t-130.5 -33v103q55 20 128 31.5
t138 11.5q119 0 196 -34.5zM523 117q65 35 113 114v293l-212 -22q-118 -12 -174.5 -65.5t-56.5 -151.5q0 -102 50.5 -152.5t145.5 -50.5q69 0 134 35zM383 1257l157 359h120l-179 -359h-98z" />
    <glyph glyph-name="acircumflex" unicode="&#xe2;" horiz-adv-x="876" 
d="M595 1064.5q77 -34.5 116.5 -113.5t39.5 -213v-738h-98l-10 120h-9q-47 -68 -116.5 -102.5t-154.5 -34.5q-86 0 -151.5 34t-101.5 99t-36 156q0 143 84.5 222t259.5 96l218 25v127q0 98 -27.5 154t-81.5 78.5t-141 22.5q-56 0 -122.5 -11t-130.5 -33v103q55 20 128 31.5
t138 11.5q119 0 196 -34.5zM523 117q65 35 113 114v293l-212 -22q-118 -12 -174.5 -65.5t-56.5 -151.5q0 -102 50.5 -152.5t145.5 -50.5q69 0 134 35zM667 1257h-93l-142 297l-142 -297h-93l178 359h114z" />
    <glyph glyph-name="atilde" unicode="&#xe3;" horiz-adv-x="876" 
d="M595 1064.5q77 -34.5 116.5 -113.5t39.5 -213v-738h-98l-10 120h-9q-47 -68 -116.5 -102.5t-154.5 -34.5q-86 0 -151.5 34t-101.5 99t-36 156q0 143 84.5 222t259.5 96l218 25v127q0 98 -27.5 154t-81.5 78.5t-141 22.5q-56 0 -122.5 -11t-130.5 -33v103q55 20 128 31.5
t138 11.5q119 0 196 -34.5zM523 117q65 35 113 114v293l-212 -22q-118 -12 -174.5 -65.5t-56.5 -151.5q0 -102 50.5 -152.5t145.5 -50.5q69 0 134 35zM493.5 1371q-29.5 11 -75.5 33q-37 19 -61.5 28t-48.5 9q-42 0 -76 -18.5t-66 -56.5v94q54 65 142 65q34 0 64 -11t74 -33
q37 -18 62 -27.5t49 -9.5q42 0 76 18.5t65 56.5v-94q-25 -31 -61.5 -48t-80.5 -17q-33 0 -62.5 11z" />
    <glyph glyph-name="adieresis" unicode="&#xe4;" horiz-adv-x="876" 
d="M595 1064.5q77 -34.5 116.5 -113.5t39.5 -213v-738h-98l-10 120h-9q-47 -68 -116.5 -102.5t-154.5 -34.5q-86 0 -151.5 34t-101.5 99t-36 156q0 143 84.5 222t259.5 96l218 25v127q0 98 -27.5 154t-81.5 78.5t-141 22.5q-56 0 -122.5 -11t-130.5 -33v103q55 20 128 31.5
t138 11.5q119 0 196 -34.5zM523 117q65 35 113 114v293l-212 -22q-118 -12 -174.5 -65.5t-56.5 -151.5q0 -102 50.5 -152.5t145.5 -50.5q69 0 134 35zM199.5 1361q-23.5 22 -23.5 60t23.5 61.5t60.5 23.5t60 -23.5t23 -61.5t-23 -60t-60 -22t-60.5 22zM544 1361
q-23 22 -23 60t23 61.5t61 23.5q37 0 60 -23.5t23 -61.5t-23 -60t-60 -22q-38 0 -61 22z" />
    <glyph glyph-name="aring" unicode="&#xe5;" horiz-adv-x="876" 
d="M595 1064.5q77 -34.5 116.5 -113.5t39.5 -213v-738h-98l-10 120h-9q-47 -68 -116.5 -102.5t-154.5 -34.5q-86 0 -151.5 34t-101.5 99t-36 156q0 143 84.5 222t259.5 96l218 25v127q0 98 -27.5 154t-81.5 78.5t-141 22.5q-56 0 -122.5 -11t-130.5 -33v103q55 20 128 31.5
t138 11.5q119 0 196 -34.5zM523 117q65 35 113 114v293l-212 -22q-118 -12 -174.5 -65.5t-56.5 -151.5q0 -102 50.5 -152.5t145.5 -50.5q69 0 134 35zM334.5 1277.5q-43.5 24.5 -68 67.5t-24.5 97t24.5 97.5t68 68t97.5 24.5t97.5 -24.5t68.5 -68t25 -97.5t-25 -97
t-68.5 -67.5t-97.5 -24.5t-97.5 24.5zM520.5 1351.5q33.5 33.5 33.5 90.5q0 58 -33.5 91.5t-88.5 33.5q-54 0 -88 -33.5t-34 -91.5q0 -57 34 -90.5t88 -33.5q55 0 88.5 33.5z" />
    <glyph glyph-name="ae" unicode="&#xe6;" horiz-adv-x="1412" 
d="M1343 499h-592q3 -155 38.5 -246t104 -130t176.5 -39q92 0 225 40v-103q-124 -40 -235 -40q-133 0 -222.5 47t-137.5 150q-63 -106 -146 -150.5t-184 -44.5q-88 0 -155 33.5t-104 98t-37 155.5q0 149 89.5 234t282.5 85h192v157q0 96 -28.5 151t-83.5 77.5t-141 22.5
q-55 0 -121.5 -11t-130.5 -33v103q58 20 129 31.5t135 11.5q128 0 206 -44t110 -141q82 187 283 187q167 0 257 -131t90 -429v-42zM818 914q-63 -94 -67 -325h477q-3 162 -32 254t-79.5 128.5t-123.5 36.5q-112 0 -175 -94zM547 127.5q71 45.5 118 149.5q-23 95 -27 224
h-187q-135 0 -196.5 -58.5t-61.5 -161.5q0 -99 52 -149t147 -50q84 0 155 45.5z" />
    <glyph glyph-name="ccedilla" unicode="&#xe7;" horiz-adv-x="723" 
d="M349 954q-73 -41 -109.5 -139t-36.5 -269q0 -174 33 -274.5t98.5 -143t168.5 -42.5q91 0 201 40v-105q-110 -40 -221 -40h-7v-91q66 -9 101 -47.5t35 -101.5q0 -68 -47.5 -109t-135.5 -41q-39 0 -78.5 8.5t-69.5 24.5v70q69 -36 150 -36q104 0 104 86q0 90 -107 90h-28
v153q-159 24 -239 156t-80 398q0 203 51 326t149 177.5t246 54.5q94 0 177 -21v-105q-85 22 -162 22q-120 0 -193 -41z" />
    <glyph glyph-name="egrave" unicode="&#xe8;" horiz-adv-x="871" 
d="M802 499h-601q3 -156 39 -246.5t105.5 -129.5t179.5 -39q95 0 228 40v-103q-124 -40 -239 -40q-147 0 -242 55.5t-143 178.5t-48 327q0 290 98 423.5t272 133.5q170 0 260.5 -131.5t90.5 -426.5v-42zM270 912.5q-65 -93.5 -69 -323.5h485q-2 158 -31 250t-80 129.5
t-124 37.5q-116 0 -181 -93.5zM397 1257l-178 359h119l157 -359h-98z" />
    <glyph glyph-name="eacute" unicode="&#xe9;" horiz-adv-x="871" 
d="M802 499h-601q3 -156 39 -246.5t105.5 -129.5t179.5 -39q95 0 228 40v-103q-124 -40 -239 -40q-147 0 -242 55.5t-143 178.5t-48 327q0 290 98 423.5t272 133.5q170 0 260.5 -131.5t90.5 -426.5v-42zM270 912.5q-65 -93.5 -69 -323.5h485q-2 158 -31 250t-80 129.5
t-124 37.5q-116 0 -181 -93.5zM397 1257l157 359h120l-179 -359h-98z" />
    <glyph glyph-name="ecircumflex" unicode="&#xea;" horiz-adv-x="871" 
d="M802 499h-601q3 -156 39 -246.5t105.5 -129.5t179.5 -39q95 0 228 40v-103q-124 -40 -239 -40q-147 0 -242 55.5t-143 178.5t-48 327q0 290 98 423.5t272 133.5q170 0 260.5 -131.5t90.5 -426.5v-42zM270 912.5q-65 -93.5 -69 -323.5h485q-2 158 -31 250t-80 129.5
t-124 37.5q-116 0 -181 -93.5zM681 1257h-93l-142 297l-142 -297h-93l178 359h114z" />
    <glyph glyph-name="edieresis" unicode="&#xeb;" horiz-adv-x="871" 
d="M802 499h-601q3 -156 39 -246.5t105.5 -129.5t179.5 -39q95 0 228 40v-103q-124 -40 -239 -40q-147 0 -242 55.5t-143 178.5t-48 327q0 290 98 423.5t272 133.5q170 0 260.5 -131.5t90.5 -426.5v-42zM270 912.5q-65 -93.5 -69 -323.5h485q-2 158 -31 250t-80 129.5
t-124 37.5q-116 0 -181 -93.5zM213.5 1361q-23.5 22 -23.5 60t23.5 61.5t60.5 23.5t60 -23.5t23 -61.5t-23 -60t-60 -22t-60.5 22zM558 1361q-23 22 -23 60t23 61.5t61 23.5q37 0 60 -23.5t23 -61.5t-23 -60t-60 -22q-38 0 -61 22z" />
    <glyph glyph-name="igrave" unicode="&#xec;" horiz-adv-x="384" 
d="M134 0v1083h116v-1083h-116zM143 1257l-178 359h119l157 -359h-98z" />
    <glyph glyph-name="iacute" unicode="&#xed;" horiz-adv-x="384" 
d="M134 0v1083h116v-1083h-116zM143 1257l157 359h120l-179 -359h-98z" />
    <glyph glyph-name="icircumflex" unicode="&#xee;" horiz-adv-x="384" 
d="M134 0v1083h116v-1083h-116zM427 1257h-93l-142 297l-142 -297h-93l178 359h114z" />
    <glyph glyph-name="idieresis" unicode="&#xef;" horiz-adv-x="384" 
d="M134 0v1083h116v-1083h-116zM-40.5 1361q-23.5 22 -23.5 60t23.5 61.5t60.5 23.5t60 -23.5t23 -61.5t-23 -60t-60 -22t-60.5 22zM304 1361q-23 22 -23 60t23 61.5t61 23.5q37 0 60 -23.5t23 -61.5t-23 -60t-60 -22q-38 0 -61 22z" />
    <glyph glyph-name="eth" unicode="&#xf0;" horiz-adv-x="936" 
d="M796 964q57 -197 57 -386q0 -597 -384 -597q-388 0 -388 559q0 293 99.5 425.5t282.5 132.5q122 0 201 -70q-49 149 -131 281l-353 -63l-16 80l320 57q-89 125 -214 233h137q98 -81 187 -213l222 40l16 -80l-191 -34q98 -168 155 -365zM664.5 187q69.5 107 69.5 349
q0 176 -32 278t-90 144t-144 42t-144.5 -41.5t-90.5 -142t-32 -273.5q0 -175 32 -277t90.5 -144t145.5 -42q126 0 195.5 107z" />
    <glyph glyph-name="ntilde" unicode="&#xf1;" horiz-adv-x="955" 
d="M134 1083h99l10 -122h9q54 66 129 102t162 36q287 0 287 -333v-766h-116v760q0 125 -51 178.5t-145 53.5q-73 0 -148 -38.5t-120 -120.5v-833h-116v1083zM543.5 1371q-29.5 11 -75.5 33q-37 19 -61.5 28t-48.5 9q-42 0 -76 -18.5t-66 -56.5v94q54 65 142 65q34 0 64 -11
t74 -33q37 -18 62 -27.5t49 -9.5q42 0 76 18.5t65 56.5v-94q-25 -31 -61.5 -48t-80.5 -17q-33 0 -62.5 11z" />
    <glyph glyph-name="ograve" unicode="&#xf2;" horiz-adv-x="936" 
d="M81 540q0 293 100 426t287 133q387 0 387 -558q0 -293 -100 -426.5t-287 -133.5q-387 0 -387 559zM612.5 121.5q58.5 41.5 90 142t31.5 273.5q0 176 -32 278t-90 143.5t-144 41.5t-144.5 -41.5t-90.5 -142t-32 -272.5q0 -176 32 -278t90.5 -144t144.5 -42t144.5 41.5z
M419 1257l-178 359h119l157 -359h-98z" />
    <glyph glyph-name="oacute" unicode="&#xf3;" horiz-adv-x="936" 
d="M81 540q0 293 100 426t287 133q387 0 387 -558q0 -293 -100 -426.5t-287 -133.5q-387 0 -387 559zM612.5 121.5q58.5 41.5 90 142t31.5 273.5q0 176 -32 278t-90 143.5t-144 41.5t-144.5 -41.5t-90.5 -142t-32 -272.5q0 -176 32 -278t90.5 -144t144.5 -42t144.5 41.5z
M419 1257l157 359h120l-179 -359h-98z" />
    <glyph glyph-name="ocircumflex" unicode="&#xf4;" horiz-adv-x="936" 
d="M81 540q0 293 100 426t287 133q387 0 387 -558q0 -293 -100 -426.5t-287 -133.5q-387 0 -387 559zM612.5 121.5q58.5 41.5 90 142t31.5 273.5q0 176 -32 278t-90 143.5t-144 41.5t-144.5 -41.5t-90.5 -142t-32 -272.5q0 -176 32 -278t90.5 -144t144.5 -42t144.5 41.5z
M703 1257h-93l-142 297l-142 -297h-93l178 359h114z" />
    <glyph glyph-name="otilde" unicode="&#xf5;" horiz-adv-x="936" 
d="M81 540q0 293 100 426t287 133q387 0 387 -558q0 -293 -100 -426.5t-287 -133.5q-387 0 -387 559zM612.5 121.5q58.5 41.5 90 142t31.5 273.5q0 176 -32 278t-90 143.5t-144 41.5t-144.5 -41.5t-90.5 -142t-32 -272.5q0 -176 32 -278t90.5 -144t144.5 -42t144.5 41.5z
M529.5 1371q-29.5 11 -75.5 33q-37 19 -61.5 28t-48.5 9q-42 0 -76 -18.5t-66 -56.5v94q54 65 142 65q34 0 64 -11t74 -33q37 -18 62 -27.5t49 -9.5q42 0 76 18.5t65 56.5v-94q-25 -31 -61.5 -48t-80.5 -17q-33 0 -62.5 11z" />
    <glyph glyph-name="odieresis" unicode="&#xf6;" horiz-adv-x="936" 
d="M81 540q0 293 100 426t287 133q387 0 387 -558q0 -293 -100 -426.5t-287 -133.5q-387 0 -387 559zM612.5 121.5q58.5 41.5 90 142t31.5 273.5q0 176 -32 278t-90 143.5t-144 41.5t-144.5 -41.5t-90.5 -142t-32 -272.5q0 -176 32 -278t90.5 -144t144.5 -42t144.5 41.5z
M235.5 1361q-23.5 22 -23.5 60t23.5 61.5t60.5 23.5t60 -23.5t23 -61.5t-23 -60t-60 -22t-60.5 22zM580 1361q-23 22 -23 60t23 61.5t61 23.5q37 0 60 -23.5t23 -61.5t-23 -60t-60 -22q-38 0 -61 22z" />
    <glyph glyph-name="divide" unicode="&#xf7;" horiz-adv-x="1019" 
d="M448 1038q-24 23 -24 61q0 39 24 63t62 24t61.5 -24t23.5 -63q0 -38 -24 -61t-61 -23q-38 0 -62 23zM134 710v100h751v-100h-751zM448 357q-24 23 -24 62t24 62.5t62 23.5t61.5 -23.5t23.5 -62.5q0 -38 -24 -61.5t-61 -23.5q-38 0 -62 23z" />
    <glyph glyph-name="oslash" unicode="&#xf8;" horiz-adv-x="936" 
d="M855 541q0 -293 -100 -426.5t-287 -133.5q-156 0 -250 91l-60 -95l-71 44l77 122q-83 139 -83 397q0 293 100 426t287 133q155 0 247 -89l61 96l71 -44l-77 -121q85 -139 85 -400zM321.5 960.5q-59.5 -41.5 -91.5 -142.5t-32 -274q0 -189 38 -295l423 666
q-34 46 -81.5 66.5t-109.5 20.5q-87 0 -146.5 -41.5zM614.5 121q59.5 42 91.5 142.5t32 273.5q0 189 -39 298l-423 -666q33 -48 81 -69t111 -21q87 0 146.5 42z" />
    <glyph glyph-name="ugrave" unicode="&#xf9;" horiz-adv-x="946" 
d="M125 320v763h116v-761q0 -125 50.5 -179t142.5 -54q70 0 143.5 38.5t118.5 119.5v836h116v-1083h-100l-9 119h-9q-56 -68 -129.5 -102.5t-154.5 -34.5q-285 0 -285 338zM420 1257l-178 359h119l157 -359h-98z" />
    <glyph glyph-name="uacute" unicode="&#xfa;" horiz-adv-x="946" 
d="M125 320v763h116v-761q0 -125 50.5 -179t142.5 -54q70 0 143.5 38.5t118.5 119.5v836h116v-1083h-100l-9 119h-9q-56 -68 -129.5 -102.5t-154.5 -34.5q-285 0 -285 338zM420 1257l157 359h120l-179 -359h-98z" />
    <glyph glyph-name="ucircumflex" unicode="&#xfb;" horiz-adv-x="946" 
d="M125 320v763h116v-761q0 -125 50.5 -179t142.5 -54q70 0 143.5 38.5t118.5 119.5v836h116v-1083h-100l-9 119h-9q-56 -68 -129.5 -102.5t-154.5 -34.5q-285 0 -285 338zM704 1257h-93l-142 297l-142 -297h-93l178 359h114z" />
    <glyph glyph-name="udieresis" unicode="&#xfc;" horiz-adv-x="946" 
d="M125 320v763h116v-761q0 -125 50.5 -179t142.5 -54q70 0 143.5 38.5t118.5 119.5v836h116v-1083h-100l-9 119h-9q-56 -68 -129.5 -102.5t-154.5 -34.5q-285 0 -285 338zM236.5 1361q-23.5 22 -23.5 60t23.5 61.5t60.5 23.5t60 -23.5t23 -61.5t-23 -60t-60 -22t-60.5 22z
M581 1361q-23 22 -23 60t23 61.5t61 23.5q37 0 60 -23.5t23 -61.5t-23 -60t-60 -22q-38 0 -61 22z" />
    <glyph glyph-name="yacute" unicode="&#xfd;" horiz-adv-x="887" 
d="M757 1083h122l-503 -1523h-117l146 440h-39l-357 1083h124l309 -977zM395 1257l157 359h120l-179 -359h-98z" />
    <glyph glyph-name="thorn" unicode="&#xfe;" horiz-adv-x="943" 
d="M134 1616h116v-636h8q40 53 104.5 86t149.5 33q155 0 252.5 -125.5t97.5 -412.5q0 -296 -121 -437.5t-358 -141.5q-66 0 -133 8v-430h-116v2056zM653.5 191q87.5 109 87.5 358q0 174 -33.5 272t-90.5 135.5t-137 37.5q-71 0 -133.5 -35t-96.5 -99v-766q27 -5 67 -8.5
t73 -3.5q176 0 263.5 109z" />
    <glyph glyph-name="ydieresis" unicode="&#xff;" horiz-adv-x="887" 
d="M757 1083h122l-503 -1523h-117l146 440h-39l-357 1083h124l309 -977zM211.5 1361q-23.5 22 -23.5 60t23.5 61.5t60.5 23.5t60 -23.5t23 -61.5t-23 -60t-60 -22t-60.5 22zM556 1361q-23 22 -23 60t23 61.5t61 23.5q37 0 60 -23.5t23 -61.5t-23 -60t-60 -22q-38 0 -61 22z
" />
    <glyph glyph-name="Amacron" unicode="&#x100;" horiz-adv-x="1156" 
d="M1014 0l-159 500h-558l-158 -500h-118l476 1480h162l476 -1480h-121zM331 606h491l-246 773zM319 1709v86h521v-86h-521z" />
    <glyph glyph-name="amacron" unicode="&#x101;" horiz-adv-x="876" 
d="M595 1064.5q77 -34.5 116.5 -113.5t39.5 -213v-738h-98l-10 120h-9q-47 -68 -116.5 -102.5t-154.5 -34.5q-86 0 -151.5 34t-101.5 99t-36 156q0 143 84.5 222t259.5 96l218 25v127q0 98 -27.5 154t-81.5 78.5t-141 22.5q-56 0 -122.5 -11t-130.5 -33v103q55 20 128 31.5
t138 11.5q119 0 196 -34.5zM523 117q65 35 113 114v293l-212 -22q-118 -12 -174.5 -65.5t-56.5 -151.5q0 -102 50.5 -152.5t145.5 -50.5q69 0 134 35zM166 1379v87h532v-87h-532z" />
    <glyph glyph-name="Abreve" unicode="&#x102;" horiz-adv-x="1156" 
d="M1014 0l-159 500h-558l-158 -500h-118l476 1480h162l476 -1480h-121zM331 606h491l-246 773zM395 1684q-68 62 -77 182h83q10 -89 52 -128t128 -39t127.5 39t48.5 128h83q-9 -121 -75 -182.5t-184 -61.5t-186 62z" />
    <glyph glyph-name="abreve" unicode="&#x103;" horiz-adv-x="876" 
d="M595 1064.5q77 -34.5 116.5 -113.5t39.5 -213v-738h-98l-10 120h-9q-47 -68 -116.5 -102.5t-154.5 -34.5q-86 0 -151.5 34t-101.5 99t-36 156q0 143 84.5 222t259.5 96l218 25v127q0 98 -27.5 154t-81.5 78.5t-141 22.5q-56 0 -122.5 -11t-130.5 -33v103q55 20 128 31.5
t138 11.5q119 0 196 -34.5zM523 117q65 35 113 114v293l-212 -22q-118 -12 -174.5 -65.5t-56.5 -151.5q0 -102 50.5 -152.5t145.5 -50.5q69 0 134 35zM260 1349q-65 80 -70 240h83q7 -127 47 -185t114 -58t114 58t44 185h82q-5 -160 -68.5 -240t-171.5 -80q-109 0 -174 80z
" />
    <glyph glyph-name="Aogonek" unicode="&#x104;" horiz-adv-x="1156" 
d="M1231 -304v-68q-74 -37 -151 -37q-103 0 -157.5 45.5t-54.5 130.5q0 68 34.5 125t110.5 110l-158 498h-558l-158 -500h-118l476 1480h162l476 -1480q-103 -57 -145 -110.5t-42 -115.5q0 -116 138 -116q65 0 145 38zM331 606h491l-246 773z" />
    <glyph glyph-name="aogonek" unicode="&#x105;" horiz-adv-x="876" 
d="M834 -300v-71q-29 -18 -65 -28t-73 -10q-91 0 -141.5 46.5t-50.5 129.5q0 69 35 128t113 117l-9 108h-9q-47 -68 -116.5 -102.5t-154.5 -34.5q-86 0 -151.5 34t-101.5 99t-36 156q0 143 84.5 222t259.5 96l218 25v127q0 98 -27.5 154t-81.5 78.5t-141 22.5
q-56 0 -122.5 -11t-130.5 -33v103q55 20 128 31.5t138 11.5q119 0 196 -34.5t116.5 -113.5t39.5 -213v-738q-90 -58 -128.5 -111.5t-38.5 -114.5q0 -56 31 -86t87 -30q68 0 132 42zM523 117q65 35 113 114v293l-212 -22q-118 -12 -174.5 -65.5t-56.5 -151.5
q0 -102 50.5 -152.5t145.5 -50.5q69 0 134 35z" />
    <glyph glyph-name="Cacute" unicode="&#x106;" horiz-adv-x="956" 
d="M349.5 54.5q-124.5 72.5 -191.5 239.5t-67 444q0 273 67.5 441t195 243.5t316.5 75.5q135 0 266 -38v-107q-69 22 -132.5 30.5t-135.5 8.5q-153 0 -252 -60.5t-150.5 -203.5t-51.5 -386q0 -248 52 -392t150 -203t246 -59q67 0 132 12t142 39v-108q-136 -49 -281 -49
q-181 0 -305.5 72.5zM553 1611l134 279h121l-155 -279h-100z" />
    <glyph glyph-name="cacute" unicode="&#x107;" horiz-adv-x="723" 
d="M261.5 36.5q-88.5 55.5 -134.5 179.5t-46 325q0 203 51 326t149 177.5t246 54.5q94 0 177 -21v-105q-85 22 -162 22q-120 0 -193 -41t-109.5 -139t-36.5 -269q0 -174 33 -274.5t98.5 -143t168.5 -42.5q91 0 201 40v-105q-110 -40 -221 -40q-133 0 -221.5 55.5zM382 1257
l157 359h120l-179 -359h-98z" />
    <glyph glyph-name="Ccircumflex" unicode="&#x108;" horiz-adv-x="956" 
d="M349.5 54.5q-124.5 72.5 -191.5 239.5t-67 444q0 273 67.5 441t195 243.5t316.5 75.5q135 0 266 -38v-107q-69 22 -132.5 30.5t-135.5 8.5q-153 0 -252 -60.5t-150.5 -203.5t-51.5 -386q0 -248 52 -392t150 -203t246 -59q67 0 132 12t142 39v-108q-136 -49 -281 -49
q-181 0 -305.5 72.5zM855 1611h-98l-154 224l-154 -224h-98l195 279h114z" />
    <glyph glyph-name="ccircumflex" unicode="&#x109;" horiz-adv-x="723" 
d="M261.5 36.5q-88.5 55.5 -134.5 179.5t-46 325q0 203 51 326t149 177.5t246 54.5q94 0 177 -21v-105q-85 22 -162 22q-120 0 -193 -41t-109.5 -139t-36.5 -269q0 -174 33 -274.5t98.5 -143t168.5 -42.5q91 0 201 40v-105q-110 -40 -221 -40q-133 0 -221.5 55.5zM666 1257
h-93l-142 297l-142 -297h-93l178 359h114z" />
    <glyph glyph-name="Cdotaccent" unicode="&#x10a;" horiz-adv-x="956" 
d="M349.5 54.5q-124.5 72.5 -191.5 239.5t-67 444q0 273 67.5 441t195 243.5t316.5 75.5q135 0 266 -38v-107q-69 22 -132.5 30.5t-135.5 8.5q-153 0 -252 -60.5t-150.5 -203.5t-51.5 -386q0 -248 52 -392t150 -203t246 -59q67 0 132 12t142 39v-108q-136 -49 -281 -49
q-181 0 -305.5 72.5zM539 1693q-24 21 -24 59q0 37 24.5 59t63.5 22q40 0 64 -22t24 -59q0 -38 -24 -59t-64 -21t-64 21z" />
    <glyph glyph-name="cdotaccent" unicode="&#x10b;" horiz-adv-x="723" 
d="M261.5 36.5q-88.5 55.5 -134.5 179.5t-46 325q0 203 51 326t149 177.5t246 54.5q94 0 177 -21v-105q-85 22 -162 22q-120 0 -193 -41t-109.5 -139t-36.5 -269q0 -174 33 -274.5t98.5 -143t168.5 -42.5q91 0 201 40v-105q-110 -40 -221 -40q-133 0 -221.5 55.5z
M366.5 1359.5q-23.5 22.5 -23.5 61.5t23.5 62.5t64.5 23.5t64.5 -23.5t23.5 -62.5t-23.5 -61.5t-64.5 -22.5t-64.5 22.5z" />
    <glyph glyph-name="Ccaron" unicode="&#x10c;" horiz-adv-x="956" 
d="M349.5 54.5q-124.5 72.5 -191.5 239.5t-67 444q0 273 67.5 441t195 243.5t316.5 75.5q135 0 266 -38v-107q-69 22 -132.5 30.5t-135.5 8.5q-153 0 -252 -60.5t-150.5 -203.5t-51.5 -386q0 -248 52 -392t150 -203t246 -59q67 0 132 12t142 39v-108q-136 -49 -281 -49
q-181 0 -305.5 72.5zM757 1890h98l-195 -279h-114l-195 279h98l154 -223z" />
    <glyph glyph-name="ccaron" unicode="&#x10d;" horiz-adv-x="723" 
d="M261.5 36.5q-88.5 55.5 -134.5 179.5t-46 325q0 203 51 326t149 177.5t246 54.5q94 0 177 -21v-105q-85 22 -162 22q-120 0 -193 -41t-109.5 -139t-36.5 -269q0 -174 33 -274.5t98.5 -143t168.5 -42.5q91 0 201 40v-105q-110 -40 -221 -40q-133 0 -221.5 55.5zM573 1616
h93l-178 -359h-114l-178 359h93l142 -297z" />
    <glyph glyph-name="Dcaron" unicode="&#x10e;" horiz-adv-x="1183" 
d="M153 4v1461q164 30 302 30q321 0 478.5 -184.5t157.5 -570.5q0 -264 -75 -430t-222.5 -244t-370.5 -78q-116 0 -270 16zM737 158.5q116 64.5 174 206.5t58 375q0 231 -55 374t-167 209.5t-288 66.5q-85 0 -190 -15v-1272q71 -9 172 -9q180 0 296 64.5zM685 1890h98
l-195 -279h-114l-195 279h98l154 -223z" />
    <glyph glyph-name="dcaron" unicode="&#x10f;" horiz-adv-x="943" 
d="M181.5 107q-100.5 126 -100.5 413q0 296 120.5 437.5t357.5 141.5q67 0 134 -8v525h116v-1616h-101l-9 108h-9q-38 -56 -102 -91.5t-144 -35.5q-162 0 -262.5 126zM596 122q62 36 97 103v761q-27 6 -66.5 9.5t-73.5 3.5q-176 0 -264 -109.5t-88 -358.5q0 -173 34 -271
t92 -136t139 -38q68 0 130 36zM906 1616h93q0 -112 -10 -225.5t-32 -210.5h-71q20 167 20 436z" />
    <glyph glyph-name="Dcroat" unicode="&#x110;" horiz-adv-x="1183" 
d="M933.5 1310.5q157.5 -184.5 157.5 -570.5q0 -264 -75 -430t-222.5 -244t-370.5 -78q-116 0 -270 16v713h-156v90h156v658q164 30 302 30q321 0 478.5 -184.5zM737 158.5q116 64.5 174 206.5t58 375q0 231 -55 374t-167 209.5t-288 66.5q-85 0 -190 -15v-568h285v-90h-285
v-614q71 -9 172 -9q180 0 296 64.5z" />
    <glyph glyph-name="dcroat" unicode="&#x111;" horiz-adv-x="943" 
d="M938 1310h-129v-1310h-101l-9 108h-9q-38 -56 -102 -91.5t-144 -35.5q-162 0 -262.5 126t-100.5 413q0 296 120.5 437.5t357.5 141.5q67 0 134 -8v219h-289v90h289v216h116v-216h129v-90zM693 986q-27 6 -66.5 9.5t-73.5 3.5q-176 0 -264 -109.5t-88 -358.5
q0 -173 34 -271t92 -136t139 -38q68 0 130 36t97 103v761z" />
    <glyph glyph-name="Emacron" unicode="&#x112;" horiz-adv-x="973" 
d="M269 106h667v-106h-783v1480h773v-106h-657v-561h565v-106h-565v-601zM302 1709v86h521v-86h-521z" />
    <glyph glyph-name="emacron" unicode="&#x113;" horiz-adv-x="871" 
d="M802 499h-601q3 -156 39 -246.5t105.5 -129.5t179.5 -39q95 0 228 40v-103q-124 -40 -239 -40q-147 0 -242 55.5t-143 178.5t-48 327q0 290 98 423.5t272 133.5q170 0 260.5 -131.5t90.5 -426.5v-42zM270 912.5q-65 -93.5 -69 -323.5h485q-2 158 -31 250t-80 129.5
t-124 37.5q-116 0 -181 -93.5zM180 1379v87h532v-87h-532z" />
    <glyph glyph-name="Ebreve" unicode="&#x114;" horiz-adv-x="973" 
d="M269 106h667v-106h-783v1480h773v-106h-657v-561h565v-106h-565v-601zM378 1684q-68 62 -77 182h83q10 -89 52 -128t128 -39t127.5 39t48.5 128h83q-9 -121 -75 -182.5t-184 -61.5t-186 62z" />
    <glyph glyph-name="ebreve" unicode="&#x115;" horiz-adv-x="871" 
d="M802 499h-601q3 -156 39 -246.5t105.5 -129.5t179.5 -39q95 0 228 40v-103q-124 -40 -239 -40q-147 0 -242 55.5t-143 178.5t-48 327q0 290 98 423.5t272 133.5q170 0 260.5 -131.5t90.5 -426.5v-42zM270 912.5q-65 -93.5 -69 -323.5h485q-2 158 -31 250t-80 129.5
t-124 37.5q-116 0 -181 -93.5zM274 1349q-65 80 -70 240h83q7 -127 47 -185t114 -58t114 58t44 185h82q-5 -160 -68.5 -240t-171.5 -80q-109 0 -174 80z" />
    <glyph glyph-name="Edotaccent" unicode="&#x116;" horiz-adv-x="973" 
d="M269 106h667v-106h-783v1480h773v-106h-657v-561h565v-106h-565v-601zM498 1693q-24 21 -24 59q0 37 24.5 59t63.5 22q40 0 64 -22t24 -59q0 -38 -24 -59t-64 -21t-64 21z" />
    <glyph glyph-name="edotaccent" unicode="&#x117;" horiz-adv-x="871" 
d="M802 499h-601q3 -156 39 -246.5t105.5 -129.5t179.5 -39q95 0 228 40v-103q-124 -40 -239 -40q-147 0 -242 55.5t-143 178.5t-48 327q0 290 98 423.5t272 133.5q170 0 260.5 -131.5t90.5 -426.5v-42zM270 912.5q-65 -93.5 -69 -323.5h485q-2 158 -31 250t-80 129.5
t-124 37.5q-116 0 -181 -93.5zM381.5 1359.5q-23.5 22.5 -23.5 61.5t23.5 62.5t64.5 23.5t64.5 -23.5t23.5 -62.5t-23.5 -61.5t-64.5 -22.5t-64.5 22.5z" />
    <glyph glyph-name="Eogonek" unicode="&#x118;" horiz-adv-x="973" 
d="M952 -304v-68q-74 -37 -151 -37q-103 0 -157.5 45.5t-54.5 130.5q0 67 34 123.5t109 109.5h-579v1480h773v-106h-657v-561h565v-106h-565v-601h667v-106h-80q-103 -57 -145 -110.5t-42 -115.5q0 -116 138 -116q65 0 145 38z" />
    <glyph glyph-name="eogonek" unicode="&#x119;" horiz-adv-x="871" 
d="M802 499h-601q3 -156 39 -246.5t105.5 -129.5t179.5 -39q95 0 228 40v-103q-143 -51 -196.5 -113.5t-53.5 -133.5q0 -56 31 -86t87 -30q67 0 132 42v-71q-29 -18 -65 -28t-73 -10q-91 0 -141.5 46.5t-50.5 129.5q0 132 122 215q-10 -1 -31 -1q-147 0 -242 55.5
t-143 178.5t-48 327q0 290 98 423.5t272 133.5q170 0 260.5 -131.5t90.5 -426.5v-42zM270 911q-65 -93 -69 -324h485q-2 159 -31 250.5t-80 129t-124 37.5q-116 0 -181 -93z" />
    <glyph glyph-name="Ecaron" unicode="&#x11a;" horiz-adv-x="973" 
d="M269 106h667v-106h-783v1480h773v-106h-657v-561h565v-106h-565v-601zM716 1890h98l-195 -279h-114l-195 279h98l154 -223z" />
    <glyph glyph-name="ecaron" unicode="&#x11b;" horiz-adv-x="871" 
d="M802 499h-601q3 -156 39 -246.5t105.5 -129.5t179.5 -39q95 0 228 40v-103q-124 -40 -239 -40q-147 0 -242 55.5t-143 178.5t-48 327q0 290 98 423.5t272 133.5q170 0 260.5 -131.5t90.5 -426.5v-42zM270 912.5q-65 -93.5 -69 -323.5h485q-2 158 -31 250t-80 129.5
t-124 37.5q-116 0 -181 -93.5zM588 1616h93l-178 -359h-114l-178 359h93l142 -297z" />
    <glyph glyph-name="Gcircumflex" unicode="&#x11c;" horiz-adv-x="1132" 
d="M1011 720v-707q-140 -25 -261 -25q-222 0 -366.5 74t-218.5 239t-74 437q0 274 73 442.5t209 243t336 74.5q150 0 281 -39v-107q-132 40 -279 40q-165 0 -274 -60.5t-166 -204.5t-57 -390q0 -241 58 -382t173.5 -201t297.5 -60q81 0 156 12v614h112zM890 1611h-98
l-154 224l-154 -224h-98l195 279h114z" />
    <glyph glyph-name="gcircumflex" unicode="&#x11d;" horiz-adv-x="943" 
d="M266.5 -449q-69.5 11 -122.5 31v104q126 -44 250 -44q102 0 167.5 31.5t98.5 104t33 193.5v132h-8q-38 -52 -102.5 -86t-146.5 -34q-157 0 -256 125.5t-99 411.5q0 579 474 579q62 0 133 -11.5t121 -28.5v-1074q0 -236 -101.5 -340.5t-308.5 -104.5q-63 0 -132.5 11z
M596.5 122.5q62.5 35.5 96.5 99.5v760q-79 17 -144 17q-173 0 -260.5 -109.5t-87.5 -357.5q0 -173 34 -271.5t91.5 -136t139.5 -37.5q68 0 130.5 35.5zM725 1257h-93l-142 297l-142 -297h-93l178 359h114z" />
    <glyph glyph-name="Gbreve" unicode="&#x11e;" horiz-adv-x="1132" 
d="M1011 720v-707q-140 -25 -261 -25q-222 0 -366.5 74t-218.5 239t-74 437q0 274 73 442.5t209 243t336 74.5q150 0 281 -39v-107q-132 40 -279 40q-165 0 -274 -60.5t-166 -204.5t-57 -390q0 -241 58 -382t173.5 -201t297.5 -60q81 0 156 12v614h112zM454 1684
q-68 62 -77 182h83q10 -89 52 -128t128 -39t127.5 39t48.5 128h83q-9 -121 -75 -182.5t-184 -61.5t-186 62z" />
    <glyph glyph-name="gbreve" unicode="&#x11f;" horiz-adv-x="943" 
d="M266.5 -449q-69.5 11 -122.5 31v104q126 -44 250 -44q102 0 167.5 31.5t98.5 104t33 193.5v132h-8q-38 -52 -102.5 -86t-146.5 -34q-157 0 -256 125.5t-99 411.5q0 579 474 579q62 0 133 -11.5t121 -28.5v-1074q0 -236 -101.5 -340.5t-308.5 -104.5q-63 0 -132.5 11z
M596.5 122.5q62.5 35.5 96.5 99.5v760q-79 17 -144 17q-173 0 -260.5 -109.5t-87.5 -357.5q0 -173 34 -271.5t91.5 -136t139.5 -37.5q68 0 130.5 35.5zM318 1349q-65 80 -70 240h83q7 -127 47 -185t114 -58t114 58t44 185h82q-5 -160 -68.5 -240t-171.5 -80q-109 0 -174 80z
" />
    <glyph glyph-name="Gdotaccent" unicode="&#x120;" horiz-adv-x="1132" 
d="M1011 720v-707q-140 -25 -261 -25q-222 0 -366.5 74t-218.5 239t-74 437q0 274 73 442.5t209 243t336 74.5q150 0 281 -39v-107q-132 40 -279 40q-165 0 -274 -60.5t-166 -204.5t-57 -390q0 -241 58 -382t173.5 -201t297.5 -60q81 0 156 12v614h112zM574 1693
q-24 21 -24 59q0 37 24.5 59t63.5 22q40 0 64 -22t24 -59q0 -38 -24 -59t-64 -21t-64 21z" />
    <glyph glyph-name="gdotaccent" unicode="&#x121;" horiz-adv-x="943" 
d="M266.5 -449q-69.5 11 -122.5 31v104q126 -44 250 -44q102 0 167.5 31.5t98.5 104t33 193.5v132h-8q-38 -52 -102.5 -86t-146.5 -34q-157 0 -256 125.5t-99 411.5q0 579 474 579q62 0 133 -11.5t121 -28.5v-1074q0 -236 -101.5 -340.5t-308.5 -104.5q-63 0 -132.5 11z
M596.5 122.5q62.5 35.5 96.5 99.5v760q-79 17 -144 17q-173 0 -260.5 -109.5t-87.5 -357.5q0 -173 34 -271.5t91.5 -136t139.5 -37.5q68 0 130.5 35.5zM425.5 1359.5q-23.5 22.5 -23.5 61.5t23.5 62.5t64.5 23.5t64.5 -23.5t23.5 -62.5t-23.5 -61.5t-64.5 -22.5t-64.5 22.5z
" />
    <glyph glyph-name="Gcommaaccent" unicode="&#x122;" horiz-adv-x="1132" 
d="M1011 720v-707q-140 -25 -261 -25q-222 0 -366.5 74t-218.5 239t-74 437q0 274 73 442.5t209 243t336 74.5q150 0 281 -39v-107q-132 40 -279 40q-165 0 -274 -60.5t-166 -204.5t-57 -390q0 -241 58 -382t173.5 -201t297.5 -60q81 0 156 12v614h112zM699.5 -197
q22.5 -25 22.5 -74q0 -41 -13.5 -91.5t-36.5 -95.5h-75q33 78 38 139q-37 1 -59 21.5t-22 53.5q0 32 21.5 52t59.5 20q42 0 64.5 -25z" />
    <glyph glyph-name="gcommaaccent" unicode="&#x123;" horiz-adv-x="943" 
d="M266.5 -449q-69.5 11 -122.5 31v104q126 -44 250 -44q102 0 167.5 31.5t98.5 104t33 193.5v132h-8q-38 -52 -102.5 -86t-146.5 -34q-157 0 -256 125.5t-99 411.5q0 579 474 579q62 0 133 -11.5t121 -28.5v-1074q0 -236 -101.5 -340.5t-308.5 -104.5q-63 0 -132.5 11z
M596.5 122.5q62.5 35.5 96.5 99.5v760q-79 17 -144 17q-173 0 -260.5 -109.5t-87.5 -357.5q0 -173 34 -271.5t91.5 -136t139.5 -37.5q68 0 130.5 35.5zM552.5 1463.5q21.5 -20.5 21.5 -53.5t-21.5 -52.5t-58.5 -19.5q-43 0 -65.5 25t-22.5 74q0 41 13.5 91.5t37.5 95.5h74
q-32 -77 -37 -139q37 -1 58.5 -21.5z" />
    <glyph glyph-name="Hcircumflex" unicode="&#x124;" horiz-adv-x="1242" 
d="M153 0v1480h116v-665h704v665h117v-1480h-117v705h-704v-705h-116zM873 1611h-98l-154 224l-154 -224h-98l195 279h114z" />
    <glyph glyph-name="hcircumflex" unicode="&#x125;" horiz-adv-x="955" 
d="M134 1616h116v-655h8q55 69 129 103.5t159 34.5q284 0 284 -338v-761h-116v759q0 125 -51 178t-145 53q-74 0 -148.5 -37.5t-119.5 -119.5v-833h-116v1616zM734 1707h-98l-154 224l-154 -224h-98l195 279h114z" />
    <glyph glyph-name="Hbar" unicode="&#x126;" horiz-adv-x="1242" 
d="M1245 1193v-88h-155v-1105h-117v705h-704v-705h-116v1105h-157v88h157v287h116v-287h704v287h117v-287h155zM973 815v290h-704v-290h704z" />
    <glyph glyph-name="hbar" unicode="&#x127;" horiz-adv-x="955" 
d="M830 761v-761h-116v759q0 125 -51 178t-145 53q-74 0 -148.5 -37.5t-119.5 -119.5v-833h-116v1310h-129v90h129v216h116v-216h289v-90h-289v-349h8q55 69 129 103.5t159 34.5q284 0 284 -338z" />
    <glyph glyph-name="Itilde" unicode="&#x128;" horiz-adv-x="422" 
d="M153 0v1480h116v-1480h-116zM278 1689q-31 10 -81 32q-40 19 -67 28t-54 9q-44 0 -77.5 -18t-66.5 -55v91q54 65 145 65q37 0 68.5 -10.5t79.5 -31.5q40 -19 67 -28t54 -9q44 0 78 18t66 55v-91q-52 -65 -144 -65q-37 0 -68 10z" />
    <glyph glyph-name="itilde" unicode="&#x129;" horiz-adv-x="384" 
d="M134 0v1083h116v-1083h-116zM253.5 1371q-29.5 11 -75.5 33q-37 19 -61.5 28t-48.5 9q-42 0 -76 -18.5t-66 -56.5v94q54 65 142 65q34 0 64 -11t74 -33q37 -18 62 -27.5t49 -9.5q42 0 76 18.5t65 56.5v-94q-25 -31 -61.5 -48t-80.5 -17q-33 0 -62.5 11z" />
    <glyph glyph-name="Imacron" unicode="&#x12a;" horiz-adv-x="422" 
d="M153 0v1480h116v-1480h-116zM-49 1709v86h521v-86h-521z" />
    <glyph glyph-name="imacron" unicode="&#x12b;" horiz-adv-x="384" 
d="M134 0v1083h116v-1083h-116zM-74 1379v87h532v-87h-532z" />
    <glyph glyph-name="Ibreve" unicode="&#x12c;" horiz-adv-x="422" 
d="M153 0v1480h116v-1480h-116zM27 1684q-68 62 -77 182h83q10 -89 52 -128t128 -39t127.5 39t48.5 128h83q-9 -121 -75 -182.5t-184 -61.5t-186 62z" />
    <glyph glyph-name="ibreve" unicode="&#x12d;" horiz-adv-x="384" 
d="M134 0v1083h116v-1083h-116zM20 1349q-65 80 -70 240h83q7 -127 47 -185t114 -58t114 58t44 185h82q-5 -160 -68.5 -240t-171.5 -80q-109 0 -174 80z" />
    <glyph glyph-name="Iogonek" unicode="&#x12e;" horiz-adv-x="422" 
d="M365 -304v-68q-74 -37 -151 -37q-103 0 -157.5 45.5t-54.5 130.5q0 69 36 126.5t115 112.5v1474h116v-1480q-103 -57 -145 -110.5t-42 -115.5q0 -116 138 -116q65 0 145 38z" />
    <glyph glyph-name="iogonek" unicode="&#x12f;" horiz-adv-x="384" 
d="M127.5 1359.5q-23.5 22.5 -23.5 61.5t23.5 62.5t64.5 23.5t64.5 -23.5t23.5 -62.5t-23.5 -61.5t-64.5 -22.5t-64.5 22.5zM333 -300v-71q-29 -18 -65 -28t-73 -10q-91 0 -141.5 46.5t-50.5 129.5q0 65 31.5 121.5t100.5 111.5h-1v1083h116v-1083q-90 -58 -128.5 -111.5
t-38.5 -114.5q0 -56 31 -86t87 -30q68 0 132 42z" />
    <glyph glyph-name="Idotaccent" unicode="&#x130;" horiz-adv-x="422" 
d="M153 0v1480h116v-1480h-116zM147 1693q-24 21 -24 59q0 37 24.5 59t63.5 22q40 0 64 -22t24 -59q0 -38 -24 -59t-64 -21t-64 21z" />
    <glyph glyph-name="dotlessi" unicode="&#x131;" horiz-adv-x="384" 
d="M134 0v1083h116v-1083h-116z" />
    <glyph glyph-name="Jcircumflex" unicode="&#x134;" horiz-adv-x="422" 
d="M-13 -287q91 141 128.5 269t37.5 307v1191h116v-1214q-5 -178 -50 -316t-151 -292zM463 1611h-98l-154 224l-154 -224h-98l195 279h114z" />
    <glyph glyph-name="jcircumflex" unicode="&#x135;" horiz-adv-x="384" 
d="M-31 -408q90 141 127.5 269t37.5 307v915h116v-904q0 -134 -20.5 -239.5t-63.5 -200t-116 -201.5zM427 1257h-93l-142 297l-142 -297h-93l178 359h114z" />
    <glyph glyph-name="Kcommaaccent" unicode="&#x136;" horiz-adv-x="1070" 
d="M980 0l-530 705h-181v-705h-116v1480h116v-667h183l490 667h130l-530 -718l571 -762h-133zM631.5 -197q22.5 -25 22.5 -74q0 -41 -13.5 -91.5t-36.5 -95.5h-75q33 78 38 139q-37 1 -59 21.5t-22 53.5q0 32 21.5 52t59.5 20q42 0 64.5 -25z" />
    <glyph glyph-name="kcommaaccent" unicode="&#x137;" horiz-adv-x="871" 
d="M764 0l-359 504h-155v-504h-116v1616h116v-1012h154l331 479h130l-363 -527l396 -556h-134zM542.5 -197q22.5 -25 22.5 -74q0 -41 -13.5 -91.5t-36.5 -95.5h-75q33 78 38 139q-37 1 -59 21.5t-22 53.5q0 32 21.5 52t59.5 20q42 0 64.5 -25z" />
    <glyph glyph-name="kgreenlandic" unicode="&#x138;" horiz-adv-x="871" 
d="M764 0l-359 504h-155v-504h-116v1083h116v-479h154l331 479h130l-363 -527l396 -556h-134z" />
    <glyph glyph-name="Lacute" unicode="&#x139;" horiz-adv-x="912" 
d="M153 0v1480h116v-1372h639v-108h-755zM162 1611l134 279h121l-155 -279h-100z" />
    <glyph glyph-name="lacute" unicode="&#x13a;" horiz-adv-x="384" 
d="M134 0v1616h116v-1616h-116zM142 1707l134 279h121l-155 -279h-100z" />
    <glyph glyph-name="Lcommaaccent" unicode="&#x13b;" horiz-adv-x="912" 
d="M153 0v1480h116v-1372h639v-108h-755zM592.5 -197q22.5 -25 22.5 -74q0 -41 -13.5 -91.5t-36.5 -95.5h-75q33 78 38 139q-37 1 -59 21.5t-22 53.5q0 32 21.5 52t59.5 20q42 0 64.5 -25z" />
    <glyph glyph-name="lcommaaccent" unicode="&#x13c;" horiz-adv-x="384" 
d="M134 0v1616h116v-1616h-116zM253.5 -197q22.5 -25 22.5 -74q0 -41 -13.5 -91.5t-36.5 -95.5h-75q33 78 38 139q-37 1 -59 21.5t-22 53.5q0 32 21.5 52t59.5 20q42 0 64.5 -25z" />
    <glyph glyph-name="Lcaron" unicode="&#x13d;" horiz-adv-x="912" 
d="M153 0v1480h116v-1372h639v-108h-755zM589 1353q4 115 4 263h93q0 -290 -42 -476h-71q12 98 16 213z" />
    <glyph glyph-name="lcaron" unicode="&#x13e;" horiz-adv-x="384" 
d="M134 0v1616h116v-1616h-116zM347 1616h93q0 -112 -10 -225.5t-32 -210.5h-71q20 167 20 436z" />
    <glyph glyph-name="Ldot" unicode="&#x13f;" horiz-adv-x="912" 
d="M153 0v1480h116v-1372h639v-108h-755zM599.5 728.5q-23.5 22.5 -23.5 61.5t23.5 62.5t64.5 23.5t64.5 -23.5t23.5 -62.5t-23.5 -61.5t-64.5 -22.5t-64.5 22.5z" />
    <glyph glyph-name="ldot" unicode="&#x140;" horiz-adv-x="448" 
d="M134 0v1616h116v-1616h-116zM346.5 730.5q-23.5 22.5 -23.5 61.5t23.5 62.5t64.5 23.5t64.5 -23.5t23.5 -62.5t-23.5 -61.5t-64.5 -22.5t-64.5 22.5z" />
    <glyph glyph-name="Lslash" unicode="&#x141;" horiz-adv-x="918" 
d="M275 108h639v-108h-755v674l-117 -103l-51 71l168 148v690h116v-588l236 207l51 -72l-287 -252v-667z" />
    <glyph glyph-name="lslash" unicode="&#x142;" horiz-adv-x="399" 
d="M401 832l-143 -123v-709h-116v609l-93 -80l-50 67l143 123v897h116v-797l93 80z" />
    <glyph glyph-name="Nacute" unicode="&#x143;" horiz-adv-x="1268" 
d="M1004 1480h111v-1480h-123l-728 1283v-1283h-111v1480h123l728 -1283v1283zM584 1611l134 279h121l-155 -279h-100z" />
    <glyph glyph-name="nacute" unicode="&#x144;" horiz-adv-x="955" 
d="M134 1083h99l10 -122h9q54 66 129 102t162 36q287 0 287 -333v-766h-116v760q0 125 -51 178.5t-145 53.5q-73 0 -148 -38.5t-120 -120.5v-833h-116v1083zM433 1257l157 359h120l-179 -359h-98z" />
    <glyph glyph-name="Ncommaaccent" unicode="&#x145;" horiz-adv-x="1268" 
d="M1004 1480h111v-1480h-123l-728 1283v-1283h-111v1480h123l728 -1283v1283zM695.5 -197q22.5 -25 22.5 -74q0 -41 -13.5 -91.5t-36.5 -95.5h-75q33 78 38 139q-37 1 -59 21.5t-22 53.5q0 32 21.5 52t59.5 20q42 0 64.5 -25z" />
    <glyph glyph-name="ncommaaccent" unicode="&#x146;" horiz-adv-x="955" 
d="M134 1083h99l10 -122h9q54 66 129 102t162 36q287 0 287 -333v-766h-116v760q0 125 -51 178.5t-145 53.5q-73 0 -148 -38.5t-120 -120.5v-833h-116v1083zM543.5 -197q22.5 -25 22.5 -74q0 -41 -13.5 -91.5t-36.5 -95.5h-75q33 78 38 139q-37 1 -59 21.5t-22 53.5
q0 32 21.5 52t59.5 20q42 0 64.5 -25z" />
    <glyph glyph-name="Ncaron" unicode="&#x147;" horiz-adv-x="1268" 
d="M1004 1480h111v-1480h-123l-728 1283v-1283h-111v1480h123l728 -1283v1283zM788 1890h98l-195 -279h-114l-195 279h98l154 -223z" />
    <glyph glyph-name="ncaron" unicode="&#x148;" horiz-adv-x="955" 
d="M134 1083h99l10 -122h9q54 66 129 102t162 36q287 0 287 -333v-766h-116v760q0 125 -51 178.5t-145 53.5q-73 0 -148 -38.5t-120 -120.5v-833h-116v1083zM624 1616h93l-178 -359h-114l-178 359h93l142 -297z" />
    <glyph glyph-name="napostrophe" unicode="&#x149;" horiz-adv-x="955" 
d="M134 1083h99l10 -122h9q54 66 129 102t162 36q287 0 287 -333v-766h-116v760q0 125 -51 178.5t-145 53.5q-73 0 -148 -38.5t-120 -120.5v-833h-116v1083zM155.5 1599q22.5 -25 22.5 -74q0 -41 -13.5 -91.5t-36.5 -95.5h-75q33 78 38 139q-37 1 -59 21t-22 53t21.5 53
t59.5 20q42 0 64.5 -25z" />
    <glyph glyph-name="Eng" unicode="&#x14a;" horiz-adv-x="1268" 
d="M1115 1480v-1295q0 -137 -20.5 -244t-63.5 -201.5t-116 -201.5l-81 54q69 106 107 200t53 204l-730 1287v-1283h-111v1480h123l728 -1282v1282h111z" />
    <glyph glyph-name="eng" unicode="&#x14b;" horiz-adv-x="955" 
d="M549 -408q90 141 127.5 269t37.5 307v592q0 126 -51 179.5t-145 53.5q-73 0 -148 -38.5t-120 -120.5v-834h-116v1083h99l10 -122h9q57 69 132 103.5t159 34.5q287 0 287 -338v-616q-5 -178 -50 -315.5t-150 -291.5z" />
    <glyph glyph-name="Omacron" unicode="&#x14c;" horiz-adv-x="1199" 
d="M223.5 161.5q-132.5 179.5 -132.5 578.5t132.5 578.5t376.5 179.5t376 -179.5t132 -578.5t-132 -578.5t-376 -179.5t-376.5 179.5zM808 147.5q85 60.5 131.5 203.5t46.5 384q0 246 -46.5 391t-131.5 206t-208 61q-124 0 -209 -60.5t-131.5 -203.5t-46.5 -384
q0 -246 46.5 -391t131.5 -206t209 -61q123 0 208 60.5zM340 1709v86h521v-86h-521z" />
    <glyph glyph-name="omacron" unicode="&#x14d;" horiz-adv-x="936" 
d="M81 540q0 293 100 426t287 133q387 0 387 -558q0 -293 -100 -426.5t-287 -133.5q-387 0 -387 559zM612.5 121.5q58.5 41.5 90 142t31.5 273.5q0 176 -32 278t-90 143.5t-144 41.5t-144.5 -41.5t-90.5 -142t-32 -272.5q0 -176 32 -278t90.5 -144t144.5 -42t144.5 41.5z
M202 1379v87h532v-87h-532z" />
    <glyph glyph-name="Obreve" unicode="&#x14e;" horiz-adv-x="1199" 
d="M223.5 161.5q-132.5 179.5 -132.5 578.5t132.5 578.5t376.5 179.5t376 -179.5t132 -578.5t-132 -578.5t-376 -179.5t-376.5 179.5zM808 147.5q85 60.5 131.5 203.5t46.5 384q0 246 -46.5 391t-131.5 206t-208 61q-124 0 -209 -60.5t-131.5 -203.5t-46.5 -384
q0 -246 46.5 -391t131.5 -206t209 -61q123 0 208 60.5zM416 1684q-68 62 -77 182h83q10 -89 52 -128t128 -39t127.5 39t48.5 128h83q-9 -121 -75 -182.5t-184 -61.5t-186 62z" />
    <glyph glyph-name="obreve" unicode="&#x14f;" horiz-adv-x="936" 
d="M81 540q0 293 100 426t287 133q387 0 387 -558q0 -293 -100 -426.5t-287 -133.5q-387 0 -387 559zM612.5 121.5q58.5 41.5 90 142t31.5 273.5q0 176 -32 278t-90 143.5t-144 41.5t-144.5 -41.5t-90.5 -142t-32 -272.5q0 -176 32 -278t90.5 -144t144.5 -42t144.5 41.5z
M296 1349q-65 80 -70 240h83q7 -127 47 -185t114 -58t114 58t44 185h82q-5 -160 -68.5 -240t-171.5 -80q-109 0 -174 80z" />
    <glyph glyph-name="Ohungarumlaut" unicode="&#x150;" horiz-adv-x="1199" 
d="M223.5 161.5q-132.5 179.5 -132.5 578.5t132.5 578.5t376.5 179.5t376 -179.5t132 -578.5t-132 -578.5t-376 -179.5t-376.5 179.5zM808 147.5q85 60.5 131.5 203.5t46.5 384q0 246 -46.5 391t-131.5 206t-208 61q-124 0 -209 -60.5t-131.5 -203.5t-46.5 -384
q0 -246 46.5 -391t131.5 -206t209 -61q123 0 208 60.5zM414 1611l92 279h101l-102 -279h-91zM695 1611l91 279h102l-102 -279h-91z" />
    <glyph glyph-name="ohungarumlaut" unicode="&#x151;" horiz-adv-x="936" 
d="M81 540q0 293 100 426t287 133q387 0 387 -558q0 -293 -100 -426.5t-287 -133.5q-387 0 -387 559zM612.5 121.5q58.5 41.5 90 142t31.5 273.5q0 176 -32 278t-90 143.5t-144 41.5t-144.5 -41.5t-90.5 -142t-32 -272.5q0 -176 32 -278t90.5 -144t144.5 -42t144.5 41.5z
M284 1257l94 359h100l-105 -359h-89zM563 1257l95 359h99l-105 -359h-89z" />
    <glyph glyph-name="OE" unicode="&#x152;" horiz-adv-x="1689" 
d="M1651 106v-106h-682q-26 0 -88 -4q-80 -6 -142 -6q-322 0 -485 180.5t-163 569.5q0 383 158.5 568t468.5 185q69 0 157 -8q55 -5 89 -5h677v-106h-633v-561h541v-106h-541v-601h643zM892 1376q-84 12 -181 12q-171 0 -280.5 -66.5t-163.5 -209.5t-54 -372
q0 -232 57.5 -374t171 -206.5t287.5 -64.5q94 0 163 9v1272z" />
    <glyph glyph-name="oe" unicode="&#x153;" horiz-adv-x="1510" 
d="M1441 499h-593q3 -155 38.5 -246t104 -130t176.5 -39q92 0 225 40v-103q-123 -40 -235 -40q-144 0 -236 55t-137 177q-84 -232 -323 -232q-180 0 -280 134t-100 425q0 293 99 426t281 133q244 0 327 -244q76 246 306 246q167 0 257 -131t90 -429v-42zM915 914
q-63 -94 -67 -325h478q-3 161 -32.5 253.5t-79.5 129t-123 36.5q-113 0 -176 -94zM606.5 121.5q57.5 41.5 89 142.5t31.5 273q0 176 -31.5 278t-89 143.5t-142.5 41.5q-84 0 -142 -41.5t-89.5 -142t-31.5 -272.5q0 -176 31.5 -278t89.5 -144t142 -42q85 0 142.5 41.5z" />
    <glyph glyph-name="Racute" unicode="&#x154;" horiz-adv-x="1145" 
d="M979 0l-443 633q-43 -4 -103 -4q-95 0 -164 6v-635h-116v1465q169 30 325 30q258 0 385.5 -107t127.5 -320q2 -169 -84 -274t-256 -143l458 -651h-130zM770 811.5q108 81.5 108 254.5q0 168 -94 247.5t-302 79.5q-115 0 -213 -17v-640q94 -6 159 -6q234 0 342 81.5z
M490 1611l134 279h121l-155 -279h-100z" />
    <glyph glyph-name="racute" unicode="&#x155;" horiz-adv-x="598" 
d="M134 1083h99l9 -147h10q48 78 121 117.5t157 39.5q23 0 58 -5v-112q-22 3 -64 3q-83 0 -158 -45.5t-116 -126.5v-807h-116v1083zM290 1257l157 359h120l-179 -359h-98z" />
    <glyph glyph-name="Rcommaaccent" unicode="&#x156;" horiz-adv-x="1145" 
d="M979 0l-443 633q-43 -4 -103 -4q-95 0 -164 6v-635h-116v1465q169 30 325 30q258 0 385.5 -107t127.5 -320q2 -169 -84 -274t-256 -143l458 -651h-130zM770 811.5q108 81.5 108 254.5q0 168 -94 247.5t-302 79.5q-115 0 -213 -17v-640q94 -6 159 -6q234 0 342 81.5z
M670.5 -197q22.5 -25 22.5 -74q0 -41 -13.5 -91.5t-36.5 -95.5h-75q33 78 38 139q-37 1 -59 21.5t-22 53.5q0 32 21.5 52t59.5 20q42 0 64.5 -25z" />
    <glyph glyph-name="rcommaaccent" unicode="&#x157;" horiz-adv-x="598" 
d="M134 1083h99l9 -147h10q48 78 121 117.5t157 39.5q23 0 58 -5v-112q-22 3 -64 3q-83 0 -158 -45.5t-116 -126.5v-807h-116v1083zM253.5 -197q22.5 -25 22.5 -74q0 -41 -13.5 -91.5t-36.5 -95.5h-75q33 78 38 139q-37 1 -59 21.5t-22 53.5q0 32 21.5 52t59.5 20
q42 0 64.5 -25z" />
    <glyph glyph-name="Rcaron" unicode="&#x158;" horiz-adv-x="1145" 
d="M979 0l-443 633q-43 -4 -103 -4q-95 0 -164 6v-635h-116v1465q169 30 325 30q258 0 385.5 -107t127.5 -320q2 -169 -84 -274t-256 -143l458 -651h-130zM770 811.5q108 81.5 108 254.5q0 168 -94 247.5t-302 79.5q-115 0 -213 -17v-640q94 -6 159 -6q234 0 342 81.5z
M694 1890h98l-195 -279h-114l-195 279h98l154 -223z" />
    <glyph glyph-name="rcaron" unicode="&#x159;" horiz-adv-x="598" 
d="M134 1083h99l9 -147h10q48 78 121 117.5t157 39.5q23 0 58 -5v-112q-22 3 -64 3q-83 0 -158 -45.5t-116 -126.5v-807h-116v1083zM481 1616h93l-178 -359h-114l-178 359h93l142 -297z" />
    <glyph glyph-name="Sacute" unicode="&#x15a;" horiz-adv-x="894" 
d="M228.5 -4.5q-78.5 13.5 -148.5 38.5v106q157 -53 300 -53q164 0 248 73.5t84 218.5q0 83 -27 138.5t-85 95.5t-158 75l-62 21q-158 55 -238.5 150.5t-80.5 246.5q0 122 52 210t154 135t250 47q67 0 137 -9.5t121 -26.5v-107q-120 38 -255 38q-171 0 -255 -72t-84 -208
q0 -79 25.5 -132.5t81.5 -92.5t152 -72l62 -22q165 -56 248 -153.5t83 -252.5q0 -194 -119 -300t-338 -106q-69 0 -147.5 13.5zM404 1611l134 279h121l-155 -279h-100z" />
    <glyph glyph-name="sacute" unicode="&#x15b;" horiz-adv-x="743" 
d="M89 21v103q129 -41 238 -41q120 0 183.5 52t63.5 149q0 84 -39 128.5t-122 68.5l-102 28q-130 37 -186.5 107t-56.5 182q0 88 42.5 156t124.5 106.5t196 38.5q108 0 203 -23v-103q-54 13 -100.5 19t-99.5 6q-126 0 -190 -55.5t-64 -141.5q0 -76 38 -120.5t119 -67.5
l102 -28q135 -37 191 -108.5t56 -187.5q0 -96 -42.5 -165.5t-123 -106t-192.5 -36.5q-125 0 -239 40zM329 1257l157 359h120l-179 -359h-98z" />
    <glyph glyph-name="Scircumflex" unicode="&#x15c;" horiz-adv-x="894" 
d="M228.5 -4.5q-78.5 13.5 -148.5 38.5v106q157 -53 300 -53q164 0 248 73.5t84 218.5q0 83 -27 138.5t-85 95.5t-158 75l-62 21q-158 55 -238.5 150.5t-80.5 246.5q0 122 52 210t154 135t250 47q67 0 137 -9.5t121 -26.5v-107q-120 38 -255 38q-171 0 -255 -72t-84 -208
q0 -79 25.5 -132.5t81.5 -92.5t152 -72l62 -22q165 -56 248 -153.5t83 -252.5q0 -194 -119 -300t-338 -106q-69 0 -147.5 13.5zM706 1611h-98l-154 224l-154 -224h-98l195 279h114z" />
    <glyph glyph-name="scircumflex" unicode="&#x15d;" horiz-adv-x="743" 
d="M89 21v103q129 -41 238 -41q120 0 183.5 52t63.5 149q0 84 -39 128.5t-122 68.5l-102 28q-130 37 -186.5 107t-56.5 182q0 88 42.5 156t124.5 106.5t196 38.5q108 0 203 -23v-103q-54 13 -100.5 19t-99.5 6q-126 0 -190 -55.5t-64 -141.5q0 -76 38 -120.5t119 -67.5
l102 -28q135 -37 191 -108.5t56 -187.5q0 -96 -42.5 -165.5t-123 -106t-192.5 -36.5q-125 0 -239 40zM613 1257h-93l-142 297l-142 -297h-93l178 359h114z" />
    <glyph glyph-name="Scedilla" unicode="&#x15e;" horiz-adv-x="894" 
d="M744 118q-89 -102 -256 -128v-97q75 -6 119 -44.5t44 -105.5q0 -73 -52 -112.5t-142 -39.5q-94 0 -175 36v70q87 -39 171 -39q119 0 119 88q0 44 -32 66t-89 22h-39v149q-12 -1 -36 -1q-69 0 -147.5 13.5t-148.5 38.5v106q157 -53 300 -53q164 0 248 73.5t84 218.5
q0 83 -27 138.5t-85 95.5t-158 75l-62 21q-158 55 -238.5 150.5t-80.5 246.5q0 122 52 210t154 135t250 47q67 0 137 -9.5t121 -26.5v-107q-120 38 -255 38q-171 0 -255 -72t-84 -208q0 -79 25.5 -132.5t81.5 -92.5t152 -72l62 -22q165 -56 248 -153.5t83 -252.5
q0 -168 -89 -270z" />
    <glyph glyph-name="scedilla" unicode="&#x15f;" horiz-adv-x="743" 
d="M616.5 87.5q-69.5 -78.5 -196.5 -99.5v-98q66 -9 101 -47.5t35 -101.5q0 -68 -47.5 -109t-135.5 -41q-39 0 -78.5 8.5t-69.5 24.5v70q69 -36 150 -36q104 0 104 86q0 90 -107 90h-28v147h-16q-125 0 -239 40v103q129 -41 238 -41q120 0 183.5 52t63.5 149q0 84 -39 128.5
t-122 68.5l-102 28q-130 37 -186.5 107t-56.5 182q0 88 42.5 156t124.5 106.5t196 38.5q108 0 203 -23v-103q-54 13 -100.5 19t-99.5 6q-126 0 -190 -55.5t-64 -141.5q0 -76 38 -120.5t119 -67.5l102 -28q135 -37 191 -108.5t56 -187.5q0 -123 -69.5 -201.5z" />
    <glyph glyph-name="Scaron" unicode="&#x160;" horiz-adv-x="894" 
d="M228.5 -4.5q-78.5 13.5 -148.5 38.5v106q157 -53 300 -53q164 0 248 73.5t84 218.5q0 83 -27 138.5t-85 95.5t-158 75l-62 21q-158 55 -238.5 150.5t-80.5 246.5q0 122 52 210t154 135t250 47q67 0 137 -9.5t121 -26.5v-107q-120 38 -255 38q-171 0 -255 -72t-84 -208
q0 -79 25.5 -132.5t81.5 -92.5t152 -72l62 -22q165 -56 248 -153.5t83 -252.5q0 -194 -119 -300t-338 -106q-69 0 -147.5 13.5zM608 1890h98l-195 -279h-114l-195 279h98l154 -223z" />
    <glyph glyph-name="scaron" unicode="&#x161;" horiz-adv-x="743" 
d="M89 21v103q129 -41 238 -41q120 0 183.5 52t63.5 149q0 84 -39 128.5t-122 68.5l-102 28q-130 37 -186.5 107t-56.5 182q0 88 42.5 156t124.5 106.5t196 38.5q108 0 203 -23v-103q-54 13 -100.5 19t-99.5 6q-126 0 -190 -55.5t-64 -141.5q0 -76 38 -120.5t119 -67.5
l102 -28q135 -37 191 -108.5t56 -187.5q0 -96 -42.5 -165.5t-123 -106t-192.5 -36.5q-125 0 -239 40zM520 1616h93l-178 -359h-114l-178 359h93l142 -297z" />
    <glyph glyph-name="uni0162" unicode="&#x162;" horiz-adv-x="1011" 
d="M540 0v-107q75 -6 119 -44.5t44 -105.5q0 -73 -52 -112.5t-142 -39.5q-94 0 -175 36v70q87 -39 171 -39q119 0 119 88q0 44 -32 66t-89 22h-39v166h-17v1372h-440v108h997v-108h-440v-1372h-24z" />
    <glyph glyph-name="uni0163" unicode="&#x163;" horiz-adv-x="622" 
d="M444 -17v-93q66 -9 101 -47.5t35 -101.5q0 -68 -47.5 -109t-135.5 -41q-39 0 -78.5 8.5t-69.5 24.5v70q69 -36 150 -36q104 0 104 86q0 90 -107 90h-28v163q-177 52 -177 303v683h-191v100h191l18 397h98v-397h289v-100h-289v-666q0 -86 21 -136t63 -72t110 -22
q47 0 112 15v-105q-63 -15 -132 -15q-25 0 -37 1z" />
    <glyph glyph-name="Tcaron" unicode="&#x164;" horiz-adv-x="1011" 
d="M447 0v1372h-440v108h997v-108h-440v-1372h-117zM660 1890h98l-195 -279h-114l-195 279h98l154 -223z" />
    <glyph glyph-name="tcaron" unicode="&#x165;" horiz-adv-x="622" 
d="M613 102v-105q-63 -15 -132 -15q-141 0 -215.5 76t-74.5 242v683h-191v100h191l18 397h98v-397h289v-100h-289v-666q0 -86 21 -136t63 -72t110 -22q47 0 112 15zM492 1616h93q0 -112 -10 -225.5t-32 -210.5h-71q20 167 20 436z" />
    <glyph glyph-name="Tbar" unicode="&#x166;" horiz-adv-x="1011" 
d="M1004 1372h-440v-542h290v-90h-290v-740h-117v740h-289v90h289v542h-440v108h997v-108z" />
    <glyph glyph-name="tbar" unicode="&#x167;" horiz-adv-x="622" 
d="M613 102v-105q-63 -15 -132 -15q-141 0 -215.5 76t-74.5 242v301h-132v90h132v292h-191v100h191l18 397h98v-397h289v-100h-289v-292h249v-90h-249v-284q0 -86 21 -136t63 -72t110 -22q47 0 112 15z" />
    <glyph glyph-name="Utilde" unicode="&#x168;" horiz-adv-x="1219" 
d="M346 38.5q-103 56.5 -152 172.5t-49 298v971h117v-986q0 -210 82.5 -308.5t266.5 -98.5t266.5 98.5t82.5 308.5v986h114v-971q0 -182 -48.5 -298t-150.5 -172.5t-264 -56.5t-265 56.5zM678 1689q-31 10 -81 32q-40 19 -67 28t-54 9q-44 0 -77.5 -18t-66.5 -55v91
q54 65 145 65q37 0 68.5 -10.5t79.5 -31.5q40 -19 67 -28t54 -9q44 0 78 18t66 55v-91q-52 -65 -144 -65q-37 0 -68 10z" />
    <glyph glyph-name="utilde" unicode="&#x169;" horiz-adv-x="946" 
d="M125 320v763h116v-761q0 -125 50.5 -179t142.5 -54q70 0 143.5 38.5t118.5 119.5v836h116v-1083h-100l-9 119h-9q-56 -68 -129.5 -102.5t-154.5 -34.5q-285 0 -285 338zM530.5 1371q-29.5 11 -75.5 33q-37 19 -61.5 28t-48.5 9q-42 0 -76 -18.5t-66 -56.5v94
q54 65 142 65q34 0 64 -11t74 -33q37 -18 62 -27.5t49 -9.5q42 0 76 18.5t65 56.5v-94q-25 -31 -61.5 -48t-80.5 -17q-33 0 -62.5 11z" />
    <glyph glyph-name="Umacron" unicode="&#x16a;" horiz-adv-x="1219" 
d="M346 38.5q-103 56.5 -152 172.5t-49 298v971h117v-986q0 -210 82.5 -308.5t266.5 -98.5t266.5 98.5t82.5 308.5v986h114v-971q0 -182 -48.5 -298t-150.5 -172.5t-264 -56.5t-265 56.5zM351 1709v86h521v-86h-521z" />
    <glyph glyph-name="umacron" unicode="&#x16b;" horiz-adv-x="946" 
d="M125 320v763h116v-761q0 -125 50.5 -179t142.5 -54q70 0 143.5 38.5t118.5 119.5v836h116v-1083h-100l-9 119h-9q-56 -68 -129.5 -102.5t-154.5 -34.5q-285 0 -285 338zM203 1379v87h532v-87h-532z" />
    <glyph glyph-name="Ubreve" unicode="&#x16c;" horiz-adv-x="1219" 
d="M346 38.5q-103 56.5 -152 172.5t-49 298v971h117v-986q0 -210 82.5 -308.5t266.5 -98.5t266.5 98.5t82.5 308.5v986h114v-971q0 -182 -48.5 -298t-150.5 -172.5t-264 -56.5t-265 56.5zM427 1684q-68 62 -77 182h83q10 -89 52 -128t128 -39t127.5 39t48.5 128h83
q-9 -121 -75 -182.5t-184 -61.5t-186 62z" />
    <glyph glyph-name="ubreve" unicode="&#x16d;" horiz-adv-x="946" 
d="M125 320v763h116v-761q0 -125 50.5 -179t142.5 -54q70 0 143.5 38.5t118.5 119.5v836h116v-1083h-100l-9 119h-9q-56 -68 -129.5 -102.5t-154.5 -34.5q-285 0 -285 338zM297 1349q-65 80 -70 240h83q7 -127 47 -185t114 -58t114 58t44 185h82q-5 -160 -68.5 -240
t-171.5 -80q-109 0 -174 80z" />
    <glyph glyph-name="Uring" unicode="&#x16e;" horiz-adv-x="1219" 
d="M346 38.5q-103 56.5 -152 172.5t-49 298v971h117v-986q0 -210 82.5 -308.5t266.5 -98.5t266.5 98.5t82.5 308.5v986h114v-971q0 -182 -48.5 -298t-150.5 -172.5t-264 -56.5t-265 56.5zM513.5 1628.5q-43.5 24.5 -68 67.5t-24.5 97t24.5 97.5t68 68t97.5 24.5t97.5 -24.5
t68.5 -68t25 -97.5t-25 -97t-68.5 -67.5t-97.5 -24.5t-97.5 24.5zM699.5 1702.5q33.5 33.5 33.5 90.5q0 58 -33.5 91.5t-88.5 33.5q-54 0 -88 -33.5t-34 -91.5q0 -57 34 -90.5t88 -33.5q55 0 88.5 33.5z" />
    <glyph glyph-name="uring" unicode="&#x16f;" horiz-adv-x="946" 
d="M125 320v763h116v-761q0 -125 50.5 -179t142.5 -54q70 0 143.5 38.5t118.5 119.5v836h116v-1083h-100l-9 119h-9q-56 -68 -129.5 -102.5t-154.5 -34.5q-285 0 -285 338zM371.5 1277.5q-43.5 24.5 -68 67.5t-24.5 97t24.5 97.5t68 68t97.5 24.5t97.5 -24.5t68.5 -68
t25 -97.5t-25 -97t-68.5 -67.5t-97.5 -24.5t-97.5 24.5zM557.5 1351.5q33.5 33.5 33.5 90.5q0 58 -33.5 91.5t-88.5 33.5q-54 0 -88 -33.5t-34 -91.5q0 -57 34 -90.5t88 -33.5q55 0 88.5 33.5z" />
    <glyph glyph-name="Uhungarumlaut" unicode="&#x170;" horiz-adv-x="1219" 
d="M346 38.5q-103 56.5 -152 172.5t-49 298v971h117v-986q0 -210 82.5 -308.5t266.5 -98.5t266.5 98.5t82.5 308.5v986h114v-971q0 -182 -48.5 -298t-150.5 -172.5t-264 -56.5t-265 56.5zM425 1611l92 279h101l-102 -279h-91zM706 1611l91 279h102l-102 -279h-91z" />
    <glyph glyph-name="uhungarumlaut" unicode="&#x171;" horiz-adv-x="946" 
d="M125 320v763h116v-761q0 -125 50.5 -179t142.5 -54q70 0 143.5 38.5t118.5 119.5v836h116v-1083h-100l-9 119h-9q-56 -68 -129.5 -102.5t-154.5 -34.5q-285 0 -285 338zM285 1257l94 359h100l-105 -359h-89zM564 1257l95 359h99l-105 -359h-89z" />
    <glyph glyph-name="Uogonek" unicode="&#x172;" horiz-adv-x="1219" 
d="M1074 1480v-971q0 -202 -62 -327.5t-207 -173.5q-136 -46 -189 -106t-53 -128q0 -116 138 -116q64 0 145 38v-68q-74 -37 -151 -37q-103 0 -157.5 45.5t-54.5 130.5q0 129 127 215q-241 0 -353 127.5t-112 399.5v971h117v-986q0 -210 82.5 -308.5t266.5 -98.5t266.5 98.5
t82.5 308.5v986h114z" />
    <glyph glyph-name="uogonek" unicode="&#x173;" horiz-adv-x="946" 
d="M895 -300v-71q-29 -18 -65 -28t-73 -10q-91 0 -141.5 46.5t-50.5 129.5q0 68 35 127t111 117l-8 108h-9q-56 -68 -129.5 -102.5t-154.5 -34.5q-285 0 -285 338v763h116v-761q0 -125 50.5 -179t142.5 -54q70 0 143.5 38.5t118.5 119.5v836h116v-1083
q-90 -58 -128.5 -111.5t-38.5 -114.5q0 -56 31 -86t87 -30q68 0 132 42z" />
    <glyph glyph-name="Wcircumflex" unicode="&#x174;" horiz-adv-x="1811" 
d="M1650 1480h112l-366 -1480h-157l-332 1341l-336 -1341h-156l-367 1480h121l330 -1362l337 1362h144l335 -1366zM1159 1611h-98l-154 224l-154 -224h-98l195 279h114z" />
    <glyph glyph-name="wcircumflex" unicode="&#x175;" horiz-adv-x="1472" 
d="M1317 1083h110l-283 -1083h-142l-265 960l-267 -960h-142l-283 1083h114l245 -956l264 956h141l262 -954zM973 1257h-93l-142 297l-142 -297h-93l178 359h114z" />
    <glyph glyph-name="Ycircumflex" unicode="&#x176;" horiz-adv-x="1011" 
d="M1033 1480l-469 -812v-668h-117v667l-477 813h129l408 -700l405 700h121zM758 1611h-98l-154 224l-154 -224h-98l195 279h114z" />
    <glyph glyph-name="ycircumflex" unicode="&#x177;" horiz-adv-x="887" 
d="M757 1083h122l-503 -1523h-117l146 440h-39l-357 1083h124l309 -977zM679 1257h-93l-142 297l-142 -297h-93l178 359h114z" />
    <glyph glyph-name="Ydieresis" unicode="&#x178;" horiz-adv-x="1011" 
d="M1033 1480l-469 -812v-668h-117v667l-477 813h129l408 -700l405 700h121zM254.5 1693.5q-22.5 21.5 -22.5 58.5t23 59t61 22t61 -22t23 -59t-23 -58.5t-61 -21.5q-39 0 -61.5 21.5zM635.5 1693.5q-22.5 21.5 -22.5 58.5t23 59t61 22t61 -22t23 -59t-23 -58.5t-61 -21.5
q-39 0 -61.5 21.5z" />
    <glyph glyph-name="Zacute" unicode="&#x179;" horiz-adv-x="974" 
d="M203 107h719v-107h-870v67l709 1306h-699v107h850v-67zM438 1611l134 279h121l-155 -279h-100z" />
    <glyph glyph-name="zacute" unicode="&#x17a;" horiz-adv-x="762" 
d="M190 100h526v-100h-664v70l516 913h-506v100h644v-70zM336 1257l157 359h120l-179 -359h-98z" />
    <glyph glyph-name="Zdotaccent" unicode="&#x17b;" horiz-adv-x="974" 
d="M203 107h719v-107h-870v67l709 1306h-699v107h850v-67zM424 1693q-24 21 -24 59q0 37 24.5 59t63.5 22q40 0 64 -22t24 -59q0 -38 -24 -59t-64 -21t-64 21z" />
    <glyph glyph-name="zdotaccent" unicode="&#x17c;" horiz-adv-x="762" 
d="M190 100h526v-100h-664v70l516 913h-506v100h644v-70zM320.5 1359.5q-23.5 22.5 -23.5 61.5t23.5 62.5t64.5 23.5t64.5 -23.5t23.5 -62.5t-23.5 -61.5t-64.5 -22.5t-64.5 22.5z" />
    <glyph glyph-name="Zcaron" unicode="&#x17d;" horiz-adv-x="974" 
d="M203 107h719v-107h-870v67l709 1306h-699v107h850v-67zM642 1890h98l-195 -279h-114l-195 279h98l154 -223z" />
    <glyph glyph-name="zcaron" unicode="&#x17e;" horiz-adv-x="762" 
d="M190 100h526v-100h-664v70l516 913h-506v100h644v-70zM527 1616h93l-178 -359h-114l-178 359h93l142 -297z" />
    <glyph glyph-name="uni018F" unicode="&#x18f;" horiz-adv-x="1197" 
d="M831 1422.5q135 -75.5 204.5 -243.5t69.5 -442q0 -755 -515 -755q-247 0 -378 179t-131 576v55h903q-6 231 -61 362t-162.5 185.5t-280.5 54.5q-181 0 -327 -42v106q159 40 338 40q205 0 340 -75.5zM801 141q85 56 132.5 189.5t51.5 360.5h-782q4 -227 49.5 -360.5
t128.5 -189.5t209 -56t211 56z" />
    <glyph glyph-name="florin" unicode="&#x192;" horiz-adv-x="589" 
d="M365.5 1484.5q-51.5 -48.5 -51.5 -153.5v-248h289v-101h-289v-1126q0 -156 -80 -236t-236 -80q-73 0 -124 10v104q30 -5 59.5 -8t58.5 -3q104 0 155.5 48.5t51.5 153.5v1137h-191v101h191v237q0 156 80 236t236 80q73 0 124 -10v-104q-30 5 -59.5 8t-58.5 3
q-104 0 -155.5 -48.5z" />
    <glyph glyph-name="Ohorn" unicode="&#x1a0;" horiz-adv-x="1199" 
d="M1108 740q0 -399 -132.5 -578.5t-375.5 -179.5t-376 179.5t-133 578.5t132.5 578.5t376.5 179.5q61 0 139 -12q61 -9 102 -9q79 0 126 38.5t47 118.5q0 38 -5.5 70.5t-17.5 71.5h96q13 -37 18.5 -70.5t5.5 -76.5q0 -101 -56.5 -161t-150.5 -72q204 -169 204 -656z
M808 147.5q85 60.5 131.5 203.5t46.5 384q0 246 -46.5 391t-131.5 206t-208 61q-124 0 -209 -60.5t-131.5 -203.5t-46.5 -384q0 -246 46.5 -391t131.5 -206t209 -61q123 0 208 60.5z" />
    <glyph glyph-name="ohorn" unicode="&#x1a1;" horiz-adv-x="936" 
d="M818 833q37 -118 37 -292q0 -293 -100 -426.5t-287 -133.5q-387 0 -387 559q0 293 100 426t287 133q7 0 88 -3q33 -3 57 -3q80 0 127 39.5t47 122.5q0 37 -5.5 69.5t-17.5 71.5h93q12 -36 17.5 -69.5t5.5 -76.5q0 -96 -47 -155t-127 -78q75 -66 112 -184zM612.5 121.5
q58.5 41.5 90 142t31.5 273.5q0 176 -32 278t-90 143.5t-144 41.5t-144.5 -41.5t-90.5 -142t-32 -272.5q0 -176 32 -278t90.5 -144t144.5 -42t144.5 41.5z" />
    <glyph glyph-name="Uhorn" unicode="&#x1af;" horiz-adv-x="1221" 
d="M346 38.5q-103 56.5 -152 172.5t-49 298v971h117v-986q0 -210 82.5 -308.5t266.5 -98.5t266.5 98.5t82.5 308.5v986h48q79 0 126 37.5t47 116.5q0 38 -5.5 70.5t-17.5 71.5h96q13 -37 18.5 -70.5t5.5 -76.5q0 -101 -56 -158t-148 -66v-896q0 -182 -48.5 -298
t-150.5 -172.5t-264 -56.5t-265 56.5z" />
    <glyph glyph-name="uhorn" unicode="&#x1b0;" horiz-adv-x="969" 
d="M956.5 1076.5q-54.5 -60.5 -144.5 -73.5v-1003h-100l-9 119h-9q-56 -68 -129.5 -102.5t-154.5 -34.5q-285 0 -285 338v763h116v-761q0 -125 50.5 -179t142.5 -54q70 0 143.5 38.5t118.5 119.5v836h48q79 0 126 40t47 122q0 37 -5.5 69.5t-17.5 71.5h93q12 -36 18 -69.5
t6 -76.5q0 -103 -54.5 -163.5z" />
    <glyph glyph-name="uni01C4" unicode="&#x1c4;" horiz-adv-x="2117" 
d="M153 4v1461q164 30 302 30q321 0 478.5 -184.5t157.5 -570.5q0 -264 -75 -430t-222.5 -244t-370.5 -78q-116 0 -270 16zM737 158.5q116 64.5 174 206.5t58 375q0 231 -55 374t-167 209.5t-288 66.5q-85 0 -190 -15v-1272q71 -9 172 -9q180 0 296 64.5zM1346 107h719v-107
h-870v67l709 1306h-699v107h850v-67zM1785 1890h98l-195 -279h-114l-195 279h98l154 -223z" />
    <glyph glyph-name="uni01C5" unicode="&#x1c5;" horiz-adv-x="1945" 
d="M153 4v1461q164 30 302 30q321 0 478.5 -184.5t157.5 -570.5q0 -264 -75 -430t-222.5 -244t-370.5 -78q-116 0 -270 16zM737 158.5q116 64.5 174 206.5t58 375q0 231 -55 374t-167 209.5t-288 66.5q-85 0 -190 -15v-1272q71 -9 172 -9q180 0 296 64.5zM1373 100h526v-100
h-664v70l516 913h-506v100h644v-70zM1722 1570h98l-195 -279h-114l-195 279h98l154 -223z" />
    <glyph glyph-name="uni01C6" unicode="&#x1c6;" horiz-adv-x="1705" 
d="M181.5 107q-100.5 126 -100.5 413q0 296 120.5 437.5t357.5 141.5q67 0 134 -8v525h116v-1616h-101l-9 108h-9q-38 -56 -102 -91.5t-144 -35.5q-162 0 -262.5 126zM596 122q62 36 97 103v761q-27 6 -66.5 9.5t-73.5 3.5q-176 0 -264 -109.5t-88 -358.5q0 -173 34 -271
t92 -136t139 -38q68 0 130 36zM1133 100h526v-100h-664v70l516 913h-506v100h644v-70zM1470 1616h93l-178 -359h-114l-178 359h93l142 -297z" />
    <glyph glyph-name="uni01C7" unicode="&#x1c7;" horiz-adv-x="1334" 
d="M153 0v1480h116v-1372h639v-108h-755zM899 -287q91 141 128.5 269t37.5 307v1191h116v-1214q-5 -178 -50 -316t-151 -292z" />
    <glyph glyph-name="uni01C8" unicode="&#x1c8;" horiz-adv-x="1296" 
d="M153 0v1480h116v-1372h639v-108h-755zM881 -408q90 141 127.5 269t37.5 307v915h116v-904q0 -134 -20.5 -239.5t-63.5 -200t-116 -201.5zM1039.5 1359.5q-23.5 22.5 -23.5 61.5t23.5 62.5t64.5 23.5t64.5 -23.5t23.5 -62.5t-23.5 -61.5t-64.5 -22.5t-64.5 22.5z" />
    <glyph glyph-name="uni01C9" unicode="&#x1c9;" horiz-adv-x="768" 
d="M134 0v1616h116v-1616h-116zM353 -408q90 141 127.5 269t37.5 307v915h116v-904q0 -134 -20.5 -239.5t-63.5 -200t-116 -201.5zM511.5 1359.5q-23.5 22.5 -23.5 61.5t23.5 62.5t64.5 23.5t64.5 -23.5t23.5 -62.5t-23.5 -61.5t-64.5 -22.5t-64.5 22.5z" />
    <glyph glyph-name="uni01CA" unicode="&#x1ca;" horiz-adv-x="1690" 
d="M1004 1480h111v-1480h-123l-728 1283v-1283h-111v1480h123l728 -1283v1283zM1255 -287q91 141 128.5 269t37.5 307v1191h116v-1214q-5 -178 -50 -316t-151 -292z" />
    <glyph glyph-name="uni01CB" unicode="&#x1cb;" horiz-adv-x="1652" 
d="M1004 1480h111v-1480h-123l-728 1283v-1283h-111v1480h123l728 -1283v1283zM1237 -408q90 141 127.5 269t37.5 307v915h116v-904q0 -134 -20.5 -239.5t-63.5 -200t-116 -201.5zM1395.5 1359.5q-23.5 22.5 -23.5 61.5t23.5 62.5t64.5 23.5t64.5 -23.5t23.5 -62.5
t-23.5 -61.5t-64.5 -22.5t-64.5 22.5z" />
    <glyph glyph-name="uni01CC" unicode="&#x1cc;" horiz-adv-x="1339" 
d="M134 1083h99l10 -122h9q54 66 129 102t162 36q287 0 287 -333v-766h-116v760q0 125 -51 178.5t-145 53.5q-73 0 -148 -38.5t-120 -120.5v-833h-116v1083zM924 -408q90 141 127.5 269t37.5 307v915h116v-904q0 -134 -20.5 -239.5t-63.5 -200t-116 -201.5zM1082.5 1359.5
q-23.5 22.5 -23.5 61.5t23.5 62.5t64.5 23.5t64.5 -23.5t23.5 -62.5t-23.5 -61.5t-64.5 -22.5t-64.5 22.5z" />
    <glyph glyph-name="Gcaron" unicode="&#x1e6;" horiz-adv-x="1132" 
d="M1011 720v-707q-140 -25 -261 -25q-222 0 -366.5 74t-218.5 239t-74 437q0 274 73 442.5t209 243t336 74.5q150 0 281 -39v-107q-132 40 -279 40q-165 0 -274 -60.5t-166 -204.5t-57 -390q0 -241 58 -382t173.5 -201t297.5 -60q81 0 156 12v614h112zM792 1890h98
l-195 -279h-114l-195 279h98l154 -223z" />
    <glyph glyph-name="gcaron" unicode="&#x1e7;" horiz-adv-x="943" 
d="M266.5 -449q-69.5 11 -122.5 31v104q126 -44 250 -44q102 0 167.5 31.5t98.5 104t33 193.5v132h-8q-38 -52 -102.5 -86t-146.5 -34q-157 0 -256 125.5t-99 411.5q0 579 474 579q62 0 133 -11.5t121 -28.5v-1074q0 -236 -101.5 -340.5t-308.5 -104.5q-63 0 -132.5 11z
M596.5 122.5q62.5 35.5 96.5 99.5v760q-79 17 -144 17q-173 0 -260.5 -109.5t-87.5 -357.5q0 -173 34 -271.5t91.5 -136t139.5 -37.5q68 0 130.5 35.5zM632 1616h93l-178 -359h-114l-178 359h93l142 -297z" />
    <glyph glyph-name="uni01EA" unicode="&#x1ea;" horiz-adv-x="1199" 
d="M620 -96.5q-53 -60.5 -53 -129.5q0 -116 138 -116q64 0 145 38v-68q-74 -37 -151 -37q-103 0 -158.5 45.5t-55.5 130.5q0 128 126 215h-11q-243 0 -376 179.5t-133 578.5t132.5 578.5t376.5 179.5t376 -179.5t132 -578.5q0 -316 -83 -489.5t-239 -238.5
q-113 -48 -166 -108.5zM259.5 354q46.5 -145 131.5 -206t209 -61q123 0 208 60.5t131.5 203.5t46.5 384q0 246 -46.5 391t-131.5 206t-208 61q-124 0 -209 -60.5t-131.5 -203.5t-46.5 -384q0 -246 46.5 -391z" />
    <glyph glyph-name="uni01EB" unicode="&#x1eb;" horiz-adv-x="936" 
d="M455.5 -97.5q-47.5 -60.5 -47.5 -126.5q0 -58 31.5 -88t86.5 -30q58 0 116 31l16 -61q-61 -37 -138 -37q-89 0 -140.5 46t-51.5 130q0 63 29 118t86 97q-362 20 -362 558q0 293 100 426t287 133q387 0 387 -558q0 -234 -62.5 -363t-185.5 -176q-104 -39 -151.5 -99.5z
M233 266q32 -102 90.5 -144t144.5 -42t144.5 41.5t90 142t31.5 273.5q0 176 -32 278t-90 143.5t-144 41.5t-144.5 -41.5t-90.5 -142t-32 -272.5q0 -176 32 -278z" />
    <glyph glyph-name="uni01F1" unicode="&#x1f1;" horiz-adv-x="2117" 
d="M153 4v1461q164 30 302 30q321 0 478.5 -184.5t157.5 -570.5q0 -264 -75 -430t-222.5 -244t-370.5 -78q-116 0 -270 16zM737 158.5q116 64.5 174 206.5t58 375q0 231 -55 374t-167 209.5t-288 66.5q-85 0 -190 -15v-1272q71 -9 172 -9q180 0 296 64.5zM1346 107h719v-107
h-870v67l709 1306h-699v107h850v-67z" />
    <glyph glyph-name="uni01F2" unicode="&#x1f2;" horiz-adv-x="1945" 
d="M153 4v1461q164 30 302 30q321 0 478.5 -184.5t157.5 -570.5q0 -264 -75 -430t-222.5 -244t-370.5 -78q-116 0 -270 16zM737 158.5q116 64.5 174 206.5t58 375q0 231 -55 374t-167 209.5t-288 66.5q-85 0 -190 -15v-1272q71 -9 172 -9q180 0 296 64.5zM1373 100h526v-100
h-664v70l516 913h-506v100h644v-70z" />
    <glyph glyph-name="uni01F3" unicode="&#x1f3;" horiz-adv-x="1705" 
d="M181.5 107q-100.5 126 -100.5 413q0 296 120.5 437.5t357.5 141.5q67 0 134 -8v525h116v-1616h-101l-9 108h-9q-38 -56 -102 -91.5t-144 -35.5q-162 0 -262.5 126zM596 122q62 36 97 103v761q-27 6 -66.5 9.5t-73.5 3.5q-176 0 -264 -109.5t-88 -358.5q0 -173 34 -271
t92 -136t139 -38q68 0 130 36zM1133 100h526v-100h-664v70l516 913h-506v100h644v-70z" />
    <glyph glyph-name="uni01F4" unicode="&#x1f4;" horiz-adv-x="1132" 
d="M1011 720v-707q-140 -25 -261 -25q-222 0 -366.5 74t-218.5 239t-74 437q0 274 73 442.5t209 243t336 74.5q150 0 281 -39v-107q-132 40 -279 40q-165 0 -274 -60.5t-166 -204.5t-57 -390q0 -241 58 -382t173.5 -201t297.5 -60q81 0 156 12v614h112zM588 1611l134 279
h121l-155 -279h-100z" />
    <glyph glyph-name="uni01F5" unicode="&#x1f5;" horiz-adv-x="943" 
d="M266.5 -449q-69.5 11 -122.5 31v104q126 -44 250 -44q102 0 167.5 31.5t98.5 104t33 193.5v132h-8q-38 -52 -102.5 -86t-146.5 -34q-157 0 -256 125.5t-99 411.5q0 579 474 579q62 0 133 -11.5t121 -28.5v-1074q0 -236 -101.5 -340.5t-308.5 -104.5q-63 0 -132.5 11z
M596.5 122.5q62.5 35.5 96.5 99.5v760q-79 17 -144 17q-173 0 -260.5 -109.5t-87.5 -357.5q0 -173 34 -271.5t91.5 -136t139.5 -37.5q68 0 130.5 35.5zM441 1257l157 359h120l-179 -359h-98z" />
    <glyph glyph-name="Aringacute" unicode="&#x1fa;" horiz-adv-x="1156" 
d="M1014 0l-159 500h-558l-158 -500h-118l476 1480h162l476 -1480h-121zM331 606h491l-246 773zM733 1912q37 -51 37 -117q0 -54 -25 -97t-68.5 -67.5t-97.5 -24.5t-97.5 24.5t-68 67.5t-24.5 97t24.5 97.5t68 68t97.5 24.5q53 0 94 -23l129 133h113zM667.5 1704.5
q33.5 33.5 33.5 90.5t-33.5 91t-88.5 34q-54 0 -88 -34t-34 -91t34 -90.5t88 -33.5q55 0 88.5 33.5z" />
    <glyph glyph-name="aringacute" unicode="&#x1fb;" horiz-adv-x="876" 
d="M595 1064.5q77 -34.5 116.5 -113.5t39.5 -213v-738h-98l-10 120h-9q-47 -68 -116.5 -102.5t-154.5 -34.5q-86 0 -151.5 34t-101.5 99t-36 156q0 143 84.5 222t259.5 96l218 25v127q0 98 -27.5 154t-81.5 78.5t-141 22.5q-56 0 -122.5 -11t-130.5 -33v103q55 20 128 31.5
t138 11.5q119 0 196 -34.5zM523 117q65 35 113 114v293l-212 -22q-118 -12 -174.5 -65.5t-56.5 -151.5q0 -102 50.5 -152.5t145.5 -50.5q69 0 134 35zM576 1571q22 -25 34.5 -58.5t12.5 -70.5q0 -54 -25 -97t-68.5 -67.5t-97.5 -24.5t-97.5 24.5t-68 67.5t-24.5 97
t24.5 97.5t68 68t97.5 24.5q43 0 81 -16l131 164h109zM520.5 1351.5q33.5 33.5 33.5 90.5q0 58 -33.5 91.5t-88.5 33.5q-54 0 -88 -33.5t-34 -91.5q0 -57 34 -90.5t88 -33.5q55 0 88.5 33.5z" />
    <glyph glyph-name="AEacute" unicode="&#x1fc;" horiz-adv-x="1591" 
d="M938 106h615v-106h-724l-24 500h-502l-163 -500h-119l486 1480h1036v-106h-666l27 -561h547v-106h-542zM338 606h462l-37 768h-174zM765 1611l134 279h121l-155 -279h-100z" />
    <glyph glyph-name="aeacute" unicode="&#x1fd;" horiz-adv-x="1412" 
d="M1343 499h-592q3 -155 38.5 -246t104 -130t176.5 -39q92 0 225 40v-103q-124 -40 -235 -40q-133 0 -222.5 47t-137.5 150q-63 -106 -146 -150.5t-184 -44.5q-88 0 -155 33.5t-104 98t-37 155.5q0 149 89.5 234t282.5 85h192v157q0 96 -28.5 151t-83.5 77.5t-141 22.5
q-55 0 -121.5 -11t-130.5 -33v103q58 20 129 31.5t135 11.5q128 0 206 -44t110 -141q82 187 283 187q167 0 257 -131t90 -429v-42zM818 914q-63 -94 -67 -325h477q-3 162 -32 254t-79.5 128.5t-123.5 36.5q-112 0 -175 -94zM547 127.5q71 45.5 118 149.5q-23 95 -27 224
h-187q-135 0 -196.5 -58.5t-61.5 -161.5q0 -99 52 -149t147 -50q84 0 155 45.5zM645 1257l157 359h120l-179 -359h-98z" />
    <glyph glyph-name="Oslashacute" unicode="&#x1fe;" horiz-adv-x="1199" 
d="M1108 740q0 -399 -132 -578.5t-376 -179.5q-213 0 -336 129l-82 -134l-72 44l99 162q-118 188 -118 557q0 399 132.5 578.5t376.5 179.5q214 0 335 -130l83 135l72 -44l-100 -163q118 -186 118 -556zM280 298l593 968q-49 67 -117 97t-156 30q-124 0 -209 -60.5
t-131.5 -203.5t-46.5 -384q0 -288 67 -447zM808 147.5q85 60.5 131.5 203.5t46.5 384q0 286 -66 446l-593 -967q49 -67 117 -97t156 -30q123 0 208 60.5zM552 1611l134 279h121l-155 -279h-100z" />
    <glyph glyph-name="oslashacute" unicode="&#x1ff;" horiz-adv-x="936" 
d="M855 541q0 -293 -100 -426.5t-287 -133.5q-156 0 -250 91l-60 -95l-71 44l77 122q-83 139 -83 397q0 293 100 426t287 133q155 0 247 -89l61 96l71 -44l-77 -121q85 -139 85 -400zM321.5 960.5q-59.5 -41.5 -91.5 -142.5t-32 -274q0 -189 38 -295l423 666
q-34 46 -81.5 66.5t-109.5 20.5q-87 0 -146.5 -41.5zM614.5 121q59.5 42 91.5 142.5t32 273.5q0 189 -39 298l-423 -666q33 -48 81 -69t111 -21q87 0 146.5 42zM419 1257l157 359h120l-179 -359h-98z" />
    <glyph glyph-name="uni0200" unicode="&#x200;" horiz-adv-x="1156" 
d="M1014 0l-159 500h-558l-158 -500h-118l476 1480h162l476 -1480h-121zM331 606h491l-246 773zM393 1611l-102 279h102l91 -279h-91zM674 1611l-102 279h102l91 -279h-91z" />
    <glyph glyph-name="uni0201" unicode="&#x201;" horiz-adv-x="876" 
d="M595 1064.5q77 -34.5 116.5 -113.5t39.5 -213v-738h-98l-10 120h-9q-47 -68 -116.5 -102.5t-154.5 -34.5q-86 0 -151.5 34t-101.5 99t-36 156q0 143 84.5 222t259.5 96l218 25v127q0 98 -27.5 154t-81.5 78.5t-141 22.5q-56 0 -122.5 -11t-130.5 -33v103q55 20 128 31.5
t138 11.5q119 0 196 -34.5zM523 117q65 35 113 114v293l-212 -22q-118 -12 -174.5 -65.5t-56.5 -151.5q0 -102 50.5 -152.5t145.5 -50.5q69 0 134 35zM246 1257l-105 359h104l92 -359h-91zM527 1257l-105 359h103l93 -359h-91z" />
    <glyph glyph-name="uni0202" unicode="&#x202;" horiz-adv-x="1156" 
d="M1014 0l-159 500h-558l-158 -500h-118l476 1480h162l476 -1480h-121zM331 606h491l-246 773zM393 1818q66 62 184 62q119 0 186.5 -62t76.5 -183h-83q-10 90 -52 129t-128 39q-85 0 -127 -39.5t-49 -128.5h-83q9 121 75 183z" />
    <glyph glyph-name="uni0203" unicode="&#x203;" horiz-adv-x="876" 
d="M595 1064.5q77 -34.5 116.5 -113.5t39.5 -213v-738h-98l-10 120h-9q-47 -68 -116.5 -102.5t-154.5 -34.5q-86 0 -151.5 34t-101.5 99t-36 156q0 143 84.5 222t259.5 96l218 25v127q0 98 -27.5 154t-81.5 78.5t-141 22.5q-56 0 -122.5 -11t-130.5 -33v103q55 20 128 31.5
t138 11.5q119 0 196 -34.5zM523 117q65 35 113 114v293l-212 -22q-118 -12 -174.5 -65.5t-56.5 -151.5q0 -102 50.5 -152.5t145.5 -50.5q69 0 134 35zM257.5 1526.5q62.5 78.5 172.5 78.5q109 0 174 -79t70 -241h-82q-7 128 -47.5 185t-114.5 57t-113.5 -57t-43.5 -185h-83
q5 163 67.5 241.5z" />
    <glyph glyph-name="uni0204" unicode="&#x204;" horiz-adv-x="973" 
d="M269 106h667v-106h-783v1480h773v-106h-657v-561h565v-106h-565v-601zM376 1611l-102 279h102l91 -279h-91zM657 1611l-102 279h102l91 -279h-91z" />
    <glyph glyph-name="uni0205" unicode="&#x205;" horiz-adv-x="871" 
d="M802 499h-601q3 -156 39 -246.5t105.5 -129.5t179.5 -39q95 0 228 40v-103q-124 -40 -239 -40q-147 0 -242 55.5t-143 178.5t-48 327q0 290 98 423.5t272 133.5q170 0 260.5 -131.5t90.5 -426.5v-42zM270 912.5q-65 -93.5 -69 -323.5h485q-2 158 -31 250t-80 129.5
t-124 37.5q-116 0 -181 -93.5zM260 1257l-105 359h104l92 -359h-91zM541 1257l-105 359h103l93 -359h-91z" />
    <glyph glyph-name="uni0206" unicode="&#x206;" horiz-adv-x="973" 
d="M269 106h667v-106h-783v1480h773v-106h-657v-561h565v-106h-565v-601zM376 1818q66 62 184 62q119 0 186.5 -62t76.5 -183h-83q-10 90 -52 129t-128 39q-85 0 -127 -39.5t-49 -128.5h-83q9 121 75 183z" />
    <glyph glyph-name="uni0207" unicode="&#x207;" horiz-adv-x="871" 
d="M802 499h-601q3 -156 39 -246.5t105.5 -129.5t179.5 -39q95 0 228 40v-103q-124 -40 -239 -40q-147 0 -242 55.5t-143 178.5t-48 327q0 290 98 423.5t272 133.5q170 0 260.5 -131.5t90.5 -426.5v-42zM270 912.5q-65 -93.5 -69 -323.5h485q-2 158 -31 250t-80 129.5
t-124 37.5q-116 0 -181 -93.5zM271.5 1526.5q62.5 78.5 172.5 78.5q109 0 174 -79t70 -241h-82q-7 128 -47.5 185t-114.5 57t-113.5 -57t-43.5 -185h-83q5 163 67.5 241.5z" />
    <glyph glyph-name="uni0208" unicode="&#x208;" horiz-adv-x="422" 
d="M153 0v1480h116v-1480h-116zM25 1611l-102 279h102l91 -279h-91zM306 1611l-102 279h102l91 -279h-91z" />
    <glyph glyph-name="uni0209" unicode="&#x209;" horiz-adv-x="384" 
d="M134 0v1083h116v-1083h-116zM6 1257l-105 359h104l92 -359h-91zM287 1257l-105 359h103l93 -359h-91z" />
    <glyph glyph-name="uni020A" unicode="&#x20a;" horiz-adv-x="422" 
d="M153 0v1480h116v-1480h-116zM25 1818q66 62 184 62q119 0 186.5 -62t76.5 -183h-83q-10 90 -52 129t-128 39q-85 0 -127 -39.5t-49 -128.5h-83q9 121 75 183z" />
    <glyph glyph-name="uni020B" unicode="&#x20b;" horiz-adv-x="384" 
d="M134 0v1083h116v-1083h-116zM17.5 1526.5q62.5 78.5 172.5 78.5q109 0 174 -79t70 -241h-82q-7 128 -47.5 185t-114.5 57t-113.5 -57t-43.5 -185h-83q5 163 67.5 241.5z" />
    <glyph glyph-name="uni020C" unicode="&#x20c;" horiz-adv-x="1199" 
d="M223.5 161.5q-132.5 179.5 -132.5 578.5t132.5 578.5t376.5 179.5t376 -179.5t132 -578.5t-132 -578.5t-376 -179.5t-376.5 179.5zM808 147.5q85 60.5 131.5 203.5t46.5 384q0 246 -46.5 391t-131.5 206t-208 61q-124 0 -209 -60.5t-131.5 -203.5t-46.5 -384
q0 -246 46.5 -391t131.5 -206t209 -61q123 0 208 60.5zM414 1611l-102 279h102l91 -279h-91zM695 1611l-102 279h102l91 -279h-91z" />
    <glyph glyph-name="uni020D" unicode="&#x20d;" horiz-adv-x="936" 
d="M81 540q0 293 100 426t287 133q387 0 387 -558q0 -293 -100 -426.5t-287 -133.5q-387 0 -387 559zM612.5 121.5q58.5 41.5 90 142t31.5 273.5q0 176 -32 278t-90 143.5t-144 41.5t-144.5 -41.5t-90.5 -142t-32 -272.5q0 -176 32 -278t90.5 -144t144.5 -42t144.5 41.5z
M282 1257l-105 359h104l92 -359h-91zM563 1257l-105 359h103l93 -359h-91z" />
    <glyph glyph-name="uni020E" unicode="&#x20e;" horiz-adv-x="1199" 
d="M223.5 161.5q-132.5 179.5 -132.5 578.5t132.5 578.5t376.5 179.5t376 -179.5t132 -578.5t-132 -578.5t-376 -179.5t-376.5 179.5zM808 147.5q85 60.5 131.5 203.5t46.5 384q0 246 -46.5 391t-131.5 206t-208 61q-124 0 -209 -60.5t-131.5 -203.5t-46.5 -384
q0 -246 46.5 -391t131.5 -206t209 -61q123 0 208 60.5zM414 1818q66 62 184 62q119 0 186.5 -62t76.5 -183h-83q-10 90 -52 129t-128 39q-85 0 -127 -39.5t-49 -128.5h-83q9 121 75 183z" />
    <glyph glyph-name="uni020F" unicode="&#x20f;" horiz-adv-x="936" 
d="M81 540q0 293 100 426t287 133q387 0 387 -558q0 -293 -100 -426.5t-287 -133.5q-387 0 -387 559zM612.5 121.5q58.5 41.5 90 142t31.5 273.5q0 176 -32 278t-90 143.5t-144 41.5t-144.5 -41.5t-90.5 -142t-32 -272.5q0 -176 32 -278t90.5 -144t144.5 -42t144.5 41.5z
M293.5 1526.5q62.5 78.5 172.5 78.5q109 0 174 -79t70 -241h-82q-7 128 -47.5 185t-114.5 57t-113.5 -57t-43.5 -185h-83q5 163 67.5 241.5z" />
    <glyph glyph-name="uni0210" unicode="&#x210;" horiz-adv-x="1145" 
d="M979 0l-443 633q-43 -4 -103 -4q-95 0 -164 6v-635h-116v1465q169 30 325 30q258 0 385.5 -107t127.5 -320q2 -169 -84 -274t-256 -143l458 -651h-130zM770 811.5q108 81.5 108 254.5q0 168 -94 247.5t-302 79.5q-115 0 -213 -17v-640q94 -6 159 -6q234 0 342 81.5z
M354 1611l-102 279h102l91 -279h-91zM635 1611l-102 279h102l91 -279h-91z" />
    <glyph glyph-name="uni0211" unicode="&#x211;" horiz-adv-x="598" 
d="M134 1083h99l9 -147h10q48 78 121 117.5t157 39.5q23 0 58 -5v-112q-22 3 -64 3q-83 0 -158 -45.5t-116 -126.5v-807h-116v1083zM153 1257l-105 359h104l92 -359h-91zM434 1257l-105 359h103l93 -359h-91z" />
    <glyph glyph-name="uni0212" unicode="&#x212;" horiz-adv-x="1145" 
d="M979 0l-443 633q-43 -4 -103 -4q-95 0 -164 6v-635h-116v1465q169 30 325 30q258 0 385.5 -107t127.5 -320q2 -169 -84 -274t-256 -143l458 -651h-130zM770 811.5q108 81.5 108 254.5q0 168 -94 247.5t-302 79.5q-115 0 -213 -17v-640q94 -6 159 -6q234 0 342 81.5z
M354 1818q66 62 184 62q119 0 186.5 -62t76.5 -183h-83q-10 90 -52 129t-128 39q-85 0 -127 -39.5t-49 -128.5h-83q9 121 75 183z" />
    <glyph glyph-name="uni0213" unicode="&#x213;" horiz-adv-x="598" 
d="M134 1083h99l9 -147h10q48 78 121 117.5t157 39.5q23 0 58 -5v-112q-22 3 -64 3q-83 0 -158 -45.5t-116 -126.5v-807h-116v1083zM164.5 1526.5q62.5 78.5 172.5 78.5q109 0 174 -79t70 -241h-82q-7 128 -47.5 185t-114.5 57t-113.5 -57t-43.5 -185h-83q5 163 67.5 241.5z
" />
    <glyph glyph-name="uni0214" unicode="&#x214;" horiz-adv-x="1219" 
d="M346 38.5q-103 56.5 -152 172.5t-49 298v971h117v-986q0 -210 82.5 -308.5t266.5 -98.5t266.5 98.5t82.5 308.5v986h114v-971q0 -182 -48.5 -298t-150.5 -172.5t-264 -56.5t-265 56.5zM425 1611l-102 279h102l91 -279h-91zM706 1611l-102 279h102l91 -279h-91z" />
    <glyph glyph-name="uni0215" unicode="&#x215;" horiz-adv-x="946" 
d="M125 320v763h116v-761q0 -125 50.5 -179t142.5 -54q70 0 143.5 38.5t118.5 119.5v836h116v-1083h-100l-9 119h-9q-56 -68 -129.5 -102.5t-154.5 -34.5q-285 0 -285 338zM283 1257l-105 359h104l92 -359h-91zM564 1257l-105 359h103l93 -359h-91z" />
    <glyph glyph-name="uni0216" unicode="&#x216;" horiz-adv-x="1219" 
d="M346 38.5q-103 56.5 -152 172.5t-49 298v971h117v-986q0 -210 82.5 -308.5t266.5 -98.5t266.5 98.5t82.5 308.5v986h114v-971q0 -182 -48.5 -298t-150.5 -172.5t-264 -56.5t-265 56.5zM425 1818q66 62 184 62q119 0 186.5 -62t76.5 -183h-83q-10 90 -52 129t-128 39
q-85 0 -127 -39.5t-49 -128.5h-83q9 121 75 183z" />
    <glyph glyph-name="uni0217" unicode="&#x217;" horiz-adv-x="946" 
d="M125 320v763h116v-761q0 -125 50.5 -179t142.5 -54q70 0 143.5 38.5t118.5 119.5v836h116v-1083h-100l-9 119h-9q-56 -68 -129.5 -102.5t-154.5 -34.5q-285 0 -285 338zM294.5 1526.5q62.5 78.5 172.5 78.5q109 0 174 -79t70 -241h-82q-7 128 -47.5 185t-114.5 57
t-113.5 -57t-43.5 -185h-83q5 163 67.5 241.5z" />
    <glyph glyph-name="Scommaaccent" unicode="&#x218;" horiz-adv-x="894" 
d="M228.5 -4.5q-78.5 13.5 -148.5 38.5v106q157 -53 300 -53q164 0 248 73.5t84 218.5q0 83 -27 138.5t-85 95.5t-158 75l-62 21q-158 55 -238.5 150.5t-80.5 246.5q0 122 52 210t154 135t250 47q67 0 137 -9.5t121 -26.5v-107q-120 38 -255 38q-171 0 -255 -72t-84 -208
q0 -79 25.5 -132.5t81.5 -92.5t152 -72l62 -22q165 -56 248 -153.5t83 -252.5q0 -194 -119 -300t-338 -106q-69 0 -147.5 13.5zM515.5 -197q22.5 -25 22.5 -74q0 -41 -13.5 -91.5t-36.5 -95.5h-75q33 78 38 139q-37 1 -59 21.5t-22 53.5q0 32 21.5 52t59.5 20q42 0 64.5 -25
z" />
    <glyph glyph-name="scommaaccent" unicode="&#x219;" horiz-adv-x="743" 
d="M89 21v103q129 -41 238 -41q120 0 183.5 52t63.5 149q0 84 -39 128.5t-122 68.5l-102 28q-130 37 -186.5 107t-56.5 182q0 88 42.5 156t124.5 106.5t196 38.5q108 0 203 -23v-103q-54 13 -100.5 19t-99.5 6q-126 0 -190 -55.5t-64 -141.5q0 -76 38 -120.5t119 -67.5
l102 -28q135 -37 191 -108.5t56 -187.5q0 -96 -42.5 -165.5t-123 -106t-192.5 -36.5q-125 0 -239 40zM439.5 -197q22.5 -25 22.5 -74q0 -41 -13.5 -91.5t-36.5 -95.5h-75q33 78 38 139q-37 1 -59 21.5t-22 53.5q0 32 21.5 52t59.5 20q42 0 64.5 -25z" />
    <glyph glyph-name="uni021A" unicode="&#x21a;" horiz-adv-x="1011" 
d="M447 0v1372h-440v108h997v-108h-440v-1372h-117zM567.5 -197q22.5 -25 22.5 -74q0 -41 -13.5 -91.5t-36.5 -95.5h-75q33 78 38 139q-37 1 -59 21.5t-22 53.5q0 32 21.5 52t59.5 20q42 0 64.5 -25z" />
    <glyph glyph-name="uni021B" unicode="&#x21b;" horiz-adv-x="622" 
d="M613 102v-105q-63 -15 -132 -15q-141 0 -215.5 76t-74.5 242v683h-191v100h191l18 397h98v-397h289v-100h-289v-666q0 -86 21 -136t63 -72t110 -22q47 0 112 15zM463.5 -197q22.5 -25 22.5 -74q0 -41 -13.5 -91.5t-36.5 -95.5h-75q33 78 38 139q-37 1 -59 21.5t-22 53.5
q0 32 21.5 52t59.5 20q42 0 64.5 -25z" />
    <glyph glyph-name="uni022A" unicode="&#x22a;" horiz-adv-x="1199" 
d="M223.5 161.5q-132.5 179.5 -132.5 578.5t132.5 578.5t376.5 179.5t376 -179.5t132 -578.5t-132 -578.5t-376 -179.5t-376.5 179.5zM808 147.5q85 60.5 131.5 203.5t46.5 384q0 246 -46.5 391t-131.5 206t-208 61q-124 0 -209 -60.5t-131.5 -203.5t-46.5 -384
q0 -246 46.5 -391t131.5 -206t209 -61q123 0 208 60.5zM348.5 1693.5q-22.5 21.5 -22.5 58.5t23 59t61 22t61 -22t23 -59t-23 -58.5t-61 -21.5q-39 0 -61.5 21.5zM729.5 1693.5q-22.5 21.5 -22.5 58.5t23 59t61 22t61 -22t23 -59t-23 -58.5t-61 -21.5q-39 0 -61.5 21.5z
M340 1997v86h521v-86h-521z" />
    <glyph glyph-name="uni022B" unicode="&#x22b;" horiz-adv-x="936" 
d="M81 540q0 293 100 426t287 133q387 0 387 -558q0 -293 -100 -426.5t-287 -133.5q-387 0 -387 559zM612.5 121.5q58.5 41.5 90 142t31.5 273.5q0 176 -32 278t-90 143.5t-144 41.5t-144.5 -41.5t-90.5 -142t-32 -272.5q0 -176 32 -278t90.5 -144t144.5 -42t144.5 41.5z
M235.5 1361q-23.5 22 -23.5 60t23.5 61.5t60.5 23.5t60 -23.5t23 -61.5t-23 -60t-60 -22t-60.5 22zM580 1361q-23 22 -23 60t23 61.5t61 23.5q37 0 60 -23.5t23 -61.5t-23 -60t-60 -22q-38 0 -61 22zM202 1744v87h532v-87h-532z" />
    <glyph glyph-name="uni022C" unicode="&#x22c;" horiz-adv-x="1199" 
d="M223.5 161.5q-132.5 179.5 -132.5 578.5t132.5 578.5t376.5 179.5t376 -179.5t132 -578.5t-132 -578.5t-376 -179.5t-376.5 179.5zM808 147.5q85 60.5 131.5 203.5t46.5 384q0 246 -46.5 391t-131.5 206t-208 61q-124 0 -209 -60.5t-131.5 -203.5t-46.5 -384
q0 -246 46.5 -391t131.5 -206t209 -61q123 0 208 60.5zM667 1689q-31 10 -81 32q-40 19 -67 28t-54 9q-44 0 -77.5 -18t-66.5 -55v91q54 65 145 65q37 0 68.5 -10.5t79.5 -31.5q40 -19 67 -28t54 -9q44 0 78 18t66 55v-91q-52 -65 -144 -65q-37 0 -68 10zM340 1997v86h521
v-86h-521z" />
    <glyph glyph-name="uni022D" unicode="&#x22d;" horiz-adv-x="936" 
d="M81 540q0 293 100 426t287 133q387 0 387 -558q0 -293 -100 -426.5t-287 -133.5q-387 0 -387 559zM612.5 121.5q58.5 41.5 90 142t31.5 273.5q0 176 -32 278t-90 143.5t-144 41.5t-144.5 -41.5t-90.5 -142t-32 -272.5q0 -176 32 -278t90.5 -144t144.5 -42t144.5 41.5z
M529.5 1371q-29.5 11 -75.5 33q-37 19 -61.5 28t-48.5 9q-42 0 -76 -18.5t-66 -56.5v94q54 65 142 65q34 0 64 -11t74 -33q37 -18 62 -27.5t49 -9.5q42 0 76 18.5t65 56.5v-94q-25 -31 -61.5 -48t-80.5 -17q-33 0 -62.5 11zM202 1744v87h532v-87h-532z" />
    <glyph glyph-name="uni0230" unicode="&#x230;" horiz-adv-x="1199" 
d="M223.5 161.5q-132.5 179.5 -132.5 578.5t132.5 578.5t376.5 179.5t376 -179.5t132 -578.5t-132 -578.5t-376 -179.5t-376.5 179.5zM808 147.5q85 60.5 131.5 203.5t46.5 384q0 246 -46.5 391t-131.5 206t-208 61q-124 0 -209 -60.5t-131.5 -203.5t-46.5 -384
q0 -246 46.5 -391t131.5 -206t209 -61q123 0 208 60.5zM536 1693q-24 21 -24 59q0 37 24.5 59t63.5 22q40 0 64 -22t24 -59q0 -38 -24 -59t-64 -21t-64 21zM340 1997v86h521v-86h-521z" />
    <glyph glyph-name="uni0231" unicode="&#x231;" horiz-adv-x="936" 
d="M81 540q0 293 100 426t287 133q387 0 387 -558q0 -293 -100 -426.5t-287 -133.5q-387 0 -387 559zM612.5 121.5q58.5 41.5 90 142t31.5 273.5q0 176 -32 278t-90 143.5t-144 41.5t-144.5 -41.5t-90.5 -142t-32 -272.5q0 -176 32 -278t90.5 -144t144.5 -42t144.5 41.5z
M403.5 1359.5q-23.5 22.5 -23.5 61.5t23.5 62.5t64.5 23.5t64.5 -23.5t23.5 -62.5t-23.5 -61.5t-64.5 -22.5t-64.5 22.5zM202 1667v87h532v-87h-532z" />
    <glyph glyph-name="uni0232" unicode="&#x232;" horiz-adv-x="1011" 
d="M1033 1480l-469 -812v-668h-117v667l-477 813h129l408 -700l405 700h121zM246 1709v86h521v-86h-521z" />
    <glyph glyph-name="uni0233" unicode="&#x233;" horiz-adv-x="887" 
d="M757 1083h122l-503 -1523h-117l146 440h-39l-357 1083h124l309 -977zM178 1379v87h532v-87h-532z" />
    <glyph glyph-name="uni0237" unicode="&#x237;" horiz-adv-x="384" 
d="M-31 -408q90 141 127.5 269t37.5 307v915h116v-904q0 -134 -20.5 -239.5t-63.5 -200t-116 -201.5z" />
    <glyph glyph-name="uni0259" unicode="&#x259;" horiz-adv-x="871" 
d="M599 1046.5q95 -55.5 143 -178.5t48 -327q0 -290 -98 -423.5t-272 -133.5q-170 0 -260.5 131.5t-90.5 426.5v42h601q-3 156 -39 246.5t-105.5 129.5t-179.5 39q-95 0 -228 -40v103q124 40 239 40q147 0 242 -55.5zM601 170.5q65 93.5 69 323.5h-485q2 -158 31 -250
t80 -129.5t124 -37.5q116 0 181 93.5z" />
    <glyph glyph-name="uni02BB" unicode="&#x2bb;" horiz-adv-x="860" 
d="M492.5 1463.5q21.5 -20.5 21.5 -53.5t-21.5 -52.5t-58.5 -19.5q-42 0 -65 25t-23 74q0 41 13.5 91.5t37.5 95.5h74q-32 -77 -37 -139q37 -1 58.5 -21.5z" />
    <glyph glyph-name="uni02BC" unicode="&#x2bc;" horiz-adv-x="860" 
d="M575.5 1599q22.5 -25 22.5 -74q0 -41 -13.5 -91.5t-36.5 -95.5h-75q33 78 38 139q-37 1 -59 21t-22 53t21.5 53t59.5 20q42 0 64.5 -25z" />
    <glyph glyph-name="uni02BE" unicode="&#x2be;" horiz-adv-x="860" 
d="M430 1318q55 0 88.5 33.5t33.5 90.5q0 58 -33.5 91.5t-88.5 33.5v65q54 0 97.5 -24.5t68.5 -68t25 -97.5t-25 -97t-68.5 -67.5t-97.5 -24.5v65z" />
    <glyph glyph-name="uni02BF" unicode="&#x2bf;" horiz-adv-x="860" 
d="M332.5 1277.5q-43.5 24.5 -68 67.5t-24.5 97t24.5 97.5t68 68t97.5 24.5v-65q-54 0 -88 -33.5t-34 -91.5q0 -57 34 -90.5t88 -33.5v-65q-54 0 -97.5 24.5z" />
    <glyph glyph-name="circumflex" unicode="&#x2c6;" horiz-adv-x="860" 
d="M665 1257h-93l-142 297l-142 -297h-93l178 359h114z" />
    <glyph glyph-name="caron" unicode="&#x2c7;" horiz-adv-x="860" 
d="M572 1616h93l-178 -359h-114l-178 359h93l142 -297z" />
    <glyph glyph-name="uni02C8" unicode="&#x2c8;" horiz-adv-x="860" 
d="M391 1218v400h78v-400h-78z" />
    <glyph glyph-name="uni02C9" unicode="&#x2c9;" horiz-adv-x="860" 
d="M164 1379v87h532v-87h-532z" />
    <glyph glyph-name="uni02CA" unicode="&#x2ca;" horiz-adv-x="860" 
d="M379 1257l157 359h124l-179 -359h-102z" />
    <glyph glyph-name="uni02CB" unicode="&#x2cb;" horiz-adv-x="860" 
d="M379 1257l-178 359h123l157 -359h-102z" />
    <glyph glyph-name="uni02CC" unicode="&#x2cc;" horiz-adv-x="860" 
d="M391 -440v400h78v-400h-78z" />
    <glyph glyph-name="breve" unicode="&#x2d8;" horiz-adv-x="860" 
d="M258 1349q-65 80 -70 240h83q7 -127 47 -185t114 -58t114 58t44 185h82q-5 -160 -68.5 -240t-171.5 -80q-109 0 -174 80z" />
    <glyph glyph-name="dotaccent" unicode="&#x2d9;" horiz-adv-x="860" 
d="M365.5 1359.5q-23.5 22.5 -23.5 61.5t23.5 62.5t64.5 23.5t64.5 -23.5t23.5 -62.5t-23.5 -61.5t-64.5 -22.5t-64.5 22.5z" />
    <glyph glyph-name="ring" unicode="&#x2da;" horiz-adv-x="860" 
d="M332.5 1277.5q-43.5 24.5 -68 67.5t-24.5 97t24.5 97.5t68 68t97.5 24.5t97.5 -24.5t68.5 -68t25 -97.5t-25 -97t-68.5 -67.5t-97.5 -24.5t-97.5 24.5zM518.5 1351.5q33.5 33.5 33.5 90.5q0 58 -33.5 91.5t-88.5 33.5q-54 0 -88 -33.5t-34 -91.5q0 -57 34 -90.5t88 -33.5
q55 0 88.5 33.5z" />
    <glyph glyph-name="ogonek" unicode="&#x2db;" horiz-adv-x="860" 
d="M221.5 -362.5q-50.5 46.5 -50.5 129.5q0 80 48.5 148.5t157.5 136.5l41 -52q-90 -58 -128.5 -111.5t-38.5 -114.5q0 -56 31 -86t87 -30q68 0 132 42v-71q-29 -18 -65 -28t-73 -10q-91 0 -141.5 46.5z" />
    <glyph glyph-name="tilde" unicode="&#x2dc;" horiz-adv-x="860" 
d="M491.5 1371q-29.5 11 -75.5 33q-37 19 -61.5 28t-48.5 9q-42 0 -76 -18.5t-66 -56.5v94q54 65 142 65q34 0 64 -11t74 -33q37 -18 62 -27.5t49 -9.5q42 0 76 18.5t65 56.5v-94q-25 -31 -61.5 -48t-80.5 -17q-33 0 -62.5 11z" />
    <glyph glyph-name="hungarumlaut" unicode="&#x2dd;" horiz-adv-x="860" 
d="M246 1257l94 359h100l-105 -359h-89zM525 1257l95 359h99l-105 -359h-89z" />
    <glyph glyph-name="gravecomb" unicode="&#x300;" horiz-adv-x="0" 
d="M-479 1257l-178 359h119l157 -359h-98z" />
    <glyph glyph-name="acutecomb" unicode="&#x301;" horiz-adv-x="0" 
d="M-479 1257l157 359h120l-179 -359h-98z" />
    <glyph glyph-name="uni0302" unicode="&#x302;" horiz-adv-x="0" 
d="M-195 1257h-93l-142 297l-142 -297h-93l178 359h114z" />
    <glyph glyph-name="tildecomb" unicode="&#x303;" horiz-adv-x="0" 
d="M-368.5 1371q-29.5 11 -75.5 33q-37 19 -61.5 28t-48.5 9q-42 0 -76 -18.5t-66 -56.5v94q54 65 142 65q34 0 64 -11t74 -33q37 -18 62 -27.5t49 -9.5q42 0 76 18.5t65 56.5v-94q-25 -31 -61.5 -48t-80.5 -17q-33 0 -62.5 11z" />
    <glyph glyph-name="uni0304" unicode="&#x304;" horiz-adv-x="0" 
d="M-696 1379v87h532v-87h-532z" />
    <glyph glyph-name="uni0306" unicode="&#x306;" horiz-adv-x="0" 
d="M-602 1349q-65 80 -70 240h83q7 -127 47 -185t114 -58t114 58t44 185h82q-5 -160 -68.5 -240t-171.5 -80q-109 0 -174 80z" />
    <glyph glyph-name="uni0307" unicode="&#x307;" horiz-adv-x="0" 
d="M-494.5 1359.5q-23.5 22.5 -23.5 61.5t23.5 62.5t64.5 23.5t64.5 -23.5t23.5 -62.5t-23.5 -61.5t-64.5 -22.5t-64.5 22.5z" />
    <glyph glyph-name="uni0308" unicode="&#x308;" horiz-adv-x="0" 
d="M-662.5 1361q-23.5 22 -23.5 60t23.5 61.5t60.5 23.5t60 -23.5t23 -61.5t-23 -60t-60 -22t-60.5 22zM-318 1361q-23 22 -23 60t23 61.5t61 23.5q37 0 60 -23.5t23 -61.5t-23 -60t-60 -22q-38 0 -61 22z" />
    <glyph glyph-name="hookabovecomb" unicode="&#x309;" horiz-adv-x="0" 
d="M-448 1342.5q22 31.5 63 64.5q29 25 42 41t13 39q0 36 -24.5 53.5t-81.5 17.5q-35 0 -73 -6t-68 -18v70q30 11 69 17.5t76 6.5q93 0 138.5 -35t45.5 -100q0 -31 -10 -54t-24.5 -37.5t-39.5 -35.5q-34 -28 -50.5 -50.5t-17.5 -58.5h-81q1 54 23 85.5z" />
    <glyph glyph-name="uni030A" unicode="&#x30a;" horiz-adv-x="0" 
d="M-527.5 1277.5q-43.5 24.5 -68 67.5t-24.5 97t24.5 97.5t68 68t97.5 24.5t97.5 -24.5t68.5 -68t25 -97.5t-25 -97t-68.5 -67.5t-97.5 -24.5t-97.5 24.5zM-341.5 1351.5q33.5 33.5 33.5 90.5q0 58 -33.5 91.5t-88.5 33.5q-54 0 -88 -33.5t-34 -91.5q0 -57 34 -90.5
t88 -33.5q55 0 88.5 33.5z" />
    <glyph glyph-name="uni030B" unicode="&#x30b;" horiz-adv-x="0" 
d="M-614 1257l94 359h100l-105 -359h-89zM-335 1257l95 359h99l-105 -359h-89z" />
    <glyph glyph-name="uni030C" unicode="&#x30c;" horiz-adv-x="0" 
d="M-288 1616h93l-178 -359h-114l-178 359h93l142 -297z" />
    <glyph glyph-name="uni030F" unicode="&#x30f;" horiz-adv-x="0" 
d="M-616 1257l-105 359h104l92 -359h-91zM-335 1257l-105 359h103l93 -359h-91z" />
    <glyph glyph-name="uni0311" unicode="&#x311;" horiz-adv-x="0" 
d="M-604.5 1526.5q62.5 78.5 172.5 78.5q109 0 174 -79t70 -241h-82q-7 128 -47.5 185t-114.5 57t-113.5 -57t-43.5 -185h-83q5 163 67.5 241.5z" />
    <glyph glyph-name="uni0312" unicode="&#x312;" horiz-adv-x="0" 
d="M-367.5 1463.5q21.5 -20.5 21.5 -53.5t-21.5 -52.5t-58.5 -19.5q-43 0 -65.5 25t-22.5 74q0 41 13.5 91.5t37.5 95.5h74q-32 -77 -37 -139q37 -1 58.5 -21.5z" />
    <glyph glyph-name="uni031B" unicode="&#x31b;" horiz-adv-x="0" 
d="M-460 1480h40q79 0 126 39.5t47 122.5q0 37 -5.5 69t-16.5 72h93q12 -35 17.5 -68.5t5.5 -77.5q0 -78 -31.5 -132t-87 -81t-125.5 -27h-63v83z" />
    <glyph glyph-name="dotbelowcomb" unicode="&#x323;" horiz-adv-x="0" 
d="M-490 -316.5q-23 22.5 -23 60.5t23 61t60 23t60.5 -23t23.5 -61t-23.5 -60.5t-60.5 -22.5t-60 22.5z" />
    <glyph glyph-name="uni0324" unicode="&#x324;" horiz-adv-x="0" 
d="M-662.5 -316.5q-23.5 22.5 -23.5 60.5t23.5 61t60.5 23t60 -23t23 -61t-23 -60.5t-60 -22.5t-60.5 22.5zM-318 -316.5q-23 22.5 -23 60.5t23 61t61 23q37 0 60 -23t23 -61t-23 -60.5t-60 -22.5q-38 0 -61 22.5z" />
    <glyph glyph-name="uni0326" unicode="&#x326;" horiz-adv-x="0" 
d="M-368.5 -197q22.5 -25 22.5 -74q0 -41 -13.5 -91.5t-36.5 -95.5h-75q33 78 38 139q-37 1 -59 21.5t-22 53.5q0 32 21.5 52t59.5 20q42 0 64.5 -25z" />
    <glyph glyph-name="uni0327" unicode="&#x327;" horiz-adv-x="0" 
d="M-287 -157.5q35 -38.5 35 -101.5q0 -68 -47.5 -109t-135.5 -41q-39 0 -78.5 8.5t-69.5 24.5v70q69 -36 150 -36q104 0 104 86q0 90 -107 90h-28v186h76v-130q66 -9 101 -47.5z" />
    <glyph glyph-name="uni0328" unicode="&#x328;" horiz-adv-x="0" 
d="M-638.5 -362.5q-50.5 46.5 -50.5 129.5q0 80 48.5 148.5t157.5 136.5l41 -52q-90 -58 -128.5 -111.5t-38.5 -114.5q0 -56 31 -86t87 -30q68 0 132 42v-71q-29 -18 -65 -28t-73 -10q-91 0 -141.5 46.5z" />
    <glyph glyph-name="uni032E" unicode="&#x32e;" horiz-adv-x="0" 
d="M-603.5 -345q-66.5 67 -68.5 188h83q4 -89 45.5 -133t115.5 -44t115 44t43 133h82q-2 -123 -66.5 -189t-173.5 -66t-175.5 67z" />
    <glyph glyph-name="uni0331" unicode="&#x331;" horiz-adv-x="0" 
d="M-670 -298v86h481v-86h-481z" />
    <glyph glyph-name="uni0394" unicode="&#x394;" horiz-adv-x="1156" 
d="M659 1480l476 -1480h-1114l476 1480h162zM577 1379l-406 -1273h811z" />
    <glyph glyph-name="uni03A9" unicode="&#x3a9;" horiz-adv-x="1199" 
d="M1036 392.5q-72 -171.5 -214 -287.5h286v-105h-430v94q163 125 235.5 289t72.5 404q0 326 -100 466t-287 140q-186 0 -286 -140t-100 -466q0 -240 72.5 -404t235.5 -289v-94h-430v105h286q-142 116 -214 287.5t-72 394.5q0 367 133 539t375 172t375.5 -172t133.5 -539
q0 -223 -72 -394.5z" />
    <glyph glyph-name="uni03BC" unicode="&#x3bc;" horiz-adv-x="946" 
d="M812 1083v-1083h-100l-9 119h-9q-53 -68 -122.5 -102.5t-145.5 -34.5q-124 0 -185 78v-500h-116v1523h116v-761q0 -125 50.5 -179t142.5 -54q70 0 143.5 38.5t118.5 119.5v836h116z" />
    <glyph glyph-name="pi" unicode="&#x3c0;" horiz-adv-x="1145" 
d="M1137 102v-105q-65 -15 -133 -15q-141 0 -215 75.5t-75 242.5l-3 683h-404v-985h-116v985h-191v100h1021v-100h-191v-666q0 -86 21 -136t63 -72t110 -22q46 0 113 15z" />
    <glyph glyph-name="uni1E08" unicode="&#x1e08;" horiz-adv-x="956" 
d="M808 1890l-155 -279h-100l134 279h121zM416 1331.5q-99 -60.5 -150.5 -203.5t-51.5 -386q0 -248 52 -392t150 -203t246 -59q67 0 132 12t142 39v-108q-136 -49 -281 -49h-9v-89q75 -6 119 -44.5t44 -105.5q0 -73 -52 -112.5t-142 -39.5q-94 0 -175 36v70q87 -39 171 -39
q119 0 119 88q0 44 -32 66t-89 22h-39v152q-234 24 -356.5 200.5t-122.5 551.5q0 273 67.5 441t195 243.5t316.5 75.5q135 0 266 -38v-107q-69 22 -132.5 30.5t-135.5 8.5q-153 0 -252 -60.5z" />
    <glyph glyph-name="uni1E09" unicode="&#x1e09;" horiz-adv-x="723" 
d="M659 1616l-179 -359h-98l157 359h120zM349 954q-73 -41 -109.5 -139t-36.5 -269q0 -174 33 -274.5t98.5 -143t168.5 -42.5q91 0 201 40v-105q-110 -40 -221 -40h-7v-91q66 -9 101 -47.5t35 -101.5q0 -68 -47.5 -109t-135.5 -41q-39 0 -78.5 8.5t-69.5 24.5v70
q69 -36 150 -36q104 0 104 86q0 90 -107 90h-28v153q-159 24 -239 156t-80 398q0 203 51 326t149 177.5t246 54.5q94 0 177 -21v-105q-85 22 -162 22q-120 0 -193 -41z" />
    <glyph glyph-name="uni1E0C" unicode="&#x1e0c;" horiz-adv-x="1183" 
d="M153 4v1461q164 30 302 30q321 0 478.5 -184.5t157.5 -570.5q0 -264 -75 -430t-222.5 -244t-370.5 -78q-116 0 -270 16zM737 158.5q116 64.5 174 206.5t58 375q0 231 -55 374t-167 209.5t-288 66.5q-85 0 -190 -15v-1272q71 -9 172 -9q180 0 296 64.5zM470 -312
q-24 21 -24 59q0 37 24.5 59t63.5 22q40 0 64 -22t24 -59q0 -38 -24 -59t-64 -21t-64 21z" />
    <glyph glyph-name="uni1E0D" unicode="&#x1e0d;" horiz-adv-x="943" 
d="M181.5 107q-100.5 126 -100.5 413q0 296 120.5 437.5t357.5 141.5q67 0 134 -8v525h116v-1616h-101l-9 108h-9q-38 -56 -102 -91.5t-144 -35.5q-162 0 -262.5 126zM596 122q62 36 97 103v761q-27 6 -66.5 9.5t-73.5 3.5q-176 0 -264 -109.5t-88 -358.5q0 -173 34 -271
t92 -136t139 -38q68 0 130 36zM410 -316.5q-23 22.5 -23 60.5t23 61t60 23t60.5 -23t23.5 -61t-23.5 -60.5t-60.5 -22.5t-60 22.5z" />
    <glyph glyph-name="uni1E0E" unicode="&#x1e0e;" horiz-adv-x="1183" 
d="M153 4v1461q164 30 302 30q321 0 478.5 -184.5t157.5 -570.5q0 -264 -75 -430t-222.5 -244t-370.5 -78q-116 0 -270 16zM737 158.5q116 64.5 174 206.5t58 375q0 231 -55 374t-167 209.5t-288 66.5q-85 0 -190 -15v-1272q71 -9 172 -9q180 0 296 64.5zM274 -294v86h521
v-86h-521z" />
    <glyph glyph-name="uni1E0F" unicode="&#x1e0f;" horiz-adv-x="943" 
d="M181.5 107q-100.5 126 -100.5 413q0 296 120.5 437.5t357.5 141.5q67 0 134 -8v525h116v-1616h-101l-9 108h-9q-38 -56 -102 -91.5t-144 -35.5q-162 0 -262.5 126zM596 122q62 36 97 103v761q-27 6 -66.5 9.5t-73.5 3.5q-176 0 -264 -109.5t-88 -358.5q0 -173 34 -271
t92 -136t139 -38q68 0 130 36zM230 -298v86h481v-86h-481z" />
    <glyph glyph-name="uni1E14" unicode="&#x1e14;" horiz-adv-x="973" 
d="M269 106h667v-106h-783v1480h773v-106h-657v-561h565v-106h-565v-601zM510 1899l-155 232h127l133 -232h-105zM302 1709v86h521v-86h-521z" />
    <glyph glyph-name="uni1E15" unicode="&#x1e15;" horiz-adv-x="871" 
d="M802 499h-601q3 -156 39 -246.5t105.5 -129.5t179.5 -39q95 0 228 40v-103q-124 -40 -239 -40q-147 0 -242 55.5t-143 178.5t-48 327q0 290 98 423.5t272 133.5q170 0 260.5 -131.5t90.5 -426.5v-42zM270 912.5q-65 -93.5 -69 -323.5h485q-2 158 -31 250t-80 129.5
t-124 37.5q-116 0 -181 -93.5zM180 1379v87h532v-87h-532zM396 1656l-155 279h122l133 -279h-100z" />
    <glyph glyph-name="uni1E16" unicode="&#x1e16;" horiz-adv-x="973" 
d="M269 106h667v-106h-783v1480h773v-106h-657v-561h565v-106h-565v-601zM510 1899l133 232h127l-155 -232h-105zM302 1709v86h521v-86h-521z" />
    <glyph glyph-name="uni1E17" unicode="&#x1e17;" horiz-adv-x="871" 
d="M802 499h-601q3 -156 39 -246.5t105.5 -129.5t179.5 -39q95 0 228 40v-103q-124 -40 -239 -40q-147 0 -242 55.5t-143 178.5t-48 327q0 290 98 423.5t272 133.5q170 0 260.5 -131.5t90.5 -426.5v-42zM270 912.5q-65 -93.5 -69 -323.5h485q-2 158 -31 250t-80 129.5
t-124 37.5q-116 0 -181 -93.5zM180 1379v87h532v-87h-532zM396 1656l134 279h121l-155 -279h-100z" />
    <glyph glyph-name="uni1E1C" unicode="&#x1e1c;" horiz-adv-x="973" 
d="M378 1684q-68 62 -77 182h83q10 -89 52 -128t128 -39t127.5 39t48.5 128h83q-9 -121 -75 -182.5t-184 -61.5t-186 62zM596 0v-107q75 -6 119 -44.5t44 -105.5q0 -73 -52 -112.5t-142 -39.5q-94 0 -175 36v70q87 -39 171 -39q119 0 119 88q0 44 -32 66t-89 22h-39v166
h-367v1480h773v-106h-657v-561h565v-106h-565v-601h667v-106h-340z" />
    <glyph glyph-name="uni1E1D" unicode="&#x1e1d;" horiz-adv-x="871" 
d="M274 1349q-65 80 -70 240h83q7 -127 47 -185t114 -58t114 58t44 185h82q-5 -160 -68.5 -240t-171.5 -80q-109 0 -174 80zM802 499h-601q3 -156 39 -246.5t105.5 -129.5t179.5 -39q95 0 228 40v-103q-124 -40 -239 -40h-26v-91q66 -9 101 -47.5t35 -101.5
q0 -68 -47.5 -109t-135.5 -41q-39 0 -78.5 8.5t-69.5 24.5v70q69 -36 150 -36q104 0 104 86q0 90 -107 90h-28v154q-168 27 -249.5 158t-81.5 396q0 290 98 423.5t272 133.5q170 0 260.5 -131.5t90.5 -426.5v-42zM270 912.5q-65 -93.5 -69 -323.5h485q-2 158 -31 250
t-80 129.5t-124 37.5q-116 0 -181 -93.5z" />
    <glyph glyph-name="uni1E20" unicode="&#x1e20;" horiz-adv-x="1132" 
d="M1011 720v-707q-140 -25 -261 -25q-222 0 -366.5 74t-218.5 239t-74 437q0 274 73 442.5t209 243t336 74.5q150 0 281 -39v-107q-132 40 -279 40q-165 0 -274 -60.5t-166 -204.5t-57 -390q0 -241 58 -382t173.5 -201t297.5 -60q81 0 156 12v614h112zM378 1709v86h521v-86
h-521z" />
    <glyph glyph-name="uni1E21" unicode="&#x1e21;" horiz-adv-x="943" 
d="M266.5 -449q-69.5 11 -122.5 31v104q126 -44 250 -44q102 0 167.5 31.5t98.5 104t33 193.5v132h-8q-38 -52 -102.5 -86t-146.5 -34q-157 0 -256 125.5t-99 411.5q0 579 474 579q62 0 133 -11.5t121 -28.5v-1074q0 -236 -101.5 -340.5t-308.5 -104.5q-63 0 -132.5 11z
M596.5 122.5q62.5 35.5 96.5 99.5v760q-79 17 -144 17q-173 0 -260.5 -109.5t-87.5 -357.5q0 -173 34 -271.5t91.5 -136t139.5 -37.5q68 0 130.5 35.5zM224 1379v87h532v-87h-532z" />
    <glyph glyph-name="uni1E24" unicode="&#x1e24;" horiz-adv-x="1242" 
d="M153 0v1480h116v-665h704v665h117v-1480h-117v705h-704v-705h-116zM557 -312q-24 21 -24 59q0 37 24.5 59t63.5 22q40 0 64 -22t24 -59q0 -38 -24 -59t-64 -21t-64 21z" />
    <glyph glyph-name="uni1E25" unicode="&#x1e25;" horiz-adv-x="955" 
d="M134 1616h116v-655h8q55 69 129 103.5t159 34.5q284 0 284 -338v-761h-116v759q0 125 -51 178t-145 53q-74 0 -148.5 -37.5t-119.5 -119.5v-833h-116v1616zM422 -316.5q-23 22.5 -23 60.5t23 61t60 23t60.5 -23t23.5 -61t-23.5 -60.5t-60.5 -22.5t-60 22.5z" />
    <glyph glyph-name="uni1E2A" unicode="&#x1e2a;" horiz-adv-x="1242" 
d="M153 0v1480h116v-665h704v665h117v-1480h-117v705h-704v-705h-116zM433 -342.5q-69 65.5 -73 186.5h83q5 -89 49.5 -131.5t130.5 -42.5t130 42.5t46 131.5h83q-4 -123 -71 -187.5t-188 -64.5t-190 65.5z" />
    <glyph glyph-name="uni1E2B" unicode="&#x1e2b;" horiz-adv-x="955" 
d="M134 1616h116v-655h8q55 69 129 103.5t159 34.5q284 0 284 -338v-761h-116v759q0 125 -51 178t-145 53q-74 0 -148.5 -37.5t-119.5 -119.5v-833h-116v1616zM308.5 -345q-66.5 67 -68.5 188h83q4 -89 45.5 -133t115.5 -44t115 44t43 133h82q-2 -123 -66.5 -189t-173.5 -66
t-175.5 67z" />
    <glyph glyph-name="uni1E2E" unicode="&#x1e2e;" horiz-adv-x="422" 
d="M153 0v1480h116v-1480h-116zM159 1899l133 232h127l-155 -232h-105zM-40.5 1693.5q-22.5 21.5 -22.5 58.5t23 59t61 22t61 -22t23 -59t-23 -58.5t-61 -21.5q-39 0 -61.5 21.5zM340.5 1693.5q-22.5 21.5 -22.5 58.5t23 59t61 22t61 -22t23 -59t-23 -58.5t-61 -21.5
q-39 0 -61.5 21.5z" />
    <glyph glyph-name="uni1E2F" unicode="&#x1e2f;" horiz-adv-x="384" 
d="M134 0v1083h116v-1083h-116zM-40.5 1361q-23.5 22 -23.5 60t23.5 61.5t60.5 23.5t60 -23.5t23 -61.5t-23 -60t-60 -22t-60.5 22zM304 1361q-23 22 -23 60t23 61.5t61 23.5q37 0 60 -23.5t23 -61.5t-23 -60t-60 -22q-38 0 -61 22zM142 1656l134 279h121l-155 -279h-100z
" />
    <glyph glyph-name="uni1E36" unicode="&#x1e36;" horiz-adv-x="912" 
d="M153 0v1480h116v-1372h639v-108h-755zM467 -312q-24 21 -24 59q0 37 24.5 59t63.5 22q40 0 64 -22t24 -59q0 -38 -24 -59t-64 -21t-64 21z" />
    <glyph glyph-name="uni1E37" unicode="&#x1e37;" horiz-adv-x="384" 
d="M134 0v1616h116v-1616h-116zM132 -316.5q-23 22.5 -23 60.5t23 61t60 23t60.5 -23t23.5 -61t-23.5 -60.5t-60.5 -22.5t-60 22.5z" />
    <glyph glyph-name="uni1E3A" unicode="&#x1e3a;" horiz-adv-x="912" 
d="M153 0v1480h116v-1372h639v-108h-755zM271 -294v86h521v-86h-521z" />
    <glyph glyph-name="uni1E3B" unicode="&#x1e3b;" horiz-adv-x="384" 
d="M134 0v1616h116v-1616h-116zM-48 -298v86h481v-86h-481z" />
    <glyph glyph-name="uni1E42" unicode="&#x1e42;" horiz-adv-x="1549" 
d="M1255 1480h138v-1480h-111v1281l-452 -1078h-111l-451 1067v-1270h-111v1480h137l483 -1153zM715 -312q-24 21 -24 59q0 37 24.5 59t63.5 22q40 0 64 -22t24 -59q0 -38 -24 -59t-64 -21t-64 21z" />
    <glyph glyph-name="uni1E43" unicode="&#x1e43;" horiz-adv-x="1477" 
d="M1276 1020q76 -79 76 -260v-760h-116v757q0 235 -188 235q-66 0 -135 -37.5t-114 -122.5q3 -31 3 -68v-764h-115v757q0 127 -48.5 181t-135.5 54q-67 0 -138 -39.5t-115 -124.5v-828h-116v1083h99l10 -124h9q56 70 127.5 105t153.5 35q182 0 242 -156q61 82 139 119
t159 37q127 0 203 -79zM685 -316.5q-23 22.5 -23 60.5t23 61t60 23t60.5 -23t23.5 -61t-23.5 -60.5t-60.5 -22.5t-60 22.5z" />
    <glyph glyph-name="uni1E44" unicode="&#x1e44;" horiz-adv-x="1268" 
d="M1004 1480h111v-1480h-123l-728 1283v-1283h-111v1480h123l728 -1283v1283zM570 1693q-24 21 -24 59q0 37 24.5 59t63.5 22q40 0 64 -22t24 -59q0 -38 -24 -59t-64 -21t-64 21z" />
    <glyph glyph-name="uni1E45" unicode="&#x1e45;" horiz-adv-x="955" 
d="M134 1083h99l10 -122h9q54 66 129 102t162 36q287 0 287 -333v-766h-116v760q0 125 -51 178.5t-145 53.5q-73 0 -148 -38.5t-120 -120.5v-833h-116v1083zM417.5 1359.5q-23.5 22.5 -23.5 61.5t23.5 62.5t64.5 23.5t64.5 -23.5t23.5 -62.5t-23.5 -61.5t-64.5 -22.5
t-64.5 22.5z" />
    <glyph glyph-name="uni1E46" unicode="&#x1e46;" horiz-adv-x="1268" 
d="M1004 1480h111v-1480h-123l-728 1283v-1283h-111v1480h123l728 -1283v1283zM570 -312q-24 21 -24 59q0 37 24.5 59t63.5 22q40 0 64 -22t24 -59q0 -38 -24 -59t-64 -21t-64 21z" />
    <glyph glyph-name="uni1E47" unicode="&#x1e47;" horiz-adv-x="955" 
d="M134 1083h99l10 -122h9q54 66 129 102t162 36q287 0 287 -333v-766h-116v760q0 125 -51 178.5t-145 53.5q-73 0 -148 -38.5t-120 -120.5v-833h-116v1083zM422 -316.5q-23 22.5 -23 60.5t23 61t60 23t60.5 -23t23.5 -61t-23.5 -60.5t-60.5 -22.5t-60 22.5z" />
    <glyph glyph-name="uni1E48" unicode="&#x1e48;" horiz-adv-x="1268" 
d="M1004 1480h111v-1480h-123l-728 1283v-1283h-111v1480h123l728 -1283v1283zM374 -294v86h521v-86h-521z" />
    <glyph glyph-name="uni1E49" unicode="&#x1e49;" horiz-adv-x="955" 
d="M134 1083h99l10 -122h9q54 66 129 102t162 36q287 0 287 -333v-766h-116v760q0 125 -51 178.5t-145 53.5q-73 0 -148 -38.5t-120 -120.5v-833h-116v1083zM242 -298v86h481v-86h-481z" />
    <glyph glyph-name="uni1E4C" unicode="&#x1e4c;" horiz-adv-x="1199" 
d="M223.5 161.5q-132.5 179.5 -132.5 578.5t132.5 578.5t376.5 179.5t376 -179.5t132 -578.5t-132 -578.5t-376 -179.5t-376.5 179.5zM808 147.5q85 60.5 131.5 203.5t46.5 384q0 246 -46.5 391t-131.5 206t-208 61q-124 0 -209 -60.5t-131.5 -203.5t-46.5 -384
q0 -246 46.5 -391t131.5 -206t209 -61q123 0 208 60.5zM548 1899l133 232h127l-155 -232h-105zM667 1689q-31 10 -81 32q-40 19 -67 28t-54 9q-44 0 -77.5 -18t-66.5 -55v91q54 65 145 65q37 0 68.5 -10.5t79.5 -31.5q40 -19 67 -28t54 -9q44 0 78 18t66 55v-91
q-52 -65 -144 -65q-37 0 -68 10z" />
    <glyph glyph-name="uni1E4D" unicode="&#x1e4d;" horiz-adv-x="936" 
d="M81 540q0 293 100 426t287 133q387 0 387 -558q0 -293 -100 -426.5t-287 -133.5q-387 0 -387 559zM612.5 121.5q58.5 41.5 90 142t31.5 273.5q0 176 -32 278t-90 143.5t-144 41.5t-144.5 -41.5t-90.5 -142t-32 -272.5q0 -176 32 -278t90.5 -144t144.5 -42t144.5 41.5z
M529.5 1371q-29.5 11 -75.5 33q-37 19 -61.5 28t-48.5 9q-42 0 -76 -18.5t-66 -56.5v94q54 65 142 65q34 0 64 -11t74 -33q37 -18 62 -27.5t49 -9.5q42 0 76 18.5t65 56.5v-94q-25 -31 -61.5 -48t-80.5 -17q-33 0 -62.5 11zM418 1656l134 279h121l-155 -279h-100z" />
    <glyph glyph-name="uni1E4E" unicode="&#x1e4e;" horiz-adv-x="1199" 
d="M223.5 161.5q-132.5 179.5 -132.5 578.5t132.5 578.5t376.5 179.5t376 -179.5t132 -578.5t-132 -578.5t-376 -179.5t-376.5 179.5zM808 147.5q85 60.5 131.5 203.5t46.5 384q0 246 -46.5 391t-131.5 206t-208 61q-124 0 -209 -60.5t-131.5 -203.5t-46.5 -384
q0 -246 46.5 -391t131.5 -206t209 -61q123 0 208 60.5zM667 1689q-31 10 -81 32q-40 19 -67 28t-54 9q-44 0 -77.5 -18t-66.5 -55v91q54 65 145 65q37 0 68.5 -10.5t79.5 -31.5q40 -19 67 -28t54 -9q44 0 78 18t66 55v-91q-52 -65 -144 -65q-37 0 -68 10zM348.5 1981.5
q-22.5 21.5 -22.5 58.5t23 59t61 22t61 -22t23 -59t-23 -58.5t-61 -21.5q-39 0 -61.5 21.5zM729.5 1981.5q-22.5 21.5 -22.5 58.5t23 59t61 22t61 -22t23 -59t-23 -58.5t-61 -21.5q-39 0 -61.5 21.5z" />
    <glyph glyph-name="uni1E4F" unicode="&#x1e4f;" horiz-adv-x="936" 
d="M81 540q0 293 100 426t287 133q387 0 387 -558q0 -293 -100 -426.5t-287 -133.5q-387 0 -387 559zM612.5 121.5q58.5 41.5 90 142t31.5 273.5q0 176 -32 278t-90 143.5t-144 41.5t-144.5 -41.5t-90.5 -142t-32 -272.5q0 -176 32 -278t90.5 -144t144.5 -42t144.5 41.5z
M529.5 1371q-29.5 11 -75.5 33q-37 19 -61.5 28t-48.5 9q-42 0 -76 -18.5t-66 -56.5v94q54 65 142 65q34 0 64 -11t74 -33q37 -18 62 -27.5t49 -9.5q42 0 76 18.5t65 56.5v-94q-25 -31 -61.5 -48t-80.5 -17q-33 0 -62.5 11zM235.5 1726q-23.5 22 -23.5 60t23.5 61.5
t60.5 23.5t60 -23.5t23 -61.5t-23 -60t-60 -22t-60.5 22zM580 1726q-23 22 -23 60t23 61.5t61 23.5q37 0 60 -23.5t23 -61.5t-23 -60t-60 -22q-38 0 -61 22z" />
    <glyph glyph-name="uni1E50" unicode="&#x1e50;" horiz-adv-x="1199" 
d="M223.5 161.5q-132.5 179.5 -132.5 578.5t132.5 578.5t376.5 179.5t376 -179.5t132 -578.5t-132 -578.5t-376 -179.5t-376.5 179.5zM808 147.5q85 60.5 131.5 203.5t46.5 384q0 246 -46.5 391t-131.5 206t-208 61q-124 0 -209 -60.5t-131.5 -203.5t-46.5 -384
q0 -246 46.5 -391t131.5 -206t209 -61q123 0 208 60.5zM548 1899l-155 232h127l133 -232h-105zM340 1709v86h521v-86h-521z" />
    <glyph glyph-name="uni1E51" unicode="&#x1e51;" horiz-adv-x="936" 
d="M81 540q0 293 100 426t287 133q387 0 387 -558q0 -293 -100 -426.5t-287 -133.5q-387 0 -387 559zM612.5 121.5q58.5 41.5 90 142t31.5 273.5q0 176 -32 278t-90 143.5t-144 41.5t-144.5 -41.5t-90.5 -142t-32 -272.5q0 -176 32 -278t90.5 -144t144.5 -42t144.5 41.5z
M202 1379v87h532v-87h-532zM418 1656l-155 279h122l133 -279h-100z" />
    <glyph glyph-name="uni1E52" unicode="&#x1e52;" horiz-adv-x="1199" 
d="M223.5 161.5q-132.5 179.5 -132.5 578.5t132.5 578.5t376.5 179.5t376 -179.5t132 -578.5t-132 -578.5t-376 -179.5t-376.5 179.5zM808 147.5q85 60.5 131.5 203.5t46.5 384q0 246 -46.5 391t-131.5 206t-208 61q-124 0 -209 -60.5t-131.5 -203.5t-46.5 -384
q0 -246 46.5 -391t131.5 -206t209 -61q123 0 208 60.5zM548 1899l133 232h127l-155 -232h-105zM340 1709v86h521v-86h-521z" />
    <glyph glyph-name="uni1E53" unicode="&#x1e53;" horiz-adv-x="936" 
d="M81 540q0 293 100 426t287 133q387 0 387 -558q0 -293 -100 -426.5t-287 -133.5q-387 0 -387 559zM612.5 121.5q58.5 41.5 90 142t31.5 273.5q0 176 -32 278t-90 143.5t-144 41.5t-144.5 -41.5t-90.5 -142t-32 -272.5q0 -176 32 -278t90.5 -144t144.5 -42t144.5 41.5z
M202 1379v87h532v-87h-532zM418 1656l134 279h121l-155 -279h-100z" />
    <glyph glyph-name="uni1E5A" unicode="&#x1e5a;" horiz-adv-x="1145" 
d="M979 0l-443 633q-43 -4 -103 -4q-95 0 -164 6v-635h-116v1465q169 30 325 30q258 0 385.5 -107t127.5 -320q2 -169 -84 -274t-256 -143l458 -651h-130zM770 811.5q108 81.5 108 254.5q0 168 -94 247.5t-302 79.5q-115 0 -213 -17v-640q94 -6 159 -6q234 0 342 81.5z
M545 -312q-24 21 -24 59q0 37 24.5 59t63.5 22q40 0 64 -22t24 -59q0 -38 -24 -59t-64 -21t-64 21z" />
    <glyph glyph-name="uni1E5B" unicode="&#x1e5b;" horiz-adv-x="598" 
d="M134 1083h99l9 -147h10q48 78 121 117.5t157 39.5q23 0 58 -5v-112q-22 3 -64 3q-83 0 -158 -45.5t-116 -126.5v-807h-116v1083zM132 -316.5q-23 22.5 -23 60.5t23 61t60 23t60.5 -23t23.5 -61t-23.5 -60.5t-60.5 -22.5t-60 22.5z" />
    <glyph glyph-name="uni1E5E" unicode="&#x1e5e;" horiz-adv-x="1145" 
d="M979 0l-443 633q-43 -4 -103 -4q-95 0 -164 6v-635h-116v1465q169 30 325 30q258 0 385.5 -107t127.5 -320q2 -169 -84 -274t-256 -143l458 -651h-130zM770 811.5q108 81.5 108 254.5q0 168 -94 247.5t-302 79.5q-115 0 -213 -17v-640q94 -6 159 -6q234 0 342 81.5z
M349 -294v86h521v-86h-521z" />
    <glyph glyph-name="uni1E5F" unicode="&#x1e5f;" horiz-adv-x="598" 
d="M134 1083h99l9 -147h10q48 78 121 117.5t157 39.5q23 0 58 -5v-112q-22 3 -64 3q-83 0 -158 -45.5t-116 -126.5v-807h-116v1083zM-48 -298v86h481v-86h-481z" />
    <glyph glyph-name="uni1E60" unicode="&#x1e60;" horiz-adv-x="894" 
d="M228.5 -4.5q-78.5 13.5 -148.5 38.5v106q157 -53 300 -53q164 0 248 73.5t84 218.5q0 83 -27 138.5t-85 95.5t-158 75l-62 21q-158 55 -238.5 150.5t-80.5 246.5q0 122 52 210t154 135t250 47q67 0 137 -9.5t121 -26.5v-107q-120 38 -255 38q-171 0 -255 -72t-84 -208
q0 -79 25.5 -132.5t81.5 -92.5t152 -72l62 -22q165 -56 248 -153.5t83 -252.5q0 -194 -119 -300t-338 -106q-69 0 -147.5 13.5zM390 1693q-24 21 -24 59q0 37 24.5 59t63.5 22q40 0 64 -22t24 -59q0 -38 -24 -59t-64 -21t-64 21z" />
    <glyph glyph-name="uni1E61" unicode="&#x1e61;" horiz-adv-x="743" 
d="M89 21v103q129 -41 238 -41q120 0 183.5 52t63.5 149q0 84 -39 128.5t-122 68.5l-102 28q-130 37 -186.5 107t-56.5 182q0 88 42.5 156t124.5 106.5t196 38.5q108 0 203 -23v-103q-54 13 -100.5 19t-99.5 6q-126 0 -190 -55.5t-64 -141.5q0 -76 38 -120.5t119 -67.5
l102 -28q135 -37 191 -108.5t56 -187.5q0 -96 -42.5 -165.5t-123 -106t-192.5 -36.5q-125 0 -239 40zM313.5 1359.5q-23.5 22.5 -23.5 61.5t23.5 62.5t64.5 23.5t64.5 -23.5t23.5 -62.5t-23.5 -61.5t-64.5 -22.5t-64.5 22.5z" />
    <glyph glyph-name="uni1E62" unicode="&#x1e62;" horiz-adv-x="894" 
d="M228.5 -4.5q-78.5 13.5 -148.5 38.5v106q157 -53 300 -53q164 0 248 73.5t84 218.5q0 83 -27 138.5t-85 95.5t-158 75l-62 21q-158 55 -238.5 150.5t-80.5 246.5q0 122 52 210t154 135t250 47q67 0 137 -9.5t121 -26.5v-107q-120 38 -255 38q-171 0 -255 -72t-84 -208
q0 -79 25.5 -132.5t81.5 -92.5t152 -72l62 -22q165 -56 248 -153.5t83 -252.5q0 -194 -119 -300t-338 -106q-69 0 -147.5 13.5zM390 -312q-24 21 -24 59q0 37 24.5 59t63.5 22q40 0 64 -22t24 -59q0 -38 -24 -59t-64 -21t-64 21z" />
    <glyph glyph-name="uni1E63" unicode="&#x1e63;" horiz-adv-x="743" 
d="M89 21v103q129 -41 238 -41q120 0 183.5 52t63.5 149q0 84 -39 128.5t-122 68.5l-102 28q-130 37 -186.5 107t-56.5 182q0 88 42.5 156t124.5 106.5t196 38.5q108 0 203 -23v-103q-54 13 -100.5 19t-99.5 6q-126 0 -190 -55.5t-64 -141.5q0 -76 38 -120.5t119 -67.5
l102 -28q135 -37 191 -108.5t56 -187.5q0 -96 -42.5 -165.5t-123 -106t-192.5 -36.5q-125 0 -239 40zM318 -316.5q-23 22.5 -23 60.5t23 61t60 23t60.5 -23t23.5 -61t-23.5 -60.5t-60.5 -22.5t-60 22.5z" />
    <glyph glyph-name="uni1E64" unicode="&#x1e64;" horiz-adv-x="894" 
d="M228.5 -4.5q-78.5 13.5 -148.5 38.5v106q157 -53 300 -53q164 0 248 73.5t84 218.5q0 83 -27 138.5t-85 95.5t-158 75l-62 21q-158 55 -238.5 150.5t-80.5 246.5q0 122 52 210t154 135t250 47q67 0 137 -9.5t121 -26.5v-107q-120 38 -255 38q-171 0 -255 -72t-84 -208
q0 -79 25.5 -132.5t81.5 -92.5t152 -72l62 -22q165 -56 248 -153.5t83 -252.5q0 -194 -119 -300t-338 -106q-69 0 -147.5 13.5zM316 1869.5q-22 19.5 -22 54.5q0 36 22.5 56.5t58.5 20.5t58.5 -20.5t22.5 -56.5q0 -35 -22 -54.5t-59 -19.5t-59 19.5zM404 1611l134 279h121
l-155 -279h-100z" />
    <glyph glyph-name="uni1E65" unicode="&#x1e65;" horiz-adv-x="743" 
d="M89 21v103q129 -41 238 -41q120 0 183.5 52t63.5 149q0 84 -39 128.5t-122 68.5l-102 28q-130 37 -186.5 107t-56.5 182q0 88 42.5 156t124.5 106.5t196 38.5q108 0 203 -23v-103q-54 13 -100.5 19t-99.5 6q-126 0 -190 -55.5t-64 -141.5q0 -76 38 -120.5t119 -67.5
l102 -28q135 -37 191 -108.5t56 -187.5q0 -96 -42.5 -165.5t-123 -106t-192.5 -36.5q-125 0 -239 40zM255 1595.5q-22 19.5 -22 54.5t22.5 55.5t58.5 20.5t58.5 -20.5t22.5 -55.5t-22 -54.5t-59 -19.5t-59 19.5zM329 1257l157 359h120l-179 -359h-98z" />
    <glyph glyph-name="uni1E66" unicode="&#x1e66;" horiz-adv-x="894" 
d="M228.5 -4.5q-78.5 13.5 -148.5 38.5v106q157 -53 300 -53q164 0 248 73.5t84 218.5q0 83 -27 138.5t-85 95.5t-158 75l-62 21q-158 55 -238.5 150.5t-80.5 246.5q0 122 52 210t154 135t250 47q67 0 137 -9.5t121 -26.5v-107q-120 38 -255 38q-171 0 -255 -72t-84 -208
q0 -79 25.5 -132.5t81.5 -92.5t152 -72l62 -22q165 -56 248 -153.5t83 -252.5q0 -194 -119 -300t-338 -106q-69 0 -147.5 13.5zM395 1916q-22 20 -22 55t22.5 55.5t58.5 20.5t58.5 -20.5t22.5 -55.5t-22 -55t-59 -20t-59 20zM608 1890h98l-195 -279h-114l-195 279h98
l154 -223z" />
    <glyph glyph-name="uni1E67" unicode="&#x1e67;" horiz-adv-x="743" 
d="M89 21v103q129 -41 238 -41q120 0 183.5 52t63.5 149q0 84 -39 128.5t-122 68.5l-102 28q-130 37 -186.5 107t-56.5 182q0 88 42.5 156t124.5 106.5t196 38.5q108 0 203 -23v-103q-54 13 -100.5 19t-99.5 6q-126 0 -190 -55.5t-64 -141.5q0 -76 38 -120.5t119 -67.5
l102 -28q135 -37 191 -108.5t56 -187.5q0 -96 -42.5 -165.5t-123 -106t-192.5 -36.5q-125 0 -239 40zM319 1640q-22 20 -22 55t22.5 55.5t58.5 20.5t58.5 -20.5t22.5 -55.5t-22 -55t-59 -20t-59 20zM520 1616h93l-178 -359h-114l-178 359h93l142 -297z" />
    <glyph glyph-name="uni1E68" unicode="&#x1e68;" horiz-adv-x="894" 
d="M228.5 -4.5q-78.5 13.5 -148.5 38.5v106q157 -53 300 -53q164 0 248 73.5t84 218.5q0 83 -27 138.5t-85 95.5t-158 75l-62 21q-158 55 -238.5 150.5t-80.5 246.5q0 122 52 210t154 135t250 47q67 0 137 -9.5t121 -26.5v-107q-120 38 -255 38q-171 0 -255 -72t-84 -208
q0 -79 25.5 -132.5t81.5 -92.5t152 -72l62 -22q165 -56 248 -153.5t83 -252.5q0 -194 -119 -300t-338 -106q-69 0 -147.5 13.5zM390 -312q-24 21 -24 59q0 37 24.5 59t63.5 22q40 0 64 -22t24 -59q0 -38 -24 -59t-64 -21t-64 21zM390 1693q-24 21 -24 59q0 37 24.5 59
t63.5 22q40 0 64 -22t24 -59q0 -38 -24 -59t-64 -21t-64 21z" />
    <glyph glyph-name="uni1E69" unicode="&#x1e69;" horiz-adv-x="743" 
d="M89 21v103q129 -41 238 -41q120 0 183.5 52t63.5 149q0 84 -39 128.5t-122 68.5l-102 28q-130 37 -186.5 107t-56.5 182q0 88 42.5 156t124.5 106.5t196 38.5q108 0 203 -23v-103q-54 13 -100.5 19t-99.5 6q-126 0 -190 -55.5t-64 -141.5q0 -76 38 -120.5t119 -67.5
l102 -28q135 -37 191 -108.5t56 -187.5q0 -96 -42.5 -165.5t-123 -106t-192.5 -36.5q-125 0 -239 40zM318 -316.5q-23 22.5 -23 60.5t23 61t60 23t60.5 -23t23.5 -61t-23.5 -60.5t-60.5 -22.5t-60 22.5zM313.5 1359.5q-23.5 22.5 -23.5 61.5t23.5 62.5t64.5 23.5t64.5 -23.5
t23.5 -62.5t-23.5 -61.5t-64.5 -22.5t-64.5 22.5z" />
    <glyph glyph-name="uni1E6C" unicode="&#x1e6c;" horiz-adv-x="1011" 
d="M447 0v1372h-440v108h997v-108h-440v-1372h-117zM442 -312q-24 21 -24 59q0 37 24.5 59t63.5 22q40 0 64 -22t24 -59q0 -38 -24 -59t-64 -21t-64 21z" />
    <glyph glyph-name="uni1E6D" unicode="&#x1e6d;" horiz-adv-x="622" 
d="M613 102v-105q-63 -15 -132 -15q-141 0 -215.5 76t-74.5 242v683h-191v100h191l18 397h98v-397h289v-100h-289v-666q0 -86 21 -136t63 -72t110 -22q47 0 112 15zM342 -316.5q-23 22.5 -23 60.5t23 61t60 23t60.5 -23t23.5 -61t-23.5 -60.5t-60.5 -22.5t-60 22.5z" />
    <glyph glyph-name="uni1E6E" unicode="&#x1e6e;" horiz-adv-x="1011" 
d="M447 0v1372h-440v108h997v-108h-440v-1372h-117zM246 -294v86h521v-86h-521z" />
    <glyph glyph-name="uni1E6F" unicode="&#x1e6f;" horiz-adv-x="622" 
d="M613 102v-105q-63 -15 -132 -15q-141 0 -215.5 76t-74.5 242v683h-191v100h191l18 397h98v-397h289v-100h-289v-666q0 -86 21 -136t63 -72t110 -22q47 0 112 15zM162 -298v86h481v-86h-481z" />
    <glyph glyph-name="uni1E78" unicode="&#x1e78;" horiz-adv-x="1219" 
d="M346 38.5q-103 56.5 -152 172.5t-49 298v971h117v-986q0 -210 82.5 -308.5t266.5 -98.5t266.5 98.5t82.5 308.5v986h114v-971q0 -182 -48.5 -298t-150.5 -172.5t-264 -56.5t-265 56.5zM559 1899l133 232h127l-155 -232h-105zM678 1689q-31 10 -81 32q-40 19 -67 28t-54 9
q-44 0 -77.5 -18t-66.5 -55v91q54 65 145 65q37 0 68.5 -10.5t79.5 -31.5q40 -19 67 -28t54 -9q44 0 78 18t66 55v-91q-52 -65 -144 -65q-37 0 -68 10z" />
    <glyph glyph-name="uni1E79" unicode="&#x1e79;" horiz-adv-x="946" 
d="M125 320v763h116v-761q0 -125 50.5 -179t142.5 -54q70 0 143.5 38.5t118.5 119.5v836h116v-1083h-100l-9 119h-9q-56 -68 -129.5 -102.5t-154.5 -34.5q-285 0 -285 338zM530.5 1371q-29.5 11 -75.5 33q-37 19 -61.5 28t-48.5 9q-42 0 -76 -18.5t-66 -56.5v94
q54 65 142 65q34 0 64 -11t74 -33q37 -18 62 -27.5t49 -9.5q42 0 76 18.5t65 56.5v-94q-25 -31 -61.5 -48t-80.5 -17q-33 0 -62.5 11zM419 1656l134 279h121l-155 -279h-100z" />
    <glyph glyph-name="uni1E7A" unicode="&#x1e7a;" horiz-adv-x="1219" 
d="M346 38.5q-103 56.5 -152 172.5t-49 298v971h117v-986q0 -210 82.5 -308.5t266.5 -98.5t266.5 98.5t82.5 308.5v986h114v-971q0 -182 -48.5 -298t-150.5 -172.5t-264 -56.5t-265 56.5zM351 1709v86h521v-86h-521zM359.5 1981.5q-22.5 21.5 -22.5 58.5t23 59t61 22t61 -22
t23 -59t-23 -58.5t-61 -21.5q-39 0 -61.5 21.5zM740.5 1981.5q-22.5 21.5 -22.5 58.5t23 59t61 22t61 -22t23 -59t-23 -58.5t-61 -21.5q-39 0 -61.5 21.5z" />
    <glyph glyph-name="uni1E7B" unicode="&#x1e7b;" horiz-adv-x="946" 
d="M125 320v763h116v-761q0 -125 50.5 -179t142.5 -54q70 0 143.5 38.5t118.5 119.5v836h116v-1083h-100l-9 119h-9q-56 -68 -129.5 -102.5t-154.5 -34.5q-285 0 -285 338zM203 1379v87h532v-87h-532zM236.5 1726q-23.5 22 -23.5 60t23.5 61.5t60.5 23.5t60 -23.5t23 -61.5
t-23 -60t-60 -22t-60.5 22zM581 1726q-23 22 -23 60t23 61.5t61 23.5q37 0 60 -23.5t23 -61.5t-23 -60t-60 -22q-38 0 -61 22z" />
    <glyph glyph-name="Wgrave" unicode="&#x1e80;" horiz-adv-x="1811" 
d="M1650 1480h112l-366 -1480h-157l-332 1341l-336 -1341h-156l-367 1480h121l330 -1362l337 1362h144l335 -1366zM857 1611l-155 279h122l133 -279h-100z" />
    <glyph glyph-name="wgrave" unicode="&#x1e81;" horiz-adv-x="1472" 
d="M1317 1083h110l-283 -1083h-142l-265 960l-267 -960h-142l-283 1083h114l245 -956l264 956h141l262 -954zM689 1257l-178 359h119l157 -359h-98z" />
    <glyph glyph-name="Wacute" unicode="&#x1e82;" horiz-adv-x="1811" 
d="M1650 1480h112l-366 -1480h-157l-332 1341l-336 -1341h-156l-367 1480h121l330 -1362l337 1362h144l335 -1366zM857 1611l134 279h121l-155 -279h-100z" />
    <glyph glyph-name="wacute" unicode="&#x1e83;" horiz-adv-x="1472" 
d="M1317 1083h110l-283 -1083h-142l-265 960l-267 -960h-142l-283 1083h114l245 -956l264 956h141l262 -954zM689 1257l157 359h120l-179 -359h-98z" />
    <glyph glyph-name="Wdieresis" unicode="&#x1e84;" horiz-adv-x="1811" 
d="M1650 1480h112l-366 -1480h-157l-332 1341l-336 -1341h-156l-367 1480h121l330 -1362l337 1362h144l335 -1366zM655.5 1693.5q-22.5 21.5 -22.5 58.5t23 59t61 22t61 -22t23 -59t-23 -58.5t-61 -21.5q-39 0 -61.5 21.5zM1036.5 1693.5q-22.5 21.5 -22.5 58.5t23 59t61 22
t61 -22t23 -59t-23 -58.5t-61 -21.5q-39 0 -61.5 21.5z" />
    <glyph glyph-name="wdieresis" unicode="&#x1e85;" horiz-adv-x="1472" 
d="M1317 1083h110l-283 -1083h-142l-265 960l-267 -960h-142l-283 1083h114l245 -956l264 956h141l262 -954zM505.5 1361q-23.5 22 -23.5 60t23.5 61.5t60.5 23.5t60 -23.5t23 -61.5t-23 -60t-60 -22t-60.5 22zM850 1361q-23 22 -23 60t23 61.5t61 23.5q37 0 60 -23.5
t23 -61.5t-23 -60t-60 -22q-38 0 -61 22z" />
    <glyph glyph-name="uni1E8E" unicode="&#x1e8e;" horiz-adv-x="1011" 
d="M1033 1480l-469 -812v-668h-117v667l-477 813h129l408 -700l405 700h121zM442 1693q-24 21 -24 59q0 37 24.5 59t63.5 22q40 0 64 -22t24 -59q0 -38 -24 -59t-64 -21t-64 21z" />
    <glyph glyph-name="uni1E8F" unicode="&#x1e8f;" horiz-adv-x="887" 
d="M757 1083h122l-503 -1523h-117l146 440h-39l-357 1083h124l309 -977zM379.5 1359.5q-23.5 22.5 -23.5 61.5t23.5 62.5t64.5 23.5t64.5 -23.5t23.5 -62.5t-23.5 -61.5t-64.5 -22.5t-64.5 22.5z" />
    <glyph glyph-name="uni1E92" unicode="&#x1e92;" horiz-adv-x="974" 
d="M203 107h719v-107h-870v67l709 1306h-699v107h850v-67zM423 -312q-24 21 -24 59q0 37 24.5 59t63.5 22q40 0 64 -22t24 -59q0 -38 -24 -59t-64 -21t-64 21z" />
    <glyph glyph-name="uni1E93" unicode="&#x1e93;" horiz-adv-x="762" 
d="M190 100h526v-100h-664v70l516 913h-506v100h644v-70zM325 -316.5q-23 22.5 -23 60.5t23 61t60 23t60.5 -23t23.5 -61t-23.5 -60.5t-60.5 -22.5t-60 22.5z" />
    <glyph glyph-name="uni1E97" unicode="&#x1e97;" horiz-adv-x="622" 
d="M613 102v-105q-63 -15 -132 -15q-141 0 -215.5 76t-74.5 242v683h-191v100h191l18 397h98v-397h289v-100h-289v-666q0 -86 21 -136t63 -72t110 -22q47 0 112 15zM16.5 1647q-23.5 22 -23.5 60t23.5 61.5t60.5 23.5t60 -23.5t23 -61.5t-23 -60t-60 -22t-60.5 22zM361 1647
q-23 22 -23 60t23 61.5t61 23.5q37 0 60 -23.5t23 -61.5t-23 -60t-60 -22q-38 0 -61 22z" />
    <glyph glyph-name="uni1E9E" unicode="&#x1e9e;" horiz-adv-x="1438" 
d="M1295 640.5q82 -97.5 82 -252.5q0 -194 -118.5 -300t-336.5 -106q-69 0 -147 13t-146 38v107q153 -53 297 -53q164 0 247.5 73.5t83.5 218.5q0 83 -27 139t-84.5 96t-156.5 74l-62 21q-157 54 -237 150t-80 247q0 177 105 277q-50 11 -104 11q-180 0 -261 -96.5
t-81 -298.5v-999h-116v983q0 262 110.5 388.5t347.5 126.5q128 0 222 -39q101 39 233 39q64 0 133 -9t120 -26v-107q-121 37 -251 37q-170 0 -253.5 -72t-83.5 -208q0 -79 25.5 -133t80.5 -92.5t149 -71.5l62 -22q165 -56 247 -153.5z" />
    <glyph glyph-name="uni1EA0" unicode="&#x1ea0;" horiz-adv-x="1156" 
d="M1014 0l-159 500h-558l-158 -500h-118l476 1480h162l476 -1480h-121zM331 606h491l-246 773zM515 -312q-24 21 -24 59q0 37 24.5 59t63.5 22q40 0 64 -22t24 -59q0 -38 -24 -59t-64 -21t-64 21z" />
    <glyph glyph-name="uni1EA1" unicode="&#x1ea1;" horiz-adv-x="876" 
d="M595 1064.5q77 -34.5 116.5 -113.5t39.5 -213v-738h-98l-10 120h-9q-47 -68 -116.5 -102.5t-154.5 -34.5q-86 0 -151.5 34t-101.5 99t-36 156q0 143 84.5 222t259.5 96l218 25v127q0 98 -27.5 154t-81.5 78.5t-141 22.5q-56 0 -122.5 -11t-130.5 -33v103q55 20 128 31.5
t138 11.5q119 0 196 -34.5zM523 117q65 35 113 114v293l-212 -22q-118 -12 -174.5 -65.5t-56.5 -151.5q0 -102 50.5 -152.5t145.5 -50.5q69 0 134 35zM376 -316.5q-23 22.5 -23 60.5t23 61t60 23t60.5 -23t23.5 -61t-23.5 -60.5t-60.5 -22.5t-60 22.5z" />
    <glyph glyph-name="uni1EA2" unicode="&#x1ea2;" horiz-adv-x="1156" 
d="M1014 0l-159 500h-558l-158 -500h-118l476 1480h162l476 -1480h-121zM331 606h491l-246 773zM565.5 1675q23.5 22 65.5 43q30 14 45 26.5t15 32.5q0 24 -24 36.5t-85 12.5q-44 0 -90.5 -9t-87.5 -26v69q35 16 85 25t98 9q92 0 139 -29.5t47 -80.5q0 -39 -21 -59t-62 -42
q-34 -18 -51 -32.5t-20 -39.5h-79q2 42 25.5 64z" />
    <glyph glyph-name="uni1EA3" unicode="&#x1ea3;" horiz-adv-x="876" 
d="M595 1064.5q77 -34.5 116.5 -113.5t39.5 -213v-738h-98l-10 120h-9q-47 -68 -116.5 -102.5t-154.5 -34.5q-86 0 -151.5 34t-101.5 99t-36 156q0 143 84.5 222t259.5 96l218 25v127q0 98 -27.5 154t-81.5 78.5t-141 22.5q-56 0 -122.5 -11t-130.5 -33v103q55 20 128 31.5
t138 11.5q119 0 196 -34.5zM523 117q65 35 113 114v293l-212 -22q-118 -12 -174.5 -65.5t-56.5 -151.5q0 -102 50.5 -152.5t145.5 -50.5q69 0 134 35zM414 1342.5q22 31.5 63 64.5q29 25 42 41t13 39q0 36 -24.5 53.5t-81.5 17.5q-35 0 -73 -6t-68 -18v70q30 11 69 17.5
t76 6.5q93 0 138.5 -35t45.5 -100q0 -31 -10 -54t-24.5 -37.5t-39.5 -35.5q-34 -28 -50.5 -50.5t-17.5 -58.5h-81q1 54 23 85.5z" />
    <glyph glyph-name="uni1EA4" unicode="&#x1ea4;" horiz-adv-x="1156" 
d="M1014 0l-159 500h-558l-158 -500h-118l476 1480h162l476 -1480h-121zM331 606h491l-246 773zM889 2064h97l-144 -267h-75zM522 1883h114l195 -272h-98l-154 220l-154 -220h-98z" />
    <glyph glyph-name="uni1EA5" unicode="&#x1ea5;" horiz-adv-x="876" 
d="M595 1064.5q77 -34.5 116.5 -113.5t39.5 -213v-738h-98l-10 120h-9q-47 -68 -116.5 -102.5t-154.5 -34.5q-86 0 -151.5 34t-101.5 99t-36 156q0 143 84.5 222t259.5 96l218 25v127q0 98 -27.5 154t-81.5 78.5t-141 22.5q-56 0 -122.5 -11t-130.5 -33v103q55 20 128 31.5
t138 11.5q119 0 196 -34.5zM523 117q65 35 113 114v293l-212 -22q-118 -12 -174.5 -65.5t-56.5 -151.5q0 -102 50.5 -152.5t145.5 -50.5q69 0 134 35zM751 1868h109l-155 -272h-87zM375 1616h114l178 -359h-93l-142 297l-142 -297h-93z" />
    <glyph glyph-name="uni1EA6" unicode="&#x1ea6;" horiz-adv-x="1156" 
d="M1014 0l-159 500h-558l-158 -500h-118l476 1480h162l476 -1480h-121zM331 606h491l-246 773zM865 1797h-75l-144 267h97zM522 1883h114l195 -272h-98l-154 220l-154 -220h-98z" />
    <glyph glyph-name="uni1EA7" unicode="&#x1ea7;" horiz-adv-x="876" 
d="M595 1064.5q77 -34.5 116.5 -113.5t39.5 -213v-738h-98l-10 120h-9q-47 -68 -116.5 -102.5t-154.5 -34.5q-86 0 -151.5 34t-101.5 99t-36 156q0 143 84.5 222t259.5 96l218 25v127q0 98 -27.5 154t-81.5 78.5t-141 22.5q-56 0 -122.5 -11t-130.5 -33v103q55 20 128 31.5
t138 11.5q119 0 196 -34.5zM523 117q65 35 113 114v293l-212 -22q-118 -12 -174.5 -65.5t-56.5 -151.5q0 -102 50.5 -152.5t145.5 -50.5q69 0 134 35zM711 1596h-87l-155 272h109zM375 1616h114l178 -359h-93l-142 297l-142 -297h-93z" />
    <glyph glyph-name="uni1EA8" unicode="&#x1ea8;" horiz-adv-x="1156" 
d="M1014 0l-159 500h-558l-158 -500h-118l476 1480h162l476 -1480h-121zM331 606h491l-246 773zM952 2044q47 -29 47 -78q0 -27 -11.5 -45.5t-27.5 -29t-44 -25.5q-34 -16 -51 -30.5t-20 -38.5h-80q3 42 26.5 63t65.5 41q32 16 46 27.5t14 31.5q0 23 -24 35.5t-85 12.5
q-43 0 -89.5 -8.5t-88.5 -25.5v65q35 16 85 25t98 9q92 0 139 -29zM522 1883h114l195 -272h-98l-154 220l-154 -220h-98z" />
    <glyph glyph-name="uni1EA9" unicode="&#x1ea9;" horiz-adv-x="876" 
d="M595 1064.5q77 -34.5 116.5 -113.5t39.5 -213v-738h-98l-10 120h-9q-47 -68 -116.5 -102.5t-154.5 -34.5q-86 0 -151.5 34t-101.5 99t-36 156q0 143 84.5 222t259.5 96l218 25v127q0 98 -27.5 154t-81.5 78.5t-141 22.5q-56 0 -122.5 -11t-130.5 -33v103q55 20 128 31.5
t138 11.5q119 0 196 -34.5zM523 117q65 35 113 114v293l-212 -22q-118 -12 -174.5 -65.5t-56.5 -151.5q0 -102 50.5 -152.5t145.5 -50.5q69 0 134 35zM783.5 1842.5q47.5 -29.5 47.5 -77.5q0 -27 -11.5 -45.5t-27.5 -29t-44 -25.5q-34 -16 -51 -30.5t-20 -38.5h-80
q2 29 15 48t30 30.5t46 25.5q31 14 46 26.5t15 32.5q0 23 -24.5 35.5t-85.5 12.5q-94 0 -177 -35v66q35 16 85 25t98 9q91 0 138.5 -29.5zM375 1616h114l178 -359h-93l-142 297l-142 -297h-93z" />
    <glyph glyph-name="uni1EAA" unicode="&#x1eaa;" horiz-adv-x="1156" 
d="M1014 0l-159 500h-558l-158 -500h-118l476 1480h162l476 -1480h-121zM331 606h491l-246 773zM767 2018.5q32 17.5 64 54.5v-82q-51 -62 -137 -62q-31 0 -60 10.5t-69 30.5q-36 17 -58 25.5t-43 8.5q-40 0 -72.5 -17.5t-64.5 -54.5v82q51 62 137 62q31 0 61 -10.5
t68 -30.5q39 -18 59.5 -26t42.5 -8q40 0 72 17.5zM522 1883h114l195 -272h-98l-154 220l-154 -220h-98z" />
    <glyph glyph-name="uni1EAB" unicode="&#x1eab;" horiz-adv-x="876" 
d="M595 1064.5q77 -34.5 116.5 -113.5t39.5 -213v-738h-98l-10 120h-9q-47 -68 -116.5 -102.5t-154.5 -34.5q-86 0 -151.5 34t-101.5 99t-36 156q0 143 84.5 222t259.5 96l218 25v127q0 98 -27.5 154t-81.5 78.5t-141 22.5q-56 0 -122.5 -11t-130.5 -33v103q55 20 128 31.5
t138 11.5q119 0 196 -34.5zM523 117q65 35 113 114v293l-212 -22q-118 -12 -174.5 -65.5t-56.5 -151.5q0 -102 50.5 -152.5t145.5 -50.5q69 0 134 35zM635.5 1759.5q33.5 17.5 65.5 53.5v-87q-25 -30 -61.5 -46t-81.5 -16q-34 0 -66.5 11t-73.5 31q-37 17 -62 26t-50 9
q-43 0 -77 -17.5t-66 -54.5v87q55 63 143 63q35 0 66.5 -11t73.5 -31q38 -18 63 -26.5t50 -8.5q43 0 76.5 17.5zM375 1604h114l178 -346h-93l-142 289l-142 -289h-93z" />
    <glyph glyph-name="uni1EAC" unicode="&#x1eac;" horiz-adv-x="1156" 
d="M1014 0l-159 500h-558l-158 -500h-118l476 1480h162l476 -1480h-121zM331 606h491l-246 773zM515 -312q-24 21 -24 59q0 37 24.5 59t63.5 22q40 0 64 -22t24 -59q0 -38 -24 -59t-64 -21t-64 21zM831 1611h-98l-154 224l-154 -224h-98l195 279h114z" />
    <glyph glyph-name="uni1EAD" unicode="&#x1ead;" horiz-adv-x="876" 
d="M595 1064.5q77 -34.5 116.5 -113.5t39.5 -213v-738h-98l-10 120h-9q-47 -68 -116.5 -102.5t-154.5 -34.5q-86 0 -151.5 34t-101.5 99t-36 156q0 143 84.5 222t259.5 96l218 25v127q0 98 -27.5 154t-81.5 78.5t-141 22.5q-56 0 -122.5 -11t-130.5 -33v103q55 20 128 31.5
t138 11.5q119 0 196 -34.5zM523 117q65 35 113 114v293l-212 -22q-118 -12 -174.5 -65.5t-56.5 -151.5q0 -102 50.5 -152.5t145.5 -50.5q69 0 134 35zM376 -316.5q-23 22.5 -23 60.5t23 61t60 23t60.5 -23t23.5 -61t-23.5 -60.5t-60.5 -22.5t-60 22.5zM667 1257h-93
l-142 297l-142 -297h-93l178 359h114z" />
    <glyph glyph-name="uni1EAE" unicode="&#x1eae;" horiz-adv-x="1156" 
d="M1014 0l-159 500h-558l-158 -500h-118l476 1480h162l476 -1480h-121zM331 606h491l-246 773zM542 1845l121 250h97l-143 -250h-75zM393 1682q-66 60 -75 178h79q8 -87 50.5 -126t131.5 -39t130.5 38.5t53.5 126.5h78q-9 -116 -76.5 -177t-185.5 -61q-120 0 -186 60z" />
    <glyph glyph-name="uni1EAF" unicode="&#x1eaf;" horiz-adv-x="876" 
d="M595 1064.5q77 -34.5 116.5 -113.5t39.5 -213v-738h-98l-10 120h-9q-47 -68 -116.5 -102.5t-154.5 -34.5q-86 0 -151.5 34t-101.5 99t-36 156q0 143 84.5 222t259.5 96l218 25v127q0 98 -27.5 154t-81.5 78.5t-141 22.5q-56 0 -122.5 -11t-130.5 -33v103q55 20 128 31.5
t138 11.5q119 0 196 -34.5zM523 117q65 35 113 114v293l-212 -22q-118 -12 -174.5 -65.5t-56.5 -151.5q0 -102 50.5 -152.5t145.5 -50.5q69 0 134 35zM389 1596l133 272h109l-155 -272h-87zM259.5 1348q-64.5 79 -71.5 234h83q7 -125 47.5 -181t115.5 -56t114.5 56t44.5 181
h83q-6 -156 -69 -234.5t-173 -78.5t-174.5 79z" />
    <glyph glyph-name="uni1EB0" unicode="&#x1eb0;" horiz-adv-x="1156" 
d="M1014 0l-159 500h-558l-158 -500h-118l476 1480h162l476 -1480h-121zM331 606h491l-246 773zM542 1845l-144 250h97l122 -250h-75zM393 1682q-66 60 -75 178h78q9 -87 51.5 -126t131.5 -39t130 38.5t52 126.5h80q-9 -116 -76.5 -177t-185.5 -61q-120 0 -186 60z" />
    <glyph glyph-name="uni1EB1" unicode="&#x1eb1;" horiz-adv-x="876" 
d="M595 1064.5q77 -34.5 116.5 -113.5t39.5 -213v-738h-98l-10 120h-9q-47 -68 -116.5 -102.5t-154.5 -34.5q-86 0 -151.5 34t-101.5 99t-36 156q0 143 84.5 222t259.5 96l218 25v127q0 98 -27.5 154t-81.5 78.5t-141 22.5q-56 0 -122.5 -11t-130.5 -33v103q55 20 128 31.5
t138 11.5q119 0 196 -34.5zM523 117q65 35 113 114v293l-212 -22q-118 -12 -174.5 -65.5t-56.5 -151.5q0 -102 50.5 -152.5t145.5 -50.5q69 0 134 35zM389 1596l-155 272h108l134 -272h-87zM259.5 1348q-64.5 79 -71.5 234h83q7 -125 47.5 -181t115.5 -56t114.5 56t44.5 181
h83q-6 -156 -69 -234.5t-173 -78.5t-174.5 79z" />
    <glyph glyph-name="uni1EB2" unicode="&#x1eb2;" horiz-adv-x="1156" 
d="M1014 0l-159 500h-558l-158 -500h-118l476 1480h162l476 -1480h-121zM331 606h491l-246 773zM554.5 1893.5q13.5 19.5 30.5 30.5t46 25q31 15 45.5 26.5t14.5 31.5q0 24 -24 36.5t-85 12.5q-44 0 -90.5 -9t-87.5 -26v66q35 16 85 25t98 9q91 0 138.5 -29.5t47.5 -78.5
q0 -38 -21.5 -58.5t-62.5 -40.5q-34 -17 -50.5 -31t-19.5 -38h-79q1 29 14.5 48.5zM393 1682q-66 60 -75 178h79q8 -87 50.5 -126t129.5 -39q88 0 131 38.5t55 126.5h78q-9 -116 -77 -177t-187 -61q-118 0 -184 60z" />
    <glyph glyph-name="uni1EB3" unicode="&#x1eb3;" horiz-adv-x="876" 
d="M595 1064.5q77 -34.5 116.5 -113.5t39.5 -213v-738h-98l-10 120h-9q-47 -68 -116.5 -102.5t-154.5 -34.5q-86 0 -151.5 34t-101.5 99t-36 156q0 143 84.5 222t259.5 96l218 25v127q0 98 -27.5 154t-81.5 78.5t-141 22.5q-56 0 -122.5 -11t-130.5 -33v103q55 20 128 31.5
t138 11.5q119 0 196 -34.5zM523 117q65 35 113 114v293l-212 -22q-118 -12 -174.5 -65.5t-56.5 -151.5q0 -102 50.5 -152.5t145.5 -50.5q69 0 134 35zM407.5 1644q13.5 19 30 30.5t45.5 25.5q31 14 46 26.5t15 32.5q0 23 -24 35.5t-85 12.5q-44 0 -90.5 -9t-87.5 -26v66
q35 16 85 25t98 9q91 0 138.5 -29.5t47.5 -77.5q0 -27 -11.5 -45.5t-27.5 -29t-44 -25.5q-34 -16 -51 -30.5t-20 -38.5h-79q1 29 14.5 48zM259.5 1348q-64.5 79 -71.5 234h83q7 -125 47.5 -181t115.5 -56t114.5 56t44.5 181h83q-6 -156 -69 -234.5t-173 -78.5t-174.5 79z
" />
    <glyph glyph-name="uni1EB4" unicode="&#x1eb4;" horiz-adv-x="1156" 
d="M1014 0l-159 500h-558l-158 -500h-118l476 1480h162l476 -1480h-121zM331 606h491l-246 773zM639 1939q-28 10 -72 30q-36 17 -60.5 26t-47.5 9q-41 0 -74.5 -17.5t-66.5 -54.5v82q56 62 142 62q32 0 62 -10.5t71 -30.5q39 -18 61.5 -26t44.5 -8q42 0 75.5 17.5
t66.5 54.5v-82q-56 -62 -143 -62q-31 0 -59 10zM393 1682q-66 60 -75 178h79q8 -87 50.5 -126t129.5 -39q88 0 130.5 38.5t53.5 126.5h80q-9 -116 -77 -177t-187 -61q-118 0 -184 60z" />
    <glyph glyph-name="uni1EB5" unicode="&#x1eb5;" horiz-adv-x="876" 
d="M595 1064.5q77 -34.5 116.5 -113.5t39.5 -213v-738h-98l-10 120h-9q-47 -68 -116.5 -102.5t-154.5 -34.5q-86 0 -151.5 34t-101.5 99t-36 156q0 143 84.5 222t259.5 96l218 25v127q0 98 -27.5 154t-81.5 78.5t-141 22.5q-56 0 -122.5 -11t-130.5 -33v103q55 20 128 31.5
t138 11.5q119 0 196 -34.5zM523 117q65 35 113 114v293l-212 -22q-118 -12 -174.5 -65.5t-56.5 -151.5q0 -102 50.5 -152.5t145.5 -50.5q69 0 134 35zM492.5 1674.5q-31.5 10.5 -74.5 30.5q-37 17 -62 26t-50 9q-43 0 -76.5 -17t-64.5 -53v86q53 63 142 63q34 0 65.5 -11
t73.5 -31q39 -18 63 -26.5t49 -8.5q42 0 76 17.5t66 53.5v-86q-54 -63 -143 -63q-33 0 -64.5 10.5zM259.5 1348q-64.5 79 -71.5 234h83q7 -125 47.5 -181t115.5 -56t114.5 56t44.5 181h83q-6 -156 -69 -234.5t-173 -78.5t-174.5 79z" />
    <glyph glyph-name="uni1EB6" unicode="&#x1eb6;" horiz-adv-x="1156" 
d="M1014 0l-159 500h-558l-158 -500h-118l476 1480h162l476 -1480h-121zM331 606h491l-246 773zM515 -312q-24 21 -24 59q0 37 24.5 59t63.5 22q40 0 64 -22t24 -59q0 -38 -24 -59t-64 -21t-64 21zM395 1684q-68 62 -77 182h83q10 -89 52 -128t128 -39t127.5 39t48.5 128h83
q-9 -121 -75 -182.5t-184 -61.5t-186 62z" />
    <glyph glyph-name="uni1EB7" unicode="&#x1eb7;" horiz-adv-x="876" 
d="M595 1064.5q77 -34.5 116.5 -113.5t39.5 -213v-738h-98l-10 120h-9q-47 -68 -116.5 -102.5t-154.5 -34.5q-86 0 -151.5 34t-101.5 99t-36 156q0 143 84.5 222t259.5 96l218 25v127q0 98 -27.5 154t-81.5 78.5t-141 22.5q-56 0 -122.5 -11t-130.5 -33v103q55 20 128 31.5
t138 11.5q119 0 196 -34.5zM523 117q65 35 113 114v293l-212 -22q-118 -12 -174.5 -65.5t-56.5 -151.5q0 -102 50.5 -152.5t145.5 -50.5q69 0 134 35zM376 -316.5q-23 22.5 -23 60.5t23 61t60 23t60.5 -23t23.5 -61t-23.5 -60.5t-60.5 -22.5t-60 22.5zM260 1349
q-65 80 -70 240h83q7 -127 47 -185t114 -58t114 58t44 185h82q-5 -160 -68.5 -240t-171.5 -80q-109 0 -174 80z" />
    <glyph glyph-name="uni1EB8" unicode="&#x1eb8;" horiz-adv-x="973" 
d="M269 106h667v-106h-783v1480h773v-106h-657v-561h565v-106h-565v-601zM498 -312q-24 21 -24 59q0 37 24.5 59t63.5 22q40 0 64 -22t24 -59q0 -38 -24 -59t-64 -21t-64 21z" />
    <glyph glyph-name="uni1EB9" unicode="&#x1eb9;" horiz-adv-x="871" 
d="M802 499h-601q3 -156 39 -246.5t105.5 -129.5t179.5 -39q95 0 228 40v-103q-124 -40 -239 -40q-147 0 -242 55.5t-143 178.5t-48 327q0 290 98 423.5t272 133.5q170 0 260.5 -131.5t90.5 -426.5v-42zM270 912.5q-65 -93.5 -69 -323.5h485q-2 158 -31 250t-80 129.5
t-124 37.5q-116 0 -181 -93.5zM386 -316.5q-23 22.5 -23 60.5t23 61t60 23t60.5 -23t23.5 -61t-23.5 -60.5t-60.5 -22.5t-60 22.5z" />
    <glyph glyph-name="uni1EBA" unicode="&#x1eba;" horiz-adv-x="973" 
d="M269 106h667v-106h-783v1480h773v-106h-657v-561h565v-106h-565v-601zM548.5 1675q23.5 22 65.5 43q30 14 45 26.5t15 32.5q0 24 -24 36.5t-85 12.5q-44 0 -90.5 -9t-87.5 -26v69q35 16 85 25t98 9q92 0 139 -29.5t47 -80.5q0 -39 -21 -59t-62 -42q-34 -18 -51 -32.5
t-20 -39.5h-79q2 42 25.5 64z" />
    <glyph glyph-name="uni1EBB" unicode="&#x1ebb;" horiz-adv-x="871" 
d="M802 499h-601q3 -156 39 -246.5t105.5 -129.5t179.5 -39q95 0 228 40v-103q-124 -40 -239 -40q-147 0 -242 55.5t-143 178.5t-48 327q0 290 98 423.5t272 133.5q170 0 260.5 -131.5t90.5 -426.5v-42zM270 912.5q-65 -93.5 -69 -323.5h485q-2 158 -31 250t-80 129.5
t-124 37.5q-116 0 -181 -93.5zM428 1342.5q22 31.5 63 64.5q29 25 42 41t13 39q0 36 -24.5 53.5t-81.5 17.5q-35 0 -73 -6t-68 -18v70q30 11 69 17.5t76 6.5q93 0 138.5 -35t45.5 -100q0 -31 -10 -54t-24.5 -37.5t-39.5 -35.5q-34 -28 -50.5 -50.5t-17.5 -58.5h-81
q1 54 23 85.5z" />
    <glyph glyph-name="uni1EBC" unicode="&#x1ebc;" horiz-adv-x="973" 
d="M269 106h667v-106h-783v1480h773v-106h-657v-561h565v-106h-565v-601zM629 1689q-31 10 -81 32q-40 19 -67 28t-54 9q-44 0 -77.5 -18t-66.5 -55v91q54 65 145 65q37 0 68.5 -10.5t79.5 -31.5q40 -19 67 -28t54 -9q44 0 78 18t66 55v-91q-52 -65 -144 -65q-37 0 -68 10z
" />
    <glyph glyph-name="uni1EBD" unicode="&#x1ebd;" horiz-adv-x="871" 
d="M802 499h-601q3 -156 39 -246.5t105.5 -129.5t179.5 -39q95 0 228 40v-103q-124 -40 -239 -40q-147 0 -242 55.5t-143 178.5t-48 327q0 290 98 423.5t272 133.5q170 0 260.5 -131.5t90.5 -426.5v-42zM270 912.5q-65 -93.5 -69 -323.5h485q-2 158 -31 250t-80 129.5
t-124 37.5q-116 0 -181 -93.5zM507.5 1371q-29.5 11 -75.5 33q-37 19 -61.5 28t-48.5 9q-42 0 -76 -18.5t-66 -56.5v94q54 65 142 65q34 0 64 -11t74 -33q37 -18 62 -27.5t49 -9.5q42 0 76 18.5t65 56.5v-94q-25 -31 -61.5 -48t-80.5 -17q-33 0 -62.5 11z" />
    <glyph glyph-name="uni1EBE" unicode="&#x1ebe;" horiz-adv-x="973" 
d="M269 106h667v-106h-783v1480h773v-106h-657v-561h565v-106h-565v-601zM872 2064h97l-144 -267h-75zM505 1883h114l195 -272h-98l-154 220l-154 -220h-98z" />
    <glyph glyph-name="uni1EBF" unicode="&#x1ebf;" horiz-adv-x="871" 
d="M802 499h-601q3 -156 39 -246.5t105.5 -129.5t179.5 -39q95 0 228 40v-103q-124 -40 -239 -40q-147 0 -242 55.5t-143 178.5t-48 327q0 290 98 423.5t272 133.5q170 0 260.5 -131.5t90.5 -426.5v-42zM270 912.5q-65 -93.5 -69 -323.5h485q-2 158 -31 250t-80 129.5
t-124 37.5q-116 0 -181 -93.5zM765 1868h109l-155 -272h-87zM389 1616h114l178 -359h-93l-142 297l-142 -297h-93z" />
    <glyph glyph-name="uni1EC0" unicode="&#x1ec0;" horiz-adv-x="973" 
d="M269 106h667v-106h-783v1480h773v-106h-657v-561h565v-106h-565v-601zM848 1797h-75l-144 267h97zM505 1883h114l195 -272h-98l-154 220l-154 -220h-98z" />
    <glyph glyph-name="uni1EC1" unicode="&#x1ec1;" horiz-adv-x="871" 
d="M802 499h-601q3 -156 39 -246.5t105.5 -129.5t179.5 -39q95 0 228 40v-103q-124 -40 -239 -40q-147 0 -242 55.5t-143 178.5t-48 327q0 290 98 423.5t272 133.5q170 0 260.5 -131.5t90.5 -426.5v-42zM270 912.5q-65 -93.5 -69 -323.5h485q-2 158 -31 250t-80 129.5
t-124 37.5q-116 0 -181 -93.5zM725 1596h-87l-155 272h109zM389 1616h114l178 -359h-93l-142 297l-142 -297h-93z" />
    <glyph glyph-name="uni1EC2" unicode="&#x1ec2;" horiz-adv-x="973" 
d="M269 106h667v-106h-783v1480h773v-106h-657v-561h565v-106h-565v-601zM935 2044q47 -29 47 -78q0 -27 -11.5 -45.5t-27.5 -29t-44 -25.5q-34 -16 -51 -30.5t-20 -38.5h-80q3 42 26.5 63t65.5 41q32 16 46 27.5t14 31.5q0 23 -24 35.5t-85 12.5q-43 0 -89.5 -8.5
t-88.5 -25.5v65q35 16 85 25t98 9q92 0 139 -29zM505 1883h114l195 -272h-98l-154 220l-154 -220h-98z" />
    <glyph glyph-name="uni1EC3" unicode="&#x1ec3;" horiz-adv-x="871" 
d="M802 499h-601q3 -156 39 -246.5t105.5 -129.5t179.5 -39q95 0 228 40v-103q-124 -40 -239 -40q-147 0 -242 55.5t-143 178.5t-48 327q0 290 98 423.5t272 133.5q170 0 260.5 -131.5t90.5 -426.5v-42zM270 912.5q-65 -93.5 -69 -323.5h485q-2 158 -31 250t-80 129.5
t-124 37.5q-116 0 -181 -93.5zM797.5 1842.5q47.5 -29.5 47.5 -77.5q0 -27 -11.5 -45.5t-27.5 -29t-44 -25.5q-34 -16 -51 -30.5t-20 -38.5h-80q2 29 15 48t30 30.5t46 25.5q31 14 46 26.5t15 32.5q0 23 -24.5 35.5t-85.5 12.5q-94 0 -177 -35v66q35 16 85 25t98 9
q91 0 138.5 -29.5zM389 1616h114l178 -359h-93l-142 297l-142 -297h-93z" />
    <glyph glyph-name="uni1EC4" unicode="&#x1ec4;" horiz-adv-x="973" 
d="M269 106h667v-106h-783v1480h773v-106h-657v-561h565v-106h-565v-601zM750 2018.5q32 17.5 64 54.5v-82q-51 -62 -137 -62q-31 0 -60 10.5t-69 30.5q-36 17 -58 25.5t-43 8.5q-40 0 -72.5 -17.5t-64.5 -54.5v82q51 62 137 62q31 0 61 -10.5t68 -30.5q39 -18 59.5 -26
t42.5 -8q40 0 72 17.5zM505 1883h114l195 -272h-98l-154 220l-154 -220h-98z" />
    <glyph glyph-name="uni1EC5" unicode="&#x1ec5;" horiz-adv-x="871" 
d="M802 499h-601q3 -156 39 -246.5t105.5 -129.5t179.5 -39q95 0 228 40v-103q-124 -40 -239 -40q-147 0 -242 55.5t-143 178.5t-48 327q0 290 98 423.5t272 133.5q170 0 260.5 -131.5t90.5 -426.5v-42zM270 912.5q-65 -93.5 -69 -323.5h485q-2 158 -31 250t-80 129.5
t-124 37.5q-116 0 -181 -93.5zM649.5 1759.5q33.5 17.5 65.5 53.5v-87q-25 -30 -61.5 -46t-81.5 -16q-34 0 -66.5 11t-73.5 31q-37 17 -62 26t-50 9q-43 0 -77 -17.5t-66 -54.5v87q55 63 143 63q35 0 66.5 -11t73.5 -31q38 -18 63 -26.5t50 -8.5q43 0 76.5 17.5zM389 1604
h114l178 -346h-93l-142 289l-142 -289h-93z" />
    <glyph glyph-name="uni1EC6" unicode="&#x1ec6;" horiz-adv-x="973" 
d="M269 106h667v-106h-783v1480h773v-106h-657v-561h565v-106h-565v-601zM498 -312q-24 21 -24 59q0 37 24.5 59t63.5 22q40 0 64 -22t24 -59q0 -38 -24 -59t-64 -21t-64 21zM814 1611h-98l-154 224l-154 -224h-98l195 279h114z" />
    <glyph glyph-name="uni1EC7" unicode="&#x1ec7;" horiz-adv-x="871" 
d="M802 499h-601q3 -156 39 -246.5t105.5 -129.5t179.5 -39q95 0 228 40v-103q-124 -40 -239 -40q-147 0 -242 55.5t-143 178.5t-48 327q0 290 98 423.5t272 133.5q170 0 260.5 -131.5t90.5 -426.5v-42zM270 912.5q-65 -93.5 -69 -323.5h485q-2 158 -31 250t-80 129.5
t-124 37.5q-116 0 -181 -93.5zM386 -316.5q-23 22.5 -23 60.5t23 61t60 23t60.5 -23t23.5 -61t-23.5 -60.5t-60.5 -22.5t-60 22.5zM681 1257h-93l-142 297l-142 -297h-93l178 359h114z" />
    <glyph glyph-name="uni1EC8" unicode="&#x1ec8;" horiz-adv-x="422" 
d="M153 0v1480h116v-1480h-116zM197.5 1675q23.5 22 65.5 43q30 14 45 26.5t15 32.5q0 24 -24 36.5t-85 12.5q-44 0 -90.5 -9t-87.5 -26v69q35 16 85 25t98 9q92 0 139 -29.5t47 -80.5q0 -39 -21 -59t-62 -42q-34 -18 -51 -32.5t-20 -39.5h-79q2 42 25.5 64z" />
    <glyph glyph-name="uni1EC9" unicode="&#x1ec9;" horiz-adv-x="384" 
d="M134 0v1083h116v-1083h-116zM174 1342.5q22 31.5 63 64.5q29 25 42 41t13 39q0 36 -24.5 53.5t-81.5 17.5q-35 0 -73 -6t-68 -18v70q30 11 69 17.5t76 6.5q93 0 138.5 -35t45.5 -100q0 -31 -10 -54t-24.5 -37.5t-39.5 -35.5q-34 -28 -50.5 -50.5t-17.5 -58.5h-81
q1 54 23 85.5z" />
    <glyph glyph-name="uni1ECA" unicode="&#x1eca;" horiz-adv-x="422" 
d="M153 0v1480h116v-1480h-116zM147 -312q-24 21 -24 59q0 37 24.5 59t63.5 22q40 0 64 -22t24 -59q0 -38 -24 -59t-64 -21t-64 21z" />
    <glyph glyph-name="uni1ECB" unicode="&#x1ecb;" horiz-adv-x="384" 
d="M134 0v1083h116v-1083h-116zM127.5 1359.5q-23.5 22.5 -23.5 61.5t23.5 62.5t64.5 23.5t64.5 -23.5t23.5 -62.5t-23.5 -61.5t-64.5 -22.5t-64.5 22.5zM132 -316.5q-23 22.5 -23 60.5t23 61t60 23t60.5 -23t23.5 -61t-23.5 -60.5t-60.5 -22.5t-60 22.5z" />
    <glyph glyph-name="uni1ECC" unicode="&#x1ecc;" horiz-adv-x="1199" 
d="M223.5 161.5q-132.5 179.5 -132.5 578.5t132.5 578.5t376.5 179.5t376 -179.5t132 -578.5t-132 -578.5t-376 -179.5t-376.5 179.5zM808 147.5q85 60.5 131.5 203.5t46.5 384q0 246 -46.5 391t-131.5 206t-208 61q-124 0 -209 -60.5t-131.5 -203.5t-46.5 -384
q0 -246 46.5 -391t131.5 -206t209 -61q123 0 208 60.5zM536 -312q-24 21 -24 59q0 37 24.5 59t63.5 22q40 0 64 -22t24 -59q0 -38 -24 -59t-64 -21t-64 21z" />
    <glyph glyph-name="uni1ECD" unicode="&#x1ecd;" horiz-adv-x="936" 
d="M81 540q0 293 100 426t287 133q387 0 387 -558q0 -293 -100 -426.5t-287 -133.5q-387 0 -387 559zM612.5 121.5q58.5 41.5 90 142t31.5 273.5q0 176 -32 278t-90 143.5t-144 41.5t-144.5 -41.5t-90.5 -142t-32 -272.5q0 -176 32 -278t90.5 -144t144.5 -42t144.5 41.5z
M408 -316.5q-23 22.5 -23 60.5t23 61t60 23t60.5 -23t23.5 -61t-23.5 -60.5t-60.5 -22.5t-60 22.5z" />
    <glyph glyph-name="uni1ECE" unicode="&#x1ece;" horiz-adv-x="1199" 
d="M223.5 161.5q-132.5 179.5 -132.5 578.5t132.5 578.5t376.5 179.5t376 -179.5t132 -578.5t-132 -578.5t-376 -179.5t-376.5 179.5zM808 147.5q85 60.5 131.5 203.5t46.5 384q0 246 -46.5 391t-131.5 206t-208 61q-124 0 -209 -60.5t-131.5 -203.5t-46.5 -384
q0 -246 46.5 -391t131.5 -206t209 -61q123 0 208 60.5zM586.5 1675q23.5 22 65.5 43q30 14 45 26.5t15 32.5q0 24 -24 36.5t-85 12.5q-44 0 -90.5 -9t-87.5 -26v69q35 16 85 25t98 9q92 0 139 -29.5t47 -80.5q0 -39 -21 -59t-62 -42q-34 -18 -51 -32.5t-20 -39.5h-79
q2 42 25.5 64z" />
    <glyph glyph-name="uni1ECF" unicode="&#x1ecf;" horiz-adv-x="936" 
d="M81 540q0 293 100 426t287 133q387 0 387 -558q0 -293 -100 -426.5t-287 -133.5q-387 0 -387 559zM612.5 121.5q58.5 41.5 90 142t31.5 273.5q0 176 -32 278t-90 143.5t-144 41.5t-144.5 -41.5t-90.5 -142t-32 -272.5q0 -176 32 -278t90.5 -144t144.5 -42t144.5 41.5z
M450 1342.5q22 31.5 63 64.5q29 25 42 41t13 39q0 36 -24.5 53.5t-81.5 17.5q-35 0 -73 -6t-68 -18v70q30 11 69 17.5t76 6.5q93 0 138.5 -35t45.5 -100q0 -31 -10 -54t-24.5 -37.5t-39.5 -35.5q-34 -28 -50.5 -50.5t-17.5 -58.5h-81q1 54 23 85.5z" />
    <glyph glyph-name="uni1ED0" unicode="&#x1ed0;" horiz-adv-x="1199" 
d="M223.5 161.5q-132.5 179.5 -132.5 578.5t132.5 578.5t376.5 179.5t376 -179.5t132 -578.5t-132 -578.5t-376 -179.5t-376.5 179.5zM808 147.5q85 60.5 131.5 203.5t46.5 384q0 246 -46.5 391t-131.5 206t-208 61q-124 0 -209 -60.5t-131.5 -203.5t-46.5 -384
q0 -246 46.5 -391t131.5 -206t209 -61q123 0 208 60.5zM910 2064h97l-144 -267h-75zM543 1883h114l195 -272h-98l-154 220l-154 -220h-98z" />
    <glyph glyph-name="uni1ED1" unicode="&#x1ed1;" horiz-adv-x="936" 
d="M81 540q0 293 100 426t287 133q387 0 387 -558q0 -293 -100 -426.5t-287 -133.5q-387 0 -387 559zM612.5 121.5q58.5 41.5 90 142t31.5 273.5q0 176 -32 278t-90 143.5t-144 41.5t-144.5 -41.5t-90.5 -142t-32 -272.5q0 -176 32 -278t90.5 -144t144.5 -42t144.5 41.5z
M787 1868h109l-155 -272h-87zM411 1616h114l178 -359h-93l-142 297l-142 -297h-93z" />
    <glyph glyph-name="uni1ED2" unicode="&#x1ed2;" horiz-adv-x="1199" 
d="M223.5 161.5q-132.5 179.5 -132.5 578.5t132.5 578.5t376.5 179.5t376 -179.5t132 -578.5t-132 -578.5t-376 -179.5t-376.5 179.5zM808 147.5q85 60.5 131.5 203.5t46.5 384q0 246 -46.5 391t-131.5 206t-208 61q-124 0 -209 -60.5t-131.5 -203.5t-46.5 -384
q0 -246 46.5 -391t131.5 -206t209 -61q123 0 208 60.5zM886 1797h-75l-144 267h97zM543 1883h114l195 -272h-98l-154 220l-154 -220h-98z" />
    <glyph glyph-name="uni1ED3" unicode="&#x1ed3;" horiz-adv-x="936" 
d="M81 540q0 293 100 426t287 133q387 0 387 -558q0 -293 -100 -426.5t-287 -133.5q-387 0 -387 559zM612.5 121.5q58.5 41.5 90 142t31.5 273.5q0 176 -32 278t-90 143.5t-144 41.5t-144.5 -41.5t-90.5 -142t-32 -272.5q0 -176 32 -278t90.5 -144t144.5 -42t144.5 41.5z
M747 1596h-87l-155 272h109zM411 1616h114l178 -359h-93l-142 297l-142 -297h-93z" />
    <glyph glyph-name="uni1ED4" unicode="&#x1ed4;" horiz-adv-x="1199" 
d="M223.5 161.5q-132.5 179.5 -132.5 578.5t132.5 578.5t376.5 179.5t376 -179.5t132 -578.5t-132 -578.5t-376 -179.5t-376.5 179.5zM808 147.5q85 60.5 131.5 203.5t46.5 384q0 246 -46.5 391t-131.5 206t-208 61q-124 0 -209 -60.5t-131.5 -203.5t-46.5 -384
q0 -246 46.5 -391t131.5 -206t209 -61q123 0 208 60.5zM973 2044q47 -29 47 -78q0 -27 -11.5 -45.5t-27.5 -29t-44 -25.5q-34 -16 -51 -30.5t-20 -38.5h-80q3 42 26.5 63t65.5 41q32 16 46 27.5t14 31.5q0 23 -24 35.5t-85 12.5q-43 0 -89.5 -8.5t-88.5 -25.5v65
q35 16 85 25t98 9q92 0 139 -29zM543 1883h114l195 -272h-98l-154 220l-154 -220h-98z" />
    <glyph glyph-name="uni1ED5" unicode="&#x1ed5;" horiz-adv-x="936" 
d="M81 540q0 293 100 426t287 133q387 0 387 -558q0 -293 -100 -426.5t-287 -133.5q-387 0 -387 559zM612.5 121.5q58.5 41.5 90 142t31.5 273.5q0 176 -32 278t-90 143.5t-144 41.5t-144.5 -41.5t-90.5 -142t-32 -272.5q0 -176 32 -278t90.5 -144t144.5 -42t144.5 41.5z
M819.5 1842.5q47.5 -29.5 47.5 -77.5q0 -27 -11.5 -45.5t-27.5 -29t-44 -25.5q-34 -16 -51 -30.5t-20 -38.5h-80q2 29 15 48t30 30.5t46 25.5q31 14 46 26.5t15 32.5q0 23 -24.5 35.5t-85.5 12.5q-94 0 -177 -35v66q35 16 85 25t98 9q91 0 138.5 -29.5zM411 1616h114
l178 -359h-93l-142 297l-142 -297h-93z" />
    <glyph glyph-name="uni1ED6" unicode="&#x1ed6;" horiz-adv-x="1199" 
d="M223.5 161.5q-132.5 179.5 -132.5 578.5t132.5 578.5t376.5 179.5t376 -179.5t132 -578.5t-132 -578.5t-376 -179.5t-376.5 179.5zM808 147.5q85 60.5 131.5 203.5t46.5 384q0 246 -46.5 391t-131.5 206t-208 61q-124 0 -209 -60.5t-131.5 -203.5t-46.5 -384
q0 -246 46.5 -391t131.5 -206t209 -61q123 0 208 60.5zM788 2018.5q32 17.5 64 54.5v-82q-51 -62 -137 -62q-31 0 -60 10.5t-69 30.5q-36 17 -58 25.5t-43 8.5q-40 0 -72.5 -17.5t-64.5 -54.5v82q51 62 137 62q31 0 61 -10.5t68 -30.5q39 -18 59.5 -26t42.5 -8q40 0 72 17.5
zM543 1883h114l195 -272h-98l-154 220l-154 -220h-98z" />
    <glyph glyph-name="uni1ED7" unicode="&#x1ed7;" horiz-adv-x="936" 
d="M81 540q0 293 100 426t287 133q387 0 387 -558q0 -293 -100 -426.5t-287 -133.5q-387 0 -387 559zM612.5 121.5q58.5 41.5 90 142t31.5 273.5q0 176 -32 278t-90 143.5t-144 41.5t-144.5 -41.5t-90.5 -142t-32 -272.5q0 -176 32 -278t90.5 -144t144.5 -42t144.5 41.5z
M671.5 1759.5q33.5 17.5 65.5 53.5v-87q-25 -30 -61.5 -46t-81.5 -16q-34 0 -66.5 11t-73.5 31q-37 17 -62 26t-50 9q-43 0 -77 -17.5t-66 -54.5v87q55 63 143 63q35 0 66.5 -11t73.5 -31q38 -18 63 -26.5t50 -8.5q43 0 76.5 17.5zM411 1604h114l178 -346h-93l-142 289
l-142 -289h-93z" />
    <glyph glyph-name="uni1ED8" unicode="&#x1ed8;" horiz-adv-x="1199" 
d="M223.5 161.5q-132.5 179.5 -132.5 578.5t132.5 578.5t376.5 179.5t376 -179.5t132 -578.5t-132 -578.5t-376 -179.5t-376.5 179.5zM808 147.5q85 60.5 131.5 203.5t46.5 384q0 246 -46.5 391t-131.5 206t-208 61q-124 0 -209 -60.5t-131.5 -203.5t-46.5 -384
q0 -246 46.5 -391t131.5 -206t209 -61q123 0 208 60.5zM536 -312q-24 21 -24 59q0 37 24.5 59t63.5 22q40 0 64 -22t24 -59q0 -38 -24 -59t-64 -21t-64 21zM852 1611h-98l-154 224l-154 -224h-98l195 279h114z" />
    <glyph glyph-name="uni1ED9" unicode="&#x1ed9;" horiz-adv-x="936" 
d="M81 540q0 293 100 426t287 133q387 0 387 -558q0 -293 -100 -426.5t-287 -133.5q-387 0 -387 559zM612.5 121.5q58.5 41.5 90 142t31.5 273.5q0 176 -32 278t-90 143.5t-144 41.5t-144.5 -41.5t-90.5 -142t-32 -272.5q0 -176 32 -278t90.5 -144t144.5 -42t144.5 41.5z
M408 -316.5q-23 22.5 -23 60.5t23 61t60 23t60.5 -23t23.5 -61t-23.5 -60.5t-60.5 -22.5t-60 22.5zM703 1257h-93l-142 297l-142 -297h-93l178 359h114z" />
    <glyph glyph-name="uni1EDA" unicode="&#x1eda;" horiz-adv-x="1199" 
d="M1108 740q0 -399 -132.5 -578.5t-375.5 -179.5t-376 179.5t-133 578.5t132.5 578.5t376.5 179.5q61 0 139 -12q61 -9 102 -9q79 0 126 38.5t47 118.5q0 38 -5.5 70.5t-17.5 71.5h96q13 -37 18.5 -70.5t5.5 -76.5q0 -101 -56.5 -161t-150.5 -72q204 -169 204 -656z
M808 147.5q85 60.5 131.5 203.5t46.5 384q0 246 -46.5 391t-131.5 206t-208 61q-124 0 -209 -60.5t-131.5 -203.5t-46.5 -384q0 -246 46.5 -391t131.5 -206t209 -61q123 0 208 60.5zM550 1611l134 279h121l-155 -279h-100z" />
    <glyph glyph-name="uni1EDB" unicode="&#x1edb;" horiz-adv-x="936" 
d="M688 1616l-175 -359h-96l154 359h117zM818 833q37 -118 37 -292q0 -293 -100 -426.5t-287 -133.5q-387 0 -387 559q0 293 100 426t287 133q7 0 88 -3q33 -3 57 -3q80 0 127 39.5t47 122.5q0 37 -5.5 69.5t-17.5 71.5h93q12 -36 17.5 -69.5t5.5 -76.5q0 -96 -47 -155
t-127 -78q75 -66 112 -184zM612.5 121.5q58.5 41.5 90 142t31.5 273.5q0 176 -32 278t-90 143.5t-144 41.5t-144.5 -41.5t-90.5 -142t-32 -272.5q0 -176 32 -278t90.5 -144t144.5 -42t144.5 41.5z" />
    <glyph glyph-name="uni1EDC" unicode="&#x1edc;" horiz-adv-x="1199" 
d="M1108 740q0 -399 -132.5 -578.5t-375.5 -179.5t-376 179.5t-133 578.5t132.5 578.5t376.5 179.5q61 0 139 -12q61 -9 102 -9q79 0 126 38.5t47 118.5q0 38 -5.5 70.5t-17.5 71.5h96q13 -37 18.5 -70.5t5.5 -76.5q0 -101 -56.5 -161t-150.5 -72q204 -169 204 -656z
M808 147.5q85 60.5 131.5 203.5t46.5 384q0 246 -46.5 391t-131.5 206t-208 61q-124 0 -209 -60.5t-131.5 -203.5t-46.5 -384q0 -246 46.5 -391t131.5 -206t209 -61q123 0 208 60.5zM550 1611l-155 279h122l133 -279h-100z" />
    <glyph glyph-name="uni1EDD" unicode="&#x1edd;" horiz-adv-x="936" 
d="M818 833q37 -118 37 -292q0 -293 -100 -426.5t-287 -133.5q-387 0 -387 559q0 293 100 426t287 133q7 0 88 -3q33 -3 57 -3q80 0 127 39.5t47 122.5q0 37 -5.5 69.5t-17.5 71.5h93q12 -36 17.5 -69.5t5.5 -76.5q0 -96 -47 -155t-127 -78q75 -66 112 -184zM612.5 121.5
q58.5 41.5 90 142t31.5 273.5q0 176 -32 278t-90 143.5t-144 41.5t-144.5 -41.5t-90.5 -142t-32 -272.5q0 -176 32 -278t90.5 -144t144.5 -42t144.5 41.5zM416 1257l-178 359h119l157 -359h-98z" />
    <glyph glyph-name="uni1EDE" unicode="&#x1ede;" horiz-adv-x="1199" 
d="M1108 740q0 -399 -132.5 -578.5t-375.5 -179.5t-376 179.5t-133 578.5t132.5 578.5t376.5 179.5q61 0 139 -12q61 -9 102 -9q79 0 126 38.5t47 118.5q0 38 -5.5 70.5t-17.5 71.5h96q13 -37 18.5 -70.5t5.5 -76.5q0 -101 -56.5 -161t-150.5 -72q204 -169 204 -656z
M808 147.5q85 60.5 131.5 203.5t46.5 384q0 246 -46.5 391t-131.5 206t-208 61q-124 0 -209 -60.5t-131.5 -203.5t-46.5 -384q0 -246 46.5 -391t131.5 -206t209 -61q123 0 208 60.5zM586.5 1675q23.5 22 65.5 43q30 14 45 26.5t15 32.5q0 24 -24 36.5t-85 12.5
q-44 0 -90.5 -9t-87.5 -26v69q35 16 85 25t98 9q92 0 139 -29.5t47 -80.5q0 -39 -21 -59t-62 -42q-34 -18 -51 -32.5t-20 -39.5h-79q2 42 25.5 64z" />
    <glyph glyph-name="uni1EDF" unicode="&#x1edf;" horiz-adv-x="936" 
d="M818 833q37 -118 37 -292q0 -293 -100 -426.5t-287 -133.5q-387 0 -387 559q0 293 100 426t287 133q7 0 88 -3q33 -3 57 -3q80 0 127 39.5t47 122.5q0 37 -5.5 69.5t-17.5 71.5h93q12 -36 17.5 -69.5t5.5 -76.5q0 -96 -47 -155t-127 -78q75 -66 112 -184zM612.5 121.5
q58.5 41.5 90 142t31.5 273.5q0 176 -32 278t-90 143.5t-144 41.5t-144.5 -41.5t-90.5 -142t-32 -272.5q0 -176 32 -278t90.5 -144t144.5 -42t144.5 41.5zM447 1342.5q22 31.5 63 64.5q29 25 42 41t13 39q0 36 -24.5 53.5t-81.5 17.5q-35 0 -73 -6t-68 -18v70q30 11 69 17.5
t76 6.5q93 0 138.5 -35t45.5 -100q0 -31 -10 -54t-24.5 -37.5t-39.5 -35.5q-34 -28 -50.5 -50.5t-17.5 -58.5h-81q1 54 23 85.5z" />
    <glyph glyph-name="uni1EE0" unicode="&#x1ee0;" horiz-adv-x="1199" 
d="M391 1740q-33 -18 -65 -55v91q52 65 142 65q36 0 66.5 -10t79.5 -32q39 -19 65 -28t53 -9q43 0 76 18t65 55v-91q-52 -65 -142 -65q-36 0 -67.5 10.5t-77.5 31.5q-39 18 -65.5 27.5t-53.5 9.5q-43 0 -76 -18zM1108 740q0 -399 -132.5 -578.5t-375.5 -179.5t-376 179.5
t-133 578.5t132.5 578.5t376.5 179.5q61 0 139 -12q61 -9 102 -9q79 0 126 38.5t47 118.5q0 38 -5.5 70.5t-17.5 71.5h96q13 -37 18.5 -70.5t5.5 -76.5q0 -101 -56.5 -161t-150.5 -72q204 -169 204 -656zM808 147.5q85 60.5 131.5 203.5t46.5 384q0 246 -46.5 391
t-131.5 206t-208 61q-124 0 -209 -60.5t-131.5 -203.5t-46.5 -384q0 -246 46.5 -391t131.5 -206t209 -61q123 0 208 60.5z" />
    <glyph glyph-name="uni1EE1" unicode="&#x1ee1;" horiz-adv-x="936" 
d="M263.5 1422.5q-33.5 -18.5 -64.5 -56.5v94q25 31 60.5 48t78.5 17q33 0 62.5 -11t72.5 -33q35 -18 59 -27.5t48 -9.5q40 0 73.5 18.5t65.5 56.5v-94q-26 -31 -61.5 -48t-77.5 -17q-34 0 -63 11t-72 33q-37 19 -60.5 28t-47.5 9q-40 0 -73.5 -18.5zM818 833
q37 -118 37 -292q0 -293 -100 -426.5t-287 -133.5q-387 0 -387 559q0 293 100 426t287 133q7 0 88 -3q33 -3 57 -3q80 0 127 39.5t47 122.5q0 37 -5.5 69.5t-17.5 71.5h93q12 -36 17.5 -69.5t5.5 -76.5q0 -96 -47 -155t-127 -78q75 -66 112 -184zM612.5 121.5
q58.5 41.5 90 142t31.5 273.5q0 176 -32 278t-90 143.5t-144 41.5t-144.5 -41.5t-90.5 -142t-32 -272.5q0 -176 32 -278t90.5 -144t144.5 -42t144.5 41.5z" />
    <glyph glyph-name="uni1EE2" unicode="&#x1ee2;" horiz-adv-x="1199" 
d="M1108 740q0 -399 -132.5 -578.5t-375.5 -179.5t-376 179.5t-133 578.5t132.5 578.5t376.5 179.5q61 0 139 -12q61 -9 102 -9q79 0 126 38.5t47 118.5q0 38 -5.5 70.5t-17.5 71.5h96q13 -37 18.5 -70.5t5.5 -76.5q0 -101 -56.5 -161t-150.5 -72q204 -169 204 -656z
M808 147.5q85 60.5 131.5 203.5t46.5 384q0 246 -46.5 391t-131.5 206t-208 61q-124 0 -209 -60.5t-131.5 -203.5t-46.5 -384q0 -246 46.5 -391t131.5 -206t209 -61q123 0 208 60.5zM536 -312q-24 21 -24 59q0 37 24.5 59t63.5 22q40 0 64 -22t24 -59q0 -38 -24 -59t-64 -21
t-64 21z" />
    <glyph glyph-name="uni1EE3" unicode="&#x1ee3;" horiz-adv-x="936" 
d="M818 833q37 -118 37 -292q0 -293 -100 -426.5t-287 -133.5q-387 0 -387 559q0 293 100 426t287 133q7 0 88 -3q33 -3 57 -3q80 0 127 39.5t47 122.5q0 37 -5.5 69.5t-17.5 71.5h93q12 -36 17.5 -69.5t5.5 -76.5q0 -96 -47 -155t-127 -78q75 -66 112 -184zM612.5 121.5
q58.5 41.5 90 142t31.5 273.5q0 176 -32 278t-90 143.5t-144 41.5t-144.5 -41.5t-90.5 -142t-32 -272.5q0 -176 32 -278t90.5 -144t144.5 -42t144.5 41.5zM408 -316.5q-23 22.5 -23 60.5t23 61t60 23t60.5 -23t23.5 -61t-23.5 -60.5t-60.5 -22.5t-60 22.5z" />
    <glyph glyph-name="uni1EE4" unicode="&#x1ee4;" horiz-adv-x="1219" 
d="M346 38.5q-103 56.5 -152 172.5t-49 298v971h117v-986q0 -210 82.5 -308.5t266.5 -98.5t266.5 98.5t82.5 308.5v986h114v-971q0 -182 -48.5 -298t-150.5 -172.5t-264 -56.5t-265 56.5zM547 -312q-24 21 -24 59q0 37 24.5 59t63.5 22q40 0 64 -22t24 -59q0 -38 -24 -59
t-64 -21t-64 21z" />
    <glyph glyph-name="uni1EE5" unicode="&#x1ee5;" horiz-adv-x="946" 
d="M125 320v763h116v-761q0 -125 50.5 -179t142.5 -54q70 0 143.5 38.5t118.5 119.5v836h116v-1083h-100l-9 119h-9q-56 -68 -129.5 -102.5t-154.5 -34.5q-285 0 -285 338zM409 -316.5q-23 22.5 -23 60.5t23 61t60 23t60.5 -23t23.5 -61t-23.5 -60.5t-60.5 -22.5t-60 22.5z
" />
    <glyph glyph-name="uni1EE6" unicode="&#x1ee6;" horiz-adv-x="1219" 
d="M346 38.5q-103 56.5 -152 172.5t-49 298v971h117v-986q0 -210 82.5 -308.5t266.5 -98.5t266.5 98.5t82.5 308.5v986h114v-971q0 -182 -48.5 -298t-150.5 -172.5t-264 -56.5t-265 56.5zM597.5 1675q23.5 22 65.5 43q30 14 45 26.5t15 32.5q0 24 -24 36.5t-85 12.5
q-44 0 -90.5 -9t-87.5 -26v69q35 16 85 25t98 9q92 0 139 -29.5t47 -80.5q0 -39 -21 -59t-62 -42q-34 -18 -51 -32.5t-20 -39.5h-79q2 42 25.5 64z" />
    <glyph glyph-name="uni1EE7" unicode="&#x1ee7;" horiz-adv-x="946" 
d="M125 320v763h116v-761q0 -125 50.5 -179t142.5 -54q70 0 143.5 38.5t118.5 119.5v836h116v-1083h-100l-9 119h-9q-56 -68 -129.5 -102.5t-154.5 -34.5q-285 0 -285 338zM451 1342.5q22 31.5 63 64.5q29 25 42 41t13 39q0 36 -24.5 53.5t-81.5 17.5q-35 0 -73 -6t-68 -18
v70q30 11 69 17.5t76 6.5q93 0 138.5 -35t45.5 -100q0 -31 -10 -54t-24.5 -37.5t-39.5 -35.5q-34 -28 -50.5 -50.5t-17.5 -58.5h-81q1 54 23 85.5z" />
    <glyph glyph-name="uni1EE8" unicode="&#x1ee8;" horiz-adv-x="1221" 
d="M346 38.5q-103 56.5 -152 172.5t-49 298v971h117v-986q0 -210 82.5 -308.5t266.5 -98.5t266.5 98.5t82.5 308.5v986h48q79 0 126 37.5t47 116.5q0 38 -5.5 70.5t-17.5 71.5h96q13 -37 18.5 -70.5t5.5 -76.5q0 -101 -56 -158t-148 -66v-896q0 -182 -48.5 -298
t-150.5 -172.5t-264 -56.5t-265 56.5zM561 1611l134 279h121l-155 -279h-100z" />
    <glyph glyph-name="uni1EE9" unicode="&#x1ee9;" horiz-adv-x="969" 
d="M956.5 1076.5q-54.5 -60.5 -144.5 -73.5v-1003h-100l-9 119h-9q-56 -68 -129.5 -102.5t-154.5 -34.5q-285 0 -285 338v763h116v-761q0 -125 50.5 -179t142.5 -54q70 0 143.5 38.5t118.5 119.5v836h48q79 0 126 40t47 122q0 37 -5.5 69.5t-17.5 71.5h93q12 -36 18 -69.5
t6 -76.5q0 -103 -54.5 -163.5zM420 1257l157 359h120l-179 -359h-98z" />
    <glyph glyph-name="uni1EEA" unicode="&#x1eea;" horiz-adv-x="1221" 
d="M346 38.5q-103 56.5 -152 172.5t-49 298v971h117v-986q0 -210 82.5 -308.5t266.5 -98.5t266.5 98.5t82.5 308.5v986h48q79 0 126 37.5t47 116.5q0 38 -5.5 70.5t-17.5 71.5h96q13 -37 18.5 -70.5t5.5 -76.5q0 -101 -56 -158t-148 -66v-896q0 -182 -48.5 -298
t-150.5 -172.5t-264 -56.5t-265 56.5zM561 1611l-155 279h122l133 -279h-100z" />
    <glyph glyph-name="uni1EEB" unicode="&#x1eeb;" horiz-adv-x="969" 
d="M956.5 1076.5q-54.5 -60.5 -144.5 -73.5v-1003h-100l-9 119h-9q-56 -68 -129.5 -102.5t-154.5 -34.5q-285 0 -285 338v763h116v-761q0 -125 50.5 -179t142.5 -54q70 0 143.5 38.5t118.5 119.5v836h48q79 0 126 40t47 122q0 37 -5.5 69.5t-17.5 71.5h93q12 -36 18 -69.5
t6 -76.5q0 -103 -54.5 -163.5zM420 1257l-178 359h119l157 -359h-98z" />
    <glyph glyph-name="uni1EEC" unicode="&#x1eec;" horiz-adv-x="1221" 
d="M346 38.5q-103 56.5 -152 172.5t-49 298v971h117v-986q0 -210 82.5 -308.5t266.5 -98.5t266.5 98.5t82.5 308.5v986h48q79 0 126 37.5t47 116.5q0 38 -5.5 70.5t-17.5 71.5h96q13 -37 18.5 -70.5t5.5 -76.5q0 -101 -56 -158t-148 -66v-896q0 -182 -48.5 -298
t-150.5 -172.5t-264 -56.5t-265 56.5zM597.5 1675q23.5 22 65.5 43q30 14 45 26.5t15 32.5q0 24 -24 36.5t-85 12.5q-44 0 -90.5 -9t-87.5 -26v69q35 16 85 25t98 9q92 0 139 -29.5t47 -80.5q0 -39 -21 -59t-62 -42q-34 -18 -51 -32.5t-20 -39.5h-79q2 42 25.5 64z" />
    <glyph glyph-name="uni1EED" unicode="&#x1eed;" horiz-adv-x="969" 
d="M956.5 1076.5q-54.5 -60.5 -144.5 -73.5v-1003h-100l-9 119h-9q-56 -68 -129.5 -102.5t-154.5 -34.5q-285 0 -285 338v763h116v-761q0 -125 50.5 -179t142.5 -54q70 0 143.5 38.5t118.5 119.5v836h48q79 0 126 40t47 122q0 37 -5.5 69.5t-17.5 71.5h93q12 -36 18 -69.5
t6 -76.5q0 -103 -54.5 -163.5zM451 1342.5q22 31.5 63 64.5q29 25 42 41t13 39q0 36 -24.5 53.5t-81.5 17.5q-35 0 -73 -6t-68 -18v70q30 11 69 17.5t76 6.5q93 0 138.5 -35t45.5 -100q0 -31 -10 -54t-24.5 -37.5t-39.5 -35.5q-34 -28 -50.5 -50.5t-17.5 -58.5h-81
q1 54 23 85.5z" />
    </font>
</defs>
</svg>
