<?xml version="1.0" standalone="no"?>
<!DOCTYPE svg PUBLIC "-//W3C//DTD SVG 1.1//EN" "http://www.w3.org/Graphics/SVG/1.1/DTD/svg11.dtd" >
<svg xmlns="http://www.w3.org/2000/svg" xmlns:xlink="http://www.w3.org/1999/xlink" version="1.1">
<metadata>
Created by FontForge 20170731 at Tue Jan 31 13:40:28 2017
 By Aleksey,,,
Copyright 2012 The Encode Project Authors (impallari@gmail.com), with Reserved Font Name "Encode Sans".
</metadata>
<defs>
<font id="EncodeSansCondensed-ExtraLight" horiz-adv-x="1013" >
  <font-face 
    font-family="Encode Sans Condensed ExLight"
    font-weight="275"
    font-stretch="condensed"
    units-per-em="2000"
    panose-1="0 0 3 6 0 0 0 0 0 0"
    ascent="1600"
    descent="-400"
    x-height="1081"
    cap-height="1480"
    bbox="-682 -461 2161 2122"
    underline-thickness="50"
    underline-position="-150"
    unicode-range="U+000D-FB02"
  />
<missing-glyph horiz-adv-x="1028" 
d="M843 1616v-2056h-652v2056h652zM685 1478h-340v-68h134v-76h-136v-68h342v68h-136v76h136v68zM549 1213h-206v-214h342v70h-136v144zM479 1143v-74h-68v74h68zM685 944h-342v-68h136v-76h-136v-68h206v144h136v68zM685 820h-68v-135h-274v-70h342v205zM685 569h-206v-115
h70v48h68v-97h-206v164h-68v-232h342v232zM685 214h-342v-233h342v233zM617 146v-97h-206v97h206zM685 -66h-342v-68h144l-144 -96v-68h342v68h-210l144 96h66v68z" />
    <glyph glyph-name="fi" unicode="fi" horiz-adv-x="941" 
d="M278.5 1561q74.5 75 218.5 75q71 0 121 -10v-83q-62 12 -121 12q-102 0 -153.5 -51t-51.5 -164v-259h295v-79h-295v-1002h-88v1002h-196v79h196v259q0 146 74.5 221zM809.5 1475q19.5 -20 19.5 -53t-19.5 -52t-52.5 -19t-53 19t-20 52t20 53t53 20t52.5 -20zM713 0v1081
h88v-1081h-88z" />
    <glyph glyph-name="fl" unicode="fl" horiz-adv-x="941" 
d="M278.5 1561q74.5 75 218.5 75q71 0 121 -10v-83q-62 12 -121 12q-102 0 -153.5 -51t-51.5 -164v-259h295v-79h-295v-1002h-88v1002h-196v79h196v259q0 146 74.5 221zM713 1616h88v-1616h-88v1616z" />
    <glyph glyph-name="f_j" unicode="fj" horiz-adv-x="941" 
d="M292 1002v-1002h-88v1002h-196v79h196v259q0 146 74.5 221t218.5 75q71 0 121 -10v-83q-62 12 -121 12q-102 0 -153.5 -51t-51.5 -164v-259h295v-79h-295zM809.5 1475q19.5 -20 19.5 -53t-19.5 -52t-52.5 -19t-53 19t-20 52t20 53t53 20t52.5 -20zM713 1081h88v-904
q0 -135 -20 -239.5t-61.5 -198t-111.5 -200.5l-63 42q91 144 129.5 274.5t38.5 311.5v914z" />
    <glyph glyph-name=".notdef" horiz-adv-x="1028" 
d="M843 1616v-2056h-652v2056h652zM685 1478h-340v-68h134v-76h-136v-68h342v68h-136v76h136v68zM549 1213h-206v-214h342v70h-136v144zM479 1143v-74h-68v74h68zM685 944h-342v-68h136v-76h-136v-68h206v144h136v68zM685 820h-68v-135h-274v-70h342v205zM685 569h-206v-115
h70v48h68v-97h-206v164h-68v-232h342v232zM685 214h-342v-233h342v233zM617 146v-97h-206v97h206zM685 -66h-342v-68h144l-144 -96v-68h342v68h-210l144 96h66v68z" />
    <glyph glyph-name=".null" horiz-adv-x="0" 
 />
    <glyph glyph-name="nonmarkingreturn" unicode="&#xd;" horiz-adv-x="416" 
 />
    <glyph glyph-name="NULL" horiz-adv-x="0" 
 />
    <glyph glyph-name="NULL" horiz-adv-x="0" 
 />
    <glyph glyph-name="space" unicode=" " horiz-adv-x="416" 
 />
    <glyph glyph-name="exclam" unicode="!" horiz-adv-x="412" 
d="M176 330l-17 567v583h94v-583l-17 -567h-60zM152.5 9q-20.5 20 -20.5 53q0 34 21 54.5t53 20.5t52.5 -20.5t20.5 -54.5q0 -33 -20.5 -53t-52.5 -20q-33 0 -53.5 20z" />
    <glyph glyph-name="quotedbl" unicode="&#x22;" horiz-adv-x="613" 
d="M149 947l-23 669h99l-23 -669h-53zM412 947l-23 669h99l-23 -669h-53z" />
    <glyph glyph-name="numbersign" unicode="#" 
d="M923 913h-203l-28 -346h231v-80h-238l-41 -487h-80l41 487h-239l-41 -487h-80l41 487h-196v80h203l28 346h-231v80h238l41 487h80l-41 -487h239l41 487h80l-41 -487h196v-80zM612 567l28 346h-239l-28 -346h239z" />
    <glyph glyph-name="dollar" unicode="$" horiz-adv-x="878" 
d="M727.5 116q-85.5 -100 -246.5 -126v-230h-83v223q-10 -1 -29 -1q-67 0 -143 12.5t-145 37.5v85q153 -53 292 -53q172 0 259.5 78t87.5 233q0 88 -28 147.5t-89 101.5t-164 78l-57 19q-159 56 -238 150t-79 243q0 157 85.5 254.5t247.5 121.5v230h83v-222h26
q63 0 131.5 -9.5t118.5 -26.5v-84q-117 38 -251 38q-175 0 -262 -76t-87 -220q0 -84 27 -142t86 -99t158 -76l56 -19q165 -57 247 -153.5t82 -249.5q0 -165 -85.5 -265z" />
    <glyph glyph-name="percent" unicode="%" horiz-adv-x="1582" 
d="M168.5 685q-75.5 108 -75.5 353t75 352.5t213 107.5q137 0 212 -107.5t75 -352.5t-75.5 -353t-211.5 -108q-137 0 -212.5 108zM485 0l529 1480h83l-529 -1480h-83zM533.5 738.5q53.5 87.5 53.5 297.5q0 213 -53 301t-153 88t-153.5 -87.5t-53.5 -297.5q0 -213 53.5 -301
t153.5 -88q99 0 152.5 87.5zM989 90q-75 108 -75 353q0 244 75.5 352t211.5 108q137 0 212.5 -108t75.5 -352q0 -245 -75 -353t-213 -108q-137 0 -212 108zM1354.5 143q53.5 88 53.5 298q0 212 -53.5 300t-153.5 88q-99 0 -152.5 -87.5t-53.5 -297.5q0 -212 53.5 -300.5
t152.5 -88.5q100 0 153.5 88z" />
    <glyph glyph-name="ampersand" unicode="&#x26;" horiz-adv-x="1264" 
d="M1208 -20l-223 209q-59 -103 -161.5 -155t-241.5 -52q-136 0 -237 52t-155.5 147.5t-54.5 222.5q0 133 59 236.5t168 166.5q-48 71 -68.5 138.5t-20.5 147.5q0 197 111.5 301t328.5 104q92 0 185 -22v-84q-93 24 -186 24q-346 0 -346 -321q0 -77 21 -140.5t72.5 -133
t145.5 -158.5l351 -329q17 73 17 161q0 66 -9.5 137.5t-27.5 136.5h85q34 -126 34 -272q0 -127 -33 -225l242 -226zM925 245l-376 352q-87 83 -141 148q-89 -54 -135 -138t-46 -194q0 -108 42.5 -187t123.5 -121.5t194 -42.5q249 0 338 183z" />
    <glyph glyph-name="quotesingle" unicode="'" horiz-adv-x="351" 
d="M149 947l-23 669h99l-23 -669h-53z" />
    <glyph glyph-name="parenleft" unicode="(" horiz-adv-x="554" 
d="M115 588q0 588 298 1028h90q-295 -451 -295 -1028t295 -1028h-90q-298 440 -298 1028z" />
    <glyph glyph-name="parenright" unicode=")" horiz-adv-x="554" 
d="M346 588q0 577 -295 1028h90q298 -440 298 -1028t-298 -1028h-90q295 451 295 1028z" />
    <glyph glyph-name="asterisk" unicode="*" horiz-adv-x="840" 
d="M453 1208l133 -155l99 -135l-62 -45l-99 135l-104 175l-104 -175l-99 -135l-63 45l99 135l134 155l-199 46l-158 51l24 72l157 -51l188 -80l-18 204v166h77v-166l-18 -204l189 80l157 51l24 -72l-159 -51z" />
    <glyph glyph-name="plus" unicode="+" horiz-adv-x="1017" 
d="M467 374v347h-327v78h327v347h83v-347h327v-78h-327v-347h-83z" />
    <glyph glyph-name="comma" unicode="," horiz-adv-x="372" 
d="M239 114q20 -24 20 -75q0 -174 -75 -343h-55q28 87 43.5 156.5t18.5 136.5h-5q-32 0 -53 21t-21 55q0 32 20 52.5t52 20.5q35 0 55 -24z" />
    <glyph glyph-name="hyphen" unicode="-" horiz-adv-x="681" 
d="M140 521v79h402v-79h-402z" />
    <glyph glyph-name="period" unicode="." horiz-adv-x="372" 
d="M132.5 9.5q-20.5 20.5 -20.5 53.5q0 34 21 54.5t53 20.5t52.5 -21t20.5 -54t-20 -53.5t-53 -20.5t-53.5 20.5z" />
    <glyph glyph-name="slash" unicode="/" horiz-adv-x="439" 
d="M0 -240l350 1856h89l-350 -1856h-89z" />
    <glyph glyph-name="zero" unicode="0" horiz-adv-x="1048" 
d="M212.5 158.5q-107.5 176.5 -107.5 581.5q0 275 49.5 442.5t142 241.5t227.5 74q134 0 226.5 -74t142 -241.5t49.5 -442.5q0 -405 -107.5 -581.5t-310.5 -176.5q-204 0 -311.5 176.5zM700.5 126.5q71.5 62.5 111 211t39.5 398.5q0 254 -39.5 404t-111 213t-176.5 63
t-176.5 -62.5t-111 -211t-39.5 -398.5q0 -254 39.5 -404t111 -213t176.5 -63t176.5 62.5z" />
    <glyph glyph-name="one" unicode="1" horiz-adv-x="563" 
d="M343 1484h51v-1484h-89v1363l-286 -218v92z" />
    <glyph glyph-name="two" unicode="2" horiz-adv-x="815" 
d="M757 81v-81h-706v51l378 614q92 149 132 256.5t40 208.5q0 154 -75 220t-225 66q-140 0 -267 -56v84q51 25 125.5 39.5t145.5 14.5q184 0 285 -86t101 -270q0 -117 -42 -234.5t-147 -286.5l-337 -540h592z" />
    <glyph glyph-name="three" unicode="3" horiz-adv-x="866" 
d="M710.5 636.5q81.5 -99.5 81.5 -252.5q0 -128 -53.5 -218.5t-152.5 -137t-236 -46.5q-161 0 -302 53v83q72 -27 149.5 -41t150.5 -14q167 0 261 81.5t94 239.5q0 159 -96 247.5t-290 88.5h-109v81h42q131 0 223 41t138.5 116t46.5 177q0 282 -312 282q-75 0 -141.5 -13.5
t-131.5 -41.5v82q52 25 126.5 39.5t148.5 14.5q194 0 296.5 -93.5t102.5 -268.5q0 -133 -71.5 -229t-203.5 -137q157 -34 238.5 -133.5z" />
    <glyph glyph-name="four" unicode="4" horiz-adv-x="1005" 
d="M965 457v-79h-198v-378h-85v378h-634v51l519 1051h92l-504 -1023h527l15 523h70v-523h198z" />
    <glyph glyph-name="five" unicode="5" horiz-adv-x="867" 
d="M690 709.5q126 -105.5 126 -307.5q0 -204 -113.5 -312t-326.5 -108q-168 0 -304 53v83q152 -55 304 -55q173 0 262 85t89 251q0 115 -46 188.5t-143 113t-253 48.5l-163 10l46 721h587v-80h-505l-38 -564l100 -6q252 -15 378 -120.5z" />
    <glyph glyph-name="six" unicode="6" horiz-adv-x="965" 
d="M724.5 786.5q88.5 -46.5 140 -141.5t51.5 -233q0 -141 -49 -238t-133 -144.5t-189 -47.5q-198 0 -311 162t-113 547q0 289 60 467.5t175 259t286 80.5q57 0 112.5 -10t100.5 -30v-83q-94 42 -216 42q-142 0 -236.5 -68.5t-143.5 -224.5t-49 -414v-1q54 58 137 91t178 33
q111 0 199.5 -46.5zM690 98q63 36 100.5 113t37.5 196q0 177 -86 261.5t-226 84.5q-88 0 -169.5 -33.5t-135.5 -103.5q10 -307 98 -430.5t238 -123.5q80 0 143 36z" />
    <glyph glyph-name="seven" unicode="7" horiz-adv-x="793" 
d="M8 1480h729v-51l-493 -1429h-91l486 1399h-631v81z" />
    <glyph glyph-name="eight" unicode="8" horiz-adv-x="1048" 
d="M838.5 646q63.5 -53 92.5 -122t29 -163q0 -113 -51.5 -199t-148 -133t-225.5 -47q-142 0 -242.5 46t-152.5 132.5t-52 206.5q0 136 74 244t202 159q-123 62 -178 148t-55 211q0 111 47.5 194.5t136 129t206.5 45.5q120 0 209 -45.5t137.5 -129t48.5 -196.5
q0 -127 -64 -225t-184 -159q107 -44 170.5 -97zM251.5 981q29.5 -61 101.5 -108t200 -88q9 -3 17 -5.5t14 -4.5q131 62 189.5 143t58.5 207q0 141 -82 217.5t-229 76.5q-143 0 -221 -76.5t-78 -211.5q0 -89 29.5 -150zM780.5 138.5q88.5 77.5 88.5 216.5q0 94 -31 155.5
t-103 106.5t-203 86q-42 13 -90 32q-125 -45 -194.5 -140t-69.5 -226q0 -149 89.5 -228.5t267.5 -79.5q157 0 245.5 77.5z" />
    <glyph glyph-name="nine" unicode="9" horiz-adv-x="965" 
d="M731 1336q113 -162 113 -547q0 -289 -60 -467.5t-175 -259t-286 -80.5q-57 0 -112.5 10t-100.5 30v83q95 -42 216 -42q142 0 236.5 68.5t143.5 224.5t49 414v1q-54 -58 -137 -91t-178 -33q-111 0 -199.5 46.5t-140 141.5t-51.5 233q0 141 49 238t133 144.5t189 47.5
q198 0 311 -162zM618.5 760.5q81.5 33.5 135.5 103.5q-10 307 -98 430.5t-238 123.5q-80 0 -143 -36t-100.5 -113t-37.5 -196q0 -177 86 -261.5t226 -84.5q88 0 169.5 33.5z" />
    <glyph glyph-name="colon" unicode=":" horiz-adv-x="372" 
d="M132.5 9.5q-20.5 20.5 -20.5 53.5q0 34 21 54.5t53 20.5t52.5 -21t20.5 -54t-20 -53.5t-53 -20.5t-53.5 20.5zM132.5 963.5q-20.5 20.5 -20.5 53.5q0 34 21 54.5t53 20.5t52.5 -21t20.5 -54t-20 -53.5t-53 -20.5t-53.5 20.5z" />
    <glyph glyph-name="semicolon" unicode=";" horiz-adv-x="372" 
d="M239 114q20 -24 20 -75q0 -174 -75 -343h-55q28 87 43.5 156.5t18.5 136.5h-5q-32 0 -53 21t-21 55q0 32 20 52.5t52 20.5q35 0 55 -24zM132.5 963.5q-20.5 20.5 -20.5 53.5q0 34 21 54.5t53 20.5t52.5 -21t20.5 -54t-20 -53.5t-53 -20.5t-53.5 20.5z" />
    <glyph glyph-name="less" unicode="&#x3c;" horiz-adv-x="1017" 
d="M877 1125v-86l-637 -279l637 -279v-86l-737 328v74z" />
    <glyph glyph-name="equal" unicode="=" horiz-adv-x="1017" 
d="M140 906v78h737v-78h-737zM140 536v78h737v-78h-737z" />
    <glyph glyph-name="greater" unicode="&#x3e;" horiz-adv-x="1017" 
d="M140 1125l737 -328v-74l-737 -328v86l637 279l-637 279v86z" />
    <glyph glyph-name="question" unicode="?" horiz-adv-x="770" 
d="M289 744q124 49 196.5 105.5t104.5 125.5t32 160q0 282 -313 282q-74 0 -140 -13.5t-131 -41.5v82q51 25 126 39.5t149 14.5q194 0 296 -93.5t102 -268.5q0 -103 -32 -180t-105.5 -140.5t-198.5 -121.5l-11 -379h-60zM281 9.5q-21 20.5 -21 52.5q0 34 21 54.5t53 20.5
t52.5 -20.5t20.5 -54.5q0 -32 -20 -52.5t-53 -20.5q-32 0 -53 20.5z" />
    <glyph glyph-name="at" unicode="@" horiz-adv-x="1574" 
d="M1166.5 1403.5q151.5 -94.5 231.5 -301.5t80 -540q0 -200 -36.5 -329t-98 -189t-140.5 -60q-73 0 -118 37t-59 102h-8q-49 -69 -120.5 -104t-158.5 -35q-85 0 -149.5 32.5t-100.5 96.5t-36 156q0 140 82 217t253 96l230 26v147q0 99 -28.5 156t-84 80.5t-141.5 23.5
q-55 0 -121 -11.5t-130 -34.5v83q54 20 124.5 32t132.5 12q112 0 185.5 -33t112 -108.5t38.5 -202.5v-537q0 -79 24.5 -117t80.5 -38q49 0 91 47.5t68.5 158.5t26.5 290q0 321 -71 511t-204 271.5t-330 81.5q-198 0 -332 -83t-206 -280.5t-72 -532.5q0 -342 74 -540.5
t215 -282t357 -83.5q82 0 158.5 14.5t158.5 43.5v-80q-152 -56 -317 -56q-242 0 -403 95.5t-245.5 311.5t-84.5 573q0 352 82 568.5t236 313t379 96.5q223 0 374.5 -94.5zM896.5 101q69.5 38 121.5 125v306l-229 -25q-125 -14 -184 -70t-59 -158q0 -109 53 -162.5t154 -53.5
q74 0 143.5 38z" />
    <glyph glyph-name="A" unicode="A" horiz-adv-x="1141" 
d="M1023 0l-168 516h-572l-168 -516h-91l488 1480h117l488 -1480h-94zM310 599h518l-259 795z" />
    <glyph glyph-name="B" unicode="B" horiz-adv-x="1100" 
d="M951 639.5q76 -97.5 76 -247.5q0 -203 -137.5 -303t-438.5 -100q-152 0 -292 16v1460q152 29 322 29q176 0 287 -41t164 -125t53 -216q0 -128 -62 -221t-201 -125q153 -29 229 -126.5zM247 1396v-595h246q151 0 239.5 36t126 103.5t37.5 169.5q0 110 -41 176t-131.5 97
t-242.5 31q-130 0 -234 -18zM738.5 104q104.5 34 152 104t47.5 182q0 166 -98.5 248t-306.5 82h-286v-640q86 -10 213 -10q174 0 278.5 34z" />
    <glyph glyph-name="C" unicode="C" horiz-adv-x="941" 
d="M346.5 54q-120.5 72 -186 239t-65.5 445q0 276 65.5 443.5t189 242t307.5 74.5q131 0 265 -39v-85q-70 23 -134 32.5t-136 9.5q-156 0 -257 -63t-154 -211t-53 -400q0 -257 53.5 -406t153 -210.5t249.5 -61.5q69 0 134.5 12.5t143.5 39.5v-84q-139 -50 -279 -50
q-176 0 -296.5 72z" />
    <glyph glyph-name="D" unicode="D" horiz-adv-x="1167" 
d="M159 4v1463q160 27 288 27q315 0 470 -184.5t155 -569.5q0 -264 -74 -430t-218.5 -243.5t-361.5 -77.5q-101 0 -259 15zM736.5 139q121.5 67 182 214t60.5 387q0 237 -57 385t-174 217.5t-301 69.5q-87 0 -199 -15v-1316q82 -9 178 -9q189 0 310.5 67z" />
    <glyph glyph-name="E" unicode="E" horiz-adv-x="957" 
d="M247 83h675v-83h-763v1480h753v-83h-665v-595h574v-83h-574v-636z" />
    <glyph glyph-name="F" unicode="F" horiz-adv-x="920" 
d="M903 1397h-655v-598h564v-83h-564v-716h-89v1480h744v-83z" />
    <glyph glyph-name="G" unicode="G" horiz-adv-x="1117" 
d="M992 720v-706q-137 -25 -253 -25q-217 0 -358.5 73t-213.5 237.5t-72 438.5q0 276 71 444t203 242t325 74q146 0 278 -40v-84q-134 42 -280 42q-167 0 -277 -63t-168.5 -212t-58.5 -403q0 -250 60 -396t179.5 -208t309.5 -62q92 0 168 14v634h87z" />
    <glyph glyph-name="H" unicode="H" horiz-adv-x="1229" 
d="M159 0v1480h89v-677h734v677h88v-1480h-88v718h-734v-718h-89z" />
    <glyph glyph-name="I" unicode="I" horiz-adv-x="407" 
d="M159 0v1480h89v-1480h-89z" />
    <glyph glyph-name="J" unicode="J" horiz-adv-x="407" 
d="M-9 -298q61 97 97.5 183t53.5 182.5t17 219.5v1193h89v-1220q-6 -177 -49.5 -312.5t-144.5 -288.5z" />
    <glyph glyph-name="K" unicode="K" horiz-adv-x="1052" 
d="M989 0l-553 718h-188v-718h-89v1480h89v-679h191l511 679h101l-544 -717l585 -763h-103z" />
    <glyph glyph-name="L" unicode="L" horiz-adv-x="899" 
d="M159 0v1480h89v-1396h647v-84h-736z" />
    <glyph glyph-name="M" unicode="M" horiz-adv-x="1530" 
d="M1265 1480h102v-1480h-85v1315l-472 -1114h-90l-472 1107v-1308h-85v1480h102l502 -1186z" />
    <glyph glyph-name="N" unicode="N" horiz-adv-x="1256" 
d="M1012 1480h85v-1480h-96l-757 1329v-1329h-85v1480h96l757 -1329v1329z" />
    <glyph glyph-name="O" unicode="O" horiz-adv-x="1179" 
d="M223 160.5q-128 178.5 -128 579.5t128 579.5t366 178.5q239 0 366.5 -178.5t127.5 -579.5t-127.5 -579.5t-366.5 -178.5q-238 0 -366 178.5zM805 126.5q88 62.5 136.5 211t48.5 398.5q0 254 -48.5 404t-136.5 213t-216 63t-216 -62.5t-136.5 -211t-48.5 -398.5
q0 -254 48.5 -404t136.5 -213t216 -63t216 62.5z" />
    <glyph glyph-name="P" unicode="P" horiz-adv-x="1064" 
d="M159 1467q160 27 296 27q261 0 390.5 -121t129.5 -373q0 -243 -137 -366.5t-420 -123.5q-95 0 -170 8v-518h-89v1467zM772 690.5q112 98.5 112 305.5q0 218 -103.5 317.5t-323.5 99.5q-102 0 -209 -16v-795q73 -10 176 -10q236 0 348 98.5z" />
    <glyph glyph-name="Q" unicode="Q" horiz-adv-x="1179" 
d="M962 174.5q-121 -190.5 -362 -186.5q184 -69 461 -97l-16 -82q-373 49 -575.5 147t-288.5 281.5t-86 502.5q0 401 128 579.5t366 178.5q239 0 366.5 -178.5t127.5 -579.5q0 -375 -121 -565.5zM236.5 340q48.5 -150 136.5 -213t216 -63t216 62.5t136.5 211t48.5 398.5
q0 254 -48.5 404t-136.5 213t-216 63t-216 -62.5t-136.5 -211t-48.5 -398.5q0 -254 48.5 -404z" />
    <glyph glyph-name="R" unicode="R" horiz-adv-x="1131" 
d="M991 0l-460 648q-60 -5 -114 -5q-92 0 -170 5v-648h-88v1467q80 13 154 20t159 7q252 0 376.5 -105t124.5 -314q2 -170 -87 -274.5t-265 -139.5l471 -661h-101zM772.5 807q113.5 85 113.5 266q0 175 -98 258t-318 83q-113 0 -223 -18v-668q99 -6 165 -6q247 0 360.5 85z
" />
    <glyph glyph-name="S" unicode="S" horiz-adv-x="878" 
d="M225.5 -5q-75.5 13 -144.5 38v84q153 -53 293 -53q171 0 258.5 78t87.5 233q0 88 -28 147.5t-89 101.5t-164 78l-57 19q-159 56 -238 150t-79 243q0 182 113.5 283t327.5 101q64 0 132.5 -9.5t118.5 -26.5v-84q-121 38 -252 38q-174 0 -261 -76t-87 -220q0 -84 27 -142
t86 -99t158 -76l56 -19q165 -57 247 -153.5t82 -249.5q0 -192 -115.5 -295.5t-328.5 -103.5q-68 0 -143.5 13z" />
    <glyph glyph-name="T" unicode="T" horiz-adv-x="993" 
d="M452 0v1396h-444v84h977v-84h-444v-1396h-89z" />
    <glyph glyph-name="U" unicode="U" horiz-adv-x="1207" 
d="M346 38q-100 56 -147.5 169.5t-47.5 291.5v981h89v-993q0 -218 86 -320.5t279 -102.5q192 0 278 102.5t86 320.5v993h86v-981q0 -178 -46.5 -292t-146 -169.5t-257.5 -55.5q-159 0 -259 56z" />
    <glyph glyph-name="V" unicode="V" horiz-adv-x="1109" 
d="M1012 1480h89l-483 -1480h-126l-484 1480h95l453 -1402z" />
    <glyph glyph-name="W" unicode="W" horiz-adv-x="1788" 
d="M1649 1480h86l-373 -1480h-120l-347 1378l-349 -1378h-120l-373 1480h92l344 -1390l349 1390h115l349 -1390z" />
    <glyph glyph-name="X" unicode="X" horiz-adv-x="1089" 
d="M596 750l466 -750h-103l-414 670l-416 -670h-102l466 750l-454 730h102l404 -652l403 652h102z" />
    <glyph glyph-name="Y" unicode="Y" horiz-adv-x="993" 
d="M1010 1480l-469 -806v-674h-89v674l-477 806h99l423 -719l418 719h95z" />
    <glyph glyph-name="Z" unicode="Z" horiz-adv-x="960" 
d="M169 82h737v-82h-852v51l727 1347h-717v82h832v-51z" />
    <glyph glyph-name="bracketleft" unicode="[" horiz-adv-x="554" 
d="M179 -440v2056h414v-79h-326v-1898h326v-79h-414z" />
    <glyph glyph-name="backslash" unicode="\" horiz-adv-x="439" 
d="M350 -240l-350 1856h89l350 -1856h-89z" />
    <glyph glyph-name="bracketright" unicode="]" horiz-adv-x="554" 
d="M-39 -440v79h326v1898h-326v79h414v-2056h-414z" />
    <glyph glyph-name="asciicircum" unicode="^" 
d="M902 740h-93l-302 668l-303 -668h-94l341 740h108z" />
    <glyph glyph-name="underscore" unicode="_" horiz-adv-x="932" 
d="M89 -79v79h754v-79h-754z" />
    <glyph glyph-name="grave" unicode="`" horiz-adv-x="825" 
d="M376 1261l-170 355h92l151 -355h-73z" />
    <glyph glyph-name="a" unicode="a" horiz-adv-x="862" 
d="M581 1063.5q74 -33.5 112.5 -110.5t38.5 -206v-747h-76l-8 121h-8q-48 -68 -118.5 -102.5t-156.5 -34.5t-150.5 33t-100 97t-35.5 155q0 140 82.5 217.5t252.5 95.5l230 26v142q0 102 -29 160.5t-84.5 82t-143.5 23.5q-55 0 -121.5 -11.5t-130.5 -33.5v83
q54 20 124.5 31.5t134.5 11.5q113 0 187 -33.5zM522.5 101q69.5 38 121.5 125v306l-229 -25q-125 -13 -184 -69.5t-59 -158.5q0 -109 53 -162.5t154 -53.5q74 0 143.5 38z" />
    <glyph glyph-name="b" unicode="b" horiz-adv-x="926" 
d="M252 -8q-66 10 -112 28v1596h88v-637h7q39 51 104 84.5t147 33.5q159 0 257 -124t98 -413q0 -578 -462 -578q-61 0 -127 10zM656.5 177q92.5 115 92.5 374q0 181 -35.5 283t-96 141.5t-145.5 39.5q-74 0 -141 -38.5t-103 -108.5v-785q30 -9 73 -15t80 -6q183 0 275.5 115
z" />
    <glyph glyph-name="c" unicode="c" horiz-adv-x="711" 
d="M259.5 37q-85.5 55 -130 178t-44.5 326t49 325.5t144.5 176.5t241.5 54q91 0 174 -21v-84q-83 23 -166 23q-123 0 -199 -42.5t-113.5 -145t-37.5 -282.5q0 -182 34 -287.5t101.5 -149.5t173.5 -44q90 0 207 41v-84q-113 -39 -220 -39q-129 0 -214.5 55z" />
    <glyph glyph-name="d" unicode="d" horiz-adv-x="926" 
d="M184 106q-99 124 -99 413q0 297 119 437.5t349 140.5q77 0 145 -9v528h88v-1616h-77l-7 107h-8q-39 -55 -103.5 -90t-145.5 -35q-162 0 -261 124zM595.5 103.5q66.5 39.5 102.5 111.5v789q-29 5 -72 9t-77 4q-186 0 -279 -115t-93 -374q0 -181 35.5 -283t96.5 -141.5
t146 -39.5q74 0 140.5 39.5z" />
    <glyph glyph-name="e" unicode="e" horiz-adv-x="857" 
d="M784 505h-607q2 -165 39.5 -262t109.5 -138.5t184 -41.5q95 0 226 41v-83q-117 -39 -233 -39q-141 0 -232.5 54.5t-138.5 178t-47 326.5q0 292 95.5 424t262.5 132q165 0 253 -129.5t88 -427.5v-35zM251 921.5q-70 -98.5 -74 -340.5h517q-2 166 -33 263t-85.5 136.5
t-132.5 39.5q-122 0 -192 -98.5z" />
    <glyph glyph-name="f" unicode="f" horiz-adv-x="573" 
d="M344 1503.5q-52 -51.5 -52 -164.5v-258h295v-79h-295v-1002h-88v1002h-196v79h196v258q0 147 75 222t221 75q72 0 122 -10v-83q-61 12 -122 12q-104 0 -156 -51.5z" />
    <glyph glyph-name="g" unicode="g" horiz-adv-x="926" 
d="M265.5 -448.5q-67.5 11.5 -119.5 31.5v83q129 -45 247 -45q104 0 170.5 32.5t100.5 107.5t34 200v140h-7q-39 -51 -104.5 -84.5t-146.5 -33.5q-159 0 -257 124t-98 412q0 578 462 578q60 0 127 -10.5t112 -27.5v-1090q0 -227 -97 -328t-294 -101q-62 0 -129.5 11.5z
M595 102.5q67 38.5 103 108.5v787q-30 8 -73 13.5t-80 5.5q-183 0 -275.5 -115t-92.5 -374q0 -180 35.5 -282.5t96 -142t145.5 -39.5q74 0 141 38.5z" />
    <glyph glyph-name="h" unicode="h" horiz-adv-x="941" 
d="M140 1616h88v-658h7q57 70 132 104.5t160 34.5q283 0 283 -331v-766h-88v768q0 132 -54 188t-155 56q-78 0 -157 -40.5t-128 -128.5v-843h-88v1616z" />
    <glyph glyph-name="i" unicode="i" horiz-adv-x="368" 
d="M140 0v1081h88v-1081h-88zM131 1370q-20 19 -20 52t20 53t53 20t52.5 -20t19.5 -53t-19.5 -52t-52.5 -19t-53 19z" />
    <glyph glyph-name="j" unicode="j" horiz-adv-x="368" 
d="M-28 -419q91 144 129.5 274.5t38.5 311.5v914h88v-904q0 -135 -20 -239.5t-61.5 -198t-111.5 -200.5zM131 1370q-20 19 -20 52t20 53t53 20t52.5 -20t19.5 -53t-19.5 -52t-52.5 -19t-53 19z" />
    <glyph glyph-name="k" unicode="k" horiz-adv-x="848" 
d="M769 0l-376 513h-165v-513h-88v1616h88v-1024h164l347 489h102l-374 -527l406 -554h-104z" />
    <glyph glyph-name="l" unicode="l" horiz-adv-x="368" 
d="M140 0v1616h88v-1616h-88z" />
    <glyph glyph-name="m" unicode="m" horiz-adv-x="1461" 
d="M1256.5 1020.5q74.5 -76.5 74.5 -254.5v-766h-88v764q0 250 -200 250q-70 0 -144 -40.5t-122 -132.5q4 -31 4 -74v-767h-87v764q0 135 -52 192.5t-144 57.5q-72 0 -147.5 -42.5t-122.5 -134.5v-837h-88v1081h76l8 -125h8q56 71 129 106t154 35q185 0 241 -159
q63 85 141.5 122t159.5 37q125 0 199.5 -76.5z" />
    <glyph glyph-name="n" unicode="n" horiz-adv-x="941" 
d="M140 1081h76l8 -123h8q55 67 130.5 103t163.5 36q284 0 284 -325v-772h-88v768q0 133 -54 189.5t-155 56.5q-77 0 -156.5 -41t-128.5 -130v-843h-88v1081z" />
    <glyph glyph-name="o" unicode="o" horiz-adv-x="922" 
d="M85 540q0 293 97.5 425t278.5 132q376 0 376 -557q0 -293 -97.5 -425.5t-278.5 -132.5q-376 0 -376 558zM614.5 105q62.5 44 96.5 148.5t34 282.5q0 182 -34 288t-96 150t-154 44t-154 -43.5t-96 -148t-34 -282.5q0 -182 34 -288.5t96 -150.5t154 -44q91 0 153.5 44z" />
    <glyph glyph-name="p" unicode="p" horiz-adv-x="926" 
d="M140 1081h77l7 -109h8q39 55 103.5 90t145.5 35q162 0 261 -124t99 -412q0 -298 -119 -438.5t-349 -140.5q-64 0 -145 9v-431h-88v1521zM656 177q93 115 93 374q0 181 -35.5 283t-96.5 141.5t-146 39.5q-74 0 -140.5 -39.5t-102.5 -111.5v-789q29 -5 72 -9t77 -4
q186 0 279 115z" />
    <glyph glyph-name="q" unicode="q" horiz-adv-x="926" 
d="M698 101h-7q-39 -51 -104 -85t-147 -34q-159 0 -257 124t-98 413q0 578 462 578q60 0 127 -10.5t112 -27.5v-1499h-88v541zM595 102.5q67 38.5 103 108.5v787q-30 8 -73 13.5t-80 5.5q-183 0 -275.5 -115t-92.5 -373q0 -181 35.5 -283.5t96 -142t145.5 -39.5
q74 0 141 38.5z" />
    <glyph glyph-name="r" unicode="r" horiz-adv-x="579" 
d="M140 1081h76l7 -146h9q50 76 124 115.5t158 39.5q31 0 55 -4v-87q-21 3 -59 3q-84 0 -162 -48.5t-120 -134.5v-819h-88v1081z" />
    <glyph glyph-name="s" unicode="s" horiz-adv-x="732" 
d="M92 20v83q66 -21 121 -30.5t110 -9.5q125 0 192.5 55.5t67.5 159.5q0 91 -42 139.5t-131 73.5l-96 27q-130 37 -185.5 106t-55.5 179q0 85 41 151.5t120 104.5t188 38q102 0 198 -22v-83q-54 13 -99 19t-97 6q-87 0 -146.5 -27.5t-88.5 -75.5t-29 -108q0 -82 41 -130.5
t127 -72.5l97 -27q136 -38 191 -109t55 -184q0 -142 -91.5 -221.5t-256.5 -79.5q-117 0 -231 38z" />
    <glyph glyph-name="t" unicode="t" horiz-adv-x="604" 
d="M599 80v-83q-63 -15 -125 -15q-135 0 -206.5 72.5t-71.5 232.5v715h-196v79h196l12 399h76v-399h296v-79h-296v-701q0 -130 48 -183.5t152 -53.5q51 0 115 16z" />
    <glyph glyph-name="u" unicode="u" horiz-adv-x="931" 
d="M130 313v768h88v-770q0 -132 54 -189t151 -57q75 0 154 41t126 129v846h88v-1081h-77l-7 119h-8q-57 -68 -131.5 -102.5t-155.5 -34.5q-282 0 -282 331z" />
    <glyph glyph-name="v" unicode="v" horiz-adv-x="870" 
d="M764 1081h96l-365 -1081h-120l-364 1081h96l329 -994z" />
    <glyph glyph-name="w" unicode="w" horiz-adv-x="1456" 
d="M1320 1081h87l-288 -1081h-113l-277 987l-279 -987h-114l-287 1081h90l257 -987l276 987h114l276 -986z" />
    <glyph glyph-name="x" unicode="x" horiz-adv-x="803" 
d="M452 547l340 -547h-101l-291 473l-289 -473h-98l337 545l-333 536h101l285 -460l284 460h98z" />
    <glyph glyph-name="y" unicode="y" horiz-adv-x="870" 
d="M764 1081h96l-513 -1521h-91l150 440h-31l-364 1081h96l327 -997z" />
    <glyph glyph-name="z" unicode="z" horiz-adv-x="750" 
d="M161 79h541v-79h-649v53l532 949h-522v79h629v-52z" />
    <glyph glyph-name="braceleft" unicode="{" horiz-adv-x="594" 
d="M178 623q129 -45 129 -213v-587q0 -103 50 -152.5t153 -49.5h123v-71q-52 -10 -123 -10q-144 0 -217.5 73.5t-73.5 217.5v581q0 171 -169 171h-8v79h8q169 0 169 171v512q0 144 73.5 217.5t217.5 73.5q71 0 123 -10v-71h-123q-103 0 -153 -49.5t-50 -152.5v-518
q0 -168 -129 -212z" />
    <glyph glyph-name="bar" unicode="|" horiz-adv-x="404" 
d="M159 -440v2056h85v-2056h-85z" />
    <glyph glyph-name="braceright" unicode="}" horiz-adv-x="594" 
d="M552 662v-79h-8q-169 0 -169 -171v-581q0 -144 -73.5 -217.5t-217.5 -73.5q-71 0 -123 10v71h123q103 0 153 49.5t50 152.5v587q0 168 129 213q-129 44 -129 212v518q0 103 -50 152.5t-153 49.5h-123v71q52 10 123 10q144 0 217.5 -73.5t73.5 -217.5v-512
q0 -171 169 -171h8z" />
    <glyph glyph-name="asciitilde" unicode="~" horiz-adv-x="1017" 
d="M593 673q-43 16 -104 47q-53 27 -86 40t-66 13q-115 0 -197 -108v96q34 44 84.5 67.5t110.5 23.5q47 0 91 -16t102 -47q53 -27 86.5 -40t66.5 -13q115 0 196 108v-96q-34 -44 -84.5 -67.5t-110.5 -23.5q-46 0 -89 16z" />
    <glyph glyph-name="uni00A0" unicode="&#xa0;" horiz-adv-x="416" 
 />
    <glyph glyph-name="exclamdown" unicode="&#xa1;" horiz-adv-x="412" 
d="M258.5 1072q20.5 -20 20.5 -53q0 -34 -20.5 -55t-52.5 -21t-53 21t-21 55q0 33 20.5 53t53.5 20q32 0 52.5 -20zM176 751h60l17 -567v-564h-94v564z" />
    <glyph glyph-name="cent" unicode="&#xa2;" horiz-adv-x="705" 
d="M327.5 972.5q-74.5 -42.5 -112 -145t-37.5 -282.5q0 -182 34 -287.5t101.5 -149.5t173.5 -44q90 0 207 41v-84q-93 -32 -182 -38v-223h-80v223q-115 9 -191.5 67.5t-116 179t-39.5 311.5q0 268 86 398t261 153v229h80v-224h9q90 0 173 -21v-84q-83 23 -172 23
q-120 0 -194.5 -42.5z" />
    <glyph glyph-name="sterling" unicode="&#xa3;" horiz-adv-x="1058" 
d="M1009 81v-81h-931v81h205v630h-205v78h205v301q0 203 113.5 305.5t330.5 102.5q65 0 133.5 -9.5t118.5 -26.5v-84q-117 38 -251 38q-180 0 -268.5 -78t-88.5 -247v-302h466v-78h-466v-630h638z" />
    <glyph glyph-name="currency" unicode="&#xa4;" 
d="M844 463l100 -96l-65 -65l-96 100l-63 86q-41 -38 -95.5 -58t-118.5 -20t-118.5 20t-94.5 57l-64 -85l-96 -100l-65 65l100 96l89 64q-64 87 -64 213q0 123 63 210l-88 67l-102 96l65 65l96 -100l66 -87q41 37 95 57t118 20t118 -20t95 -57l66 87l96 100l65 -65l-102 -96
l-88 -67q63 -87 63 -210q0 -62 -16.5 -116t-47.5 -96zM631.5 513.5q54.5 30.5 84.5 88.5t30 138q0 76 -27.5 134t-81.5 90.5t-129 32.5q-72 0 -126.5 -30.5t-85 -88.5t-30.5 -138t30 -138t84.5 -88.5t125.5 -30.5t125.5 30.5z" />
    <glyph glyph-name="yen" unicode="&#xa5;" horiz-adv-x="1045" 
d="M1040 1480l-439 -748h265v-74h-299v-268h299v-74h-299v-316h-88v316h-300v74h300v268h-300v74h266l-440 748h99l420 -719l421 719h95z" />
    <glyph glyph-name="brokenbar" unicode="&#xa6;" horiz-adv-x="404" 
d="M159 836v780h85v-780h-85zM159 -440v780h85v-780h-85z" />
    <glyph glyph-name="section" unicode="&#xa7;" horiz-adv-x="826" 
d="M701 565q-22 -53 -63 -91q34 -36 49 -83.5t15 -108.5q0 -141 -91.5 -220.5t-256.5 -79.5q-117 0 -231 38v81q126 -40 230 -40q126 0 194 56t68 160q0 90 -42.5 138.5t-131.5 74.5l-98 27q-129 36 -184.5 105t-55.5 179q0 61 24 114.5t68 93.5q-71 70 -71 192
q0 86 41 152.5t120 104.5t189 38q103 0 197 -22v-81q-53 13 -98 18.5t-97 5.5q-88 0 -147 -27.5t-88 -75.5t-29 -108q0 -82 40.5 -130.5t127.5 -72.5l98 -27q136 -38 190.5 -109t54.5 -184q0 -65 -22 -118zM456 571q71 -20 121 -49q65 59 65 156q0 91 -44 141t-134 76
l-99 27q-60 16 -106 41q-37 -30 -56 -70t-19 -87q0 -82 42.5 -132.5t130.5 -75.5z" />
    <glyph glyph-name="dieresis" unicode="&#xa8;" horiz-adv-x="825" 
d="M196 1370.5q-20 19.5 -20 51.5t20 52t51 20q32 0 51.5 -20t19.5 -52q0 -33 -19.5 -52t-51.5 -19q-31 0 -51 19.5zM526.5 1370q-19.5 19 -19.5 52q0 32 19.5 52t51.5 20q31 0 51 -20t20 -52t-20 -51.5t-51 -19.5q-32 0 -51.5 19z" />
    <glyph glyph-name="copyright" unicode="&#xa9;" horiz-adv-x="1679" 
d="M450 73q-169 95 -262 267.5t-93 399.5t93 399.5t262 267.5t390 95t389.5 -95t261.5 -267.5t93 -399.5t-93 -399.5t-261.5 -267.5t-389.5 -95t-390 95zM1189.5 140q150.5 85 233.5 240.5t83 359.5t-83 359.5t-233.5 240.5t-349.5 85t-350 -85t-234 -240.5t-83 -359.5
t83 -359.5t234 -240.5t350 -85t349.5 85zM671 370.5q-87 46.5 -135 138.5t-48 225q0 197 107 303.5t306 106.5q102 0 192 -28v-77q-98 27 -188 27q-162 0 -246.5 -81.5t-84.5 -246.5q0 -168 81 -252t228 -84q102 0 210 41v-78q-95 -41 -217 -41q-118 0 -205 46.5z" />
    <glyph glyph-name="ordfeminine" unicode="&#xaa;" horiz-adv-x="724" 
d="M548 1427q71 -66 71 -223v-594h-71l-7 97h-6q-41 -55 -101 -83t-132 -28q-71 0 -126 28t-85.5 80.5t-30.5 123.5q0 113 69.5 176.5t216.5 78.5l191 19v108q0 79 -24 124t-71.5 64t-121.5 19q-93 0 -210 -39v77q46 18 106 28t113 10q148 0 219 -66zM437.5 699.5
q57.5 29.5 99.5 95.5v239l-188 -19q-104 -10 -153.5 -53t-49.5 -123q0 -84 45 -126.5t129 -42.5q60 0 117.5 29.5z" />
    <glyph glyph-name="guillemotleft" unicode="&#xab;" horiz-adv-x="736" 
d="M295 139l-188 422l188 421h88l-189 -421l189 -422h-88zM581 139l-188 422l188 421h88l-189 -421l189 -422h-88z" />
    <glyph glyph-name="logicalnot" unicode="&#xac;" horiz-adv-x="1240" 
d="M1026 192v529h-886v78h970v-607h-84z" />
    <glyph glyph-name="uni00AD" unicode="&#xad;" horiz-adv-x="681" 
d="M140 521v79h402v-79h-402z" />
    <glyph glyph-name="registered" unicode="&#xae;" horiz-adv-x="1480" 
d="M1057.5 1420q138.5 -78 215.5 -218t77 -320t-77 -319.5t-215.5 -217t-317.5 -77.5t-317.5 77.5t-215.5 217t-77 319.5t77 320t215.5 218t317.5 78t317.5 -78zM1022 407q121 67 187.5 189.5t66.5 285.5t-66.5 286t-188 190.5t-281.5 67.5t-281.5 -67.5t-188 -190.5
t-66.5 -286t66.5 -285.5t187.5 -189.5t282 -67t282 67zM937 897.5q-34 -43.5 -102 -61.5l161 -236h-83l-153 224q-11 -1 -34 -1h-122l-1 -223h-72v592h195q120 0 182.5 -48t62.5 -137q0 -66 -34 -109.5zM739 890q82 0 121 28.5t39 88.5t-39.5 89.5t-120.5 29.5h-135v-236
h135z" />
    <glyph glyph-name="macron" unicode="&#xaf;" horiz-adv-x="825" 
d="M156 1388v70h513v-70h-513z" />
    <glyph glyph-name="degree" unicode="&#xb0;" horiz-adv-x="912" 
d="M288 887q-74 42 -116 116.5t-42 167.5t42 167t116 116t168 42t168 -42t116 -116t42 -167t-42 -167.5t-116 -116.5t-168 -42t-168 42zM584 950q56 31 87.5 88t31.5 133t-31.5 132.5t-87.5 87.5t-128 31t-128 -31t-87.5 -87.5t-31.5 -132.5t31.5 -133t87.5 -88t128 -31
t128 31z" />
    <glyph glyph-name="plusminus" unicode="&#xb1;" horiz-adv-x="1017" 
d="M467 320v347h-327v79h327v346h83v-346h327v-79h-327v-347h-83zM140 0v79h737v-79h-737z" />
    <glyph glyph-name="uni00B2" unicode="&#xb2;" horiz-adv-x="689" 
d="M579 -62v-74h-488v48l260 404q64 101 92.5 170t28.5 133q0 98 -51.5 141t-153.5 43q-103 0 -188 -38v75q37 18 88.5 27t106.5 9q132 0 205 -60.5t73 -188.5q0 -76 -30.5 -154.5t-104.5 -192.5l-221 -342h383z" />
    <glyph glyph-name="uni00B3" unicode="&#xb3;" horiz-adv-x="689" 
d="M549 296q56 -67 56 -171q0 -131 -84.5 -202t-232.5 -71q-115 0 -214 35v75q99 -38 211 -38q114 0 178 52t64 153q0 100 -65 155.5t-197 55.5h-83v75h42q130 0 200.5 56.5t70.5 152.5q0 180 -213 180q-103 0 -191 -38v74q35 17 88.5 26.5t107.5 9.5q139 0 212.5 -63.5
t73.5 -184.5q0 -88 -49.5 -152t-139.5 -90q109 -23 165 -90z" />
    <glyph glyph-name="acute" unicode="&#xb4;" horiz-adv-x="825" 
d="M376 1261l152 355h91l-170 -355h-73z" />
    <glyph glyph-name="uni00B5" unicode="&#xb5;" horiz-adv-x="931" 
d="M791 1081v-1081h-77l-7 119h-8q-56 -68 -128.5 -102.5t-151.5 -34.5q-68 0 -118 21t-83 69v-512h-88v1521h88v-770q0 -132 54 -189t151 -57q75 0 154 41t126 129v846h88z" />
    <glyph glyph-name="paragraph" unicode="&#xb6;" horiz-adv-x="1064" 
d="M615 516q-61 -6 -112 -6q-210 0 -312 123.5t-102 366.5q0 252 96.5 373t292.5 121q102 0 218 -14v-1480h-81v516zM825 0v1480h80v-1480h-80z" />
    <glyph glyph-name="periodcentered" unicode="&#xb7;" horiz-adv-x="372" 
d="M132.5 505q-20.5 20 -20.5 53q0 34 21 54.5t53 20.5t52.5 -20.5t20.5 -54.5q0 -33 -20 -53t-53 -20t-53.5 20z" />
    <glyph glyph-name="cedilla" unicode="&#xb8;" horiz-adv-x="825" 
d="M546.5 -158q34.5 -38 34.5 -100q0 -67 -45.5 -106.5t-127.5 -39.5q-38 0 -78 9t-68 25v62q68 -38 150 -38q105 0 105 89q0 92 -107 92h-27v185h64v-133q65 -7 99.5 -45z" />
    <glyph glyph-name="uni00B9" unicode="&#xb9;" horiz-adv-x="689" 
d="M423 -62h194v-74h-476v74h203v823l-212 -160v83l244 184h47v-930z" />
    <glyph glyph-name="ordmasculine" unicode="&#xba;" horiz-adv-x="772" 
d="M149 704q-84 108 -84 342q0 447 321 447q152 0 236.5 -107t84.5 -340t-84.5 -341.5t-236.5 -108.5q-153 0 -237 108zM513 704.5q51 34.5 79 117t28 224.5q0 141 -28 223.5t-79 116t-127 33.5t-127.5 -33.5t-79.5 -116t-28 -223.5t28 -224t79.5 -117.5t127.5 -34.5
t127 34.5z" />
    <glyph glyph-name="guillemotright" unicode="&#xbb;" horiz-adv-x="736" 
d="M67 139l188 422l-188 421h87l189 -421l-189 -422h-87zM353 139l188 422l-188 421h87l189 -421l-189 -422h-87z" />
    <glyph glyph-name="onequarter" unicode="&#xbc;" horiz-adv-x="1572" 
d="M423 690h194v-74h-476v74h203v823l-212 -160v83l244 184h47v-930zM386 -136l719 1752h81l-718 -1752h-82zM1542 182v-70h-130v-248h-74v248h-422v48l340 704h81l-328 -682h329l15 344h59v-344h130z" />
    <glyph glyph-name="onehalf" unicode="&#xbd;" horiz-adv-x="1572" 
d="M423 690h194v-74h-476v74h203v823l-212 -160v83l244 184h47v-930zM386 -136l719 1752h81l-718 -1752h-82zM1462 -62v-74h-488v48l260 404q64 101 92.5 170t28.5 133q0 98 -51.5 141t-153.5 43q-103 0 -188 -38v75q37 18 88.5 27t106.5 9q132 0 205 -60.5t73 -188.5
q0 -76 -30.5 -154.5t-104.5 -192.5l-221 -342h383z" />
    <glyph glyph-name="threequarters" unicode="&#xbe;" horiz-adv-x="1572" 
d="M549 1048q56 -67 56 -171q0 -131 -84.5 -202t-232.5 -71q-115 0 -214 35v75q99 -38 211 -38q114 0 178 52t64 153q0 100 -65 155.5t-197 55.5h-83v75h42q130 0 200.5 56.5t70.5 152.5q0 180 -213 180q-103 0 -191 -38v74q35 17 88.5 26.5t107.5 9.5q139 0 212.5 -63.5
t73.5 -184.5q0 -88 -49.5 -152t-139.5 -90q109 -23 165 -90zM386 -136l719 1752h81l-718 -1752h-82zM1542 182v-70h-130v-248h-74v248h-422v48l340 704h81l-328 -682h329l15 344h59v-344h130z" />
    <glyph glyph-name="questiondown" unicode="&#xbf;" horiz-adv-x="770" 
d="M488.5 1071.5q20.5 -20.5 20.5 -52.5q0 -34 -20.5 -54.5t-52.5 -20.5t-53 21t-21 54q0 32 20.5 52.5t53.5 20.5q32 0 52.5 -20.5zM481 337q-124 -49 -197 -104.5t-105 -123t-32 -155.5q0 -135 78.5 -204t234.5 -69q146 0 271 56v-83q-51 -25 -125.5 -39.5t-148.5 -14.5
q-194 0 -296.5 92t-102.5 261q0 99 32 174.5t105.5 138.5t198.5 121l12 380h60z" />
    <glyph glyph-name="Agrave" unicode="&#xc0;" horiz-adv-x="1141" 
d="M1023 0l-168 516h-572l-168 -516h-91l488 1480h117l488 -1480h-94zM310 599h518l-259 795zM534 1614l-149 275h92l131 -275h-74z" />
    <glyph glyph-name="Aacute" unicode="&#xc1;" horiz-adv-x="1141" 
d="M1023 0l-168 516h-572l-168 -516h-91l488 1480h117l488 -1480h-94zM310 599h518l-259 795zM534 1614l130 275h92l-148 -275h-74z" />
    <glyph glyph-name="Acircumflex" unicode="&#xc2;" horiz-adv-x="1141" 
d="M1023 0l-168 516h-572l-168 -516h-91l488 1480h117l488 -1480h-94zM310 599h518l-259 795zM812 1614h-82l-159 229l-160 -229h-82l196 275h91z" />
    <glyph glyph-name="Atilde" unicode="&#xc3;" horiz-adv-x="1141" 
d="M1023 0l-168 516h-572l-168 -516h-91l488 1480h117l488 -1480h-94zM310 599h518l-259 795zM632 1700q-33 11 -74 31q-42 19 -66.5 27.5t-51.5 8.5q-42 0 -75 -17.5t-64 -54.5v77q52 63 139 63q35 0 67 -10.5t76 -31.5q39 -19 65 -28t53 -9q43 0 75.5 17.5t63.5 55.5v-77
q-52 -63 -139 -63q-36 0 -69 11z" />
    <glyph glyph-name="Adieresis" unicode="&#xc4;" horiz-adv-x="1141" 
d="M1023 0l-168 516h-572l-168 -516h-91l488 1480h117l488 -1480h-94zM310 599h518l-259 795zM334.5 1701q-19.5 19 -19.5 51t19.5 51.5t51.5 19.5t51.5 -19.5t19.5 -51.5t-19.5 -51t-51.5 -19t-51.5 19zM703.5 1701q-19.5 19 -19.5 51t19.5 51.5t51.5 19.5t51.5 -19.5
t19.5 -51.5t-19.5 -51t-51.5 -19t-51.5 19z" />
    <glyph glyph-name="Aring" unicode="&#xc5;" horiz-adv-x="1141" 
d="M1023 0l-168 516h-572l-168 -516h-91l488 1480h117l488 -1480h-94zM310 599h518l-259 795zM475 1631q-43 24 -67 67t-24 96t24 95.5t67 66.5t96 24t95.5 -24t66.5 -66.5t24 -95.5t-24 -96t-66.5 -67t-95.5 -24t-96 24zM662 1700q35 35 35 94t-35 94t-91 35q-57 0 -92 -35
t-35 -94t35 -94t92 -35q56 0 91 35z" />
    <glyph glyph-name="AE" unicode="&#xc6;" horiz-adv-x="1565" 
d="M907 83h622v-83h-706l-23 516h-511l-173 -516h-92l499 1480h996v-83h-673l28 -595h554v-83h-551zM317 599h479l-36 798h-176z" />
    <glyph glyph-name="Ccedilla" unicode="&#xc7;" horiz-adv-x="941" 
d="M395 1353q-101 -63 -154 -211t-53 -400q0 -257 53.5 -406t153 -210.5t249.5 -61.5q69 0 134.5 12.5t143.5 39.5v-84q-139 -50 -279 -50h-9v-92q74 -5 117.5 -42.5t43.5 -103.5q0 -71 -49.5 -109.5t-133.5 -38.5q-94 0 -174 37v62q50 -22 91 -31.5t81 -9.5q56 0 88 22.5
t32 68.5q0 45 -32.5 67.5t-89.5 22.5h-38v150q-153 14 -257.5 92.5t-161 240.5t-56.5 420q0 276 65.5 443.5t189 242t307.5 74.5q131 0 265 -39v-85q-70 23 -134 32.5t-136 9.5q-156 0 -257 -63z" />
    <glyph glyph-name="Egrave" unicode="&#xc8;" horiz-adv-x="957" 
d="M247 83h675v-83h-763v1480h753v-83h-665v-595h574v-83h-574v-636zM522 1614l-149 275h92l131 -275h-74z" />
    <glyph glyph-name="Eacute" unicode="&#xc9;" horiz-adv-x="957" 
d="M247 83h675v-83h-763v1480h753v-83h-665v-595h574v-83h-574v-636zM522 1614l130 275h92l-148 -275h-74z" />
    <glyph glyph-name="Ecircumflex" unicode="&#xca;" horiz-adv-x="957" 
d="M247 83h675v-83h-763v1480h753v-83h-665v-595h574v-83h-574v-636zM800 1614h-82l-159 229l-160 -229h-82l196 275h91z" />
    <glyph glyph-name="Edieresis" unicode="&#xcb;" horiz-adv-x="957" 
d="M247 83h675v-83h-763v1480h753v-83h-665v-595h574v-83h-574v-636zM322.5 1701q-19.5 19 -19.5 51t19.5 51.5t51.5 19.5t51.5 -19.5t19.5 -51.5t-19.5 -51t-51.5 -19t-51.5 19zM691.5 1701q-19.5 19 -19.5 51t19.5 51.5t51.5 19.5t51.5 -19.5t19.5 -51.5t-19.5 -51
t-51.5 -19t-51.5 19z" />
    <glyph glyph-name="Igrave" unicode="&#xcc;" horiz-adv-x="407" 
d="M159 0v1480h89v-1480h-89zM166 1614l-149 275h92l131 -275h-74z" />
    <glyph glyph-name="Iacute" unicode="&#xcd;" horiz-adv-x="407" 
d="M159 0v1480h89v-1480h-89zM166 1614l130 275h92l-148 -275h-74z" />
    <glyph glyph-name="Icircumflex" unicode="&#xce;" horiz-adv-x="407" 
d="M159 0v1480h89v-1480h-89zM444 1614h-82l-159 229l-160 -229h-82l196 275h91z" />
    <glyph glyph-name="Idieresis" unicode="&#xcf;" horiz-adv-x="407" 
d="M159 0v1480h89v-1480h-89zM-33.5 1701q-19.5 19 -19.5 51t19.5 51.5t51.5 19.5t51.5 -19.5t19.5 -51.5t-19.5 -51t-51.5 -19t-51.5 19zM335.5 1701q-19.5 19 -19.5 51t19.5 51.5t51.5 19.5t51.5 -19.5t19.5 -51.5t-19.5 -51t-51.5 -19t-51.5 19z" />
    <glyph glyph-name="Eth" unicode="&#xd0;" horiz-adv-x="1167" 
d="M917 1309.5q155 -184.5 155 -569.5q0 -264 -74 -430t-218.5 -243.5t-361.5 -77.5q-101 0 -259 15v722h-163v73h163v668q160 27 288 27q315 0 470 -184.5zM736.5 139q121.5 67 182 214t60.5 387q0 237 -57 385t-174 217.5t-301 69.5q-87 0 -199 -15v-598h293v-73h-293
v-645q82 -9 178 -9q189 0 310.5 67z" />
    <glyph glyph-name="Ntilde" unicode="&#xd1;" horiz-adv-x="1256" 
d="M1012 1480h85v-1480h-96l-757 1329v-1329h-85v1480h96l757 -1329v1329zM689 1700q-33 11 -74 31q-42 19 -66.5 27.5t-51.5 8.5q-42 0 -75 -17.5t-64 -54.5v77q52 63 139 63q35 0 67 -10.5t76 -31.5q39 -19 65 -28t53 -9q43 0 75.5 17.5t63.5 55.5v-77q-52 -63 -139 -63
q-36 0 -69 11z" />
    <glyph glyph-name="Ograve" unicode="&#xd2;" horiz-adv-x="1179" 
d="M223 160.5q-128 178.5 -128 579.5t128 579.5t366 178.5q239 0 366.5 -178.5t127.5 -579.5t-127.5 -579.5t-366.5 -178.5q-238 0 -366 178.5zM805 126.5q88 62.5 136.5 211t48.5 398.5q0 254 -48.5 404t-136.5 213t-216 63t-216 -62.5t-136.5 -211t-48.5 -398.5
q0 -254 48.5 -404t136.5 -213t216 -63t216 62.5zM552 1614l-149 275h92l131 -275h-74z" />
    <glyph glyph-name="Oacute" unicode="&#xd3;" horiz-adv-x="1179" 
d="M223 160.5q-128 178.5 -128 579.5t128 579.5t366 178.5q239 0 366.5 -178.5t127.5 -579.5t-127.5 -579.5t-366.5 -178.5q-238 0 -366 178.5zM805 126.5q88 62.5 136.5 211t48.5 398.5q0 254 -48.5 404t-136.5 213t-216 63t-216 -62.5t-136.5 -211t-48.5 -398.5
q0 -254 48.5 -404t136.5 -213t216 -63t216 62.5zM552 1614l130 275h92l-148 -275h-74z" />
    <glyph glyph-name="Ocircumflex" unicode="&#xd4;" horiz-adv-x="1179" 
d="M223 160.5q-128 178.5 -128 579.5t128 579.5t366 178.5q239 0 366.5 -178.5t127.5 -579.5t-127.5 -579.5t-366.5 -178.5q-238 0 -366 178.5zM805 126.5q88 62.5 136.5 211t48.5 398.5q0 254 -48.5 404t-136.5 213t-216 63t-216 -62.5t-136.5 -211t-48.5 -398.5
q0 -254 48.5 -404t136.5 -213t216 -63t216 62.5zM830 1614h-82l-159 229l-160 -229h-82l196 275h91z" />
    <glyph glyph-name="Otilde" unicode="&#xd5;" horiz-adv-x="1179" 
d="M223 160.5q-128 178.5 -128 579.5t128 579.5t366 178.5q239 0 366.5 -178.5t127.5 -579.5t-127.5 -579.5t-366.5 -178.5q-238 0 -366 178.5zM805 126.5q88 62.5 136.5 211t48.5 398.5q0 254 -48.5 404t-136.5 213t-216 63t-216 -62.5t-136.5 -211t-48.5 -398.5
q0 -254 48.5 -404t136.5 -213t216 -63t216 62.5zM650 1700q-33 11 -74 31q-42 19 -66.5 27.5t-51.5 8.5q-42 0 -75 -17.5t-64 -54.5v77q52 63 139 63q35 0 67 -10.5t76 -31.5q39 -19 65 -28t53 -9q43 0 75.5 17.5t63.5 55.5v-77q-52 -63 -139 -63q-36 0 -69 11z" />
    <glyph glyph-name="Odieresis" unicode="&#xd6;" horiz-adv-x="1179" 
d="M223 160.5q-128 178.5 -128 579.5t128 579.5t366 178.5q239 0 366.5 -178.5t127.5 -579.5t-127.5 -579.5t-366.5 -178.5q-238 0 -366 178.5zM805 126.5q88 62.5 136.5 211t48.5 398.5q0 254 -48.5 404t-136.5 213t-216 63t-216 -62.5t-136.5 -211t-48.5 -398.5
q0 -254 48.5 -404t136.5 -213t216 -63t216 62.5zM352.5 1701q-19.5 19 -19.5 51t19.5 51.5t51.5 19.5t51.5 -19.5t19.5 -51.5t-19.5 -51t-51.5 -19t-51.5 19zM721.5 1701q-19.5 19 -19.5 51t19.5 51.5t51.5 19.5t51.5 -19.5t19.5 -51.5t-19.5 -51t-51.5 -19t-51.5 19z" />
    <glyph glyph-name="multiply" unicode="&#xd7;" horiz-adv-x="952" 
d="M173 402l-55 55l303 303l-303 303l55 55l303 -303l303 303l55 -55l-304 -303l304 -303l-55 -55l-303 303z" />
    <glyph glyph-name="Oslash" unicode="&#xd8;" horiz-adv-x="1179" 
d="M1083 740q0 -401 -127.5 -579.5t-366.5 -178.5q-214 0 -335 138l-84 -139l-62 37l101 165q-114 189 -114 557q0 401 128 579.5t366 178.5q215 0 335 -138l84 139l62 -37l-100 -165q113 -187 113 -557zM262 272l613 1008q-51 72 -122.5 104t-163.5 32q-128 0 -216 -62.5
t-136.5 -211t-48.5 -398.5q0 -310 74 -472zM805 126.5q88 62.5 136.5 211t48.5 398.5q0 310 -74 472l-613 -1008q51 -72 122.5 -104t163.5 -32q128 0 216 62.5z" />
    <glyph glyph-name="Ugrave" unicode="&#xd9;" horiz-adv-x="1207" 
d="M346 38q-100 56 -147.5 169.5t-47.5 291.5v981h89v-993q0 -218 86 -320.5t279 -102.5q192 0 278 102.5t86 320.5v993h86v-981q0 -178 -46.5 -292t-146 -169.5t-257.5 -55.5q-159 0 -259 56zM568 1614l-149 275h92l131 -275h-74z" />
    <glyph glyph-name="Uacute" unicode="&#xda;" horiz-adv-x="1207" 
d="M346 38q-100 56 -147.5 169.5t-47.5 291.5v981h89v-993q0 -218 86 -320.5t279 -102.5q192 0 278 102.5t86 320.5v993h86v-981q0 -178 -46.5 -292t-146 -169.5t-257.5 -55.5q-159 0 -259 56zM568 1614l130 275h92l-148 -275h-74z" />
    <glyph glyph-name="Ucircumflex" unicode="&#xdb;" horiz-adv-x="1207" 
d="M346 38q-100 56 -147.5 169.5t-47.5 291.5v981h89v-993q0 -218 86 -320.5t279 -102.5q192 0 278 102.5t86 320.5v993h86v-981q0 -178 -46.5 -292t-146 -169.5t-257.5 -55.5q-159 0 -259 56zM846 1614h-82l-159 229l-160 -229h-82l196 275h91z" />
    <glyph glyph-name="Udieresis" unicode="&#xdc;" horiz-adv-x="1207" 
d="M346 38q-100 56 -147.5 169.5t-47.5 291.5v981h89v-993q0 -218 86 -320.5t279 -102.5q192 0 278 102.5t86 320.5v993h86v-981q0 -178 -46.5 -292t-146 -169.5t-257.5 -55.5q-159 0 -259 56zM368.5 1701q-19.5 19 -19.5 51t19.5 51.5t51.5 19.5t51.5 -19.5t19.5 -51.5
t-19.5 -51t-51.5 -19t-51.5 19zM737.5 1701q-19.5 19 -19.5 51t19.5 51.5t51.5 19.5t51.5 -19.5t19.5 -51.5t-19.5 -51t-51.5 -19t-51.5 19z" />
    <glyph glyph-name="Yacute" unicode="&#xdd;" horiz-adv-x="993" 
d="M1010 1480l-469 -806v-674h-89v674l-477 806h99l423 -719l418 719h95zM460 1614l130 275h92l-148 -275h-74z" />
    <glyph glyph-name="Thorn" unicode="&#xde;" horiz-adv-x="1074" 
d="M159 1480h89v-243q39 6 95 10.5t112 4.5q261 0 390.5 -121t129.5 -373q0 -244 -136.5 -367t-419.5 -123q-96 0 -171 8v-276h-89v1480zM772 448.5q112 98.5 112 305.5q0 218 -103.5 317.5t-323.5 99.5q-102 0 -209 -16v-796q75 -9 176 -9q236 0 348 98.5z" />
    <glyph glyph-name="germandbls" unicode="&#xdf;" horiz-adv-x="1147" 
d="M1031 467q55 -71 55 -184q0 -94 -41 -161.5t-118.5 -103.5t-185.5 -36q-126 0 -234 36v83q64 -20 119 -29t111 -9q126 0 194 55.5t68 159.5q0 91 -42.5 139.5t-131.5 73.5l-96 27q-130 36 -185.5 105t-55.5 180q0 84 41 150.5t119.5 104t188.5 37.5q35 0 70 -4
q9 63 9 111q0 189 -82 272t-221 83q-156 0 -238.5 -93t-82.5 -307v-1157h-88v1001h-196v80h196v82q0 239 106.5 356t298.5 117q176 0 280 -105t104 -327q0 -54 -7.5 -110.5t-16.5 -92.5q-35 8 -62.5 12t-67.5 4q-87 0 -146.5 -27.5t-88.5 -75.5t-29 -108q0 -82 41 -130.5
t127 -72.5l97 -27q136 -38 191 -109z" />
    <glyph glyph-name="agrave" unicode="&#xe0;" horiz-adv-x="862" 
d="M581 1063.5q74 -33.5 112.5 -110.5t38.5 -206v-747h-76l-8 121h-8q-48 -68 -118.5 -102.5t-156.5 -34.5t-150.5 33t-100 97t-35.5 155q0 140 82.5 217.5t252.5 95.5l230 26v142q0 102 -29 160.5t-84.5 82t-143.5 23.5q-55 0 -121.5 -11.5t-130.5 -33.5v83
q54 20 124.5 31.5t134.5 11.5q113 0 187 -33.5zM522.5 101q69.5 38 121.5 125v306l-229 -25q-125 -13 -184 -69.5t-59 -158.5q0 -109 53 -162.5t154 -53.5q74 0 143.5 38zM388 1261l-170 355h92l151 -355h-73z" />
    <glyph glyph-name="aacute" unicode="&#xe1;" horiz-adv-x="862" 
d="M581 1063.5q74 -33.5 112.5 -110.5t38.5 -206v-747h-76l-8 121h-8q-48 -68 -118.5 -102.5t-156.5 -34.5t-150.5 33t-100 97t-35.5 155q0 140 82.5 217.5t252.5 95.5l230 26v142q0 102 -29 160.5t-84.5 82t-143.5 23.5q-55 0 -121.5 -11.5t-130.5 -33.5v83
q54 20 124.5 31.5t134.5 11.5q113 0 187 -33.5zM522.5 101q69.5 38 121.5 125v306l-229 -25q-125 -13 -184 -69.5t-59 -158.5q0 -109 53 -162.5t154 -53.5q74 0 143.5 38zM388 1261l152 355h91l-170 -355h-73z" />
    <glyph glyph-name="acircumflex" unicode="&#xe2;" horiz-adv-x="862" 
d="M581 1063.5q74 -33.5 112.5 -110.5t38.5 -206v-747h-76l-8 121h-8q-48 -68 -118.5 -102.5t-156.5 -34.5t-150.5 33t-100 97t-35.5 155q0 140 82.5 217.5t252.5 95.5l230 26v142q0 102 -29 160.5t-84.5 82t-143.5 23.5q-55 0 -121.5 -11.5t-130.5 -33.5v83
q54 20 124.5 31.5t134.5 11.5q113 0 187 -33.5zM522.5 101q69.5 38 121.5 125v306l-229 -25q-125 -13 -184 -69.5t-59 -158.5q0 -109 53 -162.5t154 -53.5q74 0 143.5 38zM647 1261h-76l-146 305l-147 -305h-76l177 355h91z" />
    <glyph glyph-name="atilde" unicode="&#xe3;" horiz-adv-x="862" 
d="M581 1063.5q74 -33.5 112.5 -110.5t38.5 -206v-747h-76l-8 121h-8q-48 -68 -118.5 -102.5t-156.5 -34.5t-150.5 33t-100 97t-35.5 155q0 140 82.5 217.5t252.5 95.5l230 26v142q0 102 -29 160.5t-84.5 82t-143.5 23.5q-55 0 -121.5 -11.5t-130.5 -33.5v83
q54 20 124.5 31.5t134.5 11.5q113 0 187 -33.5zM522.5 101q69.5 38 121.5 125v306l-229 -25q-125 -13 -184 -69.5t-59 -158.5q0 -109 53 -162.5t154 -53.5q74 0 143.5 38zM483 1382.5q-29 10.5 -72 32.5q-39 19 -61.5 27.5t-45.5 8.5q-41 0 -73.5 -18t-62.5 -55v77
q24 31 58.5 47.5t77.5 16.5q33 0 62 -10.5t72 -32.5q39 -19 61.5 -27.5t45.5 -8.5q41 0 73.5 18t62.5 55v-78q-24 -30 -58.5 -46.5t-77.5 -16.5q-33 0 -62 10.5z" />
    <glyph glyph-name="adieresis" unicode="&#xe4;" horiz-adv-x="862" 
d="M581 1063.5q74 -33.5 112.5 -110.5t38.5 -206v-747h-76l-8 121h-8q-48 -68 -118.5 -102.5t-156.5 -34.5t-150.5 33t-100 97t-35.5 155q0 140 82.5 217.5t252.5 95.5l230 26v142q0 102 -29 160.5t-84.5 82t-143.5 23.5q-55 0 -121.5 -11.5t-130.5 -33.5v83
q54 20 124.5 31.5t134.5 11.5q113 0 187 -33.5zM522.5 101q69.5 38 121.5 125v306l-229 -25q-125 -13 -184 -69.5t-59 -158.5q0 -109 53 -162.5t154 -53.5q74 0 143.5 38zM208 1370.5q-20 19.5 -20 51.5t20 52t51 20q32 0 51.5 -20t19.5 -52q0 -33 -19.5 -52t-51.5 -19
q-31 0 -51 19.5zM538.5 1370q-19.5 19 -19.5 52q0 32 19.5 52t51.5 20q31 0 51 -20t20 -52t-20 -51.5t-51 -19.5q-32 0 -51.5 19z" />
    <glyph glyph-name="aring" unicode="&#xe5;" horiz-adv-x="862" 
d="M581 1063.5q74 -33.5 112.5 -110.5t38.5 -206v-747h-76l-8 121h-8q-48 -68 -118.5 -102.5t-156.5 -34.5t-150.5 33t-100 97t-35.5 155q0 140 82.5 217.5t252.5 95.5l230 26v142q0 102 -29 160.5t-84.5 82t-143.5 23.5q-55 0 -121.5 -11.5t-130.5 -33.5v83
q54 20 124.5 31.5t134.5 11.5q113 0 187 -33.5zM522.5 101q69.5 38 121.5 125v306l-229 -25q-125 -13 -184 -69.5t-59 -158.5q0 -109 53 -162.5t154 -53.5q74 0 143.5 38zM329 1281q-43 24 -67 66.5t-24 95.5t24 96t67 67t96 24t95.5 -24t66.5 -67t24 -96t-24 -95.5
t-66.5 -66.5t-95.5 -24t-96 24zM516 1349.5q35 34.5 35 93.5t-35 94t-91 35q-57 0 -92 -35t-35 -94t35 -93.5t92 -34.5q56 0 91 34.5z" />
    <glyph glyph-name="ae" unicode="&#xe6;" horiz-adv-x="1404" 
d="M1331 505h-599q2 -165 39.5 -262t108 -138.5t181.5 -41.5q89 0 222 41v-83q-118 -39 -229 -39q-130 0 -217.5 48.5t-134.5 155.5q-63 -110 -147 -156t-186 -46q-86 0 -151.5 32.5t-102 96t-36.5 152.5q0 148 87.5 232t277.5 84h201v174q0 100 -29 157t-85.5 80.5
t-143.5 23.5q-55 0 -121.5 -11.5t-130.5 -33.5v83q55 20 125 31.5t133 11.5q131 0 208 -47t105 -155q80 204 286 204q164 0 251.5 -129.5t87.5 -429.5v-35zM803.5 923q-67.5 -99 -71.5 -342h509q-3 169 -34.5 266.5t-85.5 136t-131 38.5q-119 0 -186.5 -99zM547 112.5
q76 49.5 125 162.5q-24 98 -27 231h-200q-273 0 -273 -231q0 -106 54.5 -159t154.5 -53q90 0 166 49.5z" />
    <glyph glyph-name="ccedilla" unicode="&#xe7;" horiz-adv-x="711" 
d="M329 972.5q-76 -42.5 -113.5 -145t-37.5 -282.5q0 -182 34 -287.5t101.5 -149.5t173.5 -44q90 0 207 41v-84q-113 -39 -220 -39h-11v-95q65 -7 99.5 -45t34.5 -100q0 -67 -45.5 -106.5t-127.5 -39.5q-38 0 -78 9t-68 25v62q68 -38 150 -38q105 0 105 89q0 92 -107 92h-27
v152q-157 22 -235.5 153t-78.5 401q0 203 49 325.5t144.5 176.5t241.5 54q91 0 174 -21v-84q-83 23 -166 23q-123 0 -199 -42.5z" />
    <glyph glyph-name="egrave" unicode="&#xe8;" horiz-adv-x="857" 
d="M784 505h-607q2 -165 39.5 -262t109.5 -138.5t184 -41.5q95 0 226 41v-83q-117 -39 -233 -39q-141 0 -232.5 54.5t-138.5 178t-47 326.5q0 292 95.5 424t262.5 132q165 0 253 -129.5t88 -427.5v-35zM251 921.5q-70 -98.5 -74 -340.5h517q-2 166 -33 263t-85.5 136.5
t-132.5 39.5q-122 0 -192 -98.5zM402 1261l-170 355h92l151 -355h-73z" />
    <glyph glyph-name="eacute" unicode="&#xe9;" horiz-adv-x="857" 
d="M784 505h-607q2 -165 39.5 -262t109.5 -138.5t184 -41.5q95 0 226 41v-83q-117 -39 -233 -39q-141 0 -232.5 54.5t-138.5 178t-47 326.5q0 292 95.5 424t262.5 132q165 0 253 -129.5t88 -427.5v-35zM251 921.5q-70 -98.5 -74 -340.5h517q-2 166 -33 263t-85.5 136.5
t-132.5 39.5q-122 0 -192 -98.5zM402 1261l152 355h91l-170 -355h-73z" />
    <glyph glyph-name="ecircumflex" unicode="&#xea;" horiz-adv-x="857" 
d="M784 505h-607q2 -165 39.5 -262t109.5 -138.5t184 -41.5q95 0 226 41v-83q-117 -39 -233 -39q-141 0 -232.5 54.5t-138.5 178t-47 326.5q0 292 95.5 424t262.5 132q165 0 253 -129.5t88 -427.5v-35zM251 921.5q-70 -98.5 -74 -340.5h517q-2 166 -33 263t-85.5 136.5
t-132.5 39.5q-122 0 -192 -98.5zM661 1261h-76l-146 305l-147 -305h-76l177 355h91z" />
    <glyph glyph-name="edieresis" unicode="&#xeb;" horiz-adv-x="857" 
d="M784 505h-607q2 -165 39.5 -262t109.5 -138.5t184 -41.5q95 0 226 41v-83q-117 -39 -233 -39q-141 0 -232.5 54.5t-138.5 178t-47 326.5q0 292 95.5 424t262.5 132q165 0 253 -129.5t88 -427.5v-35zM251 921.5q-70 -98.5 -74 -340.5h517q-2 166 -33 263t-85.5 136.5
t-132.5 39.5q-122 0 -192 -98.5zM222 1370.5q-20 19.5 -20 51.5t20 52t51 20q32 0 51.5 -20t19.5 -52q0 -33 -19.5 -52t-51.5 -19q-31 0 -51 19.5zM552.5 1370q-19.5 19 -19.5 52q0 32 19.5 52t51.5 20q31 0 51 -20t20 -52t-20 -51.5t-51 -19.5q-32 0 -51.5 19z" />
    <glyph glyph-name="igrave" unicode="&#xec;" horiz-adv-x="368" 
d="M140 0v1081h88v-1081h-88zM147 1261l-170 355h92l151 -355h-73z" />
    <glyph glyph-name="iacute" unicode="&#xed;" horiz-adv-x="368" 
d="M140 0v1081h88v-1081h-88zM147 1261l152 355h91l-170 -355h-73z" />
    <glyph glyph-name="icircumflex" unicode="&#xee;" horiz-adv-x="368" 
d="M140 0v1081h88v-1081h-88zM406 1261h-76l-146 305l-147 -305h-76l177 355h91z" />
    <glyph glyph-name="idieresis" unicode="&#xef;" horiz-adv-x="368" 
d="M140 0v1081h88v-1081h-88zM-33 1370.5q-20 19.5 -20 51.5t20 52t51 20q32 0 51.5 -20t19.5 -52q0 -33 -19.5 -52t-51.5 -19q-31 0 -51 19.5zM297.5 1370q-19.5 19 -19.5 52q0 32 19.5 52t51.5 20q31 0 51 -20t20 -52t-20 -51.5t-51 -19.5q-32 0 -51.5 19z" />
    <glyph glyph-name="eth" unicode="&#xf0;" horiz-adv-x="922" 
d="M777.5 963.5q57.5 -198.5 57.5 -390.5q0 -305 -97 -448.5t-275 -143.5q-378 0 -378 559q0 293 97.5 425t276.5 132q133 0 215 -82q-50 160 -135 301l-357 -62l-12 67l328 57q-92 132 -217 238h108q104 -86 194 -223l219 38l13 -67l-193 -34q98 -168 155.5 -366.5z
M745 536q0 182 -34 288t-96 149.5t-154 43.5t-154 -43.5t-96 -147.5t-34 -282q0 -182 34 -288.5t96.5 -150.5t155.5 -44q282 0 282 475z" />
    <glyph glyph-name="ntilde" unicode="&#xf1;" horiz-adv-x="941" 
d="M140 1081h76l8 -123h8q55 67 130.5 103t163.5 36q284 0 284 -325v-772h-88v768q0 133 -54 189.5t-155 56.5q-77 0 -156.5 -41t-128.5 -130v-843h-88v1081zM533 1382.5q-29 10.5 -72 32.5q-39 19 -61.5 27.5t-45.5 8.5q-41 0 -73.5 -18t-62.5 -55v77q24 31 58.5 47.5
t77.5 16.5q33 0 62 -10.5t72 -32.5q39 -19 61.5 -27.5t45.5 -8.5q41 0 73.5 18t62.5 55v-78q-24 -30 -58.5 -46.5t-77.5 -16.5q-33 0 -62 10.5z" />
    <glyph glyph-name="ograve" unicode="&#xf2;" horiz-adv-x="922" 
d="M85 540q0 293 97.5 425t278.5 132q376 0 376 -557q0 -293 -97.5 -425.5t-278.5 -132.5q-376 0 -376 558zM614.5 105q62.5 44 96.5 148.5t34 282.5q0 182 -34 288t-96 150t-154 44t-154 -43.5t-96 -148t-34 -282.5q0 -182 34 -288.5t96 -150.5t154 -44q91 0 153.5 44z
M424 1261l-170 355h92l151 -355h-73z" />
    <glyph glyph-name="oacute" unicode="&#xf3;" horiz-adv-x="922" 
d="M85 540q0 293 97.5 425t278.5 132q376 0 376 -557q0 -293 -97.5 -425.5t-278.5 -132.5q-376 0 -376 558zM614.5 105q62.5 44 96.5 148.5t34 282.5q0 182 -34 288t-96 150t-154 44t-154 -43.5t-96 -148t-34 -282.5q0 -182 34 -288.5t96 -150.5t154 -44q91 0 153.5 44z
M424 1261l152 355h91l-170 -355h-73z" />
    <glyph glyph-name="ocircumflex" unicode="&#xf4;" horiz-adv-x="922" 
d="M85 540q0 293 97.5 425t278.5 132q376 0 376 -557q0 -293 -97.5 -425.5t-278.5 -132.5q-376 0 -376 558zM614.5 105q62.5 44 96.5 148.5t34 282.5q0 182 -34 288t-96 150t-154 44t-154 -43.5t-96 -148t-34 -282.5q0 -182 34 -288.5t96 -150.5t154 -44q91 0 153.5 44z
M683 1261h-76l-146 305l-147 -305h-76l177 355h91z" />
    <glyph glyph-name="otilde" unicode="&#xf5;" horiz-adv-x="922" 
d="M85 540q0 293 97.5 425t278.5 132q376 0 376 -557q0 -293 -97.5 -425.5t-278.5 -132.5q-376 0 -376 558zM614.5 105q62.5 44 96.5 148.5t34 282.5q0 182 -34 288t-96 150t-154 44t-154 -43.5t-96 -148t-34 -282.5q0 -182 34 -288.5t96 -150.5t154 -44q91 0 153.5 44z
M519 1382.5q-29 10.5 -72 32.5q-39 19 -61.5 27.5t-45.5 8.5q-41 0 -73.5 -18t-62.5 -55v77q24 31 58.5 47.5t77.5 16.5q33 0 62 -10.5t72 -32.5q39 -19 61.5 -27.5t45.5 -8.5q41 0 73.5 18t62.5 55v-78q-24 -30 -58.5 -46.5t-77.5 -16.5q-33 0 -62 10.5z" />
    <glyph glyph-name="odieresis" unicode="&#xf6;" horiz-adv-x="922" 
d="M85 540q0 293 97.5 425t278.5 132q376 0 376 -557q0 -293 -97.5 -425.5t-278.5 -132.5q-376 0 -376 558zM614.5 105q62.5 44 96.5 148.5t34 282.5q0 182 -34 288t-96 150t-154 44t-154 -43.5t-96 -148t-34 -282.5q0 -182 34 -288.5t96 -150.5t154 -44q91 0 153.5 44z
M244 1370.5q-20 19.5 -20 51.5t20 52t51 20q32 0 51.5 -20t19.5 -52q0 -33 -19.5 -52t-51.5 -19q-31 0 -51 19.5zM574.5 1370q-19.5 19 -19.5 52q0 32 19.5 52t51.5 20q31 0 51 -20t20 -52t-20 -51.5t-51 -19.5q-32 0 -51.5 19z" />
    <glyph glyph-name="divide" unicode="&#xf7;" horiz-adv-x="1017" 
d="M457 1040.5q-20 19.5 -20 52.5t20 53t52 20q31 0 51 -20.5t20 -52.5q0 -33 -20 -52.5t-51 -19.5q-32 0 -52 19.5zM140 721v78h737v-78h-737zM457 373.5q-20 19.5 -20 51.5q0 33 20 53.5t52 20.5t51.5 -20.5t19.5 -53.5q0 -32 -20 -51.5t-51 -19.5q-32 0 -52 19.5z" />
    <glyph glyph-name="oslash" unicode="&#xf8;" horiz-adv-x="922" 
d="M837 540q0 -293 -97.5 -425.5t-278.5 -132.5q-157 0 -249 98l-63 -99l-61 37l78 124q-81 139 -81 398q0 293 97.5 425t278.5 132q158 0 249 -97l63 100l61 -37l-79 -124q82 -138 82 -399zM306.5 974.5q-62.5 -43.5 -96.5 -148t-34 -282.5q0 -204 45 -319l442 700
q-35 49 -85.5 71t-116.5 22q-92 0 -154.5 -43.5zM615.5 105q62.5 44 96.5 148.5t34 282.5q0 205 -45 320l-443 -701q35 -50 86 -72t117 -22q92 0 154.5 44z" />
    <glyph glyph-name="ugrave" unicode="&#xf9;" horiz-adv-x="931" 
d="M130 313v768h88v-770q0 -132 54 -189t151 -57q75 0 154 41t126 129v846h88v-1081h-77l-7 119h-8q-57 -68 -131.5 -102.5t-155.5 -34.5q-282 0 -282 331zM425 1261l-170 355h92l151 -355h-73z" />
    <glyph glyph-name="uacute" unicode="&#xfa;" horiz-adv-x="931" 
d="M130 313v768h88v-770q0 -132 54 -189t151 -57q75 0 154 41t126 129v846h88v-1081h-77l-7 119h-8q-57 -68 -131.5 -102.5t-155.5 -34.5q-282 0 -282 331zM425 1261l152 355h91l-170 -355h-73z" />
    <glyph glyph-name="ucircumflex" unicode="&#xfb;" horiz-adv-x="931" 
d="M130 313v768h88v-770q0 -132 54 -189t151 -57q75 0 154 41t126 129v846h88v-1081h-77l-7 119h-8q-57 -68 -131.5 -102.5t-155.5 -34.5q-282 0 -282 331zM684 1261h-76l-146 305l-147 -305h-76l177 355h91z" />
    <glyph glyph-name="udieresis" unicode="&#xfc;" horiz-adv-x="931" 
d="M130 313v768h88v-770q0 -132 54 -189t151 -57q75 0 154 41t126 129v846h88v-1081h-77l-7 119h-8q-57 -68 -131.5 -102.5t-155.5 -34.5q-282 0 -282 331zM245 1370.5q-20 19.5 -20 51.5t20 52t51 20q32 0 51.5 -20t19.5 -52q0 -33 -19.5 -52t-51.5 -19q-31 0 -51 19.5z
M575.5 1370q-19.5 19 -19.5 52q0 32 19.5 52t51.5 20q31 0 51 -20t20 -52t-20 -51.5t-51 -19.5q-32 0 -51.5 19z" />
    <glyph glyph-name="yacute" unicode="&#xfd;" horiz-adv-x="870" 
d="M764 1081h96l-513 -1521h-91l150 440h-31l-364 1081h96l327 -997zM399 1261l152 355h91l-170 -355h-73z" />
    <glyph glyph-name="thorn" unicode="&#xfe;" horiz-adv-x="926" 
d="M140 1616h88v-637h7q41 52 106 85t151 33q156 0 252.5 -124t96.5 -412q0 -298 -119 -438.5t-349 -140.5q-64 0 -145 9v-431h-88v2056zM656 177q93 115 93 374q0 180 -35.5 282.5t-95 142t-142.5 39.5q-77 0 -144.5 -38.5t-103.5 -108.5v-793q29 -5 72 -9t77 -4
q186 0 279 115z" />
    <glyph glyph-name="ydieresis" unicode="&#xff;" horiz-adv-x="870" 
d="M764 1081h96l-513 -1521h-91l150 440h-31l-364 1081h96l327 -997zM219 1370.5q-20 19.5 -20 51.5t20 52t51 20q32 0 51.5 -20t19.5 -52q0 -33 -19.5 -52t-51.5 -19q-31 0 -51 19.5zM549.5 1370q-19.5 19 -19.5 52q0 32 19.5 52t51.5 20q31 0 51 -20t20 -52t-20 -51.5
t-51 -19.5q-32 0 -51.5 19z" />
    <glyph glyph-name="Amacron" unicode="&#x100;" horiz-adv-x="1141" 
d="M1023 0l-168 516h-572l-168 -516h-91l488 1480h117l488 -1480h-94zM310 599h518l-259 795zM322 1718v69h497v-69h-497z" />
    <glyph glyph-name="amacron" unicode="&#x101;" horiz-adv-x="862" 
d="M581 1063.5q74 -33.5 112.5 -110.5t38.5 -206v-747h-76l-8 121h-8q-48 -68 -118.5 -102.5t-156.5 -34.5t-150.5 33t-100 97t-35.5 155q0 140 82.5 217.5t252.5 95.5l230 26v142q0 102 -29 160.5t-84.5 82t-143.5 23.5q-55 0 -121.5 -11.5t-130.5 -33.5v83
q54 20 124.5 31.5t134.5 11.5q113 0 187 -33.5zM522.5 101q69.5 38 121.5 125v306l-229 -25q-125 -13 -184 -69.5t-59 -158.5q0 -109 53 -162.5t154 -53.5q74 0 143.5 38zM168 1388v70h513v-70h-513z" />
    <glyph glyph-name="Abreve" unicode="&#x102;" horiz-adv-x="1141" 
d="M1023 0l-168 516h-572l-168 -516h-91l488 1480h117l488 -1480h-94zM310 599h518l-259 795zM393 1685.5q-65 60.5 -72 177.5h67q11 -92 53.5 -132t130.5 -40q89 0 131.5 40.5t49.5 131.5h67q-7 -118 -70.5 -178t-177.5 -60t-179 60.5z" />
    <glyph glyph-name="abreve" unicode="&#x103;" horiz-adv-x="862" 
d="M581 1063.5q74 -33.5 112.5 -110.5t38.5 -206v-747h-76l-8 121h-8q-48 -68 -118.5 -102.5t-156.5 -34.5t-150.5 33t-100 97t-35.5 155q0 140 82.5 217.5t252.5 95.5l230 26v142q0 102 -29 160.5t-84.5 82t-143.5 23.5q-55 0 -121.5 -11.5t-130.5 -33.5v83
q54 20 124.5 31.5t134.5 11.5q113 0 187 -33.5zM522.5 101q69.5 38 121.5 125v306l-229 -25q-125 -13 -184 -69.5t-59 -158.5q0 -109 53 -162.5t154 -53.5q74 0 143.5 38zM260.5 1352.5q-61.5 79.5 -66.5 236.5h67q7 -132 48 -191.5t117 -59.5q77 0 117.5 59.5t44.5 191.5
h67q-5 -159 -65 -237.5t-164 -78.5t-165.5 79.5z" />
    <glyph glyph-name="Aogonek" unicode="&#x104;" horiz-adv-x="1141" 
d="M1144 -336q35 9 79 30v-60q-73 -38 -148 -38q-99 0 -151.5 44t-52.5 128q0 68 36 126t113 114l-165 508h-572l-168 -516h-91l488 1480h117l488 -1480q-98 -57 -139 -111t-41 -116q0 -60 34.5 -89t104.5 -29q33 0 68 9zM310 599h518l-259 795z" />
    <glyph glyph-name="aogonek" unicode="&#x105;" horiz-adv-x="862" 
d="M824 -302v-62q-27 -19 -62 -29.5t-72 -10.5q-87 0 -135.5 45.5t-48.5 126.5q0 68 36 128.5t113 120.5l-7 104h-8q-48 -68 -118.5 -102.5t-156.5 -34.5t-150.5 33t-100 97t-35.5 155q0 140 82.5 217.5t252.5 95.5l230 26v142q0 102 -29 160.5t-84.5 82t-143.5 23.5
q-55 0 -121.5 -11.5t-130.5 -33.5v83q54 20 124.5 31.5t134.5 11.5q113 0 187 -33.5t112.5 -110.5t38.5 -206v-747q-85 -58 -122.5 -112.5t-37.5 -114.5q0 -57 31 -87.5t88 -30.5q72 0 133 43zM522.5 101q69.5 38 121.5 125v306l-229 -25q-125 -13 -184 -69.5t-59 -158.5
q0 -109 53 -162.5t154 -53.5q74 0 143.5 38z" />
    <glyph glyph-name="Cacute" unicode="&#x106;" horiz-adv-x="941" 
d="M346.5 54q-120.5 72 -186 239t-65.5 445q0 276 65.5 443.5t189 242t307.5 74.5q131 0 265 -39v-85q-70 23 -134 32.5t-136 9.5q-156 0 -257 -63t-154 -211t-53 -400q0 -257 53.5 -406t153 -210.5t249.5 -61.5q69 0 134.5 12.5t143.5 39.5v-84q-139 -50 -279 -50
q-176 0 -296.5 72zM557 1614l130 275h92l-148 -275h-74z" />
    <glyph glyph-name="cacute" unicode="&#x107;" horiz-adv-x="711" 
d="M259.5 37q-85.5 55 -130 178t-44.5 326t49 325.5t144.5 176.5t241.5 54q91 0 174 -21v-84q-83 23 -166 23q-123 0 -199 -42.5t-113.5 -145t-37.5 -282.5q0 -182 34 -287.5t101.5 -149.5t173.5 -44q90 0 207 41v-84q-113 -39 -220 -39q-129 0 -214.5 55zM391 1261l152 355
h91l-170 -355h-73z" />
    <glyph glyph-name="Ccircumflex" unicode="&#x108;" horiz-adv-x="941" 
d="M346.5 54q-120.5 72 -186 239t-65.5 445q0 276 65.5 443.5t189 242t307.5 74.5q131 0 265 -39v-85q-70 23 -134 32.5t-136 9.5q-156 0 -257 -63t-154 -211t-53 -400q0 -257 53.5 -406t153 -210.5t249.5 -61.5q69 0 134.5 12.5t143.5 39.5v-84q-139 -50 -279 -50
q-176 0 -296.5 72zM835 1614h-82l-159 229l-160 -229h-82l196 275h91z" />
    <glyph glyph-name="ccircumflex" unicode="&#x109;" horiz-adv-x="711" 
d="M259.5 37q-85.5 55 -130 178t-44.5 326t49 325.5t144.5 176.5t241.5 54q91 0 174 -21v-84q-83 23 -166 23q-123 0 -199 -42.5t-113.5 -145t-37.5 -282.5q0 -182 34 -287.5t101.5 -149.5t173.5 -44q90 0 207 41v-84q-113 -39 -220 -39q-129 0 -214.5 55zM650 1261h-76
l-146 305l-147 -305h-76l177 355h91z" />
    <glyph glyph-name="Cdotaccent" unicode="&#x10a;" horiz-adv-x="941" 
d="M346.5 54q-120.5 72 -186 239t-65.5 445q0 276 65.5 443.5t189 242t307.5 74.5q131 0 265 -39v-85q-70 23 -134 32.5t-136 9.5q-156 0 -257 -63t-154 -211t-53 -400q0 -257 53.5 -406t153 -210.5t249.5 -61.5q69 0 134.5 12.5t143.5 39.5v-84q-139 -50 -279 -50
q-176 0 -296.5 72zM541 1701q-20 19 -20 51t20.5 51.5t52.5 19.5t52.5 -19.5t20.5 -51.5t-20.5 -51t-52.5 -19q-33 0 -53 19z" />
    <glyph glyph-name="cdotaccent" unicode="&#x10b;" horiz-adv-x="711" 
d="M259.5 37q-85.5 55 -130 178t-44.5 326t49 325.5t144.5 176.5t241.5 54q91 0 174 -21v-84q-83 23 -166 23q-123 0 -199 -42.5t-113.5 -145t-37.5 -282.5q0 -182 34 -287.5t101.5 -149.5t173.5 -44q90 0 207 41v-84q-113 -39 -220 -39q-129 0 -214.5 55zM375 1370
q-20 19 -20 52t20 53t53 20t52.5 -20t19.5 -53t-19.5 -52t-52.5 -19t-53 19z" />
    <glyph glyph-name="Ccaron" unicode="&#x10c;" horiz-adv-x="941" 
d="M346.5 54q-120.5 72 -186 239t-65.5 445q0 276 65.5 443.5t189 242t307.5 74.5q131 0 265 -39v-85q-70 23 -134 32.5t-136 9.5q-156 0 -257 -63t-154 -211t-53 -400q0 -257 53.5 -406t153 -210.5t249.5 -61.5q69 0 134.5 12.5t143.5 39.5v-84q-139 -50 -279 -50
q-176 0 -296.5 72zM753 1889h82l-196 -275h-91l-196 275h82l160 -229z" />
    <glyph glyph-name="ccaron" unicode="&#x10d;" horiz-adv-x="711" 
d="M259.5 37q-85.5 55 -130 178t-44.5 326t49 325.5t144.5 176.5t241.5 54q91 0 174 -21v-84q-83 23 -166 23q-123 0 -199 -42.5t-113.5 -145t-37.5 -282.5q0 -182 34 -287.5t101.5 -149.5t173.5 -44q90 0 207 41v-84q-113 -39 -220 -39q-129 0 -214.5 55zM574 1616h76
l-177 -355h-91l-177 355h76l147 -305z" />
    <glyph glyph-name="Dcaron" unicode="&#x10e;" horiz-adv-x="1167" 
d="M159 4v1463q160 27 288 27q315 0 470 -184.5t155 -569.5q0 -264 -74 -430t-218.5 -243.5t-361.5 -77.5q-101 0 -259 15zM736.5 139q121.5 67 182 214t60.5 387q0 237 -57 385t-174 217.5t-301 69.5q-87 0 -199 -15v-1316q82 -9 178 -9q189 0 310.5 67zM681 1889h82
l-196 -275h-91l-196 275h82l160 -229z" />
    <glyph glyph-name="dcaron" unicode="&#x10f;" horiz-adv-x="926" 
d="M184 106q-99 124 -99 413q0 297 119 437.5t349 140.5q77 0 145 -9v528h88v-1616h-77l-7 107h-8q-39 -55 -103.5 -90t-145.5 -35q-162 0 -261 124zM595.5 103.5q66.5 39.5 102.5 111.5v789q-29 5 -72 9t-77 4q-186 0 -279 -115t-93 -374q0 -181 35.5 -283t96.5 -141.5
t146 -39.5q74 0 140.5 39.5zM885 1616h76q0 -110 -9.5 -224t-29.5 -212h-56q19 167 19 436z" />
    <glyph glyph-name="Dcroat" unicode="&#x110;" horiz-adv-x="1167" 
d="M917 1309.5q155 -184.5 155 -569.5q0 -264 -74 -430t-218.5 -243.5t-361.5 -77.5q-101 0 -259 15v722h-163v73h163v668q160 27 288 27q315 0 470 -184.5zM736.5 139q121.5 67 182 214t60.5 387q0 237 -57 385t-174 217.5t-301 69.5q-87 0 -199 -15v-598h293v-73h-293
v-645q82 -9 178 -9q189 0 310.5 67z" />
    <glyph glyph-name="dcroat" unicode="&#x111;" horiz-adv-x="926" 
d="M920 1320h-134v-1320h-77l-7 107h-8q-39 -55 -103.5 -90t-145.5 -35q-162 0 -261 124t-99 413q0 297 119 437.5t349 140.5q77 0 145 -9v232h-296v73h296v223h88v-223h134v-73zM698 1004q-29 5 -72 9t-77 4q-186 0 -279 -115t-93 -374q0 -181 35.5 -283t96.5 -141.5
t146 -39.5q74 0 140.5 39.5t102.5 111.5v789z" />
    <glyph glyph-name="Emacron" unicode="&#x112;" horiz-adv-x="957" 
d="M247 83h675v-83h-763v1480h753v-83h-665v-595h574v-83h-574v-636zM310 1718v69h497v-69h-497z" />
    <glyph glyph-name="emacron" unicode="&#x113;" horiz-adv-x="857" 
d="M784 505h-607q2 -165 39.5 -262t109.5 -138.5t184 -41.5q95 0 226 41v-83q-117 -39 -233 -39q-141 0 -232.5 54.5t-138.5 178t-47 326.5q0 292 95.5 424t262.5 132q165 0 253 -129.5t88 -427.5v-35zM251 921.5q-70 -98.5 -74 -340.5h517q-2 166 -33 263t-85.5 136.5
t-132.5 39.5q-122 0 -192 -98.5zM182 1388v70h513v-70h-513z" />
    <glyph glyph-name="Ebreve" unicode="&#x114;" horiz-adv-x="957" 
d="M247 83h675v-83h-763v1480h753v-83h-665v-595h574v-83h-574v-636zM381 1685.5q-65 60.5 -72 177.5h67q11 -92 53.5 -132t130.5 -40q89 0 131.5 40.5t49.5 131.5h67q-7 -118 -70.5 -178t-177.5 -60t-179 60.5z" />
    <glyph glyph-name="ebreve" unicode="&#x115;" horiz-adv-x="857" 
d="M784 505h-607q2 -165 39.5 -262t109.5 -138.5t184 -41.5q95 0 226 41v-83q-117 -39 -233 -39q-141 0 -232.5 54.5t-138.5 178t-47 326.5q0 292 95.5 424t262.5 132q165 0 253 -129.5t88 -427.5v-35zM251 921.5q-70 -98.5 -74 -340.5h517q-2 166 -33 263t-85.5 136.5
t-132.5 39.5q-122 0 -192 -98.5zM274.5 1352.5q-61.5 79.5 -66.5 236.5h67q7 -132 48 -191.5t117 -59.5q77 0 117.5 59.5t44.5 191.5h67q-5 -159 -65 -237.5t-164 -78.5t-165.5 79.5z" />
    <glyph glyph-name="Edotaccent" unicode="&#x116;" horiz-adv-x="957" 
d="M247 83h675v-83h-763v1480h753v-83h-665v-595h574v-83h-574v-636zM506 1701q-20 19 -20 51t20.5 51.5t52.5 19.5t52.5 -19.5t20.5 -51.5t-20.5 -51t-52.5 -19q-33 0 -53 19z" />
    <glyph glyph-name="edotaccent" unicode="&#x117;" horiz-adv-x="857" 
d="M784 505h-607q2 -165 39.5 -262t109.5 -138.5t184 -41.5q95 0 226 41v-83q-117 -39 -233 -39q-141 0 -232.5 54.5t-138.5 178t-47 326.5q0 292 95.5 424t262.5 132q165 0 253 -129.5t88 -427.5v-35zM251 921.5q-70 -98.5 -74 -340.5h517q-2 166 -33 263t-85.5 136.5
t-132.5 39.5q-122 0 -192 -98.5zM386 1370q-20 19 -20 52t20 53t53 20t52.5 -20t19.5 -53t-19.5 -52t-52.5 -19t-53 19z" />
    <glyph glyph-name="Eogonek" unicode="&#x118;" horiz-adv-x="957" 
d="M869 -336q35 9 79 30v-60q-73 -38 -148 -38q-99 0 -151.5 44t-52.5 128q0 65 33.5 122t105.5 110h-576v1480h753v-83h-665v-595h574v-83h-574v-636h675v-83h-80q-98 -57 -139 -111t-41 -116q0 -60 34.5 -89t104.5 -29q33 0 68 9z" />
    <glyph glyph-name="eogonek" unicode="&#x119;" horiz-adv-x="857" 
d="M784 505h-607q2 -165 39.5 -262t109.5 -138.5t184 -41.5q95 0 226 41v-83q-144 -50 -198 -113.5t-54 -134.5q0 -57 31 -87.5t88 -30.5q70 0 133 43v-62q-27 -19 -62.5 -29.5t-71.5 -10.5q-87 0 -135.5 45.5t-48.5 126.5q0 133 123 216q-26 -2 -38 -2q-141 0 -232.5 54.5
t-138.5 178t-47 326.5q0 292 95.5 424t262.5 132q165 0 253 -129.5t88 -427.5v-35zM251 920.5q-70 -98.5 -74 -339.5h517q-2 166 -33.5 262.5t-85.5 136t-132 39.5q-122 0 -192 -98.5z" />
    <glyph glyph-name="Ecaron" unicode="&#x11a;" horiz-adv-x="957" 
d="M247 83h675v-83h-763v1480h753v-83h-665v-595h574v-83h-574v-636zM718 1889h82l-196 -275h-91l-196 275h82l160 -229z" />
    <glyph glyph-name="ecaron" unicode="&#x11b;" horiz-adv-x="857" 
d="M784 505h-607q2 -165 39.5 -262t109.5 -138.5t184 -41.5q95 0 226 41v-83q-117 -39 -233 -39q-141 0 -232.5 54.5t-138.5 178t-47 326.5q0 292 95.5 424t262.5 132q165 0 253 -129.5t88 -427.5v-35zM251 921.5q-70 -98.5 -74 -340.5h517q-2 166 -33 263t-85.5 136.5
t-132.5 39.5q-122 0 -192 -98.5zM585 1616h76l-177 -355h-91l-177 355h76l147 -305z" />
    <glyph glyph-name="Gcircumflex" unicode="&#x11c;" horiz-adv-x="1117" 
d="M992 720v-706q-137 -25 -253 -25q-217 0 -358.5 73t-213.5 237.5t-72 438.5q0 276 71 444t203 242t325 74q146 0 278 -40v-84q-134 42 -280 42q-167 0 -277 -63t-168.5 -212t-58.5 -403q0 -250 60 -396t179.5 -208t309.5 -62q92 0 168 14v634h87zM867 1614h-82l-159 229
l-160 -229h-82l196 275h91z" />
    <glyph glyph-name="gcircumflex" unicode="&#x11d;" horiz-adv-x="926" 
d="M265.5 -448.5q-67.5 11.5 -119.5 31.5v83q129 -45 247 -45q104 0 170.5 32.5t100.5 107.5t34 200v140h-7q-39 -51 -104.5 -84.5t-146.5 -33.5q-159 0 -257 124t-98 412q0 578 462 578q60 0 127 -10.5t112 -27.5v-1090q0 -227 -97 -328t-294 -101q-62 0 -129.5 11.5z
M595 102.5q67 38.5 103 108.5v787q-30 8 -73 13.5t-80 5.5q-183 0 -275.5 -115t-92.5 -374q0 -180 35.5 -282.5t96 -142t145.5 -39.5q74 0 141 38.5zM704 1261h-76l-146 305l-147 -305h-76l177 355h91z" />
    <glyph glyph-name="Gbreve" unicode="&#x11e;" horiz-adv-x="1117" 
d="M992 720v-706q-137 -25 -253 -25q-217 0 -358.5 73t-213.5 237.5t-72 438.5q0 276 71 444t203 242t325 74q146 0 278 -40v-84q-134 42 -280 42q-167 0 -277 -63t-168.5 -212t-58.5 -403q0 -250 60 -396t179.5 -208t309.5 -62q92 0 168 14v634h87zM448 1685.5
q-65 60.5 -72 177.5h67q11 -92 53.5 -132t130.5 -40q89 0 131.5 40.5t49.5 131.5h67q-7 -118 -70.5 -178t-177.5 -60t-179 60.5z" />
    <glyph glyph-name="gbreve" unicode="&#x11f;" horiz-adv-x="926" 
d="M265.5 -448.5q-67.5 11.5 -119.5 31.5v83q129 -45 247 -45q104 0 170.5 32.5t100.5 107.5t34 200v140h-7q-39 -51 -104.5 -84.5t-146.5 -33.5q-159 0 -257 124t-98 412q0 578 462 578q60 0 127 -10.5t112 -27.5v-1090q0 -227 -97 -328t-294 -101q-62 0 -129.5 11.5z
M595 102.5q67 38.5 103 108.5v787q-30 8 -73 13.5t-80 5.5q-183 0 -275.5 -115t-92.5 -374q0 -180 35.5 -282.5t96 -142t145.5 -39.5q74 0 141 38.5zM317.5 1352.5q-61.5 79.5 -66.5 236.5h67q7 -132 48 -191.5t117 -59.5q77 0 117.5 59.5t44.5 191.5h67q-5 -159 -65 -237.5
t-164 -78.5t-165.5 79.5z" />
    <glyph glyph-name="Gdotaccent" unicode="&#x120;" horiz-adv-x="1117" 
d="M992 720v-706q-137 -25 -253 -25q-217 0 -358.5 73t-213.5 237.5t-72 438.5q0 276 71 444t203 242t325 74q146 0 278 -40v-84q-134 42 -280 42q-167 0 -277 -63t-168.5 -212t-58.5 -403q0 -250 60 -396t179.5 -208t309.5 -62q92 0 168 14v634h87zM573 1701q-20 19 -20 51
t20.5 51.5t52.5 19.5t52.5 -19.5t20.5 -51.5t-20.5 -51t-52.5 -19q-33 0 -53 19z" />
    <glyph glyph-name="gdotaccent" unicode="&#x121;" horiz-adv-x="926" 
d="M265.5 -448.5q-67.5 11.5 -119.5 31.5v83q129 -45 247 -45q104 0 170.5 32.5t100.5 107.5t34 200v140h-7q-39 -51 -104.5 -84.5t-146.5 -33.5q-159 0 -257 124t-98 412q0 578 462 578q60 0 127 -10.5t112 -27.5v-1090q0 -227 -97 -328t-294 -101q-62 0 -129.5 11.5z
M595 102.5q67 38.5 103 108.5v787q-30 8 -73 13.5t-80 5.5q-183 0 -275.5 -115t-92.5 -374q0 -180 35.5 -282.5t96 -142t145.5 -39.5q74 0 141 38.5zM429 1370q-20 19 -20 52t20 53t53 20t52.5 -20t19.5 -53t-19.5 -52t-52.5 -19t-53 19z" />
    <glyph glyph-name="Gcommaaccent" unicode="&#x122;" horiz-adv-x="1117" 
d="M992 720v-706q-137 -25 -253 -25q-217 0 -358.5 73t-213.5 237.5t-72 438.5q0 276 71 444t203 242t325 74q146 0 278 -40v-84q-134 42 -280 42q-167 0 -277 -63t-168.5 -212t-58.5 -403q0 -250 60 -396t179.5 -208t309.5 -62q92 0 168 14v634h87zM677 -202.5
q20 -23.5 20 -68.5q0 -39 -12 -87.5t-35 -93.5h-57q31 76 36 138h-3q-32 0 -52 19t-20 50q0 29 18.5 47.5t49.5 18.5q35 0 55 -23.5z" />
    <glyph glyph-name="gcommaaccent" unicode="&#x123;" horiz-adv-x="926" 
d="M265.5 -448.5q-67.5 11.5 -119.5 31.5v83q129 -45 247 -45q104 0 170.5 32.5t100.5 107.5t34 200v140h-7q-39 -51 -104.5 -84.5t-146.5 -33.5q-159 0 -257 124t-98 412q0 578 462 578q60 0 127 -10.5t112 -27.5v-1090q0 -227 -97 -328t-294 -101q-62 0 -129.5 11.5z
M595 102.5q67 38.5 103 108.5v787q-30 8 -73 13.5t-80 5.5q-183 0 -275.5 -115t-92.5 -374q0 -180 35.5 -282.5t96 -142t145.5 -39.5q74 0 141 38.5zM533.5 1466.5q19.5 -18.5 19.5 -49.5q0 -29 -18.5 -47.5t-49.5 -18.5q-35 0 -55 23t-20 68q0 39 12 88t35 94h57
q-31 -77 -36 -139h4q32 0 51.5 -18.5z" />
    <glyph glyph-name="Hcircumflex" unicode="&#x124;" horiz-adv-x="1229" 
d="M159 0v1480h89v-677h734v677h88v-1480h-88v718h-734v-718h-89zM856 1614h-82l-159 229l-160 -229h-82l196 275h91z" />
    <glyph glyph-name="hcircumflex" unicode="&#x125;" horiz-adv-x="941" 
d="M140 1616h88v-658h7q57 70 132 104.5t160 34.5q283 0 283 -331v-766h-88v768q0 132 -54 188t-155 56q-78 0 -157 -40.5t-128 -128.5v-843h-88v1616zM716 1710h-82l-159 229l-160 -229h-82l196 275h91z" />
    <glyph glyph-name="Hbar" unicode="&#x126;" horiz-adv-x="1229" 
d="M1234 1180v-72h-164v-1108h-88v718h-734v-718h-89v1108h-162v72h162v300h89v-300h734v300h88v-300h164zM982 803v305h-734v-305h734z" />
    <glyph glyph-name="hbar" unicode="&#x127;" horiz-adv-x="941" 
d="M810 766v-766h-88v768q0 132 -54 188t-155 56q-78 0 -157 -40.5t-128 -128.5v-843h-88v1320h-134v73h134v223h88v-223h296v-73h-296v-362h7q57 70 132 104.5t160 34.5q283 0 283 -331z" />
    <glyph glyph-name="Itilde" unicode="&#x128;" horiz-adv-x="407" 
d="M159 0v1480h89v-1480h-89zM264 1700q-33 11 -74 31q-42 19 -66.5 27.5t-51.5 8.5q-42 0 -75 -17.5t-64 -54.5v77q52 63 139 63q35 0 67 -10.5t76 -31.5q39 -19 65 -28t53 -9q43 0 75.5 17.5t63.5 55.5v-77q-52 -63 -139 -63q-36 0 -69 11z" />
    <glyph glyph-name="itilde" unicode="&#x129;" horiz-adv-x="368" 
d="M140 0v1081h88v-1081h-88zM242 1382.5q-29 10.5 -72 32.5q-39 19 -61.5 27.5t-45.5 8.5q-41 0 -73.5 -18t-62.5 -55v77q24 31 58.5 47.5t77.5 16.5q33 0 62 -10.5t72 -32.5q39 -19 61.5 -27.5t45.5 -8.5q41 0 73.5 18t62.5 55v-78q-24 -30 -58.5 -46.5t-77.5 -16.5
q-33 0 -62 10.5z" />
    <glyph glyph-name="Imacron" unicode="&#x12a;" horiz-adv-x="407" 
d="M159 0v1480h89v-1480h-89zM-46 1718v69h497v-69h-497z" />
    <glyph glyph-name="imacron" unicode="&#x12b;" horiz-adv-x="368" 
d="M140 0v1081h88v-1081h-88zM-73 1388v70h513v-70h-513z" />
    <glyph glyph-name="Ibreve" unicode="&#x12c;" horiz-adv-x="407" 
d="M159 0v1480h89v-1480h-89zM25 1685.5q-65 60.5 -72 177.5h67q11 -92 53.5 -132t130.5 -40q89 0 131.5 40.5t49.5 131.5h67q-7 -118 -70.5 -178t-177.5 -60t-179 60.5z" />
    <glyph glyph-name="ibreve" unicode="&#x12d;" horiz-adv-x="368" 
d="M140 0v1081h88v-1081h-88zM19.5 1352.5q-61.5 79.5 -66.5 236.5h67q7 -132 48 -191.5t117 -59.5q77 0 117.5 59.5t44.5 191.5h67q-5 -159 -65 -237.5t-164 -78.5t-165.5 79.5z" />
    <glyph glyph-name="Iogonek" unicode="&#x12e;" horiz-adv-x="407" 
d="M275 -336q35 9 79 30v-60q-73 -38 -148 -38q-99 0 -151.5 44t-52.5 128q0 70 37.5 129t119.5 116v1467h89v-1480q-98 -57 -139 -111t-41 -116q0 -60 34.5 -89t104.5 -29q33 0 68 9z" />
    <glyph glyph-name="iogonek" unicode="&#x12f;" horiz-adv-x="368" 
d="M131 1370q-20 19 -20 52t20 53t53 20t52.5 -20t19.5 -53t-19.5 -52t-52.5 -19t-53 19zM320 -302v-62q-27 -19 -62 -29.5t-72 -10.5q-87 0 -135.5 45.5t-48.5 126.5q0 66 33 124t105 116v1073h88v-1081q-85 -58 -122.5 -112.5t-37.5 -114.5q0 -57 31 -87.5t88 -30.5
q72 0 133 43z" />
    <glyph glyph-name="Idotaccent" unicode="&#x130;" horiz-adv-x="407" 
d="M159 0v1480h89v-1480h-89zM150 1701q-20 19 -20 51t20.5 51.5t52.5 19.5t52.5 -19.5t20.5 -51.5t-20.5 -51t-52.5 -19q-33 0 -53 19z" />
    <glyph glyph-name="dotlessi" unicode="&#x131;" horiz-adv-x="368" 
d="M140 0v1081h88v-1081h-88z" />
    <glyph glyph-name="Jcircumflex" unicode="&#x134;" horiz-adv-x="407" 
d="M-9 -298q61 97 97.5 183t53.5 182.5t17 219.5v1193h89v-1220q-6 -177 -49.5 -312.5t-144.5 -288.5zM444 1614h-82l-159 229l-160 -229h-82l196 275h91z" />
    <glyph glyph-name="jcircumflex" unicode="&#x135;" horiz-adv-x="368" 
d="M-28 -419q91 144 129.5 274.5t38.5 311.5v914h88v-904q0 -135 -20 -239.5t-61.5 -198t-111.5 -200.5zM406 1261h-76l-146 305l-147 -305h-76l177 355h91z" />
    <glyph glyph-name="Kcommaaccent" unicode="&#x136;" horiz-adv-x="1052" 
d="M989 0l-553 718h-188v-718h-89v1480h89v-679h191l511 679h101l-544 -717l585 -763h-103zM613 -202.5q20 -23.5 20 -68.5q0 -39 -12 -87.5t-35 -93.5h-57q31 76 36 138h-3q-32 0 -52 19t-20 50q0 29 18.5 47.5t49.5 18.5q35 0 55 -23.5z" />
    <glyph glyph-name="kcommaaccent" unicode="&#x137;" horiz-adv-x="848" 
d="M769 0l-376 513h-165v-513h-88v1616h88v-1024h164l347 489h102l-374 -527l406 -554h-104zM521 -202.5q20 -23.5 20 -68.5q0 -39 -12 -87.5t-35 -93.5h-57q31 76 36 138h-3q-32 0 -52 19t-20 50q0 29 18.5 47.5t49.5 18.5q35 0 55 -23.5z" />
    <glyph glyph-name="kgreenlandic" unicode="&#x138;" horiz-adv-x="848" 
d="M769 0l-376 513h-165v-513h-88v1081h88v-489h164l347 489h102l-374 -527l406 -554h-104z" />
    <glyph glyph-name="Lacute" unicode="&#x139;" horiz-adv-x="899" 
d="M159 0v1480h89v-1396h647v-84h-736zM167 1614l130 275h92l-148 -275h-74z" />
    <glyph glyph-name="lacute" unicode="&#x13a;" horiz-adv-x="368" 
d="M140 0v1616h88v-1616h-88zM147 1710l130 275h92l-148 -275h-74z" />
    <glyph glyph-name="Lcommaaccent" unicode="&#x13b;" horiz-adv-x="899" 
d="M159 0v1480h89v-1396h647v-84h-736zM579 -202.5q20 -23.5 20 -68.5q0 -39 -12 -87.5t-35 -93.5h-57q31 76 36 138h-3q-32 0 -52 19t-20 50q0 29 18.5 47.5t49.5 18.5q35 0 55 -23.5z" />
    <glyph glyph-name="lcommaaccent" unicode="&#x13c;" horiz-adv-x="368" 
d="M140 0v1616h88v-1616h-88zM235 -202.5q20 -23.5 20 -68.5q0 -39 -12 -87.5t-35 -93.5h-57q31 76 36 138h-3q-32 0 -52 19t-20 50q0 29 18.5 47.5t49.5 18.5q35 0 55 -23.5z" />
    <glyph glyph-name="Lcaron" unicode="&#x13d;" horiz-adv-x="899" 
d="M159 0v1480h89v-1396h647v-84h-736zM584 1616h76q0 -288 -39 -476h-56q19 167 19 476z" />
    <glyph glyph-name="lcaron" unicode="&#x13e;" horiz-adv-x="368" 
d="M140 0v1616h88v-1616h-88zM327 1616h76q0 -110 -9.5 -224t-29.5 -212h-56q19 167 19 436z" />
    <glyph glyph-name="Ldot" unicode="&#x13f;" horiz-adv-x="899" 
d="M159 0v1480h89v-1396h647v-84h-736zM597 728.5q-20 19.5 -20 51.5q0 33 20 53.5t53 20.5t53 -20.5t20 -53.5q0 -32 -20 -51.5t-53 -19.5t-53 19.5z" />
    <glyph glyph-name="ldot" unicode="&#x140;" horiz-adv-x="394" 
d="M140 0v1616h88v-1616h-88zM322.5 740q-19.5 19 -19.5 52t19.5 53t52.5 20t53 -20t20 -53t-20 -52t-53 -19t-52.5 19z" />
    <glyph glyph-name="Lslash" unicode="&#x141;" horiz-adv-x="902" 
d="M250 84h647v-84h-736v685l-123 -116l-45 54l168 159v698h89v-614l235 222l45 -55l-280 -264v-685z" />
    <glyph glyph-name="lslash" unicode="&#x142;" horiz-adv-x="374" 
d="M371 840l-140 -131v-709h-88v626l-96 -90l-44 52l140 131v897h88v-814l96 90z" />
    <glyph glyph-name="Nacute" unicode="&#x143;" horiz-adv-x="1256" 
d="M1012 1480h85v-1480h-96l-757 1329v-1329h-85v1480h96l757 -1329v1329zM591 1614l130 275h92l-148 -275h-74z" />
    <glyph glyph-name="nacute" unicode="&#x144;" horiz-adv-x="941" 
d="M140 1081h76l8 -123h8q55 67 130.5 103t163.5 36q284 0 284 -325v-772h-88v768q0 133 -54 189.5t-155 56.5q-77 0 -156.5 -41t-128.5 -130v-843h-88v1081zM438 1261l152 355h91l-170 -355h-73z" />
    <glyph glyph-name="Ncommaaccent" unicode="&#x145;" horiz-adv-x="1256" 
d="M1012 1480h85v-1480h-96l-757 1329v-1329h-85v1480h96l757 -1329v1329zM679 -202.5q20 -23.5 20 -68.5q0 -39 -12 -87.5t-35 -93.5h-57q31 76 36 138h-3q-32 0 -52 19t-20 50q0 29 18.5 47.5t49.5 18.5q35 0 55 -23.5z" />
    <glyph glyph-name="ncommaaccent" unicode="&#x146;" horiz-adv-x="941" 
d="M140 1081h76l8 -123h8q55 67 130.5 103t163.5 36q284 0 284 -325v-772h-88v768q0 133 -54 189.5t-155 56.5q-77 0 -156.5 -41t-128.5 -130v-843h-88v1081zM526 -202.5q20 -23.5 20 -68.5q0 -39 -12 -87.5t-35 -93.5h-57q31 76 36 138h-3q-32 0 -52 19t-20 50
q0 29 18.5 47.5t49.5 18.5q35 0 55 -23.5z" />
    <glyph glyph-name="Ncaron" unicode="&#x147;" horiz-adv-x="1256" 
d="M1012 1480h85v-1480h-96l-757 1329v-1329h-85v1480h96l757 -1329v1329zM787 1889h82l-196 -275h-91l-196 275h82l160 -229z" />
    <glyph glyph-name="ncaron" unicode="&#x148;" horiz-adv-x="941" 
d="M140 1081h76l8 -123h8q55 67 130.5 103t163.5 36q284 0 284 -325v-772h-88v768q0 133 -54 189.5t-155 56.5q-77 0 -156.5 -41t-128.5 -130v-843h-88v1081zM621 1616h76l-177 -355h-91l-177 355h76l147 -305z" />
    <glyph glyph-name="napostrophe" unicode="&#x149;" horiz-adv-x="941" 
d="M140 1081h76l8 -123h8q55 67 130.5 103t163.5 36q284 0 284 -325v-772h-88v768q0 133 -54 189.5t-155 56.5q-77 0 -156.5 -41t-128.5 -130v-843h-88v1081zM132.5 1601q19.5 -23 19.5 -69q0 -39 -12 -87.5t-35 -93.5h-56q30 77 35 138h-3q-32 0 -51.5 19t-19.5 50
q0 29 18.5 47.5t48.5 18.5q36 0 55.5 -23z" />
    <glyph glyph-name="Eng" unicode="&#x14a;" horiz-adv-x="1256" 
d="M1097 1480v-1300q0 -136 -20 -241.5t-61.5 -199t-111.5 -200.5l-63 42q70 109 108 206t53 211l-758 1331v-1329h-85v1480h96l757 -1331v18v1313h85z" />
    <glyph glyph-name="eng" unicode="&#x14b;" horiz-adv-x="941" 
d="M554 -419q92 144 130 274t38 312v601q0 133 -54.5 190t-154.5 57q-77 0 -156.5 -41.5t-128.5 -130.5v-843h-88v1081h76l8 -123h8q58 70 133.5 104.5t160.5 34.5q132 0 208 -76.5t76 -254.5v-626q-5 -177 -48.5 -312.5t-144.5 -288.5z" />
    <glyph glyph-name="Omacron" unicode="&#x14c;" horiz-adv-x="1179" 
d="M223 160.5q-128 178.5 -128 579.5t128 579.5t366 178.5q239 0 366.5 -178.5t127.5 -579.5t-127.5 -579.5t-366.5 -178.5q-238 0 -366 178.5zM805 126.5q88 62.5 136.5 211t48.5 398.5q0 254 -48.5 404t-136.5 213t-216 63t-216 -62.5t-136.5 -211t-48.5 -398.5
q0 -254 48.5 -404t136.5 -213t216 -63t216 62.5zM340 1718v69h497v-69h-497z" />
    <glyph glyph-name="omacron" unicode="&#x14d;" horiz-adv-x="922" 
d="M85 540q0 293 97.5 425t278.5 132q376 0 376 -557q0 -293 -97.5 -425.5t-278.5 -132.5q-376 0 -376 558zM614.5 105q62.5 44 96.5 148.5t34 282.5q0 182 -34 288t-96 150t-154 44t-154 -43.5t-96 -148t-34 -282.5q0 -182 34 -288.5t96 -150.5t154 -44q91 0 153.5 44z
M204 1388v70h513v-70h-513z" />
    <glyph glyph-name="Obreve" unicode="&#x14e;" horiz-adv-x="1179" 
d="M223 160.5q-128 178.5 -128 579.5t128 579.5t366 178.5q239 0 366.5 -178.5t127.5 -579.5t-127.5 -579.5t-366.5 -178.5q-238 0 -366 178.5zM805 126.5q88 62.5 136.5 211t48.5 398.5q0 254 -48.5 404t-136.5 213t-216 63t-216 -62.5t-136.5 -211t-48.5 -398.5
q0 -254 48.5 -404t136.5 -213t216 -63t216 62.5zM411 1685.5q-65 60.5 -72 177.5h67q11 -92 53.5 -132t130.5 -40q89 0 131.5 40.5t49.5 131.5h67q-7 -118 -70.5 -178t-177.5 -60t-179 60.5z" />
    <glyph glyph-name="obreve" unicode="&#x14f;" horiz-adv-x="922" 
d="M85 540q0 293 97.5 425t278.5 132q376 0 376 -557q0 -293 -97.5 -425.5t-278.5 -132.5q-376 0 -376 558zM614.5 105q62.5 44 96.5 148.5t34 282.5q0 182 -34 288t-96 150t-154 44t-154 -43.5t-96 -148t-34 -282.5q0 -182 34 -288.5t96 -150.5t154 -44q91 0 153.5 44z
M296.5 1352.5q-61.5 79.5 -66.5 236.5h67q7 -132 48 -191.5t117 -59.5q77 0 117.5 59.5t44.5 191.5h67q-5 -159 -65 -237.5t-164 -78.5t-165.5 79.5z" />
    <glyph glyph-name="Ohungarumlaut" unicode="&#x150;" horiz-adv-x="1179" 
d="M223 160.5q-128 178.5 -128 579.5t128 579.5t366 178.5q239 0 366.5 -178.5t127.5 -579.5t-127.5 -579.5t-366.5 -178.5q-238 0 -366 178.5zM805 126.5q88 62.5 136.5 211t48.5 398.5q0 254 -48.5 404t-136.5 213t-216 63t-216 -62.5t-136.5 -211t-48.5 -398.5
q0 -254 48.5 -404t136.5 -213t216 -63t216 62.5zM421 1614l89 275h79l-98 -275h-70zM687 1614l88 275h79l-98 -275h-69z" />
    <glyph glyph-name="ohungarumlaut" unicode="&#x151;" horiz-adv-x="922" 
d="M85 540q0 293 97.5 425t278.5 132q376 0 376 -557q0 -293 -97.5 -425.5t-278.5 -132.5q-376 0 -376 558zM614.5 105q62.5 44 96.5 148.5t34 282.5q0 182 -34 288t-96 150t-154 44t-154 -43.5t-96 -148t-34 -282.5q0 -182 34 -288.5t96 -150.5t154 -44q91 0 153.5 44z
M295 1261l90 355h77l-99 -355h-68zM559 1261l89 355h78l-100 -355h-67z" />
    <glyph glyph-name="OE" unicode="&#x152;" horiz-adv-x="1671" 
d="M1635 83v-83h-679q-23 0 -83 -4q-76 -6 -140 -6q-317 0 -477.5 180t-160.5 570q0 384 154 569t459 185q59 0 156 -9q16 -1 42.5 -3t43.5 -2h675v-83h-640v-595h550v-83h-550v-636h650zM897 1398q-84 13 -190 13q-179 0 -293 -69.5t-170 -217t-56 -384.5q0 -239 60 -386.5
t178.5 -214.5t300.5 -67q100 0 170 10v1316z" />
    <glyph glyph-name="oe" unicode="&#x153;" horiz-adv-x="1502" 
d="M1429 505h-600q2 -165 39.5 -262t108.5 -138.5t181 -41.5q91 0 222 41v-83q-117 -39 -228 -39q-145 0 -236.5 60.5t-133.5 194.5q-79 -255 -326 -255q-175 0 -273 133.5t-98 424.5q0 293 96.5 425t274.5 132q249 0 328 -264q69 266 305 266q164 0 252 -129.5t88 -429.5
v-35zM900.5 923q-67.5 -99 -71.5 -342h510q-3 169 -34.5 266.5t-85.5 136t-131 38.5q-120 0 -187.5 -99zM607.5 105q61.5 44 95.5 148.5t34 282.5q0 182 -34 288t-95 150t-151 44t-151 -43.5t-95 -148t-34 -282.5q0 -181 34 -287.5t95 -151t151 -44.5q89 0 150.5 44z" />
    <glyph glyph-name="Racute" unicode="&#x154;" horiz-adv-x="1131" 
d="M991 0l-460 648q-60 -5 -114 -5q-92 0 -170 5v-648h-88v1467q80 13 154 20t159 7q252 0 376.5 -105t124.5 -314q2 -170 -87 -274.5t-265 -139.5l471 -661h-101zM772.5 807q113.5 85 113.5 266q0 175 -98 258t-318 83q-113 0 -223 -18v-668q99 -6 165 -6q247 0 360.5 85z
M495 1614l130 275h92l-148 -275h-74z" />
    <glyph glyph-name="racute" unicode="&#x155;" horiz-adv-x="579" 
d="M140 1081h76l7 -146h9q50 76 124 115.5t158 39.5q31 0 55 -4v-87q-21 3 -59 3q-84 0 -162 -48.5t-120 -134.5v-819h-88v1081zM293 1261l152 355h91l-170 -355h-73z" />
    <glyph glyph-name="Rcommaaccent" unicode="&#x156;" horiz-adv-x="1131" 
d="M991 0l-460 648q-60 -5 -114 -5q-92 0 -170 5v-648h-88v1467q80 13 154 20t159 7q252 0 376.5 -105t124.5 -314q2 -170 -87 -274.5t-265 -139.5l471 -661h-101zM772.5 807q113.5 85 113.5 266q0 175 -98 258t-318 83q-113 0 -223 -18v-668q99 -6 165 -6q247 0 360.5 85z
M652 -202.5q20 -23.5 20 -68.5q0 -39 -12 -87.5t-35 -93.5h-57q31 76 36 138h-3q-32 0 -52 19t-20 50q0 29 18.5 47.5t49.5 18.5q35 0 55 -23.5z" />
    <glyph glyph-name="rcommaaccent" unicode="&#x157;" horiz-adv-x="579" 
d="M140 1081h76l7 -146h9q50 76 124 115.5t158 39.5q31 0 55 -4v-87q-21 3 -59 3q-84 0 -162 -48.5t-120 -134.5v-819h-88v1081zM235 -202.5q20 -23.5 20 -68.5q0 -39 -12 -87.5t-35 -93.5h-57q31 76 36 138h-3q-32 0 -52 19t-20 50q0 29 18.5 47.5t49.5 18.5q35 0 55 -23.5
z" />
    <glyph glyph-name="Rcaron" unicode="&#x158;" horiz-adv-x="1131" 
d="M991 0l-460 648q-60 -5 -114 -5q-92 0 -170 5v-648h-88v1467q80 13 154 20t159 7q252 0 376.5 -105t124.5 -314q2 -170 -87 -274.5t-265 -139.5l471 -661h-101zM772.5 807q113.5 85 113.5 266q0 175 -98 258t-318 83q-113 0 -223 -18v-668q99 -6 165 -6q247 0 360.5 85z
M691 1889h82l-196 -275h-91l-196 275h82l160 -229z" />
    <glyph glyph-name="rcaron" unicode="&#x159;" horiz-adv-x="579" 
d="M140 1081h76l7 -146h9q50 76 124 115.5t158 39.5q31 0 55 -4v-87q-21 3 -59 3q-84 0 -162 -48.5t-120 -134.5v-819h-88v1081zM476 1616h76l-177 -355h-91l-177 355h76l147 -305z" />
    <glyph glyph-name="Sacute" unicode="&#x15a;" horiz-adv-x="878" 
d="M225.5 -5q-75.5 13 -144.5 38v84q153 -53 293 -53q171 0 258.5 78t87.5 233q0 88 -28 147.5t-89 101.5t-164 78l-57 19q-159 56 -238 150t-79 243q0 182 113.5 283t327.5 101q64 0 132.5 -9.5t118.5 -26.5v-84q-121 38 -252 38q-174 0 -261 -76t-87 -220q0 -84 27 -142
t86 -99t158 -76l56 -19q165 -57 247 -153.5t82 -249.5q0 -192 -115.5 -295.5t-328.5 -103.5q-68 0 -143.5 13zM409 1614l130 275h92l-148 -275h-74z" />
    <glyph glyph-name="sacute" unicode="&#x15b;" horiz-adv-x="732" 
d="M92 20v83q66 -21 121 -30.5t110 -9.5q125 0 192.5 55.5t67.5 159.5q0 91 -42 139.5t-131 73.5l-96 27q-130 37 -185.5 106t-55.5 179q0 85 41 151.5t120 104.5t188 38q102 0 198 -22v-83q-54 13 -99 19t-97 6q-87 0 -146.5 -27.5t-88.5 -75.5t-29 -108q0 -82 41 -130.5
t127 -72.5l97 -27q136 -38 191 -109t55 -184q0 -142 -91.5 -221.5t-256.5 -79.5q-117 0 -231 38zM336 1261l152 355h91l-170 -355h-73z" />
    <glyph glyph-name="Scircumflex" unicode="&#x15c;" horiz-adv-x="878" 
d="M225.5 -5q-75.5 13 -144.5 38v84q153 -53 293 -53q171 0 258.5 78t87.5 233q0 88 -28 147.5t-89 101.5t-164 78l-57 19q-159 56 -238 150t-79 243q0 182 113.5 283t327.5 101q64 0 132.5 -9.5t118.5 -26.5v-84q-121 38 -252 38q-174 0 -261 -76t-87 -220q0 -84 27 -142
t86 -99t158 -76l56 -19q165 -57 247 -153.5t82 -249.5q0 -192 -115.5 -295.5t-328.5 -103.5q-68 0 -143.5 13zM687 1614h-82l-159 229l-160 -229h-82l196 275h91z" />
    <glyph glyph-name="scircumflex" unicode="&#x15d;" horiz-adv-x="732" 
d="M92 20v83q66 -21 121 -30.5t110 -9.5q125 0 192.5 55.5t67.5 159.5q0 91 -42 139.5t-131 73.5l-96 27q-130 37 -185.5 106t-55.5 179q0 85 41 151.5t120 104.5t188 38q102 0 198 -22v-83q-54 13 -99 19t-97 6q-87 0 -146.5 -27.5t-88.5 -75.5t-29 -108q0 -82 41 -130.5
t127 -72.5l97 -27q136 -38 191 -109t55 -184q0 -142 -91.5 -221.5t-256.5 -79.5q-117 0 -231 38zM595 1261h-76l-146 305l-147 -305h-76l177 355h91z" />
    <glyph glyph-name="Scedilla" unicode="&#x15e;" horiz-adv-x="878" 
d="M726 114.5q-87 -100.5 -250 -124.5v-100q74 -5 117.5 -42.5t43.5 -103.5q0 -71 -49.5 -109.5t-133.5 -38.5q-94 0 -174 37v62q50 -22 91 -31.5t81 -9.5q56 0 88 22.5t32 68.5q0 45 -32.5 67.5t-89.5 22.5h-38v148q-14 -1 -43 -1q-68 0 -143.5 13t-144.5 38v84
q153 -53 293 -53q171 0 258.5 78t87.5 233q0 88 -28 147.5t-89 101.5t-164 78l-57 19q-159 56 -238 150t-79 243q0 182 113.5 283t327.5 101q64 0 132.5 -9.5t118.5 -26.5v-84q-121 38 -252 38q-174 0 -261 -76t-87 -220q0 -84 27 -142t86 -99t158 -76l56 -19
q165 -57 247 -153.5t82 -249.5q0 -166 -87 -266.5z" />
    <glyph glyph-name="scedilla" unicode="&#x15f;" horiz-adv-x="732" 
d="M602 84.5q-69 -76.5 -195 -96.5v-101q65 -7 99.5 -45t34.5 -100q0 -67 -45.5 -106.5t-127.5 -39.5q-38 0 -78 9t-68 25v62q68 -38 150 -38q105 0 105 89q0 92 -107 92h-27v147h-20q-117 0 -231 38v83q66 -21 121 -30.5t110 -9.5q125 0 192.5 55.5t67.5 159.5
q0 91 -42 139.5t-131 73.5l-96 27q-130 37 -185.5 106t-55.5 179q0 85 41 151.5t120 104.5t188 38q102 0 198 -22v-83q-54 13 -99 19t-97 6q-87 0 -146.5 -27.5t-88.5 -75.5t-29 -108q0 -82 41 -130.5t127 -72.5l97 -27q136 -38 191 -109t55 -184q0 -122 -69 -198.5z" />
    <glyph glyph-name="Scaron" unicode="&#x160;" horiz-adv-x="878" 
d="M225.5 -5q-75.5 13 -144.5 38v84q153 -53 293 -53q171 0 258.5 78t87.5 233q0 88 -28 147.5t-89 101.5t-164 78l-57 19q-159 56 -238 150t-79 243q0 182 113.5 283t327.5 101q64 0 132.5 -9.5t118.5 -26.5v-84q-121 38 -252 38q-174 0 -261 -76t-87 -220q0 -84 27 -142
t86 -99t158 -76l56 -19q165 -57 247 -153.5t82 -249.5q0 -192 -115.5 -295.5t-328.5 -103.5q-68 0 -143.5 13zM605 1889h82l-196 -275h-91l-196 275h82l160 -229z" />
    <glyph glyph-name="scaron" unicode="&#x161;" horiz-adv-x="732" 
d="M92 20v83q66 -21 121 -30.5t110 -9.5q125 0 192.5 55.5t67.5 159.5q0 91 -42 139.5t-131 73.5l-96 27q-130 37 -185.5 106t-55.5 179q0 85 41 151.5t120 104.5t188 38q102 0 198 -22v-83q-54 13 -99 19t-97 6q-87 0 -146.5 -27.5t-88.5 -75.5t-29 -108q0 -82 41 -130.5
t127 -72.5l97 -27q136 -38 191 -109t55 -184q0 -142 -91.5 -221.5t-256.5 -79.5q-117 0 -231 38zM519 1616h76l-177 -355h-91l-177 355h76l147 -305z" />
    <glyph glyph-name="uni0162" unicode="&#x162;" horiz-adv-x="993" 
d="M527 0v-110q74 -5 117.5 -42.5t43.5 -103.5q0 -71 -49.5 -109.5t-133.5 -38.5q-94 0 -174 37v62q50 -22 91 -31.5t81 -9.5q56 0 88 22.5t32 68.5q0 45 -32.5 67.5t-89.5 22.5h-38v165h-11v1396h-444v84h977v-84h-444v-1396h-14z" />
    <glyph glyph-name="uni0163" unicode="&#x163;" horiz-adv-x="604" 
d="M431 -16v-97q65 -7 99.5 -45t34.5 -100q0 -67 -45.5 -106.5t-127.5 -39.5q-38 0 -78 9t-68 25v62q68 -38 150 -38q105 0 105 89q0 92 -107 92h-27v161q-171 51 -171 291v715h-196v79h196l12 399h76v-399h296v-79h-296v-701q0 -130 48 -183.5t152 -53.5q51 0 115 16v-83
q-63 -15 -125 -15q-15 0 -43 2z" />
    <glyph glyph-name="Tcaron" unicode="&#x164;" horiz-adv-x="993" 
d="M452 0v1396h-444v84h977v-84h-444v-1396h-89zM656 1889h82l-196 -275h-91l-196 275h82l160 -229z" />
    <glyph glyph-name="tcaron" unicode="&#x165;" horiz-adv-x="604" 
d="M599 80v-83q-63 -15 -125 -15q-135 0 -206.5 72.5t-71.5 232.5v715h-196v79h196l12 399h76v-399h296v-79h-296v-701q0 -130 48 -183.5t152 -53.5q51 0 115 16zM478 1616h76q0 -110 -9.5 -224t-29.5 -212h-56q19 167 19 436z" />
    <glyph glyph-name="Tbar" unicode="&#x166;" horiz-adv-x="993" 
d="M985 1396h-444v-566h295v-72h-295v-758h-89v758h-294v72h294v566h-444v84h977v-84z" />
    <glyph glyph-name="tbar" unicode="&#x167;" horiz-adv-x="604" 
d="M599 80v-83q-63 -15 -125 -15q-135 0 -206.5 72.5t-71.5 232.5v331h-135v73h135v311h-196v79h196l12 399h76v-399h296v-79h-296v-311h256v-73h-256v-317q0 -130 48 -183.5t152 -53.5q51 0 115 16z" />
    <glyph glyph-name="Utilde" unicode="&#x168;" horiz-adv-x="1207" 
d="M346 38q-100 56 -147.5 169.5t-47.5 291.5v981h89v-993q0 -218 86 -320.5t279 -102.5q192 0 278 102.5t86 320.5v993h86v-981q0 -178 -46.5 -292t-146 -169.5t-257.5 -55.5q-159 0 -259 56zM666 1700q-33 11 -74 31q-42 19 -66.5 27.5t-51.5 8.5q-42 0 -75 -17.5
t-64 -54.5v77q52 63 139 63q35 0 67 -10.5t76 -31.5q39 -19 65 -28t53 -9q43 0 75.5 17.5t63.5 55.5v-77q-52 -63 -139 -63q-36 0 -69 11z" />
    <glyph glyph-name="utilde" unicode="&#x169;" horiz-adv-x="931" 
d="M130 313v768h88v-770q0 -132 54 -189t151 -57q75 0 154 41t126 129v846h88v-1081h-77l-7 119h-8q-57 -68 -131.5 -102.5t-155.5 -34.5q-282 0 -282 331zM520 1382.5q-29 10.5 -72 32.5q-39 19 -61.5 27.5t-45.5 8.5q-41 0 -73.5 -18t-62.5 -55v77q24 31 58.5 47.5
t77.5 16.5q33 0 62 -10.5t72 -32.5q39 -19 61.5 -27.5t45.5 -8.5q41 0 73.5 18t62.5 55v-78q-24 -30 -58.5 -46.5t-77.5 -16.5q-33 0 -62 10.5z" />
    <glyph glyph-name="Umacron" unicode="&#x16a;" horiz-adv-x="1207" 
d="M346 38q-100 56 -147.5 169.5t-47.5 291.5v981h89v-993q0 -218 86 -320.5t279 -102.5q192 0 278 102.5t86 320.5v993h86v-981q0 -178 -46.5 -292t-146 -169.5t-257.5 -55.5q-159 0 -259 56zM356 1718v69h497v-69h-497z" />
    <glyph glyph-name="umacron" unicode="&#x16b;" horiz-adv-x="931" 
d="M130 313v768h88v-770q0 -132 54 -189t151 -57q75 0 154 41t126 129v846h88v-1081h-77l-7 119h-8q-57 -68 -131.5 -102.5t-155.5 -34.5q-282 0 -282 331zM205 1388v70h513v-70h-513z" />
    <glyph glyph-name="Ubreve" unicode="&#x16c;" horiz-adv-x="1207" 
d="M346 38q-100 56 -147.5 169.5t-47.5 291.5v981h89v-993q0 -218 86 -320.5t279 -102.5q192 0 278 102.5t86 320.5v993h86v-981q0 -178 -46.5 -292t-146 -169.5t-257.5 -55.5q-159 0 -259 56zM427 1685.5q-65 60.5 -72 177.5h67q11 -92 53.5 -132t130.5 -40
q89 0 131.5 40.5t49.5 131.5h67q-7 -118 -70.5 -178t-177.5 -60t-179 60.5z" />
    <glyph glyph-name="ubreve" unicode="&#x16d;" horiz-adv-x="931" 
d="M130 313v768h88v-770q0 -132 54 -189t151 -57q75 0 154 41t126 129v846h88v-1081h-77l-7 119h-8q-57 -68 -131.5 -102.5t-155.5 -34.5q-282 0 -282 331zM297.5 1352.5q-61.5 79.5 -66.5 236.5h67q7 -132 48 -191.5t117 -59.5q77 0 117.5 59.5t44.5 191.5h67
q-5 -159 -65 -237.5t-164 -78.5t-165.5 79.5z" />
    <glyph glyph-name="Uring" unicode="&#x16e;" horiz-adv-x="1207" 
d="M346 38q-100 56 -147.5 169.5t-47.5 291.5v981h89v-993q0 -218 86 -320.5t279 -102.5q192 0 278 102.5t86 320.5v993h86v-981q0 -178 -46.5 -292t-146 -169.5t-257.5 -55.5q-159 0 -259 56zM509 1631q-43 24 -67 67t-24 96t24 95.5t67 66.5t96 24t95.5 -24t66.5 -66.5
t24 -95.5t-24 -96t-66.5 -67t-95.5 -24t-96 24zM696 1700q35 35 35 94t-35 94t-91 35q-57 0 -92 -35t-35 -94t35 -94t92 -35q56 0 91 35z" />
    <glyph glyph-name="uring" unicode="&#x16f;" horiz-adv-x="931" 
d="M130 313v768h88v-770q0 -132 54 -189t151 -57q75 0 154 41t126 129v846h88v-1081h-77l-7 119h-8q-57 -68 -131.5 -102.5t-155.5 -34.5q-282 0 -282 331zM366 1281q-43 24 -67 66.5t-24 95.5t24 96t67 67t96 24t95.5 -24t66.5 -67t24 -96t-24 -95.5t-66.5 -66.5t-95.5 -24
t-96 24zM553 1349.5q35 34.5 35 93.5t-35 94t-91 35q-57 0 -92 -35t-35 -94t35 -93.5t92 -34.5q56 0 91 34.5z" />
    <glyph glyph-name="Uhungarumlaut" unicode="&#x170;" horiz-adv-x="1207" 
d="M346 38q-100 56 -147.5 169.5t-47.5 291.5v981h89v-993q0 -218 86 -320.5t279 -102.5q192 0 278 102.5t86 320.5v993h86v-981q0 -178 -46.5 -292t-146 -169.5t-257.5 -55.5q-159 0 -259 56zM437 1614l89 275h79l-98 -275h-70zM703 1614l88 275h79l-98 -275h-69z" />
    <glyph glyph-name="uhungarumlaut" unicode="&#x171;" horiz-adv-x="931" 
d="M130 313v768h88v-770q0 -132 54 -189t151 -57q75 0 154 41t126 129v846h88v-1081h-77l-7 119h-8q-57 -68 -131.5 -102.5t-155.5 -34.5q-282 0 -282 331zM296 1261l90 355h77l-99 -355h-68zM560 1261l89 355h78l-100 -355h-67z" />
    <glyph glyph-name="Uogonek" unicode="&#x172;" horiz-adv-x="1207" 
d="M1055 1480v-981q0 -198 -60 -321.5t-205 -170.5q-239 -79 -239 -234q0 -60 34.5 -89t104.5 -29q33 0 68 9t79 30v-60q-73 -38 -148 -38q-99 0 -151.5 44t-52.5 128q0 130 125 214h-5q-159 0 -259 56t-147.5 169.5t-47.5 291.5v981h89v-993q0 -218 86 -320.5t279 -102.5
q192 0 278 102.5t86 320.5v993h86z" />
    <glyph glyph-name="uogonek" unicode="&#x173;" horiz-adv-x="931" 
d="M883 -302v-62q-27 -19 -62 -29.5t-72 -10.5q-87 0 -135.5 45.5t-48.5 126.5q0 68 35.5 128t112.5 120l-6 103h-8q-57 -68 -131.5 -102.5t-155.5 -34.5q-282 0 -282 331v768h88v-770q0 -132 54 -189t151 -57q75 0 154 41t126 129v846h88v-1081q-85 -58 -122.5 -112.5
t-37.5 -114.5q0 -57 31 -87.5t88 -30.5q72 0 133 43z" />
    <glyph glyph-name="Wcircumflex" unicode="&#x174;" horiz-adv-x="1788" 
d="M1649 1480h86l-373 -1480h-120l-347 1378l-349 -1378h-120l-373 1480h92l344 -1390l349 1390h115l349 -1390zM1137 1614h-82l-159 229l-160 -229h-82l196 275h91z" />
    <glyph glyph-name="wcircumflex" unicode="&#x175;" horiz-adv-x="1456" 
d="M1320 1081h87l-288 -1081h-113l-277 987l-279 -987h-114l-287 1081h90l257 -987l276 987h114l276 -986zM952 1261h-76l-146 305l-147 -305h-76l177 355h91z" />
    <glyph glyph-name="Ycircumflex" unicode="&#x176;" horiz-adv-x="993" 
d="M1010 1480l-469 -806v-674h-89v674l-477 806h99l423 -719l418 719h95zM738 1614h-82l-159 229l-160 -229h-82l196 275h91z" />
    <glyph glyph-name="ycircumflex" unicode="&#x177;" horiz-adv-x="870" 
d="M764 1081h96l-513 -1521h-91l150 440h-31l-364 1081h96l327 -997zM658 1261h-76l-146 305l-147 -305h-76l177 355h91z" />
    <glyph glyph-name="Ydieresis" unicode="&#x178;" horiz-adv-x="993" 
d="M1010 1480l-469 -806v-674h-89v674l-477 806h99l423 -719l418 719h95zM260.5 1701q-19.5 19 -19.5 51t19.5 51.5t51.5 19.5t51.5 -19.5t19.5 -51.5t-19.5 -51t-51.5 -19t-51.5 19zM629.5 1701q-19.5 19 -19.5 51t19.5 51.5t51.5 19.5t51.5 -19.5t19.5 -51.5t-19.5 -51
t-51.5 -19t-51.5 19z" />
    <glyph glyph-name="Zacute" unicode="&#x179;" horiz-adv-x="960" 
d="M169 82h737v-82h-852v51l727 1347h-717v82h832v-51zM444 1614l130 275h92l-148 -275h-74z" />
    <glyph glyph-name="zacute" unicode="&#x17a;" horiz-adv-x="750" 
d="M161 79h541v-79h-649v53l532 949h-522v79h629v-52zM342 1261l152 355h91l-170 -355h-73z" />
    <glyph glyph-name="Zdotaccent" unicode="&#x17b;" horiz-adv-x="960" 
d="M169 82h737v-82h-852v51l727 1347h-717v82h832v-51zM428 1701q-20 19 -20 51t20.5 51.5t52.5 19.5t52.5 -19.5t20.5 -51.5t-20.5 -51t-52.5 -19q-33 0 -53 19z" />
    <glyph glyph-name="zdotaccent" unicode="&#x17c;" horiz-adv-x="750" 
d="M161 79h541v-79h-649v53l532 949h-522v79h629v-52zM326 1370q-20 19 -20 52t20 53t53 20t52.5 -20t19.5 -53t-19.5 -52t-52.5 -19t-53 19z" />
    <glyph glyph-name="Zcaron" unicode="&#x17d;" horiz-adv-x="960" 
d="M169 82h737v-82h-852v51l727 1347h-717v82h832v-51zM640 1889h82l-196 -275h-91l-196 275h82l160 -229z" />
    <glyph glyph-name="zcaron" unicode="&#x17e;" horiz-adv-x="750" 
d="M161 79h541v-79h-649v53l532 949h-522v79h629v-52zM525 1616h76l-177 -355h-91l-177 355h76l147 -305z" />
    <glyph glyph-name="uni018F" unicode="&#x18f;" horiz-adv-x="1179" 
d="M817 1423.5q131 -74.5 199 -242t68 -442.5q0 -399 -131 -578t-374 -179q-241 0 -367.5 179t-126.5 578v46h907q-5 242 -61 379.5t-165.5 194.5t-286.5 57q-182 0 -324 -42v84q157 40 332 40q199 0 330 -74.5zM800.5 123.5q89.5 59.5 139 200.5t52.5 381h-814
q3 -241 50 -382t133.5 -200t217.5 -59q132 0 221.5 59.5z" />
    <glyph glyph-name="florin" unicode="&#x192;" horiz-adv-x="573" 
d="M344 1505q-52 -50 -52 -157v-267h295v-80h-295v-1164q0 -147 -75 -222t-221 -75q-72 0 -122 10v83q7 -1 43.5 -6.5t78.5 -5.5q104 0 156 50t52 157v1173h-196v80h196v258q0 147 75 222t221 75q72 0 122 -10v-83q-7 1 -43.5 6.5t-78.5 5.5q-104 0 -156 -50z" />
    <glyph glyph-name="Ohorn" unicode="&#x1a0;" horiz-adv-x="1179" 
d="M1083 740q0 -400 -129 -579t-365 -179t-365 179t-129 579q0 401 128 579.5t366 178.5q62 0 140 -12q66 -10 101 -10q79 0 127.5 39.5t48.5 118.5q0 38 -6 70t-18 72h79q13 -36 18.5 -69t5.5 -76q0 -99 -56.5 -158t-150.5 -68q205 -167 205 -665zM805 126.5
q88 62.5 136.5 211t48.5 398.5q0 254 -48.5 404t-136.5 213t-216 63t-216 -62.5t-136.5 -211t-48.5 -398.5q0 -254 48.5 -404t136.5 -213t216 -63t216 62.5z" />
    <glyph glyph-name="ohorn" unicode="&#x1a1;" horiz-adv-x="922" 
d="M799 839.5q38 -119.5 38 -299.5q0 -293 -97.5 -425.5t-278.5 -132.5q-376 0 -376 558q0 293 97.5 425t278.5 132q22 0 48.5 -1.5t38.5 -1.5q33 -3 59 -3q79 0 127.5 40.5t48.5 122.5q0 38 -6 70t-18 72h78q12 -35 17.5 -68t5.5 -77q0 -94 -48 -152.5t-128 -74.5
q77 -65 115 -184.5zM614.5 105q62.5 44 96.5 148.5t34 282.5q0 182 -34 288t-96 150t-154 44t-154 -43.5t-96 -148t-34 -282.5q0 -182 34 -288.5t96 -150.5t154 -44q91 0 153.5 44z" />
    <glyph glyph-name="Uhorn" unicode="&#x1af;" horiz-adv-x="1207" 
d="M346 38q-100 56 -147.5 169.5t-47.5 291.5v981h89v-993q0 -218 86 -320.5t279 -102.5q192 0 278 102.5t86 320.5v993h39q79 0 127.5 38t48.5 116q0 38 -6 70t-18 72h79q13 -36 18.5 -69t5.5 -76q0 -99 -57.5 -155.5t-150.5 -62.5v-914q0 -178 -46.5 -292t-146 -169.5
t-257.5 -55.5q-159 0 -259 56z" />
    <glyph glyph-name="uhorn" unicode="&#x1b0;" horiz-adv-x="952" 
d="M938.5 1078.5q-56.5 -60.5 -147.5 -69.5v-1009h-77l-7 119h-8q-57 -68 -131.5 -102.5t-155.5 -34.5q-282 0 -282 331v768h88v-770q0 -132 54 -189t151 -57q75 0 154 41t126 129v846h39q79 0 127.5 40.5t48.5 123.5q0 37 -6 69.5t-18 71.5h77q13 -36 18.5 -69t5.5 -76
q0 -102 -56.5 -162.5z" />
    <glyph glyph-name="uni01C4" unicode="&#x1c4;" horiz-adv-x="2087" 
d="M159 4v1463q160 27 288 27q315 0 470 -184.5t155 -569.5q0 -264 -74 -430t-218.5 -243.5t-361.5 -77.5q-101 0 -259 15zM736.5 139q121.5 67 182 214t60.5 387q0 237 -57 385t-174 217.5t-301 69.5q-87 0 -199 -15v-1316q82 -9 178 -9q189 0 310.5 67zM1296 82h737v-82
h-852v51l727 1347h-717v82h832v-51zM1768 1889h82l-196 -275h-91l-196 275h82l160 -229z" />
    <glyph glyph-name="uni01C5" unicode="&#x1c5;" horiz-adv-x="1917" 
d="M159 4v1463q160 27 288 27q315 0 470 -184.5t155 -569.5q0 -264 -74 -430t-218.5 -243.5t-361.5 -77.5q-101 0 -259 15zM736.5 139q121.5 67 182 214t60.5 387q0 237 -57 385t-174 217.5t-301 69.5q-87 0 -199 -15v-1316q82 -9 178 -9q189 0 310.5 67zM1328 79h541v-79
h-649v53l532 949h-522v79h629v-52zM1705 1569h82l-196 -275h-91l-196 275h82l160 -229z" />
    <glyph glyph-name="uni01C6" unicode="&#x1c6;" horiz-adv-x="1676" 
d="M184 106q-99 124 -99 413q0 297 119 437.5t349 140.5q77 0 145 -9v528h88v-1616h-77l-7 107h-8q-39 -55 -103.5 -90t-145.5 -35q-162 0 -261 124zM595.5 103.5q66.5 39.5 102.5 111.5v789q-29 5 -72 9t-77 4q-186 0 -279 -115t-93 -374q0 -181 35.5 -283t96.5 -141.5
t146 -39.5q74 0 140.5 39.5zM1087 79h541v-79h-649v53l532 949h-522v79h629v-52zM1451 1616h76l-177 -355h-91l-177 355h76l147 -305z" />
    <glyph glyph-name="uni01C7" unicode="&#x1c7;" horiz-adv-x="1306" 
d="M159 0v1480h89v-1396h647v-84h-736zM890 -298q61 97 97.5 183t53.5 182.5t17 219.5v1193h89v-1220q-6 -177 -49.5 -312.5t-144.5 -288.5z" />
    <glyph glyph-name="uni01C8" unicode="&#x1c8;" horiz-adv-x="1267" 
d="M159 0v1480h89v-1396h647v-84h-736zM871 -419q91 144 129.5 274.5t38.5 311.5v914h88v-904q0 -135 -20 -239.5t-61.5 -198t-111.5 -200.5zM1030 1370q-20 19 -20 52t20 53t53 20t52.5 -20t19.5 -53t-19.5 -52t-52.5 -19t-53 19z" />
    <glyph glyph-name="uni01C9" unicode="&#x1c9;" horiz-adv-x="736" 
d="M140 0v1616h88v-1616h-88zM340 -419q91 144 129.5 274.5t38.5 311.5v914h88v-904q0 -135 -20 -239.5t-61.5 -198t-111.5 -200.5zM499 1370q-20 19 -20 52t20 53t53 20t52.5 -20t19.5 -53t-19.5 -52t-52.5 -19t-53 19z" />
    <glyph glyph-name="uni01CA" unicode="&#x1ca;" horiz-adv-x="1663" 
d="M1012 1480h85v-1480h-96l-757 1329v-1329h-85v1480h96l757 -1329v1329zM1247 -298q61 97 97.5 183t53.5 182.5t17 219.5v1193h89v-1220q-6 -177 -49.5 -312.5t-144.5 -288.5z" />
    <glyph glyph-name="uni01CB" unicode="&#x1cb;" horiz-adv-x="1624" 
d="M1012 1480h85v-1480h-96l-757 1329v-1329h-85v1480h96l757 -1329v1329zM1228 -419q91 144 129.5 274.5t38.5 311.5v914h88v-904q0 -135 -20 -239.5t-61.5 -198t-111.5 -200.5zM1387 1370q-20 19 -20 52t20 53t53 20t52.5 -20t19.5 -53t-19.5 -52t-52.5 -19t-53 19z" />
    <glyph glyph-name="uni01CC" unicode="&#x1cc;" horiz-adv-x="1309" 
d="M140 1081h76l8 -123h8q55 67 130.5 103t163.5 36q284 0 284 -325v-772h-88v768q0 133 -54 189.5t-155 56.5q-77 0 -156.5 -41t-128.5 -130v-843h-88v1081zM913 -419q91 144 129.5 274.5t38.5 311.5v914h88v-904q0 -135 -20 -239.5t-61.5 -198t-111.5 -200.5zM1072 1370
q-20 19 -20 52t20 53t53 20t52.5 -20t19.5 -53t-19.5 -52t-52.5 -19t-53 19z" />
    <glyph glyph-name="Gcaron" unicode="&#x1e6;" horiz-adv-x="1117" 
d="M992 720v-706q-137 -25 -253 -25q-217 0 -358.5 73t-213.5 237.5t-72 438.5q0 276 71 444t203 242t325 74q146 0 278 -40v-84q-134 42 -280 42q-167 0 -277 -63t-168.5 -212t-58.5 -403q0 -250 60 -396t179.5 -208t309.5 -62q92 0 168 14v634h87zM785 1889h82l-196 -275
h-91l-196 275h82l160 -229z" />
    <glyph glyph-name="gcaron" unicode="&#x1e7;" horiz-adv-x="926" 
d="M265.5 -448.5q-67.5 11.5 -119.5 31.5v83q129 -45 247 -45q104 0 170.5 32.5t100.5 107.5t34 200v140h-7q-39 -51 -104.5 -84.5t-146.5 -33.5q-159 0 -257 124t-98 412q0 578 462 578q60 0 127 -10.5t112 -27.5v-1090q0 -227 -97 -328t-294 -101q-62 0 -129.5 11.5z
M595 102.5q67 38.5 103 108.5v787q-30 8 -73 13.5t-80 5.5q-183 0 -275.5 -115t-92.5 -374q0 -180 35.5 -282.5t96 -142t145.5 -39.5q74 0 141 38.5zM628 1616h76l-177 -355h-91l-177 355h76l147 -305z" />
    <glyph glyph-name="uni01EA" unicode="&#x1ea;" horiz-adv-x="1179" 
d="M607 -97q-52 -61 -52 -130q0 -60 34.5 -89t104.5 -29q33 0 68 9t79 30v-60q-73 -38 -148 -38q-99 0 -152.5 44t-53.5 128q0 127 124 214h-22q-236 0 -365 179t-129 579q0 401 128 579.5t366 178.5q239 0 366.5 -178.5t127.5 -579.5q0 -317 -80.5 -490.5t-234.5 -238.5
q-109 -47 -161 -108zM236.5 340q48.5 -150 136.5 -213t216 -63t216 62.5t136.5 211t48.5 398.5q0 254 -48.5 404t-136.5 213t-216 63t-216 -62.5t-136.5 -211t-48.5 -398.5q0 -254 48.5 -404z" />
    <glyph glyph-name="uni01EB" unicode="&#x1eb;" horiz-adv-x="922" 
d="M442.5 -98.5q-47.5 -61.5 -47.5 -126.5q0 -60 31.5 -90t87.5 -30q60 0 116 31l17 -52q-58 -38 -134 -38q-85 0 -134.5 44.5t-49.5 127.5q0 62 29.5 118t86.5 96q-360 16 -360 558q0 293 97.5 425t278.5 132q376 0 376 -557q0 -236 -62.5 -365.5t-183.5 -173.5
q-101 -38 -148.5 -99.5zM211 255.5q34 -106.5 96 -150.5t154 -44q91 0 153.5 44t96.5 148.5t34 282.5q0 182 -34 288t-96 150t-154 44t-154 -43.5t-96 -148t-34 -282.5q0 -182 34 -288.5z" />
    <glyph glyph-name="uni01F1" unicode="&#x1f1;" horiz-adv-x="2087" 
d="M159 4v1463q160 27 288 27q315 0 470 -184.5t155 -569.5q0 -264 -74 -430t-218.5 -243.5t-361.5 -77.5q-101 0 -259 15zM736.5 139q121.5 67 182 214t60.5 387q0 237 -57 385t-174 217.5t-301 69.5q-87 0 -199 -15v-1316q82 -9 178 -9q189 0 310.5 67zM1296 82h737v-82
h-852v51l727 1347h-717v82h832v-51z" />
    <glyph glyph-name="uni01F2" unicode="&#x1f2;" horiz-adv-x="1917" 
d="M159 4v1463q160 27 288 27q315 0 470 -184.5t155 -569.5q0 -264 -74 -430t-218.5 -243.5t-361.5 -77.5q-101 0 -259 15zM736.5 139q121.5 67 182 214t60.5 387q0 237 -57 385t-174 217.5t-301 69.5q-87 0 -199 -15v-1316q82 -9 178 -9q189 0 310.5 67zM1328 79h541v-79
h-649v53l532 949h-522v79h629v-52z" />
    <glyph glyph-name="uni01F3" unicode="&#x1f3;" horiz-adv-x="1676" 
d="M184 106q-99 124 -99 413q0 297 119 437.5t349 140.5q77 0 145 -9v528h88v-1616h-77l-7 107h-8q-39 -55 -103.5 -90t-145.5 -35q-162 0 -261 124zM595.5 103.5q66.5 39.5 102.5 111.5v789q-29 5 -72 9t-77 4q-186 0 -279 -115t-93 -374q0 -181 35.5 -283t96.5 -141.5
t146 -39.5q74 0 140.5 39.5zM1087 79h541v-79h-649v53l532 949h-522v79h629v-52z" />
    <glyph glyph-name="uni01F4" unicode="&#x1f4;" horiz-adv-x="1117" 
d="M992 720v-706q-137 -25 -253 -25q-217 0 -358.5 73t-213.5 237.5t-72 438.5q0 276 71 444t203 242t325 74q146 0 278 -40v-84q-134 42 -280 42q-167 0 -277 -63t-168.5 -212t-58.5 -403q0 -250 60 -396t179.5 -208t309.5 -62q92 0 168 14v634h87zM589 1614l130 275h92
l-148 -275h-74z" />
    <glyph glyph-name="uni01F5" unicode="&#x1f5;" horiz-adv-x="926" 
d="M265.5 -448.5q-67.5 11.5 -119.5 31.5v83q129 -45 247 -45q104 0 170.5 32.5t100.5 107.5t34 200v140h-7q-39 -51 -104.5 -84.5t-146.5 -33.5q-159 0 -257 124t-98 412q0 578 462 578q60 0 127 -10.5t112 -27.5v-1090q0 -227 -97 -328t-294 -101q-62 0 -129.5 11.5z
M595 102.5q67 38.5 103 108.5v787q-30 8 -73 13.5t-80 5.5q-183 0 -275.5 -115t-92.5 -374q0 -180 35.5 -282.5t96 -142t145.5 -39.5q74 0 141 38.5zM445 1261l152 355h91l-170 -355h-73z" />
    <glyph glyph-name="Aringacute" unicode="&#x1fa;" horiz-adv-x="1141" 
d="M1023 0l-168 516h-572l-168 -516h-91l488 1480h117l488 -1480h-94zM310 599h518l-259 795zM718 1914q39 -50 39 -118q0 -53 -24 -96t-66.5 -67t-95.5 -24t-96 24t-67 67t-24 96t24 95.5t67 66.5t96 24q55 0 99 -27l135 136h93zM662 1702q35 35 35 94t-35 93.5t-91 34.5
q-57 0 -92 -34.5t-35 -93.5t35 -94t92 -35q56 0 91 35z" />
    <glyph glyph-name="aringacute" unicode="&#x1fb;" horiz-adv-x="862" 
d="M581 1063.5q74 -33.5 112.5 -110.5t38.5 -206v-747h-76l-8 121h-8q-48 -68 -118.5 -102.5t-156.5 -34.5t-150.5 33t-100 97t-35.5 155q0 140 82.5 217.5t252.5 95.5l230 26v142q0 102 -29 160.5t-84.5 82t-143.5 23.5q-55 0 -121.5 -11.5t-130.5 -33.5v83
q54 20 124.5 31.5t134.5 11.5q113 0 187 -33.5zM522.5 101q69.5 38 121.5 125v306l-229 -25q-125 -13 -184 -69.5t-59 -158.5q0 -109 53 -162.5t154 -53.5q74 0 143.5 38zM561 1574q24 -25 37 -59t13 -72q0 -53 -24 -95.5t-66.5 -66.5t-95.5 -24t-96 24t-67 66.5t-24 95.5
t24 96t67 67t96 24q46 0 86 -19l135 169h89zM516 1349.5q35 34.5 35 93.5t-35 94t-91 35q-57 0 -92 -35t-35 -94t35 -93.5t92 -34.5q56 0 91 34.5z" />
    <glyph glyph-name="AEacute" unicode="&#x1fc;" horiz-adv-x="1565" 
d="M907 83h622v-83h-706l-23 516h-511l-173 -516h-92l499 1480h996v-83h-673l28 -595h554v-83h-551zM317 599h479l-36 798h-176zM763 1614l130 275h92l-148 -275h-74z" />
    <glyph glyph-name="aeacute" unicode="&#x1fd;" horiz-adv-x="1404" 
d="M1331 505h-599q2 -165 39.5 -262t108 -138.5t181.5 -41.5q89 0 222 41v-83q-118 -39 -229 -39q-130 0 -217.5 48.5t-134.5 155.5q-63 -110 -147 -156t-186 -46q-86 0 -151.5 32.5t-102 96t-36.5 152.5q0 148 87.5 232t277.5 84h201v174q0 100 -29 157t-85.5 80.5
t-143.5 23.5q-55 0 -121.5 -11.5t-130.5 -33.5v83q55 20 125 31.5t133 11.5q131 0 208 -47t105 -155q80 204 286 204q164 0 251.5 -129.5t87.5 -429.5v-35zM803.5 923q-67.5 -99 -71.5 -342h509q-3 169 -34.5 266.5t-85.5 136t-131 38.5q-119 0 -186.5 -99zM547 112.5
q76 49.5 125 162.5q-24 98 -27 231h-200q-273 0 -273 -231q0 -106 54.5 -159t154.5 -53q90 0 166 49.5zM651 1261l152 355h91l-170 -355h-73z" />
    <glyph glyph-name="Oslashacute" unicode="&#x1fe;" horiz-adv-x="1179" 
d="M1083 740q0 -401 -127.5 -579.5t-366.5 -178.5q-214 0 -335 138l-84 -139l-62 37l101 165q-114 189 -114 557q0 401 128 579.5t366 178.5q215 0 335 -138l84 139l62 -37l-100 -165q113 -187 113 -557zM262 272l613 1008q-51 72 -122.5 104t-163.5 32q-128 0 -216 -62.5
t-136.5 -211t-48.5 -398.5q0 -310 74 -472zM805 126.5q88 62.5 136.5 211t48.5 398.5q0 310 -74 472l-613 -1008q51 -72 122.5 -104t163.5 -32q128 0 216 62.5zM554 1614l130 275h92l-148 -275h-74z" />
    <glyph glyph-name="oslashacute" unicode="&#x1ff;" horiz-adv-x="922" 
d="M837 540q0 -293 -97.5 -425.5t-278.5 -132.5q-157 0 -249 98l-63 -99l-61 37l78 124q-81 139 -81 398q0 293 97.5 425t278.5 132q158 0 249 -97l63 100l61 -37l-79 -124q82 -138 82 -399zM306.5 974.5q-62.5 -43.5 -96.5 -148t-34 -282.5q0 -204 45 -319l442 700
q-35 49 -85.5 71t-116.5 22q-92 0 -154.5 -43.5zM615.5 105q62.5 44 96.5 148.5t34 282.5q0 205 -45 320l-443 -701q35 -50 86 -72t117 -22q92 0 154.5 44zM424 1261l152 355h91l-170 -355h-73z" />
    <glyph glyph-name="uni0200" unicode="&#x200;" horiz-adv-x="1141" 
d="M1023 0l-168 516h-572l-168 -516h-91l488 1480h117l488 -1480h-94zM310 599h518l-259 795zM403 1614l-98 275h79l89 -275h-70zM669 1614l-99 275h80l88 -275h-69z" />
    <glyph glyph-name="uni0201" unicode="&#x201;" horiz-adv-x="862" 
d="M581 1063.5q74 -33.5 112.5 -110.5t38.5 -206v-747h-76l-8 121h-8q-48 -68 -118.5 -102.5t-156.5 -34.5t-150.5 33t-100 97t-35.5 155q0 140 82.5 217.5t252.5 95.5l230 26v142q0 102 -29 160.5t-84.5 82t-143.5 23.5q-55 0 -121.5 -11.5t-130.5 -33.5v83
q54 20 124.5 31.5t134.5 11.5q113 0 187 -33.5zM522.5 101q69.5 38 121.5 125v306l-229 -25q-125 -13 -184 -69.5t-59 -158.5q0 -109 53 -162.5t154 -53.5q74 0 143.5 38zM257 1261l-99 355h81l88 -355h-70zM523 1261l-100 355h81l88 -355h-69z" />
    <glyph glyph-name="uni0202" unicode="&#x202;" horiz-adv-x="1141" 
d="M1023 0l-168 516h-572l-168 -516h-91l488 1480h117l488 -1480h-94zM310 599h518l-259 795zM391.5 1818q63.5 60 177.5 60t179 -60.5t72 -177.5h-67q-11 92 -53.5 132t-130.5 40q-89 0 -131.5 -40.5t-49.5 -131.5h-67q7 118 70.5 178z" />
    <glyph glyph-name="uni0203" unicode="&#x203;" horiz-adv-x="862" 
d="M581 1063.5q74 -33.5 112.5 -110.5t38.5 -206v-747h-76l-8 121h-8q-48 -68 -118.5 -102.5t-156.5 -34.5t-150.5 33t-100 97t-35.5 155q0 140 82.5 217.5t252.5 95.5l230 26v142q0 102 -29 160.5t-84.5 82t-143.5 23.5q-55 0 -121.5 -11.5t-130.5 -33.5v83
q54 20 124.5 31.5t134.5 11.5q113 0 187 -33.5zM522.5 101q69.5 38 121.5 125v306l-229 -25q-125 -13 -184 -69.5t-59 -158.5q0 -109 53 -162.5t154 -53.5q74 0 143.5 38zM258.5 1527.5q59.5 77.5 164.5 77.5q104 0 165.5 -78.5t66.5 -237.5h-67q-7 132 -48 190.5t-117 58.5
q-77 0 -117.5 -58.5t-44.5 -190.5h-67q5 161 64.5 238.5z" />
    <glyph glyph-name="uni0204" unicode="&#x204;" horiz-adv-x="957" 
d="M247 83h675v-83h-763v1480h753v-83h-665v-595h574v-83h-574v-636zM391 1614l-98 275h79l89 -275h-70zM657 1614l-99 275h80l88 -275h-69z" />
    <glyph glyph-name="uni0205" unicode="&#x205;" horiz-adv-x="857" 
d="M784 505h-607q2 -165 39.5 -262t109.5 -138.5t184 -41.5q95 0 226 41v-83q-117 -39 -233 -39q-141 0 -232.5 54.5t-138.5 178t-47 326.5q0 292 95.5 424t262.5 132q165 0 253 -129.5t88 -427.5v-35zM251 921.5q-70 -98.5 -74 -340.5h517q-2 166 -33 263t-85.5 136.5
t-132.5 39.5q-122 0 -192 -98.5zM271 1261l-99 355h81l88 -355h-70zM537 1261l-100 355h81l88 -355h-69z" />
    <glyph glyph-name="uni0206" unicode="&#x206;" horiz-adv-x="957" 
d="M247 83h675v-83h-763v1480h753v-83h-665v-595h574v-83h-574v-636zM379.5 1818q63.5 60 177.5 60t179 -60.5t72 -177.5h-67q-11 92 -53.5 132t-130.5 40q-89 0 -131.5 -40.5t-49.5 -131.5h-67q7 118 70.5 178z" />
    <glyph glyph-name="uni0207" unicode="&#x207;" horiz-adv-x="857" 
d="M784 505h-607q2 -165 39.5 -262t109.5 -138.5t184 -41.5q95 0 226 41v-83q-117 -39 -233 -39q-141 0 -232.5 54.5t-138.5 178t-47 326.5q0 292 95.5 424t262.5 132q165 0 253 -129.5t88 -427.5v-35zM251 921.5q-70 -98.5 -74 -340.5h517q-2 166 -33 263t-85.5 136.5
t-132.5 39.5q-122 0 -192 -98.5zM272.5 1527.5q59.5 77.5 164.5 77.5q104 0 165.5 -78.5t66.5 -237.5h-67q-7 132 -48 190.5t-117 58.5q-77 0 -117.5 -58.5t-44.5 -190.5h-67q5 161 64.5 238.5z" />
    <glyph glyph-name="uni0208" unicode="&#x208;" horiz-adv-x="407" 
d="M159 0v1480h89v-1480h-89zM35 1614l-98 275h79l89 -275h-70zM301 1614l-99 275h80l88 -275h-69z" />
    <glyph glyph-name="uni0209" unicode="&#x209;" horiz-adv-x="368" 
d="M140 0v1081h88v-1081h-88zM16 1261l-99 355h81l88 -355h-70zM282 1261l-100 355h81l88 -355h-69z" />
    <glyph glyph-name="uni020A" unicode="&#x20a;" horiz-adv-x="407" 
d="M159 0v1480h89v-1480h-89zM23.5 1818q63.5 60 177.5 60t179 -60.5t72 -177.5h-67q-11 92 -53.5 132t-130.5 40q-89 0 -131.5 -40.5t-49.5 -131.5h-67q7 118 70.5 178z" />
    <glyph glyph-name="uni020B" unicode="&#x20b;" horiz-adv-x="368" 
d="M140 0v1081h88v-1081h-88zM17.5 1527.5q59.5 77.5 164.5 77.5q104 0 165.5 -78.5t66.5 -237.5h-67q-7 132 -48 190.5t-117 58.5q-77 0 -117.5 -58.5t-44.5 -190.5h-67q5 161 64.5 238.5z" />
    <glyph glyph-name="uni020C" unicode="&#x20c;" horiz-adv-x="1179" 
d="M223 160.5q-128 178.5 -128 579.5t128 579.5t366 178.5q239 0 366.5 -178.5t127.5 -579.5t-127.5 -579.5t-366.5 -178.5q-238 0 -366 178.5zM805 126.5q88 62.5 136.5 211t48.5 398.5q0 254 -48.5 404t-136.5 213t-216 63t-216 -62.5t-136.5 -211t-48.5 -398.5
q0 -254 48.5 -404t136.5 -213t216 -63t216 62.5zM421 1614l-98 275h79l89 -275h-70zM687 1614l-99 275h80l88 -275h-69z" />
    <glyph glyph-name="uni020D" unicode="&#x20d;" horiz-adv-x="922" 
d="M85 540q0 293 97.5 425t278.5 132q376 0 376 -557q0 -293 -97.5 -425.5t-278.5 -132.5q-376 0 -376 558zM614.5 105q62.5 44 96.5 148.5t34 282.5q0 182 -34 288t-96 150t-154 44t-154 -43.5t-96 -148t-34 -282.5q0 -182 34 -288.5t96 -150.5t154 -44q91 0 153.5 44z
M293 1261l-99 355h81l88 -355h-70zM559 1261l-100 355h81l88 -355h-69z" />
    <glyph glyph-name="uni020E" unicode="&#x20e;" horiz-adv-x="1179" 
d="M223 160.5q-128 178.5 -128 579.5t128 579.5t366 178.5q239 0 366.5 -178.5t127.5 -579.5t-127.5 -579.5t-366.5 -178.5q-238 0 -366 178.5zM805 126.5q88 62.5 136.5 211t48.5 398.5q0 254 -48.5 404t-136.5 213t-216 63t-216 -62.5t-136.5 -211t-48.5 -398.5
q0 -254 48.5 -404t136.5 -213t216 -63t216 62.5zM409.5 1818q63.5 60 177.5 60t179 -60.5t72 -177.5h-67q-11 92 -53.5 132t-130.5 40q-89 0 -131.5 -40.5t-49.5 -131.5h-67q7 118 70.5 178z" />
    <glyph glyph-name="uni020F" unicode="&#x20f;" horiz-adv-x="922" 
d="M85 540q0 293 97.5 425t278.5 132q376 0 376 -557q0 -293 -97.5 -425.5t-278.5 -132.5q-376 0 -376 558zM614.5 105q62.5 44 96.5 148.5t34 282.5q0 182 -34 288t-96 150t-154 44t-154 -43.5t-96 -148t-34 -282.5q0 -182 34 -288.5t96 -150.5t154 -44q91 0 153.5 44z
M294.5 1527.5q59.5 77.5 164.5 77.5q104 0 165.5 -78.5t66.5 -237.5h-67q-7 132 -48 190.5t-117 58.5q-77 0 -117.5 -58.5t-44.5 -190.5h-67q5 161 64.5 238.5z" />
    <glyph glyph-name="uni0210" unicode="&#x210;" horiz-adv-x="1131" 
d="M991 0l-460 648q-60 -5 -114 -5q-92 0 -170 5v-648h-88v1467q80 13 154 20t159 7q252 0 376.5 -105t124.5 -314q2 -170 -87 -274.5t-265 -139.5l471 -661h-101zM772.5 807q113.5 85 113.5 266q0 175 -98 258t-318 83q-113 0 -223 -18v-668q99 -6 165 -6q247 0 360.5 85z
M364 1614l-98 275h79l89 -275h-70zM630 1614l-99 275h80l88 -275h-69z" />
    <glyph glyph-name="uni0211" unicode="&#x211;" horiz-adv-x="579" 
d="M140 1081h76l7 -146h9q50 76 124 115.5t158 39.5q31 0 55 -4v-87q-21 3 -59 3q-84 0 -162 -48.5t-120 -134.5v-819h-88v1081zM162 1261l-99 355h81l88 -355h-70zM428 1261l-100 355h81l88 -355h-69z" />
    <glyph glyph-name="uni0212" unicode="&#x212;" horiz-adv-x="1131" 
d="M991 0l-460 648q-60 -5 -114 -5q-92 0 -170 5v-648h-88v1467q80 13 154 20t159 7q252 0 376.5 -105t124.5 -314q2 -170 -87 -274.5t-265 -139.5l471 -661h-101zM772.5 807q113.5 85 113.5 266q0 175 -98 258t-318 83q-113 0 -223 -18v-668q99 -6 165 -6q247 0 360.5 85z
M352.5 1818q63.5 60 177.5 60t179 -60.5t72 -177.5h-67q-11 92 -53.5 132t-130.5 40q-89 0 -131.5 -40.5t-49.5 -131.5h-67q7 118 70.5 178z" />
    <glyph glyph-name="uni0213" unicode="&#x213;" horiz-adv-x="579" 
d="M140 1081h76l7 -146h9q50 76 124 115.5t158 39.5q31 0 55 -4v-87q-21 3 -59 3q-84 0 -162 -48.5t-120 -134.5v-819h-88v1081zM163.5 1527.5q59.5 77.5 164.5 77.5q104 0 165.5 -78.5t66.5 -237.5h-67q-7 132 -48 190.5t-117 58.5q-77 0 -117.5 -58.5t-44.5 -190.5h-67
q5 161 64.5 238.5z" />
    <glyph glyph-name="uni0214" unicode="&#x214;" horiz-adv-x="1207" 
d="M346 38q-100 56 -147.5 169.5t-47.5 291.5v981h89v-993q0 -218 86 -320.5t279 -102.5q192 0 278 102.5t86 320.5v993h86v-981q0 -178 -46.5 -292t-146 -169.5t-257.5 -55.5q-159 0 -259 56zM437 1614l-98 275h79l89 -275h-70zM703 1614l-99 275h80l88 -275h-69z" />
    <glyph glyph-name="uni0215" unicode="&#x215;" horiz-adv-x="931" 
d="M130 313v768h88v-770q0 -132 54 -189t151 -57q75 0 154 41t126 129v846h88v-1081h-77l-7 119h-8q-57 -68 -131.5 -102.5t-155.5 -34.5q-282 0 -282 331zM294 1261l-99 355h81l88 -355h-70zM560 1261l-100 355h81l88 -355h-69z" />
    <glyph glyph-name="uni0216" unicode="&#x216;" horiz-adv-x="1207" 
d="M346 38q-100 56 -147.5 169.5t-47.5 291.5v981h89v-993q0 -218 86 -320.5t279 -102.5q192 0 278 102.5t86 320.5v993h86v-981q0 -178 -46.5 -292t-146 -169.5t-257.5 -55.5q-159 0 -259 56zM425.5 1818q63.5 60 177.5 60t179 -60.5t72 -177.5h-67q-11 92 -53.5 132
t-130.5 40q-89 0 -131.5 -40.5t-49.5 -131.5h-67q7 118 70.5 178z" />
    <glyph glyph-name="uni0217" unicode="&#x217;" horiz-adv-x="931" 
d="M130 313v768h88v-770q0 -132 54 -189t151 -57q75 0 154 41t126 129v846h88v-1081h-77l-7 119h-8q-57 -68 -131.5 -102.5t-155.5 -34.5q-282 0 -282 331zM295.5 1527.5q59.5 77.5 164.5 77.5q104 0 165.5 -78.5t66.5 -237.5h-67q-7 132 -48 190.5t-117 58.5
q-77 0 -117.5 -58.5t-44.5 -190.5h-67q5 161 64.5 238.5z" />
    <glyph glyph-name="Scommaaccent" unicode="&#x218;" horiz-adv-x="878" 
d="M225.5 -5q-75.5 13 -144.5 38v84q153 -53 293 -53q171 0 258.5 78t87.5 233q0 88 -28 147.5t-89 101.5t-164 78l-57 19q-159 56 -238 150t-79 243q0 182 113.5 283t327.5 101q64 0 132.5 -9.5t118.5 -26.5v-84q-121 38 -252 38q-174 0 -261 -76t-87 -220q0 -84 27 -142
t86 -99t158 -76l56 -19q165 -57 247 -153.5t82 -249.5q0 -192 -115.5 -295.5t-328.5 -103.5q-68 0 -143.5 13zM497 -202.5q20 -23.5 20 -68.5q0 -39 -12 -87.5t-35 -93.5h-57q31 76 36 138h-3q-32 0 -52 19t-20 50q0 29 18.5 47.5t49.5 18.5q35 0 55 -23.5z" />
    <glyph glyph-name="scommaaccent" unicode="&#x219;" horiz-adv-x="732" 
d="M92 20v83q66 -21 121 -30.5t110 -9.5q125 0 192.5 55.5t67.5 159.5q0 91 -42 139.5t-131 73.5l-96 27q-130 37 -185.5 106t-55.5 179q0 85 41 151.5t120 104.5t188 38q102 0 198 -22v-83q-54 13 -99 19t-97 6q-87 0 -146.5 -27.5t-88.5 -75.5t-29 -108q0 -82 41 -130.5
t127 -72.5l97 -27q136 -38 191 -109t55 -184q0 -142 -91.5 -221.5t-256.5 -79.5q-117 0 -231 38zM424 -202.5q20 -23.5 20 -68.5q0 -39 -12 -87.5t-35 -93.5h-57q31 76 36 138h-3q-32 0 -52 19t-20 50q0 29 18.5 47.5t49.5 18.5q35 0 55 -23.5z" />
    <glyph glyph-name="uni021A" unicode="&#x21a;" horiz-adv-x="993" 
d="M452 0v1396h-444v84h977v-84h-444v-1396h-89zM548 -202.5q20 -23.5 20 -68.5q0 -39 -12 -87.5t-35 -93.5h-57q31 76 36 138h-3q-32 0 -52 19t-20 50q0 29 18.5 47.5t49.5 18.5q35 0 55 -23.5z" />
    <glyph glyph-name="uni021B" unicode="&#x21b;" horiz-adv-x="604" 
d="M599 80v-83q-63 -15 -125 -15q-135 0 -206.5 72.5t-71.5 232.5v715h-196v79h196l12 399h76v-399h296v-79h-296v-701q0 -130 48 -183.5t152 -53.5q51 0 115 16zM448 -202.5q20 -23.5 20 -68.5q0 -39 -12 -87.5t-35 -93.5h-57q31 76 36 138h-3q-32 0 -52 19t-20 50
q0 29 18.5 47.5t49.5 18.5q35 0 55 -23.5z" />
    <glyph glyph-name="uni022A" unicode="&#x22a;" horiz-adv-x="1179" 
d="M223 160.5q-128 178.5 -128 579.5t128 579.5t366 178.5q239 0 366.5 -178.5t127.5 -579.5t-127.5 -579.5t-366.5 -178.5q-238 0 -366 178.5zM805 126.5q88 62.5 136.5 211t48.5 398.5q0 254 -48.5 404t-136.5 213t-216 63t-216 -62.5t-136.5 -211t-48.5 -398.5
q0 -254 48.5 -404t136.5 -213t216 -63t216 62.5zM352.5 1701q-19.5 19 -19.5 51t19.5 51.5t51.5 19.5t51.5 -19.5t19.5 -51.5t-19.5 -51t-51.5 -19t-51.5 19zM721.5 1701q-19.5 19 -19.5 51t19.5 51.5t51.5 19.5t51.5 -19.5t19.5 -51.5t-19.5 -51t-51.5 -19t-51.5 19z
M340 1994v69h497v-69h-497z" />
    <glyph glyph-name="uni022B" unicode="&#x22b;" horiz-adv-x="922" 
d="M85 540q0 293 97.5 425t278.5 132q376 0 376 -557q0 -293 -97.5 -425.5t-278.5 -132.5q-376 0 -376 558zM614.5 105q62.5 44 96.5 148.5t34 282.5q0 182 -34 288t-96 150t-154 44t-154 -43.5t-96 -148t-34 -282.5q0 -182 34 -288.5t96 -150.5t154 -44q91 0 153.5 44z
M244 1370.5q-20 19.5 -20 51.5t20 52t51 20q32 0 51.5 -20t19.5 -52q0 -33 -19.5 -52t-51.5 -19q-31 0 -51 19.5zM574.5 1370q-19.5 19 -19.5 52q0 32 19.5 52t51.5 20q31 0 51 -20t20 -52t-20 -51.5t-51 -19.5q-32 0 -51.5 19zM204 1748v70h513v-70h-513z" />
    <glyph glyph-name="uni022C" unicode="&#x22c;" horiz-adv-x="1179" 
d="M223 160.5q-128 178.5 -128 579.5t128 579.5t366 178.5q239 0 366.5 -178.5t127.5 -579.5t-127.5 -579.5t-366.5 -178.5q-238 0 -366 178.5zM805 126.5q88 62.5 136.5 211t48.5 398.5q0 254 -48.5 404t-136.5 213t-216 63t-216 -62.5t-136.5 -211t-48.5 -398.5
q0 -254 48.5 -404t136.5 -213t216 -63t216 62.5zM650 1700q-33 11 -74 31q-42 19 -66.5 27.5t-51.5 8.5q-42 0 -75 -17.5t-64 -54.5v77q52 63 139 63q35 0 67 -10.5t76 -31.5q39 -19 65 -28t53 -9q43 0 75.5 17.5t63.5 55.5v-77q-52 -63 -139 -63q-36 0 -69 11zM340 1994v69
h497v-69h-497z" />
    <glyph glyph-name="uni022D" unicode="&#x22d;" horiz-adv-x="922" 
d="M85 540q0 293 97.5 425t278.5 132q376 0 376 -557q0 -293 -97.5 -425.5t-278.5 -132.5q-376 0 -376 558zM614.5 105q62.5 44 96.5 148.5t34 282.5q0 182 -34 288t-96 150t-154 44t-154 -43.5t-96 -148t-34 -282.5q0 -182 34 -288.5t96 -150.5t154 -44q91 0 153.5 44z
M519 1382.5q-29 10.5 -72 32.5q-39 19 -61.5 27.5t-45.5 8.5q-41 0 -73.5 -18t-62.5 -55v77q24 31 58.5 47.5t77.5 16.5q33 0 62 -10.5t72 -32.5q39 -19 61.5 -27.5t45.5 -8.5q41 0 73.5 18t62.5 55v-78q-24 -30 -58.5 -46.5t-77.5 -16.5q-33 0 -62 10.5zM204 1748v70h513
v-70h-513z" />
    <glyph glyph-name="uni0230" unicode="&#x230;" horiz-adv-x="1179" 
d="M223 160.5q-128 178.5 -128 579.5t128 579.5t366 178.5q239 0 366.5 -178.5t127.5 -579.5t-127.5 -579.5t-366.5 -178.5q-238 0 -366 178.5zM805 126.5q88 62.5 136.5 211t48.5 398.5q0 254 -48.5 404t-136.5 213t-216 63t-216 -62.5t-136.5 -211t-48.5 -398.5
q0 -254 48.5 -404t136.5 -213t216 -63t216 62.5zM536 1701q-20 19 -20 51t20.5 51.5t52.5 19.5t52.5 -19.5t20.5 -51.5t-20.5 -51t-52.5 -19q-33 0 -53 19zM340 1994v69h497v-69h-497z" />
    <glyph glyph-name="uni0231" unicode="&#x231;" horiz-adv-x="922" 
d="M85 540q0 293 97.5 425t278.5 132q376 0 376 -557q0 -293 -97.5 -425.5t-278.5 -132.5q-376 0 -376 558zM614.5 105q62.5 44 96.5 148.5t34 282.5q0 182 -34 288t-96 150t-154 44t-154 -43.5t-96 -148t-34 -282.5q0 -182 34 -288.5t96 -150.5t154 -44q91 0 153.5 44z
M408 1370q-20 19 -20 52t20 53t53 20t52.5 -20t19.5 -53t-19.5 -52t-52.5 -19t-53 19zM204 1662v70h513v-70h-513z" />
    <glyph glyph-name="uni0232" unicode="&#x232;" horiz-adv-x="993" 
d="M1010 1480l-469 -806v-674h-89v674l-477 806h99l423 -719l418 719h95zM248 1718v69h497v-69h-497z" />
    <glyph glyph-name="uni0233" unicode="&#x233;" horiz-adv-x="870" 
d="M764 1081h96l-513 -1521h-91l150 440h-31l-364 1081h96l327 -997zM179 1388v70h513v-70h-513z" />
    <glyph glyph-name="uni0237" unicode="&#x237;" horiz-adv-x="368" 
d="M-28 -419q91 144 129.5 274.5t38.5 311.5v914h88v-904q0 -135 -20 -239.5t-61.5 -198t-111.5 -200.5z" />
    <glyph glyph-name="uni0259" unicode="&#x259;" horiz-adv-x="857" 
d="M586.5 1044.5q91.5 -54.5 138.5 -178t47 -326.5q0 -292 -95.5 -424t-262.5 -132q-165 0 -253 129.5t-88 427.5v35h607q-2 165 -39.5 262t-109.5 138.5t-184 41.5q-95 0 -226 -41v83q117 39 233 39q141 0 232.5 -54.5zM606 159.5q70 98.5 74 340.5h-517q2 -166 33 -263
t85.5 -136.5t132.5 -39.5q122 0 192 98.5z" />
    <glyph glyph-name="uni02BB" unicode="&#x2bb;" horiz-adv-x="825" 
d="M464.5 1466.5q19.5 -18.5 19.5 -49.5q0 -29 -18.5 -47.5t-49.5 -18.5q-35 0 -55 23t-20 68q0 39 12.5 88t34.5 94h57q-31 -77 -36 -139h4q32 0 51.5 -18.5z" />
    <glyph glyph-name="uni02BC" unicode="&#x2bc;" horiz-adv-x="825" 
d="M535.5 1601q19.5 -23 19.5 -69q0 -39 -12 -87.5t-35 -93.5h-56q30 77 35 138h-3q-32 0 -51.5 19t-19.5 50q0 29 18.5 47.5t48.5 18.5q36 0 55.5 -23z" />
    <glyph glyph-name="uni02BE" unicode="&#x2be;" horiz-adv-x="825" 
d="M413 1315q56 0 91 34.5t35 93.5t-35 94t-91 35v58q53 0 95.5 -24t66.5 -67t24 -96t-24 -95.5t-66.5 -66.5t-95.5 -24v58z" />
    <glyph glyph-name="uni02BF" unicode="&#x2bf;" horiz-adv-x="825" 
d="M317 1281q-43 24 -67 66.5t-24 95.5t24 96t67 67t96 24v-58q-57 0 -92 -35t-35 -94t35 -93.5t92 -34.5v-58q-53 0 -96 24z" />
    <glyph glyph-name="circumflex" unicode="&#x2c6;" horiz-adv-x="825" 
d="M635 1261h-76l-146 305l-147 -305h-76l177 355h91z" />
    <glyph glyph-name="caron" unicode="&#x2c7;" horiz-adv-x="825" 
d="M559 1616h76l-177 -355h-91l-177 355h76l147 -305z" />
    <glyph glyph-name="uni02C8" unicode="&#x2c8;" horiz-adv-x="825" 
d="M379 1218v400h67v-400h-67z" />
    <glyph glyph-name="uni02C9" unicode="&#x2c9;" horiz-adv-x="825" 
d="M156 1388v70h513v-70h-513z" />
    <glyph glyph-name="uni02CA" unicode="&#x2ca;" horiz-adv-x="825" 
d="M375 1261l152 355h93l-170 -355h-75z" />
    <glyph glyph-name="uni02CB" unicode="&#x2cb;" horiz-adv-x="825" 
d="M375 1261l-170 355h93l152 -355h-75z" />
    <glyph glyph-name="uni02CC" unicode="&#x2cc;" horiz-adv-x="825" 
d="M379 -440v400h67v-400h-67z" />
    <glyph glyph-name="breve" unicode="&#x2d8;" horiz-adv-x="825" 
d="M248.5 1352.5q-61.5 79.5 -66.5 236.5h67q7 -132 48 -191.5t117 -59.5q77 0 117.5 59.5t44.5 191.5h67q-5 -159 -65 -237.5t-164 -78.5t-165.5 79.5z" />
    <glyph glyph-name="dotaccent" unicode="&#x2d9;" horiz-adv-x="825" 
d="M360 1370q-20 19 -20 52t20 53t53 20t52.5 -20t19.5 -53t-19.5 -52t-52.5 -19t-53 19z" />
    <glyph glyph-name="ring" unicode="&#x2da;" horiz-adv-x="825" 
d="M317 1281q-43 24 -67 66.5t-24 95.5t24 96t67 67t96 24t95.5 -24t66.5 -67t24 -96t-24 -95.5t-66.5 -66.5t-95.5 -24t-96 24zM504 1349.5q35 34.5 35 93.5t-35 94t-91 35q-57 0 -92 -35t-35 -94t35 -93.5t92 -34.5q56 0 91 34.5z" />
    <glyph glyph-name="ogonek" unicode="&#x2db;" horiz-adv-x="825" 
d="M229.5 -358.5q-48.5 45.5 -48.5 126.5q0 77 46 144.5t147 136.5l33 -49q-85 -58 -122.5 -112.5t-37.5 -114.5q0 -57 31 -87.5t88 -30.5q72 0 133 43v-62q-27 -19 -62 -29.5t-72 -10.5q-87 0 -135.5 45.5z" />
    <glyph glyph-name="tilde" unicode="&#x2dc;" horiz-adv-x="825" 
d="M471 1382.5q-29 10.5 -72 32.5q-39 19 -61.5 27.5t-45.5 8.5q-41 0 -73.5 -18t-62.5 -55v77q24 31 58.5 47.5t77.5 16.5q33 0 62 -10.5t72 -32.5q39 -19 61.5 -27.5t45.5 -8.5q41 0 73.5 18t62.5 55v-78q-24 -30 -58.5 -46.5t-77.5 -16.5q-33 0 -62 10.5z" />
    <glyph glyph-name="hungarumlaut" unicode="&#x2dd;" horiz-adv-x="825" 
d="M247 1261l90 355h77l-99 -355h-68zM511 1261l89 355h78l-100 -355h-67z" />
    <glyph glyph-name="gravecomb" unicode="&#x300;" horiz-adv-x="0" 
d="M-449 1261l-170 355h92l151 -355h-73z" />
    <glyph glyph-name="acutecomb" unicode="&#x301;" horiz-adv-x="0" 
d="M-449 1261l152 355h91l-170 -355h-73z" />
    <glyph glyph-name="uni0302" unicode="&#x302;" horiz-adv-x="0" 
d="M-190 1261h-76l-146 305l-147 -305h-76l177 355h91z" />
    <glyph glyph-name="tildecomb" unicode="&#x303;" horiz-adv-x="0" 
d="M-354 1382.5q-29 10.5 -72 32.5q-39 19 -61.5 27.5t-45.5 8.5q-41 0 -73.5 -18t-62.5 -55v77q24 31 58.5 47.5t77.5 16.5q33 0 62 -10.5t72 -32.5q39 -19 61.5 -27.5t45.5 -8.5q41 0 73.5 18t62.5 55v-78q-24 -30 -58.5 -46.5t-77.5 -16.5q-33 0 -62 10.5z" />
    <glyph glyph-name="uni0304" unicode="&#x304;" horiz-adv-x="0" 
d="M-669 1388v70h513v-70h-513z" />
    <glyph glyph-name="uni0306" unicode="&#x306;" horiz-adv-x="0" 
d="M-576.5 1352.5q-61.5 79.5 -66.5 236.5h67q7 -132 48 -191.5t117 -59.5q77 0 117.5 59.5t44.5 191.5h67q-5 -159 -65 -237.5t-164 -78.5t-165.5 79.5z" />
    <glyph glyph-name="uni0307" unicode="&#x307;" horiz-adv-x="0" 
d="M-465 1370q-20 19 -20 52t20 53t53 20t52.5 -20t19.5 -53t-19.5 -52t-52.5 -19t-53 19z" />
    <glyph glyph-name="uni0308" unicode="&#x308;" horiz-adv-x="0" 
d="M-629 1370.5q-20 19.5 -20 51.5t20 52t51 20q32 0 51.5 -20t19.5 -52q0 -33 -19.5 -52t-51.5 -19q-31 0 -51 19.5zM-298.5 1370q-19.5 19 -19.5 52q0 32 19.5 52t51.5 20q31 0 51 -20t20 -52t-20 -51.5t-51 -19.5q-32 0 -51.5 19z" />
    <glyph glyph-name="hookabovecomb" unicode="&#x309;" horiz-adv-x="0" 
d="M-425.5 1345.5q22.5 31.5 63.5 64.5q30 25 43.5 42t13.5 40q0 38 -25 56t-85 18q-34 0 -71.5 -6t-67.5 -18v62q29 11 66 17.5t73 6.5q90 0 134.5 -34.5t44.5 -97.5q0 -43 -18.5 -69t-55.5 -56q-34 -27 -51 -50t-17 -60h-70q0 53 22.5 84.5z" />
    <glyph glyph-name="uni030A" unicode="&#x30a;" horiz-adv-x="0" 
d="M-508 1281q-43 24 -67 66.5t-24 95.5t24 96t67 67t96 24t95.5 -24t66.5 -67t24 -96t-24 -95.5t-66.5 -66.5t-95.5 -24t-96 24zM-321 1349.5q35 34.5 35 93.5t-35 94t-91 35q-57 0 -92 -35t-35 -94t35 -93.5t92 -34.5q56 0 91 34.5z" />
    <glyph glyph-name="uni030B" unicode="&#x30b;" horiz-adv-x="0" 
d="M-578 1261l90 355h77l-99 -355h-68zM-314 1261l89 355h78l-100 -355h-67z" />
    <glyph glyph-name="uni030C" unicode="&#x30c;" horiz-adv-x="0" 
d="M-266 1616h76l-177 -355h-91l-177 355h76l147 -305z" />
    <glyph glyph-name="uni030F" unicode="&#x30f;" horiz-adv-x="0" 
d="M-580 1261l-99 355h81l88 -355h-70zM-314 1261l-100 355h81l88 -355h-69z" />
    <glyph glyph-name="uni0311" unicode="&#x311;" horiz-adv-x="0" 
d="M-578.5 1527.5q59.5 77.5 164.5 77.5q104 0 165.5 -78.5t66.5 -237.5h-67q-7 132 -48 190.5t-117 58.5q-77 0 -117.5 -58.5t-44.5 -190.5h-67q5 161 64.5 238.5z" />
    <glyph glyph-name="uni0312" unicode="&#x312;" horiz-adv-x="0" 
d="M-360.5 1466.5q19.5 -18.5 19.5 -49.5q0 -29 -18.5 -47.5t-49.5 -18.5q-35 0 -55 23t-20 68q0 39 12 88t35 94h57q-31 -77 -36 -139h4q32 0 51.5 -18.5z" />
    <glyph glyph-name="uni031B" unicode="&#x31b;" horiz-adv-x="0" 
d="M-425 1480h35q80 0 128 40t48 123q0 38 -5.5 70.5t-17.5 71.5h77q13 -36 18.5 -69t5.5 -76q0 -74 -30.5 -126.5t-84 -79.5t-120.5 -27h-54v73z" />
    <glyph glyph-name="dotbelowcomb" unicode="&#x323;" horiz-adv-x="0" 
d="M-463.5 -303q-19.5 19 -19.5 52q0 32 19.5 52t51.5 20q31 0 51 -20t20 -52t-20 -51.5t-51 -19.5q-32 0 -51.5 19z" />
    <glyph glyph-name="uni0324" unicode="&#x324;" horiz-adv-x="0" 
d="M-629 -302.5q-20 19.5 -20 51.5t20 52t51 20q32 0 51.5 -20t19.5 -52q0 -33 -19.5 -52t-51.5 -19q-31 0 -51 19.5zM-298.5 -303q-19.5 19 -19.5 52q0 32 19.5 52t51.5 20q31 0 51 -20t20 -52t-20 -51.5t-51 -19.5q-32 0 -51.5 19z" />
    <glyph glyph-name="uni0326" unicode="&#x326;" horiz-adv-x="0" 
d="M-361 -202.5q20 -23.5 20 -68.5q0 -39 -12 -87.5t-35 -93.5h-57q31 76 36 138h-3q-32 0 -52 19t-20 50q0 29 18.5 47.5t49.5 18.5q35 0 55 -23.5z" />
    <glyph glyph-name="uni0327" unicode="&#x327;" horiz-adv-x="0" 
d="M-278.5 -158q34.5 -38 34.5 -100q0 -67 -45.5 -106.5t-127.5 -39.5q-38 0 -78 9t-68 25v62q68 -38 150 -38q105 0 105 89q0 92 -107 92h-27v185h64v-133q65 -7 99.5 -45z" />
    <glyph glyph-name="uni0328" unicode="&#x328;" horiz-adv-x="0" 
d="M-595.5 -358.5q-48.5 45.5 -48.5 126.5q0 77 46 144.5t147 136.5l33 -49q-85 -58 -122.5 -112.5t-37.5 -114.5q0 -57 31 -87.5t88 -30.5q72 0 133 43v-62q-27 -19 -62 -29.5t-72 -10.5q-87 0 -135.5 45.5z" />
    <glyph glyph-name="uni032E" unicode="&#x32e;" horiz-adv-x="0" 
d="M-578 -341q-63 64 -65 182h67q4 -90 47 -135t118 -45q76 0 118.5 45t43.5 135h67q-1 -118 -63 -182t-166 -64t-167 64z" />
    <glyph glyph-name="uni0331" unicode="&#x331;" horiz-adv-x="0" 
d="M-641 -285v70h457v-70h-457z" />
    <glyph glyph-name="uni0394" unicode="&#x394;" horiz-adv-x="1141" 
d="M629 1480l488 -1480h-1093l488 1480h117zM570 1394l-428 -1311h855z" />
    <glyph glyph-name="uni03A9" unicode="&#x3a9;" horiz-adv-x="1179" 
d="M791 82h292v-82h-413v77q169 123 244.5 292t75.5 416q0 340 -103.5 485.5t-297.5 145.5t-297.5 -145.5t-103.5 -485.5q0 -247 76 -416t245 -292v-77h-414v82h293q-293 236 -293 701q0 371 129 543t365 172q494 0 494 -715q0 -464 -292 -701z" />
    <glyph glyph-name="uni03BC" unicode="&#x3bc;" horiz-adv-x="931" 
d="M791 1081v-1081h-77l-7 119h-8q-56 -68 -128.5 -102.5t-151.5 -34.5q-68 0 -118 21t-83 69v-512h-88v1521h88v-770q0 -132 54 -189t151 -57q75 0 154 41t126 129v846h88z" />
    <glyph glyph-name="pi" unicode="&#x3c0;" horiz-adv-x="1127" 
d="M1121 80v-83q-62 -15 -125 -15q-134 0 -205 72.5t-72 232.5l-4 715h-431v-1004h-88v1004h-196v79h1003v-79h-196v-701q0 -88 21.5 -140t65 -74.5t112.5 -22.5q51 0 115 16z" />
    <glyph glyph-name="uni1E08" unicode="&#x1e08;" horiz-adv-x="941" 
d="M779 1889l-148 -275h-74l130 275h92zM395 1353q-101 -63 -154 -211t-53 -400q0 -257 53.5 -406t153 -210.5t249.5 -61.5q69 0 134.5 12.5t143.5 39.5v-84q-139 -50 -279 -50h-9v-92q74 -5 117.5 -42.5t43.5 -103.5q0 -71 -49.5 -109.5t-133.5 -38.5q-94 0 -174 37v62
q50 -22 91 -31.5t81 -9.5q56 0 88 22.5t32 68.5q0 45 -32.5 67.5t-89.5 22.5h-38v150q-153 14 -257.5 92.5t-161 240.5t-56.5 420q0 276 65.5 443.5t189 242t307.5 74.5q131 0 265 -39v-85q-70 23 -134 32.5t-136 9.5q-156 0 -257 -63z" />
    <glyph glyph-name="uni1E09" unicode="&#x1e09;" horiz-adv-x="711" 
d="M634 1616l-170 -355h-73l152 355h91zM329 972.5q-76 -42.5 -113.5 -145t-37.5 -282.5q0 -182 34 -287.5t101.5 -149.5t173.5 -44q90 0 207 41v-84q-113 -39 -220 -39h-11v-95q65 -7 99.5 -45t34.5 -100q0 -67 -45.5 -106.5t-127.5 -39.5q-38 0 -78 9t-68 25v62
q68 -38 150 -38q105 0 105 89q0 92 -107 92h-27v152q-157 22 -235.5 153t-78.5 401q0 203 49 325.5t144.5 176.5t241.5 54q91 0 174 -21v-84q-83 23 -166 23q-123 0 -199 -42.5z" />
    <glyph glyph-name="uni1E0C" unicode="&#x1e0c;" horiz-adv-x="1167" 
d="M159 4v1463q160 27 288 27q315 0 470 -184.5t155 -569.5q0 -264 -74 -430t-218.5 -243.5t-361.5 -77.5q-101 0 -259 15zM736.5 139q121.5 67 182 214t60.5 387q0 237 -57 385t-174 217.5t-301 69.5q-87 0 -199 -15v-1316q82 -9 178 -9q189 0 310.5 67zM471 -301.5
q-20 18.5 -20 51.5q0 32 20.5 51.5t52.5 19.5t52.5 -19.5t20.5 -51.5t-20.5 -51t-52.5 -19q-33 0 -53 18.5z" />
    <glyph glyph-name="uni1E0D" unicode="&#x1e0d;" horiz-adv-x="926" 
d="M184 106q-99 124 -99 413q0 297 119 437.5t349 140.5q77 0 145 -9v528h88v-1616h-77l-7 107h-8q-39 -55 -103.5 -90t-145.5 -35q-162 0 -261 124zM595.5 103.5q66.5 39.5 102.5 111.5v789q-29 5 -72 9t-77 4q-186 0 -279 -115t-93 -374q0 -181 35.5 -283t96.5 -141.5
t146 -39.5q74 0 140.5 39.5zM409.5 -303q-19.5 19 -19.5 52q0 32 19.5 52t51.5 20q31 0 51 -20t20 -52t-20 -51.5t-51 -19.5q-32 0 -51.5 19z" />
    <glyph glyph-name="uni1E0E" unicode="&#x1e0e;" horiz-adv-x="1167" 
d="M159 4v1463q160 27 288 27q315 0 470 -184.5t155 -569.5q0 -264 -74 -430t-218.5 -243.5t-361.5 -77.5q-101 0 -259 15zM736.5 139q121.5 67 182 214t60.5 387q0 237 -57 385t-174 217.5t-301 69.5q-87 0 -199 -15v-1316q82 -9 178 -9q189 0 310.5 67zM275 -284v70h497
v-70h-497z" />
    <glyph glyph-name="uni1E0F" unicode="&#x1e0f;" horiz-adv-x="926" 
d="M184 106q-99 124 -99 413q0 297 119 437.5t349 140.5q77 0 145 -9v528h88v-1616h-77l-7 107h-8q-39 -55 -103.5 -90t-145.5 -35q-162 0 -261 124zM595.5 103.5q66.5 39.5 102.5 111.5v789q-29 5 -72 9t-77 4q-186 0 -279 -115t-93 -374q0 -181 35.5 -283t96.5 -141.5
t146 -39.5q74 0 140.5 39.5zM232 -285v70h457v-70h-457z" />
    <glyph glyph-name="uni1E14" unicode="&#x1e14;" horiz-adv-x="957" 
d="M247 83h675v-83h-763v1480h753v-83h-665v-595h574v-83h-574v-636zM520 1890l-148 232h95l130 -232h-77zM310 1718v69h497v-69h-497z" />
    <glyph glyph-name="uni1E15" unicode="&#x1e15;" horiz-adv-x="857" 
d="M784 505h-607q2 -165 39.5 -262t109.5 -138.5t184 -41.5q95 0 226 41v-83q-117 -39 -233 -39q-141 0 -232.5 54.5t-138.5 178t-47 326.5q0 292 95.5 424t262.5 132q165 0 253 -129.5t88 -427.5v-35zM251 921.5q-70 -98.5 -74 -340.5h517q-2 166 -33 263t-85.5 136.5
t-132.5 39.5q-122 0 -192 -98.5zM182 1388v70h513v-70h-513zM402 1654l-149 275h92l131 -275h-74z" />
    <glyph glyph-name="uni1E16" unicode="&#x1e16;" horiz-adv-x="957" 
d="M247 83h675v-83h-763v1480h753v-83h-665v-595h574v-83h-574v-636zM520 1890l131 232h94l-148 -232h-77zM310 1718v69h497v-69h-497z" />
    <glyph glyph-name="uni1E17" unicode="&#x1e17;" horiz-adv-x="857" 
d="M784 505h-607q2 -165 39.5 -262t109.5 -138.5t184 -41.5q95 0 226 41v-83q-117 -39 -233 -39q-141 0 -232.5 54.5t-138.5 178t-47 326.5q0 292 95.5 424t262.5 132q165 0 253 -129.5t88 -427.5v-35zM251 921.5q-70 -98.5 -74 -340.5h517q-2 166 -33 263t-85.5 136.5
t-132.5 39.5q-122 0 -192 -98.5zM182 1388v70h513v-70h-513zM402 1654l130 275h92l-148 -275h-74z" />
    <glyph glyph-name="uni1E1C" unicode="&#x1e1c;" horiz-adv-x="957" 
d="M381 1685.5q-65 60.5 -72 177.5h67q11 -92 53.5 -132t130.5 -40q89 0 131.5 40.5t49.5 131.5h67q-7 -118 -70.5 -178t-177.5 -60t-179 60.5zM589 0v-110q74 -5 117.5 -42.5t43.5 -103.5q0 -71 -49.5 -109.5t-133.5 -38.5q-94 0 -174 37v62q50 -22 91 -31.5t81 -9.5
q56 0 88 22.5t32 68.5q0 45 -32.5 67.5t-89.5 22.5h-38v165h-366v1480h753v-83h-665v-595h574v-83h-574v-636h675v-83h-333z" />
    <glyph glyph-name="uni1E1D" unicode="&#x1e1d;" horiz-adv-x="857" 
d="M274.5 1352.5q-61.5 79.5 -66.5 236.5h67q7 -132 48 -191.5t117 -59.5q77 0 117.5 59.5t44.5 191.5h67q-5 -159 -65 -237.5t-164 -78.5t-165.5 79.5zM784 505h-607q2 -165 39.5 -262t109.5 -138.5t184 -41.5q95 0 226 41v-83q-117 -39 -233 -39q-20 0 -30 1v-96
q65 -7 99.5 -45t34.5 -100q0 -67 -45.5 -106.5t-127.5 -39.5q-38 0 -78 9t-68 25v62q68 -38 150 -38q105 0 105 89q0 92 -107 92h-27v154q-163 25 -243.5 155.5t-80.5 396.5q0 292 95.5 424t262.5 132q165 0 253 -129.5t88 -427.5v-35zM251 921.5q-70 -98.5 -74 -340.5h517
q-2 166 -33 263t-85.5 136.5t-132.5 39.5q-122 0 -192 -98.5z" />
    <glyph glyph-name="uni1E20" unicode="&#x1e20;" horiz-adv-x="1117" 
d="M992 720v-706q-137 -25 -253 -25q-217 0 -358.5 73t-213.5 237.5t-72 438.5q0 276 71 444t203 242t325 74q146 0 278 -40v-84q-134 42 -280 42q-167 0 -277 -63t-168.5 -212t-58.5 -403q0 -250 60 -396t179.5 -208t309.5 -62q92 0 168 14v634h87zM377 1718v69h497v-69
h-497z" />
    <glyph glyph-name="uni1E21" unicode="&#x1e21;" horiz-adv-x="926" 
d="M265.5 -448.5q-67.5 11.5 -119.5 31.5v83q129 -45 247 -45q104 0 170.5 32.5t100.5 107.5t34 200v140h-7q-39 -51 -104.5 -84.5t-146.5 -33.5q-159 0 -257 124t-98 412q0 578 462 578q60 0 127 -10.5t112 -27.5v-1090q0 -227 -97 -328t-294 -101q-62 0 -129.5 11.5z
M595 102.5q67 38.5 103 108.5v787q-30 8 -73 13.5t-80 5.5q-183 0 -275.5 -115t-92.5 -374q0 -180 35.5 -282.5t96 -142t145.5 -39.5q74 0 141 38.5zM225 1388v70h513v-70h-513z" />
    <glyph glyph-name="uni1E24" unicode="&#x1e24;" horiz-adv-x="1229" 
d="M159 0v1480h89v-677h734v677h88v-1480h-88v718h-734v-718h-89zM562 -301.5q-20 18.5 -20 51.5q0 32 20.5 51.5t52.5 19.5t52.5 -19.5t20.5 -51.5t-20.5 -51t-52.5 -19q-33 0 -53 18.5z" />
    <glyph glyph-name="uni1E25" unicode="&#x1e25;" horiz-adv-x="941" 
d="M140 1616h88v-658h7q57 70 132 104.5t160 34.5q283 0 283 -331v-766h-88v768q0 132 -54 188t-155 56q-78 0 -157 -40.5t-128 -128.5v-843h-88v1616zM423.5 -303q-19.5 19 -19.5 52q0 32 19.5 52t51.5 20q31 0 51 -20t20 -52t-20 -51.5t-51 -19.5q-32 0 -51.5 19z" />
    <glyph glyph-name="uni1E2A" unicode="&#x1e2a;" horiz-adv-x="1229" 
d="M159 0v1480h89v-677h734v677h88v-1480h-88v718h-734v-718h-89zM433 -339.5q-66 63.5 -68 181.5h67q4 -91 50 -135t134 -44q89 0 134.5 44t46.5 135h67q-2 -120 -66.5 -182.5t-181.5 -62.5t-183 63.5z" />
    <glyph glyph-name="uni1E2B" unicode="&#x1e2b;" horiz-adv-x="941" 
d="M140 1616h88v-658h7q57 70 132 104.5t160 34.5q283 0 283 -331v-766h-88v768q0 132 -54 188t-155 56q-78 0 -157 -40.5t-128 -128.5v-843h-88v1616zM309 -341q-63 64 -65 182h67q4 -90 47 -135t118 -45q76 0 118.5 45t43.5 135h67q-1 -118 -63 -182t-166 -64t-167 64z
" />
    <glyph glyph-name="uni1E2E" unicode="&#x1e2e;" horiz-adv-x="407" 
d="M159 0v1480h89v-1480h-89zM164 1890l131 232h94l-148 -232h-77zM-33.5 1701q-19.5 19 -19.5 51t19.5 51.5t51.5 19.5t51.5 -19.5t19.5 -51.5t-19.5 -51t-51.5 -19t-51.5 19zM335.5 1701q-19.5 19 -19.5 51t19.5 51.5t51.5 19.5t51.5 -19.5t19.5 -51.5t-19.5 -51
t-51.5 -19t-51.5 19z" />
    <glyph glyph-name="uni1E2F" unicode="&#x1e2f;" horiz-adv-x="368" 
d="M140 0v1081h88v-1081h-88zM-33 1370.5q-20 19.5 -20 51.5t20 52t51 20q32 0 51.5 -20t19.5 -52q0 -33 -19.5 -52t-51.5 -19q-31 0 -51 19.5zM297.5 1370q-19.5 19 -19.5 52q0 32 19.5 52t51.5 20q31 0 51 -20t20 -52t-20 -51.5t-51 -19.5q-32 0 -51.5 19zM147 1654
l130 275h92l-148 -275h-74z" />
    <glyph glyph-name="uni1E36" unicode="&#x1e36;" horiz-adv-x="899" 
d="M159 0v1480h89v-1396h647v-84h-736zM475 -301.5q-20 18.5 -20 51.5q0 32 20.5 51.5t52.5 19.5t52.5 -19.5t20.5 -51.5t-20.5 -51t-52.5 -19q-33 0 -53 18.5z" />
    <glyph glyph-name="uni1E37" unicode="&#x1e37;" horiz-adv-x="368" 
d="M140 0v1616h88v-1616h-88zM132.5 -303q-19.5 19 -19.5 52q0 32 19.5 52t51.5 20q31 0 51 -20t20 -52t-20 -51.5t-51 -19.5q-32 0 -51.5 19z" />
    <glyph glyph-name="uni1E3A" unicode="&#x1e3a;" horiz-adv-x="899" 
d="M159 0v1480h89v-1396h647v-84h-736zM279 -284v70h497v-70h-497z" />
    <glyph glyph-name="uni1E3B" unicode="&#x1e3b;" horiz-adv-x="368" 
d="M140 0v1616h88v-1616h-88zM-45 -285v70h457v-70h-457z" />
    <glyph glyph-name="uni1E42" unicode="&#x1e42;" horiz-adv-x="1530" 
d="M1265 1480h102v-1480h-85v1315l-472 -1114h-90l-472 1107v-1308h-85v1480h102l502 -1186zM714 -301.5q-20 18.5 -20 51.5q0 32 20.5 51.5t52.5 19.5t52.5 -19.5t20.5 -51.5t-20.5 -51t-52.5 -19q-33 0 -53 18.5z" />
    <glyph glyph-name="uni1E43" unicode="&#x1e43;" horiz-adv-x="1461" 
d="M1256.5 1020.5q74.5 -76.5 74.5 -254.5v-766h-88v764q0 250 -200 250q-70 0 -144 -40.5t-122 -132.5q4 -31 4 -74v-767h-87v764q0 135 -52 192.5t-144 57.5q-72 0 -147.5 -42.5t-122.5 -134.5v-837h-88v1081h76l8 -125h8q56 71 129 106t154 35q185 0 241 -159
q63 85 141.5 122t159.5 37q125 0 199.5 -76.5zM685.5 -303q-19.5 19 -19.5 52q0 32 19.5 52t51.5 20q31 0 51 -20t20 -52t-20 -51.5t-51 -19.5q-32 0 -51.5 19z" />
    <glyph glyph-name="uni1E44" unicode="&#x1e44;" horiz-adv-x="1256" 
d="M1012 1480h85v-1480h-96l-757 1329v-1329h-85v1480h96l757 -1329v1329zM575 1701q-20 19 -20 51t20.5 51.5t52.5 19.5t52.5 -19.5t20.5 -51.5t-20.5 -51t-52.5 -19q-33 0 -53 19z" />
    <glyph glyph-name="uni1E45" unicode="&#x1e45;" horiz-adv-x="941" 
d="M140 1081h76l8 -123h8q55 67 130.5 103t163.5 36q284 0 284 -325v-772h-88v768q0 133 -54 189.5t-155 56.5q-77 0 -156.5 -41t-128.5 -130v-843h-88v1081zM422 1370q-20 19 -20 52t20 53t53 20t52.5 -20t19.5 -53t-19.5 -52t-52.5 -19t-53 19z" />
    <glyph glyph-name="uni1E46" unicode="&#x1e46;" horiz-adv-x="1256" 
d="M1012 1480h85v-1480h-96l-757 1329v-1329h-85v1480h96l757 -1329v1329zM575 -301.5q-20 18.5 -20 51.5q0 32 20.5 51.5t52.5 19.5t52.5 -19.5t20.5 -51.5t-20.5 -51t-52.5 -19q-33 0 -53 18.5z" />
    <glyph glyph-name="uni1E47" unicode="&#x1e47;" horiz-adv-x="941" 
d="M140 1081h76l8 -123h8q55 67 130.5 103t163.5 36q284 0 284 -325v-772h-88v768q0 133 -54 189.5t-155 56.5q-77 0 -156.5 -41t-128.5 -130v-843h-88v1081zM423.5 -303q-19.5 19 -19.5 52q0 32 19.5 52t51.5 20q31 0 51 -20t20 -52t-20 -51.5t-51 -19.5q-32 0 -51.5 19z
" />
    <glyph glyph-name="uni1E48" unicode="&#x1e48;" horiz-adv-x="1256" 
d="M1012 1480h85v-1480h-96l-757 1329v-1329h-85v1480h96l757 -1329v1329zM379 -284v70h497v-70h-497z" />
    <glyph glyph-name="uni1E49" unicode="&#x1e49;" horiz-adv-x="941" 
d="M140 1081h76l8 -123h8q55 67 130.5 103t163.5 36q284 0 284 -325v-772h-88v768q0 133 -54 189.5t-155 56.5q-77 0 -156.5 -41t-128.5 -130v-843h-88v1081zM246 -285v70h457v-70h-457z" />
    <glyph glyph-name="uni1E4C" unicode="&#x1e4c;" horiz-adv-x="1179" 
d="M223 160.5q-128 178.5 -128 579.5t128 579.5t366 178.5q239 0 366.5 -178.5t127.5 -579.5t-127.5 -579.5t-366.5 -178.5q-238 0 -366 178.5zM805 126.5q88 62.5 136.5 211t48.5 398.5q0 254 -48.5 404t-136.5 213t-216 63t-216 -62.5t-136.5 -211t-48.5 -398.5
q0 -254 48.5 -404t136.5 -213t216 -63t216 62.5zM550 1890l131 232h94l-148 -232h-77zM650 1700q-33 11 -74 31q-42 19 -66.5 27.5t-51.5 8.5q-42 0 -75 -17.5t-64 -54.5v77q52 63 139 63q35 0 67 -10.5t76 -31.5q39 -19 65 -28t53 -9q43 0 75.5 17.5t63.5 55.5v-77
q-52 -63 -139 -63q-36 0 -69 11z" />
    <glyph glyph-name="uni1E4D" unicode="&#x1e4d;" horiz-adv-x="922" 
d="M85 540q0 293 97.5 425t278.5 132q376 0 376 -557q0 -293 -97.5 -425.5t-278.5 -132.5q-376 0 -376 558zM614.5 105q62.5 44 96.5 148.5t34 282.5q0 182 -34 288t-96 150t-154 44t-154 -43.5t-96 -148t-34 -282.5q0 -182 34 -288.5t96 -150.5t154 -44q91 0 153.5 44z
M519 1382.5q-29 10.5 -72 32.5q-39 19 -61.5 27.5t-45.5 8.5q-41 0 -73.5 -18t-62.5 -55v77q24 31 58.5 47.5t77.5 16.5q33 0 62 -10.5t72 -32.5q39 -19 61.5 -27.5t45.5 -8.5q41 0 73.5 18t62.5 55v-78q-24 -30 -58.5 -46.5t-77.5 -16.5q-33 0 -62 10.5zM424 1654l130 275
h92l-148 -275h-74z" />
    <glyph glyph-name="uni1E4E" unicode="&#x1e4e;" horiz-adv-x="1179" 
d="M223 160.5q-128 178.5 -128 579.5t128 579.5t366 178.5q239 0 366.5 -178.5t127.5 -579.5t-127.5 -579.5t-366.5 -178.5q-238 0 -366 178.5zM805 126.5q88 62.5 136.5 211t48.5 398.5q0 254 -48.5 404t-136.5 213t-216 63t-216 -62.5t-136.5 -211t-48.5 -398.5
q0 -254 48.5 -404t136.5 -213t216 -63t216 62.5zM650 1700q-33 11 -74 31q-42 19 -66.5 27.5t-51.5 8.5q-42 0 -75 -17.5t-64 -54.5v77q52 63 139 63q35 0 67 -10.5t76 -31.5q39 -19 65 -28t53 -9q43 0 75.5 17.5t63.5 55.5v-77q-52 -63 -139 -63q-36 0 -69 11zM352.5 1977
q-19.5 19 -19.5 51t19.5 51.5t51.5 19.5t51.5 -19.5t19.5 -51.5t-19.5 -51t-51.5 -19t-51.5 19zM721.5 1977q-19.5 19 -19.5 51t19.5 51.5t51.5 19.5t51.5 -19.5t19.5 -51.5t-19.5 -51t-51.5 -19t-51.5 19z" />
    <glyph glyph-name="uni1E4F" unicode="&#x1e4f;" horiz-adv-x="922" 
d="M85 540q0 293 97.5 425t278.5 132q376 0 376 -557q0 -293 -97.5 -425.5t-278.5 -132.5q-376 0 -376 558zM614.5 105q62.5 44 96.5 148.5t34 282.5q0 182 -34 288t-96 150t-154 44t-154 -43.5t-96 -148t-34 -282.5q0 -182 34 -288.5t96 -150.5t154 -44q91 0 153.5 44z
M519 1382.5q-29 10.5 -72 32.5q-39 19 -61.5 27.5t-45.5 8.5q-41 0 -73.5 -18t-62.5 -55v77q24 31 58.5 47.5t77.5 16.5q33 0 62 -10.5t72 -32.5q39 -19 61.5 -27.5t45.5 -8.5q41 0 73.5 18t62.5 55v-78q-24 -30 -58.5 -46.5t-77.5 -16.5q-33 0 -62 10.5zM244 1730.5
q-20 19.5 -20 51.5t20 52t51 20q32 0 51.5 -20t19.5 -52q0 -33 -19.5 -52t-51.5 -19q-31 0 -51 19.5zM574.5 1730q-19.5 19 -19.5 52q0 32 19.5 52t51.5 20q31 0 51 -20t20 -52t-20 -51.5t-51 -19.5q-32 0 -51.5 19z" />
    <glyph glyph-name="uni1E50" unicode="&#x1e50;" horiz-adv-x="1179" 
d="M223 160.5q-128 178.5 -128 579.5t128 579.5t366 178.5q239 0 366.5 -178.5t127.5 -579.5t-127.5 -579.5t-366.5 -178.5q-238 0 -366 178.5zM805 126.5q88 62.5 136.5 211t48.5 398.5q0 254 -48.5 404t-136.5 213t-216 63t-216 -62.5t-136.5 -211t-48.5 -398.5
q0 -254 48.5 -404t136.5 -213t216 -63t216 62.5zM550 1890l-148 232h95l130 -232h-77zM340 1718v69h497v-69h-497z" />
    <glyph glyph-name="uni1E51" unicode="&#x1e51;" horiz-adv-x="922" 
d="M85 540q0 293 97.5 425t278.5 132q376 0 376 -557q0 -293 -97.5 -425.5t-278.5 -132.5q-376 0 -376 558zM614.5 105q62.5 44 96.5 148.5t34 282.5q0 182 -34 288t-96 150t-154 44t-154 -43.5t-96 -148t-34 -282.5q0 -182 34 -288.5t96 -150.5t154 -44q91 0 153.5 44z
M204 1388v70h513v-70h-513zM424 1654l-149 275h92l131 -275h-74z" />
    <glyph glyph-name="uni1E52" unicode="&#x1e52;" horiz-adv-x="1179" 
d="M223 160.5q-128 178.5 -128 579.5t128 579.5t366 178.5q239 0 366.5 -178.5t127.5 -579.5t-127.5 -579.5t-366.5 -178.5q-238 0 -366 178.5zM805 126.5q88 62.5 136.5 211t48.5 398.5q0 254 -48.5 404t-136.5 213t-216 63t-216 -62.5t-136.5 -211t-48.5 -398.5
q0 -254 48.5 -404t136.5 -213t216 -63t216 62.5zM550 1890l131 232h94l-148 -232h-77zM340 1718v69h497v-69h-497z" />
    <glyph glyph-name="uni1E53" unicode="&#x1e53;" horiz-adv-x="922" 
d="M85 540q0 293 97.5 425t278.5 132q376 0 376 -557q0 -293 -97.5 -425.5t-278.5 -132.5q-376 0 -376 558zM614.5 105q62.5 44 96.5 148.5t34 282.5q0 182 -34 288t-96 150t-154 44t-154 -43.5t-96 -148t-34 -282.5q0 -182 34 -288.5t96 -150.5t154 -44q91 0 153.5 44z
M204 1388v70h513v-70h-513zM424 1654l130 275h92l-148 -275h-74z" />
    <glyph glyph-name="uni1E5A" unicode="&#x1e5a;" horiz-adv-x="1131" 
d="M991 0l-460 648q-60 -5 -114 -5q-92 0 -170 5v-648h-88v1467q80 13 154 20t159 7q252 0 376.5 -105t124.5 -314q2 -170 -87 -274.5t-265 -139.5l471 -661h-101zM772.5 807q113.5 85 113.5 266q0 175 -98 258t-318 83q-113 0 -223 -18v-668q99 -6 165 -6q247 0 360.5 85z
M548 -301.5q-20 18.5 -20 51.5q0 32 20.5 51.5t52.5 19.5t52.5 -19.5t20.5 -51.5t-20.5 -51t-52.5 -19q-33 0 -53 18.5z" />
    <glyph glyph-name="uni1E5B" unicode="&#x1e5b;" horiz-adv-x="579" 
d="M140 1081h76l7 -146h9q50 76 124 115.5t158 39.5q31 0 55 -4v-87q-21 3 -59 3q-84 0 -162 -48.5t-120 -134.5v-819h-88v1081zM132.5 -303q-19.5 19 -19.5 52q0 32 19.5 52t51.5 20q31 0 51 -20t20 -52t-20 -51.5t-51 -19.5q-32 0 -51.5 19z" />
    <glyph glyph-name="uni1E5E" unicode="&#x1e5e;" horiz-adv-x="1131" 
d="M991 0l-460 648q-60 -5 -114 -5q-92 0 -170 5v-648h-88v1467q80 13 154 20t159 7q252 0 376.5 -105t124.5 -314q2 -170 -87 -274.5t-265 -139.5l471 -661h-101zM772.5 807q113.5 85 113.5 266q0 175 -98 258t-318 83q-113 0 -223 -18v-668q99 -6 165 -6q247 0 360.5 85z
M352 -284v70h497v-70h-497z" />
    <glyph glyph-name="uni1E5F" unicode="&#x1e5f;" horiz-adv-x="579" 
d="M140 1081h76l7 -146h9q50 76 124 115.5t158 39.5q31 0 55 -4v-87q-21 3 -59 3q-84 0 -162 -48.5t-120 -134.5v-819h-88v1081zM-45 -285v70h457v-70h-457z" />
    <glyph glyph-name="uni1E60" unicode="&#x1e60;" horiz-adv-x="878" 
d="M225.5 -5q-75.5 13 -144.5 38v84q153 -53 293 -53q171 0 258.5 78t87.5 233q0 88 -28 147.5t-89 101.5t-164 78l-57 19q-159 56 -238 150t-79 243q0 182 113.5 283t327.5 101q64 0 132.5 -9.5t118.5 -26.5v-84q-121 38 -252 38q-174 0 -261 -76t-87 -220q0 -84 27 -142
t86 -99t158 -76l56 -19q165 -57 247 -153.5t82 -249.5q0 -192 -115.5 -295.5t-328.5 -103.5q-68 0 -143.5 13zM393 1701q-20 19 -20 51t20.5 51.5t52.5 19.5t52.5 -19.5t20.5 -51.5t-20.5 -51t-52.5 -19q-33 0 -53 19z" />
    <glyph glyph-name="uni1E61" unicode="&#x1e61;" horiz-adv-x="732" 
d="M92 20v83q66 -21 121 -30.5t110 -9.5q125 0 192.5 55.5t67.5 159.5q0 91 -42 139.5t-131 73.5l-96 27q-130 37 -185.5 106t-55.5 179q0 85 41 151.5t120 104.5t188 38q102 0 198 -22v-83q-54 13 -99 19t-97 6q-87 0 -146.5 -27.5t-88.5 -75.5t-29 -108q0 -82 41 -130.5
t127 -72.5l97 -27q136 -38 191 -109t55 -184q0 -142 -91.5 -221.5t-256.5 -79.5q-117 0 -231 38zM320 1370q-20 19 -20 52t20 53t53 20t52.5 -20t19.5 -53t-19.5 -52t-52.5 -19t-53 19z" />
    <glyph glyph-name="uni1E62" unicode="&#x1e62;" horiz-adv-x="878" 
d="M225.5 -5q-75.5 13 -144.5 38v84q153 -53 293 -53q171 0 258.5 78t87.5 233q0 88 -28 147.5t-89 101.5t-164 78l-57 19q-159 56 -238 150t-79 243q0 182 113.5 283t327.5 101q64 0 132.5 -9.5t118.5 -26.5v-84q-121 38 -252 38q-174 0 -261 -76t-87 -220q0 -84 27 -142
t86 -99t158 -76l56 -19q165 -57 247 -153.5t82 -249.5q0 -192 -115.5 -295.5t-328.5 -103.5q-68 0 -143.5 13zM393 -301.5q-20 18.5 -20 51.5q0 32 20.5 51.5t52.5 19.5t52.5 -19.5t20.5 -51.5t-20.5 -51t-52.5 -19q-33 0 -53 18.5z" />
    <glyph glyph-name="uni1E63" unicode="&#x1e63;" horiz-adv-x="732" 
d="M92 20v83q66 -21 121 -30.5t110 -9.5q125 0 192.5 55.5t67.5 159.5q0 91 -42 139.5t-131 73.5l-96 27q-130 37 -185.5 106t-55.5 179q0 85 41 151.5t120 104.5t188 38q102 0 198 -22v-83q-54 13 -99 19t-97 6q-87 0 -146.5 -27.5t-88.5 -75.5t-29 -108q0 -82 41 -130.5
t127 -72.5l97 -27q136 -38 191 -109t55 -184q0 -142 -91.5 -221.5t-256.5 -79.5q-117 0 -231 38zM321.5 -303q-19.5 19 -19.5 52q0 32 19.5 52t51.5 20q31 0 51 -20t20 -52t-20 -51.5t-51 -19.5q-32 0 -51.5 19z" />
    <glyph glyph-name="uni1E64" unicode="&#x1e64;" horiz-adv-x="878" 
d="M225.5 -5q-75.5 13 -144.5 38v84q153 -53 293 -53q171 0 258.5 78t87.5 233q0 88 -28 147.5t-89 101.5t-164 78l-57 19q-159 56 -238 150t-79 243q0 182 113.5 283t327.5 101q64 0 132.5 -9.5t118.5 -26.5v-84q-121 38 -252 38q-174 0 -261 -76t-87 -220q0 -84 27 -142
t86 -99t158 -76l56 -19q165 -57 247 -153.5t82 -249.5q0 -192 -115.5 -295.5t-328.5 -103.5q-68 0 -143.5 13zM338.5 1867q-19.5 18 -19.5 49t19.5 50t50.5 19t50.5 -19t19.5 -50t-19.5 -49t-50.5 -18t-50.5 18zM409 1614l130 275h92l-148 -275h-74z" />
    <glyph glyph-name="uni1E65" unicode="&#x1e65;" horiz-adv-x="732" 
d="M92 20v83q66 -21 121 -30.5t110 -9.5q125 0 192.5 55.5t67.5 159.5q0 91 -42 139.5t-131 73.5l-96 27q-130 37 -185.5 106t-55.5 179q0 85 41 151.5t120 104.5t188 38q102 0 198 -22v-83q-54 13 -99 19t-97 6q-87 0 -146.5 -27.5t-88.5 -75.5t-29 -108q0 -82 41 -130.5
t127 -72.5l97 -27q136 -38 191 -109t55 -184q0 -142 -91.5 -221.5t-256.5 -79.5q-117 0 -231 38zM272 1594q-19 18 -19 49t19 50t51 19q31 0 50 -19t19 -50t-19 -49t-50 -18q-32 0 -51 18zM336 1261l152 355h91l-170 -355h-73z" />
    <glyph glyph-name="uni1E66" unicode="&#x1e66;" horiz-adv-x="878" 
d="M225.5 -5q-75.5 13 -144.5 38v84q153 -53 293 -53q171 0 258.5 78t87.5 233q0 88 -28 147.5t-89 101.5t-164 78l-57 19q-159 56 -238 150t-79 243q0 182 113.5 283t327.5 101q64 0 132.5 -9.5t118.5 -26.5v-84q-121 38 -252 38q-174 0 -261 -76t-87 -220q0 -84 27 -142
t86 -99t158 -76l56 -19q165 -57 247 -153.5t82 -249.5q0 -192 -115.5 -295.5t-328.5 -103.5q-68 0 -143.5 13zM395.5 1909.5q-19.5 18.5 -19.5 49.5t19.5 50t50.5 19t50.5 -19t19.5 -50t-19.5 -49.5t-50.5 -18.5t-50.5 18.5zM605 1889h82l-196 -275h-91l-196 275h82
l160 -229z" />
    <glyph glyph-name="uni1E67" unicode="&#x1e67;" horiz-adv-x="732" 
d="M92 20v83q66 -21 121 -30.5t110 -9.5q125 0 192.5 55.5t67.5 159.5q0 91 -42 139.5t-131 73.5l-96 27q-130 37 -185.5 106t-55.5 179q0 85 41 151.5t120 104.5t188 38q102 0 198 -22v-83q-54 13 -99 19t-97 6q-87 0 -146.5 -27.5t-88.5 -75.5t-29 -108q0 -82 41 -130.5
t127 -72.5l97 -27q136 -38 191 -109t55 -184q0 -142 -91.5 -221.5t-256.5 -79.5q-117 0 -231 38zM322.5 1635q-19.5 18 -19.5 49t19.5 50t50.5 19t50.5 -19t19.5 -50t-19.5 -49t-50.5 -18t-50.5 18zM519 1616h76l-177 -355h-91l-177 355h76l147 -305z" />
    <glyph glyph-name="uni1E68" unicode="&#x1e68;" horiz-adv-x="878" 
d="M225.5 -5q-75.5 13 -144.5 38v84q153 -53 293 -53q171 0 258.5 78t87.5 233q0 88 -28 147.5t-89 101.5t-164 78l-57 19q-159 56 -238 150t-79 243q0 182 113.5 283t327.5 101q64 0 132.5 -9.5t118.5 -26.5v-84q-121 38 -252 38q-174 0 -261 -76t-87 -220q0 -84 27 -142
t86 -99t158 -76l56 -19q165 -57 247 -153.5t82 -249.5q0 -192 -115.5 -295.5t-328.5 -103.5q-68 0 -143.5 13zM393 -301.5q-20 18.5 -20 51.5q0 32 20.5 51.5t52.5 19.5t52.5 -19.5t20.5 -51.5t-20.5 -51t-52.5 -19q-33 0 -53 18.5zM393 1701q-20 19 -20 51t20.5 51.5
t52.5 19.5t52.5 -19.5t20.5 -51.5t-20.5 -51t-52.5 -19q-33 0 -53 19z" />
    <glyph glyph-name="uni1E69" unicode="&#x1e69;" horiz-adv-x="732" 
d="M92 20v83q66 -21 121 -30.5t110 -9.5q125 0 192.5 55.5t67.5 159.5q0 91 -42 139.5t-131 73.5l-96 27q-130 37 -185.5 106t-55.5 179q0 85 41 151.5t120 104.5t188 38q102 0 198 -22v-83q-54 13 -99 19t-97 6q-87 0 -146.5 -27.5t-88.5 -75.5t-29 -108q0 -82 41 -130.5
t127 -72.5l97 -27q136 -38 191 -109t55 -184q0 -142 -91.5 -221.5t-256.5 -79.5q-117 0 -231 38zM321.5 -303q-19.5 19 -19.5 52q0 32 19.5 52t51.5 20q31 0 51 -20t20 -52t-20 -51.5t-51 -19.5q-32 0 -51.5 19zM320 1370q-20 19 -20 52t20 53t53 20t52.5 -20t19.5 -53
t-19.5 -52t-52.5 -19t-53 19z" />
    <glyph glyph-name="uni1E6C" unicode="&#x1e6c;" horiz-adv-x="993" 
d="M452 0v1396h-444v84h977v-84h-444v-1396h-89zM444 -301.5q-20 18.5 -20 51.5q0 32 20.5 51.5t52.5 19.5t52.5 -19.5t20.5 -51.5t-20.5 -51t-52.5 -19q-33 0 -53 18.5z" />
    <glyph glyph-name="uni1E6D" unicode="&#x1e6d;" horiz-adv-x="604" 
d="M599 80v-83q-63 -15 -125 -15q-135 0 -206.5 72.5t-71.5 232.5v715h-196v79h196l12 399h76v-399h296v-79h-296v-701q0 -130 48 -183.5t152 -53.5q51 0 115 16zM345.5 -303q-19.5 19 -19.5 52q0 32 19.5 52t51.5 20q31 0 51 -20t20 -52t-20 -51.5t-51 -19.5
q-32 0 -51.5 19z" />
    <glyph glyph-name="uni1E6E" unicode="&#x1e6e;" horiz-adv-x="993" 
d="M452 0v1396h-444v84h977v-84h-444v-1396h-89zM248 -284v70h497v-70h-497z" />
    <glyph glyph-name="uni1E6F" unicode="&#x1e6f;" horiz-adv-x="604" 
d="M599 80v-83q-63 -15 -125 -15q-135 0 -206.5 72.5t-71.5 232.5v715h-196v79h196l12 399h76v-399h296v-79h-296v-701q0 -130 48 -183.5t152 -53.5q51 0 115 16zM168 -285v70h457v-70h-457z" />
    <glyph glyph-name="uni1E78" unicode="&#x1e78;" horiz-adv-x="1207" 
d="M346 38q-100 56 -147.5 169.5t-47.5 291.5v981h89v-993q0 -218 86 -320.5t279 -102.5q192 0 278 102.5t86 320.5v993h86v-981q0 -178 -46.5 -292t-146 -169.5t-257.5 -55.5q-159 0 -259 56zM566 1890l131 232h94l-148 -232h-77zM666 1700q-33 11 -74 31
q-42 19 -66.5 27.5t-51.5 8.5q-42 0 -75 -17.5t-64 -54.5v77q52 63 139 63q35 0 67 -10.5t76 -31.5q39 -19 65 -28t53 -9q43 0 75.5 17.5t63.5 55.5v-77q-52 -63 -139 -63q-36 0 -69 11z" />
    <glyph glyph-name="uni1E79" unicode="&#x1e79;" horiz-adv-x="931" 
d="M130 313v768h88v-770q0 -132 54 -189t151 -57q75 0 154 41t126 129v846h88v-1081h-77l-7 119h-8q-57 -68 -131.5 -102.5t-155.5 -34.5q-282 0 -282 331zM520 1382.5q-29 10.5 -72 32.5q-39 19 -61.5 27.5t-45.5 8.5q-41 0 -73.5 -18t-62.5 -55v77q24 31 58.5 47.5
t77.5 16.5q33 0 62 -10.5t72 -32.5q39 -19 61.5 -27.5t45.5 -8.5q41 0 73.5 18t62.5 55v-78q-24 -30 -58.5 -46.5t-77.5 -16.5q-33 0 -62 10.5zM425 1654l130 275h92l-148 -275h-74z" />
    <glyph glyph-name="uni1E7A" unicode="&#x1e7a;" horiz-adv-x="1207" 
d="M346 38q-100 56 -147.5 169.5t-47.5 291.5v981h89v-993q0 -218 86 -320.5t279 -102.5q192 0 278 102.5t86 320.5v993h86v-981q0 -178 -46.5 -292t-146 -169.5t-257.5 -55.5q-159 0 -259 56zM356 1718v69h497v-69h-497zM368.5 1977q-19.5 19 -19.5 51t19.5 51.5t51.5 19.5
t51.5 -19.5t19.5 -51.5t-19.5 -51t-51.5 -19t-51.5 19zM737.5 1977q-19.5 19 -19.5 51t19.5 51.5t51.5 19.5t51.5 -19.5t19.5 -51.5t-19.5 -51t-51.5 -19t-51.5 19z" />
    <glyph glyph-name="uni1E7B" unicode="&#x1e7b;" horiz-adv-x="931" 
d="M130 313v768h88v-770q0 -132 54 -189t151 -57q75 0 154 41t126 129v846h88v-1081h-77l-7 119h-8q-57 -68 -131.5 -102.5t-155.5 -34.5q-282 0 -282 331zM205 1388v70h513v-70h-513zM245 1730.5q-20 19.5 -20 51.5t20 52t51 20q32 0 51.5 -20t19.5 -52q0 -33 -19.5 -52
t-51.5 -19q-31 0 -51 19.5zM575.5 1730q-19.5 19 -19.5 52q0 32 19.5 52t51.5 20q31 0 51 -20t20 -52t-20 -51.5t-51 -19.5q-32 0 -51.5 19z" />
    <glyph glyph-name="Wgrave" unicode="&#x1e80;" horiz-adv-x="1788" 
d="M1649 1480h86l-373 -1480h-120l-347 1378l-349 -1378h-120l-373 1480h92l344 -1390l349 1390h115l349 -1390zM859 1614l-149 275h92l131 -275h-74z" />
    <glyph glyph-name="wgrave" unicode="&#x1e81;" horiz-adv-x="1456" 
d="M1320 1081h87l-288 -1081h-113l-277 987l-279 -987h-114l-287 1081h90l257 -987l276 987h114l276 -986zM693 1261l-170 355h92l151 -355h-73z" />
    <glyph glyph-name="Wacute" unicode="&#x1e82;" horiz-adv-x="1788" 
d="M1649 1480h86l-373 -1480h-120l-347 1378l-349 -1378h-120l-373 1480h92l344 -1390l349 1390h115l349 -1390zM859 1614l130 275h92l-148 -275h-74z" />
    <glyph glyph-name="wacute" unicode="&#x1e83;" horiz-adv-x="1456" 
d="M1320 1081h87l-288 -1081h-113l-277 987l-279 -987h-114l-287 1081h90l257 -987l276 987h114l276 -986zM693 1261l152 355h91l-170 -355h-73z" />
    <glyph glyph-name="Wdieresis" unicode="&#x1e84;" horiz-adv-x="1788" 
d="M1649 1480h86l-373 -1480h-120l-347 1378l-349 -1378h-120l-373 1480h92l344 -1390l349 1390h115l349 -1390zM659.5 1701q-19.5 19 -19.5 51t19.5 51.5t51.5 19.5t51.5 -19.5t19.5 -51.5t-19.5 -51t-51.5 -19t-51.5 19zM1028.5 1701q-19.5 19 -19.5 51t19.5 51.5
t51.5 19.5t51.5 -19.5t19.5 -51.5t-19.5 -51t-51.5 -19t-51.5 19z" />
    <glyph glyph-name="wdieresis" unicode="&#x1e85;" horiz-adv-x="1456" 
d="M1320 1081h87l-288 -1081h-113l-277 987l-279 -987h-114l-287 1081h90l257 -987l276 987h114l276 -986zM513 1370.5q-20 19.5 -20 51.5t20 52t51 20q32 0 51.5 -20t19.5 -52q0 -33 -19.5 -52t-51.5 -19q-31 0 -51 19.5zM843.5 1370q-19.5 19 -19.5 52q0 32 19.5 52
t51.5 20q31 0 51 -20t20 -52t-20 -51.5t-51 -19.5q-32 0 -51.5 19z" />
    <glyph glyph-name="uni1E8E" unicode="&#x1e8e;" horiz-adv-x="993" 
d="M1010 1480l-469 -806v-674h-89v674l-477 806h99l423 -719l418 719h95zM444 1701q-20 19 -20 51t20.5 51.5t52.5 19.5t52.5 -19.5t20.5 -51.5t-20.5 -51t-52.5 -19q-33 0 -53 19z" />
    <glyph glyph-name="uni1E8F" unicode="&#x1e8f;" horiz-adv-x="870" 
d="M764 1081h96l-513 -1521h-91l150 440h-31l-364 1081h96l327 -997zM383 1370q-20 19 -20 52t20 53t53 20t52.5 -20t19.5 -53t-19.5 -52t-52.5 -19t-53 19z" />
    <glyph glyph-name="uni1E92" unicode="&#x1e92;" horiz-adv-x="960" 
d="M169 82h737v-82h-852v51l727 1347h-717v82h832v-51zM428 -301.5q-20 18.5 -20 51.5q0 32 20.5 51.5t52.5 19.5t52.5 -19.5t20.5 -51.5t-20.5 -51t-52.5 -19q-33 0 -53 18.5z" />
    <glyph glyph-name="uni1E93" unicode="&#x1e93;" horiz-adv-x="750" 
d="M161 79h541v-79h-649v53l532 949h-522v79h629v-52zM327.5 -303q-19.5 19 -19.5 52q0 32 19.5 52t51.5 20q31 0 51 -20t20 -52t-20 -51.5t-51 -19.5q-32 0 -51.5 19z" />
    <glyph glyph-name="uni1E97" unicode="&#x1e97;" horiz-adv-x="604" 
d="M599 80v-83q-63 -15 -125 -15q-135 0 -206.5 72.5t-71.5 232.5v715h-196v79h196l12 399h76v-399h296v-79h-296v-701q0 -130 48 -183.5t152 -53.5q51 0 115 16zM23 1653.5q-20 19.5 -20 51.5t20 52t51 20q32 0 51.5 -20t19.5 -52q0 -33 -19.5 -52t-51.5 -19
q-31 0 -51 19.5zM353.5 1653q-19.5 19 -19.5 52q0 32 19.5 52t51.5 20q31 0 51 -20t20 -52t-20 -51.5t-51 -19.5q-32 0 -51.5 19z" />
    <glyph glyph-name="uni1E9E" unicode="&#x1e9e;" horiz-adv-x="1414" 
d="M1268 630.5q81 -96.5 81 -249.5q0 -192 -115 -295.5t-327 -103.5q-67 0 -142.5 12.5t-144.5 37.5v85q153 -53 292 -53q170 0 257.5 78t87.5 233q0 88 -28 147.5t-88.5 101.5t-163.5 78l-56 19q-159 56 -238 150t-79 243q0 94 30.5 167.5t91.5 122.5q-54 12 -117 12
q-191 0 -276 -101.5t-85 -315.5v-999h-89v986q0 262 108 387t342 125q123 0 214 -37q96 37 222 37q63 0 131 -9.5t118 -26.5v-84q-117 38 -250 38q-174 0 -261 -76t-87 -220q0 -84 27 -142t85.5 -99t157.5 -76l56 -19q165 -57 246 -153.5z" />
    <glyph glyph-name="uni1EA0" unicode="&#x1ea0;" horiz-adv-x="1141" 
d="M1023 0l-168 516h-572l-168 -516h-91l488 1480h117l488 -1480h-94zM310 599h518l-259 795zM518 -301.5q-20 18.5 -20 51.5q0 32 20.5 51.5t52.5 19.5t52.5 -19.5t20.5 -51.5t-20.5 -51t-52.5 -19q-33 0 -53 18.5z" />
    <glyph glyph-name="uni1EA1" unicode="&#x1ea1;" horiz-adv-x="862" 
d="M581 1063.5q74 -33.5 112.5 -110.5t38.5 -206v-747h-76l-8 121h-8q-48 -68 -118.5 -102.5t-156.5 -34.5t-150.5 33t-100 97t-35.5 155q0 140 82.5 217.5t252.5 95.5l230 26v142q0 102 -29 160.5t-84.5 82t-143.5 23.5q-55 0 -121.5 -11.5t-130.5 -33.5v83
q54 20 124.5 31.5t134.5 11.5q113 0 187 -33.5zM522.5 101q69.5 38 121.5 125v306l-229 -25q-125 -13 -184 -69.5t-59 -158.5q0 -109 53 -162.5t154 -53.5q74 0 143.5 38zM377.5 -303q-19.5 19 -19.5 52q0 32 19.5 52t51.5 20q31 0 51 -20t20 -52t-20 -51.5t-51 -19.5
q-32 0 -51.5 19z" />
    <glyph glyph-name="uni1EA2" unicode="&#x1ea2;" horiz-adv-x="1141" 
d="M1023 0l-168 516h-572l-168 -516h-91l488 1480h117l488 -1480h-94zM310 599h518l-259 795zM562 1677q23 21 65 42q31 15 46 27.5t15 33.5q0 25 -24 38t-87 13q-43 0 -89 -9.5t-88 -27.5v62q35 16 83.5 25.5t96.5 9.5q87 0 132 -29.5t45 -77.5q0 -39 -21.5 -60t-61.5 -41
q-33 -16 -49.5 -30.5t-19.5 -38.5h-68q2 42 25 63z" />
    <glyph glyph-name="uni1EA3" unicode="&#x1ea3;" horiz-adv-x="862" 
d="M581 1063.5q74 -33.5 112.5 -110.5t38.5 -206v-747h-76l-8 121h-8q-48 -68 -118.5 -102.5t-156.5 -34.5t-150.5 33t-100 97t-35.5 155q0 140 82.5 217.5t252.5 95.5l230 26v142q0 102 -29 160.5t-84.5 82t-143.5 23.5q-55 0 -121.5 -11.5t-130.5 -33.5v83
q54 20 124.5 31.5t134.5 11.5q113 0 187 -33.5zM522.5 101q69.5 38 121.5 125v306l-229 -25q-125 -13 -184 -69.5t-59 -158.5q0 -109 53 -162.5t154 -53.5q74 0 143.5 38zM411.5 1345.5q22.5 31.5 63.5 64.5q30 25 43.5 42t13.5 40q0 38 -25 56t-85 18q-34 0 -71.5 -6
t-67.5 -18v62q29 11 66 17.5t73 6.5q90 0 134.5 -34.5t44.5 -97.5q0 -43 -18.5 -69t-55.5 -56q-34 -27 -51 -50t-17 -60h-70q0 53 22.5 84.5z" />
    <glyph glyph-name="uni1EA4" unicode="&#x1ea4;" horiz-adv-x="1141" 
d="M1023 0l-168 516h-572l-168 -516h-91l488 1480h117l488 -1480h-94zM310 599h518l-259 795zM878 2064h82l-143 -270h-64zM525 1886h91l196 -272h-82l-159 227l-160 -227h-82z" />
    <glyph glyph-name="uni1EA5" unicode="&#x1ea5;" horiz-adv-x="862" 
d="M581 1063.5q74 -33.5 112.5 -110.5t38.5 -206v-747h-76l-8 121h-8q-48 -68 -118.5 -102.5t-156.5 -34.5t-150.5 33t-100 97t-35.5 155q0 140 82.5 217.5t252.5 95.5l230 26v142q0 102 -29 160.5t-84.5 82t-143.5 23.5q-55 0 -121.5 -11.5t-130.5 -33.5v83
q54 20 124.5 31.5t134.5 11.5q113 0 187 -33.5zM522.5 101q69.5 38 121.5 125v306l-229 -25q-125 -13 -184 -69.5t-59 -158.5q0 -109 53 -162.5t154 -53.5q74 0 143.5 38zM736 1868h87l-148 -272h-69zM379 1616h91l177 -355h-76l-146 305l-147 -305h-76z" />
    <glyph glyph-name="uni1EA6" unicode="&#x1ea6;" horiz-adv-x="1141" 
d="M1023 0l-168 516h-572l-168 -516h-91l488 1480h117l488 -1480h-94zM310 599h518l-259 795zM838 1794h-64l-144 270h82zM525 1886h91l196 -272h-82l-159 227l-160 -227h-82z" />
    <glyph glyph-name="uni1EA7" unicode="&#x1ea7;" horiz-adv-x="862" 
d="M581 1063.5q74 -33.5 112.5 -110.5t38.5 -206v-747h-76l-8 121h-8q-48 -68 -118.5 -102.5t-156.5 -34.5t-150.5 33t-100 97t-35.5 155q0 140 82.5 217.5t252.5 95.5l230 26v142q0 102 -29 160.5t-84.5 82t-143.5 23.5q-55 0 -121.5 -11.5t-130.5 -33.5v83
q54 20 124.5 31.5t134.5 11.5q113 0 187 -33.5zM522.5 101q69.5 38 121.5 125v306l-229 -25q-125 -13 -184 -69.5t-59 -158.5q0 -109 53 -162.5t154 -53.5q74 0 143.5 38zM677 1596h-69l-148 272h87zM379 1616h91l177 -355h-76l-146 305l-147 -305h-76z" />
    <glyph glyph-name="uni1EA8" unicode="&#x1ea8;" horiz-adv-x="1141" 
d="M1023 0l-168 516h-572l-168 -516h-91l488 1480h117l488 -1480h-94zM310 599h518l-259 795zM926.5 2038.5q45.5 -29.5 45.5 -76.5q0 -27 -11.5 -45.5t-28 -29.5t-44.5 -25q-32 -16 -49 -30t-20 -38h-68q1 29 14.5 48t30 30.5t45.5 25.5q31 14 46.5 26.5t15.5 34.5
q0 24 -24.5 37t-86.5 13q-44 0 -90.5 -9t-87.5 -27v60q35 16 83.5 25.5t96.5 9.5q87 0 132.5 -29.5zM525 1886h91l196 -272h-82l-159 227l-160 -227h-82z" />
    <glyph glyph-name="uni1EA9" unicode="&#x1ea9;" horiz-adv-x="862" 
d="M581 1063.5q74 -33.5 112.5 -110.5t38.5 -206v-747h-76l-8 121h-8q-48 -68 -118.5 -102.5t-156.5 -34.5t-150.5 33t-100 97t-35.5 155q0 140 82.5 217.5t252.5 95.5l230 26v142q0 102 -29 160.5t-84.5 82t-143.5 23.5q-55 0 -121.5 -11.5t-130.5 -33.5v83
q54 20 124.5 31.5t134.5 11.5q113 0 187 -33.5zM522.5 101q69.5 38 121.5 125v306l-229 -25q-125 -13 -184 -69.5t-59 -158.5q0 -109 53 -162.5t154 -53.5q74 0 143.5 38zM758.5 1840.5q45.5 -29.5 45.5 -76.5q0 -39 -21.5 -59.5t-62.5 -40.5q-33 -17 -49.5 -31t-19.5 -37
h-68q2 41 25 62.5t65 40.5q32 16 47 28.5t15 33.5q0 24 -24.5 37t-86.5 13q-92 0 -178 -37v61q36 16 84.5 25.5t95.5 9.5q87 0 132.5 -29.5zM379 1616h91l177 -355h-76l-146 305l-147 -305h-76z" />
    <glyph glyph-name="uni1EAA" unicode="&#x1eaa;" horiz-adv-x="1141" 
d="M1023 0l-168 516h-572l-168 -516h-91l488 1480h117l488 -1480h-94zM310 599h518l-259 795zM751.5 2012q30.5 17 60.5 54v-72q-49 -62 -129 -62q-31 0 -59 10.5t-67 30.5q-33 17 -55.5 26t-43.5 9q-38 0 -68.5 -17t-60.5 -54v72q50 63 130 63q30 0 58.5 -11t66.5 -31
q33 -17 55.5 -26t43.5 -9q38 0 68.5 17zM525 1886h91l196 -272h-82l-159 227l-160 -227h-82z" />
    <glyph glyph-name="uni1EAB" unicode="&#x1eab;" horiz-adv-x="862" 
d="M581 1063.5q74 -33.5 112.5 -110.5t38.5 -206v-747h-76l-8 121h-8q-48 -68 -118.5 -102.5t-156.5 -34.5t-150.5 33t-100 97t-35.5 155q0 140 82.5 217.5t252.5 95.5l230 26v142q0 102 -29 160.5t-84.5 82t-143.5 23.5q-55 0 -121.5 -11.5t-130.5 -33.5v83
q54 20 124.5 31.5t134.5 11.5q113 0 187 -33.5zM522.5 101q69.5 38 121.5 125v306l-229 -25q-125 -13 -184 -69.5t-59 -158.5q0 -109 53 -162.5t154 -53.5q74 0 143.5 38zM619.5 1753.5q32.5 17.5 63.5 54.5v-75q-25 -29 -60 -45.5t-77 -16.5q-33 0 -63.5 11t-71.5 31
q-36 17 -60.5 26t-47.5 9q-41 0 -73.5 -17.5t-62.5 -53.5v74q24 30 58.5 46.5t77.5 16.5q32 0 61 -10.5t74 -31.5q34 -18 59 -27t49 -9q41 0 73.5 17.5zM379 1611h91l177 -350h-76l-146 302l-147 -302h-76z" />
    <glyph glyph-name="uni1EAC" unicode="&#x1eac;" horiz-adv-x="1141" 
d="M1023 0l-168 516h-572l-168 -516h-91l488 1480h117l488 -1480h-94zM310 599h518l-259 795zM518 -301.5q-20 18.5 -20 51.5q0 32 20.5 51.5t52.5 19.5t52.5 -19.5t20.5 -51.5t-20.5 -51t-52.5 -19q-33 0 -53 18.5zM812 1614h-82l-159 229l-160 -229h-82l196 275h91z" />
    <glyph glyph-name="uni1EAD" unicode="&#x1ead;" horiz-adv-x="862" 
d="M581 1063.5q74 -33.5 112.5 -110.5t38.5 -206v-747h-76l-8 121h-8q-48 -68 -118.5 -102.5t-156.5 -34.5t-150.5 33t-100 97t-35.5 155q0 140 82.5 217.5t252.5 95.5l230 26v142q0 102 -29 160.5t-84.5 82t-143.5 23.5q-55 0 -121.5 -11.5t-130.5 -33.5v83
q54 20 124.5 31.5t134.5 11.5q113 0 187 -33.5zM522.5 101q69.5 38 121.5 125v306l-229 -25q-125 -13 -184 -69.5t-59 -158.5q0 -109 53 -162.5t154 -53.5q74 0 143.5 38zM377.5 -303q-19.5 19 -19.5 52q0 32 19.5 52t51.5 20q31 0 51 -20t20 -52t-20 -51.5t-51 -19.5
q-32 0 -51.5 19zM647 1261h-76l-146 305l-147 -305h-76l177 355h91z" />
    <glyph glyph-name="uni1EAE" unicode="&#x1eae;" horiz-adv-x="1141" 
d="M1023 0l-168 516h-572l-168 -516h-91l488 1480h117l488 -1480h-94zM310 599h518l-259 795zM539 1847l125 251h82l-144 -251h-63zM391.5 1684q-63.5 59 -70.5 176h65q8 -91 51 -130.5t134 -39.5q90 0 132 39t53 131h65q-8 -115 -73 -175t-177 -60q-116 0 -179.5 59z" />
    <glyph glyph-name="uni1EAF" unicode="&#x1eaf;" horiz-adv-x="862" 
d="M581 1063.5q74 -33.5 112.5 -110.5t38.5 -206v-747h-76l-8 121h-8q-48 -68 -118.5 -102.5t-156.5 -34.5t-150.5 33t-100 97t-35.5 155q0 140 82.5 217.5t252.5 95.5l230 26v142q0 102 -29 160.5t-84.5 82t-143.5 23.5q-55 0 -121.5 -11.5t-130.5 -33.5v83
q54 20 124.5 31.5t134.5 11.5q113 0 187 -33.5zM522.5 101q69.5 38 121.5 125v306l-229 -25q-125 -13 -184 -69.5t-59 -158.5q0 -109 53 -162.5t154 -53.5q74 0 143.5 38zM390 1596l130 272h88l-149 -272h-69zM260 1352q-62 79 -66 233h67q7 -130 48 -189t117 -59t117 59
t46 189h67q-5 -156 -65 -234t-165 -78q-104 0 -166 79z" />
    <glyph glyph-name="uni1EB0" unicode="&#x1eb0;" horiz-adv-x="1141" 
d="M1023 0l-168 516h-572l-168 -516h-91l488 1480h117l488 -1480h-94zM310 599h518l-259 795zM539 1847l-144 251h82l125 -251h-63zM391.5 1684q-63.5 59 -70.5 176h65q8 -91 51 -130.5t134 -39.5q90 0 131.5 39t52.5 131h66q-8 -115 -73 -175t-177 -60q-116 0 -179.5 59z
" />
    <glyph glyph-name="uni1EB1" unicode="&#x1eb1;" horiz-adv-x="862" 
d="M581 1063.5q74 -33.5 112.5 -110.5t38.5 -206v-747h-76l-8 121h-8q-48 -68 -118.5 -102.5t-156.5 -34.5t-150.5 33t-100 97t-35.5 155q0 140 82.5 217.5t252.5 95.5l230 26v142q0 102 -29 160.5t-84.5 82t-143.5 23.5q-55 0 -121.5 -11.5t-130.5 -33.5v83
q54 20 124.5 31.5t134.5 11.5q113 0 187 -33.5zM522.5 101q69.5 38 121.5 125v306l-229 -25q-125 -13 -184 -69.5t-59 -158.5q0 -109 53 -162.5t154 -53.5q74 0 143.5 38zM390 1596l-148 272h87l130 -272h-69zM260 1352q-62 79 -66 233h67q7 -130 48 -189t117 -59t117 59
t46 189h67q-5 -156 -65 -234t-165 -78q-104 0 -166 79z" />
    <glyph glyph-name="uni1EB2" unicode="&#x1eb2;" horiz-adv-x="1141" 
d="M1023 0l-168 516h-572l-168 -516h-91l488 1480h117l488 -1480h-94zM310 599h518l-259 795zM551 1894.5q13 19.5 30 30.5t45 25q31 14 46.5 26.5t15.5 34.5q0 25 -24 38t-87 13q-43 0 -89 -9.5t-88 -27.5v60q34 16 82.5 25.5t97.5 9.5q87 0 132 -29t45 -76
q0 -39 -21.5 -59.5t-61.5 -40.5q-33 -16 -49.5 -30.5t-19.5 -37.5h-68q1 28 14 47.5zM391.5 1684q-63.5 59 -70.5 176h65q8 -91 51 -130.5t132 -39.5t132.5 39.5t54.5 130.5h65q-8 -115 -73.5 -175t-178.5 -60q-114 0 -177.5 59z" />
    <glyph glyph-name="uni1EB3" unicode="&#x1eb3;" horiz-adv-x="862" 
d="M581 1063.5q74 -33.5 112.5 -110.5t38.5 -206v-747h-76l-8 121h-8q-48 -68 -118.5 -102.5t-156.5 -34.5t-150.5 33t-100 97t-35.5 155q0 140 82.5 217.5t252.5 95.5l230 26v142q0 102 -29 160.5t-84.5 82t-143.5 23.5q-55 0 -121.5 -11.5t-130.5 -33.5v83
q54 20 124.5 31.5t134.5 11.5q113 0 187 -33.5zM522.5 101q69.5 38 121.5 125v306l-229 -25q-125 -13 -184 -69.5t-59 -158.5q0 -109 53 -162.5t154 -53.5q74 0 143.5 38zM416 1658q23 21 64 41q32 16 47 28.5t15 33.5q0 24 -24.5 37t-86.5 13q-43 0 -89 -9.5t-88 -27.5v61
q35 16 83.5 25.5t96.5 9.5q87 0 132 -29.5t45 -76.5q0 -39 -21.5 -59.5t-61.5 -40.5q-33 -16 -49.5 -30.5t-19.5 -37.5h-68q2 41 25 62zM260 1352q-62 79 -66 233h67q7 -130 48 -189t117 -59t117 59t46 189h67q-5 -156 -65 -234t-165 -78q-104 0 -166 79z" />
    <glyph glyph-name="uni1EB4" unicode="&#x1eb4;" horiz-adv-x="1141" 
d="M1023 0l-168 516h-572l-168 -516h-91l488 1480h117l488 -1480h-94zM310 599h518l-259 795zM627.5 1942.5q-28.5 10.5 -68.5 30.5q-35 17 -58.5 26t-46.5 9q-40 0 -72 -17.5t-61 -53.5v72q52 63 133 63q31 0 61 -11t68 -31q35 -18 58 -26.5t46 -8.5q40 0 72 17.5t62 53.5
v-72q-52 -62 -134 -62q-31 0 -59.5 10.5zM391.5 1684q-63.5 59 -70.5 176h65q8 -91 51 -130.5t132 -39.5t132 39.5t54 130.5h66q-8 -115 -73.5 -175t-178.5 -60q-114 0 -177.5 59z" />
    <glyph glyph-name="uni1EB5" unicode="&#x1eb5;" horiz-adv-x="862" 
d="M581 1063.5q74 -33.5 112.5 -110.5t38.5 -206v-747h-76l-8 121h-8q-48 -68 -118.5 -102.5t-156.5 -34.5t-150.5 33t-100 97t-35.5 155q0 140 82.5 217.5t252.5 95.5l230 26v142q0 102 -29 160.5t-84.5 82t-143.5 23.5q-55 0 -121.5 -11.5t-130.5 -33.5v83
q54 20 124.5 31.5t134.5 11.5q113 0 187 -33.5zM522.5 101q69.5 38 121.5 125v306l-229 -25q-125 -13 -184 -69.5t-59 -158.5q0 -109 53 -162.5t154 -53.5q74 0 143.5 38zM482.5 1682q-30.5 11 -71.5 31q-36 17 -60.5 26t-47.5 9q-40 0 -72.5 -17.5t-63.5 -53.5v74
q52 63 137 63q32 0 61 -10.5t72 -31.5q41 -19 63 -27.5t46 -8.5q41 0 73 17.5t63 54.5v-75q-52 -62 -136 -62q-33 0 -63.5 11zM260 1352q-62 79 -66 233h67q7 -130 48 -189t117 -59t117 59t46 189h67q-5 -156 -65 -234t-165 -78q-104 0 -166 79z" />
    <glyph glyph-name="uni1EB6" unicode="&#x1eb6;" horiz-adv-x="1141" 
d="M1023 0l-168 516h-572l-168 -516h-91l488 1480h117l488 -1480h-94zM310 599h518l-259 795zM518 -301.5q-20 18.5 -20 51.5q0 32 20.5 51.5t52.5 19.5t52.5 -19.5t20.5 -51.5t-20.5 -51t-52.5 -19q-33 0 -53 18.5zM393 1685.5q-65 60.5 -72 177.5h67q11 -92 53.5 -132
t130.5 -40q89 0 131.5 40.5t49.5 131.5h67q-7 -118 -70.5 -178t-177.5 -60t-179 60.5z" />
    <glyph glyph-name="uni1EB7" unicode="&#x1eb7;" horiz-adv-x="862" 
d="M581 1063.5q74 -33.5 112.5 -110.5t38.5 -206v-747h-76l-8 121h-8q-48 -68 -118.5 -102.5t-156.5 -34.5t-150.5 33t-100 97t-35.5 155q0 140 82.5 217.5t252.5 95.5l230 26v142q0 102 -29 160.5t-84.5 82t-143.5 23.5q-55 0 -121.5 -11.5t-130.5 -33.5v83
q54 20 124.5 31.5t134.5 11.5q113 0 187 -33.5zM522.5 101q69.5 38 121.5 125v306l-229 -25q-125 -13 -184 -69.5t-59 -158.5q0 -109 53 -162.5t154 -53.5q74 0 143.5 38zM377.5 -303q-19.5 19 -19.5 52q0 32 19.5 52t51.5 20q31 0 51 -20t20 -52t-20 -51.5t-51 -19.5
q-32 0 -51.5 19zM260.5 1352.5q-61.5 79.5 -66.5 236.5h67q7 -132 48 -191.5t117 -59.5q77 0 117.5 59.5t44.5 191.5h67q-5 -159 -65 -237.5t-164 -78.5t-165.5 79.5z" />
    <glyph glyph-name="uni1EB8" unicode="&#x1eb8;" horiz-adv-x="957" 
d="M247 83h675v-83h-763v1480h753v-83h-665v-595h574v-83h-574v-636zM506 -301.5q-20 18.5 -20 51.5q0 32 20.5 51.5t52.5 19.5t52.5 -19.5t20.5 -51.5t-20.5 -51t-52.5 -19q-33 0 -53 18.5z" />
    <glyph glyph-name="uni1EB9" unicode="&#x1eb9;" horiz-adv-x="857" 
d="M784 505h-607q2 -165 39.5 -262t109.5 -138.5t184 -41.5q95 0 226 41v-83q-117 -39 -233 -39q-141 0 -232.5 54.5t-138.5 178t-47 326.5q0 292 95.5 424t262.5 132q165 0 253 -129.5t88 -427.5v-35zM251 921.5q-70 -98.5 -74 -340.5h517q-2 166 -33 263t-85.5 136.5
t-132.5 39.5q-122 0 -192 -98.5zM387.5 -303q-19.5 19 -19.5 52q0 32 19.5 52t51.5 20q31 0 51 -20t20 -52t-20 -51.5t-51 -19.5q-32 0 -51.5 19z" />
    <glyph glyph-name="uni1EBA" unicode="&#x1eba;" horiz-adv-x="957" 
d="M247 83h675v-83h-763v1480h753v-83h-665v-595h574v-83h-574v-636zM550 1677q23 21 65 42q31 15 46 27.5t15 33.5q0 25 -24 38t-87 13q-43 0 -89 -9.5t-88 -27.5v62q35 16 83.5 25.5t96.5 9.5q87 0 132 -29.5t45 -77.5q0 -39 -21.5 -60t-61.5 -41q-33 -16 -49.5 -30.5
t-19.5 -38.5h-68q2 42 25 63z" />
    <glyph glyph-name="uni1EBB" unicode="&#x1ebb;" horiz-adv-x="857" 
d="M784 505h-607q2 -165 39.5 -262t109.5 -138.5t184 -41.5q95 0 226 41v-83q-117 -39 -233 -39q-141 0 -232.5 54.5t-138.5 178t-47 326.5q0 292 95.5 424t262.5 132q165 0 253 -129.5t88 -427.5v-35zM251 921.5q-70 -98.5 -74 -340.5h517q-2 166 -33 263t-85.5 136.5
t-132.5 39.5q-122 0 -192 -98.5zM425.5 1345.5q22.5 31.5 63.5 64.5q30 25 43.5 42t13.5 40q0 38 -25 56t-85 18q-34 0 -71.5 -6t-67.5 -18v62q29 11 66 17.5t73 6.5q90 0 134.5 -34.5t44.5 -97.5q0 -43 -18.5 -69t-55.5 -56q-34 -27 -51 -50t-17 -60h-70q0 53 22.5 84.5z
" />
    <glyph glyph-name="uni1EBC" unicode="&#x1ebc;" horiz-adv-x="957" 
d="M247 83h675v-83h-763v1480h753v-83h-665v-595h574v-83h-574v-636zM620 1700q-33 11 -74 31q-42 19 -66.5 27.5t-51.5 8.5q-42 0 -75 -17.5t-64 -54.5v77q52 63 139 63q35 0 67 -10.5t76 -31.5q39 -19 65 -28t53 -9q43 0 75.5 17.5t63.5 55.5v-77q-52 -63 -139 -63
q-36 0 -69 11z" />
    <glyph glyph-name="uni1EBD" unicode="&#x1ebd;" horiz-adv-x="857" 
d="M784 505h-607q2 -165 39.5 -262t109.5 -138.5t184 -41.5q95 0 226 41v-83q-117 -39 -233 -39q-141 0 -232.5 54.5t-138.5 178t-47 326.5q0 292 95.5 424t262.5 132q165 0 253 -129.5t88 -427.5v-35zM251 921.5q-70 -98.5 -74 -340.5h517q-2 166 -33 263t-85.5 136.5
t-132.5 39.5q-122 0 -192 -98.5zM497 1382.5q-29 10.5 -72 32.5q-39 19 -61.5 27.5t-45.5 8.5q-41 0 -73.5 -18t-62.5 -55v77q24 31 58.5 47.5t77.5 16.5q33 0 62 -10.5t72 -32.5q39 -19 61.5 -27.5t45.5 -8.5q41 0 73.5 18t62.5 55v-78q-24 -30 -58.5 -46.5t-77.5 -16.5
q-33 0 -62 10.5z" />
    <glyph glyph-name="uni1EBE" unicode="&#x1ebe;" horiz-adv-x="957" 
d="M247 83h675v-83h-763v1480h753v-83h-665v-595h574v-83h-574v-636zM866 2064h82l-143 -270h-64zM513 1886h91l196 -272h-82l-159 227l-160 -227h-82z" />
    <glyph glyph-name="uni1EBF" unicode="&#x1ebf;" horiz-adv-x="857" 
d="M784 505h-607q2 -165 39.5 -262t109.5 -138.5t184 -41.5q95 0 226 41v-83q-117 -39 -233 -39q-141 0 -232.5 54.5t-138.5 178t-47 326.5q0 292 95.5 424t262.5 132q165 0 253 -129.5t88 -427.5v-35zM251 921.5q-70 -98.5 -74 -340.5h517q-2 166 -33 263t-85.5 136.5
t-132.5 39.5q-122 0 -192 -98.5zM750 1868h87l-148 -272h-69zM393 1616h91l177 -355h-76l-146 305l-147 -305h-76z" />
    <glyph glyph-name="uni1EC0" unicode="&#x1ec0;" horiz-adv-x="957" 
d="M247 83h675v-83h-763v1480h753v-83h-665v-595h574v-83h-574v-636zM826 1794h-64l-144 270h82zM513 1886h91l196 -272h-82l-159 227l-160 -227h-82z" />
    <glyph glyph-name="uni1EC1" unicode="&#x1ec1;" horiz-adv-x="857" 
d="M784 505h-607q2 -165 39.5 -262t109.5 -138.5t184 -41.5q95 0 226 41v-83q-117 -39 -233 -39q-141 0 -232.5 54.5t-138.5 178t-47 326.5q0 292 95.5 424t262.5 132q165 0 253 -129.5t88 -427.5v-35zM251 921.5q-70 -98.5 -74 -340.5h517q-2 166 -33 263t-85.5 136.5
t-132.5 39.5q-122 0 -192 -98.5zM691 1596h-69l-148 272h87zM393 1616h91l177 -355h-76l-146 305l-147 -305h-76z" />
    <glyph glyph-name="uni1EC2" unicode="&#x1ec2;" horiz-adv-x="957" 
d="M247 83h675v-83h-763v1480h753v-83h-665v-595h574v-83h-574v-636zM914.5 2038.5q45.5 -29.5 45.5 -76.5q0 -27 -11.5 -45.5t-28 -29.5t-44.5 -25q-32 -16 -49 -30t-20 -38h-68q1 29 14.5 48t30 30.5t45.5 25.5q31 14 46.5 26.5t15.5 34.5q0 24 -24.5 37t-86.5 13
q-44 0 -90.5 -9t-87.5 -27v60q35 16 83.5 25.5t96.5 9.5q87 0 132.5 -29.5zM513 1886h91l196 -272h-82l-159 227l-160 -227h-82z" />
    <glyph glyph-name="uni1EC3" unicode="&#x1ec3;" horiz-adv-x="857" 
d="M784 505h-607q2 -165 39.5 -262t109.5 -138.5t184 -41.5q95 0 226 41v-83q-117 -39 -233 -39q-141 0 -232.5 54.5t-138.5 178t-47 326.5q0 292 95.5 424t262.5 132q165 0 253 -129.5t88 -427.5v-35zM251 921.5q-70 -98.5 -74 -340.5h517q-2 166 -33 263t-85.5 136.5
t-132.5 39.5q-122 0 -192 -98.5zM772.5 1840.5q45.5 -29.5 45.5 -76.5q0 -39 -21.5 -59.5t-62.5 -40.5q-33 -17 -49.5 -31t-19.5 -37h-68q2 41 25 62.5t65 40.5q32 16 47 28.5t15 33.5q0 24 -24.5 37t-86.5 13q-92 0 -178 -37v61q36 16 84.5 25.5t95.5 9.5q87 0 132.5 -29.5
zM393 1616h91l177 -355h-76l-146 305l-147 -305h-76z" />
    <glyph glyph-name="uni1EC4" unicode="&#x1ec4;" horiz-adv-x="957" 
d="M247 83h675v-83h-763v1480h753v-83h-665v-595h574v-83h-574v-636zM739.5 2012q30.5 17 60.5 54v-72q-49 -62 -129 -62q-31 0 -59 10.5t-67 30.5q-33 17 -55.5 26t-43.5 9q-38 0 -68.5 -17t-60.5 -54v72q50 63 130 63q30 0 58.5 -11t66.5 -31q33 -17 55.5 -26t43.5 -9
q38 0 68.5 17zM513 1886h91l196 -272h-82l-159 227l-160 -227h-82z" />
    <glyph glyph-name="uni1EC5" unicode="&#x1ec5;" horiz-adv-x="857" 
d="M784 505h-607q2 -165 39.5 -262t109.5 -138.5t184 -41.5q95 0 226 41v-83q-117 -39 -233 -39q-141 0 -232.5 54.5t-138.5 178t-47 326.5q0 292 95.5 424t262.5 132q165 0 253 -129.5t88 -427.5v-35zM251 921.5q-70 -98.5 -74 -340.5h517q-2 166 -33 263t-85.5 136.5
t-132.5 39.5q-122 0 -192 -98.5zM633.5 1753.5q32.5 17.5 63.5 54.5v-75q-25 -29 -60 -45.5t-77 -16.5q-33 0 -63.5 11t-71.5 31q-36 17 -60.5 26t-47.5 9q-41 0 -73.5 -17.5t-62.5 -53.5v74q24 30 58.5 46.5t77.5 16.5q32 0 61 -10.5t74 -31.5q34 -18 59 -27t49 -9
q41 0 73.5 17.5zM393 1611h91l177 -350h-76l-146 302l-147 -302h-76z" />
    <glyph glyph-name="uni1EC6" unicode="&#x1ec6;" horiz-adv-x="957" 
d="M247 83h675v-83h-763v1480h753v-83h-665v-595h574v-83h-574v-636zM506 -301.5q-20 18.5 -20 51.5q0 32 20.5 51.5t52.5 19.5t52.5 -19.5t20.5 -51.5t-20.5 -51t-52.5 -19q-33 0 -53 18.5zM800 1614h-82l-159 229l-160 -229h-82l196 275h91z" />
    <glyph glyph-name="uni1EC7" unicode="&#x1ec7;" horiz-adv-x="857" 
d="M784 505h-607q2 -165 39.5 -262t109.5 -138.5t184 -41.5q95 0 226 41v-83q-117 -39 -233 -39q-141 0 -232.5 54.5t-138.5 178t-47 326.5q0 292 95.5 424t262.5 132q165 0 253 -129.5t88 -427.5v-35zM251 921.5q-70 -98.5 -74 -340.5h517q-2 166 -33 263t-85.5 136.5
t-132.5 39.5q-122 0 -192 -98.5zM387.5 -303q-19.5 19 -19.5 52q0 32 19.5 52t51.5 20q31 0 51 -20t20 -52t-20 -51.5t-51 -19.5q-32 0 -51.5 19zM661 1261h-76l-146 305l-147 -305h-76l177 355h91z" />
    <glyph glyph-name="uni1EC8" unicode="&#x1ec8;" horiz-adv-x="407" 
d="M159 0v1480h89v-1480h-89zM194 1677q23 21 65 42q31 15 46 27.5t15 33.5q0 25 -24 38t-87 13q-43 0 -89 -9.5t-88 -27.5v62q35 16 83.5 25.5t96.5 9.5q87 0 132 -29.5t45 -77.5q0 -39 -21.5 -60t-61.5 -41q-33 -16 -49.5 -30.5t-19.5 -38.5h-68q2 42 25 63z" />
    <glyph glyph-name="uni1EC9" unicode="&#x1ec9;" horiz-adv-x="368" 
d="M140 0v1081h88v-1081h-88zM170.5 1345.5q22.5 31.5 63.5 64.5q30 25 43.5 42t13.5 40q0 38 -25 56t-85 18q-34 0 -71.5 -6t-67.5 -18v62q29 11 66 17.5t73 6.5q90 0 134.5 -34.5t44.5 -97.5q0 -43 -18.5 -69t-55.5 -56q-34 -27 -51 -50t-17 -60h-70q0 53 22.5 84.5z" />
    <glyph glyph-name="uni1ECA" unicode="&#x1eca;" horiz-adv-x="407" 
d="M159 0v1480h89v-1480h-89zM150 -301.5q-20 18.5 -20 51.5q0 32 20.5 51.5t52.5 19.5t52.5 -19.5t20.5 -51.5t-20.5 -51t-52.5 -19q-33 0 -53 18.5z" />
    <glyph glyph-name="uni1ECB" unicode="&#x1ecb;" horiz-adv-x="368" 
d="M140 0v1081h88v-1081h-88zM131 1370q-20 19 -20 52t20 53t53 20t52.5 -20t19.5 -53t-19.5 -52t-52.5 -19t-53 19zM132.5 -303q-19.5 19 -19.5 52q0 32 19.5 52t51.5 20q31 0 51 -20t20 -52t-20 -51.5t-51 -19.5q-32 0 -51.5 19z" />
    <glyph glyph-name="uni1ECC" unicode="&#x1ecc;" horiz-adv-x="1179" 
d="M223 160.5q-128 178.5 -128 579.5t128 579.5t366 178.5q239 0 366.5 -178.5t127.5 -579.5t-127.5 -579.5t-366.5 -178.5q-238 0 -366 178.5zM805 126.5q88 62.5 136.5 211t48.5 398.5q0 254 -48.5 404t-136.5 213t-216 63t-216 -62.5t-136.5 -211t-48.5 -398.5
q0 -254 48.5 -404t136.5 -213t216 -63t216 62.5zM536 -301.5q-20 18.5 -20 51.5q0 32 20.5 51.5t52.5 19.5t52.5 -19.5t20.5 -51.5t-20.5 -51t-52.5 -19q-33 0 -53 18.5z" />
    <glyph glyph-name="uni1ECD" unicode="&#x1ecd;" horiz-adv-x="922" 
d="M85 540q0 293 97.5 425t278.5 132q376 0 376 -557q0 -293 -97.5 -425.5t-278.5 -132.5q-376 0 -376 558zM614.5 105q62.5 44 96.5 148.5t34 282.5q0 182 -34 288t-96 150t-154 44t-154 -43.5t-96 -148t-34 -282.5q0 -182 34 -288.5t96 -150.5t154 -44q91 0 153.5 44z
M409.5 -303q-19.5 19 -19.5 52q0 32 19.5 52t51.5 20q31 0 51 -20t20 -52t-20 -51.5t-51 -19.5q-32 0 -51.5 19z" />
    <glyph glyph-name="uni1ECE" unicode="&#x1ece;" horiz-adv-x="1179" 
d="M223 160.5q-128 178.5 -128 579.5t128 579.5t366 178.5q239 0 366.5 -178.5t127.5 -579.5t-127.5 -579.5t-366.5 -178.5q-238 0 -366 178.5zM805 126.5q88 62.5 136.5 211t48.5 398.5q0 254 -48.5 404t-136.5 213t-216 63t-216 -62.5t-136.5 -211t-48.5 -398.5
q0 -254 48.5 -404t136.5 -213t216 -63t216 62.5zM580 1677q23 21 65 42q31 15 46 27.5t15 33.5q0 25 -24 38t-87 13q-43 0 -89 -9.5t-88 -27.5v62q35 16 83.5 25.5t96.5 9.5q87 0 132 -29.5t45 -77.5q0 -39 -21.5 -60t-61.5 -41q-33 -16 -49.5 -30.5t-19.5 -38.5h-68
q2 42 25 63z" />
    <glyph glyph-name="uni1ECF" unicode="&#x1ecf;" horiz-adv-x="922" 
d="M85 540q0 293 97.5 425t278.5 132q376 0 376 -557q0 -293 -97.5 -425.5t-278.5 -132.5q-376 0 -376 558zM614.5 105q62.5 44 96.5 148.5t34 282.5q0 182 -34 288t-96 150t-154 44t-154 -43.5t-96 -148t-34 -282.5q0 -182 34 -288.5t96 -150.5t154 -44q91 0 153.5 44z
M447.5 1345.5q22.5 31.5 63.5 64.5q30 25 43.5 42t13.5 40q0 38 -25 56t-85 18q-34 0 -71.5 -6t-67.5 -18v62q29 11 66 17.5t73 6.5q90 0 134.5 -34.5t44.5 -97.5q0 -43 -18.5 -69t-55.5 -56q-34 -27 -51 -50t-17 -60h-70q0 53 22.5 84.5z" />
    <glyph glyph-name="uni1ED0" unicode="&#x1ed0;" horiz-adv-x="1179" 
d="M223 160.5q-128 178.5 -128 579.5t128 579.5t366 178.5q239 0 366.5 -178.5t127.5 -579.5t-127.5 -579.5t-366.5 -178.5q-238 0 -366 178.5zM805 126.5q88 62.5 136.5 211t48.5 398.5q0 254 -48.5 404t-136.5 213t-216 63t-216 -62.5t-136.5 -211t-48.5 -398.5
q0 -254 48.5 -404t136.5 -213t216 -63t216 62.5zM896 2064h82l-143 -270h-64zM543 1886h91l196 -272h-82l-159 227l-160 -227h-82z" />
    <glyph glyph-name="uni1ED1" unicode="&#x1ed1;" horiz-adv-x="922" 
d="M85 540q0 293 97.5 425t278.5 132q376 0 376 -557q0 -293 -97.5 -425.5t-278.5 -132.5q-376 0 -376 558zM614.5 105q62.5 44 96.5 148.5t34 282.5q0 182 -34 288t-96 150t-154 44t-154 -43.5t-96 -148t-34 -282.5q0 -182 34 -288.5t96 -150.5t154 -44q91 0 153.5 44z
M772 1868h87l-148 -272h-69zM415 1616h91l177 -355h-76l-146 305l-147 -305h-76z" />
    <glyph glyph-name="uni1ED2" unicode="&#x1ed2;" horiz-adv-x="1179" 
d="M223 160.5q-128 178.5 -128 579.5t128 579.5t366 178.5q239 0 366.5 -178.5t127.5 -579.5t-127.5 -579.5t-366.5 -178.5q-238 0 -366 178.5zM805 126.5q88 62.5 136.5 211t48.5 398.5q0 254 -48.5 404t-136.5 213t-216 63t-216 -62.5t-136.5 -211t-48.5 -398.5
q0 -254 48.5 -404t136.5 -213t216 -63t216 62.5zM856 1794h-64l-144 270h82zM543 1886h91l196 -272h-82l-159 227l-160 -227h-82z" />
    <glyph glyph-name="uni1ED3" unicode="&#x1ed3;" horiz-adv-x="922" 
d="M85 540q0 293 97.5 425t278.5 132q376 0 376 -557q0 -293 -97.5 -425.5t-278.5 -132.5q-376 0 -376 558zM614.5 105q62.5 44 96.5 148.5t34 282.5q0 182 -34 288t-96 150t-154 44t-154 -43.5t-96 -148t-34 -282.5q0 -182 34 -288.5t96 -150.5t154 -44q91 0 153.5 44z
M713 1596h-69l-148 272h87zM415 1616h91l177 -355h-76l-146 305l-147 -305h-76z" />
    <glyph glyph-name="uni1ED4" unicode="&#x1ed4;" horiz-adv-x="1179" 
d="M223 160.5q-128 178.5 -128 579.5t128 579.5t366 178.5q239 0 366.5 -178.5t127.5 -579.5t-127.5 -579.5t-366.5 -178.5q-238 0 -366 178.5zM805 126.5q88 62.5 136.5 211t48.5 398.5q0 254 -48.5 404t-136.5 213t-216 63t-216 -62.5t-136.5 -211t-48.5 -398.5
q0 -254 48.5 -404t136.5 -213t216 -63t216 62.5zM944.5 2038.5q45.5 -29.5 45.5 -76.5q0 -27 -11.5 -45.5t-28 -29.5t-44.5 -25q-32 -16 -49 -30t-20 -38h-68q1 29 14.5 48t30 30.5t45.5 25.5q31 14 46.5 26.5t15.5 34.5q0 24 -24.5 37t-86.5 13q-44 0 -90.5 -9t-87.5 -27
v60q35 16 83.5 25.5t96.5 9.5q87 0 132.5 -29.5zM543 1886h91l196 -272h-82l-159 227l-160 -227h-82z" />
    <glyph glyph-name="uni1ED5" unicode="&#x1ed5;" horiz-adv-x="922" 
d="M85 540q0 293 97.5 425t278.5 132q376 0 376 -557q0 -293 -97.5 -425.5t-278.5 -132.5q-376 0 -376 558zM614.5 105q62.5 44 96.5 148.5t34 282.5q0 182 -34 288t-96 150t-154 44t-154 -43.5t-96 -148t-34 -282.5q0 -182 34 -288.5t96 -150.5t154 -44q91 0 153.5 44z
M794.5 1840.5q45.5 -29.5 45.5 -76.5q0 -39 -21.5 -59.5t-62.5 -40.5q-33 -17 -49.5 -31t-19.5 -37h-68q2 41 25 62.5t65 40.5q32 16 47 28.5t15 33.5q0 24 -24.5 37t-86.5 13q-92 0 -178 -37v61q36 16 84.5 25.5t95.5 9.5q87 0 132.5 -29.5zM415 1616h91l177 -355h-76
l-146 305l-147 -305h-76z" />
    <glyph glyph-name="uni1ED6" unicode="&#x1ed6;" horiz-adv-x="1179" 
d="M223 160.5q-128 178.5 -128 579.5t128 579.5t366 178.5q239 0 366.5 -178.5t127.5 -579.5t-127.5 -579.5t-366.5 -178.5q-238 0 -366 178.5zM805 126.5q88 62.5 136.5 211t48.5 398.5q0 254 -48.5 404t-136.5 213t-216 63t-216 -62.5t-136.5 -211t-48.5 -398.5
q0 -254 48.5 -404t136.5 -213t216 -63t216 62.5zM769.5 2012q30.5 17 60.5 54v-72q-49 -62 -129 -62q-31 0 -59 10.5t-67 30.5q-33 17 -55.5 26t-43.5 9q-38 0 -68.5 -17t-60.5 -54v72q50 63 130 63q30 0 58.5 -11t66.5 -31q33 -17 55.5 -26t43.5 -9q38 0 68.5 17zM543 1886
h91l196 -272h-82l-159 227l-160 -227h-82z" />
    <glyph glyph-name="uni1ED7" unicode="&#x1ed7;" horiz-adv-x="922" 
d="M85 540q0 293 97.5 425t278.5 132q376 0 376 -557q0 -293 -97.5 -425.5t-278.5 -132.5q-376 0 -376 558zM614.5 105q62.5 44 96.5 148.5t34 282.5q0 182 -34 288t-96 150t-154 44t-154 -43.5t-96 -148t-34 -282.5q0 -182 34 -288.5t96 -150.5t154 -44q91 0 153.5 44z
M655.5 1753.5q32.5 17.5 63.5 54.5v-75q-25 -29 -60 -45.5t-77 -16.5q-33 0 -63.5 11t-71.5 31q-36 17 -60.5 26t-47.5 9q-41 0 -73.5 -17.5t-62.5 -53.5v74q24 30 58.5 46.5t77.5 16.5q32 0 61 -10.5t74 -31.5q34 -18 59 -27t49 -9q41 0 73.5 17.5zM415 1611h91l177 -350
h-76l-146 302l-147 -302h-76z" />
    <glyph glyph-name="uni1ED8" unicode="&#x1ed8;" horiz-adv-x="1179" 
d="M223 160.5q-128 178.5 -128 579.5t128 579.5t366 178.5q239 0 366.5 -178.5t127.5 -579.5t-127.5 -579.5t-366.5 -178.5q-238 0 -366 178.5zM805 126.5q88 62.5 136.5 211t48.5 398.5q0 254 -48.5 404t-136.5 213t-216 63t-216 -62.5t-136.5 -211t-48.5 -398.5
q0 -254 48.5 -404t136.5 -213t216 -63t216 62.5zM536 -301.5q-20 18.5 -20 51.5q0 32 20.5 51.5t52.5 19.5t52.5 -19.5t20.5 -51.5t-20.5 -51t-52.5 -19q-33 0 -53 18.5zM830 1614h-82l-159 229l-160 -229h-82l196 275h91z" />
    <glyph glyph-name="uni1ED9" unicode="&#x1ed9;" horiz-adv-x="922" 
d="M85 540q0 293 97.5 425t278.5 132q376 0 376 -557q0 -293 -97.5 -425.5t-278.5 -132.5q-376 0 -376 558zM614.5 105q62.5 44 96.5 148.5t34 282.5q0 182 -34 288t-96 150t-154 44t-154 -43.5t-96 -148t-34 -282.5q0 -182 34 -288.5t96 -150.5t154 -44q91 0 153.5 44z
M409.5 -303q-19.5 19 -19.5 52q0 32 19.5 52t51.5 20q31 0 51 -20t20 -52t-20 -51.5t-51 -19.5q-32 0 -51.5 19zM683 1261h-76l-146 305l-147 -305h-76l177 355h91z" />
    <glyph glyph-name="uni1EDA" unicode="&#x1eda;" horiz-adv-x="1179" 
d="M1083 740q0 -400 -129 -579t-365 -179t-365 179t-129 579q0 401 128 579.5t366 178.5q62 0 140 -12q66 -10 101 -10q79 0 127.5 39.5t48.5 118.5q0 38 -6 70t-18 72h79q13 -36 18.5 -69t5.5 -76q0 -99 -56.5 -158t-150.5 -68q205 -167 205 -665zM805 126.5
q88 62.5 136.5 211t48.5 398.5q0 254 -48.5 404t-136.5 213t-216 63t-216 -62.5t-136.5 -211t-48.5 -398.5q0 -254 48.5 -404t136.5 -213t216 -63t216 62.5zM552 1614l130 275h92l-148 -275h-74z" />
    <glyph glyph-name="uni1EDB" unicode="&#x1edb;" horiz-adv-x="922" 
d="M664 1616l-168 -355h-73l151 355h90zM799 839.5q38 -119.5 38 -299.5q0 -293 -97.5 -425.5t-278.5 -132.5q-376 0 -376 558q0 293 97.5 425t278.5 132q22 0 48.5 -1.5t38.5 -1.5q33 -3 59 -3q79 0 127.5 40.5t48.5 122.5q0 38 -6 70t-18 72h78q12 -35 17.5 -68t5.5 -77
q0 -94 -48 -152.5t-128 -74.5q77 -65 115 -184.5zM614.5 105q62.5 44 96.5 148.5t34 282.5q0 182 -34 288t-96 150t-154 44t-154 -43.5t-96 -148t-34 -282.5q0 -182 34 -288.5t96 -150.5t154 -44q91 0 153.5 44z" />
    <glyph glyph-name="uni1EDC" unicode="&#x1edc;" horiz-adv-x="1179" 
d="M1083 740q0 -400 -129 -579t-365 -179t-365 179t-129 579q0 401 128 579.5t366 178.5q62 0 140 -12q66 -10 101 -10q79 0 127.5 39.5t48.5 118.5q0 38 -6 70t-18 72h79q13 -36 18.5 -69t5.5 -76q0 -99 -56.5 -158t-150.5 -68q205 -167 205 -665zM805 126.5
q88 62.5 136.5 211t48.5 398.5q0 254 -48.5 404t-136.5 213t-216 63t-216 -62.5t-136.5 -211t-48.5 -398.5q0 -254 48.5 -404t136.5 -213t216 -63t216 62.5zM552 1614l-149 275h92l131 -275h-74z" />
    <glyph glyph-name="uni1EDD" unicode="&#x1edd;" horiz-adv-x="922" 
d="M799 839.5q38 -119.5 38 -299.5q0 -293 -97.5 -425.5t-278.5 -132.5q-376 0 -376 558q0 293 97.5 425t278.5 132q22 0 48.5 -1.5t38.5 -1.5q33 -3 59 -3q79 0 127.5 40.5t48.5 122.5q0 38 -6 70t-18 72h78q12 -35 17.5 -68t5.5 -77q0 -94 -48 -152.5t-128 -74.5
q77 -65 115 -184.5zM614.5 105q62.5 44 96.5 148.5t34 282.5q0 182 -34 288t-96 150t-154 44t-154 -43.5t-96 -148t-34 -282.5q0 -182 34 -288.5t96 -150.5t154 -44q91 0 153.5 44zM423 1261l-170 355h92l151 -355h-73z" />
    <glyph glyph-name="uni1EDE" unicode="&#x1ede;" horiz-adv-x="1179" 
d="M1083 740q0 -400 -129 -579t-365 -179t-365 179t-129 579q0 401 128 579.5t366 178.5q62 0 140 -12q66 -10 101 -10q79 0 127.5 39.5t48.5 118.5q0 38 -6 70t-18 72h79q13 -36 18.5 -69t5.5 -76q0 -99 -56.5 -158t-150.5 -68q205 -167 205 -665zM805 126.5
q88 62.5 136.5 211t48.5 398.5q0 254 -48.5 404t-136.5 213t-216 63t-216 -62.5t-136.5 -211t-48.5 -398.5q0 -254 48.5 -404t136.5 -213t216 -63t216 62.5zM580 1677q23 21 65 42q31 15 46 27.5t15 33.5q0 25 -24 38t-87 13q-43 0 -89 -9.5t-88 -27.5v62q35 16 83.5 25.5
t96.5 9.5q87 0 132 -29.5t45 -77.5q0 -39 -21.5 -60t-61.5 -41q-33 -16 -49.5 -30.5t-19.5 -38.5h-68q2 42 25 63z" />
    <glyph glyph-name="uni1EDF" unicode="&#x1edf;" horiz-adv-x="922" 
d="M799 839.5q38 -119.5 38 -299.5q0 -293 -97.5 -425.5t-278.5 -132.5q-376 0 -376 558q0 293 97.5 425t278.5 132q22 0 48.5 -1.5t38.5 -1.5q33 -3 59 -3q79 0 127.5 40.5t48.5 122.5q0 38 -6 70t-18 72h78q12 -35 17.5 -68t5.5 -77q0 -94 -48 -152.5t-128 -74.5
q77 -65 115 -184.5zM614.5 105q62.5 44 96.5 148.5t34 282.5q0 182 -34 288t-96 150t-154 44t-154 -43.5t-96 -148t-34 -282.5q0 -182 34 -288.5t96 -150.5t154 -44q91 0 153.5 44zM446.5 1345.5q22.5 31.5 63.5 64.5q30 25 43.5 42t13.5 40q0 38 -25 56t-85 18
q-34 0 -71.5 -6t-67.5 -18v62q29 11 66 17.5t73 6.5q90 0 134.5 -34.5t44.5 -97.5q0 -43 -18.5 -69t-55.5 -56q-34 -27 -51 -50t-17 -60h-70q0 53 22.5 84.5z" />
    <glyph glyph-name="uni1EE0" unicode="&#x1ee0;" horiz-adv-x="1179" 
d="M385.5 1749.5q-32.5 -17.5 -62.5 -54.5v77q50 63 137 63q35 0 66 -10.5t76 -31.5q39 -19 65 -28t52 -9q42 0 74.5 18t62.5 55v-77q-24 -30 -59 -46.5t-78 -16.5q-36 0 -67 10.5t-76 31.5q-40 18 -65 27t-51 9q-42 0 -74.5 -17.5zM1083 740q0 -400 -129 -579t-365 -179
t-365 179t-129 579q0 401 128 579.5t366 178.5q62 0 140 -12q66 -10 101 -10q79 0 127.5 39.5t48.5 118.5q0 38 -6 70t-18 72h79q13 -36 18.5 -69t5.5 -76q0 -99 -56.5 -158t-150.5 -68q205 -167 205 -665zM805 126.5q88 62.5 136.5 211t48.5 398.5q0 254 -48.5 404
t-136.5 213t-216 63t-216 -62.5t-136.5 -211t-48.5 -398.5q0 -254 48.5 -404t136.5 -213t216 -63t216 62.5z" />
    <glyph glyph-name="uni1EE1" unicode="&#x1ee1;" horiz-adv-x="922" 
d="M265 1433q-32 -18 -62 -55v77q24 31 58.5 47.5t76.5 16.5q33 0 62.5 -11t70.5 -32q37 -18 60 -27t46 -9q40 0 72 18t62 55v-78q-24 -30 -58.5 -46.5t-76.5 -16.5q-33 0 -61.5 10.5t-70.5 32.5q-37 18 -60 27t-46 9q-41 0 -73 -18zM799 839.5q38 -119.5 38 -299.5
q0 -293 -97.5 -425.5t-278.5 -132.5q-376 0 -376 558q0 293 97.5 425t278.5 132q22 0 48.5 -1.5t38.5 -1.5q33 -3 59 -3q79 0 127.5 40.5t48.5 122.5q0 38 -6 70t-18 72h78q12 -35 17.5 -68t5.5 -77q0 -94 -48 -152.5t-128 -74.5q77 -65 115 -184.5zM614.5 105
q62.5 44 96.5 148.5t34 282.5q0 182 -34 288t-96 150t-154 44t-154 -43.5t-96 -148t-34 -282.5q0 -182 34 -288.5t96 -150.5t154 -44q91 0 153.5 44z" />
    <glyph glyph-name="uni1EE2" unicode="&#x1ee2;" horiz-adv-x="1179" 
d="M1083 740q0 -400 -129 -579t-365 -179t-365 179t-129 579q0 401 128 579.5t366 178.5q62 0 140 -12q66 -10 101 -10q79 0 127.5 39.5t48.5 118.5q0 38 -6 70t-18 72h79q13 -36 18.5 -69t5.5 -76q0 -99 -56.5 -158t-150.5 -68q205 -167 205 -665zM805 126.5
q88 62.5 136.5 211t48.5 398.5q0 254 -48.5 404t-136.5 213t-216 63t-216 -62.5t-136.5 -211t-48.5 -398.5q0 -254 48.5 -404t136.5 -213t216 -63t216 62.5zM536 -301.5q-20 18.5 -20 51.5q0 32 20.5 51.5t52.5 19.5t52.5 -19.5t20.5 -51.5t-20.5 -51t-52.5 -19
q-33 0 -53 18.5z" />
    <glyph glyph-name="uni1EE3" unicode="&#x1ee3;" horiz-adv-x="922" 
d="M799 839.5q38 -119.5 38 -299.5q0 -293 -97.5 -425.5t-278.5 -132.5q-376 0 -376 558q0 293 97.5 425t278.5 132q22 0 48.5 -1.5t38.5 -1.5q33 -3 59 -3q79 0 127.5 40.5t48.5 122.5q0 38 -6 70t-18 72h78q12 -35 17.5 -68t5.5 -77q0 -94 -48 -152.5t-128 -74.5
q77 -65 115 -184.5zM614.5 105q62.5 44 96.5 148.5t34 282.5q0 182 -34 288t-96 150t-154 44t-154 -43.5t-96 -148t-34 -282.5q0 -182 34 -288.5t96 -150.5t154 -44q91 0 153.5 44zM409.5 -303q-19.5 19 -19.5 52q0 32 19.5 52t51.5 20q31 0 51 -20t20 -52t-20 -51.5
t-51 -19.5q-32 0 -51.5 19z" />
    <glyph glyph-name="uni1EE4" unicode="&#x1ee4;" horiz-adv-x="1207" 
d="M346 38q-100 56 -147.5 169.5t-47.5 291.5v981h89v-993q0 -218 86 -320.5t279 -102.5q192 0 278 102.5t86 320.5v993h86v-981q0 -178 -46.5 -292t-146 -169.5t-257.5 -55.5q-159 0 -259 56zM552 -301.5q-20 18.5 -20 51.5q0 32 20.5 51.5t52.5 19.5t52.5 -19.5
t20.5 -51.5t-20.5 -51t-52.5 -19q-33 0 -53 18.5z" />
    <glyph glyph-name="uni1EE5" unicode="&#x1ee5;" horiz-adv-x="931" 
d="M130 313v768h88v-770q0 -132 54 -189t151 -57q75 0 154 41t126 129v846h88v-1081h-77l-7 119h-8q-57 -68 -131.5 -102.5t-155.5 -34.5q-282 0 -282 331zM410.5 -303q-19.5 19 -19.5 52q0 32 19.5 52t51.5 20q31 0 51 -20t20 -52t-20 -51.5t-51 -19.5q-32 0 -51.5 19z" />
    <glyph glyph-name="uni1EE6" unicode="&#x1ee6;" horiz-adv-x="1207" 
d="M346 38q-100 56 -147.5 169.5t-47.5 291.5v981h89v-993q0 -218 86 -320.5t279 -102.5q192 0 278 102.5t86 320.5v993h86v-981q0 -178 -46.5 -292t-146 -169.5t-257.5 -55.5q-159 0 -259 56zM596 1677q23 21 65 42q31 15 46 27.5t15 33.5q0 25 -24 38t-87 13
q-43 0 -89 -9.5t-88 -27.5v62q35 16 83.5 25.5t96.5 9.5q87 0 132 -29.5t45 -77.5q0 -39 -21.5 -60t-61.5 -41q-33 -16 -49.5 -30.5t-19.5 -38.5h-68q2 42 25 63z" />
    <glyph glyph-name="uni1EE7" unicode="&#x1ee7;" horiz-adv-x="931" 
d="M130 313v768h88v-770q0 -132 54 -189t151 -57q75 0 154 41t126 129v846h88v-1081h-77l-7 119h-8q-57 -68 -131.5 -102.5t-155.5 -34.5q-282 0 -282 331zM448.5 1345.5q22.5 31.5 63.5 64.5q30 25 43.5 42t13.5 40q0 38 -25 56t-85 18q-34 0 -71.5 -6t-67.5 -18v62
q29 11 66 17.5t73 6.5q90 0 134.5 -34.5t44.5 -97.5q0 -43 -18.5 -69t-55.5 -56q-34 -27 -51 -50t-17 -60h-70q0 53 22.5 84.5z" />
    <glyph glyph-name="uni1EE8" unicode="&#x1ee8;" horiz-adv-x="1207" 
d="M346 38q-100 56 -147.5 169.5t-47.5 291.5v981h89v-993q0 -218 86 -320.5t279 -102.5q192 0 278 102.5t86 320.5v993h39q79 0 127.5 38t48.5 116q0 38 -6 70t-18 72h79q13 -36 18.5 -69t5.5 -76q0 -99 -57.5 -155.5t-150.5 -62.5v-914q0 -178 -46.5 -292t-146 -169.5
t-257.5 -55.5q-159 0 -259 56zM567 1614l130 275h92l-148 -275h-74z" />
    <glyph glyph-name="uni1EE9" unicode="&#x1ee9;" horiz-adv-x="952" 
d="M938.5 1078.5q-56.5 -60.5 -147.5 -69.5v-1009h-77l-7 119h-8q-57 -68 -131.5 -102.5t-155.5 -34.5q-282 0 -282 331v768h88v-770q0 -132 54 -189t151 -57q75 0 154 41t126 129v846h39q79 0 127.5 40.5t48.5 123.5q0 37 -6 69.5t-18 71.5h77q13 -36 18.5 -69t5.5 -76
q0 -102 -56.5 -162.5zM425 1261l152 355h91l-170 -355h-73z" />
    <glyph glyph-name="uni1EEA" unicode="&#x1eea;" horiz-adv-x="1207" 
d="M346 38q-100 56 -147.5 169.5t-47.5 291.5v981h89v-993q0 -218 86 -320.5t279 -102.5q192 0 278 102.5t86 320.5v993h39q79 0 127.5 38t48.5 116q0 38 -6 70t-18 72h79q13 -36 18.5 -69t5.5 -76q0 -99 -57.5 -155.5t-150.5 -62.5v-914q0 -178 -46.5 -292t-146 -169.5
t-257.5 -55.5q-159 0 -259 56zM567 1614l-149 275h92l131 -275h-74z" />
    <glyph glyph-name="uni1EEB" unicode="&#x1eeb;" horiz-adv-x="952" 
d="M938.5 1078.5q-56.5 -60.5 -147.5 -69.5v-1009h-77l-7 119h-8q-57 -68 -131.5 -102.5t-155.5 -34.5q-282 0 -282 331v768h88v-770q0 -132 54 -189t151 -57q75 0 154 41t126 129v846h39q79 0 127.5 40.5t48.5 123.5q0 37 -6 69.5t-18 71.5h77q13 -36 18.5 -69t5.5 -76
q0 -102 -56.5 -162.5zM425 1261l-170 355h92l151 -355h-73z" />
    <glyph glyph-name="uni1EEC" unicode="&#x1eec;" horiz-adv-x="1207" 
d="M346 38q-100 56 -147.5 169.5t-47.5 291.5v981h89v-993q0 -218 86 -320.5t279 -102.5q192 0 278 102.5t86 320.5v993h39q79 0 127.5 38t48.5 116q0 38 -6 70t-18 72h79q13 -36 18.5 -69t5.5 -76q0 -99 -57.5 -155.5t-150.5 -62.5v-914q0 -178 -46.5 -292t-146 -169.5
t-257.5 -55.5q-159 0 -259 56zM595 1677q23 21 65 42q31 15 46 27.5t15 33.5q0 25 -24 38t-87 13q-43 0 -89 -9.5t-88 -27.5v62q35 16 83.5 25.5t96.5 9.5q87 0 132 -29.5t45 -77.5q0 -39 -21.5 -60t-61.5 -41q-33 -16 -49.5 -30.5t-19.5 -38.5h-68q2 42 25 63z" />
    </font>
</defs>
</svg>
