<?xml version="1.0" standalone="no"?>
<!DOCTYPE svg PUBLIC "-//W3C//DTD SVG 1.1//EN" "http://www.w3.org/Graphics/SVG/1.1/DTD/svg11.dtd" >
<svg xmlns="http://www.w3.org/2000/svg" xmlns:xlink="http://www.w3.org/1999/xlink" version="1.1">
<metadata>
Created by FontForge 20170731 at Tue Jan 31 13:40:31 2017
 By Aleksey,,,
Copyright 2012 The Encode Project Authors (impallari@gmail.com), with Reserved Font Name "Encode Sans".
</metadata>
<defs>
<font id="EncodeSansCondensed-ExtraBold" horiz-adv-x="1172" >
  <font-face 
    font-family="Encode Sans Condensed ExtraBold"
    font-weight="800"
    font-stretch="condensed"
    units-per-em="2000"
    panose-1="0 0 9 6 0 0 0 0 0 0"
    ascent="1600"
    descent="-400"
    x-height="1097"
    cap-height="1480"
    bbox="-1075 -507 2711 2296"
    underline-thickness="50"
    underline-position="-150"
    unicode-range="U+000D-FB02"
  />
<missing-glyph horiz-adv-x="1028" 
d="M843 1616v-2056h-652v2056h652zM685 1478h-340v-68h134v-76h-136v-68h342v68h-136v76h136v68zM549 1213h-206v-214h342v70h-136v144zM479 1143v-74h-68v74h68zM685 944h-342v-68h136v-76h-136v-68h206v144h136v68zM685 820h-68v-135h-274v-70h342v205zM685 569h-206v-115
h70v48h68v-97h-206v164h-68v-232h342v232zM685 214h-342v-233h342v233zM617 146v-97h-206v97h206zM685 -66h-342v-68h144l-144 -96v-68h342v68h-210l144 96h66v68z" />
    <glyph glyph-name="fi" unicode="fi" horiz-adv-x="1233" 
d="M493 1097h240v-267h-240v-830h-337v830h-148v267h148v96q0 137 50.5 237t147 153t233.5 53q84 0 133 -15v-272q-36 11 -81 11q-71 0 -108.5 -36t-37.5 -105v-122zM816 1279.5q-52 48.5 -52 139.5q0 90 52 139t158 49t158.5 -49t52.5 -139q0 -91 -52.5 -139.5
t-158.5 -48.5t-158 48.5zM802 0v1097h344v-1097h-344z" />
    <glyph glyph-name="fl" unicode="fl" horiz-adv-x="1231" 
d="M493 1097h240v-267h-240v-830h-337v830h-148v267h148v96q0 137 50.5 237t147 153t233.5 53q84 0 133 -15v-272q-36 11 -81 11q-71 0 -108.5 -36t-37.5 -105v-122zM802 1616h342v-1616h-342v1616z" />
    <glyph glyph-name="f_j" unicode="fj" horiz-adv-x="1233" 
d="M493 830v-830h-337v830h-148v267h148v96q0 137 50.5 237t147 153t233.5 53q84 0 133 -15v-272q-36 11 -81 11q-71 0 -108.5 -36t-37.5 -105v-122h240v-267h-240zM816 1279.5q-52 48.5 -52 139.5q0 90 52 139t158 49t158.5 -49t52.5 -139q0 -91 -52.5 -139.5t-158.5 -48.5
t-158 48.5zM802 1097h344v-904q0 -195 -59 -352t-200 -315l-227 150q80 118 111 229t31 273v919z" />
    <glyph glyph-name=".notdef" horiz-adv-x="1028" 
d="M843 1616v-2056h-652v2056h652zM685 1478h-340v-68h134v-76h-136v-68h342v68h-136v76h136v68zM549 1213h-206v-214h342v70h-136v144zM479 1143v-74h-68v74h68zM685 944h-342v-68h136v-76h-136v-68h206v144h136v68zM685 820h-68v-135h-274v-70h342v205zM685 569h-206v-115
h70v48h68v-97h-206v164h-68v-232h342v232zM685 214h-342v-233h342v233zM617 146v-97h-206v97h206zM685 -66h-342v-68h144l-144 -96v-68h342v68h-210l144 96h66v68z" />
    <glyph glyph-name=".null" horiz-adv-x="0" 
 />
    <glyph glyph-name="nonmarkingreturn" unicode="&#xd;" horiz-adv-x="436" 
 />
    <glyph glyph-name="NULL" horiz-adv-x="0" 
 />
    <glyph glyph-name="NULL" horiz-adv-x="0" 
 />
    <glyph glyph-name="space" unicode=" " horiz-adv-x="436" 
 />
    <glyph glyph-name="exclam" unicode="!" horiz-adv-x="559" 
d="M176 502l-81 479v499h368v-499l-77 -479h-210zM165 7q-50 26 -78 74.5t-28 111.5q0 64 27.5 112.5t77 74.5t115.5 26t116 -27t77.5 -75.5t27.5 -110.5t-28.5 -110.5t-78.5 -75t-114 -26.5t-114 26z" />
    <glyph glyph-name="quotedbl" unicode="&#x22;" horiz-adv-x="856" 
d="M111 832l-67 784h345l-66 -784h-212zM533 832l-67 784h345l-66 -784h-212z" />
    <glyph glyph-name="numbersign" unicode="#" 
d="M1082 829h-168l-14 -178h182v-255h-204l-33 -396h-257l33 396h-128l-33 -396h-257l33 396h-146v255h168l14 178h-182v255h204l33 396h257l-33 -396h128l33 396h257l-33 -396h146v-255zM643 651l14 178h-128l-14 -178h128z" />
    <glyph glyph-name="dollar" unicode="$" horiz-adv-x="1025" 
d="M914 173.5q-84 -111.5 -241 -159.5v-254h-319v223q-73 5 -149 19t-137 35v290q86 -25 177 -40t172 -15q231 0 231 141q0 37 -15.5 63.5t-54 49.5t-108.5 46l-110 37q-154 52 -243.5 158.5t-89.5 269.5q0 162 82 272t245 157v254h319v-221q141 -6 247 -34v-290
q-60 16 -131 24.5t-133 8.5q-154 0 -217 -38.5t-63 -105.5q0 -35 13.5 -59.5t47 -44.5t95.5 -42l111 -37q172 -57 263.5 -161.5t91.5 -274.5q0 -160 -84 -271.5z" />
    <glyph glyph-name="percent" unicode="%" horiz-adv-x="1938" 
d="M158.5 684.5q-102.5 116.5 -102.5 350.5q0 233 102.5 349t281.5 116t281 -116t102 -349q0 -234 -102 -350.5t-281 -116.5t-281.5 116.5zM529 0l609 1480h272l-610 -1480h-271zM520.5 841q28.5 55 28.5 193t-28 192.5t-81 54.5t-81 -54.5t-28 -191.5q0 -138 28.5 -193.5
t80.5 -55.5t80.5 55zM1217 98.5q-102 116.5 -102 350.5q0 233 102.5 349t281.5 116t281 -116t102 -349q0 -234 -102 -350.5t-281 -116.5q-180 0 -282 116.5zM1579 256q28 55 28 193t-27.5 192t-80.5 54t-81 -54t-28 -192t28 -193t81 -55q52 0 80 55z" />
    <glyph glyph-name="ampersand" unicode="&#x26;" horiz-adv-x="1467" 
d="M1283 -20l-217 160q-81 -78 -196 -118t-257 -40q-175 0 -296.5 51.5t-183.5 147t-62 225.5q0 122 56.5 216.5t149.5 143.5q-47 64 -67.5 129t-20.5 139q0 222 148 344t442 122q117 0 240 -24v-290q-49 10 -105 16t-103 6q-145 0 -209 -43.5t-64 -128.5q0 -54 25 -95.5
t86 -89.5l316 -234v20q0 124 -29 249h280q29 -125 29 -245q0 -116 -23 -214l245 -182zM849 301l-384 285l-8 6q-40 -60 -40 -144q0 -99 62.5 -154t173.5 -55q121 0 196 62z" />
    <glyph glyph-name="quotesingle" unicode="'" horiz-adv-x="434" 
d="M111 832l-67 784h345l-66 -784h-212z" />
    <glyph glyph-name="parenleft" unicode="(" horiz-adv-x="656" 
d="M80 588q0 619 273 1028h340q-128 -220 -192.5 -478.5t-64.5 -549.5t64.5 -549.5t192.5 -478.5h-340q-273 409 -273 1028z" />
    <glyph glyph-name="parenright" unicode=")" horiz-adv-x="656" 
d="M155.5 38.5q64.5 258.5 64.5 549.5t-64.5 549.5t-192.5 478.5h341q272 -410 272 -1028t-272 -1028h-341q128 220 192.5 478.5z" />
    <glyph glyph-name="asterisk" unicode="*" horiz-adv-x="987" 
d="M617 1126l150 -133l86 -119l-192 -140l-86 119l-82 186l-82 -186l-86 -119l-191 140l86 119l149 133l-200 22l-139 45l73 226l139 -47l175 -100l-42 197v147h236v-147l-41 -197l174 100l139 47l74 -226l-140 -45z" />
    <glyph glyph-name="plus" unicode="+" horiz-adv-x="1033" 
d="M377 326v300h-290v268h290v300h279v-300h290v-268h-290v-300h-279z" />
    <glyph glyph-name="comma" unicode="," horiz-adv-x="519" 
d="M422 344.5q58 -71.5 58 -210.5q0 -123 -44.5 -252.5t-120.5 -233.5h-197q45 101 70.5 180.5t32.5 155.5q-81 12 -131.5 69t-50.5 146q0 103 58.5 160t156.5 57q110 0 168 -71.5z" />
    <glyph glyph-name="hyphen" unicode="-" horiz-adv-x="750" 
d="M87 430v277h576v-277h-576z" />
    <glyph glyph-name="period" unicode="." horiz-adv-x="519" 
d="M145 7.5q-50 26.5 -78 75.5t-28 115q0 101 60 159.5t160 58.5q66 0 116 -27t77.5 -76.5t27.5 -114.5q0 -64 -28 -113.5t-78.5 -76.5t-114.5 -27t-114 26.5z" />
    <glyph glyph-name="slash" unicode="/" horiz-adv-x="702" 
d="M0 -240l374 1856h328l-374 -1856h-328z" />
    <glyph glyph-name="zero" unicode="0" horiz-adv-x="1195" 
d="M203.5 163.5q-133.5 183.5 -133.5 576.5t133 576.5t394 183.5t394 -183.5t133 -576.5t-133 -576.5t-394 -183.5q-260 0 -393.5 183.5zM702 312q40 43 60 146t20 281q0 179 -20 282t-60 146.5t-105 43.5q-64 0 -104 -43.5t-60 -146t-20 -280.5q0 -179 20 -282t60 -146.5
t104 -43.5q65 0 105 43z" />
    <glyph glyph-name="one" unicode="1" horiz-adv-x="700" 
d="M380 1486h212v-1486h-347v1078l-235 -149v323z" />
    <glyph glyph-name="two" unicode="2" horiz-adv-x="957" 
d="M916 304v-304h-881v195l328 479q79 116 114.5 200.5t35.5 156.5q0 90 -55 133.5t-173 43.5q-71 0 -140.5 -12.5t-129.5 -36.5v290q60 23 151 37t172 14q251 0 385 -105t134 -333q0 -111 -40 -226.5t-136 -249.5l-199 -282h434z" />
    <glyph glyph-name="three" unicode="3" horiz-adv-x="967" 
d="M854 641.5q71 -91.5 71 -231.5q0 -137 -67.5 -233.5t-196 -146.5t-309.5 -50q-170 0 -328 44v271q73 -20 160 -31t159 -11q130 0 190 44t60 136t-63.5 137.5t-204.5 45.5h-173v280h154q245 0 245 172q0 82 -53.5 120.5t-171.5 38.5q-73 0 -149 -13t-137 -36v271
q63 23 155.5 37t178.5 14q250 0 379 -101t129 -292q0 -129 -62 -219t-176 -124q139 -31 210 -122.5z" />
    <glyph glyph-name="four" unicode="4" horiz-adv-x="1151" 
d="M1126 567v-267h-165v-300h-308v300h-624v195l445 985h329l-401 -913h251l36 413h272v-413h165z" />
    <glyph glyph-name="five" unicode="5" horiz-adv-x="980" 
d="M725 832q114 -54 169 -148.5t55 -235.5q0 -232 -147.5 -350t-420.5 -118q-165 0 -328 47v272q74 -21 161 -33.5t159 -12.5q126 0 185 44.5t59 136.5q0 66 -33 106t-120 64.5t-248 34.5l-125 8l46 833h759v-286h-449l-17 -290q181 -18 295 -72z" />
    <glyph glyph-name="six" unicode="6" horiz-adv-x="1133" 
d="M882 852q97 -48 155 -147.5t58 -248.5t-61 -256.5t-170.5 -163.5t-252.5 -56q-250 0 -391 171.5t-141 548.5q0 407 179 603.5t505 196.5q74 0 142 -9t118 -28v-278q-62 18 -120.5 26.5t-129.5 8.5q-171 0 -257.5 -93t-94.5 -301q49 36 113 55t133 19q118 0 215 -48z
M733.5 294q46.5 50 46.5 150q0 99 -49 147.5t-133 48.5q-48 0 -93.5 -15t-83.5 -45q4 -131 28.5 -204.5t65 -102.5t99.5 -29q73 0 119.5 50z" />
    <glyph glyph-name="seven" unicode="7" horiz-adv-x="912" 
d="M10 1480h846v-195l-402 -1285h-360l392 1176h-476v304z" />
    <glyph glyph-name="eight" unicode="8" horiz-adv-x="1195" 
d="M1081.5 622.5q52.5 -88.5 52.5 -217.5q0 -126 -64 -222t-184.5 -149.5t-284.5 -53.5q-175 0 -297 50t-183.5 139.5t-61.5 206.5q0 110 60 199t177 148q-108 70 -155.5 159t-47.5 205q0 125 61 218t178 144t279 51q148 0 258 -46.5t169.5 -132.5t59.5 -202
q0 -100 -47 -186.5t-150 -150.5q128 -71 180.5 -159.5zM472 1209.5q-51 -41.5 -51 -111.5q0 -50 20.5 -84.5t75.5 -66.5t162 -71q65 45 94.5 98t29.5 120q0 76 -49.5 116.5t-139.5 40.5q-91 0 -142 -41.5zM757.5 270.5q52.5 41.5 52.5 117.5q0 54 -24 90.5t-83 68.5t-169 68
l-21 7q-63 -37 -96.5 -95t-33.5 -121q0 -86 55 -131.5t163 -45.5q104 0 156.5 41.5z" />
    <glyph glyph-name="nine" unicode="9" horiz-adv-x="1133" 
d="M913 1328.5q141 -171.5 141 -548.5q0 -407 -179 -603.5t-505 -196.5q-74 0 -142 9t-118 28v278q62 -18 120.5 -26.5t129.5 -8.5q171 0 257.5 93t94.5 301q-49 -36 -113 -55t-133 -19q-118 0 -215 48t-155 147.5t-58 248.5t61 256.5t170.5 163.5t252.5 56
q250 0 391 -171.5zM402 888.5q49 -48.5 133 -48.5q48 0 93.5 15t83.5 45q-4 131 -28.5 204.5t-65 102.5t-99.5 29q-73 0 -119.5 -50t-46.5 -150q0 -99 49 -147.5z" />
    <glyph glyph-name="colon" unicode=":" horiz-adv-x="519" 
d="M145 7.5q-50 26.5 -78 75.5t-28 115q0 101 60 159.5t160 58.5q66 0 116 -27t77.5 -76.5t27.5 -114.5q0 -64 -28 -113.5t-78.5 -76.5t-114.5 -27t-114 26.5zM145 707.5q-50 26.5 -78 75.5t-28 115q0 101 60 159.5t160 58.5q66 0 116 -27t77.5 -76.5t27.5 -114.5
q0 -64 -28 -113.5t-78.5 -76.5t-114.5 -27t-114 26.5z" />
    <glyph glyph-name="semicolon" unicode=";" horiz-adv-x="519" 
d="M422 344.5q58 -71.5 58 -210.5q0 -123 -44.5 -252.5t-120.5 -233.5h-197q45 101 70.5 180.5t32.5 155.5q-81 12 -131.5 69t-50.5 146q0 103 58.5 160t156.5 57q110 0 168 -71.5zM145 707.5q-50 26.5 -78 75.5t-28 115q0 101 60 159.5t160 58.5q66 0 116 -27t77.5 -76.5
t27.5 -114.5q0 -64 -28 -113.5t-78.5 -76.5t-114.5 -27t-114 26.5z" />
    <glyph glyph-name="less" unicode="&#x3c;" horiz-adv-x="1033" 
d="M946 1264v-269l-632 -235l632 -235v-269l-859 333v342z" />
    <glyph glyph-name="equal" unicode="=" horiz-adv-x="1033" 
d="M87 850v267h859v-267h-859zM87 403v267h859v-267h-859z" />
    <glyph glyph-name="greater" unicode="&#x3e;" horiz-adv-x="1033" 
d="M87 1264l859 -333v-342l-859 -333v269l632 235l-632 235v269z" />
    <glyph glyph-name="question" unicode="?" horiz-adv-x="891" 
d="M220 850q119 26 185 56.5t93 69t27 92.5q0 82 -53.5 120.5t-171.5 38.5q-73 0 -148.5 -13t-137.5 -36v271q63 23 155.5 37t178.5 14q250 0 379.5 -101t129.5 -292q0 -154 -88.5 -258t-252.5 -157l-28 -192h-210zM269 7q-50 26 -78 74.5t-28 111.5q0 64 27.5 112.5
t77 74.5t115.5 26t116 -27t77.5 -75.5t27.5 -110.5t-28 -110t-78.5 -75t-114.5 -27t-114 26z" />
    <glyph glyph-name="at" unicode="@" horiz-adv-x="1923" 
d="M1633 1269q230 -229 230 -685q0 -316 -120 -460.5t-328 -144.5q-110 0 -186.5 37.5t-122.5 114.5h-16q-27 -81 -91 -116.5t-150 -35.5q-91 0 -161.5 40t-109.5 112.5t-39 168.5q0 164 100 252t321 103l114 9v5q0 58 -18 91.5t-59 49t-112 15.5q-62 0 -130 -12.5
t-129 -35.5l4 272q69 23 156 36t165 13q161 0 260 -43.5t147 -140.5t48 -261v-328q0 -106 77 -106q44 0 72.5 29.5t44 108t14.5 219.5q0 252 -69 404t-209.5 220t-364.5 68q-225 0 -365 -72t-208 -235.5t-68 -439.5q0 -278 70 -442t216.5 -236.5t387.5 -72.5q206 0 411 54
v-230q-204 -54 -411 -54q-460 0 -702 240t-242 740q0 498 236.5 738t674.5 240q432 0 662 -229zM1074 279v193l-73 -5q-64 -4 -96.5 -36t-32.5 -88q0 -53 27 -81t73 -28q61 0 102 45z" />
    <glyph glyph-name="A" unicode="A" horiz-adv-x="1276" 
d="M939 0l-90 369h-426l-89 -369h-337l382 1480h519l382 -1480h-341zM493 663h285l-143 590z" />
    <glyph glyph-name="B" unicode="B" horiz-adv-x="1221" 
d="M1117.5 647.5q70.5 -87.5 70.5 -233.5q0 -217 -167.5 -325t-527.5 -108q-86 0 -196 9t-198 23v1439q99 22 216 34.5t225 12.5q208 0 341.5 -43.5t199 -134.5t65.5 -235q0 -115 -59 -202.5t-163 -120.5q123 -28 193.5 -115.5zM437 1219v-325h151q87 0 137.5 17.5t72 54
t21.5 96.5q0 91 -51 130.5t-172 39.5q-73 0 -159 -13zM749 268q59 19 85.5 59t26.5 107q0 95 -58.5 138.5t-186.5 43.5h-179v-360q84 -7 153 -7q100 0 159 19z" />
    <glyph glyph-name="C" unicode="C" horiz-adv-x="1078" 
d="M236.5 160.5q-176.5 180.5 -176.5 575.5q0 385 184.5 574.5t527.5 189.5q146 0 274 -32v-292q-125 30 -244 30q-129 0 -212 -44.5t-125 -147t-42 -274.5q0 -177 41 -279t123 -144.5t214 -42.5q102 0 245 47v-292q-57 -22 -137 -35.5t-158 -13.5q-338 0 -514.5 180.5z" />
    <glyph glyph-name="D" unicode="D" horiz-adv-x="1308" 
d="M99 2v1450q217 47 415 47q371 0 552.5 -185t181.5 -574q0 -263 -86 -431t-259.5 -248t-438.5 -80q-176 0 -365 21zM740.5 315q72.5 44 110.5 147t38 278t-39 278.5t-112.5 148t-182.5 44.5q-26 0 -56.5 -3t-52.5 -8v-925q63 -4 111 -4q111 0 183.5 44z" />
    <glyph glyph-name="E" unicode="E" horiz-adv-x="1103" 
d="M441 297h607v-297h-949v1480h939v-297h-597v-279h495v-297h-495v-310z" />
    <glyph glyph-name="F" unicode="F" horiz-adv-x="1048" 
d="M1037 1180h-591v-315h494v-301h-494v-564h-347v1480h938v-300z" />
    <glyph glyph-name="G" unicode="G" horiz-adv-x="1256" 
d="M1166 720v-709q-187 -30 -332 -30q-388 0 -581 184.5t-193 574.5q0 385 195.5 572.5t571.5 187.5q87 0 159.5 -9t144.5 -28v-292q-73 18 -136 26.5t-129 8.5q-158 0 -254.5 -44.5t-142.5 -147.5t-46 -279q0 -168 42.5 -270t124.5 -147t206 -45q33 0 49 1v446h321z" />
    <glyph glyph-name="H" unicode="H" horiz-adv-x="1346" 
d="M99 0v1480h347v-565h454v565h347v-1480h-347v597h-454v-597h-347z" />
    <glyph glyph-name="I" unicode="I" horiz-adv-x="544" 
d="M99 0v1480h347v-1480h-347z" />
    <glyph glyph-name="J" unicode="J" horiz-adv-x="544" 
d="M-44 -199q81 119 112 229.5t31 272.5v1177h347v-1167q-1 -191 -61 -347.5t-201 -314.5z" />
    <glyph glyph-name="K" unicode="K" horiz-adv-x="1211" 
d="M905 0l-358 597h-101v-597h-347v1480h347v-566h104l328 566h361l-416 -716l453 -764h-371z" />
    <glyph glyph-name="L" unicode="L" horiz-adv-x="1016" 
d="M99 0v1480h347v-1173h566v-307h-913z" />
    <glyph glyph-name="M" unicode="M" horiz-adv-x="1706" 
d="M1175 1480h428v-1480h-323v992l-291 -775h-272l-292 749v-966h-322v1480h427l329 -874z" />
    <glyph glyph-name="N" unicode="N" horiz-adv-x="1362" 
d="M939 1480h324v-1480h-346l-494 900v-900h-324v1480h346l494 -900v900z" />
    <glyph glyph-name="O" unicode="O" horiz-adv-x="1364" 
d="M353 59.5q-139 79.5 -216 249t-77 431.5t77 431.5t216 249t329 79.5t329 -79.5t216 -249t77 -431.5t-77 -431.5t-216 -249t-329 -79.5t-329 79.5zM827 313.5q58 44.5 88.5 147t30.5 272.5q0 177 -30.5 282t-88.5 150.5t-145 45.5t-145 -44.5t-88.5 -147t-30.5 -272.5
q0 -177 30.5 -282t88.5 -150.5t145 -45.5t145 44.5z" />
    <glyph glyph-name="P" unicode="P" horiz-adv-x="1195" 
d="M99 1452q217 47 420 47q314 0 469 -132.5t155 -412.5q0 -266 -152 -404.5t-440 -138.5q-26 0 -68 2l-37 1v-414h-347v1452zM745 751.5q61 60.5 61 198.5q0 141 -62 205t-192 64q-65 0 -106 -9v-513q51 -6 109 -6q129 0 190 60.5z" />
    <glyph glyph-name="Q" unicode="Q" horiz-adv-x="1364" 
d="M1201.5 273.5q-102.5 -178.5 -297.5 -232.5q191 -63 376 -88l-65 -283q-431 80 -684 221t-362 348t-109 501q0 262 77 431.5t216 249t329 79.5t329 -79.5t216 -249t77 -431.5q0 -288 -102.5 -466.5zM448.5 465q30.5 -105 88.5 -150.5t145 -45.5t145 44.5t88.5 147
t30.5 272.5q0 177 -30.5 282t-88.5 150.5t-145 45.5t-145 -44.5t-88.5 -147t-30.5 -272.5q0 -177 30.5 -282z" />
    <glyph glyph-name="R" unicode="R" horiz-adv-x="1251" 
d="M878 0l-319 523l-68 1q-17 1 -50 1v-525h-342v1452q217 47 428 47q307 0 459.5 -121.5t152.5 -366.5q1 -152 -66.5 -260t-191.5 -165l366 -586h-369zM441 801q60 -6 118 -6q127 0 189.5 50.5t62.5 165.5q0 219 -237 219q-73 0 -133 -11v-418z" />
    <glyph glyph-name="S" unicode="S" horiz-adv-x="1025" 
d="M245 -4q-100 16 -177 45v290q189 -59 359 -59q221 0 221 141q0 37 -15.5 63.5t-54 49.5t-108.5 46l-110 37q-154 52 -243.5 158.5t-89.5 269.5q0 144 64.5 248t194.5 159.5t321 55.5q87 0 168.5 -10.5t144.5 -29.5v-290q-60 18 -132.5 28t-145.5 10q-144 0 -205 -38.5
t-61 -105.5q0 -35 13.5 -59.5t47 -44.5t95.5 -42l111 -37q172 -57 263.5 -161.5t91.5 -274.5q0 -142 -66.5 -247t-193.5 -161.5t-303 -56.5q-90 0 -190 16z" />
    <glyph glyph-name="T" unicode="T" horiz-adv-x="1157" 
d="M404 0v1173h-399v307h1148v-307h-400v-1173h-349z" />
    <glyph glyph-name="U" unicode="U" horiz-adv-x="1319" 
d="M344 42.5q-126 62.5 -189 197t-63 349.5v891h347v-931q0 -148 56.5 -212.5t168.5 -64.5t167 64.5t55 212.5v931h340v-891q0 -216 -61 -350t-185 -196.5t-316 -62.5q-194 0 -320 62.5z" />
    <glyph glyph-name="V" unicode="V" horiz-adv-x="1255" 
d="M937 1480h332l-377 -1480h-530l-376 1480h356l294 -1207z" />
    <glyph glyph-name="W" unicode="W" horiz-adv-x="1993" 
d="M1657 1480h324l-314 -1480h-451l-211 1027l-229 -1027h-451l-314 1480h350l219 -1111l239 1111h379l228 -1128z" />
    <glyph glyph-name="X" unicode="X" horiz-adv-x="1260" 
d="M831 774l461 -774h-375l-288 494l-290 -494h-379l467 772l-426 708h379l249 -424l249 424h373z" />
    <glyph glyph-name="Y" unicode="Y" horiz-adv-x="1157" 
d="M1216 1480l-463 -861v-619h-347v617l-471 863h364l291 -546l292 546h334z" />
    <glyph glyph-name="Z" unicode="Z" horiz-adv-x="1090" 
d="M485 307h569v-307h-1019v195l560 978h-550v307h999v-195z" />
    <glyph glyph-name="bracketleft" unicode="[" horiz-adv-x="656" 
d="M119 -440v2056h569v-267h-227v-1522h227v-267h-569z" />
    <glyph glyph-name="backslash" unicode="\" horiz-adv-x="702" 
d="M374 -240l-374 1856h328l374 -1856h-328z" />
    <glyph glyph-name="bracketright" unicode="]" horiz-adv-x="656" 
d="M-31 -440v267h227v1522h-227v267h569v-2056h-569z" />
    <glyph glyph-name="asciicircum" unicode="^" 
d="M1110 740h-316l-208 425l-208 -425h-316l381 740h286z" />
    <glyph glyph-name="underscore" unicode="_" horiz-adv-x="1065" 
d="M81 -267v267h903v-267h-903z" />
    <glyph glyph-name="grave" unicode="`" horiz-adv-x="1145" 
d="M424 1226l-247 390h344l200 -390h-297z" />
    <glyph glyph-name="a" unicode="a" horiz-adv-x="986" 
d="M707.5 1071q100.5 -44 148.5 -143t48 -267v-661h-277l-25 113h-15q-68 -134 -240 -134q-91 0 -161.5 39.5t-109.5 112t-39 169.5q0 164 100 253t321 104l114 8v12q0 63 -18 98.5t-60.5 51t-117.5 15.5q-60 0 -127.5 -9.5t-129.5 -27.5v271q71 18 158 28.5t166 10.5
q164 0 264.5 -44zM572 275v194l-73 -6q-64 -4 -96.5 -35.5t-32.5 -88.5q0 -53 27 -80.5t73 -27.5q61 0 102 44z" />
    <glyph glyph-name="b" unicode="b" horiz-adv-x="1078" 
d="M269 -4q-101 16 -182 46v1574h342v-629h16q33 61 90.5 94.5t132.5 33.5q101 0 183 -58.5t131 -182t49 -309.5q0 -290 -137 -437.5t-426 -147.5q-98 0 -199 16zM598.5 268q41.5 27 62.5 91t21 176q0 116 -19 180t-53.5 88t-89.5 24q-25 0 -49.5 -8.5t-41.5 -23.5v-546
q30 -8 64 -8q64 0 105.5 27z" />
    <glyph glyph-name="c" unicode="c" horiz-adv-x="824" 
d="M47 547q0 293 141.5 430.5t401.5 137.5q107 0 199 -19v-278q-64 12 -133 12q-90 0 -145 -27t-81.5 -87.5t-26.5 -162.5q0 -109 24.5 -172.5t74 -90.5t127.5 -27q67 0 160 30v-278q-54 -18 -116 -27t-121 -9q-505 0 -505 568z" />
    <glyph glyph-name="d" unicode="d" horiz-adv-x="1078" 
d="M239 37.5q-87 58.5 -139.5 181.5t-52.5 308q0 291 137.5 438.5t428.5 147.5q24 0 36 -1v504h342v-1616h-290l-23 118h-15q-32 -66 -90.5 -102.5t-140.5 -36.5q-106 0 -193 58.5zM604 275.5q27 10.5 45 29.5v542q-40 6 -63 6q-65 0 -106.5 -27t-62.5 -91.5t-21 -177.5
q0 -115 18.5 -179.5t51.5 -88.5t82 -24q29 0 56 10.5z" />
    <glyph glyph-name="e" unicode="e" horiz-adv-x="977" 
d="M941 445h-547q4 -75 28 -116.5t76 -59.5t143 -18q104 0 247 35v-271q-79 -19 -147.5 -27.5t-142.5 -8.5q-196 0 -316.5 59t-177.5 185t-57 331q0 271 120 416t345 145q212 0 320.5 -145.5t108.5 -426.5v-98zM445 872q-25 -20 -38 -73t-14 -149h229q-1 97 -13 149.5
t-35.5 72.5t-63.5 20t-65 -20z" />
    <glyph glyph-name="f" unicode="f" horiz-adv-x="715" 
d="M537.5 1320q-44.5 -40 -44.5 -127v-96h240v-267h-240v-830h-337v830h-148v267h148v74q0 224 120 344.5t355 120.5q77 0 143 -12v-271q-60 7 -90 7q-102 0 -146.5 -40z" />
    <glyph glyph-name="g" unicode="g" horiz-adv-x="1078" 
d="M276 -451q-83 9 -152 26v272q141 -38 277 -38q127 0 187.5 55.5t60.5 186.5v66h-17q-33 -61 -90 -94.5t-133 -33.5q-96 0 -178 57t-133 178.5t-51 303.5q0 290 137.5 438t429.5 149q96 0 196.5 -16t180.5 -46v-942q0 -299 -138 -435t-421 -136q-73 0 -156 9zM607.5 280.5
q24.5 8.5 41.5 23.5v544q-40 6 -66 6q-62 0 -103 -26.5t-62.5 -91.5t-21.5 -177q0 -114 18 -176.5t53 -86.5t91 -24q25 0 49.5 8.5z" />
    <glyph glyph-name="h" unicode="h" horiz-adv-x="1075" 
d="M87 1616h342v-632h16q41 64 102.5 97.5t150.5 33.5q131 0 212.5 -95.5t81.5 -302.5v-717h-342v686q0 68 -25 96.5t-72 28.5q-34 0 -68.5 -15.5t-55.5 -43.5v-752h-342v1616z" />
    <glyph glyph-name="i" unicode="i" horiz-adv-x="518" 
d="M87 0v1097h344v-1097h-344zM101 1279.5q-52 48.5 -52 139.5q0 90 52 139t158 49t158.5 -49t52.5 -139q0 -91 -52.5 -139.5t-158.5 -48.5t-158 48.5z" />
    <glyph glyph-name="j" unicode="j" horiz-adv-x="518" 
d="M-55 -324q80 118 111 229t31 273v919h344v-904q0 -195 -59 -352t-200 -315zM101 1279.5q-52 48.5 -52 139.5q0 90 52 139t158 49t158.5 -49t52.5 -139q0 -91 -52.5 -139.5t-158.5 -48.5t-158 48.5z" />
    <glyph glyph-name="k" unicode="k" horiz-adv-x="1054" 
d="M729 0l-243 430h-57v-430h-342v1616h342v-918h54l219 399h358l-287 -526l323 -571h-367z" />
    <glyph glyph-name="l" unicode="l" horiz-adv-x="516" 
d="M87 0v1616h342v-1616h-342z" />
    <glyph glyph-name="m" unicode="m" horiz-adv-x="1603" 
d="M1435 1019.5q86 -95.5 86 -306.5v-713h-342v694q0 117 -96 117q-27 0 -57.5 -12t-53.5 -35q1 -10 1 -30v-734h-335v694q0 64 -24 90.5t-68 26.5q-31 0 -64.5 -16t-52.5 -44v-751h-342v1097h284l25 -114h15q51 67 117.5 99.5t152.5 32.5q79 0 141 -33t100 -103
q52 66 125.5 101t155.5 35q146 0 232 -95.5z" />
    <glyph glyph-name="n" unicode="n" horiz-adv-x="1075" 
d="M87 1097h284l25 -113h15q49 65 116.5 98t151.5 33q144 0 228.5 -95t84.5 -303v-717h-342v691q0 66 -25 93t-72 27q-35 0 -69 -15.5t-55 -43.5v-752h-342v1097z" />
    <glyph glyph-name="o" unicode="o" horiz-adv-x="1046" 
d="M169 117.5q-122 138.5 -122 424.5q0 291 122 432t354 141q231 0 354 -143t123 -427q0 -287 -122.5 -426.5t-354.5 -139.5t-354 138.5zM595 256.5q27 24.5 41 91.5t14 193q0 129 -14.5 199t-42 95.5t-70.5 25.5t-70.5 -25.5t-42 -94t-14.5 -195.5q0 -129 14 -197t41 -92.5
t72 -24.5t72 24.5z" />
    <glyph glyph-name="p" unicode="p" horiz-adv-x="1078" 
d="M87 1097h289l24 -122h14q33 66 91 103t140 37q106 0 193.5 -58.5t140 -181.5t52.5 -308q0 -291 -137.5 -439t-429.5 -148q-11 0 -35 2v-422h-342v1537zM598.5 268q41.5 27 62.5 91.5t21 176.5q0 116 -18.5 180t-51 88t-82.5 24q-29 0 -55.5 -10t-45.5 -29v-543
q47 -5 63 -5q65 0 106.5 27z" />
    <glyph glyph-name="q" unicode="q" horiz-adv-x="1078" 
d="M649 109h-17q-33 -62 -90 -95.5t-133 -33.5q-101 0 -182.5 58.5t-130.5 182t-49 309.5q0 290 137.5 437.5t428.5 147.5q97 0 197 -16t181 -46v-1493h-342v549zM608 277q24 8 41 24v547q-40 6 -66 6q-62 0 -103 -26.5t-62.5 -91t-21.5 -176.5q0 -116 19 -179.5t53.5 -87.5
t89.5 -24q26 0 50 8z" />
    <glyph glyph-name="r" unicode="r" horiz-adv-x="749" 
d="M87 1097h281l26 -153h15q65 170 252 170q36 0 78 -8v-317q-37 8 -101 8q-65 0 -122.5 -24t-86.5 -64v-709h-342v1097z" />
    <glyph glyph-name="s" unicode="s" horiz-adv-x="834" 
d="M68 25v270q135 -47 290 -47q76 0 109 22t33 63q0 29 -15.5 45.5t-48.5 24.5l-151 37q-252 60 -252 319q0 108 53.5 188.5t158 124t255.5 43.5q134 0 250 -29v-270q-111 30 -231 30q-96 0 -136.5 -24.5t-40.5 -63.5q0 -26 16 -41.5t50 -23.5l151 -37q126 -31 188.5 -106
t62.5 -210q0 -111 -54 -192.5t-154.5 -125t-236.5 -43.5q-163 0 -297 46z" />
    <glyph glyph-name="t" unicode="t" horiz-adv-x="761" 
d="M733 281v-278q-41 -10 -91.5 -16.5t-97.5 -6.5q-195 0 -295.5 102t-100.5 324v424h-148v267h148l63 383h279v-383h240v-267h-240v-385q0 -67 14 -104t45 -53t87 -16q27 0 97 9z" />
    <glyph glyph-name="u" unicode="u" horiz-adv-x="1066" 
d="M166.5 74.5q-84.5 94.5 -84.5 300.5v722h342v-691q0 -122 94 -122q31 0 64.5 15.5t54.5 43.5v754h342v-1097h-284l-25 113h-15q-103 -133 -263 -133q-141 0 -225.5 94.5z" />
    <glyph glyph-name="v" unicode="v" horiz-adv-x="1025" 
d="M694 1097h338l-298 -1097h-443l-298 1097h352l175 -759z" />
    <glyph glyph-name="w" unicode="w" horiz-adv-x="1604" 
d="M1291 1097h303l-252 -1097h-367l-170 739l-174 -739h-367l-253 1097h315l143 -696l159 696h366l150 -682z" />
    <glyph glyph-name="x" unicode="x" horiz-adv-x="1015" 
d="M711 556l335 -556h-370l-170 302l-174 -302h-359l329 553l-323 544h369l163 -286l163 286h359z" />
    <glyph glyph-name="y" unicode="y" horiz-adv-x="1025" 
d="M694 1097h338l-418 -1537h-334l121 440h-110l-298 1097h352l173 -767z" />
    <glyph glyph-name="z" unicode="z" horiz-adv-x="857" 
d="M423 267h405v-267h-784v212l395 618h-385v267h764v-212z" />
    <glyph glyph-name="braceleft" unicode="{" horiz-adv-x="696" 
d="M458 726.5q-43 -67.5 -138 -95.5q95 -28 138 -95.5t43 -174.5v-447q0 -51 28 -76t85 -25h114v-260q-91 -13 -172 -13q-197 0 -297 96t-100 283v467q0 51 -30 81t-81 30h-54v267h54q51 0 81 30t30 81v382q0 187 100 283t297 96q81 0 172 -13v-260h-114q-57 0 -85 -25
t-28 -76v-361q0 -107 -43 -174.5z" />
    <glyph glyph-name="bar" unicode="|" horiz-adv-x="499" 
d="M99 -440v2056h302v-2056h-302z" />
    <glyph glyph-name="braceright" unicode="}" horiz-adv-x="696" 
d="M702 764v-267h-54q-50 0 -80 -29.5t-30 -81.5v-467q0 -187 -100 -283t-298 -96q-80 0 -171 13v260h113q114 0 114 101v447q0 107 43.5 174.5t139.5 95.5q-96 28 -139.5 95.5t-43.5 174.5v361q0 101 -114 101h-113v260q91 13 171 13q198 0 298 -96t100 -283v-382
q0 -51 30 -81t80 -30h54z" />
    <glyph glyph-name="asciitilde" unicode="~" horiz-adv-x="1033" 
d="M609 585q-47 16 -115 48q-57 27 -95.5 40.5t-77.5 13.5q-67 0 -122.5 -26t-111.5 -84v272q47 52 103.5 76t133.5 24q54 0 101 -16t115 -48q58 -27 95.5 -40.5t76.5 -13.5q67 0 122.5 26t111.5 84v-271q-47 -53 -103.5 -77t-133.5 -24q-53 0 -100 16z" />
    <glyph glyph-name="uni00A0" unicode="&#xa0;" horiz-adv-x="436" 
 />
    <glyph glyph-name="exclamdown" unicode="&#xa1;" horiz-adv-x="559" 
d="M393.5 1089q50.5 -27 78.5 -76.5t28 -113.5q0 -65 -27.5 -114.5t-77.5 -76.5t-116 -27q-100 0 -160 59t-60 159q0 66 28 115t78 75.5t114 26.5t114.5 -27zM176 585h210l77 -474v-491h-368v491z" />
    <glyph glyph-name="cent" unicode="&#xa2;" horiz-adv-x="825" 
d="M511 803q-55 -27 -81.5 -87.5t-26.5 -162.5q0 -109 24.5 -172.5t74 -90.5t127.5 -27q67 0 160 30v-278q-61 -19 -122 -28v-227h-284v238q-336 87 -336 549q0 444 336 542v248h284v-225q55 -3 122 -16v-278q-64 12 -134 12q-89 0 -144 -27z" />
    <glyph glyph-name="sterling" unicode="&#xa3;" horiz-adv-x="1184" 
d="M1148 297v-297h-1094v297h167v319h-167v268h167v134q0 234 149 358t448 124q78 0 156 -9.5t140 -25.5v-290q-59 16 -130 24.5t-133 8.5q-109 0 -171.5 -19t-89.5 -58.5t-27 -103.5v-143h394v-268h-394v-319h585z" />
    <glyph glyph-name="currency" unicode="&#xa4;" 
d="M1028 474l98 -96l-178 -178l-96 98l-90 105q-81 -39 -176 -39t-176 39l-90 -105l-96 -98l-178 178l98 96l104 88q-40 80 -40 178q0 99 40 177l-104 89l-98 96l178 178l96 -98l91 -106q79 38 175 38q97 0 175 -38l91 106l96 98l179 -178l-99 -96l-103 -89q40 -78 40 -177
q0 -98 -40 -178zM470 613q45 -47 116 -47t116.5 47t45.5 127q0 76 -44.5 125t-115.5 49q-72 0 -117.5 -47t-45.5 -127t45 -127z" />
    <glyph glyph-name="yen" unicode="&#xa5;" horiz-adv-x="1165" 
d="M1221 1480l-373 -693h200v-211h-291v-104h291v-211h-291v-261h-347v261h-291v211h291v104h-291v211h198l-378 693h364l291 -546l292 546h335z" />
    <glyph glyph-name="brokenbar" unicode="&#xa6;" horiz-adv-x="499" 
d="M99 836v780h302v-780h-302zM99 -440v780h302v-780h-302z" />
    <glyph glyph-name="section" unicode="&#xa7;" horiz-adv-x="957" 
d="M795 511q62 -68 62 -180q0 -107 -55 -186.5t-158 -122.5t-244 -43q-149 0 -285 38v252q132 -38 282 -38q82 0 116.5 21.5t34.5 62.5q0 30 -15.5 46t-49.5 25l-182 45q-238 60 -238 311q0 134 100 227q-63 69 -63 173q0 109 53 188.5t159 123.5t263 44q129 0 242 -22v-253
q-100 23 -218 23q-189 0 -189 -88q0 -26 15.5 -41.5t49.5 -23.5l182 -44q117 -28 177 -101.5t60 -207.5q0 -136 -99 -229zM562 620q33 31 45.5 55t12.5 52q0 39 -19.5 63t-66.5 36l-155 37q-22 -27 -32 -52t-10 -56q0 -41 20 -65.5t67 -36.5z" />
    <glyph glyph-name="dieresis" unicode="&#xa8;" horiz-adv-x="1145" 
d="M207 1287q-50 48 -50 132q0 83 50 131t135 48q84 0 134 -48t50 -131q0 -84 -50 -132t-134 -48q-85 0 -135 48zM668.5 1287q-49.5 48 -49.5 132q0 83 49.5 131t134.5 48t134.5 -48t49.5 -131q0 -84 -49.5 -132t-134.5 -48t-134.5 48z" />
    <glyph glyph-name="copyright" unicode="&#xa9;" horiz-adv-x="1619" 
d="M416 73q-170 95 -263 267.5t-93 399.5t93 399.5t263 267.5t393 95t393 -95t263 -267.5t93 -399.5t-93 -399.5t-263 -267.5t-393 -95t-393 95zM1104.5 239q123.5 69 188.5 197.5t65 303.5t-65 303.5t-188.5 197.5t-295.5 69t-295 -69t-188 -197.5t-65 -303.5t65 -303.5
t188 -197.5t295 -69t295.5 69zM642.5 372q-98.5 48 -152 140t-53.5 220q0 129 54.5 222t156 141.5t240.5 48.5q105 0 192 -23v-224q-93 17 -167 17q-208 0 -208 -181q0 -88 50.5 -133.5t143.5 -45.5q44 0 84 5.5t97 20.5v-224q-83 -32 -206 -32q-133 0 -231.5 48z" />
    <glyph glyph-name="ordfeminine" unicode="&#xaa;" horiz-adv-x="821" 
d="M590 1464q87 -37 129 -119t42 -219v-516h-257l-23 89h-15q-52 -106 -195 -106q-74 0 -132 33.5t-90.5 92.5t-32.5 135q0 138 84 208t275 80l74 5v7q0 35 -13.5 56t-47.5 32t-95 11q-102 0 -209 -30v245q63 15 136.5 24t141.5 9q141 0 228 -37zM449 837v144l-33 -1
q-48 -3 -71 -22.5t-23 -58.5q0 -42 20.5 -62t55.5 -20q34 0 51 20z" />
    <glyph glyph-name="guillemotleft" unicode="&#xab;" horiz-adv-x="1116" 
d="M264 131l-197 438l197 437h336l-196 -437l196 -438h-336zM753 131l-197 438l197 437h336l-196 -437l196 -438h-336z" />
    <glyph glyph-name="logicalnot" unicode="&#xac;" horiz-adv-x="1240" 
d="M879 190v436h-792v268h1071v-704h-279z" />
    <glyph glyph-name="uni00AD" unicode="&#xad;" horiz-adv-x="750" 
d="M87 430v277h576v-277h-576z" />
    <glyph glyph-name="registered" unicode="&#xae;" horiz-adv-x="1374" 
d="M1004.5 1420q138.5 -78 215.5 -218t77 -320t-77 -319.5t-215.5 -217t-317.5 -77.5t-317.5 77.5t-215.5 217t-77 319.5t77 320t215.5 218t317.5 78t317.5 -78zM927 470q103 58 159.5 164.5t56.5 247.5q0 142 -56.5 249t-159.5 165t-240 58t-240 -58t-159.5 -165
t-56.5 -249q0 -141 56.5 -247.5t159.5 -164.5t240 -58t240 58zM824 813l146 -213h-167l-132 192h-47l-5 -192h-152v592h211q132 0 197 -50t65 -151q0 -135 -116 -178zM624 914h78q45 0 67 19t22 58t-23 59t-66 20h-78v-156z" />
    <glyph glyph-name="macron" unicode="&#xaf;" horiz-adv-x="1145" 
d="M231 1310v220h683v-220h-683z" />
    <glyph glyph-name="degree" unicode="&#xb0;" horiz-adv-x="909" 
d="M261 805q-86 48 -135 133t-49 191t49 190.5t135 132t193 47.5q108 0 194 -47.5t134.5 -132t48.5 -190.5t-48.5 -191t-134.5 -133t-194 -48q-107 0 -193 48zM568.5 1006.5q44.5 45.5 44.5 122.5t-45 122t-114 45t-114 -45t-45 -122t44.5 -122.5t114.5 -45.5t114.5 45.5z
" />
    <glyph glyph-name="plusminus" unicode="&#xb1;" horiz-adv-x="1033" 
d="M377 376v300h-290v268h290v300h279v-300h290v-268h-290v-300h-279zM87 2v267h859v-267h-859z" />
    <glyph glyph-name="uni00B2" unicode="&#xb2;" horiz-adv-x="801" 
d="M723 93v-229h-638v147l226 310q55 75 80 129.5t25 99.5q0 55 -36.5 82t-121.5 27q-46 0 -96 -8.5t-91 -24.5v217q44 16 108.5 25.5t123.5 9.5q380 0 380 -303q0 -76 -29 -152t-96 -167l-119 -163h284z" />
    <glyph glyph-name="uni00B3" unicode="&#xb3;" horiz-adv-x="801" 
d="M673 299q47 -61 47 -156q0 -140 -108.5 -216.5t-304.5 -76.5q-114 0 -235 29v206q51 -14 112 -22t112 -8q88 0 127.5 26t39.5 81t-38 80.5t-122 25.5h-147v211h138q72 0 106.5 26t34.5 73q0 49 -36.5 72t-116.5 23q-52 0 -105.5 -9t-94.5 -26v205q46 16 112 25.5t128 9.5
q181 0 275.5 -69.5t94.5 -199.5q0 -87 -42.5 -147t-118.5 -82q95 -20 142 -81z" />
    <glyph glyph-name="acute" unicode="&#xb4;" horiz-adv-x="1145" 
d="M424 1226l199 390h345l-247 -390h-297z" />
    <glyph glyph-name="uni00B5" unicode="&#xb5;" horiz-adv-x="1066" 
d="M979 1097v-1097h-284l-25 113h-15q-35 -67 -78 -100t-96 -33q-31 0 -57 10v-430h-342v1537h342v-691q0 -122 94 -122q31 0 64.5 15.5t54.5 43.5v754h342z" />
    <glyph glyph-name="paragraph" unicode="&#xb6;" horiz-adv-x="1195" 
d="M503 412q-24 -1 -67 -1q-188 0 -286 138t-98 405q0 190 47 310t146.5 177.5t258.5 57.5q126 0 240 -19v-1480h-241v412zM856 0v1480h241v-1480h-241z" />
    <glyph glyph-name="periodcentered" unicode="&#xb7;" horiz-adv-x="519" 
d="M145 369q-50 26 -78 75.5t-28 115.5q0 100 60 158.5t160 58.5q66 0 116 -27t77.5 -76t27.5 -114q0 -64 -28 -113.5t-78.5 -76.5t-114.5 -27t-114 26z" />
    <glyph glyph-name="cedilla" unicode="&#xb8;" horiz-adv-x="1145" 
d="M782 -146q40 -45 40 -115q0 -90 -64 -140.5t-197 -50.5q-82 0 -166 27v137q37 -13 76.5 -20t71.5 -7q49 0 71.5 15.5t22.5 51.5q0 72 -97 72h-40v196h168v-106q74 -15 114 -60z" />
    <glyph glyph-name="uni00B9" unicode="&#xb9;" horiz-adv-x="801" 
d="M567 93h163v-229h-604v229h172v468l-161 -101v243l265 165h165v-775z" />
    <glyph glyph-name="ordmasculine" unicode="&#xba;" horiz-adv-x="869" 
d="M132 707.5q-105 114.5 -105 336.5q0 223 105.5 340t302.5 117q196 0 301.5 -119.5t105.5 -337.5t-105 -334.5t-302 -116.5q-198 0 -303 114.5zM483.5 836.5q19.5 16.5 30.5 65.5t11 142q0 94 -11 144t-30.5 67.5t-48.5 17.5t-48 -17.5t-30.5 -67.5t-11.5 -144
q0 -93 11.5 -142t30.5 -65.5t48 -16.5t48.5 16.5z" />
    <glyph glyph-name="guillemotright" unicode="&#xbb;" horiz-adv-x="1116" 
d="M27 131l197 438l-197 437h337l196 -437l-196 -438h-337zM516 131l197 438l-197 437h337l196 -437l-196 -438h-337z" />
    <glyph glyph-name="onequarter" unicode="&#xbc;" horiz-adv-x="1926" 
d="M567 845h163v-229h-604v229h172v468l-161 -101v243l265 165h165v-775zM458 -136l728 1752h282l-729 -1752h-281zM1903 259v-202h-107v-193h-232v193h-414v149l282 658h253l-253 -605h132l60 267h172v-267h107z" />
    <glyph glyph-name="onehalf" unicode="&#xbd;" horiz-adv-x="1926" 
d="M567 845h163v-229h-604v229h172v468l-161 -101v243l265 165h165v-775zM458 -136l728 1752h282l-729 -1752h-281zM1848 93v-229h-638v147l226 310q55 75 80 129.5t25 99.5q0 55 -36.5 82t-121.5 27q-46 0 -96 -8.5t-91 -24.5v217q44 16 108.5 25.5t123.5 9.5
q380 0 380 -303q0 -76 -29 -152t-96 -167l-119 -163h284z" />
    <glyph glyph-name="threequarters" unicode="&#xbe;" horiz-adv-x="1926" 
d="M673 1051q47 -61 47 -156q0 -140 -108.5 -216.5t-304.5 -76.5q-114 0 -235 29v206q51 -14 112 -22t112 -8q88 0 127.5 26t39.5 81t-38 80.5t-122 25.5h-147v211h138q72 0 106.5 26t34.5 73q0 49 -36.5 72t-116.5 23q-52 0 -105.5 -9t-94.5 -26v205q46 16 112 25.5
t128 9.5q181 0 275.5 -69.5t94.5 -199.5q0 -87 -42.5 -147t-118.5 -82q95 -20 142 -81zM458 -136l728 1752h282l-729 -1752h-281zM1903 259v-202h-107v-193h-232v193h-414v149l282 658h253l-253 -605h132l60 267h172v-267h107z" />
    <glyph glyph-name="questiondown" unicode="&#xbf;" horiz-adv-x="891" 
d="M622 1090q50 -26 78 -74.5t28 -111.5q0 -64 -27.5 -112t-77 -74t-115.5 -26t-116 26.5t-77.5 75t-27.5 110.5t28 110.5t78.5 75t114.5 26.5t114 -26zM671 247q-119 -26 -185 -56t-93 -68.5t-27 -91.5q0 -81 54 -119.5t171 -38.5q73 0 148.5 13t137.5 36v-271
q-63 -23 -155.5 -37t-178.5 -14q-250 0 -379.5 101t-129.5 290q0 153 88.5 257.5t252.5 156.5l28 192h210z" />
    <glyph glyph-name="Agrave" unicode="&#xc0;" horiz-adv-x="1276" 
d="M939 0l-90 369h-426l-89 -369h-337l382 1480h519l382 -1480h-341zM493 663h285l-143 590zM486 1590l-208 310h355l157 -310h-304z" />
    <glyph glyph-name="Aacute" unicode="&#xc1;" horiz-adv-x="1276" 
d="M939 0l-90 369h-426l-89 -369h-337l382 1480h519l382 -1480h-341zM493 663h285l-143 590zM486 1590l158 310h354l-208 -310h-304z" />
    <glyph glyph-name="Acircumflex" unicode="&#xc2;" horiz-adv-x="1276" 
d="M939 0l-90 369h-426l-89 -369h-337l382 1480h519l382 -1480h-341zM493 663h285l-143 590zM976 1590h-231l-107 186l-107 -186h-230l192 310h290z" />
    <glyph glyph-name="Atilde" unicode="&#xc3;" horiz-adv-x="1276" 
d="M939 0l-90 369h-426l-89 -369h-337l382 1480h519l382 -1480h-341zM493 663h285l-143 590zM715.5 1612q-40.5 11 -95.5 32q-50 19 -82 28t-67 9q-58 0 -102.5 -18.5t-90.5 -57.5v211q39 39 85 57.5t111 18.5q47 0 86.5 -11t95.5 -32q47 -19 81 -28.5t69 -9.5
q58 0 102.5 18t90.5 57v-211q-38 -39 -84.5 -56.5t-111.5 -17.5q-47 0 -87.5 11z" />
    <glyph glyph-name="Adieresis" unicode="&#xc4;" horiz-adv-x="1276" 
d="M939 0l-90 369h-426l-89 -369h-337l382 1480h519l382 -1480h-341zM493 663h285l-143 590zM259 1629.5q-49 42.5 -49 120.5q0 79 49 121.5t139 42.5t139 -42.5t49 -121.5q0 -78 -49 -120.5t-139 -42.5t-139 42.5zM740 1629.5q-49 42.5 -49 120.5q0 79 49 121.5t139 42.5
q89 0 138 -43t49 -121t-49 -120.5t-138 -42.5q-90 0 -139 42.5z" />
    <glyph glyph-name="Aring" unicode="&#xc5;" horiz-adv-x="1276" 
d="M939 0l-90 369h-426l-89 -369h-337l382 1480h519l382 -1480h-341zM493 663h285l-143 590zM524 1603.5q-51 27.5 -79.5 76.5t-28.5 111t28.5 111t79.5 76.5t114 27.5q64 0 114.5 -27.5t79 -76.5t28.5 -111t-28.5 -111t-79 -76.5t-114.5 -27.5q-63 0 -114 27.5zM700 1726
q24 24 24 65q0 40 -24 64t-62 24t-61.5 -24t-23.5 -64q0 -41 23.5 -65t61.5 -24t62 24z" />
    <glyph glyph-name="AE" unicode="&#xc6;" horiz-adv-x="1801" 
d="M1194 297h552v-297h-866l-25 368h-425l-91 -368h-342l384 1480h1355v-297h-610l21 -279h487v-297h-464zM503 665h331l-36 518h-168z" />
    <glyph glyph-name="Ccedilla" unicode="&#xc7;" horiz-adv-x="1078" 
d="M590 1161.5q-83 -44.5 -125 -147t-42 -274.5q0 -177 41 -279t123 -144.5t214 -42.5q102 0 245 47v-292q-57 -22 -137 -35.5t-158 -13.5h-14v-64q85 -14 130.5 -58.5t45.5 -118.5q0 -191 -280 -191q-101 0 -187 28v137q38 -14 83.5 -21t84.5 -7q59 0 86 15.5t27 52.5
q0 71 -116 71h-42v171q-250 43 -379.5 223t-129.5 518q0 385 184.5 574.5t527.5 189.5q146 0 274 -32v-292q-125 30 -244 30q-129 0 -212 -44.5z" />
    <glyph glyph-name="Egrave" unicode="&#xc8;" horiz-adv-x="1103" 
d="M441 297h607v-297h-949v1480h939v-297h-597v-279h495v-297h-495v-310zM438 1590l-208 310h355l157 -310h-304z" />
    <glyph glyph-name="Eacute" unicode="&#xc9;" horiz-adv-x="1103" 
d="M441 297h607v-297h-949v1480h939v-297h-597v-279h495v-297h-495v-310zM438 1590l158 310h354l-208 -310h-304z" />
    <glyph glyph-name="Ecircumflex" unicode="&#xca;" horiz-adv-x="1103" 
d="M441 297h607v-297h-949v1480h939v-297h-597v-279h495v-297h-495v-310zM928 1590h-231l-107 186l-107 -186h-230l192 310h290z" />
    <glyph glyph-name="Edieresis" unicode="&#xcb;" horiz-adv-x="1103" 
d="M441 297h607v-297h-949v1480h939v-297h-597v-279h495v-297h-495v-310zM211 1629.5q-49 42.5 -49 120.5q0 79 49 121.5t139 42.5t139 -42.5t49 -121.5q0 -78 -49 -120.5t-139 -42.5t-139 42.5zM692 1629.5q-49 42.5 -49 120.5q0 79 49 121.5t139 42.5q89 0 138 -43
t49 -121t-49 -120.5t-138 -42.5q-90 0 -139 42.5z" />
    <glyph glyph-name="Igrave" unicode="&#xcc;" horiz-adv-x="544" 
d="M99 0v1480h347v-1480h-347zM120 1590l-208 310h355l157 -310h-304z" />
    <glyph glyph-name="Iacute" unicode="&#xcd;" horiz-adv-x="544" 
d="M99 0v1480h347v-1480h-347zM120 1590l158 310h354l-208 -310h-304z" />
    <glyph glyph-name="Icircumflex" unicode="&#xce;" horiz-adv-x="544" 
d="M99 0v1480h347v-1480h-347zM610 1590h-231l-107 186l-107 -186h-230l192 310h290z" />
    <glyph glyph-name="Idieresis" unicode="&#xcf;" horiz-adv-x="544" 
d="M99 0v1480h347v-1480h-347zM-107 1629.5q-49 42.5 -49 120.5q0 79 49 121.5t139 42.5t139 -42.5t49 -121.5q0 -78 -49 -120.5t-139 -42.5t-139 42.5zM374 1629.5q-49 42.5 -49 120.5q0 79 49 121.5t139 42.5q89 0 138 -43t49 -121t-49 -120.5t-138 -42.5q-90 0 -139 42.5
z" />
    <glyph glyph-name="Eth" unicode="&#xd0;" horiz-adv-x="1308" 
d="M1066.5 1314q181.5 -185 181.5 -574q0 -263 -86 -431t-259.5 -248t-438.5 -80q-176 0 -365 21v644h-99v232h99v574q217 47 415 47q371 0 552.5 -185zM740.5 315q72.5 44 110.5 147t38 278t-39 278.5t-112.5 148t-182.5 44.5q-26 0 -56.5 -3t-52.5 -8v-322h211v-232h-211
v-371q63 -4 111 -4q111 0 183.5 44z" />
    <glyph glyph-name="Ntilde" unicode="&#xd1;" horiz-adv-x="1362" 
d="M939 1480h324v-1480h-346l-494 900v-900h-324v1480h346l494 -900v900zM758.5 1612q-40.5 11 -95.5 32q-50 19 -82 28t-67 9q-58 0 -102.5 -18.5t-90.5 -57.5v211q39 39 85 57.5t111 18.5q47 0 86.5 -11t95.5 -32q47 -19 81 -28.5t69 -9.5q58 0 102.5 18t90.5 57v-211
q-38 -39 -84.5 -56.5t-111.5 -17.5q-47 0 -87.5 11z" />
    <glyph glyph-name="Ograve" unicode="&#xd2;" horiz-adv-x="1364" 
d="M353 59.5q-139 79.5 -216 249t-77 431.5t77 431.5t216 249t329 79.5t329 -79.5t216 -249t77 -431.5t-77 -431.5t-216 -249t-329 -79.5t-329 79.5zM827 313.5q58 44.5 88.5 147t30.5 272.5q0 177 -30.5 282t-88.5 150.5t-145 45.5t-145 -44.5t-88.5 -147t-30.5 -272.5
q0 -177 30.5 -282t88.5 -150.5t145 -45.5t145 44.5zM530 1590l-208 310h355l157 -310h-304z" />
    <glyph glyph-name="Oacute" unicode="&#xd3;" horiz-adv-x="1364" 
d="M353 59.5q-139 79.5 -216 249t-77 431.5t77 431.5t216 249t329 79.5t329 -79.5t216 -249t77 -431.5t-77 -431.5t-216 -249t-329 -79.5t-329 79.5zM827 313.5q58 44.5 88.5 147t30.5 272.5q0 177 -30.5 282t-88.5 150.5t-145 45.5t-145 -44.5t-88.5 -147t-30.5 -272.5
q0 -177 30.5 -282t88.5 -150.5t145 -45.5t145 44.5zM530 1590l158 310h354l-208 -310h-304z" />
    <glyph glyph-name="Ocircumflex" unicode="&#xd4;" horiz-adv-x="1364" 
d="M353 59.5q-139 79.5 -216 249t-77 431.5t77 431.5t216 249t329 79.5t329 -79.5t216 -249t77 -431.5t-77 -431.5t-216 -249t-329 -79.5t-329 79.5zM827 313.5q58 44.5 88.5 147t30.5 272.5q0 177 -30.5 282t-88.5 150.5t-145 45.5t-145 -44.5t-88.5 -147t-30.5 -272.5
q0 -177 30.5 -282t88.5 -150.5t145 -45.5t145 44.5zM1020 1590h-231l-107 186l-107 -186h-230l192 310h290z" />
    <glyph glyph-name="Otilde" unicode="&#xd5;" horiz-adv-x="1364" 
d="M353 59.5q-139 79.5 -216 249t-77 431.5t77 431.5t216 249t329 79.5t329 -79.5t216 -249t77 -431.5t-77 -431.5t-216 -249t-329 -79.5t-329 79.5zM827 313.5q58 44.5 88.5 147t30.5 272.5q0 177 -30.5 282t-88.5 150.5t-145 45.5t-145 -44.5t-88.5 -147t-30.5 -272.5
q0 -177 30.5 -282t88.5 -150.5t145 -45.5t145 44.5zM759.5 1612q-40.5 11 -95.5 32q-50 19 -82 28t-67 9q-58 0 -102.5 -18.5t-90.5 -57.5v211q39 39 85 57.5t111 18.5q47 0 86.5 -11t95.5 -32q47 -19 81 -28.5t69 -9.5q58 0 102.5 18t90.5 57v-211q-38 -39 -84.5 -56.5
t-111.5 -17.5q-47 0 -87.5 11z" />
    <glyph glyph-name="Odieresis" unicode="&#xd6;" horiz-adv-x="1364" 
d="M353 59.5q-139 79.5 -216 249t-77 431.5t77 431.5t216 249t329 79.5t329 -79.5t216 -249t77 -431.5t-77 -431.5t-216 -249t-329 -79.5t-329 79.5zM827 313.5q58 44.5 88.5 147t30.5 272.5q0 177 -30.5 282t-88.5 150.5t-145 45.5t-145 -44.5t-88.5 -147t-30.5 -272.5
q0 -177 30.5 -282t88.5 -150.5t145 -45.5t145 44.5zM303 1629.5q-49 42.5 -49 120.5q0 79 49 121.5t139 42.5t139 -42.5t49 -121.5q0 -78 -49 -120.5t-139 -42.5t-139 42.5zM784 1629.5q-49 42.5 -49 120.5q0 79 49 121.5t139 42.5q89 0 138 -43t49 -121t-49 -120.5
t-138 -42.5q-90 0 -139 42.5z" />
    <glyph glyph-name="multiply" unicode="&#xd7;" horiz-adv-x="1000" 
d="M256 327l-189 189l244 244l-244 244l189 189l244 -244l244 244l189 -189l-244 -244l244 -244l-189 -189l-244 244z" />
    <glyph glyph-name="Oslash" unicode="&#xd8;" horiz-adv-x="1364" 
d="M1304 740q0 -262 -77 -431.5t-216 -249t-329 -79.5q-197 0 -333 82l-78 -118l-154 103l92 140q-149 193 -149 553q0 262 77 431.5t216 249t329 79.5q197 0 333 -82l78 118l154 -103l-92 -140q149 -193 149 -553zM434 530l408 623q-59 58 -160 58q-87 0 -145 -44.5
t-88.5 -147t-30.5 -272.5q0 -130 16 -217zM827 313.5q58 44.5 88.5 147t30.5 272.5q0 130 -16 217l-408 -623q59 -58 160 -58q87 0 145 44.5z" />
    <glyph glyph-name="Ugrave" unicode="&#xd9;" horiz-adv-x="1319" 
d="M344 42.5q-126 62.5 -189 197t-63 349.5v891h347v-931q0 -148 56.5 -212.5t168.5 -64.5t167 64.5t55 212.5v931h340v-891q0 -216 -61 -350t-185 -196.5t-316 -62.5q-194 0 -320 62.5zM512 1590l-208 310h355l157 -310h-304z" />
    <glyph glyph-name="Uacute" unicode="&#xda;" horiz-adv-x="1319" 
d="M344 42.5q-126 62.5 -189 197t-63 349.5v891h347v-931q0 -148 56.5 -212.5t168.5 -64.5t167 64.5t55 212.5v931h340v-891q0 -216 -61 -350t-185 -196.5t-316 -62.5q-194 0 -320 62.5zM512 1590l158 310h354l-208 -310h-304z" />
    <glyph glyph-name="Ucircumflex" unicode="&#xdb;" horiz-adv-x="1319" 
d="M344 42.5q-126 62.5 -189 197t-63 349.5v891h347v-931q0 -148 56.5 -212.5t168.5 -64.5t167 64.5t55 212.5v931h340v-891q0 -216 -61 -350t-185 -196.5t-316 -62.5q-194 0 -320 62.5zM1002 1590h-231l-107 186l-107 -186h-230l192 310h290z" />
    <glyph glyph-name="Udieresis" unicode="&#xdc;" horiz-adv-x="1319" 
d="M344 42.5q-126 62.5 -189 197t-63 349.5v891h347v-931q0 -148 56.5 -212.5t168.5 -64.5t167 64.5t55 212.5v931h340v-891q0 -216 -61 -350t-185 -196.5t-316 -62.5q-194 0 -320 62.5zM285 1629.5q-49 42.5 -49 120.5q0 79 49 121.5t139 42.5t139 -42.5t49 -121.5
q0 -78 -49 -120.5t-139 -42.5t-139 42.5zM766 1629.5q-49 42.5 -49 120.5q0 79 49 121.5t139 42.5q89 0 138 -43t49 -121t-49 -120.5t-138 -42.5q-90 0 -139 42.5z" />
    <glyph glyph-name="Yacute" unicode="&#xdd;" horiz-adv-x="1157" 
d="M1216 1480l-463 -861v-619h-347v617l-471 863h364l291 -546l292 546h334zM429 1590l158 310h354l-208 -310h-304z" />
    <glyph glyph-name="Thorn" unicode="&#xde;" horiz-adv-x="1205" 
d="M99 1480h347v-179q6 0 24 2q34 2 52 2q312 0 466.5 -132.5t154.5 -412.5q0 -268 -150.5 -405.5t-438.5 -137.5q-28 0 -72 2l-36 1v-220h-347v1480zM745 557.5q61 60.5 61 198.5q0 140 -62 204.5t-192 64.5q-65 0 -106 -9v-513q51 -6 109 -6q129 0 190 60.5z" />
    <glyph glyph-name="germandbls" unicode="&#xdf;" horiz-adv-x="1390" 
d="M1303 550q63 -75 63 -210q0 -111 -55 -192.5t-158 -125t-244 -43.5q-149 0 -285 37v270q131 -38 281 -38q82 0 116.5 21.5t34.5 63.5q0 29 -15.5 45.5t-49.5 24.5l-150 37q-252 58 -252 319q0 156 107 246t315 98v24q0 262 -235 262q-143 0 -210.5 -82t-67.5 -258v-1049
h-342v830h-148v267h149q9 167 82.5 288.5t205 186t308.5 64.5q231 0 367 -123t136 -389q0 -142 -41 -287q-57 9 -128 9q-189 0 -189 -88q0 -26 16 -41.5t50 -23.5l150 -37q126 -31 189 -106z" />
    <glyph glyph-name="agrave" unicode="&#xe0;" horiz-adv-x="986" 
d="M707.5 1071q100.5 -44 148.5 -143t48 -267v-661h-277l-25 113h-15q-68 -134 -240 -134q-91 0 -161.5 39.5t-109.5 112t-39 169.5q0 164 100 253t321 104l114 8v12q0 63 -18 98.5t-60.5 51t-117.5 15.5q-60 0 -127.5 -9.5t-129.5 -27.5v271q71 18 158 28.5t166 10.5
q164 0 264.5 -44zM572 275v194l-73 -6q-64 -4 -96.5 -35.5t-32.5 -88.5q0 -53 27 -80.5t73 -27.5q61 0 102 44zM343 1226l-247 390h344l200 -390h-297z" />
    <glyph glyph-name="aacute" unicode="&#xe1;" horiz-adv-x="986" 
d="M707.5 1071q100.5 -44 148.5 -143t48 -267v-661h-277l-25 113h-15q-68 -134 -240 -134q-91 0 -161.5 39.5t-109.5 112t-39 169.5q0 164 100 253t321 104l114 8v12q0 63 -18 98.5t-60.5 51t-117.5 15.5q-60 0 -127.5 -9.5t-129.5 -27.5v271q71 18 158 28.5t166 10.5
q164 0 264.5 -44zM572 275v194l-73 -6q-64 -4 -96.5 -35.5t-32.5 -88.5q0 -53 27 -80.5t73 -27.5q61 0 102 44zM343 1226l199 390h345l-247 -390h-297z" />
    <glyph glyph-name="acircumflex" unicode="&#xe2;" horiz-adv-x="986" 
d="M707.5 1071q100.5 -44 148.5 -143t48 -267v-661h-277l-25 113h-15q-68 -134 -240 -134q-91 0 -161.5 39.5t-109.5 112t-39 169.5q0 164 100 253t321 104l114 8v12q0 63 -18 98.5t-60.5 51t-117.5 15.5q-60 0 -127.5 -9.5t-129.5 -27.5v271q71 18 158 28.5t166 10.5
q164 0 264.5 -44zM572 275v194l-73 -6q-64 -4 -96.5 -35.5t-32.5 -88.5q0 -53 27 -80.5t73 -27.5q61 0 102 44zM826 1226h-229l-106 235l-105 -235h-229l189 390h290z" />
    <glyph glyph-name="atilde" unicode="&#xe3;" horiz-adv-x="986" 
d="M707.5 1071q100.5 -44 148.5 -143t48 -267v-661h-277l-25 113h-15q-68 -134 -240 -134q-91 0 -161.5 39.5t-109.5 112t-39 169.5q0 164 100 253t321 104l114 8v12q0 63 -18 98.5t-60.5 51t-117.5 15.5q-60 0 -127.5 -9.5t-129.5 -27.5v271q71 18 158 28.5t166 10.5
q164 0 264.5 -44zM572 275v194l-73 -6q-64 -4 -96.5 -35.5t-32.5 -88.5q0 -53 27 -80.5t73 -27.5q61 0 102 44zM564.5 1280.5q-37.5 12.5 -91.5 37.5q-46 22 -76.5 32.5t-61.5 10.5q-54 0 -97 -20.5t-88 -66.5v225q38 41 83.5 60t105.5 19q43 0 81.5 -13t88.5 -38
q46 -22 76.5 -32.5t61.5 -10.5q54 0 97.5 21t88.5 67v-225q-38 -41 -83.5 -60t-105.5 -19q-42 0 -79.5 12.5z" />
    <glyph glyph-name="adieresis" unicode="&#xe4;" horiz-adv-x="986" 
d="M707.5 1071q100.5 -44 148.5 -143t48 -267v-661h-277l-25 113h-15q-68 -134 -240 -134q-91 0 -161.5 39.5t-109.5 112t-39 169.5q0 164 100 253t321 104l114 8v12q0 63 -18 98.5t-60.5 51t-117.5 15.5q-60 0 -127.5 -9.5t-129.5 -27.5v271q71 18 158 28.5t166 10.5
q164 0 264.5 -44zM572 275v194l-73 -6q-64 -4 -96.5 -35.5t-32.5 -88.5q0 -53 27 -80.5t73 -27.5q61 0 102 44zM126 1287q-50 48 -50 132q0 83 50 131t135 48q84 0 134 -48t50 -131q0 -84 -50 -132t-134 -48q-85 0 -135 48zM587.5 1287q-49.5 48 -49.5 132q0 83 49.5 131
t134.5 48t134.5 -48t49.5 -131q0 -84 -49.5 -132t-134.5 -48t-134.5 48z" />
    <glyph glyph-name="aring" unicode="&#xe5;" horiz-adv-x="986" 
d="M707.5 1071q100.5 -44 148.5 -143t48 -267v-661h-277l-25 113h-15q-68 -134 -240 -134q-91 0 -161.5 39.5t-109.5 112t-39 169.5q0 164 100 253t321 104l114 8v12q0 63 -18 98.5t-60.5 51t-117.5 15.5q-60 0 -127.5 -9.5t-129.5 -27.5v271q71 18 158 28.5t166 10.5
q164 0 264.5 -44zM572 275v194l-73 -6q-64 -4 -96.5 -35.5t-32.5 -88.5q0 -53 27 -80.5t73 -27.5q61 0 102 44zM377 1247.5q-51 27.5 -79.5 76.5t-28.5 111t28.5 111t79.5 76.5t114 27.5q64 0 114.5 -27.5t79 -76.5t28.5 -111t-28.5 -111t-79 -76.5t-114.5 -27.5
q-63 0 -114 27.5zM553 1370.5q24 24.5 24 64.5q0 41 -24 65t-62 24t-61.5 -24t-23.5 -65q0 -40 23.5 -64.5t61.5 -24.5t62 24.5z" />
    <glyph glyph-name="ae" unicode="&#xe6;" horiz-adv-x="1481" 
d="M1444 445h-539q4 -75 28 -116.5t74 -59.5t138 -18q104 0 246 35v-271q-79 -19 -147 -27.5t-139 -8.5q-150 0 -252 36t-165 113q-59 -82 -134.5 -115.5t-171.5 -33.5q-108 0 -185.5 39t-118.5 112t-41 175q0 160 104.5 252.5t322.5 92.5h115v22q0 64 -21.5 101t-66.5 53
t-119 16q-56 0 -123.5 -9.5t-128.5 -27.5v271q156 39 308 39q118 0 199.5 -30.5t130.5 -91.5q102 122 278 122q126 0 217.5 -63.5t141 -191.5t49.5 -317v-98zM955 871.5q-24 -20.5 -37 -73t-14 -148.5h222q-1 97 -13 149.5t-35 72.5t-61 20t-62 -20.5zM546 247q32 14 61 49
q-19 78 -25 161h-77q-68 0 -101.5 -32.5t-33.5 -89.5q0 -50 28 -76t78 -26q38 0 70 14z" />
    <glyph glyph-name="ccedilla" unicode="&#xe7;" horiz-adv-x="824" 
d="M511 803q-55 -27 -81.5 -87.5t-26.5 -162.5q0 -109 24.5 -172.5t74 -90.5t127.5 -27q67 0 160 30v-278q-103 -33 -222 -36v-65q74 -15 114 -60t40 -115q0 -90 -64 -140.5t-197 -50.5q-82 0 -166 27v137q37 -13 76.5 -20t71.5 -7q49 0 71.5 15.5t22.5 51.5q0 72 -97 72
h-40v171q-352 78 -352 552q0 293 141.5 430.5t401.5 137.5q107 0 199 -19v-278q-64 12 -133 12q-90 0 -145 -27z" />
    <glyph glyph-name="egrave" unicode="&#xe8;" horiz-adv-x="977" 
d="M941 445h-547q4 -75 28 -116.5t76 -59.5t143 -18q104 0 247 35v-271q-79 -19 -147.5 -27.5t-142.5 -8.5q-196 0 -316.5 59t-177.5 185t-57 331q0 271 120 416t345 145q212 0 320.5 -145.5t108.5 -426.5v-98zM445 872q-25 -20 -38 -73t-14 -149h229q-1 97 -13 149.5
t-35.5 72.5t-63.5 20t-65 -20zM355 1226l-247 390h344l200 -390h-297z" />
    <glyph glyph-name="eacute" unicode="&#xe9;" horiz-adv-x="977" 
d="M941 445h-547q4 -75 28 -116.5t76 -59.5t143 -18q104 0 247 35v-271q-79 -19 -147.5 -27.5t-142.5 -8.5q-196 0 -316.5 59t-177.5 185t-57 331q0 271 120 416t345 145q212 0 320.5 -145.5t108.5 -426.5v-98zM445 872q-25 -20 -38 -73t-14 -149h229q-1 97 -13 149.5
t-35.5 72.5t-63.5 20t-65 -20zM355 1226l199 390h345l-247 -390h-297z" />
    <glyph glyph-name="ecircumflex" unicode="&#xea;" horiz-adv-x="977" 
d="M941 445h-547q4 -75 28 -116.5t76 -59.5t143 -18q104 0 247 35v-271q-79 -19 -147.5 -27.5t-142.5 -8.5q-196 0 -316.5 59t-177.5 185t-57 331q0 271 120 416t345 145q212 0 320.5 -145.5t108.5 -426.5v-98zM445 872q-25 -20 -38 -73t-14 -149h229q-1 97 -13 149.5
t-35.5 72.5t-63.5 20t-65 -20zM838 1226h-229l-106 235l-105 -235h-229l189 390h290z" />
    <glyph glyph-name="edieresis" unicode="&#xeb;" horiz-adv-x="977" 
d="M941 445h-547q4 -75 28 -116.5t76 -59.5t143 -18q104 0 247 35v-271q-79 -19 -147.5 -27.5t-142.5 -8.5q-196 0 -316.5 59t-177.5 185t-57 331q0 271 120 416t345 145q212 0 320.5 -145.5t108.5 -426.5v-98zM445 872q-25 -20 -38 -73t-14 -149h229q-1 97 -13 149.5
t-35.5 72.5t-63.5 20t-65 -20zM138 1287q-50 48 -50 132q0 83 50 131t135 48q84 0 134 -48t50 -131q0 -84 -50 -132t-134 -48q-85 0 -135 48zM599.5 1287q-49.5 48 -49.5 132q0 83 49.5 131t134.5 48t134.5 -48t49.5 -131q0 -84 -49.5 -132t-134.5 -48t-134.5 48z" />
    <glyph glyph-name="igrave" unicode="&#xec;" horiz-adv-x="518" 
d="M87 0v1097h344v-1097h-344zM111 1226l-247 390h344l200 -390h-297z" />
    <glyph glyph-name="iacute" unicode="&#xed;" horiz-adv-x="518" 
d="M87 0v1097h344v-1097h-344zM111 1226l199 390h345l-247 -390h-297z" />
    <glyph glyph-name="icircumflex" unicode="&#xee;" horiz-adv-x="518" 
d="M87 0v1097h344v-1097h-344zM594 1226h-229l-106 235l-105 -235h-229l189 390h290z" />
    <glyph glyph-name="idieresis" unicode="&#xef;" horiz-adv-x="518" 
d="M87 0v1097h344v-1097h-344zM-106 1287q-50 48 -50 132q0 83 50 131t135 48q84 0 134 -48t50 -131q0 -84 -50 -132t-134 -48q-85 0 -135 48zM355.5 1287q-49.5 48 -49.5 132q0 83 49.5 131t134.5 48t134.5 -48t49.5 -131q0 -84 -49.5 -132t-134.5 -48t-134.5 48z" />
    <glyph glyph-name="eth" unicode="&#xf0;" horiz-adv-x="1046" 
d="M944.5 976.5q54.5 -184.5 54.5 -363.5q0 -335 -120.5 -486.5t-355.5 -151.5q-232 0 -354 139.5t-122 427.5t120 428t330 140q44 0 96 -19q-35 79 -91 166l-342 -75l-43 181l262 57q-83 97 -193 196h369q64 -55 125 -130l252 55l42 -180l-180 -40q96 -160 150.5 -344.5z
M595 254q27 25 41 91.5t14 190.5q0 129 -14.5 199t-42 95.5t-70.5 25.5t-70.5 -25.5t-42 -94t-14.5 -195.5q0 -128 14 -195.5t41 -92t72 -24.5t72 25z" />
    <glyph glyph-name="ntilde" unicode="&#xf1;" horiz-adv-x="1075" 
d="M87 1097h284l25 -113h15q49 65 116.5 98t151.5 33q144 0 228.5 -95t84.5 -303v-717h-342v691q0 66 -25 93t-72 27q-35 0 -69 -15.5t-55 -43.5v-752h-342v1097zM614.5 1280.5q-37.5 12.5 -91.5 37.5q-46 22 -76.5 32.5t-61.5 10.5q-54 0 -97 -20.5t-88 -66.5v225
q38 41 83.5 60t105.5 19q43 0 81.5 -13t88.5 -38q46 -22 76.5 -32.5t61.5 -10.5q54 0 97.5 21t88.5 67v-225q-38 -41 -83.5 -60t-105.5 -19q-42 0 -79.5 12.5z" />
    <glyph glyph-name="ograve" unicode="&#xf2;" horiz-adv-x="1046" 
d="M169 117.5q-122 138.5 -122 424.5q0 291 122 432t354 141q231 0 354 -143t123 -427q0 -287 -122.5 -426.5t-354.5 -139.5t-354 138.5zM595 256.5q27 24.5 41 91.5t14 193q0 129 -14.5 199t-42 95.5t-70.5 25.5t-70.5 -25.5t-42 -94t-14.5 -195.5q0 -129 14 -197t41 -92.5
t72 -24.5t72 24.5zM375 1226l-247 390h344l200 -390h-297z" />
    <glyph glyph-name="oacute" unicode="&#xf3;" horiz-adv-x="1046" 
d="M169 117.5q-122 138.5 -122 424.5q0 291 122 432t354 141q231 0 354 -143t123 -427q0 -287 -122.5 -426.5t-354.5 -139.5t-354 138.5zM595 256.5q27 24.5 41 91.5t14 193q0 129 -14.5 199t-42 95.5t-70.5 25.5t-70.5 -25.5t-42 -94t-14.5 -195.5q0 -129 14 -197t41 -92.5
t72 -24.5t72 24.5zM375 1226l199 390h345l-247 -390h-297z" />
    <glyph glyph-name="ocircumflex" unicode="&#xf4;" horiz-adv-x="1046" 
d="M169 117.5q-122 138.5 -122 424.5q0 291 122 432t354 141q231 0 354 -143t123 -427q0 -287 -122.5 -426.5t-354.5 -139.5t-354 138.5zM595 256.5q27 24.5 41 91.5t14 193q0 129 -14.5 199t-42 95.5t-70.5 25.5t-70.5 -25.5t-42 -94t-14.5 -195.5q0 -129 14 -197t41 -92.5
t72 -24.5t72 24.5zM858 1226h-229l-106 235l-105 -235h-229l189 390h290z" />
    <glyph glyph-name="otilde" unicode="&#xf5;" horiz-adv-x="1046" 
d="M169 117.5q-122 138.5 -122 424.5q0 291 122 432t354 141q231 0 354 -143t123 -427q0 -287 -122.5 -426.5t-354.5 -139.5t-354 138.5zM595 256.5q27 24.5 41 91.5t14 193q0 129 -14.5 199t-42 95.5t-70.5 25.5t-70.5 -25.5t-42 -94t-14.5 -195.5q0 -129 14 -197t41 -92.5
t72 -24.5t72 24.5zM596.5 1280.5q-37.5 12.5 -91.5 37.5q-46 22 -76.5 32.5t-61.5 10.5q-54 0 -97 -20.5t-88 -66.5v225q38 41 83.5 60t105.5 19q43 0 81.5 -13t88.5 -38q46 -22 76.5 -32.5t61.5 -10.5q54 0 97.5 21t88.5 67v-225q-38 -41 -83.5 -60t-105.5 -19
q-42 0 -79.5 12.5z" />
    <glyph glyph-name="odieresis" unicode="&#xf6;" horiz-adv-x="1046" 
d="M169 117.5q-122 138.5 -122 424.5q0 291 122 432t354 141q231 0 354 -143t123 -427q0 -287 -122.5 -426.5t-354.5 -139.5t-354 138.5zM595 256.5q27 24.5 41 91.5t14 193q0 129 -14.5 199t-42 95.5t-70.5 25.5t-70.5 -25.5t-42 -94t-14.5 -195.5q0 -129 14 -197t41 -92.5
t72 -24.5t72 24.5zM158 1287q-50 48 -50 132q0 83 50 131t135 48q84 0 134 -48t50 -131q0 -84 -50 -132t-134 -48q-85 0 -135 48zM619.5 1287q-49.5 48 -49.5 132q0 83 49.5 131t134.5 48t134.5 -48t49.5 -131q0 -84 -49.5 -132t-134.5 -48t-134.5 48z" />
    <glyph glyph-name="divide" unicode="&#xf7;" horiz-adv-x="1033" 
d="M376 1012.5q-54 51.5 -54 139.5t53 139.5t142 51.5q88 0 141 -52.5t53 -138.5q0 -57 -25 -100.5t-69 -67t-100 -23.5q-87 0 -141 51.5zM87 626v268h859v-268h-859zM376 228.5q-54 51.5 -54 139.5t53 139.5t142 51.5q88 0 141 -52t53 -139q0 -57 -25 -100.5t-69 -67
t-100 -23.5q-87 0 -141 51.5z" />
    <glyph glyph-name="oslash" unicode="&#xf8;" horiz-adv-x="1046" 
d="M1000 545q0 -287 -122.5 -426.5t-354.5 -139.5q-137 0 -236 48l-55 -83l-153 103l67 101q-99 139 -99 394q0 291 122 432t354 141q130 0 226 -45l55 83l153 -103l-65 -98q108 -143 108 -407zM442.5 841.5q-31.5 -26.5 -48.5 -97t-17 -198.5q0 -32 2 -82l237 364
q-17 22 -40 31t-53 9q-49 0 -80.5 -26.5zM605 250.5q31 25.5 47.5 94.5t16.5 196q0 59 -3 105l-244 -373q18 -26 42.5 -37t58.5 -11q51 0 82 25.5z" />
    <glyph glyph-name="ugrave" unicode="&#xf9;" horiz-adv-x="1066" 
d="M166.5 74.5q-84.5 94.5 -84.5 300.5v722h342v-691q0 -122 94 -122q31 0 64.5 15.5t54.5 43.5v754h342v-1097h-284l-25 113h-15q-103 -133 -263 -133q-141 0 -225.5 94.5zM384 1226l-247 390h344l200 -390h-297z" />
    <glyph glyph-name="uacute" unicode="&#xfa;" horiz-adv-x="1066" 
d="M166.5 74.5q-84.5 94.5 -84.5 300.5v722h342v-691q0 -122 94 -122q31 0 64.5 15.5t54.5 43.5v754h342v-1097h-284l-25 113h-15q-103 -133 -263 -133q-141 0 -225.5 94.5zM384 1226l199 390h345l-247 -390h-297z" />
    <glyph glyph-name="ucircumflex" unicode="&#xfb;" horiz-adv-x="1066" 
d="M166.5 74.5q-84.5 94.5 -84.5 300.5v722h342v-691q0 -122 94 -122q31 0 64.5 15.5t54.5 43.5v754h342v-1097h-284l-25 113h-15q-103 -133 -263 -133q-141 0 -225.5 94.5zM867 1226h-229l-106 235l-105 -235h-229l189 390h290z" />
    <glyph glyph-name="udieresis" unicode="&#xfc;" horiz-adv-x="1066" 
d="M166.5 74.5q-84.5 94.5 -84.5 300.5v722h342v-691q0 -122 94 -122q31 0 64.5 15.5t54.5 43.5v754h342v-1097h-284l-25 113h-15q-103 -133 -263 -133q-141 0 -225.5 94.5zM167 1287q-50 48 -50 132q0 83 50 131t135 48q84 0 134 -48t50 -131q0 -84 -50 -132t-134 -48
q-85 0 -135 48zM628.5 1287q-49.5 48 -49.5 132q0 83 49.5 131t134.5 48t134.5 -48t49.5 -131q0 -84 -49.5 -132t-134.5 -48t-134.5 48z" />
    <glyph glyph-name="yacute" unicode="&#xfd;" horiz-adv-x="1025" 
d="M694 1097h338l-418 -1537h-334l121 440h-110l-298 1097h352l173 -767zM365 1226l199 390h345l-247 -390h-297z" />
    <glyph glyph-name="thorn" unicode="&#xfe;" horiz-adv-x="1078" 
d="M87 1616h342v-629h16q33 62 90.5 95t133.5 33q101 0 182.5 -58.5t130.5 -181.5t49 -308q0 -291 -137.5 -439t-429.5 -148q-11 0 -35 2v-422h-342v2056zM598.5 268q41.5 27 62.5 91.5t21 176.5q0 116 -19 179.5t-53.5 87.5t-89.5 24q-25 0 -49.5 -8.5t-41.5 -23.5v-549
q47 -5 63 -5q65 0 106.5 27z" />
    <glyph glyph-name="ydieresis" unicode="&#xff;" horiz-adv-x="1025" 
d="M694 1097h338l-418 -1537h-334l121 440h-110l-298 1097h352l173 -767zM148 1287q-50 48 -50 132q0 83 50 131t135 48q84 0 134 -48t50 -131q0 -84 -50 -132t-134 -48q-85 0 -135 48zM609.5 1287q-49.5 48 -49.5 132q0 83 49.5 131t134.5 48t134.5 -48t49.5 -131
q0 -84 -49.5 -132t-134.5 -48t-134.5 48z" />
    <glyph glyph-name="Amacron" unicode="&#x100;" horiz-adv-x="1276" 
d="M939 0l-90 369h-426l-89 -369h-337l382 1480h519l382 -1480h-341zM493 663h285l-143 590zM281 1636v220h715v-220h-715z" />
    <glyph glyph-name="amacron" unicode="&#x101;" horiz-adv-x="986" 
d="M707.5 1071q100.5 -44 148.5 -143t48 -267v-661h-277l-25 113h-15q-68 -134 -240 -134q-91 0 -161.5 39.5t-109.5 112t-39 169.5q0 164 100 253t321 104l114 8v12q0 63 -18 98.5t-60.5 51t-117.5 15.5q-60 0 -127.5 -9.5t-129.5 -27.5v271q71 18 158 28.5t166 10.5
q164 0 264.5 -44zM572 275v194l-73 -6q-64 -4 -96.5 -35.5t-32.5 -88.5q0 -53 27 -80.5t73 -27.5q61 0 102 44zM150 1310v220h683v-220h-683z" />
    <glyph glyph-name="Abreve" unicode="&#x102;" horiz-adv-x="1276" 
d="M939 0l-90 369h-426l-89 -369h-337l382 1480h519l382 -1480h-341zM493 663h285l-143 590zM394 1670.5q-91 78.5 -105 225.5h208q9 -72 43.5 -104t98.5 -32t98 32t43 104h207q-13 -147 -103.5 -225.5t-244.5 -78.5t-245 78.5z" />
    <glyph glyph-name="abreve" unicode="&#x103;" horiz-adv-x="986" 
d="M707.5 1071q100.5 -44 148.5 -143t48 -267v-661h-277l-25 113h-15q-68 -134 -240 -134q-91 0 -161.5 39.5t-109.5 112t-39 169.5q0 164 100 253t321 104l114 8v12q0 63 -18 98.5t-60.5 51t-117.5 15.5q-60 0 -127.5 -9.5t-129.5 -27.5v271q71 18 158 28.5t166 10.5
q164 0 264.5 -44zM572 275v194l-73 -6q-64 -4 -96.5 -35.5t-32.5 -88.5q0 -53 27 -80.5t73 -27.5q61 0 102 44zM253.5 1325.5q-88.5 87.5 -97.5 269.5h207q5 -95 37.5 -137.5t91.5 -42.5q58 0 90.5 42.5t36.5 137.5h208q-9 -182 -97.5 -269.5t-237.5 -87.5
q-150 0 -238.5 87.5z" />
    <glyph glyph-name="Aogonek" unicode="&#x104;" horiz-adv-x="1276" 
d="M1306 -284v-137q-85 -31 -177 -31q-139 0 -209 56.5t-70 158.5q0 72 36.5 129.5t120.5 107.5h-68l-90 369h-426l-89 -369h-337l382 1480h519l382 -1480q-136 -51 -186 -103.5t-50 -114.5q0 -94 129 -94q63 0 133 28zM493 663h285l-143 590z" />
    <glyph glyph-name="aogonek" unicode="&#x105;" horiz-adv-x="986" 
d="M918 -283v-137q-38 -15 -77 -23.5t-88 -8.5q-126 0 -192.5 57t-66.5 158q0 72 33.5 129.5t112.5 107.5h-13l-25 113h-15q-68 -134 -240 -134q-91 0 -161.5 39.5t-109.5 112t-39 169.5q0 164 100 253t321 104l114 8v12q0 63 -18 98.5t-60.5 51t-117.5 15.5
q-60 0 -127.5 -9.5t-129.5 -27.5v271q71 18 158 28.5t166 10.5q164 0 264.5 -44t148.5 -143t48 -267v-661q-123 -51 -169.5 -103.5t-46.5 -114.5q0 -45 28 -69.5t81 -24.5t121 29zM572 275v194l-73 -6q-64 -4 -96.5 -35.5t-32.5 -88.5q0 -53 27 -80.5t73 -27.5q61 0 102 44z
" />
    <glyph glyph-name="Cacute" unicode="&#x106;" horiz-adv-x="1078" 
d="M236.5 160.5q-176.5 180.5 -176.5 575.5q0 385 184.5 574.5t527.5 189.5q146 0 274 -32v-292q-125 30 -244 30q-129 0 -212 -44.5t-125 -147t-42 -274.5q0 -177 41 -279t123 -144.5t214 -42.5q102 0 245 47v-292q-57 -22 -137 -35.5t-158 -13.5q-338 0 -514.5 180.5z
M522 1590l158 310h354l-208 -310h-304z" />
    <glyph glyph-name="cacute" unicode="&#x107;" horiz-adv-x="824" 
d="M47 547q0 293 141.5 430.5t401.5 137.5q107 0 199 -19v-278q-64 12 -133 12q-90 0 -145 -27t-81.5 -87.5t-26.5 -162.5q0 -109 24.5 -172.5t74 -90.5t127.5 -27q67 0 160 30v-278q-54 -18 -116 -27t-121 -9q-505 0 -505 568zM306 1226l199 390h345l-247 -390h-297z" />
    <glyph glyph-name="Ccircumflex" unicode="&#x108;" horiz-adv-x="1078" 
d="M236.5 160.5q-176.5 180.5 -176.5 575.5q0 385 184.5 574.5t527.5 189.5q146 0 274 -32v-292q-125 30 -244 30q-129 0 -212 -44.5t-125 -147t-42 -274.5q0 -177 41 -279t123 -144.5t214 -42.5q102 0 245 47v-292q-57 -22 -137 -35.5t-158 -13.5q-338 0 -514.5 180.5z
M1012 1590h-231l-107 186l-107 -186h-230l192 310h290z" />
    <glyph glyph-name="ccircumflex" unicode="&#x109;" horiz-adv-x="824" 
d="M47 547q0 293 141.5 430.5t401.5 137.5q107 0 199 -19v-278q-64 12 -133 12q-90 0 -145 -27t-81.5 -87.5t-26.5 -162.5q0 -109 24.5 -172.5t74 -90.5t127.5 -27q67 0 160 30v-278q-54 -18 -116 -27t-121 -9q-505 0 -505 568zM789 1226h-229l-106 235l-105 -235h-229
l189 390h290z" />
    <glyph glyph-name="Cdotaccent" unicode="&#x10a;" horiz-adv-x="1078" 
d="M236.5 160.5q-176.5 180.5 -176.5 575.5q0 385 184.5 574.5t527.5 189.5q146 0 274 -32v-292q-125 30 -244 30q-129 0 -212 -44.5t-125 -147t-42 -274.5q0 -177 41 -279t123 -144.5t214 -42.5q102 0 245 47v-292q-57 -22 -137 -35.5t-158 -13.5q-338 0 -514.5 180.5z
M518 1628q-56 41 -56 122t56 122.5t156 41.5q101 0 156.5 -41t55.5 -123q0 -81 -55.5 -122t-156.5 -41q-100 0 -156 41z" />
    <glyph glyph-name="cdotaccent" unicode="&#x10b;" horiz-adv-x="824" 
d="M47 547q0 293 141.5 430.5t401.5 137.5q107 0 199 -19v-278q-64 12 -133 12q-90 0 -145 -27t-81.5 -87.5t-26.5 -162.5q0 -109 24.5 -172.5t74 -90.5t127.5 -27q67 0 160 30v-278q-54 -18 -116 -27t-121 -9q-505 0 -505 568zM296 1279.5q-52 48.5 -52 139.5q0 90 52 139
t158 49t158.5 -49t52.5 -139q0 -91 -52.5 -139.5t-158.5 -48.5t-158 48.5z" />
    <glyph glyph-name="Ccaron" unicode="&#x10c;" horiz-adv-x="1078" 
d="M236.5 160.5q-176.5 180.5 -176.5 575.5q0 385 184.5 574.5t527.5 189.5q146 0 274 -32v-292q-125 30 -244 30q-129 0 -212 -44.5t-125 -147t-42 -274.5q0 -177 41 -279t123 -144.5t214 -42.5q102 0 245 47v-292q-57 -22 -137 -35.5t-158 -13.5q-338 0 -514.5 180.5z
M781 1900h231l-193 -310h-290l-192 310h230l107 -186z" />
    <glyph glyph-name="ccaron" unicode="&#x10d;" horiz-adv-x="824" 
d="M47 547q0 293 141.5 430.5t401.5 137.5q107 0 199 -19v-278q-64 12 -133 12q-90 0 -145 -27t-81.5 -87.5t-26.5 -162.5q0 -109 24.5 -172.5t74 -90.5t127.5 -27q67 0 160 30v-278q-54 -18 -116 -27t-121 -9q-505 0 -505 568zM560 1616h229l-190 -390h-290l-189 390h229
l105 -235z" />
    <glyph glyph-name="Dcaron" unicode="&#x10e;" horiz-adv-x="1308" 
d="M99 2v1450q217 47 415 47q371 0 552.5 -185t181.5 -574q0 -263 -86 -431t-259.5 -248t-438.5 -80q-176 0 -365 21zM740.5 315q72.5 44 110.5 147t38 278t-39 278.5t-112.5 148t-182.5 44.5q-26 0 -56.5 -3t-52.5 -8v-925q63 -4 111 -4q111 0 183.5 44zM711 1900h231
l-193 -310h-290l-192 310h230l107 -186z" />
    <glyph glyph-name="dcaron" unicode="&#x10f;" horiz-adv-x="1078" 
d="M239 37.5q-87 58.5 -139.5 181.5t-52.5 308q0 291 137.5 438.5t428.5 147.5q24 0 36 -1v504h342v-1616h-290l-23 118h-15q-32 -66 -90.5 -102.5t-140.5 -36.5q-106 0 -193 58.5zM604 275.5q27 10.5 45 29.5v542q-40 6 -63 6q-65 0 -106.5 -27t-62.5 -91.5t-21 -177.5
q0 -115 18.5 -179.5t51.5 -88.5t82 -24q29 0 56 10.5zM1066.5 1391.5q6.5 101.5 6.5 224.5h231q0 -123 -19 -237t-53 -199h-189q17 110 23.5 211.5z" />
    <glyph glyph-name="Dcroat" unicode="&#x110;" horiz-adv-x="1308" 
d="M1066.5 1314q181.5 -185 181.5 -574q0 -263 -86 -431t-259.5 -248t-438.5 -80q-176 0 -365 21v644h-99v232h99v574q217 47 415 47q371 0 552.5 -185zM740.5 315q72.5 44 110.5 147t38 278t-39 278.5t-112.5 148t-182.5 44.5q-26 0 -56.5 -3t-52.5 -8v-322h211v-232h-211
v-371q63 -4 111 -4q111 0 183.5 44z" />
    <glyph glyph-name="dcroat" unicode="&#x111;" horiz-adv-x="1078" 
d="M1077 1235h-86v-1235h-290l-23 118h-15q-32 -66 -90.5 -102.5t-140.5 -36.5q-106 0 -193 58.5t-139.5 181.5t-52.5 308q0 291 137.5 438.5t428.5 147.5q24 0 36 -1v123h-240v232h240v149h342v-149h86v-232zM649 847q-40 6 -63 6q-65 0 -106.5 -27t-62.5 -91.5t-21 -177.5
q0 -115 18.5 -179.5t51.5 -88.5t82 -24q29 0 56 10.5t45 29.5v542z" />
    <glyph glyph-name="Emacron" unicode="&#x112;" horiz-adv-x="1103" 
d="M441 297h607v-297h-949v1480h939v-297h-597v-279h495v-297h-495v-310zM233 1636v220h715v-220h-715z" />
    <glyph glyph-name="emacron" unicode="&#x113;" horiz-adv-x="977" 
d="M941 445h-547q4 -75 28 -116.5t76 -59.5t143 -18q104 0 247 35v-271q-79 -19 -147.5 -27.5t-142.5 -8.5q-196 0 -316.5 59t-177.5 185t-57 331q0 271 120 416t345 145q212 0 320.5 -145.5t108.5 -426.5v-98zM445 872q-25 -20 -38 -73t-14 -149h229q-1 97 -13 149.5
t-35.5 72.5t-63.5 20t-65 -20zM162 1310v220h683v-220h-683z" />
    <glyph glyph-name="Ebreve" unicode="&#x114;" horiz-adv-x="1103" 
d="M441 297h607v-297h-949v1480h939v-297h-597v-279h495v-297h-495v-310zM346 1670.5q-91 78.5 -105 225.5h208q9 -72 43.5 -104t98.5 -32t98 32t43 104h207q-13 -147 -103.5 -225.5t-244.5 -78.5t-245 78.5z" />
    <glyph glyph-name="ebreve" unicode="&#x115;" horiz-adv-x="977" 
d="M941 445h-547q4 -75 28 -116.5t76 -59.5t143 -18q104 0 247 35v-271q-79 -19 -147.5 -27.5t-142.5 -8.5q-196 0 -316.5 59t-177.5 185t-57 331q0 271 120 416t345 145q212 0 320.5 -145.5t108.5 -426.5v-98zM445 872q-25 -20 -38 -73t-14 -149h229q-1 97 -13 149.5
t-35.5 72.5t-63.5 20t-65 -20zM265.5 1325.5q-88.5 87.5 -97.5 269.5h207q5 -95 37.5 -137.5t91.5 -42.5q58 0 90.5 42.5t36.5 137.5h208q-9 -182 -97.5 -269.5t-237.5 -87.5q-150 0 -238.5 87.5z" />
    <glyph glyph-name="Edotaccent" unicode="&#x116;" horiz-adv-x="1103" 
d="M441 297h607v-297h-949v1480h939v-297h-597v-279h495v-297h-495v-310zM434 1628q-56 41 -56 122t56 122.5t156 41.5q101 0 156.5 -41t55.5 -123q0 -81 -55.5 -122t-156.5 -41q-100 0 -156 41z" />
    <glyph glyph-name="edotaccent" unicode="&#x117;" horiz-adv-x="977" 
d="M941 445h-547q4 -75 28 -116.5t76 -59.5t143 -18q104 0 247 35v-271q-79 -19 -147.5 -27.5t-142.5 -8.5q-196 0 -316.5 59t-177.5 185t-57 331q0 271 120 416t345 145q212 0 320.5 -145.5t108.5 -426.5v-98zM445 872q-25 -20 -38 -73t-14 -149h229q-1 97 -13 149.5
t-35.5 72.5t-63.5 20t-65 -20zM345 1279.5q-52 48.5 -52 139.5q0 90 52 139t158 49t158.5 -49t52.5 -139q0 -91 -52.5 -139.5t-158.5 -48.5t-158 48.5z" />
    <glyph glyph-name="Eogonek" unicode="&#x118;" horiz-adv-x="1103" 
d="M782 -103.5q-50 -52.5 -50 -114.5q0 -94 129 -94q63 0 133 28v-137q-85 -31 -177 -31q-139 0 -209 56.5t-70 158.5q0 72 36.5 129.5t120.5 107.5h-596v1480h939v-297h-597v-279h495v-297h-495v-310h607v-297h-80q-136 -51 -186 -103.5z" />
    <glyph glyph-name="eogonek" unicode="&#x119;" horiz-adv-x="977" 
d="M941 445h-547q4 -75 28 -116.5t76 -59.5t143 -18q104 0 247 35v-271q-132 -54 -181 -111.5t-49 -121.5q0 -45 28 -69.5t81 -24.5t121 29v-137q-38 -15 -77 -23.5t-88 -8.5q-126 0 -192.5 57t-66.5 158q0 66 27 118.5t89 97.5q-189 3 -306 63t-172 185t-55 327
q0 271 120 416t345 145q212 0 320.5 -145.5t108.5 -426.5v-98zM445 863.5q-25 -20.5 -38 -73.5t-14 -149h229q-1 97 -13 149.5t-35.5 73t-63.5 20.5t-65 -20.5z" />
    <glyph glyph-name="Ecaron" unicode="&#x11a;" horiz-adv-x="1103" 
d="M441 297h607v-297h-949v1480h939v-297h-597v-279h495v-297h-495v-310zM697 1900h231l-193 -310h-290l-192 310h230l107 -186z" />
    <glyph glyph-name="ecaron" unicode="&#x11b;" horiz-adv-x="977" 
d="M941 445h-547q4 -75 28 -116.5t76 -59.5t143 -18q104 0 247 35v-271q-79 -19 -147.5 -27.5t-142.5 -8.5q-196 0 -316.5 59t-177.5 185t-57 331q0 271 120 416t345 145q212 0 320.5 -145.5t108.5 -426.5v-98zM445 872q-25 -20 -38 -73t-14 -149h229q-1 97 -13 149.5
t-35.5 72.5t-63.5 20t-65 -20zM609 1616h229l-190 -390h-290l-189 390h229l105 -235z" />
    <glyph glyph-name="Gcircumflex" unicode="&#x11c;" horiz-adv-x="1256" 
d="M1166 720v-709q-187 -30 -332 -30q-388 0 -581 184.5t-193 574.5q0 385 195.5 572.5t571.5 187.5q87 0 159.5 -9t144.5 -28v-292q-73 18 -136 26.5t-129 8.5q-158 0 -254.5 -44.5t-142.5 -147.5t-46 -279q0 -168 42.5 -270t124.5 -147t206 -45q33 0 49 1v446h321z
M1070 1590h-231l-107 186l-107 -186h-230l192 310h290z" />
    <glyph glyph-name="gcircumflex" unicode="&#x11d;" horiz-adv-x="1078" 
d="M276 -451q-83 9 -152 26v272q141 -38 277 -38q127 0 187.5 55.5t60.5 186.5v66h-17q-33 -61 -90 -94.5t-133 -33.5q-96 0 -178 57t-133 178.5t-51 303.5q0 290 137.5 438t429.5 149q96 0 196.5 -16t180.5 -46v-942q0 -299 -138 -435t-421 -136q-73 0 -156 9zM607.5 280.5
q24.5 8.5 41.5 23.5v544q-40 6 -66 6q-62 0 -103 -26.5t-62.5 -91.5t-21.5 -177q0 -114 18 -176.5t53 -86.5t91 -24q25 0 49.5 8.5zM894 1226h-229l-106 235l-105 -235h-229l189 390h290z" />
    <glyph glyph-name="Gbreve" unicode="&#x11e;" horiz-adv-x="1256" 
d="M1166 720v-709q-187 -30 -332 -30q-388 0 -581 184.5t-193 574.5q0 385 195.5 572.5t571.5 187.5q87 0 159.5 -9t144.5 -28v-292q-73 18 -136 26.5t-129 8.5q-158 0 -254.5 -44.5t-142.5 -147.5t-46 -279q0 -168 42.5 -270t124.5 -147t206 -45q33 0 49 1v446h321z
M488 1670.5q-91 78.5 -105 225.5h208q9 -72 43.5 -104t98.5 -32t98 32t43 104h207q-13 -147 -103.5 -225.5t-244.5 -78.5t-245 78.5z" />
    <glyph glyph-name="gbreve" unicode="&#x11f;" horiz-adv-x="1078" 
d="M276 -451q-83 9 -152 26v272q141 -38 277 -38q127 0 187.5 55.5t60.5 186.5v66h-17q-33 -61 -90 -94.5t-133 -33.5q-96 0 -178 57t-133 178.5t-51 303.5q0 290 137.5 438t429.5 149q96 0 196.5 -16t180.5 -46v-942q0 -299 -138 -435t-421 -136q-73 0 -156 9zM607.5 280.5
q24.5 8.5 41.5 23.5v544q-40 6 -66 6q-62 0 -103 -26.5t-62.5 -91.5t-21.5 -177q0 -114 18 -176.5t53 -86.5t91 -24q25 0 49.5 8.5zM321.5 1325.5q-88.5 87.5 -97.5 269.5h207q5 -95 37.5 -137.5t91.5 -42.5q58 0 90.5 42.5t36.5 137.5h208q-9 -182 -97.5 -269.5
t-237.5 -87.5q-150 0 -238.5 87.5z" />
    <glyph glyph-name="Gdotaccent" unicode="&#x120;" horiz-adv-x="1256" 
d="M1166 720v-709q-187 -30 -332 -30q-388 0 -581 184.5t-193 574.5q0 385 195.5 572.5t571.5 187.5q87 0 159.5 -9t144.5 -28v-292q-73 18 -136 26.5t-129 8.5q-158 0 -254.5 -44.5t-142.5 -147.5t-46 -279q0 -168 42.5 -270t124.5 -147t206 -45q33 0 49 1v446h321z
M576 1628q-56 41 -56 122t56 122.5t156 41.5q101 0 156.5 -41t55.5 -123q0 -81 -55.5 -122t-156.5 -41q-100 0 -156 41z" />
    <glyph glyph-name="gdotaccent" unicode="&#x121;" horiz-adv-x="1078" 
d="M276 -451q-83 9 -152 26v272q141 -38 277 -38q127 0 187.5 55.5t60.5 186.5v66h-17q-33 -61 -90 -94.5t-133 -33.5q-96 0 -178 57t-133 178.5t-51 303.5q0 290 137.5 438t429.5 149q96 0 196.5 -16t180.5 -46v-942q0 -299 -138 -435t-421 -136q-73 0 -156 9zM607.5 280.5
q24.5 8.5 41.5 23.5v544q-40 6 -66 6q-62 0 -103 -26.5t-62.5 -91.5t-21.5 -177q0 -114 18 -176.5t53 -86.5t91 -24q25 0 49.5 8.5zM401 1279.5q-52 48.5 -52 139.5q0 90 52 139t158 49t158.5 -49t52.5 -139q0 -91 -52.5 -139.5t-158.5 -48.5t-158 48.5z" />
    <glyph glyph-name="Gcommaaccent" unicode="&#x122;" horiz-adv-x="1256" 
d="M1166 720v-709q-187 -30 -332 -30q-388 0 -581 184.5t-193 574.5q0 385 195.5 572.5t571.5 187.5q87 0 159.5 -9t144.5 -28v-292q-73 18 -136 26.5t-129 8.5q-158 0 -254.5 -44.5t-142.5 -147.5t-46 -279q0 -168 42.5 -270t124.5 -147t206 -45q33 0 49 1v446h321z
M920 -277q0 -55 -23.5 -119t-58.5 -111h-216q47 89 59 148q-69 9 -102.5 40.5t-33.5 81.5q0 58 46 90t141 32q188 0 188 -162z" />
    <glyph glyph-name="gcommaaccent" unicode="&#x123;" horiz-adv-x="1078" 
d="M276 -451q-83 9 -152 26v272q141 -38 277 -38q127 0 187.5 55.5t60.5 186.5v66h-17q-33 -61 -90 -94.5t-133 -33.5q-96 0 -178 57t-133 178.5t-51 303.5q0 290 137.5 438t429.5 149q96 0 196.5 -16t180.5 -46v-942q0 -299 -138 -435t-421 -136q-73 0 -156 9zM607.5 280.5
q24.5 8.5 41.5 23.5v544q-40 6 -66 6q-62 0 -103 -26.5t-62.5 -91.5t-21.5 -177q0 -114 18 -176.5t53 -86.5t91 -24q25 0 49.5 8.5zM713.5 1436.5q33.5 -31.5 33.5 -81.5q0 -59 -46 -91t-141 -32q-188 0 -188 162q0 56 23 120t58 110h217q-47 -89 -59 -148
q69 -8 102.5 -39.5z" />
    <glyph glyph-name="Hcircumflex" unicode="&#x124;" horiz-adv-x="1346" 
d="M99 0v1480h347v-565h454v565h347v-1480h-347v597h-454v-597h-347zM1012 1590h-231l-107 186l-107 -186h-230l192 310h290z" />
    <glyph glyph-name="hcircumflex" unicode="&#x125;" horiz-adv-x="1075" 
d="M87 1616h342v-632h16q41 64 102.5 97.5t150.5 33.5q131 0 212.5 -95.5t81.5 -302.5v-717h-342v686q0 68 -25 96.5t-72 28.5q-34 0 -68.5 -15.5t-55.5 -43.5v-752h-342v1616zM879 1686h-231l-107 186l-107 -186h-230l192 310h290z" />
    <glyph glyph-name="Hbar" unicode="&#x126;" horiz-adv-x="1346" 
d="M1347 1299v-215h-100v-1084h-347v597h-454v-597h-347v1084h-99v215h99v181h347v-181h454v181h347v-181h100zM900 915v169h-454v-169h454z" />
    <glyph glyph-name="hbar" unicode="&#x127;" horiz-adv-x="1075" 
d="M910.5 1019.5q81.5 -95.5 81.5 -302.5v-717h-342v686q0 68 -25 96.5t-72 28.5q-34 0 -68.5 -15.5t-55.5 -43.5v-752h-342v1235h-86v232h86v149h342v-149h240v-232h-240v-251h16q41 64 102.5 97.5t150.5 33.5q131 0 212.5 -95.5z" />
    <glyph glyph-name="Itilde" unicode="&#x128;" horiz-adv-x="544" 
d="M99 0v1480h347v-1480h-347zM349.5 1612q-40.5 11 -95.5 32q-50 19 -82 28t-67 9q-58 0 -102.5 -18.5t-90.5 -57.5v211q39 39 85 57.5t111 18.5q47 0 86.5 -11t95.5 -32q47 -19 81 -28.5t69 -9.5q58 0 102.5 18t90.5 57v-211q-38 -39 -84.5 -56.5t-111.5 -17.5
q-47 0 -87.5 11z" />
    <glyph glyph-name="itilde" unicode="&#x129;" horiz-adv-x="518" 
d="M87 0v1097h344v-1097h-344zM332.5 1280.5q-37.5 12.5 -91.5 37.5q-46 22 -76.5 32.5t-61.5 10.5q-54 0 -97 -20.5t-88 -66.5v225q38 41 83.5 60t105.5 19q43 0 81.5 -13t88.5 -38q46 -22 76.5 -32.5t61.5 -10.5q54 0 97.5 21t88.5 67v-225q-38 -41 -83.5 -60t-105.5 -19
q-42 0 -79.5 12.5z" />
    <glyph glyph-name="Imacron" unicode="&#x12a;" horiz-adv-x="544" 
d="M99 0v1480h347v-1480h-347zM-85 1636v220h715v-220h-715z" />
    <glyph glyph-name="imacron" unicode="&#x12b;" horiz-adv-x="518" 
d="M87 0v1097h344v-1097h-344zM-82 1310v220h683v-220h-683z" />
    <glyph glyph-name="Ibreve" unicode="&#x12c;" horiz-adv-x="544" 
d="M99 0v1480h347v-1480h-347zM28 1670.5q-91 78.5 -105 225.5h208q9 -72 43.5 -104t98.5 -32t98 32t43 104h207q-13 -147 -103.5 -225.5t-244.5 -78.5t-245 78.5z" />
    <glyph glyph-name="ibreve" unicode="&#x12d;" horiz-adv-x="518" 
d="M87 0v1097h344v-1097h-344zM21.5 1325.5q-88.5 87.5 -97.5 269.5h207q5 -95 37.5 -137.5t91.5 -42.5q58 0 90.5 42.5t36.5 137.5h208q-9 -182 -97.5 -269.5t-237.5 -87.5q-150 0 -238.5 87.5z" />
    <glyph glyph-name="Iogonek" unicode="&#x12e;" horiz-adv-x="544" 
d="M472 -284v-137q-85 -31 -177 -31q-139 0 -209 56.5t-70 158.5q0 72 36.5 129.5t120.5 107.5h-74v1480h347v-1480q-136 -51 -186 -103.5t-50 -114.5q0 -94 129 -94q63 0 133 28z" />
    <glyph glyph-name="iogonek" unicode="&#x12f;" horiz-adv-x="518" 
d="M101 1279.5q-52 48.5 -52 139.5q0 90 52 139t158 49t158.5 -49t52.5 -139q0 -91 -52.5 -139.5t-158.5 -48.5t-158 48.5zM243 -287.5q28 -24.5 81 -24.5t121 29v-137q-38 -15 -77 -23.5t-88 -8.5q-126 0 -192.5 57t-66.5 158q0 72 33.5 129.5t112.5 107.5h-80v1097h344
v-1097q-123 -51 -169.5 -103.5t-46.5 -114.5q0 -45 28 -69.5z" />
    <glyph glyph-name="Idotaccent" unicode="&#x130;" horiz-adv-x="544" 
d="M99 0v1480h347v-1480h-347zM116 1628q-56 41 -56 122t56 122.5t156 41.5q101 0 156.5 -41t55.5 -123q0 -81 -55.5 -122t-156.5 -41q-100 0 -156 41z" />
    <glyph glyph-name="dotlessi" unicode="&#x131;" horiz-adv-x="518" 
d="M87 0v1097h344v-1097h-344z" />
    <glyph glyph-name="Jcircumflex" unicode="&#x134;" horiz-adv-x="544" 
d="M-44 -199q81 119 112 229.5t31 272.5v1177h347v-1167q-1 -191 -61 -347.5t-201 -314.5zM610 1590h-231l-107 186l-107 -186h-230l192 310h290z" />
    <glyph glyph-name="jcircumflex" unicode="&#x135;" horiz-adv-x="518" 
d="M-55 -324q80 118 111 229t31 273v919h344v-904q0 -195 -59 -352t-200 -315zM594 1226h-229l-106 235l-105 -235h-229l189 390h290z" />
    <glyph glyph-name="Kcommaaccent" unicode="&#x136;" horiz-adv-x="1211" 
d="M905 0l-358 597h-101v-597h-347v1480h347v-566h104l328 566h361l-416 -716l453 -764h-371zM822 -277q0 -55 -23.5 -119t-58.5 -111h-216q47 89 59 148q-69 9 -102.5 40.5t-33.5 81.5q0 58 46 90t141 32q188 0 188 -162z" />
    <glyph glyph-name="kcommaaccent" unicode="&#x137;" horiz-adv-x="1054" 
d="M729 0l-243 430h-57v-430h-342v1616h342v-918h54l219 399h358l-287 -526l323 -571h-367zM757 -277q0 -55 -23.5 -119t-58.5 -111h-216q47 89 59 148q-69 9 -102.5 40.5t-33.5 81.5q0 58 46 90t141 32q188 0 188 -162z" />
    <glyph glyph-name="kgreenlandic" unicode="&#x138;" horiz-adv-x="1054" 
d="M729 0l-243 430h-57v-430h-342v1097h342v-399h54l219 399h358l-287 -526l323 -571h-367z" />
    <glyph glyph-name="Lacute" unicode="&#x139;" horiz-adv-x="1016" 
d="M99 0v1480h347v-1173h566v-307h-913zM127 1590l158 310h354l-208 -310h-304z" />
    <glyph glyph-name="lacute" unicode="&#x13a;" horiz-adv-x="516" 
d="M87 0v1616h342v-1616h-342zM107 1686l158 310h354l-208 -310h-304z" />
    <glyph glyph-name="Lcommaaccent" unicode="&#x13b;" horiz-adv-x="1016" 
d="M99 0v1480h347v-1173h566v-307h-913zM743 -277q0 -55 -23.5 -119t-58.5 -111h-216q47 89 59 148q-69 9 -102.5 40.5t-33.5 81.5q0 58 46 90t141 32q188 0 188 -162z" />
    <glyph glyph-name="lcommaaccent" unicode="&#x13c;" horiz-adv-x="516" 
d="M87 0v1616h342v-1616h-342zM447 -277q0 -55 -23.5 -119t-58.5 -111h-216q47 89 59 148q-69 9 -102.5 40.5t-33.5 81.5q0 58 46 90t141 32q188 0 188 -162z" />
    <glyph glyph-name="Lcaron" unicode="&#x13d;" horiz-adv-x="1016" 
d="M99 0v1480h347v-1173h566v-307h-913zM655.5 1358q6.5 106 6.5 258h231q0 -298 -72 -476h-189q17 112 23.5 218z" />
    <glyph glyph-name="lcaron" unicode="&#x13e;" horiz-adv-x="516" 
d="M87 0v1616h342v-1616h-342zM505.5 1391.5q6.5 101.5 6.5 224.5h231q0 -123 -19 -237t-53 -199h-189q17 110 23.5 211.5z" />
    <glyph glyph-name="Ldot" unicode="&#x13f;" horiz-adv-x="1016" 
d="M99 0v1480h347v-1173h566v-307h-913zM616 738q-52 49 -52 139t52 139t158 49t158 -49t52 -139t-52 -139t-158 -49t-158 49z" />
    <glyph glyph-name="ldot" unicode="&#x140;" horiz-adv-x="882" 
d="M87 0v1616h342v-1616h-342zM540 654.5q-52 48.5 -52 139.5q0 90 52 139t158 49t158 -49t52 -139q0 -91 -52 -139.5t-158 -48.5t-158 48.5z" />
    <glyph glyph-name="Lslash" unicode="&#x141;" horiz-adv-x="1049" 
d="M479 307h566v-307h-913v616l-60 -32l-107 210l167 88v598h347v-415l232 122l107 -211l-339 -178v-491z" />
    <glyph glyph-name="lslash" unicode="&#x142;" horiz-adv-x="602" 
d="M641 765l-169 -87v-678h-342v501l-67 -35l-100 197l167 86v867h342v-690l69 36z" />
    <glyph glyph-name="Nacute" unicode="&#x143;" horiz-adv-x="1362" 
d="M939 1480h324v-1480h-346l-494 900v-900h-324v1480h346l494 -900v900zM529 1590l158 310h354l-208 -310h-304z" />
    <glyph glyph-name="nacute" unicode="&#x144;" horiz-adv-x="1075" 
d="M87 1097h284l25 -113h15q49 65 116.5 98t151.5 33q144 0 228.5 -95t84.5 -303v-717h-342v691q0 66 -25 93t-72 27q-35 0 -69 -15.5t-55 -43.5v-752h-342v1097zM393 1226l199 390h345l-247 -390h-297z" />
    <glyph glyph-name="Ncommaaccent" unicode="&#x145;" horiz-adv-x="1362" 
d="M939 1480h324v-1480h-346l-494 900v-900h-324v1480h346l494 -900v900zM869 -277q0 -55 -23.5 -119t-58.5 -111h-216q47 89 59 148q-69 9 -102.5 40.5t-33.5 81.5q0 58 46 90t141 32q188 0 188 -162z" />
    <glyph glyph-name="ncommaaccent" unicode="&#x146;" horiz-adv-x="1075" 
d="M87 1097h284l25 -113h15q49 65 116.5 98t151.5 33q144 0 228.5 -95t84.5 -303v-717h-342v691q0 66 -25 93t-72 27q-35 0 -69 -15.5t-55 -43.5v-752h-342v1097zM729 -277q0 -55 -23.5 -119t-58.5 -111h-216q47 89 59 148q-69 9 -102.5 40.5t-33.5 81.5q0 58 46 90t141 32
q188 0 188 -162z" />
    <glyph glyph-name="Ncaron" unicode="&#x147;" horiz-adv-x="1362" 
d="M939 1480h324v-1480h-346l-494 900v-900h-324v1480h346l494 -900v900zM788 1900h231l-193 -310h-290l-192 310h230l107 -186z" />
    <glyph glyph-name="ncaron" unicode="&#x148;" horiz-adv-x="1075" 
d="M87 1097h284l25 -113h15q49 65 116.5 98t151.5 33q144 0 228.5 -95t84.5 -303v-717h-342v691q0 66 -25 93t-72 27q-35 0 -69 -15.5t-55 -43.5v-752h-342v1097zM647 1616h229l-190 -390h-290l-189 390h229l105 -235z" />
    <glyph glyph-name="napostrophe" unicode="&#x149;" horiz-adv-x="1075" 
d="M87 1097h284l25 -113h15q49 65 116.5 98t151.5 33q144 0 228.5 -95t84.5 -303v-717h-342v691q0 66 -25 93t-72 27q-35 0 -69 -15.5t-55 -43.5v-752h-342v1097zM386 1462q0 -55 -23.5 -119t-58.5 -111h-216q25 49 38.5 83t19.5 65q-69 9 -102.5 40.5t-33.5 81.5
q0 58 46.5 90t141.5 32q188 0 188 -162z" />
    <glyph glyph-name="Eng" unicode="&#x14a;" horiz-adv-x="1362" 
d="M1263 1480v-1252q0 -147 -25 -264.5t-81 -223.5t-152 -214l-228 150q61 81 95.5 154.5t50.5 157.5l-500 912v-900h-324v1480h346l494 -900v900h324z" />
    <glyph glyph-name="eng" unicode="&#x14b;" horiz-adv-x="1075" 
d="M508 -324q81 118 111.5 229t30.5 273v517q0 68 -25 96.5t-72 28.5q-34 0 -68.5 -15.5t-55.5 -44.5v-760h-342v1097h284l25 -113h15q105 131 268 131q144 0 228.5 -94.5t84.5 -303.5v-529q-1 -193 -58.5 -349t-197.5 -313z" />
    <glyph glyph-name="Omacron" unicode="&#x14c;" horiz-adv-x="1364" 
d="M353 59.5q-139 79.5 -216 249t-77 431.5t77 431.5t216 249t329 79.5t329 -79.5t216 -249t77 -431.5t-77 -431.5t-216 -249t-329 -79.5t-329 79.5zM827 313.5q58 44.5 88.5 147t30.5 272.5q0 177 -30.5 282t-88.5 150.5t-145 45.5t-145 -44.5t-88.5 -147t-30.5 -272.5
q0 -177 30.5 -282t88.5 -150.5t145 -45.5t145 44.5zM325 1636v220h715v-220h-715z" />
    <glyph glyph-name="omacron" unicode="&#x14d;" horiz-adv-x="1046" 
d="M169 117.5q-122 138.5 -122 424.5q0 291 122 432t354 141q231 0 354 -143t123 -427q0 -287 -122.5 -426.5t-354.5 -139.5t-354 138.5zM595 256.5q27 24.5 41 91.5t14 193q0 129 -14.5 199t-42 95.5t-70.5 25.5t-70.5 -25.5t-42 -94t-14.5 -195.5q0 -129 14 -197t41 -92.5
t72 -24.5t72 24.5zM182 1310v220h683v-220h-683z" />
    <glyph glyph-name="Obreve" unicode="&#x14e;" horiz-adv-x="1364" 
d="M353 59.5q-139 79.5 -216 249t-77 431.5t77 431.5t216 249t329 79.5t329 -79.5t216 -249t77 -431.5t-77 -431.5t-216 -249t-329 -79.5t-329 79.5zM827 313.5q58 44.5 88.5 147t30.5 272.5q0 177 -30.5 282t-88.5 150.5t-145 45.5t-145 -44.5t-88.5 -147t-30.5 -272.5
q0 -177 30.5 -282t88.5 -150.5t145 -45.5t145 44.5zM438 1670.5q-91 78.5 -105 225.5h208q9 -72 43.5 -104t98.5 -32t98 32t43 104h207q-13 -147 -103.5 -225.5t-244.5 -78.5t-245 78.5z" />
    <glyph glyph-name="obreve" unicode="&#x14f;" horiz-adv-x="1046" 
d="M169 117.5q-122 138.5 -122 424.5q0 291 122 432t354 141q231 0 354 -143t123 -427q0 -287 -122.5 -426.5t-354.5 -139.5t-354 138.5zM595 256.5q27 24.5 41 91.5t14 193q0 129 -14.5 199t-42 95.5t-70.5 25.5t-70.5 -25.5t-42 -94t-14.5 -195.5q0 -129 14 -197t41 -92.5
t72 -24.5t72 24.5zM285.5 1325.5q-88.5 87.5 -97.5 269.5h207q5 -95 37.5 -137.5t91.5 -42.5q58 0 90.5 42.5t36.5 137.5h208q-9 -182 -97.5 -269.5t-237.5 -87.5q-150 0 -238.5 87.5z" />
    <glyph glyph-name="Ohungarumlaut" unicode="&#x150;" horiz-adv-x="1364" 
d="M353 59.5q-139 79.5 -216 249t-77 431.5t77 431.5t216 249t329 79.5t329 -79.5t216 -249t77 -431.5t-77 -431.5t-216 -249t-329 -79.5t-329 79.5zM827 313.5q58 44.5 88.5 147t30.5 272.5q0 177 -30.5 282t-88.5 150.5t-145 45.5t-145 -44.5t-88.5 -147t-30.5 -272.5
q0 -177 30.5 -282t88.5 -150.5t145 -45.5t145 44.5zM347 1590l116 310h277l-130 -310h-263zM755 1590l115 310h278l-131 -310h-262z" />
    <glyph glyph-name="ohungarumlaut" unicode="&#x151;" horiz-adv-x="1046" 
d="M169 117.5q-122 138.5 -122 424.5q0 291 122 432t354 141q231 0 354 -143t123 -427q0 -287 -122.5 -426.5t-354.5 -139.5t-354 138.5zM595 256.5q27 24.5 41 91.5t14 193q0 129 -14.5 199t-42 95.5t-70.5 25.5t-70.5 -25.5t-42 -94t-14.5 -195.5q0 -129 14 -197t41 -92.5
t72 -24.5t72 24.5zM189 1226l132 390h278l-148 -390h-262zM596 1226l132 390h278l-148 -390h-262z" />
    <glyph glyph-name="OE" unicode="&#x152;" horiz-adv-x="1835" 
d="M1781 297v-297h-704q-54 0 -134 -5q-19 -1 -67 -3t-84 -2q-364 0 -548 184.5t-184 565.5q0 380 193.5 565.5t551.5 185.5q51 0 145 -6q18 -1 58 -3t68 -2h695v-297h-574v-279h472v-297h-472v-310h584zM855 1197q-63 4 -113 4q-107 0 -178 -44t-108.5 -145.5t-37.5 -271.5
q0 -171 38 -273t109.5 -145.5t179.5 -43.5q43 0 110 3v916z" />
    <glyph glyph-name="oe" unicode="&#x153;" horiz-adv-x="1575" 
d="M1539 445h-539q4 -75 27.5 -116.5t74 -59.5t138.5 -18q103 0 246 35v-271q-79 -19 -147 -27.5t-139 -8.5q-139 0 -235 31.5t-156 97.5q-107 -129 -304 -129q-220 0 -339 139.5t-119 423.5q0 290 119 431.5t339 141.5q106 0 187 -40.5t135 -117.5q49 77 126 117.5
t178 40.5q126 0 217.5 -63.5t141 -191.5t49.5 -317v-98zM1049 872q-24 -20 -36.5 -73t-13.5 -149h221q-1 97 -13 149.5t-34.5 72.5t-60.5 20q-39 0 -63 -20zM594.5 256.5q26.5 24.5 40.5 91.5t14 193q0 129 -14.5 199t-41.5 95.5t-70 25.5t-70.5 -25.5t-42 -94t-14.5 -195.5
q0 -129 14 -197t41 -92.5t72 -24.5t71.5 24.5z" />
    <glyph glyph-name="Racute" unicode="&#x154;" horiz-adv-x="1251" 
d="M878 0l-319 523l-68 1q-17 1 -50 1v-525h-342v1452q217 47 428 47q307 0 459.5 -121.5t152.5 -366.5q1 -152 -66.5 -260t-191.5 -165l366 -586h-369zM441 801q60 -6 118 -6q127 0 189.5 50.5t62.5 165.5q0 219 -237 219q-73 0 -133 -11v-418zM457 1590l158 310h354
l-208 -310h-304z" />
    <glyph glyph-name="racute" unicode="&#x155;" horiz-adv-x="749" 
d="M87 1097h281l26 -153h15q65 170 252 170q36 0 78 -8v-317q-37 8 -101 8q-65 0 -122.5 -24t-86.5 -64v-709h-342v1097zM262 1226l199 390h345l-247 -390h-297z" />
    <glyph glyph-name="Rcommaaccent" unicode="&#x156;" horiz-adv-x="1251" 
d="M878 0l-319 523l-68 1q-17 1 -50 1v-525h-342v1452q217 47 428 47q307 0 459.5 -121.5t152.5 -366.5q1 -152 -66.5 -260t-191.5 -165l366 -586h-369zM441 801q60 -6 118 -6q127 0 189.5 50.5t62.5 165.5q0 219 -237 219q-73 0 -133 -11v-418zM858 -277q0 -55 -23.5 -119
t-58.5 -111h-216q47 89 59 148q-69 9 -102.5 40.5t-33.5 81.5q0 58 46 90t141 32q188 0 188 -162z" />
    <glyph glyph-name="rcommaaccent" unicode="&#x157;" horiz-adv-x="749" 
d="M87 1097h281l26 -153h15q65 170 252 170q36 0 78 -8v-317q-37 8 -101 8q-65 0 -122.5 -24t-86.5 -64v-709h-342v1097zM447 -277q0 -55 -23.5 -119t-58.5 -111h-216q47 89 59 148q-69 9 -102.5 40.5t-33.5 81.5q0 58 46 90t141 32q188 0 188 -162z" />
    <glyph glyph-name="Rcaron" unicode="&#x158;" horiz-adv-x="1251" 
d="M878 0l-319 523l-68 1q-17 1 -50 1v-525h-342v1452q217 47 428 47q307 0 459.5 -121.5t152.5 -366.5q1 -152 -66.5 -260t-191.5 -165l366 -586h-369zM441 801q60 -6 118 -6q127 0 189.5 50.5t62.5 165.5q0 219 -237 219q-73 0 -133 -11v-418zM716 1900h231l-193 -310
h-290l-192 310h230l107 -186z" />
    <glyph glyph-name="rcaron" unicode="&#x159;" horiz-adv-x="749" 
d="M87 1097h281l26 -153h15q65 170 252 170q36 0 78 -8v-317q-37 8 -101 8q-65 0 -122.5 -24t-86.5 -64v-709h-342v1097zM516 1616h229l-190 -390h-290l-189 390h229l105 -235z" />
    <glyph glyph-name="Sacute" unicode="&#x15a;" horiz-adv-x="1025" 
d="M245 -4q-100 16 -177 45v290q189 -59 359 -59q221 0 221 141q0 37 -15.5 63.5t-54 49.5t-108.5 46l-110 37q-154 52 -243.5 158.5t-89.5 269.5q0 144 64.5 248t194.5 159.5t321 55.5q87 0 168.5 -10.5t144.5 -29.5v-290q-60 18 -132.5 28t-145.5 10q-144 0 -205 -38.5
t-61 -105.5q0 -35 13.5 -59.5t47 -44.5t95.5 -42l111 -37q172 -57 263.5 -161.5t91.5 -274.5q0 -142 -66.5 -247t-193.5 -161.5t-303 -56.5q-90 0 -190 16zM371 1590l158 310h354l-208 -310h-304z" />
    <glyph glyph-name="sacute" unicode="&#x15b;" horiz-adv-x="834" 
d="M68 25v270q135 -47 290 -47q76 0 109 22t33 63q0 29 -15.5 45.5t-48.5 24.5l-151 37q-252 60 -252 319q0 108 53.5 188.5t158 124t255.5 43.5q134 0 250 -29v-270q-111 30 -231 30q-96 0 -136.5 -24.5t-40.5 -63.5q0 -26 16 -41.5t50 -23.5l151 -37q126 -31 188.5 -106
t62.5 -210q0 -111 -54 -192.5t-154.5 -125t-236.5 -43.5q-163 0 -297 46zM265 1226l199 390h345l-247 -390h-297z" />
    <glyph glyph-name="Scircumflex" unicode="&#x15c;" horiz-adv-x="1025" 
d="M245 -4q-100 16 -177 45v290q189 -59 359 -59q221 0 221 141q0 37 -15.5 63.5t-54 49.5t-108.5 46l-110 37q-154 52 -243.5 158.5t-89.5 269.5q0 144 64.5 248t194.5 159.5t321 55.5q87 0 168.5 -10.5t144.5 -29.5v-290q-60 18 -132.5 28t-145.5 10q-144 0 -205 -38.5
t-61 -105.5q0 -35 13.5 -59.5t47 -44.5t95.5 -42l111 -37q172 -57 263.5 -161.5t91.5 -274.5q0 -142 -66.5 -247t-193.5 -161.5t-303 -56.5q-90 0 -190 16zM861 1590h-231l-107 186l-107 -186h-230l192 310h290z" />
    <glyph glyph-name="scircumflex" unicode="&#x15d;" horiz-adv-x="834" 
d="M68 25v270q135 -47 290 -47q76 0 109 22t33 63q0 29 -15.5 45.5t-48.5 24.5l-151 37q-252 60 -252 319q0 108 53.5 188.5t158 124t255.5 43.5q134 0 250 -29v-270q-111 30 -231 30q-96 0 -136.5 -24.5t-40.5 -63.5q0 -26 16 -41.5t50 -23.5l151 -37q126 -31 188.5 -106
t62.5 -210q0 -111 -54 -192.5t-154.5 -125t-236.5 -43.5q-163 0 -297 46zM748 1226h-229l-106 235l-105 -235h-229l189 390h290z" />
    <glyph glyph-name="Scedilla" unicode="&#x15e;" horiz-adv-x="1025" 
d="M890 143.5q-108 -118.5 -306 -151.5v-76q85 -14 130.5 -58.5t45.5 -118.5q0 -191 -280 -191q-101 0 -187 28v137q38 -14 83.5 -21t84.5 -7q59 0 86 15.5t27 52.5q0 71 -116 71h-42v156q-87 2 -181 17.5t-167 43.5v290q189 -59 359 -59q221 0 221 141q0 37 -15.5 63.5
t-54 49.5t-108.5 46l-110 37q-154 52 -243.5 158.5t-89.5 269.5q0 144 64.5 248t194.5 159.5t321 55.5q87 0 168.5 -10.5t144.5 -29.5v-290q-60 18 -132.5 28t-145.5 10q-144 0 -205 -38.5t-61 -105.5q0 -35 13.5 -59.5t47 -44.5t95.5 -42l111 -37q172 -57 263.5 -161.5
t91.5 -274.5q0 -183 -108 -301.5z" />
    <glyph glyph-name="scedilla" unicode="&#x15f;" horiz-adv-x="834" 
d="M730.5 114.5q-79.5 -90.5 -221.5 -121.5v-79q74 -15 114 -60t40 -115q0 -90 -64 -140.5t-197 -50.5q-82 0 -166 27v137q37 -13 76.5 -20t71.5 -7q49 0 71.5 15.5t22.5 51.5q0 72 -97 72h-40v155q-150 3 -273 46v270q135 -47 290 -47q76 0 109 22t33 63q0 29 -15.5 45.5
t-48.5 24.5l-151 37q-252 60 -252 319q0 108 53.5 188.5t158 124t255.5 43.5q134 0 250 -29v-270q-111 30 -231 30q-96 0 -136.5 -24.5t-40.5 -63.5q0 -26 16 -41.5t50 -23.5l151 -37q126 -31 188.5 -106t62.5 -210t-79.5 -225.5z" />
    <glyph glyph-name="Scaron" unicode="&#x160;" horiz-adv-x="1025" 
d="M245 -4q-100 16 -177 45v290q189 -59 359 -59q221 0 221 141q0 37 -15.5 63.5t-54 49.5t-108.5 46l-110 37q-154 52 -243.5 158.5t-89.5 269.5q0 144 64.5 248t194.5 159.5t321 55.5q87 0 168.5 -10.5t144.5 -29.5v-290q-60 18 -132.5 28t-145.5 10q-144 0 -205 -38.5
t-61 -105.5q0 -35 13.5 -59.5t47 -44.5t95.5 -42l111 -37q172 -57 263.5 -161.5t91.5 -274.5q0 -142 -66.5 -247t-193.5 -161.5t-303 -56.5q-90 0 -190 16zM630 1900h231l-193 -310h-290l-192 310h230l107 -186z" />
    <glyph glyph-name="scaron" unicode="&#x161;" horiz-adv-x="834" 
d="M68 25v270q135 -47 290 -47q76 0 109 22t33 63q0 29 -15.5 45.5t-48.5 24.5l-151 37q-252 60 -252 319q0 108 53.5 188.5t158 124t255.5 43.5q134 0 250 -29v-270q-111 30 -231 30q-96 0 -136.5 -24.5t-40.5 -63.5q0 -26 16 -41.5t50 -23.5l151 -37q126 -31 188.5 -106
t62.5 -210q0 -111 -54 -192.5t-154.5 -125t-236.5 -43.5q-163 0 -297 46zM519 1616h229l-190 -390h-290l-189 390h229l105 -235z" />
    <glyph glyph-name="uni0162" unicode="&#x162;" horiz-adv-x="1157" 
d="M641 0v-84q85 -14 130.5 -58.5t45.5 -118.5q0 -191 -280 -191q-101 0 -187 28v137q38 -14 83.5 -21t84.5 -7q59 0 86 15.5t27 52.5q0 71 -116 71h-42v176h-69v1173h-399v307h1148v-307h-400v-1173h-112z" />
    <glyph glyph-name="uni0163" unicode="&#x163;" horiz-adv-x="761" 
d="M537 -20v-66q74 -15 114 -60t40 -115q0 -90 -64 -140.5t-197 -50.5q-82 0 -166 27v137q37 -13 76.5 -20t71.5 -7q49 0 71.5 15.5t22.5 51.5q0 72 -97 72h-40v182q-109 38 -165 136.5t-56 263.5v424h-148v267h148l63 383h279v-383h240v-267h-240v-385q0 -67 14 -104
t45 -53t87 -16q27 0 97 9v-278q-41 -10 -91.5 -16.5t-97.5 -6.5h-7z" />
    <glyph glyph-name="Tcaron" unicode="&#x164;" horiz-adv-x="1157" 
d="M404 0v1173h-399v307h1148v-307h-400v-1173h-349zM687 1900h231l-193 -310h-290l-192 310h230l107 -186z" />
    <glyph glyph-name="tcaron" unicode="&#x165;" horiz-adv-x="761" 
d="M733 281v-278q-41 -10 -91.5 -16.5t-97.5 -6.5q-195 0 -295.5 102t-100.5 324v424h-148v267h148l63 383h279v-383h240v-267h-240v-385q0 -67 14 -104t45 -53t87 -16q27 0 97 9zM599.5 1391.5q6.5 101.5 6.5 224.5h231q0 -123 -19 -237t-53 -199h-189q17 110 23.5 211.5z
" />
    <glyph glyph-name="Tbar" unicode="&#x166;" horiz-adv-x="1157" 
d="M1153 1173h-400v-343h252v-232h-252v-598h-349v598h-249v232h249v343h-399v307h1148v-307z" />
    <glyph glyph-name="tbar" unicode="&#x167;" horiz-adv-x="761" 
d="M733 281v-278q-41 -10 -91.5 -16.5t-97.5 -6.5q-195 0 -295.5 102t-100.5 324v55h-104v232h104v137h-148v267h148l63 383h279v-383h240v-267h-240v-137h200v-232h-200v-16q0 -67 14 -104t45 -53t87 -16q27 0 97 9z" />
    <glyph glyph-name="Utilde" unicode="&#x168;" horiz-adv-x="1319" 
d="M344 42.5q-126 62.5 -189 197t-63 349.5v891h347v-931q0 -148 56.5 -212.5t168.5 -64.5t167 64.5t55 212.5v931h340v-891q0 -216 -61 -350t-185 -196.5t-316 -62.5q-194 0 -320 62.5zM741.5 1612q-40.5 11 -95.5 32q-50 19 -82 28t-67 9q-58 0 -102.5 -18.5t-90.5 -57.5
v211q39 39 85 57.5t111 18.5q47 0 86.5 -11t95.5 -32q47 -19 81 -28.5t69 -9.5q58 0 102.5 18t90.5 57v-211q-38 -39 -84.5 -56.5t-111.5 -17.5q-47 0 -87.5 11z" />
    <glyph glyph-name="utilde" unicode="&#x169;" horiz-adv-x="1066" 
d="M166.5 74.5q-84.5 94.5 -84.5 300.5v722h342v-691q0 -122 94 -122q31 0 64.5 15.5t54.5 43.5v754h342v-1097h-284l-25 113h-15q-103 -133 -263 -133q-141 0 -225.5 94.5zM605.5 1280.5q-37.5 12.5 -91.5 37.5q-46 22 -76.5 32.5t-61.5 10.5q-54 0 -97 -20.5t-88 -66.5
v225q38 41 83.5 60t105.5 19q43 0 81.5 -13t88.5 -38q46 -22 76.5 -32.5t61.5 -10.5q54 0 97.5 21t88.5 67v-225q-38 -41 -83.5 -60t-105.5 -19q-42 0 -79.5 12.5z" />
    <glyph glyph-name="Umacron" unicode="&#x16a;" horiz-adv-x="1319" 
d="M344 42.5q-126 62.5 -189 197t-63 349.5v891h347v-931q0 -148 56.5 -212.5t168.5 -64.5t167 64.5t55 212.5v931h340v-891q0 -216 -61 -350t-185 -196.5t-316 -62.5q-194 0 -320 62.5zM307 1636v220h715v-220h-715z" />
    <glyph glyph-name="umacron" unicode="&#x16b;" horiz-adv-x="1066" 
d="M166.5 74.5q-84.5 94.5 -84.5 300.5v722h342v-691q0 -122 94 -122q31 0 64.5 15.5t54.5 43.5v754h342v-1097h-284l-25 113h-15q-103 -133 -263 -133q-141 0 -225.5 94.5zM191 1310v220h683v-220h-683z" />
    <glyph glyph-name="Ubreve" unicode="&#x16c;" horiz-adv-x="1319" 
d="M344 42.5q-126 62.5 -189 197t-63 349.5v891h347v-931q0 -148 56.5 -212.5t168.5 -64.5t167 64.5t55 212.5v931h340v-891q0 -216 -61 -350t-185 -196.5t-316 -62.5q-194 0 -320 62.5zM420 1670.5q-91 78.5 -105 225.5h208q9 -72 43.5 -104t98.5 -32t98 32t43 104h207
q-13 -147 -103.5 -225.5t-244.5 -78.5t-245 78.5z" />
    <glyph glyph-name="ubreve" unicode="&#x16d;" horiz-adv-x="1066" 
d="M166.5 74.5q-84.5 94.5 -84.5 300.5v722h342v-691q0 -122 94 -122q31 0 64.5 15.5t54.5 43.5v754h342v-1097h-284l-25 113h-15q-103 -133 -263 -133q-141 0 -225.5 94.5zM294.5 1325.5q-88.5 87.5 -97.5 269.5h207q5 -95 37.5 -137.5t91.5 -42.5q58 0 90.5 42.5
t36.5 137.5h208q-9 -182 -97.5 -269.5t-237.5 -87.5q-150 0 -238.5 87.5z" />
    <glyph glyph-name="Uring" unicode="&#x16e;" horiz-adv-x="1319" 
d="M344 42.5q-126 62.5 -189 197t-63 349.5v891h347v-931q0 -148 56.5 -212.5t168.5 -64.5t167 64.5t55 212.5v931h340v-891q0 -216 -61 -350t-185 -196.5t-316 -62.5q-194 0 -320 62.5zM550 1603.5q-51 27.5 -79.5 76.5t-28.5 111t28.5 111t79.5 76.5t114 27.5
q64 0 114.5 -27.5t79 -76.5t28.5 -111t-28.5 -111t-79 -76.5t-114.5 -27.5q-63 0 -114 27.5zM726 1726q24 24 24 65q0 40 -24 64t-62 24t-61.5 -24t-23.5 -64q0 -41 23.5 -65t61.5 -24t62 24z" />
    <glyph glyph-name="uring" unicode="&#x16f;" horiz-adv-x="1066" 
d="M166.5 74.5q-84.5 94.5 -84.5 300.5v722h342v-691q0 -122 94 -122q31 0 64.5 15.5t54.5 43.5v754h342v-1097h-284l-25 113h-15q-103 -133 -263 -133q-141 0 -225.5 94.5zM418 1247.5q-51 27.5 -79.5 76.5t-28.5 111t28.5 111t79.5 76.5t114 27.5q64 0 114.5 -27.5
t79 -76.5t28.5 -111t-28.5 -111t-79 -76.5t-114.5 -27.5q-63 0 -114 27.5zM594 1370.5q24 24.5 24 64.5q0 41 -24 65t-62 24t-61.5 -24t-23.5 -65q0 -40 23.5 -64.5t61.5 -24.5t62 24.5z" />
    <glyph glyph-name="Uhungarumlaut" unicode="&#x170;" horiz-adv-x="1319" 
d="M344 42.5q-126 62.5 -189 197t-63 349.5v891h347v-931q0 -148 56.5 -212.5t168.5 -64.5t167 64.5t55 212.5v931h340v-891q0 -216 -61 -350t-185 -196.5t-316 -62.5q-194 0 -320 62.5zM329 1590l116 310h277l-130 -310h-263zM737 1590l115 310h278l-131 -310h-262z" />
    <glyph glyph-name="uhungarumlaut" unicode="&#x171;" horiz-adv-x="1066" 
d="M166.5 74.5q-84.5 94.5 -84.5 300.5v722h342v-691q0 -122 94 -122q31 0 64.5 15.5t54.5 43.5v754h342v-1097h-284l-25 113h-15q-103 -133 -263 -133q-141 0 -225.5 94.5zM198 1226l132 390h278l-148 -390h-262zM605 1226l132 390h278l-148 -390h-262z" />
    <glyph glyph-name="Uogonek" unicode="&#x172;" horiz-adv-x="1319" 
d="M1226 1480v-891q0 -238 -74.5 -378t-228.5 -193q-153 -54 -207.5 -112t-54.5 -124q0 -94 130 -94q62 0 132 28v-137q-85 -31 -177 -31q-139 0 -209 56.5t-70 158.5q0 65 31 118.5t101 100.5q-172 10 -284 76.5t-167.5 197t-55.5 333.5v891h347v-931q0 -148 56.5 -212.5
t168.5 -64.5t167 64.5t55 212.5v931h340z" />
    <glyph glyph-name="uogonek" unicode="&#x173;" horiz-adv-x="1066" 
d="M993 -283v-137q-38 -15 -77 -23.5t-88 -8.5q-126 0 -192.5 57t-66.5 158q0 72 33.5 129.5t112.5 107.5h-20l-25 113h-15q-103 -133 -263 -133q-141 0 -225.5 94.5t-84.5 300.5v722h342v-691q0 -122 94 -122q31 0 64.5 15.5t54.5 43.5v754h342v-1097
q-123 -51 -169.5 -103.5t-46.5 -114.5q0 -45 28 -69.5t81 -24.5t121 29z" />
    <glyph glyph-name="Wcircumflex" unicode="&#x174;" horiz-adv-x="1993" 
d="M1657 1480h324l-314 -1480h-451l-211 1027l-229 -1027h-451l-314 1480h350l219 -1111l239 1111h379l228 -1128zM1335 1590h-231l-107 186l-107 -186h-230l192 310h290z" />
    <glyph glyph-name="wcircumflex" unicode="&#x175;" horiz-adv-x="1604" 
d="M1291 1097h303l-252 -1097h-367l-170 739l-174 -739h-367l-253 1097h315l143 -696l159 696h366l150 -682zM1138 1226h-229l-106 235l-105 -235h-229l189 390h290z" />
    <glyph glyph-name="Ycircumflex" unicode="&#x176;" horiz-adv-x="1157" 
d="M1216 1480l-463 -861v-619h-347v617l-471 863h364l291 -546l292 546h334zM919 1590h-231l-107 186l-107 -186h-230l192 310h290z" />
    <glyph glyph-name="ycircumflex" unicode="&#x177;" horiz-adv-x="1025" 
d="M694 1097h338l-418 -1537h-334l121 440h-110l-298 1097h352l173 -767zM848 1226h-229l-106 235l-105 -235h-229l189 390h290z" />
    <glyph glyph-name="Ydieresis" unicode="&#x178;" horiz-adv-x="1157" 
d="M1216 1480l-463 -861v-619h-347v617l-471 863h364l291 -546l292 546h334zM202 1629.5q-49 42.5 -49 120.5q0 79 49 121.5t139 42.5t139 -42.5t49 -121.5q0 -78 -49 -120.5t-139 -42.5t-139 42.5zM683 1629.5q-49 42.5 -49 120.5q0 79 49 121.5t139 42.5q89 0 138 -43
t49 -121t-49 -120.5t-138 -42.5q-90 0 -139 42.5z" />
    <glyph glyph-name="Zacute" unicode="&#x179;" horiz-adv-x="1090" 
d="M485 307h569v-307h-1019v195l560 978h-550v307h999v-195zM395 1590l158 310h354l-208 -310h-304z" />
    <glyph glyph-name="zacute" unicode="&#x17a;" horiz-adv-x="857" 
d="M423 267h405v-267h-784v212l395 618h-385v267h764v-212zM288 1226l199 390h345l-247 -390h-297z" />
    <glyph glyph-name="Zdotaccent" unicode="&#x17b;" horiz-adv-x="1090" 
d="M485 307h569v-307h-1019v195l560 978h-550v307h999v-195zM391 1628q-56 41 -56 122t56 122.5t156 41.5q101 0 156.5 -41t55.5 -123q0 -81 -55.5 -122t-156.5 -41q-100 0 -156 41z" />
    <glyph glyph-name="zdotaccent" unicode="&#x17c;" horiz-adv-x="857" 
d="M423 267h405v-267h-784v212l395 618h-385v267h764v-212zM278 1279.5q-52 48.5 -52 139.5q0 90 52 139t158 49t158.5 -49t52.5 -139q0 -91 -52.5 -139.5t-158.5 -48.5t-158 48.5z" />
    <glyph glyph-name="Zcaron" unicode="&#x17d;" horiz-adv-x="1090" 
d="M485 307h569v-307h-1019v195l560 978h-550v307h999v-195zM654 1900h231l-193 -310h-290l-192 310h230l107 -186z" />
    <glyph glyph-name="zcaron" unicode="&#x17e;" horiz-adv-x="857" 
d="M423 267h405v-267h-784v212l395 618h-385v267h764v-212zM542 1616h229l-190 -390h-290l-189 390h229l105 -235z" />
    <glyph glyph-name="uni018F" unicode="&#x18f;" horiz-adv-x="1342" 
d="M1093.5 1310q188.5 -190 188.5 -587q0 -247 -78.5 -414t-216 -248t-315.5 -81q-185 0 -324.5 78t-218.5 244t-79 421v124h880q-14 139 -65 219.5t-141.5 114.5t-233.5 34q-86 0 -179 -11.5t-172 -32.5v287q86 20 188.5 31t197.5 11q380 0 568.5 -190zM807.5 291.5
q52.5 29.5 83.5 100t40 193.5h-518q9 -120 39.5 -190.5t84 -101.5t137.5 -31q81 0 133.5 29.5z" />
    <glyph glyph-name="florin" unicode="&#x192;" horiz-adv-x="715" 
d="M537.5 1320.5q-44.5 -39.5 -44.5 -125.5v-98h240v-267h-240v-825q0 -225 -119.5 -345t-355.5 -120q-77 0 -142 12v271q58 -7 89 -7q102 0 146.5 39.5t44.5 125.5v849h-148v267h148v74q0 224 120 344.5t355 120.5q77 0 143 -12v-271q-60 7 -90 7q-102 0 -146.5 -39.5z" />
    <glyph glyph-name="Ohorn" unicode="&#x1a0;" horiz-adv-x="1364" 
d="M1268.5 1425.5q-52.5 -69.5 -147.5 -93.5q89 -92 136 -240t47 -352q0 -389 -164.5 -574.5t-457.5 -185.5t-457.5 185.5t-164.5 574.5q0 262 77 431.5t216 249t329 79.5q37 0 72.5 -3.5t66.5 -7.5q27 -4 54.5 -7t53.5 -3q75 0 112.5 36t37.5 121q0 68 -17 140h238
q21 -64 21 -161q0 -120 -52.5 -189.5zM827 313.5q58 44.5 88.5 147t30.5 272.5q0 177 -30.5 282t-88.5 150.5t-145 45.5t-145 -44.5t-88.5 -147t-30.5 -272.5q0 -177 30.5 -282t88.5 -150.5t145 -45.5t145 44.5z" />
    <glyph glyph-name="ohorn" unicode="&#x1a1;" horiz-adv-x="1046" 
d="M998.5 1064.5q-43.5 -66.5 -121.5 -95.5q123 -143 123 -424q0 -287 -122.5 -426.5t-354.5 -139.5t-354 138.5t-122 424.5q0 291 122 432t354 141q38 0 94 -6q12 -1 25 -2t25 -1q75 0 113 35.5t38 117.5q0 65 -17 137h221q20 -61 20 -158q0 -107 -43.5 -173.5zM595 256.5
q27 24.5 41 91.5t14 193q0 129 -14.5 199t-42 95.5t-70.5 25.5t-70.5 -25.5t-42 -94t-14.5 -195.5q0 -129 14 -197t41 -92.5t72 -24.5t72 24.5z" />
    <glyph glyph-name="Uhorn" unicode="&#x1af;" horiz-adv-x="1327" 
d="M344 42.5q-126 62.5 -189 197t-63 349.5v891h347v-931q0 -148 56.5 -212.5t168.5 -64.5t167 64.5t55 212.5v931h120q75 0 113 36t38 120q0 68 -17 140h238q20 -61 20 -161q0 -110 -45 -177.5t-127 -93.5v-755q0 -216 -61 -350t-185 -196.5t-316 -62.5q-194 0 -320 62.5z
" />
    <glyph glyph-name="uhorn" unicode="&#x1b0;" horiz-adv-x="1104" 
d="M979 963v-963h-284l-25 113h-15q-103 -133 -263 -133q-141 0 -225.5 94.5t-84.5 300.5v722h342v-691q0 -122 94 -122q31 0 64.5 15.5t54.5 43.5v754h125q75 0 113 36t38 118q0 65 -17 137h221q20 -62 20 -158q0 -203 -158 -267z" />
    <glyph glyph-name="uni01C4" unicode="&#x1c4;" horiz-adv-x="2358" 
d="M99 2v1450q217 47 415 47q371 0 552.5 -185t181.5 -574q0 -263 -86 -431t-259.5 -248t-438.5 -80q-176 0 -365 21zM740.5 315q72.5 44 110.5 147t38 278t-39 278.5t-112.5 148t-182.5 44.5q-26 0 -56.5 -3t-52.5 -8v-925q63 -4 111 -4q111 0 183.5 44zM1753 307h569v-307
h-1019v195l560 978h-550v307h999v-195zM1921 1900h231l-193 -310h-290l-192 310h230l107 -186z" />
    <glyph glyph-name="uni01C5" unicode="&#x1c5;" horiz-adv-x="2165" 
d="M99 2v1450q217 47 415 47q371 0 552.5 -185t181.5 -574q0 -263 -86 -431t-259.5 -248t-438.5 -80q-176 0 -365 21zM740.5 315q72.5 44 110.5 147t38 278t-39 278.5t-112.5 148t-182.5 44.5q-26 0 -56.5 -3t-52.5 -8v-925q63 -4 111 -4q111 0 183.5 44zM1731 267h405v-267
h-784v212l395 618h-385v267h764v-212zM1851 1580h231l-193 -310h-290l-192 310h230l107 -186z" />
    <glyph glyph-name="uni01C6" unicode="&#x1c6;" horiz-adv-x="1935" 
d="M239 37.5q-87 58.5 -139.5 181.5t-52.5 308q0 291 137.5 438.5t428.5 147.5q24 0 36 -1v504h342v-1616h-290l-23 118h-15q-32 -66 -90.5 -102.5t-140.5 -36.5q-106 0 -193 58.5zM604 275.5q27 10.5 45 29.5v542q-40 6 -63 6q-65 0 -106.5 -27t-62.5 -91.5t-21 -177.5
q0 -115 18.5 -179.5t51.5 -88.5t82 -24q29 0 56 10.5zM1501 267h405v-267h-784v212l395 618h-385v267h764v-212zM1620 1616h229l-190 -390h-290l-189 390h229l105 -235z" />
    <glyph glyph-name="uni01C7" unicode="&#x1c7;" horiz-adv-x="1560" 
d="M99 0v1480h347v-1173h566v-307h-913zM972 -199q81 119 112 229.5t31 272.5v1177h347v-1167q-1 -191 -61 -347.5t-201 -314.5z" />
    <glyph glyph-name="uni01C8" unicode="&#x1c8;" horiz-adv-x="1534" 
d="M99 0v1480h347v-1173h566v-307h-913zM961 -324q80 118 111 229t31 273v919h344v-904q0 -195 -59 -352t-200 -315zM1117 1279.5q-52 48.5 -52 139.5q0 90 52 139t158 49t158.5 -49t52.5 -139q0 -91 -52.5 -139.5t-158.5 -48.5t-158 48.5z" />
    <glyph glyph-name="uni01C9" unicode="&#x1c9;" horiz-adv-x="1034" 
d="M87 0v1616h342v-1616h-342zM461 -324q80 118 111 229t31 273v919h344v-904q0 -195 -59 -352t-200 -315zM617 1279.5q-52 48.5 -52 139.5q0 90 52 139t158 49t158.5 -49t52.5 -139q0 -91 -52.5 -139.5t-158.5 -48.5t-158 48.5z" />
    <glyph glyph-name="uni01CA" unicode="&#x1ca;" horiz-adv-x="1906" 
d="M939 1480h324v-1480h-346l-494 900v-900h-324v1480h346l494 -900v900zM1318 -199q81 119 112 229.5t31 272.5v1177h347v-1167q-1 -191 -61 -347.5t-201 -314.5z" />
    <glyph glyph-name="uni01CB" unicode="&#x1cb;" horiz-adv-x="1880" 
d="M939 1480h324v-1480h-346l-494 900v-900h-324v1480h346l494 -900v900zM1307 -324q80 118 111 229t31 273v919h344v-904q0 -195 -59 -352t-200 -315zM1463 1279.5q-52 48.5 -52 139.5q0 90 52 139t158 49t158.5 -49t52.5 -139q0 -91 -52.5 -139.5t-158.5 -48.5t-158 48.5z
" />
    <glyph glyph-name="uni01CC" unicode="&#x1cc;" horiz-adv-x="1593" 
d="M87 1097h284l25 -113h15q49 65 116.5 98t151.5 33q144 0 228.5 -95t84.5 -303v-717h-342v691q0 66 -25 93t-72 27q-35 0 -69 -15.5t-55 -43.5v-752h-342v1097zM1020 -324q80 118 111 229t31 273v919h344v-904q0 -195 -59 -352t-200 -315zM1176 1279.5q-52 48.5 -52 139.5
q0 90 52 139t158 49t158.5 -49t52.5 -139q0 -91 -52.5 -139.5t-158.5 -48.5t-158 48.5z" />
    <glyph glyph-name="Gcaron" unicode="&#x1e6;" horiz-adv-x="1256" 
d="M1166 720v-709q-187 -30 -332 -30q-388 0 -581 184.5t-193 574.5q0 385 195.5 572.5t571.5 187.5q87 0 159.5 -9t144.5 -28v-292q-73 18 -136 26.5t-129 8.5q-158 0 -254.5 -44.5t-142.5 -147.5t-46 -279q0 -168 42.5 -270t124.5 -147t206 -45q33 0 49 1v446h321z
M839 1900h231l-193 -310h-290l-192 310h230l107 -186z" />
    <glyph glyph-name="gcaron" unicode="&#x1e7;" horiz-adv-x="1078" 
d="M276 -451q-83 9 -152 26v272q141 -38 277 -38q127 0 187.5 55.5t60.5 186.5v66h-17q-33 -61 -90 -94.5t-133 -33.5q-96 0 -178 57t-133 178.5t-51 303.5q0 290 137.5 438t429.5 149q96 0 196.5 -16t180.5 -46v-942q0 -299 -138 -435t-421 -136q-73 0 -156 9zM607.5 280.5
q24.5 8.5 41.5 23.5v544q-40 6 -66 6q-62 0 -103 -26.5t-62.5 -91.5t-21.5 -177q0 -114 18 -176.5t53 -86.5t91 -24q25 0 49.5 8.5zM665 1616h229l-190 -390h-290l-189 390h229l105 -235z" />
    <glyph glyph-name="uni01EA" unicode="&#x1ea;" horiz-adv-x="1364" 
d="M1011 1420.5q139 -79.5 216 -249t77 -431.5q0 -310 -103 -483.5t-274 -237.5q-141 -53 -201.5 -110.5t-60.5 -126.5q0 -94 130 -94q62 0 132 28v-137q-85 -31 -177 -31q-139 0 -209 56.5t-70 158.5q0 66 31.5 120t101.5 100q-257 23 -400.5 209t-143.5 548
q0 262 77 431.5t216 249t329 79.5t329 -79.5zM827 313.5q58 44.5 88.5 147t30.5 272.5q0 177 -30.5 282t-88.5 150.5t-145 45.5t-145 -44.5t-88.5 -147t-30.5 -272.5q0 -177 30.5 -282t88.5 -150.5t145 -45.5t145 44.5z" />
    <glyph glyph-name="uni01EB" unicode="&#x1eb;" horiz-adv-x="1046" 
d="M557 -94q-47 -54 -47 -118q0 -46 28.5 -73t81.5 -27q52 0 117 27l3 -136q-39 -15 -77.5 -23t-87.5 -8q-126 0 -192.5 57t-66.5 158q0 68 29.5 121.5t94.5 99.5q-393 48 -393 558q0 291 122 432t354 141q231 0 354 -143t123 -427q0 -216 -66.5 -345t-201.5 -186
q-128 -54 -175 -108zM452.5 835.5q-27.5 -25.5 -42 -94t-14.5 -195.5q0 -129 14 -197t41 -92.5t72 -24.5t72 24.5t41 91.5t14 193q0 129 -14.5 199t-42 95.5t-70.5 25.5t-70.5 -25.5z" />
    <glyph glyph-name="uni01F1" unicode="&#x1f1;" horiz-adv-x="2358" 
d="M99 2v1450q217 47 415 47q371 0 552.5 -185t181.5 -574q0 -263 -86 -431t-259.5 -248t-438.5 -80q-176 0 -365 21zM740.5 315q72.5 44 110.5 147t38 278t-39 278.5t-112.5 148t-182.5 44.5q-26 0 -56.5 -3t-52.5 -8v-925q63 -4 111 -4q111 0 183.5 44zM1753 307h569v-307
h-1019v195l560 978h-550v307h999v-195z" />
    <glyph glyph-name="uni01F2" unicode="&#x1f2;" horiz-adv-x="2165" 
d="M99 2v1450q217 47 415 47q371 0 552.5 -185t181.5 -574q0 -263 -86 -431t-259.5 -248t-438.5 -80q-176 0 -365 21zM740.5 315q72.5 44 110.5 147t38 278t-39 278.5t-112.5 148t-182.5 44.5q-26 0 -56.5 -3t-52.5 -8v-925q63 -4 111 -4q111 0 183.5 44zM1731 267h405v-267
h-784v212l395 618h-385v267h764v-212z" />
    <glyph glyph-name="uni01F3" unicode="&#x1f3;" horiz-adv-x="1935" 
d="M239 37.5q-87 58.5 -139.5 181.5t-52.5 308q0 291 137.5 438.5t428.5 147.5q24 0 36 -1v504h342v-1616h-290l-23 118h-15q-32 -66 -90.5 -102.5t-140.5 -36.5q-106 0 -193 58.5zM604 275.5q27 10.5 45 29.5v542q-40 6 -63 6q-65 0 -106.5 -27t-62.5 -91.5t-21 -177.5
q0 -115 18.5 -179.5t51.5 -88.5t82 -24q29 0 56 10.5zM1501 267h405v-267h-784v212l395 618h-385v267h764v-212z" />
    <glyph glyph-name="uni01F4" unicode="&#x1f4;" horiz-adv-x="1256" 
d="M1166 720v-709q-187 -30 -332 -30q-388 0 -581 184.5t-193 574.5q0 385 195.5 572.5t571.5 187.5q87 0 159.5 -9t144.5 -28v-292q-73 18 -136 26.5t-129 8.5q-158 0 -254.5 -44.5t-142.5 -147.5t-46 -279q0 -168 42.5 -270t124.5 -147t206 -45q33 0 49 1v446h321z
M580 1590l158 310h354l-208 -310h-304z" />
    <glyph glyph-name="uni01F5" unicode="&#x1f5;" horiz-adv-x="1078" 
d="M276 -451q-83 9 -152 26v272q141 -38 277 -38q127 0 187.5 55.5t60.5 186.5v66h-17q-33 -61 -90 -94.5t-133 -33.5q-96 0 -178 57t-133 178.5t-51 303.5q0 290 137.5 438t429.5 149q96 0 196.5 -16t180.5 -46v-942q0 -299 -138 -435t-421 -136q-73 0 -156 9zM607.5 280.5
q24.5 8.5 41.5 23.5v544q-40 6 -66 6q-62 0 -103 -26.5t-62.5 -91.5t-21.5 -177q0 -114 18 -176.5t53 -86.5t91 -24q25 0 49.5 8.5zM411 1226l199 390h345l-247 -390h-297z" />
    <glyph glyph-name="Aringacute" unicode="&#x1fa;" horiz-adv-x="1276" 
d="M939 0l-90 369h-426l-89 -369h-337l382 1480h519l382 -1480h-341zM493 663h285l-143 590zM835 1896q25 -48 25 -105q0 -62 -28.5 -111t-79 -76.5t-114.5 -27.5q-63 0 -114 27.5t-79.5 76.5t-28.5 111t28.5 111t79.5 76.5t114 27.5q12 0 36 -2l99 125h267zM700 1726
q24 24 24 65q0 40 -24 64.5t-62 24.5t-61.5 -24.5t-23.5 -64.5q0 -41 23.5 -65t61.5 -24t62 24z" />
    <glyph glyph-name="aringacute" unicode="&#x1fb;" horiz-adv-x="986" 
d="M707.5 1071q100.5 -44 148.5 -143t48 -267v-661h-277l-25 113h-15q-68 -134 -240 -134q-91 0 -161.5 39.5t-109.5 112t-39 169.5q0 164 100 253t321 104l114 8v12q0 63 -18 98.5t-60.5 51t-117.5 15.5q-60 0 -127.5 -9.5t-129.5 -27.5v271q71 18 158 28.5t166 10.5
q164 0 264.5 -44zM572 275v194l-73 -6q-64 -4 -96.5 -35.5t-32.5 -88.5q0 -53 27 -80.5t73 -27.5q61 0 102 44zM686 1543q27 -49 27 -108q0 -62 -28.5 -111t-79 -76.5t-114.5 -27.5q-63 0 -114 27.5t-79.5 76.5t-28.5 111t28.5 111t79.5 76.5t114 27.5q11 0 33 -2l101 132
h265zM553 1370.5q24 24.5 24 64.5q0 41 -24 65t-62 24t-61.5 -24t-23.5 -65q0 -40 23.5 -64.5t61.5 -24.5t62 24.5z" />
    <glyph glyph-name="AEacute" unicode="&#x1fc;" horiz-adv-x="1801" 
d="M1194 297h552v-297h-866l-25 368h-425l-91 -368h-342l384 1480h1355v-297h-610l21 -279h487v-297h-464zM503 665h331l-36 518h-168zM779 1590l158 310h354l-208 -310h-304z" />
    <glyph glyph-name="aeacute" unicode="&#x1fd;" horiz-adv-x="1481" 
d="M1444 445h-539q4 -75 28 -116.5t74 -59.5t138 -18q104 0 246 35v-271q-79 -19 -147 -27.5t-139 -8.5q-150 0 -252 36t-165 113q-59 -82 -134.5 -115.5t-171.5 -33.5q-108 0 -185.5 39t-118.5 112t-41 175q0 160 104.5 252.5t322.5 92.5h115v22q0 64 -21.5 101t-66.5 53
t-119 16q-56 0 -123.5 -9.5t-128.5 -27.5v271q156 39 308 39q118 0 199.5 -30.5t130.5 -91.5q102 122 278 122q126 0 217.5 -63.5t141 -191.5t49.5 -317v-98zM955 871.5q-24 -20.5 -37 -73t-14 -148.5h222q-1 97 -13 149.5t-35 72.5t-61 20t-62 -20.5zM546 247q32 14 61 49
q-19 78 -25 161h-77q-68 0 -101.5 -32.5t-33.5 -89.5q0 -50 28 -76t78 -26q38 0 70 14zM595 1226l199 390h345l-247 -390h-297z" />
    <glyph glyph-name="Oslashacute" unicode="&#x1fe;" horiz-adv-x="1364" 
d="M1304 740q0 -262 -77 -431.5t-216 -249t-329 -79.5q-197 0 -333 82l-78 -118l-154 103l92 140q-149 193 -149 553q0 262 77 431.5t216 249t329 79.5q197 0 333 -82l78 118l154 -103l-92 -140q149 -193 149 -553zM434 530l408 623q-59 58 -160 58q-87 0 -145 -44.5
t-88.5 -147t-30.5 -272.5q0 -130 16 -217zM827 313.5q58 44.5 88.5 147t30.5 272.5q0 130 -16 217l-408 -623q59 -58 160 -58q87 0 145 44.5zM532 1590l158 310h354l-208 -310h-304z" />
    <glyph glyph-name="oslashacute" unicode="&#x1ff;" horiz-adv-x="1046" 
d="M1000 545q0 -287 -122.5 -426.5t-354.5 -139.5q-137 0 -236 48l-55 -83l-153 103l67 101q-99 139 -99 394q0 291 122 432t354 141q130 0 226 -45l55 83l153 -103l-65 -98q108 -143 108 -407zM442.5 841.5q-31.5 -26.5 -48.5 -97t-17 -198.5q0 -32 2 -82l237 364
q-17 22 -40 31t-53 9q-49 0 -80.5 -26.5zM605 250.5q31 25.5 47.5 94.5t16.5 196q0 59 -3 105l-244 -373q18 -26 42.5 -37t58.5 -11q51 0 82 25.5zM375 1226l199 390h345l-247 -390h-297z" />
    <glyph glyph-name="uni0200" unicode="&#x200;" horiz-adv-x="1276" 
d="M939 0l-90 369h-426l-89 -369h-337l382 1480h519l382 -1480h-341zM493 663h285l-143 590zM303 1590l-130 310h278l115 -310h-263zM711 1590l-131 310h278l115 -310h-262z" />
    <glyph glyph-name="uni0201" unicode="&#x201;" horiz-adv-x="986" 
d="M707.5 1071q100.5 -44 148.5 -143t48 -267v-661h-277l-25 113h-15q-68 -134 -240 -134q-91 0 -161.5 39.5t-109.5 112t-39 169.5q0 164 100 253t321 104l114 8v12q0 63 -18 98.5t-60.5 51t-117.5 15.5q-60 0 -127.5 -9.5t-129.5 -27.5v271q71 18 158 28.5t166 10.5
q164 0 264.5 -44zM572 275v194l-73 -6q-64 -4 -96.5 -35.5t-32.5 -88.5q0 -53 27 -80.5t73 -27.5q61 0 102 44zM156 1226l-147 390h278l132 -390h-263zM564 1226l-148 390h278l132 -390h-262z" />
    <glyph glyph-name="uni0202" unicode="&#x202;" horiz-adv-x="1276" 
d="M939 0l-90 369h-426l-89 -369h-337l382 1480h519l382 -1480h-341zM493 663h285l-143 590zM393.5 1819.5q90.5 78.5 244.5 78.5t245 -78.5t104 -225.5h-207q-10 72 -44 104t-98 32t-98 -32t-43 -104h-208q14 147 104.5 225.5z" />
    <glyph glyph-name="uni0203" unicode="&#x203;" horiz-adv-x="986" 
d="M707.5 1071q100.5 -44 148.5 -143t48 -267v-661h-277l-25 113h-15q-68 -134 -240 -134q-91 0 -161.5 39.5t-109.5 112t-39 169.5q0 164 100 253t321 104l114 8v12q0 63 -18 98.5t-60.5 51t-117.5 15.5q-60 0 -127.5 -9.5t-129.5 -27.5v271q71 18 158 28.5t166 10.5
q164 0 264.5 -44zM572 275v194l-73 -6q-64 -4 -96.5 -35.5t-32.5 -88.5q0 -53 27 -80.5t73 -27.5q61 0 102 44zM252 1524.5q87 86.5 239 86.5q147 0 237 -87.5t99 -269.5h-208q-8 185 -128 185q-62 0 -93 -42.5t-35 -142.5h-207q9 184 96 270.5z" />
    <glyph glyph-name="uni0204" unicode="&#x204;" horiz-adv-x="1103" 
d="M441 297h607v-297h-949v1480h939v-297h-597v-279h495v-297h-495v-310zM255 1590l-130 310h278l115 -310h-263zM663 1590l-131 310h278l115 -310h-262z" />
    <glyph glyph-name="uni0205" unicode="&#x205;" horiz-adv-x="977" 
d="M941 445h-547q4 -75 28 -116.5t76 -59.5t143 -18q104 0 247 35v-271q-79 -19 -147.5 -27.5t-142.5 -8.5q-196 0 -316.5 59t-177.5 185t-57 331q0 271 120 416t345 145q212 0 320.5 -145.5t108.5 -426.5v-98zM445 872q-25 -20 -38 -73t-14 -149h229q-1 97 -13 149.5
t-35.5 72.5t-63.5 20t-65 -20zM168 1226l-147 390h278l132 -390h-263zM576 1226l-148 390h278l132 -390h-262z" />
    <glyph glyph-name="uni0206" unicode="&#x206;" horiz-adv-x="1103" 
d="M441 297h607v-297h-949v1480h939v-297h-597v-279h495v-297h-495v-310zM345.5 1819.5q90.5 78.5 244.5 78.5t245 -78.5t104 -225.5h-207q-10 72 -44 104t-98 32t-98 -32t-43 -104h-208q14 147 104.5 225.5z" />
    <glyph glyph-name="uni0207" unicode="&#x207;" horiz-adv-x="977" 
d="M941 445h-547q4 -75 28 -116.5t76 -59.5t143 -18q104 0 247 35v-271q-79 -19 -147.5 -27.5t-142.5 -8.5q-196 0 -316.5 59t-177.5 185t-57 331q0 271 120 416t345 145q212 0 320.5 -145.5t108.5 -426.5v-98zM445 872q-25 -20 -38 -73t-14 -149h229q-1 97 -13 149.5
t-35.5 72.5t-63.5 20t-65 -20zM264 1524.5q87 86.5 239 86.5q147 0 237 -87.5t99 -269.5h-208q-8 185 -128 185q-62 0 -93 -42.5t-35 -142.5h-207q9 184 96 270.5z" />
    <glyph glyph-name="uni0208" unicode="&#x208;" horiz-adv-x="544" 
d="M99 0v1480h347v-1480h-347zM-63 1590l-130 310h278l115 -310h-263zM345 1590l-131 310h278l115 -310h-262z" />
    <glyph glyph-name="uni0209" unicode="&#x209;" horiz-adv-x="518" 
d="M87 0v1097h344v-1097h-344zM-76 1226l-147 390h278l132 -390h-263zM332 1226l-148 390h278l132 -390h-262z" />
    <glyph glyph-name="uni020A" unicode="&#x20a;" horiz-adv-x="544" 
d="M99 0v1480h347v-1480h-347zM27.5 1819.5q90.5 78.5 244.5 78.5t245 -78.5t104 -225.5h-207q-10 72 -44 104t-98 32t-98 -32t-43 -104h-208q14 147 104.5 225.5z" />
    <glyph glyph-name="uni020B" unicode="&#x20b;" horiz-adv-x="518" 
d="M87 0v1097h344v-1097h-344zM20 1524.5q87 86.5 239 86.5q147 0 237 -87.5t99 -269.5h-208q-8 185 -128 185q-62 0 -93 -42.5t-35 -142.5h-207q9 184 96 270.5z" />
    <glyph glyph-name="uni020C" unicode="&#x20c;" horiz-adv-x="1364" 
d="M353 59.5q-139 79.5 -216 249t-77 431.5t77 431.5t216 249t329 79.5t329 -79.5t216 -249t77 -431.5t-77 -431.5t-216 -249t-329 -79.5t-329 79.5zM827 313.5q58 44.5 88.5 147t30.5 272.5q0 177 -30.5 282t-88.5 150.5t-145 45.5t-145 -44.5t-88.5 -147t-30.5 -272.5
q0 -177 30.5 -282t88.5 -150.5t145 -45.5t145 44.5zM347 1590l-130 310h278l115 -310h-263zM755 1590l-131 310h278l115 -310h-262z" />
    <glyph glyph-name="uni020D" unicode="&#x20d;" horiz-adv-x="1046" 
d="M169 117.5q-122 138.5 -122 424.5q0 291 122 432t354 141q231 0 354 -143t123 -427q0 -287 -122.5 -426.5t-354.5 -139.5t-354 138.5zM595 256.5q27 24.5 41 91.5t14 193q0 129 -14.5 199t-42 95.5t-70.5 25.5t-70.5 -25.5t-42 -94t-14.5 -195.5q0 -129 14 -197t41 -92.5
t72 -24.5t72 24.5zM188 1226l-147 390h278l132 -390h-263zM596 1226l-148 390h278l132 -390h-262z" />
    <glyph glyph-name="uni020E" unicode="&#x20e;" horiz-adv-x="1364" 
d="M353 59.5q-139 79.5 -216 249t-77 431.5t77 431.5t216 249t329 79.5t329 -79.5t216 -249t77 -431.5t-77 -431.5t-216 -249t-329 -79.5t-329 79.5zM827 313.5q58 44.5 88.5 147t30.5 272.5q0 177 -30.5 282t-88.5 150.5t-145 45.5t-145 -44.5t-88.5 -147t-30.5 -272.5
q0 -177 30.5 -282t88.5 -150.5t145 -45.5t145 44.5zM437.5 1819.5q90.5 78.5 244.5 78.5t245 -78.5t104 -225.5h-207q-10 72 -44 104t-98 32t-98 -32t-43 -104h-208q14 147 104.5 225.5z" />
    <glyph glyph-name="uni020F" unicode="&#x20f;" horiz-adv-x="1046" 
d="M169 117.5q-122 138.5 -122 424.5q0 291 122 432t354 141q231 0 354 -143t123 -427q0 -287 -122.5 -426.5t-354.5 -139.5t-354 138.5zM595 256.5q27 24.5 41 91.5t14 193q0 129 -14.5 199t-42 95.5t-70.5 25.5t-70.5 -25.5t-42 -94t-14.5 -195.5q0 -129 14 -197t41 -92.5
t72 -24.5t72 24.5zM284 1524.5q87 86.5 239 86.5q147 0 237 -87.5t99 -269.5h-208q-8 185 -128 185q-62 0 -93 -42.5t-35 -142.5h-207q9 184 96 270.5z" />
    <glyph glyph-name="uni0210" unicode="&#x210;" horiz-adv-x="1251" 
d="M878 0l-319 523l-68 1q-17 1 -50 1v-525h-342v1452q217 47 428 47q307 0 459.5 -121.5t152.5 -366.5q1 -152 -66.5 -260t-191.5 -165l366 -586h-369zM441 801q60 -6 118 -6q127 0 189.5 50.5t62.5 165.5q0 219 -237 219q-73 0 -133 -11v-418zM274 1590l-130 310h278
l115 -310h-263zM682 1590l-131 310h278l115 -310h-262z" />
    <glyph glyph-name="uni0211" unicode="&#x211;" horiz-adv-x="749" 
d="M87 1097h281l26 -153h15q65 170 252 170q36 0 78 -8v-317q-37 8 -101 8q-65 0 -122.5 -24t-86.5 -64v-709h-342v1097zM75 1226l-147 390h278l132 -390h-263zM483 1226l-148 390h278l132 -390h-262z" />
    <glyph glyph-name="uni0212" unicode="&#x212;" horiz-adv-x="1251" 
d="M878 0l-319 523l-68 1q-17 1 -50 1v-525h-342v1452q217 47 428 47q307 0 459.5 -121.5t152.5 -366.5q1 -152 -66.5 -260t-191.5 -165l366 -586h-369zM441 801q60 -6 118 -6q127 0 189.5 50.5t62.5 165.5q0 219 -237 219q-73 0 -133 -11v-418zM364.5 1819.5
q90.5 78.5 244.5 78.5t245 -78.5t104 -225.5h-207q-10 72 -44 104t-98 32t-98 -32t-43 -104h-208q14 147 104.5 225.5z" />
    <glyph glyph-name="uni0213" unicode="&#x213;" horiz-adv-x="749" 
d="M87 1097h281l26 -153h15q65 170 252 170q36 0 78 -8v-317q-37 8 -101 8q-65 0 -122.5 -24t-86.5 -64v-709h-342v1097zM171 1524.5q87 86.5 239 86.5q147 0 237 -87.5t99 -269.5h-208q-8 185 -128 185q-62 0 -93 -42.5t-35 -142.5h-207q9 184 96 270.5z" />
    <glyph glyph-name="uni0214" unicode="&#x214;" horiz-adv-x="1319" 
d="M344 42.5q-126 62.5 -189 197t-63 349.5v891h347v-931q0 -148 56.5 -212.5t168.5 -64.5t167 64.5t55 212.5v931h340v-891q0 -216 -61 -350t-185 -196.5t-316 -62.5q-194 0 -320 62.5zM329 1590l-130 310h278l115 -310h-263zM737 1590l-131 310h278l115 -310h-262z" />
    <glyph glyph-name="uni0215" unicode="&#x215;" horiz-adv-x="1066" 
d="M166.5 74.5q-84.5 94.5 -84.5 300.5v722h342v-691q0 -122 94 -122q31 0 64.5 15.5t54.5 43.5v754h342v-1097h-284l-25 113h-15q-103 -133 -263 -133q-141 0 -225.5 94.5zM197 1226l-147 390h278l132 -390h-263zM605 1226l-148 390h278l132 -390h-262z" />
    <glyph glyph-name="uni0216" unicode="&#x216;" horiz-adv-x="1319" 
d="M344 42.5q-126 62.5 -189 197t-63 349.5v891h347v-931q0 -148 56.5 -212.5t168.5 -64.5t167 64.5t55 212.5v931h340v-891q0 -216 -61 -350t-185 -196.5t-316 -62.5q-194 0 -320 62.5zM419.5 1819.5q90.5 78.5 244.5 78.5t245 -78.5t104 -225.5h-207q-10 72 -44 104
t-98 32t-98 -32t-43 -104h-208q14 147 104.5 225.5z" />
    <glyph glyph-name="uni0217" unicode="&#x217;" horiz-adv-x="1066" 
d="M166.5 74.5q-84.5 94.5 -84.5 300.5v722h342v-691q0 -122 94 -122q31 0 64.5 15.5t54.5 43.5v754h342v-1097h-284l-25 113h-15q-103 -133 -263 -133q-141 0 -225.5 94.5zM293 1524.5q87 86.5 239 86.5q147 0 237 -87.5t99 -269.5h-208q-8 185 -128 185q-62 0 -93 -42.5
t-35 -142.5h-207q9 184 96 270.5z" />
    <glyph glyph-name="Scommaaccent" unicode="&#x218;" horiz-adv-x="1025" 
d="M245 -4q-100 16 -177 45v290q189 -59 359 -59q221 0 221 141q0 37 -15.5 63.5t-54 49.5t-108.5 46l-110 37q-154 52 -243.5 158.5t-89.5 269.5q0 144 64.5 248t194.5 159.5t321 55.5q87 0 168.5 -10.5t144.5 -29.5v-290q-60 18 -132.5 28t-145.5 10q-144 0 -205 -38.5
t-61 -105.5q0 -35 13.5 -59.5t47 -44.5t95.5 -42l111 -37q172 -57 263.5 -161.5t91.5 -274.5q0 -142 -66.5 -247t-193.5 -161.5t-303 -56.5q-90 0 -190 16zM711 -277q0 -55 -23.5 -119t-58.5 -111h-216q47 89 59 148q-69 9 -102.5 40.5t-33.5 81.5q0 58 46 90t141 32
q188 0 188 -162z" />
    <glyph glyph-name="scommaaccent" unicode="&#x219;" horiz-adv-x="834" 
d="M68 25v270q135 -47 290 -47q76 0 109 22t33 63q0 29 -15.5 45.5t-48.5 24.5l-151 37q-252 60 -252 319q0 108 53.5 188.5t158 124t255.5 43.5q134 0 250 -29v-270q-111 30 -231 30q-96 0 -136.5 -24.5t-40.5 -63.5q0 -26 16 -41.5t50 -23.5l151 -37q126 -31 188.5 -106
t62.5 -210q0 -111 -54 -192.5t-154.5 -125t-236.5 -43.5q-163 0 -297 46zM601 -277q0 -55 -23.5 -119t-58.5 -111h-216q47 89 59 148q-69 9 -102.5 40.5t-33.5 81.5q0 58 46 90t141 32q188 0 188 -162z" />
    <glyph glyph-name="uni021A" unicode="&#x21a;" horiz-adv-x="1157" 
d="M404 0v1173h-399v307h1148v-307h-400v-1173h-349zM768 -277q0 -55 -23.5 -119t-58.5 -111h-216q47 89 59 148q-69 9 -102.5 40.5t-33.5 81.5q0 58 46 90t141 32q188 0 188 -162z" />
    <glyph glyph-name="uni021B" unicode="&#x21b;" horiz-adv-x="761" 
d="M733 281v-278q-41 -10 -91.5 -16.5t-97.5 -6.5q-195 0 -295.5 102t-100.5 324v424h-148v267h148l63 383h279v-383h240v-267h-240v-385q0 -67 14 -104t45 -53t87 -16q27 0 97 9zM629 -277q0 -55 -23.5 -119t-58.5 -111h-216q47 89 59 148q-69 9 -102.5 40.5t-33.5 81.5
q0 58 46 90t141 32q188 0 188 -162z" />
    <glyph glyph-name="uni022A" unicode="&#x22a;" horiz-adv-x="1364" 
d="M353 59.5q-139 79.5 -216 249t-77 431.5t77 431.5t216 249t329 79.5t329 -79.5t216 -249t77 -431.5t-77 -431.5t-216 -249t-329 -79.5t-329 79.5zM827 313.5q58 44.5 88.5 147t30.5 272.5q0 177 -30.5 282t-88.5 150.5t-145 45.5t-145 -44.5t-88.5 -147t-30.5 -272.5
q0 -177 30.5 -282t88.5 -150.5t145 -45.5t145 44.5zM303 1629.5q-49 42.5 -49 120.5q0 79 49 121.5t139 42.5t139 -42.5t49 -121.5q0 -78 -49 -120.5t-139 -42.5t-139 42.5zM784 1629.5q-49 42.5 -49 120.5q0 79 49 121.5t139 42.5q89 0 138 -43t49 -121t-49 -120.5
t-138 -42.5q-90 0 -139 42.5zM325 2018v220h715v-220h-715z" />
    <glyph glyph-name="uni022B" unicode="&#x22b;" horiz-adv-x="1046" 
d="M169 117.5q-122 138.5 -122 424.5q0 291 122 432t354 141q231 0 354 -143t123 -427q0 -287 -122.5 -426.5t-354.5 -139.5t-354 138.5zM595 256.5q27 24.5 41 91.5t14 193q0 129 -14.5 199t-42 95.5t-70.5 25.5t-70.5 -25.5t-42 -94t-14.5 -195.5q0 -129 14 -197t41 -92.5
t72 -24.5t72 24.5zM158 1287q-50 48 -50 132q0 83 50 131t135 48q84 0 134 -48t50 -131q0 -84 -50 -132t-134 -48q-85 0 -135 48zM619.5 1287q-49.5 48 -49.5 132q0 83 49.5 131t134.5 48t134.5 -48t49.5 -131q0 -84 -49.5 -132t-134.5 -48t-134.5 48zM182 1718v220h683
v-220h-683z" />
    <glyph glyph-name="uni022C" unicode="&#x22c;" horiz-adv-x="1364" 
d="M353 59.5q-139 79.5 -216 249t-77 431.5t77 431.5t216 249t329 79.5t329 -79.5t216 -249t77 -431.5t-77 -431.5t-216 -249t-329 -79.5t-329 79.5zM827 313.5q58 44.5 88.5 147t30.5 272.5q0 177 -30.5 282t-88.5 150.5t-145 45.5t-145 -44.5t-88.5 -147t-30.5 -272.5
q0 -177 30.5 -282t88.5 -150.5t145 -45.5t145 44.5zM759.5 1612q-40.5 11 -95.5 32q-50 19 -82 28t-67 9q-58 0 -102.5 -18.5t-90.5 -57.5v211q39 39 85 57.5t111 18.5q47 0 86.5 -11t95.5 -32q47 -19 81 -28.5t69 -9.5q58 0 102.5 18t90.5 57v-211q-38 -39 -84.5 -56.5
t-111.5 -17.5q-47 0 -87.5 11zM325 2018v220h715v-220h-715z" />
    <glyph glyph-name="uni022D" unicode="&#x22d;" horiz-adv-x="1046" 
d="M169 117.5q-122 138.5 -122 424.5q0 291 122 432t354 141q231 0 354 -143t123 -427q0 -287 -122.5 -426.5t-354.5 -139.5t-354 138.5zM595 256.5q27 24.5 41 91.5t14 193q0 129 -14.5 199t-42 95.5t-70.5 25.5t-70.5 -25.5t-42 -94t-14.5 -195.5q0 -129 14 -197t41 -92.5
t72 -24.5t72 24.5zM596.5 1280.5q-37.5 12.5 -91.5 37.5q-46 22 -76.5 32.5t-61.5 10.5q-54 0 -97 -20.5t-88 -66.5v225q38 41 83.5 60t105.5 19q43 0 81.5 -13t88.5 -38q46 -22 76.5 -32.5t61.5 -10.5q54 0 97.5 21t88.5 67v-225q-38 -41 -83.5 -60t-105.5 -19
q-42 0 -79.5 12.5zM182 1718v220h683v-220h-683z" />
    <glyph glyph-name="uni0230" unicode="&#x230;" horiz-adv-x="1364" 
d="M353 59.5q-139 79.5 -216 249t-77 431.5t77 431.5t216 249t329 79.5t329 -79.5t216 -249t77 -431.5t-77 -431.5t-216 -249t-329 -79.5t-329 79.5zM827 313.5q58 44.5 88.5 147t30.5 272.5q0 177 -30.5 282t-88.5 150.5t-145 45.5t-145 -44.5t-88.5 -147t-30.5 -272.5
q0 -177 30.5 -282t88.5 -150.5t145 -45.5t145 44.5zM526 1628q-56 41 -56 122t56 122.5t156 41.5q101 0 156.5 -41t55.5 -123q0 -81 -55.5 -122t-156.5 -41q-100 0 -156 41zM325 2018v220h715v-220h-715z" />
    <glyph glyph-name="uni0231" unicode="&#x231;" horiz-adv-x="1046" 
d="M169 117.5q-122 138.5 -122 424.5q0 291 122 432t354 141q231 0 354 -143t123 -427q0 -287 -122.5 -426.5t-354.5 -139.5t-354 138.5zM595 256.5q27 24.5 41 91.5t14 193q0 129 -14.5 199t-42 95.5t-70.5 25.5t-70.5 -25.5t-42 -94t-14.5 -195.5q0 -129 14 -197t41 -92.5
t72 -24.5t72 24.5zM365 1279.5q-52 48.5 -52 139.5q0 90 52 139t158 49t158.5 -49t52.5 -139q0 -91 -52.5 -139.5t-158.5 -48.5t-158 48.5zM182 1708v220h683v-220h-683z" />
    <glyph glyph-name="uni0232" unicode="&#x232;" horiz-adv-x="1157" 
d="M1216 1480l-463 -861v-619h-347v617l-471 863h364l291 -546l292 546h334zM224 1636v220h715v-220h-715z" />
    <glyph glyph-name="uni0233" unicode="&#x233;" horiz-adv-x="1025" 
d="M694 1097h338l-418 -1537h-334l121 440h-110l-298 1097h352l173 -767zM172 1310v220h683v-220h-683z" />
    <glyph glyph-name="uni0237" unicode="&#x237;" horiz-adv-x="518" 
d="M-55 -324q80 118 111 229t31 273v919h344v-904q0 -195 -59 -352t-200 -315z" />
    <glyph glyph-name="uni0259" unicode="&#x259;" horiz-adv-x="977" 
d="M695.5 1059q120.5 -59 177.5 -185t57 -331q0 -271 -120 -416t-345 -145q-212 0 -320.5 145.5t-108.5 426.5v98h547q-4 75 -28 116.5t-76 59.5t-143 18q-104 0 -247 -35v271q79 19 147.5 27.5t142.5 8.5q196 0 316.5 -59zM532 225q25 20 38 73t14 149h-229
q1 -97 13 -149.5t35.5 -72.5t63.5 -20t65 20z" />
    <glyph glyph-name="uni02BB" unicode="&#x2bb;" horiz-adv-x="1145" 
d="M726.5 1436.5q33.5 -31.5 33.5 -81.5q0 -59 -46 -91t-141 -32q-188 0 -188 162q0 56 23 120t58 110h217q-47 -89 -59 -148q69 -8 102.5 -39.5z" />
    <glyph glyph-name="uni02BC" unicode="&#x2bc;" horiz-adv-x="1145" 
d="M948 1462q0 -55 -23.5 -119t-58.5 -111h-216q25 49 38.5 83t19.5 65q-69 9 -102.5 40.5t-33.5 81.5q0 58 46.5 90t141.5 32q188 0 188 -162z" />
    <glyph glyph-name="uni02BE" unicode="&#x2be;" horiz-adv-x="1145" 
d="M572 1346q38 0 62 24.5t24 64.5q0 41 -24 65t-62 24v126q64 0 114.5 -27.5t79 -76.5t28.5 -111t-28.5 -111t-79 -76.5t-114.5 -27.5v126z" />
    <glyph glyph-name="uni02BF" unicode="&#x2bf;" horiz-adv-x="1145" 
d="M458 1247.5q-51 27.5 -79.5 76.5t-28.5 111t28.5 111t79.5 76.5t114 27.5v-126q-38 0 -61.5 -24t-23.5 -65q0 -40 23.5 -64.5t61.5 -24.5v-126q-63 0 -114 27.5z" />
    <glyph glyph-name="circumflex" unicode="&#x2c6;" horiz-adv-x="1145" 
d="M907 1226h-229l-106 235l-105 -235h-229l189 390h290z" />
    <glyph glyph-name="caron" unicode="&#x2c7;" horiz-adv-x="1145" 
d="M678 1616h229l-190 -390h-290l-189 390h229l105 -235z" />
    <glyph glyph-name="uni02C8" unicode="&#x2c8;" horiz-adv-x="1145" 
d="M491 1218v400h163v-400h-163z" />
    <glyph glyph-name="uni02C9" unicode="&#x2c9;" horiz-adv-x="1145" 
d="M231 1310v220h683v-220h-683z" />
    <glyph glyph-name="uni02CA" unicode="&#x2ca;" horiz-adv-x="1145" 
d="M413 1226l200 390h365l-247 -390h-318z" />
    <glyph glyph-name="uni02CB" unicode="&#x2cb;" horiz-adv-x="1145" 
d="M413 1226l-246 390h365l199 -390h-318z" />
    <glyph glyph-name="uni02CC" unicode="&#x2cc;" horiz-adv-x="1145" 
d="M491 -440v400h163v-400h-163z" />
    <glyph glyph-name="breve" unicode="&#x2d8;" horiz-adv-x="1145" 
d="M334.5 1325.5q-88.5 87.5 -97.5 269.5h207q5 -95 37.5 -137.5t91.5 -42.5q58 0 90.5 42.5t36.5 137.5h208q-9 -182 -97.5 -269.5t-237.5 -87.5q-150 0 -238.5 87.5z" />
    <glyph glyph-name="dotaccent" unicode="&#x2d9;" horiz-adv-x="1145" 
d="M414 1279.5q-52 48.5 -52 139.5q0 90 52 139t158 49t158.5 -49t52.5 -139q0 -91 -52.5 -139.5t-158.5 -48.5t-158 48.5z" />
    <glyph glyph-name="ring" unicode="&#x2da;" horiz-adv-x="1145" 
d="M458 1247.5q-51 27.5 -79.5 76.5t-28.5 111t28.5 111t79.5 76.5t114 27.5q64 0 114.5 -27.5t79 -76.5t28.5 -111t-28.5 -111t-79 -76.5t-114.5 -27.5q-63 0 -114 27.5zM634 1370.5q24 24.5 24 64.5q0 41 -24 65t-62 24t-61.5 -24t-23.5 -65q0 -40 23.5 -64.5t61.5 -24.5
t62 24.5z" />
    <glyph glyph-name="ogonek" unicode="&#x2db;" horiz-adv-x="1145" 
d="M156.5 -395q-66.5 57 -66.5 158q0 67 29 121t96.5 102t184.5 94l100 -80q-123 -51 -169.5 -103.5t-46.5 -114.5q0 -45 28 -69.5t81 -24.5t121 29v-137q-38 -15 -77 -23.5t-88 -8.5q-126 0 -192.5 57z" />
    <glyph glyph-name="tilde" unicode="&#x2dc;" horiz-adv-x="1145" 
d="M645.5 1280.5q-37.5 12.5 -91.5 37.5q-46 22 -76.5 32.5t-61.5 10.5q-54 0 -97 -20.5t-88 -66.5v225q38 41 83.5 60t105.5 19q43 0 81.5 -13t88.5 -38q46 -22 76.5 -32.5t61.5 -10.5q54 0 97.5 21t88.5 67v-225q-38 -41 -83.5 -60t-105.5 -19q-42 0 -79.5 12.5z" />
    <glyph glyph-name="hungarumlaut" unicode="&#x2dd;" horiz-adv-x="1145" 
d="M238 1226l132 390h278l-148 -390h-262zM645 1226l132 390h278l-148 -390h-262z" />
    <glyph glyph-name="gravecomb" unicode="&#x300;" horiz-adv-x="0" 
d="M-721 1226l-247 390h344l200 -390h-297z" />
    <glyph glyph-name="acutecomb" unicode="&#x301;" horiz-adv-x="0" 
d="M-721 1226l199 390h345l-247 -390h-297z" />
    <glyph glyph-name="uni0302" unicode="&#x302;" horiz-adv-x="0" 
d="M-238 1226h-229l-106 235l-105 -235h-229l189 390h290z" />
    <glyph glyph-name="tildecomb" unicode="&#x303;" horiz-adv-x="0" 
d="M-499.5 1280.5q-37.5 12.5 -91.5 37.5q-46 22 -76.5 32.5t-61.5 10.5q-54 0 -97 -20.5t-88 -66.5v225q38 41 83.5 60t105.5 19q43 0 81.5 -13t88.5 -38q46 -22 76.5 -32.5t61.5 -10.5q54 0 97.5 21t88.5 67v-225q-38 -41 -83.5 -60t-105.5 -19q-42 0 -79.5 12.5z" />
    <glyph glyph-name="uni0304" unicode="&#x304;" horiz-adv-x="0" 
d="M-914 1310v220h683v-220h-683z" />
    <glyph glyph-name="uni0306" unicode="&#x306;" horiz-adv-x="0" 
d="M-810.5 1325.5q-88.5 87.5 -97.5 269.5h207q5 -95 37.5 -137.5t91.5 -42.5q58 0 90.5 42.5t36.5 137.5h208q-9 -182 -97.5 -269.5t-237.5 -87.5q-150 0 -238.5 87.5z" />
    <glyph glyph-name="uni0307" unicode="&#x307;" horiz-adv-x="0" 
d="M-731 1279.5q-52 48.5 -52 139.5q0 90 52 139t158 49t158.5 -49t52.5 -139q0 -91 -52.5 -139.5t-158.5 -48.5t-158 48.5z" />
    <glyph glyph-name="uni0308" unicode="&#x308;" horiz-adv-x="0" 
d="M-938 1287q-50 48 -50 132q0 83 50 131t135 48q84 0 134 -48t50 -131q0 -84 -50 -132t-134 -48q-85 0 -135 48zM-476.5 1287q-49.5 48 -49.5 132q0 83 49.5 131t134.5 48t134.5 -48t49.5 -131q0 -84 -49.5 -132t-134.5 -48t-134.5 48z" />
    <glyph glyph-name="hookabovecomb" unicode="&#x309;" horiz-adv-x="0" 
d="M-632.5 1318q22.5 34 60.5 66q24 21 34 33t10 29q0 45 -79 45q-78 0 -154 -24v135q37 12 87.5 19t95.5 7q119 0 177.5 -38.5t58.5 -119.5q0 -36 -11 -61.5t-26 -42t-41 -38.5q-32 -28 -48 -48.5t-20 -53.5h-170q3 58 25.5 92z" />
    <glyph glyph-name="uni030A" unicode="&#x30a;" horiz-adv-x="0" 
d="M-687 1247.5q-51 27.5 -79.5 76.5t-28.5 111t28.5 111t79.5 76.5t114 27.5q64 0 114.5 -27.5t79 -76.5t28.5 -111t-28.5 -111t-79 -76.5t-114.5 -27.5q-63 0 -114 27.5zM-511 1370.5q24 24.5 24 64.5q0 41 -24 65t-62 24t-61.5 -24t-23.5 -65q0 -40 23.5 -64.5
t61.5 -24.5t62 24.5z" />
    <glyph glyph-name="uni030B" unicode="&#x30b;" horiz-adv-x="0" 
d="M-907 1226l132 390h278l-148 -390h-262zM-500 1226l132 390h278l-148 -390h-262z" />
    <glyph glyph-name="uni030C" unicode="&#x30c;" horiz-adv-x="0" 
d="M-467 1616h229l-190 -390h-290l-189 390h229l105 -235z" />
    <glyph glyph-name="uni030F" unicode="&#x30f;" horiz-adv-x="0" 
d="M-908 1226l-147 390h278l132 -390h-263zM-500 1226l-148 390h278l132 -390h-262z" />
    <glyph glyph-name="uni0311" unicode="&#x311;" horiz-adv-x="0" 
d="M-812 1524.5q87 86.5 239 86.5q147 0 237 -87.5t99 -269.5h-208q-8 185 -128 185q-62 0 -93 -42.5t-35 -142.5h-207q9 184 96 270.5z" />
    <glyph glyph-name="uni0312" unicode="&#x312;" horiz-adv-x="0" 
d="M-418.5 1436.5q33.5 -31.5 33.5 -81.5q0 -59 -46 -91t-141 -32q-188 0 -188 162q0 56 23 120t58 110h217q-47 -89 -59 -148q69 -8 102.5 -39.5z" />
    <glyph glyph-name="uni031B" unicode="&#x31b;" horiz-adv-x="0" 
d="M-745 1480h79q74 0 112 35.5t38 118.5q0 64 -17 136h221q20 -61 20 -157q0 -153 -85 -223.5t-232 -70.5h-136v161z" />
    <glyph glyph-name="dotbelowcomb" unicode="&#x323;" horiz-adv-x="0" 
d="M-707 -426q-50 48 -50 131q0 84 50 132t134 48q85 0 135 -48t50 -132q0 -83 -50 -131t-135 -48q-84 0 -134 48z" />
    <glyph glyph-name="uni0324" unicode="&#x324;" horiz-adv-x="0" 
d="M-938 -426q-50 48 -50 131q0 84 50 132t135 48q84 0 134 -48t50 -132q0 -83 -50 -131t-134 -48q-85 0 -135 48zM-476.5 -426q-49.5 48 -49.5 131q0 84 49.5 132t134.5 48t134.5 -48t49.5 -132q0 -83 -49.5 -131t-134.5 -48t-134.5 48z" />
    <glyph glyph-name="uni0326" unicode="&#x326;" horiz-adv-x="0" 
d="M-385 -277q0 -55 -23.5 -119t-58.5 -111h-216q47 89 59 148q-69 9 -102.5 40.5t-33.5 81.5q0 58 46 90t141 32q188 0 188 -162z" />
    <glyph glyph-name="uni0327" unicode="&#x327;" horiz-adv-x="0" 
d="M-363 -146q40 -45 40 -115q0 -90 -64 -140.5t-197 -50.5q-82 0 -166 27v137q37 -13 76.5 -20t71.5 -7q49 0 71.5 15.5t22.5 51.5q0 72 -97 72h-40v196h168v-106q74 -15 114 -60z" />
    <glyph glyph-name="uni0328" unicode="&#x328;" horiz-adv-x="0" 
d="M-988.5 -395q-66.5 57 -66.5 158q0 67 29 121t96.5 102t184.5 94l100 -80q-123 -51 -169.5 -103.5t-46.5 -114.5q0 -45 28 -69.5t81 -24.5t121 29v-137q-38 -15 -77 -23.5t-88 -8.5q-126 0 -192.5 57z" />
    <glyph glyph-name="uni032E" unicode="&#x32e;" horiz-adv-x="0" 
d="M-815 -383.5q-88 85.5 -93 240.5h207q2 -79 33.5 -116.5t95.5 -37.5q62 0 93.5 38t33.5 116h208q-5 -156 -93 -241t-242 -85q-155 0 -243 85.5z" />
    <glyph glyph-name="uni0331" unicode="&#x331;" horiz-adv-x="0" 
d="M-910 -400v218h675v-218h-675z" />
    <glyph glyph-name="uni0394" unicode="&#x394;" horiz-adv-x="1276" 
d="M898 1480l382 -1480h-1283l382 1480h519zM870 293l-235 961l-232 -961h467z" />
    <glyph glyph-name="uni03A9" unicode="&#x3a9;" horiz-adv-x="1364" 
d="M1250.5 524.5q-53.5 -136.5 -152.5 -237.5h206v-287h-559v236q75 92 118.5 176t63 176.5t19.5 212.5q0 214 -67.5 312t-198.5 98q-128 0 -195 -98t-67 -312q0 -120 19.5 -212.5t63 -176.5t118.5 -176v-236h-559v287h206q-99 101 -152.5 237.5t-53.5 293.5q0 225 77.5 378
t217 228.5t325.5 75.5q188 0 328.5 -75.5t218 -228.5t77.5 -378q0 -157 -53.5 -293.5z" />
    <glyph glyph-name="uni03BC" unicode="&#x3bc;" horiz-adv-x="1066" 
d="M979 1097v-1097h-284l-25 113h-15q-35 -67 -78 -100t-96 -33q-31 0 -57 10v-430h-342v1537h342v-691q0 -122 94 -122q31 0 64.5 15.5t54.5 43.5v754h342z" />
    <glyph glyph-name="pi" unicode="&#x3c0;" horiz-adv-x="1290" 
d="M1262 281v-278q-41 -10 -91.5 -16.5t-97.5 -6.5q-195 0 -295.5 102t-100.5 324v424h-187v-830h-342v830h-148v267h1167v-267h-148v-385q0 -67 14 -104t45 -53t87 -16q27 0 97 9z" />
    <glyph glyph-name="uni1E08" unicode="&#x1e08;" horiz-adv-x="1078" 
d="M1034 1900l-208 -310h-304l158 310h354zM590 1161.5q-83 -44.5 -125 -147t-42 -274.5q0 -177 41 -279t123 -144.5t214 -42.5q102 0 245 47v-292q-57 -22 -137 -35.5t-158 -13.5h-14v-64q85 -14 130.5 -58.5t45.5 -118.5q0 -191 -280 -191q-101 0 -187 28v137
q38 -14 83.5 -21t84.5 -7q59 0 86 15.5t27 52.5q0 71 -116 71h-42v171q-250 43 -379.5 223t-129.5 518q0 385 184.5 574.5t527.5 189.5q146 0 274 -32v-292q-125 30 -244 30q-129 0 -212 -44.5z" />
    <glyph glyph-name="uni1E09" unicode="&#x1e09;" horiz-adv-x="824" 
d="M850 1616l-247 -390h-297l199 390h345zM188.5 977.5q141.5 137.5 401.5 137.5q107 0 199 -19v-278q-64 12 -133 12q-90 0 -145 -27t-81.5 -87.5t-26.5 -162.5q0 -109 24.5 -172.5t74 -90.5t127.5 -27q67 0 160 30v-278q-103 -33 -222 -36v-65q74 -15 114 -60t40 -115
q0 -90 -64 -140.5t-197 -50.5q-82 0 -166 27v137q37 -13 76.5 -20t71.5 -7q49 0 71.5 15.5t22.5 51.5q0 72 -97 72h-40v171q-352 78 -352 552q0 293 141.5 430.5z" />
    <glyph glyph-name="uni1E0C" unicode="&#x1e0c;" horiz-adv-x="1308" 
d="M99 2v1450q217 47 415 47q371 0 552.5 -185t181.5 -574q0 -263 -86 -431t-259.5 -248t-438.5 -80q-176 0 -365 21zM740.5 315q72.5 44 110.5 147t38 278t-39 278.5t-112.5 148t-182.5 44.5q-26 0 -56.5 -3t-52.5 -8v-925q63 -4 111 -4q111 0 183.5 44zM465 -401.5
q-56 41.5 -56 122.5t56 122.5t156 41.5t156 -41.5t56 -122.5t-56 -122.5t-156 -41.5t-156 41.5z" />
    <glyph glyph-name="uni1E0D" unicode="&#x1e0d;" horiz-adv-x="1078" 
d="M239 37.5q-87 58.5 -139.5 181.5t-52.5 308q0 291 137.5 438.5t428.5 147.5q24 0 36 -1v504h342v-1616h-290l-23 118h-15q-32 -66 -90.5 -102.5t-140.5 -36.5q-106 0 -193 58.5zM604 275.5q27 10.5 45 29.5v542q-40 6 -63 6q-65 0 -106.5 -27t-62.5 -91.5t-21 -177.5
q0 -115 18.5 -179.5t51.5 -88.5t82 -24q29 0 56 10.5zM413 -426q-50 48 -50 131q0 84 50 132t134 48q85 0 135 -48t50 -132q0 -83 -50 -131t-135 -48q-84 0 -134 48z" />
    <glyph glyph-name="uni1E0E" unicode="&#x1e0e;" horiz-adv-x="1308" 
d="M99 2v1450q217 47 415 47q371 0 552.5 -185t181.5 -574q0 -263 -86 -431t-259.5 -248t-438.5 -80q-176 0 -365 21zM740.5 315q72.5 44 110.5 147t38 278t-39 278.5t-112.5 148t-182.5 44.5q-26 0 -56.5 -3t-52.5 -8v-925q63 -4 111 -4q111 0 183.5 44zM264 -379v220h715
v-220h-715z" />
    <glyph glyph-name="uni1E0F" unicode="&#x1e0f;" horiz-adv-x="1078" 
d="M239 37.5q-87 58.5 -139.5 181.5t-52.5 308q0 291 137.5 438.5t428.5 147.5q24 0 36 -1v504h342v-1616h-290l-23 118h-15q-32 -66 -90.5 -102.5t-140.5 -36.5q-106 0 -193 58.5zM604 275.5q27 10.5 45 29.5v542q-40 6 -63 6q-65 0 -106.5 -27t-62.5 -91.5t-21 -177.5
q0 -115 18.5 -179.5t51.5 -88.5t82 -24q29 0 56 10.5zM210 -400v218h675v-218h-675z" />
    <glyph glyph-name="uni1E14" unicode="&#x1e14;" horiz-adv-x="1103" 
d="M441 297h607v-297h-949v1480h939v-297h-597v-279h495v-297h-495v-310zM423 1972l-208 232h386l157 -232h-335zM233 1636v220h715v-220h-715z" />
    <glyph glyph-name="uni1E15" unicode="&#x1e15;" horiz-adv-x="977" 
d="M941 445h-547q4 -75 28 -116.5t76 -59.5t143 -18q104 0 247 35v-271q-79 -19 -147.5 -27.5t-142.5 -8.5q-196 0 -316.5 59t-177.5 185t-57 331q0 271 120 416t345 145q212 0 320.5 -145.5t108.5 -426.5v-98zM445 872q-25 -20 -38 -73t-14 -149h229q-1 97 -13 149.5
t-35.5 72.5t-63.5 20t-65 -20zM162 1310v220h683v-220h-683zM351 1678l-208 310h355l157 -310h-304z" />
    <glyph glyph-name="uni1E16" unicode="&#x1e16;" horiz-adv-x="1103" 
d="M441 297h607v-297h-949v1480h939v-297h-597v-279h495v-297h-495v-310zM423 1972l157 232h386l-208 -232h-335zM233 1636v220h715v-220h-715z" />
    <glyph glyph-name="uni1E17" unicode="&#x1e17;" horiz-adv-x="977" 
d="M941 445h-547q4 -75 28 -116.5t76 -59.5t143 -18q104 0 247 35v-271q-79 -19 -147.5 -27.5t-142.5 -8.5q-196 0 -316.5 59t-177.5 185t-57 331q0 271 120 416t345 145q212 0 320.5 -145.5t108.5 -426.5v-98zM445 872q-25 -20 -38 -73t-14 -149h229q-1 97 -13 149.5
t-35.5 72.5t-63.5 20t-65 -20zM162 1310v220h683v-220h-683zM351 1678l158 310h354l-208 -310h-304z" />
    <glyph glyph-name="uni1E1C" unicode="&#x1e1c;" horiz-adv-x="1103" 
d="M346 1670.5q-91 78.5 -105 225.5h208q9 -72 43.5 -104t98.5 -32t98 32t43 104h207q-13 -147 -103.5 -225.5t-244.5 -78.5t-245 78.5zM651 0v-84q85 -14 130.5 -58.5t45.5 -118.5q0 -191 -280 -191q-101 0 -187 28v137q38 -14 83.5 -21t84.5 -7q59 0 86 15.5t27 52.5
q0 71 -116 71h-42v176h-384v1480h939v-297h-597v-279h495v-297h-495v-310h607v-297h-397z" />
    <glyph glyph-name="uni1E1D" unicode="&#x1e1d;" horiz-adv-x="977" 
d="M265.5 1325.5q-88.5 87.5 -97.5 269.5h207q5 -95 37.5 -137.5t91.5 -42.5q58 0 90.5 42.5t36.5 137.5h208q-9 -182 -97.5 -269.5t-237.5 -87.5q-150 0 -238.5 87.5zM941 445h-547q4 -75 28 -116.5t76 -59.5t143 -18q104 0 247 35v-271q-79 -19 -147 -27.5t-142 -8.5v-65
q74 -15 114 -60t40 -115q0 -90 -64 -140.5t-197 -50.5q-82 0 -166 27v137q37 -13 76.5 -20t71.5 -7q49 0 71.5 15.5t22.5 51.5q0 72 -97 72h-40v168q-134 23 -218.5 90t-125 183t-40.5 289q0 271 120 416t345 145q212 0 320.5 -145.5t108.5 -426.5v-98zM445 872
q-25 -20 -38 -73t-14 -149h229q-1 97 -13 149.5t-35.5 72.5t-63.5 20t-65 -20z" />
    <glyph glyph-name="uni1E20" unicode="&#x1e20;" horiz-adv-x="1256" 
d="M1166 720v-709q-187 -30 -332 -30q-388 0 -581 184.5t-193 574.5q0 385 195.5 572.5t571.5 187.5q87 0 159.5 -9t144.5 -28v-292q-73 18 -136 26.5t-129 8.5q-158 0 -254.5 -44.5t-142.5 -147.5t-46 -279q0 -168 42.5 -270t124.5 -147t206 -45q33 0 49 1v446h321z
M375 1636v220h715v-220h-715z" />
    <glyph glyph-name="uni1E21" unicode="&#x1e21;" horiz-adv-x="1078" 
d="M276 -451q-83 9 -152 26v272q141 -38 277 -38q127 0 187.5 55.5t60.5 186.5v66h-17q-33 -61 -90 -94.5t-133 -33.5q-96 0 -178 57t-133 178.5t-51 303.5q0 290 137.5 438t429.5 149q96 0 196.5 -16t180.5 -46v-942q0 -299 -138 -435t-421 -136q-73 0 -156 9zM607.5 280.5
q24.5 8.5 41.5 23.5v544q-40 6 -66 6q-62 0 -103 -26.5t-62.5 -91.5t-21.5 -177q0 -114 18 -176.5t53 -86.5t91 -24q25 0 49.5 8.5zM218 1310v220h683v-220h-683z" />
    <glyph glyph-name="uni1E24" unicode="&#x1e24;" horiz-adv-x="1346" 
d="M99 0v1480h347v-565h454v565h347v-1480h-347v597h-454v-597h-347zM518 -401.5q-56 41.5 -56 122.5t56 122.5t156 41.5t156 -41.5t56 -122.5t-56 -122.5t-156 -41.5t-156 41.5z" />
    <glyph glyph-name="uni1E25" unicode="&#x1e25;" horiz-adv-x="1075" 
d="M87 1616h342v-632h16q41 64 102.5 97.5t150.5 33.5q131 0 212.5 -95.5t81.5 -302.5v-717h-342v686q0 68 -25 96.5t-72 28.5q-34 0 -68.5 -15.5t-55.5 -43.5v-752h-342v1616zM407 -426q-50 48 -50 131q0 84 50 132t134 48q85 0 135 -48t50 -132q0 -83 -50 -131t-135 -48
q-84 0 -134 48z" />
    <glyph glyph-name="uni1E2A" unicode="&#x1e2a;" horiz-adv-x="1346" 
d="M99 0v1480h347v-565h454v565h347v-1480h-347v597h-454v-597h-347zM429 -364q-91 79 -104 226h208q8 -72 43 -104.5t99 -32.5t98.5 32.5t42.5 104.5h207q-13 -147 -103.5 -226t-244.5 -79q-155 0 -246 79z" />
    <glyph glyph-name="uni1E2B" unicode="&#x1e2b;" horiz-adv-x="1075" 
d="M87 1616h342v-632h16q41 64 102.5 97.5t150.5 33.5q131 0 212.5 -95.5t81.5 -302.5v-717h-342v686q0 68 -25 96.5t-72 28.5q-34 0 -68.5 -15.5t-55.5 -43.5v-752h-342v1616zM299 -383.5q-88 85.5 -93 240.5h207q2 -79 33.5 -116.5t95.5 -37.5q62 0 93.5 38t33.5 116h208
q-5 -156 -93 -241t-242 -85q-155 0 -243 85.5z" />
    <glyph glyph-name="uni1E2E" unicode="&#x1e2e;" horiz-adv-x="544" 
d="M99 0v1480h347v-1480h-347zM105 1972l157 232h386l-208 -232h-335zM-107 1629.5q-49 42.5 -49 120.5q0 79 49 121.5t139 42.5t139 -42.5t49 -121.5q0 -78 -49 -120.5t-139 -42.5t-139 42.5zM374 1629.5q-49 42.5 -49 120.5q0 79 49 121.5t139 42.5q89 0 138 -43t49 -121
t-49 -120.5t-138 -42.5q-90 0 -139 42.5z" />
    <glyph glyph-name="uni1E2F" unicode="&#x1e2f;" horiz-adv-x="518" 
d="M87 0v1097h344v-1097h-344zM-106 1287q-50 48 -50 132q0 83 50 131t135 48q84 0 134 -48t50 -131q0 -84 -50 -132t-134 -48q-85 0 -135 48zM355.5 1287q-49.5 48 -49.5 132q0 83 49.5 131t134.5 48t134.5 -48t49.5 -131q0 -84 -49.5 -132t-134.5 -48t-134.5 48zM107 1678
l158 310h354l-208 -310h-304z" />
    <glyph glyph-name="uni1E36" unicode="&#x1e36;" horiz-adv-x="1016" 
d="M99 0v1480h347v-1173h566v-307h-913zM399 -401.5q-56 41.5 -56 122.5t56 122.5t156 41.5t156 -41.5t56 -122.5t-56 -122.5t-156 -41.5t-156 41.5z" />
    <glyph glyph-name="uni1E37" unicode="&#x1e37;" horiz-adv-x="516" 
d="M87 0v1616h342v-1616h-342zM125 -426q-50 48 -50 131q0 84 50 132t134 48q85 0 135 -48t50 -132q0 -83 -50 -131t-135 -48q-84 0 -134 48z" />
    <glyph glyph-name="uni1E3A" unicode="&#x1e3a;" horiz-adv-x="1016" 
d="M99 0v1480h347v-1173h566v-307h-913zM198 -379v220h715v-220h-715z" />
    <glyph glyph-name="uni1E3B" unicode="&#x1e3b;" horiz-adv-x="516" 
d="M87 0v1616h342v-1616h-342zM-78 -400v218h675v-218h-675z" />
    <glyph glyph-name="uni1E42" unicode="&#x1e42;" horiz-adv-x="1706" 
d="M1175 1480h428v-1480h-323v992l-291 -775h-272l-292 749v-966h-322v1480h427l329 -874zM719 -401.5q-56 41.5 -56 122.5t56 122.5t156 41.5t156 -41.5t56 -122.5t-56 -122.5t-156 -41.5t-156 41.5z" />
    <glyph glyph-name="uni1E43" unicode="&#x1e43;" horiz-adv-x="1603" 
d="M1435 1019.5q86 -95.5 86 -306.5v-713h-342v694q0 117 -96 117q-27 0 -57.5 -12t-53.5 -35q1 -10 1 -30v-734h-335v694q0 64 -24 90.5t-68 26.5q-31 0 -64.5 -16t-52.5 -44v-751h-342v1097h284l25 -114h15q51 67 117.5 99.5t152.5 32.5q79 0 141 -33t100 -103
q52 66 125.5 101t155.5 35q146 0 232 -95.5zM672 -426q-50 48 -50 131q0 84 50 132t134 48q85 0 135 -48t50 -132q0 -83 -50 -131t-135 -48q-84 0 -134 48z" />
    <glyph glyph-name="uni1E44" unicode="&#x1e44;" horiz-adv-x="1362" 
d="M939 1480h324v-1480h-346l-494 900v-900h-324v1480h346l494 -900v900zM525 1628q-56 41 -56 122t56 122.5t156 41.5q101 0 156.5 -41t55.5 -123q0 -81 -55.5 -122t-156.5 -41q-100 0 -156 41z" />
    <glyph glyph-name="uni1E45" unicode="&#x1e45;" horiz-adv-x="1075" 
d="M87 1097h284l25 -113h15q49 65 116.5 98t151.5 33q144 0 228.5 -95t84.5 -303v-717h-342v691q0 66 -25 93t-72 27q-35 0 -69 -15.5t-55 -43.5v-752h-342v1097zM383 1279.5q-52 48.5 -52 139.5q0 90 52 139t158 49t158.5 -49t52.5 -139q0 -91 -52.5 -139.5t-158.5 -48.5
t-158 48.5z" />
    <glyph glyph-name="uni1E46" unicode="&#x1e46;" horiz-adv-x="1362" 
d="M939 1480h324v-1480h-346l-494 900v-900h-324v1480h346l494 -900v900zM525 -401.5q-56 41.5 -56 122.5t56 122.5t156 41.5t156 -41.5t56 -122.5t-56 -122.5t-156 -41.5t-156 41.5z" />
    <glyph glyph-name="uni1E47" unicode="&#x1e47;" horiz-adv-x="1075" 
d="M87 1097h284l25 -113h15q49 65 116.5 98t151.5 33q144 0 228.5 -95t84.5 -303v-717h-342v691q0 66 -25 93t-72 27q-35 0 -69 -15.5t-55 -43.5v-752h-342v1097zM407 -426q-50 48 -50 131q0 84 50 132t134 48q85 0 135 -48t50 -132q0 -83 -50 -131t-135 -48q-84 0 -134 48z
" />
    <glyph glyph-name="uni1E48" unicode="&#x1e48;" horiz-adv-x="1362" 
d="M939 1480h324v-1480h-346l-494 900v-900h-324v1480h346l494 -900v900zM324 -379v220h715v-220h-715z" />
    <glyph glyph-name="uni1E49" unicode="&#x1e49;" horiz-adv-x="1075" 
d="M87 1097h284l25 -113h15q49 65 116.5 98t151.5 33q144 0 228.5 -95t84.5 -303v-717h-342v691q0 66 -25 93t-72 27q-35 0 -69 -15.5t-55 -43.5v-752h-342v1097zM204 -400v218h675v-218h-675z" />
    <glyph glyph-name="uni1E4C" unicode="&#x1e4c;" horiz-adv-x="1364" 
d="M353 59.5q-139 79.5 -216 249t-77 431.5t77 431.5t216 249t329 79.5t329 -79.5t216 -249t77 -431.5t-77 -431.5t-216 -249t-329 -79.5t-329 79.5zM827 313.5q58 44.5 88.5 147t30.5 272.5q0 177 -30.5 282t-88.5 150.5t-145 45.5t-145 -44.5t-88.5 -147t-30.5 -272.5
q0 -177 30.5 -282t88.5 -150.5t145 -45.5t145 44.5zM515 1972l157 232h386l-208 -232h-335zM759.5 1612q-40.5 11 -95.5 32q-50 19 -82 28t-67 9q-58 0 -102.5 -18.5t-90.5 -57.5v211q39 39 85 57.5t111 18.5q47 0 86.5 -11t95.5 -32q47 -19 81 -28.5t69 -9.5q58 0 102.5 18
t90.5 57v-211q-38 -39 -84.5 -56.5t-111.5 -17.5q-47 0 -87.5 11z" />
    <glyph glyph-name="uni1E4D" unicode="&#x1e4d;" horiz-adv-x="1046" 
d="M169 117.5q-122 138.5 -122 424.5q0 291 122 432t354 141q231 0 354 -143t123 -427q0 -287 -122.5 -426.5t-354.5 -139.5t-354 138.5zM595 256.5q27 24.5 41 91.5t14 193q0 129 -14.5 199t-42 95.5t-70.5 25.5t-70.5 -25.5t-42 -94t-14.5 -195.5q0 -129 14 -197t41 -92.5
t72 -24.5t72 24.5zM596.5 1280.5q-37.5 12.5 -91.5 37.5q-46 22 -76.5 32.5t-61.5 10.5q-54 0 -97 -20.5t-88 -66.5v225q38 41 83.5 60t105.5 19q43 0 81.5 -13t88.5 -38q46 -22 76.5 -32.5t61.5 -10.5q54 0 97.5 21t88.5 67v-225q-38 -41 -83.5 -60t-105.5 -19
q-42 0 -79.5 12.5zM371 1678l158 310h354l-208 -310h-304z" />
    <glyph glyph-name="uni1E4E" unicode="&#x1e4e;" horiz-adv-x="1364" 
d="M353 59.5q-139 79.5 -216 249t-77 431.5t77 431.5t216 249t329 79.5t329 -79.5t216 -249t77 -431.5t-77 -431.5t-216 -249t-329 -79.5t-329 79.5zM827 313.5q58 44.5 88.5 147t30.5 272.5q0 177 -30.5 282t-88.5 150.5t-145 45.5t-145 -44.5t-88.5 -147t-30.5 -272.5
q0 -177 30.5 -282t88.5 -150.5t145 -45.5t145 44.5zM759.5 1612q-40.5 11 -95.5 32q-50 19 -82 28t-67 9q-58 0 -102.5 -18.5t-90.5 -57.5v211q39 39 85 57.5t111 18.5q47 0 86.5 -11t95.5 -32q47 -19 81 -28.5t69 -9.5q58 0 102.5 18t90.5 57v-211q-38 -39 -84.5 -56.5
t-111.5 -17.5q-47 0 -87.5 11zM303 2011.5q-49 42.5 -49 120.5q0 79 49 121.5t139 42.5t139 -42.5t49 -121.5q0 -78 -49 -120.5t-139 -42.5t-139 42.5zM784 2011.5q-49 42.5 -49 120.5q0 79 49 121.5t139 42.5q89 0 138 -43t49 -121t-49 -120.5t-138 -42.5q-90 0 -139 42.5z
" />
    <glyph glyph-name="uni1E4F" unicode="&#x1e4f;" horiz-adv-x="1046" 
d="M169 117.5q-122 138.5 -122 424.5q0 291 122 432t354 141q231 0 354 -143t123 -427q0 -287 -122.5 -426.5t-354.5 -139.5t-354 138.5zM595 256.5q27 24.5 41 91.5t14 193q0 129 -14.5 199t-42 95.5t-70.5 25.5t-70.5 -25.5t-42 -94t-14.5 -195.5q0 -129 14 -197t41 -92.5
t72 -24.5t72 24.5zM596.5 1280.5q-37.5 12.5 -91.5 37.5q-46 22 -76.5 32.5t-61.5 10.5q-54 0 -97 -20.5t-88 -66.5v225q38 41 83.5 60t105.5 19q43 0 81.5 -13t88.5 -38q46 -22 76.5 -32.5t61.5 -10.5q54 0 97.5 21t88.5 67v-225q-38 -41 -83.5 -60t-105.5 -19
q-42 0 -79.5 12.5zM158 1695q-50 48 -50 132q0 83 50 131t135 48q84 0 134 -48t50 -131q0 -84 -50 -132t-134 -48q-85 0 -135 48zM619.5 1695q-49.5 48 -49.5 132q0 83 49.5 131t134.5 48t134.5 -48t49.5 -131q0 -84 -49.5 -132t-134.5 -48t-134.5 48z" />
    <glyph glyph-name="uni1E50" unicode="&#x1e50;" horiz-adv-x="1364" 
d="M353 59.5q-139 79.5 -216 249t-77 431.5t77 431.5t216 249t329 79.5t329 -79.5t216 -249t77 -431.5t-77 -431.5t-216 -249t-329 -79.5t-329 79.5zM827 313.5q58 44.5 88.5 147t30.5 272.5q0 177 -30.5 282t-88.5 150.5t-145 45.5t-145 -44.5t-88.5 -147t-30.5 -272.5
q0 -177 30.5 -282t88.5 -150.5t145 -45.5t145 44.5zM515 1972l-208 232h386l157 -232h-335zM325 1636v220h715v-220h-715z" />
    <glyph glyph-name="uni1E51" unicode="&#x1e51;" horiz-adv-x="1046" 
d="M169 117.5q-122 138.5 -122 424.5q0 291 122 432t354 141q231 0 354 -143t123 -427q0 -287 -122.5 -426.5t-354.5 -139.5t-354 138.5zM595 256.5q27 24.5 41 91.5t14 193q0 129 -14.5 199t-42 95.5t-70.5 25.5t-70.5 -25.5t-42 -94t-14.5 -195.5q0 -129 14 -197t41 -92.5
t72 -24.5t72 24.5zM182 1310v220h683v-220h-683zM371 1678l-208 310h355l157 -310h-304z" />
    <glyph glyph-name="uni1E52" unicode="&#x1e52;" horiz-adv-x="1364" 
d="M353 59.5q-139 79.5 -216 249t-77 431.5t77 431.5t216 249t329 79.5t329 -79.5t216 -249t77 -431.5t-77 -431.5t-216 -249t-329 -79.5t-329 79.5zM827 313.5q58 44.5 88.5 147t30.5 272.5q0 177 -30.5 282t-88.5 150.5t-145 45.5t-145 -44.5t-88.5 -147t-30.5 -272.5
q0 -177 30.5 -282t88.5 -150.5t145 -45.5t145 44.5zM515 1972l157 232h386l-208 -232h-335zM325 1636v220h715v-220h-715z" />
    <glyph glyph-name="uni1E53" unicode="&#x1e53;" horiz-adv-x="1046" 
d="M169 117.5q-122 138.5 -122 424.5q0 291 122 432t354 141q231 0 354 -143t123 -427q0 -287 -122.5 -426.5t-354.5 -139.5t-354 138.5zM595 256.5q27 24.5 41 91.5t14 193q0 129 -14.5 199t-42 95.5t-70.5 25.5t-70.5 -25.5t-42 -94t-14.5 -195.5q0 -129 14 -197t41 -92.5
t72 -24.5t72 24.5zM182 1310v220h683v-220h-683zM371 1678l158 310h354l-208 -310h-304z" />
    <glyph glyph-name="uni1E5A" unicode="&#x1e5a;" horiz-adv-x="1251" 
d="M878 0l-319 523l-68 1q-17 1 -50 1v-525h-342v1452q217 47 428 47q307 0 459.5 -121.5t152.5 -366.5q1 -152 -66.5 -260t-191.5 -165l366 -586h-369zM441 801q60 -6 118 -6q127 0 189.5 50.5t62.5 165.5q0 219 -237 219q-73 0 -133 -11v-418zM514 -401.5
q-56 41.5 -56 122.5t56 122.5t156 41.5t156 -41.5t56 -122.5t-56 -122.5t-156 -41.5t-156 41.5z" />
    <glyph glyph-name="uni1E5B" unicode="&#x1e5b;" horiz-adv-x="749" 
d="M87 1097h281l26 -153h15q65 170 252 170q36 0 78 -8v-317q-37 8 -101 8q-65 0 -122.5 -24t-86.5 -64v-709h-342v1097zM125 -426q-50 48 -50 131q0 84 50 132t134 48q85 0 135 -48t50 -132q0 -83 -50 -131t-135 -48q-84 0 -134 48z" />
    <glyph glyph-name="uni1E5E" unicode="&#x1e5e;" horiz-adv-x="1251" 
d="M878 0l-319 523l-68 1q-17 1 -50 1v-525h-342v1452q217 47 428 47q307 0 459.5 -121.5t152.5 -366.5q1 -152 -66.5 -260t-191.5 -165l366 -586h-369zM441 801q60 -6 118 -6q127 0 189.5 50.5t62.5 165.5q0 219 -237 219q-73 0 -133 -11v-418zM313 -379v220h715v-220h-715
z" />
    <glyph glyph-name="uni1E5F" unicode="&#x1e5f;" horiz-adv-x="749" 
d="M87 1097h281l26 -153h15q65 170 252 170q36 0 78 -8v-317q-37 8 -101 8q-65 0 -122.5 -24t-86.5 -64v-709h-342v1097zM-78 -400v218h675v-218h-675z" />
    <glyph glyph-name="uni1E60" unicode="&#x1e60;" horiz-adv-x="1025" 
d="M245 -4q-100 16 -177 45v290q189 -59 359 -59q221 0 221 141q0 37 -15.5 63.5t-54 49.5t-108.5 46l-110 37q-154 52 -243.5 158.5t-89.5 269.5q0 144 64.5 248t194.5 159.5t321 55.5q87 0 168.5 -10.5t144.5 -29.5v-290q-60 18 -132.5 28t-145.5 10q-144 0 -205 -38.5
t-61 -105.5q0 -35 13.5 -59.5t47 -44.5t95.5 -42l111 -37q172 -57 263.5 -161.5t91.5 -274.5q0 -142 -66.5 -247t-193.5 -161.5t-303 -56.5q-90 0 -190 16zM367 1628q-56 41 -56 122t56 122.5t156 41.5q101 0 156.5 -41t55.5 -123q0 -81 -55.5 -122t-156.5 -41
q-100 0 -156 41z" />
    <glyph glyph-name="uni1E61" unicode="&#x1e61;" horiz-adv-x="834" 
d="M68 25v270q135 -47 290 -47q76 0 109 22t33 63q0 29 -15.5 45.5t-48.5 24.5l-151 37q-252 60 -252 319q0 108 53.5 188.5t158 124t255.5 43.5q134 0 250 -29v-270q-111 30 -231 30q-96 0 -136.5 -24.5t-40.5 -63.5q0 -26 16 -41.5t50 -23.5l151 -37q126 -31 188.5 -106
t62.5 -210q0 -111 -54 -192.5t-154.5 -125t-236.5 -43.5q-163 0 -297 46zM255 1279.5q-52 48.5 -52 139.5q0 90 52 139t158 49t158.5 -49t52.5 -139q0 -91 -52.5 -139.5t-158.5 -48.5t-158 48.5z" />
    <glyph glyph-name="uni1E62" unicode="&#x1e62;" horiz-adv-x="1025" 
d="M245 -4q-100 16 -177 45v290q189 -59 359 -59q221 0 221 141q0 37 -15.5 63.5t-54 49.5t-108.5 46l-110 37q-154 52 -243.5 158.5t-89.5 269.5q0 144 64.5 248t194.5 159.5t321 55.5q87 0 168.5 -10.5t144.5 -29.5v-290q-60 18 -132.5 28t-145.5 10q-144 0 -205 -38.5
t-61 -105.5q0 -35 13.5 -59.5t47 -44.5t95.5 -42l111 -37q172 -57 263.5 -161.5t91.5 -274.5q0 -142 -66.5 -247t-193.5 -161.5t-303 -56.5q-90 0 -190 16zM367 -401.5q-56 41.5 -56 122.5t56 122.5t156 41.5t156 -41.5t56 -122.5t-56 -122.5t-156 -41.5t-156 41.5z" />
    <glyph glyph-name="uni1E63" unicode="&#x1e63;" horiz-adv-x="834" 
d="M68 25v270q135 -47 290 -47q76 0 109 22t33 63q0 29 -15.5 45.5t-48.5 24.5l-151 37q-252 60 -252 319q0 108 53.5 188.5t158 124t255.5 43.5q134 0 250 -29v-270q-111 30 -231 30q-96 0 -136.5 -24.5t-40.5 -63.5q0 -26 16 -41.5t50 -23.5l151 -37q126 -31 188.5 -106
t62.5 -210q0 -111 -54 -192.5t-154.5 -125t-236.5 -43.5q-163 0 -297 46zM279 -426q-50 48 -50 131q0 84 50 132t134 48q85 0 135 -48t50 -132q0 -83 -50 -131t-135 -48q-84 0 -134 48z" />
    <glyph glyph-name="uni1E64" unicode="&#x1e64;" horiz-adv-x="1025" 
d="M245 -4q-100 16 -177 45v290q189 -59 359 -59q221 0 221 141q0 37 -15.5 63.5t-54 49.5t-108.5 46l-110 37q-154 52 -243.5 158.5t-89.5 269.5q0 144 64.5 248t194.5 159.5t321 55.5q87 0 168.5 -10.5t144.5 -29.5v-290q-60 18 -132.5 28t-145.5 10q-144 0 -205 -38.5
t-61 -105.5q0 -35 13.5 -59.5t47 -44.5t95.5 -42l111 -37q172 -57 263.5 -161.5t91.5 -274.5q0 -142 -66.5 -247t-193.5 -161.5t-303 -56.5q-90 0 -190 16zM133.5 1893.5q-44.5 33.5 -44.5 99.5t45 99.5t125 33.5q81 0 126 -34t45 -99q0 -66 -45 -99.5t-126 -33.5
t-125.5 33.5zM371 1590l158 310h354l-208 -310h-304z" />
    <glyph glyph-name="uni1E65" unicode="&#x1e65;" horiz-adv-x="834" 
d="M68 25v270q135 -47 290 -47q76 0 109 22t33 63q0 29 -15.5 45.5t-48.5 24.5l-151 37q-252 60 -252 319q0 108 53.5 188.5t158 124t255.5 43.5q134 0 250 -29v-270q-111 30 -231 30q-96 0 -136.5 -24.5t-40.5 -63.5q0 -26 16 -41.5t50 -23.5l151 -37q126 -31 188.5 -106
t62.5 -210q0 -111 -54 -192.5t-154.5 -125t-236.5 -43.5q-163 0 -297 46zM110 1609.5q-45 33.5 -45 99.5q0 65 45 99t125 34q81 0 126 -34t45 -99q0 -66 -45 -99.5t-126 -33.5q-80 0 -125 33.5zM265 1226l199 390h345l-247 -390h-297z" />
    <glyph glyph-name="uni1E66" unicode="&#x1e66;" horiz-adv-x="1025" 
d="M245 -4q-100 16 -177 45v290q189 -59 359 -59q221 0 221 141q0 37 -15.5 63.5t-54 49.5t-108.5 46l-110 37q-154 52 -243.5 158.5t-89.5 269.5q0 144 64.5 248t194.5 159.5t321 55.5q87 0 168.5 -10.5t144.5 -29.5v-290q-60 18 -132.5 28t-145.5 10q-144 0 -205 -38.5
t-61 -105.5q0 -35 13.5 -59.5t47 -44.5t95.5 -42l111 -37q172 -57 263.5 -161.5t91.5 -274.5q0 -142 -66.5 -247t-193.5 -161.5t-303 -56.5q-90 0 -190 16zM397.5 1968q-44.5 33 -44.5 99t44.5 99.5t125.5 33.5t126 -33.5t45 -99.5t-45 -99t-126 -33t-125.5 33zM630 1900
h231l-193 -310h-290l-192 310h230l107 -186z" />
    <glyph glyph-name="uni1E67" unicode="&#x1e67;" horiz-adv-x="834" 
d="M68 25v270q135 -47 290 -47q76 0 109 22t33 63q0 29 -15.5 45.5t-48.5 24.5l-151 37q-252 60 -252 319q0 108 53.5 188.5t158 124t255.5 43.5q134 0 250 -29v-270q-111 30 -231 30q-96 0 -136.5 -24.5t-40.5 -63.5q0 -26 16 -41.5t50 -23.5l151 -37q126 -31 188.5 -106
t62.5 -210q0 -111 -54 -192.5t-154.5 -125t-236.5 -43.5q-163 0 -297 46zM287.5 1683.5q-44.5 33.5 -44.5 99.5t44.5 99.5t125.5 33.5t126 -33.5t45 -99.5t-45 -99.5t-126 -33.5t-125.5 33.5zM519 1616h229l-190 -390h-290l-189 390h229l105 -235z" />
    <glyph glyph-name="uni1E68" unicode="&#x1e68;" horiz-adv-x="1025" 
d="M245 -4q-100 16 -177 45v290q189 -59 359 -59q221 0 221 141q0 37 -15.5 63.5t-54 49.5t-108.5 46l-110 37q-154 52 -243.5 158.5t-89.5 269.5q0 144 64.5 248t194.5 159.5t321 55.5q87 0 168.5 -10.5t144.5 -29.5v-290q-60 18 -132.5 28t-145.5 10q-144 0 -205 -38.5
t-61 -105.5q0 -35 13.5 -59.5t47 -44.5t95.5 -42l111 -37q172 -57 263.5 -161.5t91.5 -274.5q0 -142 -66.5 -247t-193.5 -161.5t-303 -56.5q-90 0 -190 16zM367 -401.5q-56 41.5 -56 122.5t56 122.5t156 41.5t156 -41.5t56 -122.5t-56 -122.5t-156 -41.5t-156 41.5z
M367 1628q-56 41 -56 122t56 122.5t156 41.5q101 0 156.5 -41t55.5 -123q0 -81 -55.5 -122t-156.5 -41q-100 0 -156 41z" />
    <glyph glyph-name="uni1E69" unicode="&#x1e69;" horiz-adv-x="834" 
d="M68 25v270q135 -47 290 -47q76 0 109 22t33 63q0 29 -15.5 45.5t-48.5 24.5l-151 37q-252 60 -252 319q0 108 53.5 188.5t158 124t255.5 43.5q134 0 250 -29v-270q-111 30 -231 30q-96 0 -136.5 -24.5t-40.5 -63.5q0 -26 16 -41.5t50 -23.5l151 -37q126 -31 188.5 -106
t62.5 -210q0 -111 -54 -192.5t-154.5 -125t-236.5 -43.5q-163 0 -297 46zM279 -426q-50 48 -50 131q0 84 50 132t134 48q85 0 135 -48t50 -132q0 -83 -50 -131t-135 -48q-84 0 -134 48zM255 1279.5q-52 48.5 -52 139.5q0 90 52 139t158 49t158.5 -49t52.5 -139
q0 -91 -52.5 -139.5t-158.5 -48.5t-158 48.5z" />
    <glyph glyph-name="uni1E6C" unicode="&#x1e6c;" horiz-adv-x="1157" 
d="M404 0v1173h-399v307h1148v-307h-400v-1173h-349zM424 -401.5q-56 41.5 -56 122.5t56 122.5t156 41.5t156 -41.5t56 -122.5t-56 -122.5t-156 -41.5t-156 41.5z" />
    <glyph glyph-name="uni1E6D" unicode="&#x1e6d;" horiz-adv-x="761" 
d="M733 281v-278q-41 -10 -91.5 -16.5t-97.5 -6.5q-195 0 -295.5 102t-100.5 324v424h-148v267h148l63 383h279v-383h240v-267h-240v-385q0 -67 14 -104t45 -53t87 -16q27 0 97 9zM307 -426q-50 48 -50 131q0 84 50 132t134 48q85 0 135 -48t50 -132q0 -83 -50 -131
t-135 -48q-84 0 -134 48z" />
    <glyph glyph-name="uni1E6E" unicode="&#x1e6e;" horiz-adv-x="1157" 
d="M404 0v1173h-399v307h1148v-307h-400v-1173h-349zM223 -379v220h715v-220h-715z" />
    <glyph glyph-name="uni1E6F" unicode="&#x1e6f;" horiz-adv-x="761" 
d="M733 281v-278q-41 -10 -91.5 -16.5t-97.5 -6.5q-195 0 -295.5 102t-100.5 324v424h-148v267h148l63 383h279v-383h240v-267h-240v-385q0 -67 14 -104t45 -53t87 -16q27 0 97 9zM104 -400v218h675v-218h-675z" />
    <glyph glyph-name="uni1E78" unicode="&#x1e78;" horiz-adv-x="1319" 
d="M344 42.5q-126 62.5 -189 197t-63 349.5v891h347v-931q0 -148 56.5 -212.5t168.5 -64.5t167 64.5t55 212.5v931h340v-891q0 -216 -61 -350t-185 -196.5t-316 -62.5q-194 0 -320 62.5zM497 1972l157 232h386l-208 -232h-335zM741.5 1612q-40.5 11 -95.5 32q-50 19 -82 28
t-67 9q-58 0 -102.5 -18.5t-90.5 -57.5v211q39 39 85 57.5t111 18.5q47 0 86.5 -11t95.5 -32q47 -19 81 -28.5t69 -9.5q58 0 102.5 18t90.5 57v-211q-38 -39 -84.5 -56.5t-111.5 -17.5q-47 0 -87.5 11z" />
    <glyph glyph-name="uni1E79" unicode="&#x1e79;" horiz-adv-x="1066" 
d="M166.5 74.5q-84.5 94.5 -84.5 300.5v722h342v-691q0 -122 94 -122q31 0 64.5 15.5t54.5 43.5v754h342v-1097h-284l-25 113h-15q-103 -133 -263 -133q-141 0 -225.5 94.5zM605.5 1280.5q-37.5 12.5 -91.5 37.5q-46 22 -76.5 32.5t-61.5 10.5q-54 0 -97 -20.5t-88 -66.5
v225q38 41 83.5 60t105.5 19q43 0 81.5 -13t88.5 -38q46 -22 76.5 -32.5t61.5 -10.5q54 0 97.5 21t88.5 67v-225q-38 -41 -83.5 -60t-105.5 -19q-42 0 -79.5 12.5zM380 1678l158 310h354l-208 -310h-304z" />
    <glyph glyph-name="uni1E7A" unicode="&#x1e7a;" horiz-adv-x="1319" 
d="M344 42.5q-126 62.5 -189 197t-63 349.5v891h347v-931q0 -148 56.5 -212.5t168.5 -64.5t167 64.5t55 212.5v931h340v-891q0 -216 -61 -350t-185 -196.5t-316 -62.5q-194 0 -320 62.5zM307 1636v220h715v-220h-715zM285 2011.5q-49 42.5 -49 120.5q0 79 49 121.5t139 42.5
t139 -42.5t49 -121.5q0 -78 -49 -120.5t-139 -42.5t-139 42.5zM766 2011.5q-49 42.5 -49 120.5q0 79 49 121.5t139 42.5q89 0 138 -43t49 -121t-49 -120.5t-138 -42.5q-90 0 -139 42.5z" />
    <glyph glyph-name="uni1E7B" unicode="&#x1e7b;" horiz-adv-x="1066" 
d="M166.5 74.5q-84.5 94.5 -84.5 300.5v722h342v-691q0 -122 94 -122q31 0 64.5 15.5t54.5 43.5v754h342v-1097h-284l-25 113h-15q-103 -133 -263 -133q-141 0 -225.5 94.5zM191 1310v220h683v-220h-683zM167 1695q-50 48 -50 132q0 83 50 131t135 48q84 0 134 -48t50 -131
q0 -84 -50 -132t-134 -48q-85 0 -135 48zM628.5 1695q-49.5 48 -49.5 132q0 83 49.5 131t134.5 48t134.5 -48t49.5 -131q0 -84 -49.5 -132t-134.5 -48t-134.5 48z" />
    <glyph glyph-name="Wgrave" unicode="&#x1e80;" horiz-adv-x="1993" 
d="M1657 1480h324l-314 -1480h-451l-211 1027l-229 -1027h-451l-314 1480h350l219 -1111l239 1111h379l228 -1128zM845 1590l-208 310h355l157 -310h-304z" />
    <glyph glyph-name="wgrave" unicode="&#x1e81;" horiz-adv-x="1604" 
d="M1291 1097h303l-252 -1097h-367l-170 739l-174 -739h-367l-253 1097h315l143 -696l159 696h366l150 -682zM655 1226l-247 390h344l200 -390h-297z" />
    <glyph glyph-name="Wacute" unicode="&#x1e82;" horiz-adv-x="1993" 
d="M1657 1480h324l-314 -1480h-451l-211 1027l-229 -1027h-451l-314 1480h350l219 -1111l239 1111h379l228 -1128zM845 1590l158 310h354l-208 -310h-304z" />
    <glyph glyph-name="wacute" unicode="&#x1e83;" horiz-adv-x="1604" 
d="M1291 1097h303l-252 -1097h-367l-170 739l-174 -739h-367l-253 1097h315l143 -696l159 696h366l150 -682zM655 1226l199 390h345l-247 -390h-297z" />
    <glyph glyph-name="Wdieresis" unicode="&#x1e84;" horiz-adv-x="1993" 
d="M1657 1480h324l-314 -1480h-451l-211 1027l-229 -1027h-451l-314 1480h350l219 -1111l239 1111h379l228 -1128zM618 1629.5q-49 42.5 -49 120.5q0 79 49 121.5t139 42.5t139 -42.5t49 -121.5q0 -78 -49 -120.5t-139 -42.5t-139 42.5zM1099 1629.5q-49 42.5 -49 120.5
q0 79 49 121.5t139 42.5q89 0 138 -43t49 -121t-49 -120.5t-138 -42.5q-90 0 -139 42.5z" />
    <glyph glyph-name="wdieresis" unicode="&#x1e85;" horiz-adv-x="1604" 
d="M1291 1097h303l-252 -1097h-367l-170 739l-174 -739h-367l-253 1097h315l143 -696l159 696h366l150 -682zM438 1287q-50 48 -50 132q0 83 50 131t135 48q84 0 134 -48t50 -131q0 -84 -50 -132t-134 -48q-85 0 -135 48zM899.5 1287q-49.5 48 -49.5 132q0 83 49.5 131
t134.5 48t134.5 -48t49.5 -131q0 -84 -49.5 -132t-134.5 -48t-134.5 48z" />
    <glyph glyph-name="uni1E8E" unicode="&#x1e8e;" horiz-adv-x="1157" 
d="M1216 1480l-463 -861v-619h-347v617l-471 863h364l291 -546l292 546h334zM425 1628q-56 41 -56 122t56 122.5t156 41.5q101 0 156.5 -41t55.5 -123q0 -81 -55.5 -122t-156.5 -41q-100 0 -156 41z" />
    <glyph glyph-name="uni1E8F" unicode="&#x1e8f;" horiz-adv-x="1025" 
d="M694 1097h338l-418 -1537h-334l121 440h-110l-298 1097h352l173 -767zM355 1279.5q-52 48.5 -52 139.5q0 90 52 139t158 49t158.5 -49t52.5 -139q0 -91 -52.5 -139.5t-158.5 -48.5t-158 48.5z" />
    <glyph glyph-name="uni1E92" unicode="&#x1e92;" horiz-adv-x="1090" 
d="M485 307h569v-307h-1019v195l560 978h-550v307h999v-195zM384 -401.5q-56 41.5 -56 122.5t56 122.5t156 41.5t156 -41.5t56 -122.5t-56 -122.5t-156 -41.5t-156 41.5z" />
    <glyph glyph-name="uni1E93" unicode="&#x1e93;" horiz-adv-x="857" 
d="M423 267h405v-267h-784v212l395 618h-385v267h764v-212zM302 -426q-50 48 -50 131q0 84 50 132t134 48q85 0 135 -48t50 -132q0 -83 -50 -131t-135 -48q-84 0 -134 48z" />
    <glyph glyph-name="uni1E97" unicode="&#x1e97;" horiz-adv-x="761" 
d="M733 281v-278q-41 -10 -91.5 -16.5t-97.5 -6.5q-195 0 -295.5 102t-100.5 324v424h-148v267h148l63 383h279v-383h240v-267h-240v-385q0 -67 14 -104t45 -53t87 -16q27 0 97 9zM-45 1601q-50 48 -50 132q0 83 50 131t135 48q84 0 134 -48t50 -131q0 -84 -50 -132
t-134 -48q-85 0 -135 48zM416.5 1601q-49.5 48 -49.5 132q0 83 49.5 131t134.5 48t134.5 -48t49.5 -131q0 -84 -49.5 -132t-134.5 -48t-134.5 48z" />
    <glyph glyph-name="uni1E9E" unicode="&#x1e9e;" horiz-adv-x="1624" 
d="M1509 719.5q88 -104.5 88 -274.5q0 -143 -64.5 -247.5t-189 -161t-299.5 -56.5q-80 0 -175.5 15t-168.5 42v290q82 -25 169.5 -40t166.5 -15q111 0 163 37t52 104q0 56 -35.5 92t-126.5 67l-108 37q-148 51 -235 158t-87 270q0 92 26 168q-24 8 -58 8q-181 0 -181 -208
v-1005h-347v960q0 262 133 401t395 139q169 0 289 -55q130 55 319 55q75 0 150 -9.5t137 -25.5v-290q-59 16 -127 24.5t-128 8.5q-142 0 -201.5 -38.5t-59.5 -105.5q0 -53 30 -85.5t111 -60.5l107 -37q167 -57 255 -161.5z" />
    <glyph glyph-name="uni1EA0" unicode="&#x1ea0;" horiz-adv-x="1276" 
d="M939 0l-90 369h-426l-89 -369h-337l382 1480h519l382 -1480h-341zM493 663h285l-143 590zM482 -401.5q-56 41.5 -56 122.5t56 122.5t156 41.5t156 -41.5t56 -122.5t-56 -122.5t-156 -41.5t-156 41.5z" />
    <glyph glyph-name="uni1EA1" unicode="&#x1ea1;" horiz-adv-x="986" 
d="M707.5 1071q100.5 -44 148.5 -143t48 -267v-661h-277l-25 113h-15q-68 -134 -240 -134q-91 0 -161.5 39.5t-109.5 112t-39 169.5q0 164 100 253t321 104l114 8v12q0 63 -18 98.5t-60.5 51t-117.5 15.5q-60 0 -127.5 -9.5t-129.5 -27.5v271q71 18 158 28.5t166 10.5
q164 0 264.5 -44zM572 275v194l-73 -6q-64 -4 -96.5 -35.5t-32.5 -88.5q0 -53 27 -80.5t73 -27.5q61 0 102 44zM357 -426q-50 48 -50 131q0 84 50 132t134 48q85 0 135 -48t50 -132q0 -83 -50 -131t-135 -48q-84 0 -134 48z" />
    <glyph glyph-name="uni1EA2" unicode="&#x1ea2;" horiz-adv-x="1276" 
d="M939 0l-90 369h-426l-89 -369h-337l382 1480h519l382 -1480h-341zM493 663h285l-143 590zM584.5 1668q28.5 27 74.5 50q22 11 32.5 19t10.5 17q0 19 -23 28t-74 9q-42 0 -89 -6t-87 -17v132q37 11 96.5 17.5t109.5 6.5q131 0 192 -33.5t61 -106.5q0 -37 -21.5 -59.5
t-63.5 -47.5q-37 -23 -56 -41t-24 -46h-170q3 51 31.5 78z" />
    <glyph glyph-name="uni1EA3" unicode="&#x1ea3;" horiz-adv-x="986" 
d="M707.5 1071q100.5 -44 148.5 -143t48 -267v-661h-277l-25 113h-15q-68 -134 -240 -134q-91 0 -161.5 39.5t-109.5 112t-39 169.5q0 164 100 253t321 104l114 8v12q0 63 -18 98.5t-60.5 51t-117.5 15.5q-60 0 -127.5 -9.5t-129.5 -27.5v271q71 18 158 28.5t166 10.5
q164 0 264.5 -44zM572 275v194l-73 -6q-64 -4 -96.5 -35.5t-32.5 -88.5q0 -53 27 -80.5t73 -27.5q61 0 102 44zM431.5 1318q22.5 34 60.5 66q24 21 34 33t10 29q0 45 -79 45q-78 0 -154 -24v135q37 12 87.5 19t95.5 7q119 0 177.5 -38.5t58.5 -119.5q0 -36 -11 -61.5
t-26 -42t-41 -38.5q-32 -28 -48 -48.5t-20 -53.5h-170q3 58 25.5 92z" />
    <glyph glyph-name="uni1EA4" unicode="&#x1ea4;" horiz-adv-x="1276" 
d="M939 0l-90 369h-426l-89 -369h-337l382 1480h519l382 -1480h-341zM493 663h285l-143 590zM965 2064h213l-142 -241h-163zM493 1862h290l193 -272h-231l-107 165l-107 -165h-230z" />
    <glyph glyph-name="uni1EA5" unicode="&#x1ea5;" horiz-adv-x="986" 
d="M707.5 1071q100.5 -44 148.5 -143t48 -267v-661h-277l-25 113h-15q-68 -134 -240 -134q-91 0 -161.5 39.5t-109.5 112t-39 169.5q0 164 100 253t321 104l114 8v12q0 63 -18 98.5t-60.5 51t-117.5 15.5q-60 0 -127.5 -9.5t-129.5 -27.5v271q71 18 158 28.5t166 10.5
q164 0 264.5 -44zM572 275v194l-73 -6q-64 -4 -96.5 -35.5t-32.5 -88.5q0 -53 27 -80.5t73 -27.5q61 0 102 44zM871 1868h283l-208 -270h-232zM346 1616h290l190 -390h-229l-106 235l-105 -235h-229z" />
    <glyph glyph-name="uni1EA6" unicode="&#x1ea6;" horiz-adv-x="1276" 
d="M939 0l-90 369h-426l-89 -369h-337l382 1480h519l382 -1480h-341zM493 663h285l-143 590zM1073 1823h-163l-142 241h213zM493 1862h290l193 -272h-231l-107 165l-107 -165h-230z" />
    <glyph glyph-name="uni1EA7" unicode="&#x1ea7;" horiz-adv-x="986" 
d="M707.5 1071q100.5 -44 148.5 -143t48 -267v-661h-277l-25 113h-15q-68 -134 -240 -134q-91 0 -161.5 39.5t-109.5 112t-39 169.5q0 164 100 253t321 104l114 8v12q0 63 -18 98.5t-60.5 51t-117.5 15.5q-60 0 -127.5 -9.5t-129.5 -27.5v271q71 18 158 28.5t166 10.5
q164 0 264.5 -44zM572 275v194l-73 -6q-64 -4 -96.5 -35.5t-32.5 -88.5q0 -53 27 -80.5t73 -27.5q61 0 102 44zM980 1598h-231l-208 270h282zM346 1616h290l190 -390h-229l-106 235l-105 -235h-229z" />
    <glyph glyph-name="uni1EA8" unicode="&#x1ea8;" horiz-adv-x="1276" 
d="M939 0l-90 369h-426l-89 -369h-337l382 1480h519l382 -1480h-341zM493 663h285l-143 590zM1146 2086.5q61 -29.5 61 -93.5q0 -33 -21.5 -52.5t-62.5 -41.5q-37 -19 -56.5 -35t-23.5 -41h-170q3 44 30.5 67.5t73.5 44.5q23 10 33.5 17t10.5 16q0 17 -22.5 24.5t-73.5 7.5
q-92 0 -176 -19v112q37 10 96.5 16.5t108.5 6.5q131 0 192 -29.5zM493 1862h290l193 -272h-231l-107 165l-107 -165h-230z" />
    <glyph glyph-name="uni1EA9" unicode="&#x1ea9;" horiz-adv-x="986" 
d="M707.5 1071q100.5 -44 148.5 -143t48 -267v-661h-277l-25 113h-15q-68 -134 -240 -134q-91 0 -161.5 39.5t-109.5 112t-39 169.5q0 164 100 253t321 104l114 8v12q0 63 -18 98.5t-60.5 51t-117.5 15.5q-60 0 -127.5 -9.5t-129.5 -27.5v271q71 18 158 28.5t166 10.5
q164 0 264.5 -44zM572 275v194l-73 -6q-64 -4 -96.5 -35.5t-32.5 -88.5q0 -53 27 -80.5t73 -27.5q61 0 102 44zM982.5 1860.5q60.5 -29.5 60.5 -93.5q0 -33 -21 -52t-63 -41q-37 -20 -56 -35.5t-24 -40.5h-170q3 44 31 67.5t74 44.5q23 10 33.5 17t10.5 16q0 16 -23 23.5
t-74 7.5q-99 0 -176 -19v113q36 10 95.5 16t109.5 6q132 0 192.5 -29.5zM346 1616h290l190 -390h-229l-106 235l-105 -235h-229z" />
    <glyph glyph-name="uni1EAA" unicode="&#x1eaa;" horiz-adv-x="1276" 
d="M939 0l-90 369h-426l-89 -369h-337l382 1480h519l382 -1480h-341zM493 663h285l-143 590zM878 2070q44 15 98 52v-155q-45 -37 -89.5 -49.5t-110.5 -12.5q-38 0 -71 8t-85 24q-42 14 -69 20.5t-54 6.5q-56 0 -99 -15t-97 -52v156q46 37 90.5 50t109.5 13q38 0 72.5 -8.5
t83.5 -24.5q38 -14 66.5 -21t55.5 -7q55 0 99 15zM493 1862h290l193 -272h-231l-107 165l-107 -165h-230z" />
    <glyph glyph-name="uni1EAB" unicode="&#x1eab;" horiz-adv-x="986" 
d="M707.5 1071q100.5 -44 148.5 -143t48 -267v-661h-277l-25 113h-15q-68 -134 -240 -134q-91 0 -161.5 39.5t-109.5 112t-39 169.5q0 164 100 253t321 104l114 8v12q0 63 -18 98.5t-60.5 51t-117.5 15.5q-60 0 -127.5 -9.5t-129.5 -27.5v271q71 18 158 28.5t166 10.5
q164 0 264.5 -44zM572 275v194l-73 -6q-64 -4 -96.5 -35.5t-32.5 -88.5q0 -53 27 -80.5t73 -27.5q61 0 102 44zM759.5 1804q44.5 16 90.5 51v-183q-39 -34 -85 -49.5t-111 -15.5q-46 0 -86.5 9.5t-94.5 28.5q-50 16 -82 24t-66 8q-58 0 -102 -16t-90 -51v184q38 34 84.5 50
t111.5 16q46 0 84 -9.5t96 -28.5q47 -17 80.5 -25.5t68.5 -8.5q57 0 101.5 16zM346 1549h290l190 -321h-229l-106 196l-105 -196h-229z" />
    <glyph glyph-name="uni1EAC" unicode="&#x1eac;" horiz-adv-x="1276" 
d="M939 0l-90 369h-426l-89 -369h-337l382 1480h519l382 -1480h-341zM493 663h285l-143 590zM482 -401.5q-56 41.5 -56 122.5t56 122.5t156 41.5t156 -41.5t56 -122.5t-56 -122.5t-156 -41.5t-156 41.5zM976 1590h-231l-107 186l-107 -186h-230l192 310h290z" />
    <glyph glyph-name="uni1EAD" unicode="&#x1ead;" horiz-adv-x="986" 
d="M707.5 1071q100.5 -44 148.5 -143t48 -267v-661h-277l-25 113h-15q-68 -134 -240 -134q-91 0 -161.5 39.5t-109.5 112t-39 169.5q0 164 100 253t321 104l114 8v12q0 63 -18 98.5t-60.5 51t-117.5 15.5q-60 0 -127.5 -9.5t-129.5 -27.5v271q71 18 158 28.5t166 10.5
q164 0 264.5 -44zM572 275v194l-73 -6q-64 -4 -96.5 -35.5t-32.5 -88.5q0 -53 27 -80.5t73 -27.5q61 0 102 44zM357 -426q-50 48 -50 131q0 84 50 132t134 48q85 0 135 -48t50 -132q0 -83 -50 -131t-135 -48q-84 0 -134 48zM826 1226h-229l-106 235l-105 -235h-229l189 390
h290z" />
    <glyph glyph-name="uni1EAE" unicode="&#x1eae;" horiz-adv-x="1276" 
d="M939 0l-90 369h-426l-89 -369h-337l382 1480h519l382 -1480h-341zM493 663h285l-143 590zM557 1831l92 238h213l-142 -238h-163zM391.5 1662.5q-90.5 70.5 -105.5 195.5h189q12 -62 48.5 -91t114.5 -29t115.5 28.5t57.5 91.5h180q-16 -125 -106.5 -195.5t-246.5 -70.5
t-246.5 70.5z" />
    <glyph glyph-name="uni1EAF" unicode="&#x1eaf;" horiz-adv-x="986" 
d="M707.5 1071q100.5 -44 148.5 -143t48 -267v-661h-277l-25 113h-15q-68 -134 -240 -134q-91 0 -161.5 39.5t-109.5 112t-39 169.5q0 164 100 253t321 104l114 8v12q0 63 -18 98.5t-60.5 51t-117.5 15.5q-60 0 -127.5 -9.5t-129.5 -27.5v271q71 18 158 28.5t166 10.5
q164 0 264.5 -44zM572 275v194l-73 -6q-64 -4 -96.5 -35.5t-32.5 -88.5q0 -53 27 -80.5t73 -27.5q61 0 102 44zM375 1598l158 270h282l-208 -270h-232zM248.5 1319q-90.5 81 -103.5 235h208q9 -79 43 -113.5t96 -34.5t96 34.5t42 113.5h207q-13 -154 -103 -235t-242 -81
q-153 0 -243.5 81z" />
    <glyph glyph-name="uni1EB0" unicode="&#x1eb0;" horiz-adv-x="1276" 
d="M939 0l-90 369h-426l-89 -369h-337l382 1480h519l382 -1480h-341zM493 663h285l-143 590zM557 1831l-142 238h213l92 -238h-163zM391.5 1662.5q-90.5 70.5 -105.5 195.5h180q19 -63 56.5 -91.5t115.5 -28.5q79 0 115 29t49 91h189q-16 -125 -106.5 -195.5t-246.5 -70.5
t-246.5 70.5z" />
    <glyph glyph-name="uni1EB1" unicode="&#x1eb1;" horiz-adv-x="986" 
d="M707.5 1071q100.5 -44 148.5 -143t48 -267v-661h-277l-25 113h-15q-68 -134 -240 -134q-91 0 -161.5 39.5t-109.5 112t-39 169.5q0 164 100 253t321 104l114 8v12q0 63 -18 98.5t-60.5 51t-117.5 15.5q-60 0 -127.5 -9.5t-129.5 -27.5v271q71 18 158 28.5t166 10.5
q164 0 264.5 -44zM572 275v194l-73 -6q-64 -4 -96.5 -35.5t-32.5 -88.5q0 -53 27 -80.5t73 -27.5q61 0 102 44zM375 1598l-207 270h282l157 -270h-232zM248.5 1319q-90.5 81 -103.5 235h208q9 -79 43 -113.5t96 -34.5t96 34.5t42 113.5h207q-13 -154 -103 -235t-242 -81
q-153 0 -243.5 81z" />
    <glyph glyph-name="uni1EB2" unicode="&#x1eb2;" horiz-adv-x="1276" 
d="M939 0l-90 369h-426l-89 -369h-337l382 1480h519l382 -1480h-341zM493 663h285l-143 590zM584 1898.5q28 23.5 74 44.5q23 10 33.5 17t10.5 16q0 16 -23 23.5t-74 7.5q-99 0 -176 -19v113q36 10 96 16t110 6q131 0 192 -29.5t61 -93.5q0 -33 -21 -52t-64 -41
q-37 -20 -56 -35.5t-24 -40.5h-170q3 44 31 67.5zM391.5 1662.5q-90.5 70.5 -105.5 195.5h189q12 -62 48.5 -91t114.5 -29q77 0 115 28.5t58 91.5h180q-16 -125 -106.5 -195.5t-246.5 -70.5t-246.5 70.5z" />
    <glyph glyph-name="uni1EB3" unicode="&#x1eb3;" horiz-adv-x="986" 
d="M707.5 1071q100.5 -44 148.5 -143t48 -267v-661h-277l-25 113h-15q-68 -134 -240 -134q-91 0 -161.5 39.5t-109.5 112t-39 169.5q0 164 100 253t321 104l114 8v12q0 63 -18 98.5t-60.5 51t-117.5 15.5q-60 0 -127.5 -9.5t-129.5 -27.5v271q71 18 158 28.5t166 10.5
q164 0 264.5 -44zM572 275v194l-73 -6q-64 -4 -96.5 -35.5t-32.5 -88.5q0 -53 27 -80.5t73 -27.5q61 0 102 44zM437 1665.5q28 23.5 74 44.5q23 10 33.5 17t10.5 16q0 16 -23 23.5t-74 7.5q-99 0 -176 -19v113q36 10 96 16t110 6q131 0 192 -29.5t61 -93.5q0 -33 -21 -52
t-64 -41q-37 -20 -56 -35.5t-24 -40.5h-170q3 44 31 67.5zM248.5 1319q-90.5 81 -103.5 235h208q9 -79 43 -113.5t96 -34.5t96 34.5t42 113.5h207q-13 -154 -103 -235t-242 -81q-153 0 -243.5 81z" />
    <glyph glyph-name="uni1EB4" unicode="&#x1eb4;" horiz-adv-x="1276" 
d="M939 0l-90 369h-426l-89 -369h-337l382 1480h519l382 -1480h-341zM493 663h285l-143 590zM705 1913.5q-37 8.5 -85 23.5q-42 13 -71 20t-57 7q-58 0 -103.5 -14.5t-102.5 -52.5v156q49 37 95.5 50t113.5 13q39 0 75 -8.5t87 -24.5q46 -15 73 -21.5t55 -6.5q58 0 103 15
t103 52v-155q-48 -37 -94 -49.5t-115 -12.5q-40 0 -77 8.5zM391.5 1662.5q-90.5 70.5 -105.5 195.5h189q12 -62 48.5 -91t114.5 -29t114.5 29t49.5 91h189q-16 -125 -106.5 -195.5t-246.5 -70.5t-246.5 70.5z" />
    <glyph glyph-name="uni1EB5" unicode="&#x1eb5;" horiz-adv-x="986" 
d="M707.5 1071q100.5 -44 148.5 -143t48 -267v-661h-277l-25 113h-15q-68 -134 -240 -134q-91 0 -161.5 39.5t-109.5 112t-39 169.5q0 164 100 253t321 104l114 8v12q0 63 -18 98.5t-60.5 51t-117.5 15.5q-60 0 -127.5 -9.5t-129.5 -27.5v271q71 18 158 28.5t166 10.5
q164 0 264.5 -44zM572 275v194l-73 -6q-64 -4 -96.5 -35.5t-32.5 -88.5q0 -53 27 -80.5t73 -27.5q61 0 102 44zM567.5 1616.5q-38.5 9.5 -92.5 27.5q-51 17 -81.5 24.5t-64.5 7.5q-57 0 -100 -15.5t-88 -49.5v182q37 35 82.5 51t108.5 16q45 0 85 -10t91 -28q48 -17 80 -25
t66 -8q56 0 99 15.5t88 49.5v-181q-37 -35 -81.5 -50.5t-108.5 -15.5q-45 0 -83.5 9.5zM248.5 1319q-90.5 81 -103.5 235h208q9 -79 43 -113.5t96 -34.5t96 34.5t42 113.5h207q-13 -154 -103 -235t-242 -81q-153 0 -243.5 81z" />
    <glyph glyph-name="uni1EB6" unicode="&#x1eb6;" horiz-adv-x="1276" 
d="M939 0l-90 369h-426l-89 -369h-337l382 1480h519l382 -1480h-341zM493 663h285l-143 590zM482 -401.5q-56 41.5 -56 122.5t56 122.5t156 41.5t156 -41.5t56 -122.5t-56 -122.5t-156 -41.5t-156 41.5zM394 1670.5q-91 78.5 -105 225.5h208q9 -72 43.5 -104t98.5 -32t98 32
t43 104h207q-13 -147 -103.5 -225.5t-244.5 -78.5t-245 78.5z" />
    <glyph glyph-name="uni1EB7" unicode="&#x1eb7;" horiz-adv-x="986" 
d="M707.5 1071q100.5 -44 148.5 -143t48 -267v-661h-277l-25 113h-15q-68 -134 -240 -134q-91 0 -161.5 39.5t-109.5 112t-39 169.5q0 164 100 253t321 104l114 8v12q0 63 -18 98.5t-60.5 51t-117.5 15.5q-60 0 -127.5 -9.5t-129.5 -27.5v271q71 18 158 28.5t166 10.5
q164 0 264.5 -44zM572 275v194l-73 -6q-64 -4 -96.5 -35.5t-32.5 -88.5q0 -53 27 -80.5t73 -27.5q61 0 102 44zM357 -426q-50 48 -50 131q0 84 50 132t134 48q85 0 135 -48t50 -132q0 -83 -50 -131t-135 -48q-84 0 -134 48zM253.5 1325.5q-88.5 87.5 -97.5 269.5h207
q5 -95 37.5 -137.5t91.5 -42.5q58 0 90.5 42.5t36.5 137.5h208q-9 -182 -97.5 -269.5t-237.5 -87.5q-150 0 -238.5 87.5z" />
    <glyph glyph-name="uni1EB8" unicode="&#x1eb8;" horiz-adv-x="1103" 
d="M441 297h607v-297h-949v1480h939v-297h-597v-279h495v-297h-495v-310zM434 -401.5q-56 41.5 -56 122.5t56 122.5t156 41.5t156 -41.5t56 -122.5t-56 -122.5t-156 -41.5t-156 41.5z" />
    <glyph glyph-name="uni1EB9" unicode="&#x1eb9;" horiz-adv-x="977" 
d="M941 445h-547q4 -75 28 -116.5t76 -59.5t143 -18q104 0 247 35v-271q-79 -19 -147.5 -27.5t-142.5 -8.5q-196 0 -316.5 59t-177.5 185t-57 331q0 271 120 416t345 145q212 0 320.5 -145.5t108.5 -426.5v-98zM445 872q-25 -20 -38 -73t-14 -149h229q-1 97 -13 149.5
t-35.5 72.5t-63.5 20t-65 -20zM369 -426q-50 48 -50 131q0 84 50 132t134 48q85 0 135 -48t50 -132q0 -83 -50 -131t-135 -48q-84 0 -134 48z" />
    <glyph glyph-name="uni1EBA" unicode="&#x1eba;" horiz-adv-x="1103" 
d="M441 297h607v-297h-949v1480h939v-297h-597v-279h495v-297h-495v-310zM536.5 1668q28.5 27 74.5 50q22 11 32.5 19t10.5 17q0 19 -23 28t-74 9q-42 0 -89 -6t-87 -17v132q37 11 96.5 17.5t109.5 6.5q131 0 192 -33.5t61 -106.5q0 -37 -21.5 -59.5t-63.5 -47.5
q-37 -23 -56 -41t-24 -46h-170q3 51 31.5 78z" />
    <glyph glyph-name="uni1EBB" unicode="&#x1ebb;" horiz-adv-x="977" 
d="M941 445h-547q4 -75 28 -116.5t76 -59.5t143 -18q104 0 247 35v-271q-79 -19 -147.5 -27.5t-142.5 -8.5q-196 0 -316.5 59t-177.5 185t-57 331q0 271 120 416t345 145q212 0 320.5 -145.5t108.5 -426.5v-98zM445 872q-25 -20 -38 -73t-14 -149h229q-1 97 -13 149.5
t-35.5 72.5t-63.5 20t-65 -20zM443.5 1318q22.5 34 60.5 66q24 21 34 33t10 29q0 45 -79 45q-78 0 -154 -24v135q37 12 87.5 19t95.5 7q119 0 177.5 -38.5t58.5 -119.5q0 -36 -11 -61.5t-26 -42t-41 -38.5q-32 -28 -48 -48.5t-20 -53.5h-170q3 58 25.5 92z" />
    <glyph glyph-name="uni1EBC" unicode="&#x1ebc;" horiz-adv-x="1103" 
d="M441 297h607v-297h-949v1480h939v-297h-597v-279h495v-297h-495v-310zM667.5 1612q-40.5 11 -95.5 32q-50 19 -82 28t-67 9q-58 0 -102.5 -18.5t-90.5 -57.5v211q39 39 85 57.5t111 18.5q47 0 86.5 -11t95.5 -32q47 -19 81 -28.5t69 -9.5q58 0 102.5 18t90.5 57v-211
q-38 -39 -84.5 -56.5t-111.5 -17.5q-47 0 -87.5 11z" />
    <glyph glyph-name="uni1EBD" unicode="&#x1ebd;" horiz-adv-x="977" 
d="M941 445h-547q4 -75 28 -116.5t76 -59.5t143 -18q104 0 247 35v-271q-79 -19 -147.5 -27.5t-142.5 -8.5q-196 0 -316.5 59t-177.5 185t-57 331q0 271 120 416t345 145q212 0 320.5 -145.5t108.5 -426.5v-98zM445 872q-25 -20 -38 -73t-14 -149h229q-1 97 -13 149.5
t-35.5 72.5t-63.5 20t-65 -20zM576.5 1280.5q-37.5 12.5 -91.5 37.5q-46 22 -76.5 32.5t-61.5 10.5q-54 0 -97 -20.5t-88 -66.5v225q38 41 83.5 60t105.5 19q43 0 81.5 -13t88.5 -38q46 -22 76.5 -32.5t61.5 -10.5q54 0 97.5 21t88.5 67v-225q-38 -41 -83.5 -60t-105.5 -19
q-42 0 -79.5 12.5z" />
    <glyph glyph-name="uni1EBE" unicode="&#x1ebe;" horiz-adv-x="1103" 
d="M441 297h607v-297h-949v1480h939v-297h-597v-279h495v-297h-495v-310zM917 2064h213l-142 -241h-163zM445 1862h290l193 -272h-231l-107 165l-107 -165h-230z" />
    <glyph glyph-name="uni1EBF" unicode="&#x1ebf;" horiz-adv-x="977" 
d="M941 445h-547q4 -75 28 -116.5t76 -59.5t143 -18q104 0 247 35v-271q-79 -19 -147.5 -27.5t-142.5 -8.5q-196 0 -316.5 59t-177.5 185t-57 331q0 271 120 416t345 145q212 0 320.5 -145.5t108.5 -426.5v-98zM445 872q-25 -20 -38 -73t-14 -149h229q-1 97 -13 149.5
t-35.5 72.5t-63.5 20t-65 -20zM883 1868h283l-208 -270h-232zM358 1616h290l190 -390h-229l-106 235l-105 -235h-229z" />
    <glyph glyph-name="uni1EC0" unicode="&#x1ec0;" horiz-adv-x="1103" 
d="M441 297h607v-297h-949v1480h939v-297h-597v-279h495v-297h-495v-310zM1025 1823h-163l-142 241h213zM445 1862h290l193 -272h-231l-107 165l-107 -165h-230z" />
    <glyph glyph-name="uni1EC1" unicode="&#x1ec1;" horiz-adv-x="977" 
d="M941 445h-547q4 -75 28 -116.5t76 -59.5t143 -18q104 0 247 35v-271q-79 -19 -147.5 -27.5t-142.5 -8.5q-196 0 -316.5 59t-177.5 185t-57 331q0 271 120 416t345 145q212 0 320.5 -145.5t108.5 -426.5v-98zM445 872q-25 -20 -38 -73t-14 -149h229q-1 97 -13 149.5
t-35.5 72.5t-63.5 20t-65 -20zM992 1598h-231l-208 270h282zM358 1616h290l190 -390h-229l-106 235l-105 -235h-229z" />
    <glyph glyph-name="uni1EC2" unicode="&#x1ec2;" horiz-adv-x="1103" 
d="M441 297h607v-297h-949v1480h939v-297h-597v-279h495v-297h-495v-310zM1098 2086.5q61 -29.5 61 -93.5q0 -33 -21.5 -52.5t-62.5 -41.5q-37 -19 -56.5 -35t-23.5 -41h-170q3 44 30.5 67.5t73.5 44.5q23 10 33.5 17t10.5 16q0 17 -22.5 24.5t-73.5 7.5q-92 0 -176 -19v112
q37 10 96.5 16.5t108.5 6.5q131 0 192 -29.5zM445 1862h290l193 -272h-231l-107 165l-107 -165h-230z" />
    <glyph glyph-name="uni1EC3" unicode="&#x1ec3;" horiz-adv-x="977" 
d="M941 445h-547q4 -75 28 -116.5t76 -59.5t143 -18q104 0 247 35v-271q-79 -19 -147.5 -27.5t-142.5 -8.5q-196 0 -316.5 59t-177.5 185t-57 331q0 271 120 416t345 145q212 0 320.5 -145.5t108.5 -426.5v-98zM445 872q-25 -20 -38 -73t-14 -149h229q-1 97 -13 149.5
t-35.5 72.5t-63.5 20t-65 -20zM994.5 1860.5q60.5 -29.5 60.5 -93.5q0 -33 -21 -52t-63 -41q-37 -20 -56 -35.5t-24 -40.5h-170q3 44 31 67.5t74 44.5q23 10 33.5 17t10.5 16q0 16 -23 23.5t-74 7.5q-99 0 -176 -19v113q36 10 95.5 16t109.5 6q132 0 192.5 -29.5zM358 1616
h290l190 -390h-229l-106 235l-105 -235h-229z" />
    <glyph glyph-name="uni1EC4" unicode="&#x1ec4;" horiz-adv-x="1103" 
d="M441 297h607v-297h-949v1480h939v-297h-597v-279h495v-297h-495v-310zM830 2070q44 15 98 52v-155q-45 -37 -89.5 -49.5t-110.5 -12.5q-38 0 -71 8t-85 24q-42 14 -69 20.5t-54 6.5q-56 0 -99 -15t-97 -52v156q46 37 90.5 50t109.5 13q38 0 72.5 -8.5t83.5 -24.5
q38 -14 66.5 -21t55.5 -7q55 0 99 15zM445 1862h290l193 -272h-231l-107 165l-107 -165h-230z" />
    <glyph glyph-name="uni1EC5" unicode="&#x1ec5;" horiz-adv-x="977" 
d="M941 445h-547q4 -75 28 -116.5t76 -59.5t143 -18q104 0 247 35v-271q-79 -19 -147.5 -27.5t-142.5 -8.5q-196 0 -316.5 59t-177.5 185t-57 331q0 271 120 416t345 145q212 0 320.5 -145.5t108.5 -426.5v-98zM445 872q-25 -20 -38 -73t-14 -149h229q-1 97 -13 149.5
t-35.5 72.5t-63.5 20t-65 -20zM771.5 1804q44.5 16 90.5 51v-183q-39 -34 -85 -49.5t-111 -15.5q-46 0 -86.5 9.5t-94.5 28.5q-50 16 -82 24t-66 8q-58 0 -102 -16t-90 -51v184q38 34 84.5 50t111.5 16q46 0 84 -9.5t96 -28.5q47 -17 80.5 -25.5t68.5 -8.5q57 0 101.5 16z
M358 1549h290l190 -321h-229l-106 196l-105 -196h-229z" />
    <glyph glyph-name="uni1EC6" unicode="&#x1ec6;" horiz-adv-x="1103" 
d="M441 297h607v-297h-949v1480h939v-297h-597v-279h495v-297h-495v-310zM434 -401.5q-56 41.5 -56 122.5t56 122.5t156 41.5t156 -41.5t56 -122.5t-56 -122.5t-156 -41.5t-156 41.5zM928 1590h-231l-107 186l-107 -186h-230l192 310h290z" />
    <glyph glyph-name="uni1EC7" unicode="&#x1ec7;" horiz-adv-x="977" 
d="M941 445h-547q4 -75 28 -116.5t76 -59.5t143 -18q104 0 247 35v-271q-79 -19 -147.5 -27.5t-142.5 -8.5q-196 0 -316.5 59t-177.5 185t-57 331q0 271 120 416t345 145q212 0 320.5 -145.5t108.5 -426.5v-98zM445 872q-25 -20 -38 -73t-14 -149h229q-1 97 -13 149.5
t-35.5 72.5t-63.5 20t-65 -20zM369 -426q-50 48 -50 131q0 84 50 132t134 48q85 0 135 -48t50 -132q0 -83 -50 -131t-135 -48q-84 0 -134 48zM838 1226h-229l-106 235l-105 -235h-229l189 390h290z" />
    <glyph glyph-name="uni1EC8" unicode="&#x1ec8;" horiz-adv-x="544" 
d="M99 0v1480h347v-1480h-347zM218.5 1668q28.5 27 74.5 50q22 11 32.5 19t10.5 17q0 19 -23 28t-74 9q-42 0 -89 -6t-87 -17v132q37 11 96.5 17.5t109.5 6.5q131 0 192 -33.5t61 -106.5q0 -37 -21.5 -59.5t-63.5 -47.5q-37 -23 -56 -41t-24 -46h-170q3 51 31.5 78z" />
    <glyph glyph-name="uni1EC9" unicode="&#x1ec9;" horiz-adv-x="518" 
d="M87 0v1097h344v-1097h-344zM199.5 1318q22.5 34 60.5 66q24 21 34 33t10 29q0 45 -79 45q-78 0 -154 -24v135q37 12 87.5 19t95.5 7q119 0 177.5 -38.5t58.5 -119.5q0 -36 -11 -61.5t-26 -42t-41 -38.5q-32 -28 -48 -48.5t-20 -53.5h-170q3 58 25.5 92z" />
    <glyph glyph-name="uni1ECA" unicode="&#x1eca;" horiz-adv-x="544" 
d="M99 0v1480h347v-1480h-347zM116 -401.5q-56 41.5 -56 122.5t56 122.5t156 41.5t156 -41.5t56 -122.5t-56 -122.5t-156 -41.5t-156 41.5z" />
    <glyph glyph-name="uni1ECB" unicode="&#x1ecb;" horiz-adv-x="518" 
d="M87 0v1097h344v-1097h-344zM101 1279.5q-52 48.5 -52 139.5q0 90 52 139t158 49t158.5 -49t52.5 -139q0 -91 -52.5 -139.5t-158.5 -48.5t-158 48.5zM125 -426q-50 48 -50 131q0 84 50 132t134 48q85 0 135 -48t50 -132q0 -83 -50 -131t-135 -48q-84 0 -134 48z" />
    <glyph glyph-name="uni1ECC" unicode="&#x1ecc;" horiz-adv-x="1364" 
d="M353 59.5q-139 79.5 -216 249t-77 431.5t77 431.5t216 249t329 79.5t329 -79.5t216 -249t77 -431.5t-77 -431.5t-216 -249t-329 -79.5t-329 79.5zM827 313.5q58 44.5 88.5 147t30.5 272.5q0 177 -30.5 282t-88.5 150.5t-145 45.5t-145 -44.5t-88.5 -147t-30.5 -272.5
q0 -177 30.5 -282t88.5 -150.5t145 -45.5t145 44.5zM526 -401.5q-56 41.5 -56 122.5t56 122.5t156 41.5t156 -41.5t56 -122.5t-56 -122.5t-156 -41.5t-156 41.5z" />
    <glyph glyph-name="uni1ECD" unicode="&#x1ecd;" horiz-adv-x="1046" 
d="M169 117.5q-122 138.5 -122 424.5q0 291 122 432t354 141q231 0 354 -143t123 -427q0 -287 -122.5 -426.5t-354.5 -139.5t-354 138.5zM595 256.5q27 24.5 41 91.5t14 193q0 129 -14.5 199t-42 95.5t-70.5 25.5t-70.5 -25.5t-42 -94t-14.5 -195.5q0 -129 14 -197t41 -92.5
t72 -24.5t72 24.5zM389 -426q-50 48 -50 131q0 84 50 132t134 48q85 0 135 -48t50 -132q0 -83 -50 -131t-135 -48q-84 0 -134 48z" />
    <glyph glyph-name="uni1ECE" unicode="&#x1ece;" horiz-adv-x="1364" 
d="M353 59.5q-139 79.5 -216 249t-77 431.5t77 431.5t216 249t329 79.5t329 -79.5t216 -249t77 -431.5t-77 -431.5t-216 -249t-329 -79.5t-329 79.5zM827 313.5q58 44.5 88.5 147t30.5 272.5q0 177 -30.5 282t-88.5 150.5t-145 45.5t-145 -44.5t-88.5 -147t-30.5 -272.5
q0 -177 30.5 -282t88.5 -150.5t145 -45.5t145 44.5zM628.5 1668q28.5 27 74.5 50q22 11 32.5 19t10.5 17q0 19 -23 28t-74 9q-42 0 -89 -6t-87 -17v132q37 11 96.5 17.5t109.5 6.5q131 0 192 -33.5t61 -106.5q0 -37 -21.5 -59.5t-63.5 -47.5q-37 -23 -56 -41t-24 -46h-170
q3 51 31.5 78z" />
    <glyph glyph-name="uni1ECF" unicode="&#x1ecf;" horiz-adv-x="1046" 
d="M169 117.5q-122 138.5 -122 424.5q0 291 122 432t354 141q231 0 354 -143t123 -427q0 -287 -122.5 -426.5t-354.5 -139.5t-354 138.5zM595 256.5q27 24.5 41 91.5t14 193q0 129 -14.5 199t-42 95.5t-70.5 25.5t-70.5 -25.5t-42 -94t-14.5 -195.5q0 -129 14 -197t41 -92.5
t72 -24.5t72 24.5zM463.5 1318q22.5 34 60.5 66q24 21 34 33t10 29q0 45 -79 45q-78 0 -154 -24v135q37 12 87.5 19t95.5 7q119 0 177.5 -38.5t58.5 -119.5q0 -36 -11 -61.5t-26 -42t-41 -38.5q-32 -28 -48 -48.5t-20 -53.5h-170q3 58 25.5 92z" />
    <glyph glyph-name="uni1ED0" unicode="&#x1ed0;" horiz-adv-x="1364" 
d="M353 59.5q-139 79.5 -216 249t-77 431.5t77 431.5t216 249t329 79.5t329 -79.5t216 -249t77 -431.5t-77 -431.5t-216 -249t-329 -79.5t-329 79.5zM827 313.5q58 44.5 88.5 147t30.5 272.5q0 177 -30.5 282t-88.5 150.5t-145 45.5t-145 -44.5t-88.5 -147t-30.5 -272.5
q0 -177 30.5 -282t88.5 -150.5t145 -45.5t145 44.5zM1009 2064h213l-142 -241h-163zM537 1862h290l193 -272h-231l-107 165l-107 -165h-230z" />
    <glyph glyph-name="uni1ED1" unicode="&#x1ed1;" horiz-adv-x="1046" 
d="M169 117.5q-122 138.5 -122 424.5q0 291 122 432t354 141q231 0 354 -143t123 -427q0 -287 -122.5 -426.5t-354.5 -139.5t-354 138.5zM595 256.5q27 24.5 41 91.5t14 193q0 129 -14.5 199t-42 95.5t-70.5 25.5t-70.5 -25.5t-42 -94t-14.5 -195.5q0 -129 14 -197t41 -92.5
t72 -24.5t72 24.5zM903 1868h283l-208 -270h-232zM378 1616h290l190 -390h-229l-106 235l-105 -235h-229z" />
    <glyph glyph-name="uni1ED2" unicode="&#x1ed2;" horiz-adv-x="1364" 
d="M353 59.5q-139 79.5 -216 249t-77 431.5t77 431.5t216 249t329 79.5t329 -79.5t216 -249t77 -431.5t-77 -431.5t-216 -249t-329 -79.5t-329 79.5zM827 313.5q58 44.5 88.5 147t30.5 272.5q0 177 -30.5 282t-88.5 150.5t-145 45.5t-145 -44.5t-88.5 -147t-30.5 -272.5
q0 -177 30.5 -282t88.5 -150.5t145 -45.5t145 44.5zM1117 1823h-163l-142 241h213zM537 1862h290l193 -272h-231l-107 165l-107 -165h-230z" />
    <glyph glyph-name="uni1ED3" unicode="&#x1ed3;" horiz-adv-x="1046" 
d="M169 117.5q-122 138.5 -122 424.5q0 291 122 432t354 141q231 0 354 -143t123 -427q0 -287 -122.5 -426.5t-354.5 -139.5t-354 138.5zM595 256.5q27 24.5 41 91.5t14 193q0 129 -14.5 199t-42 95.5t-70.5 25.5t-70.5 -25.5t-42 -94t-14.5 -195.5q0 -129 14 -197t41 -92.5
t72 -24.5t72 24.5zM1012 1598h-231l-208 270h282zM378 1616h290l190 -390h-229l-106 235l-105 -235h-229z" />
    <glyph glyph-name="uni1ED4" unicode="&#x1ed4;" horiz-adv-x="1364" 
d="M353 59.5q-139 79.5 -216 249t-77 431.5t77 431.5t216 249t329 79.5t329 -79.5t216 -249t77 -431.5t-77 -431.5t-216 -249t-329 -79.5t-329 79.5zM827 313.5q58 44.5 88.5 147t30.5 272.5q0 177 -30.5 282t-88.5 150.5t-145 45.5t-145 -44.5t-88.5 -147t-30.5 -272.5
q0 -177 30.5 -282t88.5 -150.5t145 -45.5t145 44.5zM1190 2086.5q61 -29.5 61 -93.5q0 -33 -21.5 -52.5t-62.5 -41.5q-37 -19 -56.5 -35t-23.5 -41h-170q3 44 30.5 67.5t73.5 44.5q23 10 33.5 17t10.5 16q0 17 -22.5 24.5t-73.5 7.5q-92 0 -176 -19v112q37 10 96.5 16.5
t108.5 6.5q131 0 192 -29.5zM537 1862h290l193 -272h-231l-107 165l-107 -165h-230z" />
    <glyph glyph-name="uni1ED5" unicode="&#x1ed5;" horiz-adv-x="1046" 
d="M169 117.5q-122 138.5 -122 424.5q0 291 122 432t354 141q231 0 354 -143t123 -427q0 -287 -122.5 -426.5t-354.5 -139.5t-354 138.5zM595 256.5q27 24.5 41 91.5t14 193q0 129 -14.5 199t-42 95.5t-70.5 25.5t-70.5 -25.5t-42 -94t-14.5 -195.5q0 -129 14 -197t41 -92.5
t72 -24.5t72 24.5zM1014.5 1860.5q60.5 -29.5 60.5 -93.5q0 -33 -21 -52t-63 -41q-37 -20 -56 -35.5t-24 -40.5h-170q3 44 31 67.5t74 44.5q23 10 33.5 17t10.5 16q0 16 -23 23.5t-74 7.5q-99 0 -176 -19v113q36 10 95.5 16t109.5 6q132 0 192.5 -29.5zM378 1616h290
l190 -390h-229l-106 235l-105 -235h-229z" />
    <glyph glyph-name="uni1ED6" unicode="&#x1ed6;" horiz-adv-x="1364" 
d="M353 59.5q-139 79.5 -216 249t-77 431.5t77 431.5t216 249t329 79.5t329 -79.5t216 -249t77 -431.5t-77 -431.5t-216 -249t-329 -79.5t-329 79.5zM827 313.5q58 44.5 88.5 147t30.5 272.5q0 177 -30.5 282t-88.5 150.5t-145 45.5t-145 -44.5t-88.5 -147t-30.5 -272.5
q0 -177 30.5 -282t88.5 -150.5t145 -45.5t145 44.5zM922 2070q44 15 98 52v-155q-45 -37 -89.5 -49.5t-110.5 -12.5q-38 0 -71 8t-85 24q-42 14 -69 20.5t-54 6.5q-56 0 -99 -15t-97 -52v156q46 37 90.5 50t109.5 13q38 0 72.5 -8.5t83.5 -24.5q38 -14 66.5 -21t55.5 -7
q55 0 99 15zM537 1862h290l193 -272h-231l-107 165l-107 -165h-230z" />
    <glyph glyph-name="uni1ED7" unicode="&#x1ed7;" horiz-adv-x="1046" 
d="M169 117.5q-122 138.5 -122 424.5q0 291 122 432t354 141q231 0 354 -143t123 -427q0 -287 -122.5 -426.5t-354.5 -139.5t-354 138.5zM595 256.5q27 24.5 41 91.5t14 193q0 129 -14.5 199t-42 95.5t-70.5 25.5t-70.5 -25.5t-42 -94t-14.5 -195.5q0 -129 14 -197t41 -92.5
t72 -24.5t72 24.5zM791.5 1804q44.5 16 90.5 51v-183q-39 -34 -85 -49.5t-111 -15.5q-46 0 -86.5 9.5t-94.5 28.5q-50 16 -82 24t-66 8q-58 0 -102 -16t-90 -51v184q38 34 84.5 50t111.5 16q46 0 84 -9.5t96 -28.5q47 -17 80.5 -25.5t68.5 -8.5q57 0 101.5 16zM378 1549h290
l190 -321h-229l-106 196l-105 -196h-229z" />
    <glyph glyph-name="uni1ED8" unicode="&#x1ed8;" horiz-adv-x="1364" 
d="M353 59.5q-139 79.5 -216 249t-77 431.5t77 431.5t216 249t329 79.5t329 -79.5t216 -249t77 -431.5t-77 -431.5t-216 -249t-329 -79.5t-329 79.5zM827 313.5q58 44.5 88.5 147t30.5 272.5q0 177 -30.5 282t-88.5 150.5t-145 45.5t-145 -44.5t-88.5 -147t-30.5 -272.5
q0 -177 30.5 -282t88.5 -150.5t145 -45.5t145 44.5zM526 -401.5q-56 41.5 -56 122.5t56 122.5t156 41.5t156 -41.5t56 -122.5t-56 -122.5t-156 -41.5t-156 41.5zM1020 1590h-231l-107 186l-107 -186h-230l192 310h290z" />
    <glyph glyph-name="uni1ED9" unicode="&#x1ed9;" horiz-adv-x="1046" 
d="M169 117.5q-122 138.5 -122 424.5q0 291 122 432t354 141q231 0 354 -143t123 -427q0 -287 -122.5 -426.5t-354.5 -139.5t-354 138.5zM595 256.5q27 24.5 41 91.5t14 193q0 129 -14.5 199t-42 95.5t-70.5 25.5t-70.5 -25.5t-42 -94t-14.5 -195.5q0 -129 14 -197t41 -92.5
t72 -24.5t72 24.5zM389 -426q-50 48 -50 131q0 84 50 132t134 48q85 0 135 -48t50 -132q0 -83 -50 -131t-135 -48q-84 0 -134 48zM858 1226h-229l-106 235l-105 -235h-229l189 390h290z" />
    <glyph glyph-name="uni1EDA" unicode="&#x1eda;" horiz-adv-x="1364" 
d="M1268.5 1425.5q-52.5 -69.5 -147.5 -93.5q89 -92 136 -240t47 -352q0 -389 -164.5 -574.5t-457.5 -185.5t-457.5 185.5t-164.5 574.5q0 262 77 431.5t216 249t329 79.5q37 0 72.5 -3.5t66.5 -7.5q27 -4 54.5 -7t53.5 -3q75 0 112.5 36t37.5 121q0 68 -17 140h238
q21 -64 21 -161q0 -120 -52.5 -189.5zM827 313.5q58 44.5 88.5 147t30.5 272.5q0 177 -30.5 282t-88.5 150.5t-145 45.5t-145 -44.5t-88.5 -147t-30.5 -272.5q0 -177 30.5 -282t88.5 -150.5t145 -45.5t145 44.5zM530 1590l158 310h354l-208 -310h-304z" />
    <glyph glyph-name="uni1EDB" unicode="&#x1edb;" horiz-adv-x="1046" 
d="M851 1616l-215 -390h-259l173 390h301zM998.5 1064.5q-43.5 -66.5 -121.5 -95.5q123 -143 123 -424q0 -287 -122.5 -426.5t-354.5 -139.5t-354 138.5t-122 424.5q0 291 122 432t354 141q38 0 94 -6q12 -1 25 -2t25 -1q75 0 113 35.5t38 117.5q0 65 -17 137h221
q20 -61 20 -158q0 -107 -43.5 -173.5zM595 256.5q27 24.5 41 91.5t14 193q0 129 -14.5 199t-42 95.5t-70.5 25.5t-70.5 -25.5t-42 -94t-14.5 -195.5q0 -129 14 -197t41 -92.5t72 -24.5t72 24.5z" />
    <glyph glyph-name="uni1EDC" unicode="&#x1edc;" horiz-adv-x="1364" 
d="M1268.5 1425.5q-52.5 -69.5 -147.5 -93.5q89 -92 136 -240t47 -352q0 -389 -164.5 -574.5t-457.5 -185.5t-457.5 185.5t-164.5 574.5q0 262 77 431.5t216 249t329 79.5q37 0 72.5 -3.5t66.5 -7.5q27 -4 54.5 -7t53.5 -3q75 0 112.5 36t37.5 121q0 68 -17 140h238
q21 -64 21 -161q0 -120 -52.5 -189.5zM827 313.5q58 44.5 88.5 147t30.5 272.5q0 177 -30.5 282t-88.5 150.5t-145 45.5t-145 -44.5t-88.5 -147t-30.5 -272.5q0 -177 30.5 -282t88.5 -150.5t145 -45.5t145 44.5zM530 1590l-208 310h355l157 -310h-304z" />
    <glyph glyph-name="uni1EDD" unicode="&#x1edd;" horiz-adv-x="1046" 
d="M998.5 1064.5q-43.5 -66.5 -121.5 -95.5q123 -143 123 -424q0 -287 -122.5 -426.5t-354.5 -139.5t-354 138.5t-122 424.5q0 291 122 432t354 141q38 0 94 -6q12 -1 25 -2t25 -1q75 0 113 35.5t38 117.5q0 65 -17 137h221q20 -61 20 -158q0 -107 -43.5 -173.5zM595 256.5
q27 24.5 41 91.5t14 193q0 129 -14.5 199t-42 95.5t-70.5 25.5t-70.5 -25.5t-42 -94t-14.5 -195.5q0 -129 14 -197t41 -92.5t72 -24.5t72 24.5zM358 1226l-247 390h344l200 -390h-297z" />
    <glyph glyph-name="uni1EDE" unicode="&#x1ede;" horiz-adv-x="1364" 
d="M1268.5 1425.5q-52.5 -69.5 -147.5 -93.5q89 -92 136 -240t47 -352q0 -389 -164.5 -574.5t-457.5 -185.5t-457.5 185.5t-164.5 574.5q0 262 77 431.5t216 249t329 79.5q37 0 72.5 -3.5t66.5 -7.5q27 -4 54.5 -7t53.5 -3q75 0 112.5 36t37.5 121q0 68 -17 140h238
q21 -64 21 -161q0 -120 -52.5 -189.5zM827 313.5q58 44.5 88.5 147t30.5 272.5q0 177 -30.5 282t-88.5 150.5t-145 45.5t-145 -44.5t-88.5 -147t-30.5 -272.5q0 -177 30.5 -282t88.5 -150.5t145 -45.5t145 44.5zM628.5 1668q28.5 27 74.5 50q22 11 32.5 19t10.5 17
q0 19 -23 28t-74 9q-42 0 -89 -6t-87 -17v132q37 11 96.5 17.5t109.5 6.5q131 0 192 -33.5t61 -106.5q0 -37 -21.5 -59.5t-63.5 -47.5q-37 -23 -56 -41t-24 -46h-170q3 51 31.5 78z" />
    <glyph glyph-name="uni1EDF" unicode="&#x1edf;" horiz-adv-x="1046" 
d="M998.5 1064.5q-43.5 -66.5 -121.5 -95.5q123 -143 123 -424q0 -287 -122.5 -426.5t-354.5 -139.5t-354 138.5t-122 424.5q0 291 122 432t354 141q38 0 94 -6q12 -1 25 -2t25 -1q75 0 113 35.5t38 117.5q0 65 -17 137h221q20 -61 20 -158q0 -107 -43.5 -173.5zM595 256.5
q27 24.5 41 91.5t14 193q0 129 -14.5 199t-42 95.5t-70.5 25.5t-70.5 -25.5t-42 -94t-14.5 -195.5q0 -129 14 -197t41 -92.5t72 -24.5t72 24.5zM446.5 1318q22.5 34 60.5 66q24 21 34 33t10 29q0 45 -79 45q-78 0 -154 -24v135q37 12 87.5 19t95.5 7q119 0 177.5 -38.5
t58.5 -119.5q0 -36 -11 -61.5t-26 -42t-41 -38.5q-32 -28 -48 -48.5t-20 -53.5h-170q3 58 25.5 92z" />
    <glyph glyph-name="uni1EE0" unicode="&#x1ee0;" horiz-adv-x="1364" 
d="M752 1612q-37 11 -87 32q-44 19 -74 28t-61 9q-53 0 -93 -18.5t-83 -57.5v211q35 39 77.5 57.5t101.5 18.5q43 0 80 -11t86 -33q44 -19 74 -28t61 -9q53 0 93.5 18t81.5 57v-211q-34 -39 -76 -56.5t-101 -17.5q-43 0 -80 11zM1268.5 1425.5q-52.5 -69.5 -147.5 -93.5
q89 -92 136 -240t47 -352q0 -389 -164.5 -574.5t-457.5 -185.5t-457.5 185.5t-164.5 574.5q0 262 77 431.5t216 249t329 79.5q37 0 72.5 -3.5t66.5 -7.5q27 -4 54.5 -7t53.5 -3q75 0 112.5 36t37.5 121q0 68 -17 140h238q21 -64 21 -161q0 -120 -52.5 -189.5zM827 313.5
q58 44.5 88.5 147t30.5 272.5q0 177 -30.5 282t-88.5 150.5t-145 45.5t-145 -44.5t-88.5 -147t-30.5 -272.5q0 -177 30.5 -282t88.5 -150.5t145 -45.5t145 44.5z" />
    <glyph glyph-name="uni1EE1" unicode="&#x1ee1;" horiz-adv-x="1046" 
d="M165 1274v225q72 79 171 79q43 0 76 -13t76 -38q39 -22 65 -32.5t57 -10.5q83 0 168 88v-225q-72 -79 -171 -79q-42 0 -74.5 12.5t-77.5 37.5q-39 22 -65 32.5t-57 10.5q-84 0 -168 -87zM998.5 1064.5q-43.5 -66.5 -121.5 -95.5q123 -143 123 -424q0 -287 -122.5 -426.5
t-354.5 -139.5t-354 138.5t-122 424.5q0 291 122 432t354 141q38 0 94 -6q12 -1 25 -2t25 -1q75 0 113 35.5t38 117.5q0 65 -17 137h221q20 -61 20 -158q0 -107 -43.5 -173.5zM595 256.5q27 24.5 41 91.5t14 193q0 129 -14.5 199t-42 95.5t-70.5 25.5t-70.5 -25.5t-42 -94
t-14.5 -195.5q0 -129 14 -197t41 -92.5t72 -24.5t72 24.5z" />
    <glyph glyph-name="uni1EE2" unicode="&#x1ee2;" horiz-adv-x="1364" 
d="M1268.5 1425.5q-52.5 -69.5 -147.5 -93.5q89 -92 136 -240t47 -352q0 -389 -164.5 -574.5t-457.5 -185.5t-457.5 185.5t-164.5 574.5q0 262 77 431.5t216 249t329 79.5q37 0 72.5 -3.5t66.5 -7.5q27 -4 54.5 -7t53.5 -3q75 0 112.5 36t37.5 121q0 68 -17 140h238
q21 -64 21 -161q0 -120 -52.5 -189.5zM827 313.5q58 44.5 88.5 147t30.5 272.5q0 177 -30.5 282t-88.5 150.5t-145 45.5t-145 -44.5t-88.5 -147t-30.5 -272.5q0 -177 30.5 -282t88.5 -150.5t145 -45.5t145 44.5zM526 -401.5q-56 41.5 -56 122.5t56 122.5t156 41.5t156 -41.5
t56 -122.5t-56 -122.5t-156 -41.5t-156 41.5z" />
    <glyph glyph-name="uni1EE3" unicode="&#x1ee3;" horiz-adv-x="1046" 
d="M998.5 1064.5q-43.5 -66.5 -121.5 -95.5q123 -143 123 -424q0 -287 -122.5 -426.5t-354.5 -139.5t-354 138.5t-122 424.5q0 291 122 432t354 141q38 0 94 -6q12 -1 25 -2t25 -1q75 0 113 35.5t38 117.5q0 65 -17 137h221q20 -61 20 -158q0 -107 -43.5 -173.5zM595 256.5
q27 24.5 41 91.5t14 193q0 129 -14.5 199t-42 95.5t-70.5 25.5t-70.5 -25.5t-42 -94t-14.5 -195.5q0 -129 14 -197t41 -92.5t72 -24.5t72 24.5zM389 -426q-50 48 -50 131q0 84 50 132t134 48q85 0 135 -48t50 -132q0 -83 -50 -131t-135 -48q-84 0 -134 48z" />
    <glyph glyph-name="uni1EE4" unicode="&#x1ee4;" horiz-adv-x="1319" 
d="M344 42.5q-126 62.5 -189 197t-63 349.5v891h347v-931q0 -148 56.5 -212.5t168.5 -64.5t167 64.5t55 212.5v931h340v-891q0 -216 -61 -350t-185 -196.5t-316 -62.5q-194 0 -320 62.5zM508 -401.5q-56 41.5 -56 122.5t56 122.5t156 41.5t156 -41.5t56 -122.5t-56 -122.5
t-156 -41.5t-156 41.5z" />
    <glyph glyph-name="uni1EE5" unicode="&#x1ee5;" horiz-adv-x="1066" 
d="M166.5 74.5q-84.5 94.5 -84.5 300.5v722h342v-691q0 -122 94 -122q31 0 64.5 15.5t54.5 43.5v754h342v-1097h-284l-25 113h-15q-103 -133 -263 -133q-141 0 -225.5 94.5zM398 -426q-50 48 -50 131q0 84 50 132t134 48q85 0 135 -48t50 -132q0 -83 -50 -131t-135 -48
q-84 0 -134 48z" />
    <glyph glyph-name="uni1EE6" unicode="&#x1ee6;" horiz-adv-x="1319" 
d="M344 42.5q-126 62.5 -189 197t-63 349.5v891h347v-931q0 -148 56.5 -212.5t168.5 -64.5t167 64.5t55 212.5v931h340v-891q0 -216 -61 -350t-185 -196.5t-316 -62.5q-194 0 -320 62.5zM610.5 1668q28.5 27 74.5 50q22 11 32.5 19t10.5 17q0 19 -23 28t-74 9q-42 0 -89 -6
t-87 -17v132q37 11 96.5 17.5t109.5 6.5q131 0 192 -33.5t61 -106.5q0 -37 -21.5 -59.5t-63.5 -47.5q-37 -23 -56 -41t-24 -46h-170q3 51 31.5 78z" />
    <glyph glyph-name="uni1EE7" unicode="&#x1ee7;" horiz-adv-x="1066" 
d="M166.5 74.5q-84.5 94.5 -84.5 300.5v722h342v-691q0 -122 94 -122q31 0 64.5 15.5t54.5 43.5v754h342v-1097h-284l-25 113h-15q-103 -133 -263 -133q-141 0 -225.5 94.5zM472.5 1318q22.5 34 60.5 66q24 21 34 33t10 29q0 45 -79 45q-78 0 -154 -24v135q37 12 87.5 19
t95.5 7q119 0 177.5 -38.5t58.5 -119.5q0 -36 -11 -61.5t-26 -42t-41 -38.5q-32 -28 -48 -48.5t-20 -53.5h-170q3 58 25.5 92z" />
    </font>
</defs>
</svg>
